<svg version="1.1" id="Layer_1" xmlns="http://www.w3.org/2000/svg" xmlns:xlink="http://www.w3.org/1999/xlink" x="0" y="0" viewBox="0 0 56.8 78.4" xml:space="preserve"><style>.st0{fill:#32263d}.st3{fill:#d8d8d7}.st4{fill:#9a96a4}.st5{fill:#c6c5c8}.st6{fill:#2d2c34}.st7{fill:#494651}.st8{fill:#d7d7da}.st9{fill:#fab992}.st12{fill:#362c41}.st13{fill:#f19d1f}.st18{fill:#f7a079}.st19{fill:#fab993}.st20{fill:#47312a}.st21{fill:#683535}.st23{fill:#a4a3a7}.st24{fill:#b4b3b7}.st26{fill:#faae32}.st28{fill:#221c29}.st29{fill:#2e2638}.st30{fill:#ed9621}</style><path class="st0" d="M32.6 35.7s-.2 6.5-.2 8.1c0 1.6.4 4.2.4 4.2l.6-.1s0-4.8.1-6.1c.1-1.2.1-6.1.1-6.1h-1z"/><path d="M33.7 36.7c0-.2-.2-.5-.4-.5s-.5.2-.5.4.2.5.4.5c.3.1.5-.1.5-.4z" fill="#ffece0"/><path class="st0" d="M36.8 35.7s1.2 1.9 1.7 2.4 2 1.5 2 1.5-1.2-1.1-1.9-2.2c-.7-1-1.8-1.7-1.8-1.7zm-7.1-.2s-1.3 1.8-1.8 2.3-2.1 1.4-2.1 1.4 1.2-1.1 2-2.1 1.9-1.6 1.9-1.6z"/><path d="M31.5 16.8c0 .1 5.9-1.3 7.4-3.3 1.5-1.9.3-6 0-8.5-.3-2.6-1.5-4.1-3.4-4.6-1.9-.6-4 3.5-4 3.5s-1.6 2.6-1.9 4.9c-.2 1.3 1.9 8 1.9 8z" fill="#582d2c"/><path transform="rotate(-73.674 25.028 45.88)" class="st3" d="M17.6 45.7h14.8v.4H17.6z"/><path transform="rotate(-58.035 26.354 47.48)" class="st3" d="M19.9 47.3h12.9v.4H19.9z"/><path transform="rotate(-40.299 27.046 49.427)" class="st3" d="M21.6 49.2h10.9v.4H21.6z"/><path transform="rotate(-20.066 27.4 51.306)" class="st3" d="M22.6 51.1h9.6v.4h-9.6z"/><path transform="rotate(-88.035 27.412 53.121) scale(.99999)" class="st3" d="M27.2 48.6h.4v9h-.4z"/><path transform="rotate(-66.19 27.059 54.758)" class="st3" d="M26.9 50.2h.4v9.1h-.4z"/><path transform="rotate(-46.394 26.725 56.49)" class="st3" d="M26.5 51.3h.4v10.3h-.4z"/><path transform="rotate(-29.109 25.912 58.225)" class="st3" d="M25.7 52.2h.4v12.1h-.4z"/><path transform="rotate(-13.736 24.61 59.69)" class="st3" d="M24.4 52.8h.4v13.8h-.4z"/><path transform="rotate(-89.331 22.866 60.6) scale(.99997)" class="st3" d="M15.3 60.4h15.2v.4H15.3z"/><path transform="rotate(-74.865 20.945 60.39)" class="st3" d="M13.2 60.2h15.4v.4H13.2z"/><path transform="rotate(-59.37 19.391 59.034)" class="st3" d="M12.3 58.8h14.1v.4H12.3z"/><path transform="rotate(-41.826 18.32 57.101)" class="st3" d="M12.1 56.9h12.4v.4H12.1z"/><path transform="rotate(-21.801 17.614 55.113)" class="st3" d="M11.9 54.9h11.4v.4H11.9z"/><path transform="rotate(-89.841 17.472 52.941)" class="st3" d="M17.3 47.5h.4v10.8h-.4z"/><path transform="rotate(-67.895 17.88 50.85)" class="st3" d="M17.7 45.3h.4v11h-.4z"/><path transform="rotate(-47.902 18.426 48.894)" class="st3" d="M18.2 42.8h.4V55h-.4z"/><path transform="rotate(-30.424 19.41 47.01)" class="st3" d="M19.2 40.1h.4v13.8h-.4z"/><path transform="rotate(-14.928 21.001 45.698)" class="st3" d="M20.8 38.2h.4v15h-.4z"/><path transform="matrix(1 -.00827 .00827 1 -.373 .19)" class="st3" d="M22.7 37.3h.4V53h-.4z"/><path transform="rotate(-66.459 25.392 46.062)" class="st3" d="M18.1 45.9h14.5v.4H18.1z"/><path transform="rotate(-50.096 26.505 47.875)" class="st3" d="M20.2 47.7h12.6v.4H20.2z"/><path transform="rotate(-31.417 27.033 49.875)" class="st3" d="M21.7 49.7h10.7v.4H21.7z"/><path transform="rotate(-10.404 27.16 51.89)" class="st3" d="M22.4 51.7h9.5v.4h-9.5z"/><path transform="rotate(-78.275 26.917 53.625)" class="st3" d="M26.7 49.1h.4v9.1h-.4z"/><path transform="rotate(-57.75 26.666 55.397)" class="st3" d="M26.5 50.3h.4v10.1h-.4z"/><path transform="rotate(-38.332 26.022 57.254)" class="st3" d="M25.8 51.5h.4V63h-.4z"/><path transform="rotate(-21.84 24.993 58.992)" class="st3" d="M24.8 52.2h.4v13.6h-.4z"/><path transform="rotate(-6.892 23.399 60.194)" class="st3" d="M23.2 52.6h.4v15.2h-.4z"/><path transform="rotate(-82.473 21.438 60.176)" class="st3" d="M13.8 60H29v.4H13.8z"/><path transform="rotate(-67.685 19.566 59.72)" class="st3" d="M12 59.5h15.1v.4H12z"/><path transform="rotate(-51.464 18.116 58.136)" class="st3" d="M11.2 57.9H25v.4H11.2z"/><path transform="rotate(-33.01 17.355 56.014)" class="st3" d="M11.3 55.8h12.1v.4H11.3z"/><path transform="rotate(-12.164 16.951 53.898)" class="st3" d="M11.3 53.7h11.3v.4H11.3z"/><path transform="rotate(-80.055 17.063 51.72)" class="st3" d="M16.9 46.3h.4v10.9h-.4z"/><path transform="rotate(-58.768 17.683 49.748)" class="st3" d="M17.5 44.1h.4v11.2h-.4z"/><path transform="rotate(-39.754 18.46 47.824)" class="st3" d="M18.3 41.6h.4v12.5h-.4z"/><path transform="rotate(-23.103 19.678 46.142)" class="st3" d="M19.5 39.1h.4v14.1h-.4z"/><path transform="rotate(-8.069 21.4 45.197)" class="st3" d="M21.2 37.6h.4v15.2h-.4z"/><path transform="rotate(-83.656 23.366 44.953)" class="st3" d="M15.6 44.8h15.6v.4H15.6z"/><path class="st4" d="M21.3 70h-.6c-3.1-.3-5.9-2.4-7.9-5.9-1.8-3.4-2.7-7.7-2.4-12.2.4-5.8 2.6-11.1 6-14 2-1.7 4.2-2.5 6.5-2.3 3.1.3 5.9 2.4 7.9 5.9 1.8 3.4 2.7 7.7 2.4 12.2-.4 5.8-2.6 11.1-6 14-1.8 1.5-3.8 2.3-5.9 2.3zm1-32.1c-1.5 0-2.9.6-4.3 1.8-2.9 2.5-4.8 7.1-5.2 12.3-.3 4.1.5 7.9 2.1 10.9 1.5 2.8 3.6 4.5 5.9 4.6 1.6.1 3.2-.5 4.7-1.7 2.9-2.5 4.8-7.1 5.2-12.3.3-4.1-.5-7.9-2.1-10.9-1.5-2.8-3.6-4.5-5.9-4.6-.1-.1-.3-.1-.4-.1z"/><path class="st3" d="M22.6 68.6h-.5c-2.6-.2-5-2.1-6.7-5.2-1.6-3.1-2.4-7.1-2.1-11.2.3-5.5 2.4-10.3 5.4-12.9 1.6-1.4 3.5-2.1 5.3-1.9 2.6.2 5 2.1 6.7 5.2 1.6 3.1 2.4 7.1 2.1 11.2-.3 5.5-2.4 10.3-5.4 12.9-1.5 1.2-3.1 1.9-4.8 1.9zm1-30.5c-1.5 0-2.9.6-4.3 1.8-2.9 2.5-4.8 7.1-5.1 12.3-.5 8.2 3.1 15.1 8 15.5 1.6.1 3.2-.5 4.7-1.7 2.9-2.5 4.8-7.1 5.1-12.3.5-8.2-3.1-15.1-8-15.5-.1-.1-.3-.1-.4-.1z"/><path class="st5" d="M24.9 59.8H23c.1-3.3.7-32.6 1-34.2.3-1.9 2.5-2.4 3.7-2.4V25c-.3 0-1.6.2-1.8.8-.2 1.3-.7 21-1 34z"/><path class="st6" d="M27.4 24.8c-.1 0-.1 0 0 0-.1 0-.1 0 0 0zM31 23c-3.6 0-3.7.2-3.7.2.3.2.6 1.5.1 1.6h1.2c0 .2.2.3.4.3.1 0 .3-.1.3-.2.1.1.2.2.3.2.2 0 .3-.1.3-.2.1.1.2.2.3.2.2 0 .3-.1.3-.2.1.1.2.2.3.2.2 0 .3-.1.3-.2h.1c.5 0 .8-1.9-.2-1.9z"/><path class="st7" d="M22.2 38.5l-4.6.1c-1.2.1-2.3.6-3 1.5l-.5.6c-.6.8-1.5 1.3-2.4 1.6l-.6.2c-1.4.4-2.5 1.5-2.8 3l-.5 2.1c-.3 1 .2 1.8 1.2 1.6l12.7-2.6c1.5-.3 2.1-.2 2-1.7l-.2-3.9c-.3-1.5.2-2.6-1.3-2.5z"/><path class="st8" d="M3.2 69.1l-1.9-.4 3-14.8v-.1c.6-1.9 2.2-3.4 4.2-3.9l.7-.2 16.4-4.3.5 1.9L9 51.8c-1.3.3-2.4 1.3-2.8 2.6l-3 14.7z"/><path class="st9" d="M25.4 19c0 .1.9 4.3 1.7 7.6 1 3.7 1.8 8.1 2.1 8.5 2.1 2.6 7.4 3.5 9.9.4l1.7-8.9 1.8-7.9c-.5-1-5.6-3-8.6-2.9-4.5.2-8.2 2.2-8.6 3.2z"/><path class="st6" d="M46.2 25.7H24.8L24 46.4l21.3.7z"/><path class="st9" d="M25.5 19c-1.9 3.1-2 13.9-2.1 14.5 0 .6 1.6 1.9 3 .9.4-.3 1.5-8.9 1.5-9.8 0-1.1-1.2-7.7-2.4-5.6z"/><path class="st5" d="M46.2 61.8h-1.9c.1-3.5.6-34.6.9-36.2.3-1.9 2.5-2.4 3.7-2.4V25c-.3 0-1.6.2-1.7.8-.3 1.3-.7 22.2-1 36zM24.3 47.1l-1.9-.1c.1-3.9 0-8.6-.3-9.3.1.1.3.4.7.4v-1.9c.3 0 .6.1.8.3.4.4.8 1.2.8 5.9 0 2.4-.1 4.7-.1 4.7z"/><path d="M26.9 17.6l.7 5.5s-.5 1.5-.7 2.6.4 3.5.4 3.5 2.7 1 5.4-.4h.8s2.8 1.6 6.8.7c0 0 .1.1.4-1.9l-1-4.6.9-5.5-.5-.1-.9 5.6s-2.5.8-3.7 2.1c-1.2 1.3-1.9 3.1-1.9 3.1h-.8s-1.4-4.1-4.6-5.1l-.8-5.6-.5.1z" fill="#405361"/><path d="M24.5 44.6s-.1 1.4 0 1.6c.1.2 10.9 1.3 15.4-.2.2-.1 0-1.3 0-1.3s-10.8-2.1-15.4-.1z" fill="#ddd9d8"/><path class="st7" d="M30.7 57l-1.2.3c-.2.1-.4.3-.3.6l.2.6c.1.2.3.4.6.3l1.2-.3c.2-.1.4-.3.3-.6l-.2-.6c-.1-.2-.4-.3-.6-.3z"/><path class="st12" d="M28.2 34.8s4.9 1.4 6 1.3c1.5-.1 5.7-1.6 5.7-1.6s1.9 5.1 2.2 6.8.6 3.9.2 5.4c-.4 1.5-6.2 1.7-11 1.4s-6.1-.1-6.1-2.4c0-2.2.4-5.5 1.1-7 1-1.3 1.9-3.9 1.9-3.9z"/><path class="st6" d="M24 46.4S7 49.7 7.2 49.7s17.1 2 20.4 1.8S45.3 47 45.3 47s-9.2-.8-21.3-.6zm29-23.6c-4.9 0-4.9.3-4.9.3.4.2.4 1.8.1 2.1h1.6c.1.2.2.4.5.4h.1c.2 0 .3-.1.4-.3.1.1.2.2.4.2s.4-.1.5-.3h.1c.1.2.2.3.4.3s.4-.1.4-.3c.1.2.2.3.4.3s.3-.1.4-.2h.1c.4-.1.8-2.5-.5-2.5z"/><path class="st8" d="M35.5 66.9c-.9 0-1.7-.4-2.3-1-.4-.5-.9-.8-1.4-1-.4-.2-.8-.3-1.3-.3-1.4-.2-2.4-1.4-2.4-2.8H30c0 .4.3.8.8.9.6.1 1.2.3 1.7.5.8.3 1.5.8 2.1 1.5.3.3.7.4 1.1.3l13.7-6 .8 1.8-13.8 6h-.1c-.3.1-.5.1-.8.1z"/><path class="st13" d="M26 18.1c-.8.5-3 4.1-2.9 5 .1.8-.1 1.6-.4 2.4-.4.7-.6 2.3-.5 2.6.1.2.1 2.8 0 3.5-.1.8.2 2.7 3.7 2.7s3.8-5.6 4.5-8.1c.7-2.5-.8-10.3-4.4-8.1z"/><defs><path id="SVGID_1_" d="M27 17.3s-.7.3-1 .8.7 6.6.4 8.7c-.3 2-.4 8.7-.9 11-.4 2.3 0 5.9 0 5.9s2.9-2.1 8.8-2.1c6 0 8.9 1.9 8.9 1.9s-.9-8.6-1-10.6c-.2-2-.1-14.4 0-14.9.1-.4-3.1-1.6-3.1-1.6s-5.9 6-12.1.9z"/></defs><clipPath id="SVGID_2_"><use xlink:href="#SVGID_1_" overflow="visible"/></clipPath><path d="M30.2 15.4s-3.9 2.2-4.2 2.7c-.3.5.7 6.6.4 8.7-.3 2-.4 8.7-.9 11-.4 2.3 0 5.9 0 5.9s2.9-2.1 8.8-2.1c6 0 8.9 1.9 8.9 1.9s-.9-8.6-1-10.6c-.2-2-.1-14.4 0-14.9.1-.4-3.7-2.3-3.7-2.3s-4.8 1.3-8.3-.3z" clip-path="url(#SVGID_2_)" fill="#f9a71c"/><defs><path id="SVGID_3_" d="M27 17.3s-.7.3-1 .8.7 6.6.4 8.7c-.3 2-.4 8.7-.9 11-.4 2.3 0 5.9 0 5.9s2.9-2.1 8.8-2.1c6 0 8.9 1.9 8.9 1.9s-.9-8.6-1-10.6c-.2-2-.1-14.4 0-14.9.1-.4-3.1-1.6-3.1-1.6s-5.9 6-12.1.9z"/></defs><clipPath id="SVGID_4_"><use xlink:href="#SVGID_3_" overflow="visible"/></clipPath><path d="M27.3 41.8c.1.3.3.6.5.8-.1.1-.3.2-.3.5-.1.4 0 .7.2 1 .1.2.4.2.5.1.2-.1.2-.3.1-.5-.1-.1-.1-.3-.1-.4 0-.1.1-.1.2-.2.2.2.5.4.4.4-.4.3 0 .9.4.6.5-.4.5-.9.1-1.4-.1-.1-.2-.1-.2-.2.5-.5.8-1.3.4-2-.1-.2-.2-.3-.4-.4.1 0 .1 0 .2-.1.5-.5.6-1.2.3-1.8-.2-.4-.4-.6-.7-.8.7-.4.8-1.2.5-2-.1-.2-.3-.4-.5-.6.7-.8 1-1.9.4-2.9-.1-.2-.3-.4-.5-.5l.1-.1c.6-.7.8-1.6.3-2.4-.1-.2-.2-.3-.4-.5.1 0 .1-.1.2-.2.4-.7.6-1.5.2-2.3-.1-.2-.3-.4-.4-.6.1 0 .2-.1.3-.2.4-.7.5-1.5.1-2.2-.1-.2-.2-.3-.4-.5.1 0 .2-.1.3-.2.4-.6.2-1.3-.2-1.9-.1-.1-.2-.3-.3-.4.4-.3.8-.7.9-1.2.1-.7-.4-1.4-.7-1.9-.1-.2-.3-.2-.4-.1-.2-.2-.4-.2-.6.1-.3.8-.8 1.5-.6 2.4 0 .2.1.3.2.5v.1c-.3.7-.5 1.5-.2 2.2.1.1.1.2.2.3-.3.8-.5 1.7-.2 2.5.1.1.2.3.3.4-.5.8-.8 1.8-.4 2.6.1.2.2.3.3.4-.5.8-.8 1.8-.3 2.6.1.2.3.4.5.5-.5.6-1 1.4-.7 2.2.1.3.5.7.9 1.1-.5.5-.8 1.2-.6 1.9.1.4.3.6.5.8-.4.5-.6 1.1-.4 1.8l.3.6c-.4.7-.5 1.4-.3 2.1zm.8-22.3c-.1-.2-.2-.3-.2-.6-.1-.5.2-1 .4-1.4.2.3.5.7.5 1.1 0 .5-.3.7-.7.9zm-.1 1c.4.5.8 1 .5 1.5v.2c-.7-.5-.7-1-.5-1.7zm.5 4.4c0 .1-.1.1-.1.2-.7-.6-.6-1.3-.4-2.2.7.5 1 1.2.5 2zm-.1 3v.1c-.1 0-.1 0 0-.1-.9-.5-.8-1.4-.3-2.2.7.6.8 1.4.3 2.2zm0 2.9l-.1.1-.1-.1c-.8-.6-.6-1.4-.2-2.1.6.6 1.1 1.3.4 2.1zm-.1 3.5c-.9-.9-.9-1.6-.1-2.5.8.7.8 1.6.1 2.5zm-.1 1c.5.6.8 1.2.2 1.5-.1 0-.1.1-.1.1-.2-.2-.4-.4-.4-.6-.2-.3.1-.8.3-1zm.4 4.5c-.4-.2-.6-.5-.7-1-.1-.3.1-.6.3-.9.5.4 1.1.9.5 1.6-.1.1-.1.2-.1.3zm-.1 2.3c-.1 0-.1 0 0 0-.1 0-.2-.1-.2-.2-.4-.5-.4-1.1-.1-1.6.1 0 .1.1.2.1.5.5.6 1.1.1 1.7z" clip-path="url(#SVGID_4_)" fill="#faae32"/><defs><path id="SVGID_5_" d="M27 17.3s-.7.3-1 .8.7 6.6.4 8.7c-.3 2-.4 8.7-.9 11-.4 2.3 0 5.9 0 5.9s2.9-2.1 8.8-2.1c6 0 8.9 1.9 8.9 1.9s-.9-8.6-1-10.6c-.2-2-.1-14.4 0-14.9.1-.4-3.1-1.6-3.1-1.6s-5.9 6-12.1.9z"/></defs><clipPath id="SVGID_6_"><use xlink:href="#SVGID_5_" overflow="visible"/></clipPath><path d="M41.7 39.7l.3-.6c.1-.7-.1-1.3-.5-1.7.3-.2.4-.5.5-.9.1-.8-.2-1.4-.7-1.9.4-.5.8-.9.8-1.2.2-.9-.3-1.6-.9-2.2l.5-.5c.5-.9.1-1.8-.4-2.6.1-.1.2-.3.3-.5.4-.8-.1-1.8-.6-2.5.1-.1.2-.2.2-.4.3-.8 0-1.7-.3-2.5.1-.1.1-.2.2-.3.3-.7 0-1.5-.3-2.2v-.1c.1-.2.2-.3.2-.5.2-.9-.4-1.6-.7-2.4-.1-.3-.4-.2-.6-.1-.2-.1-.3 0-.4.2-.3.6-.8 1.3-.6 2 .1.6.5.9 1 1.2-.1.1-.2.3-.3.4-.4.6-.5 1.3-.1 1.9.1.1.2.2.3.2-.1.1-.2.3-.3.5-.4.7-.2 1.6.3 2.2.1.1.2.2.3.2-.2.2-.3.4-.4.6-.3.8-.1 1.6.3 2.3l.2.2c-.1.1-.3.3-.3.5-.4.9-.2 1.8.5 2.4l.1.1c-.2.2-.3.3-.4.6-.5 1-.1 2.1.6 2.9-.2.2-.3.4-.4.6-.3.7-.1 1.6.6 1.9-.3.3-.5.5-.7.9-.3.6-.1 1.3.4 1.8-.4-.2-.3-.2-.3-.2-.1.1-.3.3-.3.5-.3.7-.1 1.5.5 2-.1.1-.2.1-.2.2-.4.5-.3 1 .2 1.4.4.3.8-.4.4-.7-.1 0 .1-.2.4-.5.1 0 .2.1.2.2.1.1 0 .3 0 .4-.1.2-.1.4.1.5.2.1.4.1.5-.1.1-.3.2-.7.1-1-.1-.2-.2-.3-.4-.5.2-.2.3-.5.4-.8.2-.7 0-1.3-.3-1.9zm-2.4-21.3c0-.4.2-.8.4-1.1.2.4.5.9.5 1.4 0 .2-.1.4-.2.6-.3-.2-.7-.4-.7-.9zm.5 3.6s0-.1-.1-.2c-.3-.5 0-1 .4-1.6.3.8.3 1.3-.3 1.8zm.5.7c.3.8.4 1.6-.2 2.2 0 0 0-.1-.1-.2-.6-.8-.4-1.5.3-2zm.1 2.8c.5.7.7 1.6-.1 2.3v-.1c-.6-.7-.6-1.5.1-2.2zm.2 3c.4.7.7 1.5-.1 2.2l-.1.1s0-.1-.1-.1c-.7-.8-.3-1.6.3-2.2zm0 3.1c.8.8.9 1.6 0 2.5-.8-.8-.8-1.7 0-2.5zm.6 4.6c0 .2-.2.4-.4.6l-.1-.1c-.6-.3-.4-.9.1-1.5.2.2.5.6.4 1zm-.8 3.2c-.7-.6-.1-1.2.4-1.6.2.3.4.6.4.9-.1.5-.3.7-.7 1 .1-.1 0-.2-.1-.3zm.5.9c.1 0 .1-.1.2-.1.3.5.3 1.1 0 1.6-.1.1-.1.2-.2.2-.6-.5-.6-1.2 0-1.7z" clip-path="url(#SVGID_6_)" fill="#faae32"/><defs><path id="SVGID_7_" d="M27 17.3s-.7.3-1 .8.7 6.6.4 8.7c-.3 2-.4 8.7-.9 11-.4 2.3 0 5.9 0 5.9s2.9-2.1 8.8-2.1c6 0 8.9 1.9 8.9 1.9s-.9-8.6-1-10.6c-.2-2-.1-14.4 0-14.9.1-.4-3.1-1.6-3.1-1.6s-5.9 6-12.1.9z"/></defs><clipPath id="SVGID_8_"><use xlink:href="#SVGID_7_" overflow="visible"/></clipPath><path d="M33.2 41.8c.1.3.3.6.5.8-.2.1-.3.2-.3.5-.1.3 0 .7.1 1 .1.2.4.2.5.1.2-.1.2-.3.1-.5-.1-.1-.1-.3-.1-.4 0-.1.1-.1.2-.2.2.2.5.4.4.4-.4.3 0 .9.4.6.5-.3.5-.9.1-1.3-.1-.1-.2-.1-.2-.2.5-.5.8-1.3.4-2-.1-.2-.2-.3-.4-.4.1 0 .1 0 .2-.1.5-.5.6-1.1.3-1.7-.2-.4-.4-.6-.7-.8.7-.4.9-1.2.5-1.9-.1-.2-.3-.4-.4-.6.7-.8 1-1.9.5-2.8-.1-.2-.3-.4-.5-.6l.1-.1c.6-.7.8-1.6.4-2.4-.1-.2-.2-.3-.4-.5.1 0 .1-.1.2-.2.4-.7.6-1.5.3-2.2-.1-.2-.2-.4-.4-.6.1 0 .2-.1.3-.2.5-.7.6-1.5.2-2.2-.1-.2-.2-.3-.3-.5.1 0 .2-.1.3-.2.4-.6.3-1.3-.2-1.9-.1-.1-.2-.3-.3-.4.4-.3.9-.6 1-1.2.1-.7-.3-1.3-.7-1.9-.1-.2-.3-.2-.4-.1-.2-.2-.4-.2-.6.1-.3.8-.8 1.5-.6 2.4 0 .2.1.3.2.5v.1c-.3.7-.6 1.4-.2 2.2.1.1.1.2.2.3-.3.8-.6 1.6-.2 2.4.1.1.2.3.2.4-.5.7-.9 1.6-.5 2.5.1.2.2.3.3.4-.5.8-.9 1.7-.3 2.6.1.2.3.4.5.5-.6.6-1 1.3-.8 2.2.1.3.5.7.9 1.1-.5.5-.8 1.2-.6 1.9.1.4.2.6.5.8-.4.5-.6 1.1-.5 1.7.1.2.1.4.3.6-.6.7-.8 1.3-.5 2zm1.2-21.9c-.1-.2-.2-.3-.2-.6 0-.5.2-1 .4-1.4.2.3.5.7.4 1.1.1.4-.2.7-.6.9zm-.1.9c.4.5.8 1 .5 1.5 0 .1 0 .1-.1.2-.6-.5-.6-1-.4-1.7zm.4 4.3c0 .1-.1.1-.1.2-.7-.6-.6-1.3-.3-2.1.7.5.9 1.2.4 1.9zm-.2 3c-.9-.6-.7-1.4-.3-2.1.8.6.8 1.4.3 2.1zm-.1 2.9l-.1.1-.1-.1c-.7-.6-.6-1.4-.1-2.1.7.6 1.1 1.3.3 2.1zm-.1 3.4c-.9-.9-.8-1.6-.1-2.5.8.8.9 1.7.1 2.5zm-.1 1c.5.6.8 1.2.1 1.5-.1 0-.1.1-.1.1-.2-.2-.4-.4-.4-.6-.1-.3.1-.7.4-1zm.3 4.4c-.4-.2-.6-.5-.7-1 0-.3.1-.6.4-.9.5.4 1.1.9.4 1.6-.1.1-.1.2-.1.3zm-.2 2.3c-.1 0-.2-.1-.2-.2-.4-.5-.3-1.1-.1-1.6.1 0 .1.1.2.1.6.6.7 1.2.1 1.7z" clip-path="url(#SVGID_8_)" fill="#faae32"/><path class="st5" d="M13.6 63.3c-.9 0-1.7-.4-2.3-1-.4-.5-.9-.8-1.4-1-.4-.2-.8-.3-1.3-.3-1.4-.2-2.4-1.4-2.4-2.8h1.9c0 .4.3.8.8.9.6.1 1.2.3 1.7.5.8.3 1.5.8 2.1 1.5.3.3.7.4 1.2.3l15.9-4.1.5 1.9-15.9 4.1c-.3-.1-.6 0-.8 0z"/><path class="st7" d="M44.8 34.9h-8.9c-.7 0-1.3.4-1.7 1l-.3.7c-.1.3.1.6.4.6h10.5c.2 0 .4-.2.4-.4v-1.5c-.1-.2-.2-.4-.4-.4z"/><path class="st18" d="M31.8 13.1v3c0 .3 2.1 3.4 4.4-.1l.1-3.1-4.5.2z"/><path class="st19" d="M36.9 3s-7 0-7.1.1-.4 5-.4 5.5.6 3.4.9 3.9c.2.4 2.5 2.4 2.6 2.4.2.1 1.2.1 1.4-.1.2-.1 3.1-2.3 3.3-2.9.1-.3.8-3.2.4-4.1C37.7 7 36.9 3 36.9 3z"/><path class="st20" d="M36.4 8.9c-.7-.7-1.4 0-1.4 0l-.4-.4c.4-.4 1.3-.8 2.1 0l-.3.4zm-4.6 0c-.7-.7-1.4 0-1.4 0l-.4-.4c.4-.4 1.3-.8 2.1 0l-.3.4z"/><path class="st21" d="M34.5 6.7l.2.6s1.4-.2 2.7 0l-.6-.6s-.5-.3-2.3 0zm-4.4.1l-.6.6c1.3-.3 2.8-.1 2.8-.1l.1-.6c-1.8-.3-2.3.1-2.3.1z"/><path d="M32.4 12.2c1.1.4 2-.1 2-.1l.2.4c-.4.4-1.4.9-2.4.2l.2-.5z" fill="#d75656"/><path class="st18" d="M33.2 9.6c-.2 0-.7.9-.7 1.2s.6.7.7.7c.1 0 .9-.6.9-.7s-.8-1.2-.9-1.2z"/><path class="st20" d="M30.6 8.4h.7V9h-.7zm4.6 0h.7V9h-.7z"/><path class="st21" d="M33.9 0c-1.7 0-4.3.2-5.8 3.5-3.1 7.5-2.5 12.5-2 13.9.9 2.3 5.4 2.6 5.4 2.6s.6-1.2 0-3.6c-.5-1.8-2.5-6.1.2-9.8.9-1.3 4.1-2.8 4.1-2.8S37.6 0 33.9 0z"/><path class="st18" d="M38.1 8.2s.9-.5 1.1-.3c.2.2.1 2.6-.1 2.9-.2.3-1.3.5-1.3.5s.3-1.4.3-3.1z"/><path class="st21" d="M39 5C38.7 2.4 37.5.9 35.6.4 33.7-.2 34 3.7 34 3.7s.9-.2 1.9 1.2C37 6.3 37.6 7.7 38 8.2c.3.5 1.3-.6 1-3.2z"/><path class="st5" d="M8.2 64.4h-2V50c0-1.2.3-2.4.8-3.5l3.8-7.8c.8-1.6 2.4-2.6 4.2-2.6h7.7V38H15c-1 0-2 .6-2.4 1.5l-3.8 7.8c-.4.8-.6 1.7-.6 2.6v14.5z"/><path class="st0" d="M26.1 41.4s-8.3.8-13.6 3.2c-3.4 1.6-4.6 1.2-5.1 3.7s.8 4 1.8 3.9c1.1-.2 8.1-1.5 11.6-2.4 3.6-.9 8.1-1.6 9.5-3s4.3-5.4-4.2-5.4z"/><path class="st12" d="M34.2 42.3S26 43.9 21 46.9c-3.3 1.9-4.4 1.6-4.7 4.2-.3 2.5 1.2 3.9 2.2 3.6 1-.3 7.9-2.3 11.3-3.6 3.5-1.2 7.9-2.4 9.1-3.9 1.4-1.6-2.4-5.6-4.7-4.9z"/><path class="st8" d="M30.1 61.7h-1.9V50c0-1.2.3-2.4.8-3.5l3.8-7.8c.8-1.6 2.4-2.6 4.2-2.6h7.7V38H37c-1 0-2 .6-2.4 1.5l-3.8 7.8c-.4.8-.6 1.7-.6 2.6l-.1 11.8z"/><path class="st7" d="M23.6 34.9h-9.4c-.7 0-1.4.4-1.7 1l-.3.7c-.1.3.1.6.4.6h11.1c.2 0 .4-.2.4-.4v-1.5c-.1-.2-.3-.4-.5-.4zm26.8 23.9l-1.1.5c-.2.1-.3.4-.2.6l.2.6c.1.2.4.3.6.2l1.1-.5c.2-.1.3-.4.2-.6l-.2-.5c-.1-.3-.3-.4-.6-.3z"/><path class="st6" d="M23.6 35.3h-7.9c-.6 0-1.2.3-1.5.9l-.2.5c-.1.2.1.5.3.5h9.4c.2 0 .3-.1.3-.3v-1.2c0-.3-.2-.4-.4-.4z"/><path class="st8" d="M45.9 47.1H44c.1-4.1.1-8.8-.2-9.5 0 .1.2.4.6.5l.4-1.9c.9.2 1 1.2 1 2.5 0 .8.1 2 .1 3.5.1 2.4 0 4.9 0 4.9z"/><path class="st6" d="M44.8 35.3h-7.5c-.6 0-1.1.3-1.4.9l-.3.6c-.1.2.1.5.3.5h8.9c.2 0 .3-.1.3-.3v-1.2c0-.4-.1-.5-.3-.5z"/><path class="st7" d="M45.9 42.6c0-1.3.2-3.9-1.2-3.9l-4.3.3c-1.2 0-3 2-3 2-.7.6-2 .7-3 .9l-.6.1c-1.4.3-2.7 2.6-3.2 3.8l-1 2.7c-.3.9.4 2.1 1.4 2l12.2-2.7c1.5-.2 2.6-1.4 2.6-2.7l.1-2.5z"/><path class="st23" d="M33.9 73.9c.2-2.3 0-4.3-1.9-4.8-.2-.1-1.5-.1-1.7-.1-2.2-.2-4.1 1.8-4.2 4.3s1.4 4.7 3.6 4.9c.4 0 1.7.2 2 .1 1.7-.4 2.1-2.3 2.2-4.4z"/><path class="st24" d="M35.5 74.1c.2-2.6-1.4-4.7-3.6-4.9-2.2-.2-4.1 1.8-4.2 4.3-.2 2.6 1.4 4.7 3.6 4.9 2.1.2 4-1.8 4.2-4.3z"/><path class="st7" d="M34.2 74c.1-1.6-.9-2.9-2.2-3s-2.5 1.1-2.6 2.6c-.1 1.6.9 2.9 2.2 3 1.3.2 2.4-1 2.6-2.6z"/><path class="st8" d="M28.2 61.1h1.9v5.3h-1.9z"/><path class="st9" d="M24.1 35c-2.1 1.2-8.6.5-11.5.6-.4 0-1.2-1.3.4-1.7 9.4-2.4 9.8-2.1 10.9-2.1 1.2.1 2.4 1.9.2 3.2z"/><path class="st8" d="M22.5 73.8l-1.9-.4L24 56.6v-.1c.6-1.9 2.2-3.4 4.2-3.9l.7-.2 16.3-4.9.6 1.9-16.3 4.9-.7.2c-1.3.3-2.4 1.3-2.8 2.6l-3.5 16.7z"/><path class="st24" d="M30.8 48.9c-.2 0-.4.2-.4.4s.2.4.4.4.4-.2.4-.4-.2-.4-.4-.4zm2-5.4c-.2 0-.4.2-.4.4s.2.4.4.4.4-.2.4-.4c0-.3-.2-.4-.4-.4z"/><path class="st6" d="M28 69.8c-.1-.2.1-1.6.1-1.6v-2l2.2.1v1.1s1 .6 1.3 1.2c.3.5 1.1 3.7 1.4 4.8 0 .2-.1.4-.3.5l-.7.1c-.2.1-.4-.1-.5-.3-.3-1.1-1-4.1-1.3-4.2-2-.2-2.2.3-2.2.3z"/><path class="st24" d="M32.2 72.8c-.2 0-.4.2-.4.4s.2.4.4.4.4-.2.4-.4c-.1-.2-.2-.4-.4-.4z"/><path class="st23" d="M11.4 69c.2-2.1 0-3.9-1.7-4.4-.2 0-1.4-.1-1.6-.1-2-.1-3.7 1.6-3.9 4-.2 2.3 1.3 4.3 3.3 4.5.4 0 1.5.1 1.9 0 1.5-.4 1.9-2.1 2-4z"/><path class="st24" d="M12.8 69.1c.2-2.3-1.3-4.3-3.3-4.5-2-.1-3.7 1.6-3.9 4C5.5 70.9 7 73 9 73.1c1.9.1 3.7-1.6 3.8-4z"/><path d="M10.4 35.7c-.5.5-1.6 2.2-1.9 3.7-.2.7-.2 1.5.1 1.4s.3-.7.6-1.5.6-1.9.8-2.5c.3-.9.4-1.1.4-1.1z" fill="#f7a17a"/><path class="st19" d="M12.6 34s-1.5 1-2 1.5c-.6.6-1.5 1.9-1.2 2.5.2.6.7-.1 1.4-.9.5-.5 1.5-.6 1.9-1.1.5-.4.9-2.1-.1-2z"/><path class="st19" d="M12.6 35.4c.6.5-.5 1.5-.9 2.1-.4.5-.6 1.5-.9 1.6-.4.1-.3-.4-.2-.8.1-.4.4-.9.4-1.4 0-.5 1.2-1.7 1.6-1.5zm-2.7 1.3c-.5.5-.8 1.5-1 2.2s-.4 1.4-.1 1.5c.2.1.3-.7.8-1.4.5-.8.7-1.2 1.1-1.6.4-.7.3-1.9-.8-.7z"/><path class="st7" d="M11.9 69c.1-1.6-.9-2.9-2.2-3s-2.5 1.1-2.6 2.6.9 2.9 2.2 3c1.4.2 2.5-1 2.6-2.6z"/><path class="st6" d="M6 65.1c-.1-.2.1-1.6.1-1.6v-2l2.2.1v1.1s1 .6 1.3 1.2c.3.5 1.1 3.7 1.4 4.8 0 .2-.1.4-.3.5l-.7.2c-.2.1-.4-.1-.5-.3C9.3 68 8.6 65 8.3 65c-2.1-.4-2.3.1-2.3.1z"/><path class="st26" d="M22.1 29.6c-.6-.1-1.3 1.9-1 2.4s3.4 3.5 4.2 3.3c1.2-.2 1.3-4.3 1.1-4.4-.3-.1-2.9-1.1-4.3-1.3z"/><path class="st24" d="M10.3 68.2c-.2 0-.4.2-.4.4s.2.4.4.4.4-.2.4-.4c-.1-.2-.2-.4-.4-.4z"/><path class="st6" d="M21 72.6l1.6.5s-.6 2.3-1 2.4-2.4.2-3 .1c-.6 0-4.5-1-6.7-1.6-.8-.2-1.6-.4-1.2-1.3.1-.2 1.4-.9 2-.9s7.9 1.5 7.9 1.5l.4-.7z"/><path class="st7" d="M19.9 74.4c-.3.3-.7.6-1.3.5-.6 0-3.1-.7-5.2-1.1-.8-.2-2.4-.7-2.6-1-.1-.2 1.1-1 1.8-1 .6 0 8 1.6 8 1.6s-.4.7-.7 1z"/><path transform="rotate(-74.311 48.814 49.432)" class="st3" d="M41.5 49.2h14.7v.4H41.5z"/><path transform="rotate(-59.09 50.075 51.02)" class="st3" d="M43.7 50.8h12.7v.4H43.7z"/><path transform="rotate(-41.477 50.823 52.879)" class="st3" d="M45.5 52.7h10.7v.4H45.5z"/><path transform="rotate(-20.873 51.099 54.807)" class="st3" d="M46.5 54.6h9.2v.4h-9.2z"/><path transform="rotate(-87.953 51.114 56.63) scale(1.00004)" class="st3" d="M50.9 52.3h.4v8.6h-.4z"/><path transform="rotate(-65.298 50.808 58.295)" class="st3" d="M50.6 53.9h.4v8.8h-.4z"/><path transform="rotate(-45.195 50.429 60.024)" class="st3" d="M50.2 55h.4v10.1h-.4z"/><path transform="rotate(-28.103 49.729 61.752)" class="st3" d="M49.5 55.8h.4v12h-.4z"/><path transform="rotate(-13.195 48.407 63.193)" class="st3" d="M48.2 56.3h.4v13.8h-.4z"/><path transform="rotate(-89.331 46.742 64.103) scale(.99997)" class="st3" d="M39.1 63.9h15.2v.4H39.1z"/><path transform="rotate(-75.46 44.897 63.917)" class="st3" d="M37.2 63.7h15.3v.4H37.2z"/><path transform="rotate(-60.39 43.427 62.529)" class="st3" d="M36.4 62.3h14v.4h-14z"/><path transform="rotate(-43.006 42.369 60.615)" class="st3" d="M36.3 60.4h12.1v.4H36.3z"/><path transform="rotate(-22.631 41.715 58.609)" class="st3" d="M36.2 58.4h11v.4h-11z"/><path transform="rotate(-89.833 41.57 56.45)" class="st3" d="M41.4 51.2h.4v10.4h-.4z"/><path transform="rotate(-67.046 41.97 54.345)" class="st3" d="M41.8 49h.4v10.6h-.4z"/><path transform="rotate(-46.701 42.477 52.34)" class="st3" d="M42.3 46.4h.4v11.9h-.4z"/><path transform="rotate(-29.39 43.47 50.433)" class="st3" d="M43.3 43.6h.4v13.7h-.4z"/><path transform="rotate(-14.342 45 49.19)" class="st3" d="M44.8 41.7h.4v15h-.4z"/><path transform="matrix(1 -.00793 .00793 1 -.384 .373)" class="st3" d="M46.6 40.8h.4v15.7h-.4z"/><path transform="rotate(-67.325 49.165 49.6)" class="st3" d="M42 49.4h14.4v.4H42z"/><path transform="rotate(-51.244 50.22 51.407)" class="st3" d="M44 51.2h12.4v.4H44z"/><path transform="rotate(-32.512 50.69 53.414)" class="st3" d="M45.5 53.2h10.4v.4H45.5z"/><path transform="rotate(-10.827 50.855 55.398)" class="st3" d="M46.3 55.2h9.1v.4h-9.1z"/><path transform="rotate(-77.79 50.635 57.15)" class="st3" d="M50.4 52.8h.4v8.7h-.4z"/><path transform="rotate(-56.66 50.47 58.87)" class="st3" d="M50.3 54h.4v9.8h-.4z"/><path transform="rotate(-37.172 49.838 60.772)" class="st3" d="M49.6 55.1h.4v11.4h-.4z"/><path transform="rotate(-21.029 48.807 62.54)" class="st3" d="M48.6 55.8h.4v13.5h-.4z"/><path transform="rotate(-6.609 47.207 63.803)" class="st3" d="M47 56.2h.4v15.2H47z"/><path transform="rotate(-82.82 45.462 63.738)" class="st3" d="M37.9 63.5h15.2v.4H37.9z"/><path transform="rotate(-68.505 43.603 63.158)" class="st3" d="M36.1 63h15.1v.4H36.1z"/><path transform="rotate(-52.663 42.202 61.621)" class="st3" d="M35.4 61.4H49v.4H35.4z"/><path transform="rotate(-34.13 41.496 59.488)" class="st3" d="M35.6 59.3h11.8v.4H35.6z"/><path transform="rotate(-12.667 41.101 57.392)" class="st3" d="M35.7 57.2h10.8v.4H35.7z"/><path transform="rotate(-79.642 41.173 55.243)" class="st3" d="M41 50h.4v10.5H41z"/><path transform="rotate(-57.691 41.737 53.225)" class="st3" d="M41.5 47.8h.4v10.9h-.4z"/><path transform="rotate(-38.586 42.477 51.36)" class="st3" d="M42.3 45.2h.4v12.3h-.4z"/><path transform="rotate(-22.256 43.716 49.74)" class="st3" d="M43.5 42.7h.4v14.1h-.4z"/><path transform="rotate(-7.735 45.401 48.691)" class="st3" d="M45.2 41.1h.4v15.2h-.4z"/><path transform="rotate(-83.95 47.24 48.424)" class="st3" d="M39.4 48.2H55v.4H39.4z"/><path class="st4" d="M45.3 73.5h-.6c-3-.3-5.7-2.4-7.6-5.9-1.8-3.4-2.6-7.7-2.3-12.2.4-6 2.6-11.3 5.9-14.2 1.9-1.6 4-2.4 6.1-2.2 3 .3 5.7 2.4 7.6 5.9 1.8 3.4 2.6 7.7 2.3 12.2-.4 6-2.6 11.3-5.9 14.2-1.7 1.5-3.6 2.2-5.5 2.2zm.9-32.1c-1.3 0-2.7.6-3.9 1.6-2.8 2.4-4.8 7.2-5.1 12.5-.2 4.1.5 8 2 11 1.5 2.8 3.5 4.4 5.6 4.6 1.5.1 2.9-.4 4.3-1.6C52 67 53.9 62.2 54.3 57c.2-4.1-.5-8-2-11-1.5-2.8-3.5-4.4-5.6-4.6h-.5z"/><path class="st3" d="M46.5 72.1H46c-2.6-.2-4.8-2.1-6.4-5.3-1.6-3.1-2.3-7.1-2-11.2.3-5.6 2.3-10.5 5.4-13.1 1.5-1.3 3.3-2 5-1.8 2.6.2 4.8 2.1 6.4 5.3 1.6 3.1 2.3 7.1 2 11.2C56 62.8 54 67.7 51 70.3c-1.4 1.2-2.9 1.8-4.5 1.8zm.9-30.5c-1.3 0-2.7.6-3.9 1.6-2.8 2.4-4.7 7.2-5.1 12.5-.5 8.2 2.9 15.2 7.6 15.6 1.5.1 3-.4 4.3-1.6 2.8-2.4 4.7-7.2 5.1-12.5.6-8.2-2.8-15.2-7.6-15.6h-.4z"/><path class="st8" d="M45.9 55.6h2.8V57h-2.8z"/><path class="st8" d="M49.5 56.3c0-.7-.4-1.2-.9-1.2s-.9.5-.9 1.2.4 1.2.9 1.2.9-.6.9-1.2z"/><path class="st6" d="M49.4 56.3c0-.4-.2-.7-.5-.7s-.5.3-.5.7.2.7.5.7c.2 0 .5-.3.5-.7zM1.5 68.2l-.3 1.2 1.7.2.2-1z"/><path class="st6" d="M.7 69.4c-.2 0-.1 1-.1 1.3.1.2 5.8 2.3 8 2.3.5 0 2-1 2-1.2 0 0 .2-.6-.2-.8-1.6-.6-7-1.7-7.5-1.7-.6.1-2.2.1-2.2.1z"/><path class="st7" d="M1 69.5c-.2.3-.2.5 1.4 1 1.6.6 5.2 1.8 6.1 1.7.9-.1 1.9-.8 1.9-1 .1-.3-6.5-1.7-7.3-1.7-.8-.1-2.1 0-2.1 0z"/><path class="st19" d="M31.8 36.1l-1.3 1.3c-.8.8-1.3 1.4-1.3 1.5-.1.2.6.3 1.3 1 .6.6.9.7.9.7s.4.7.6.3c.1-.2 1.5-2 1.8-3 .2-1-.7-3.1-2-1.8z"/><path class="st19" d="M30.1 42.7c-.2-.6.1-1.2.2-1.7.1-.3.2-.7.4-1 .1-.4.8-.2.5.8-.3.6-.6 1.3-.5 1.9 0 .3-.5.3-.6 0z"/><path class="st19" d="M30.7 39.5c.1.2 0 .4-.1.5-.2.3-.4.5-.5.8-.3.7-.4 1.4-.5 2.1 0 .3-.5.4-.6 0-.2-1.1.3-2.4.9-3.5 0 0 .6-.4.8.1zm1.1 1.6c-.1.1-.1.2-.2.3v.3c.1.3-.3.6-.5.3v-.1c-.1-.2-.1-.4-.1-.5s0-.3.1-.4v-.1c0-.1 0-.2.1-.3.3-.7 1-.1.6.5zm-2-1.6c-.2.3-.4.5-.6.8-.3.5-.4 1.1-.7 1.6-.1.2-.4.2-.4-.1-.2-1.1.4-1.9 1-2.8.7-.9.7.5.7.5z"/><path class="st9" d="M15.9 55c0 1.3-.4 16.1-.3 16.5.1.3 2.1.8 2.3 0 .1-.3 2.5-10.7 2.4-16 .1-3.1-4.4-4.5-4.4-.5zm-8.8-2.5c0 1.3-.4 16.1-.3 16.5.1.3 2.1.8 2.3 0 .1-.3 2.5-10.7 2.4-16 0-3.1-4.4-4.5-4.4-.5zM44 35.3c-2 1.4-8.4 1.5-11.3 1.9-.4.1-1.3-1.2.2-1.8 9-3.5 9.5-3.2 10.6-3.3 1.1 0 2.5 1.8.5 3.2z"/><path class="st13" d="M42.7 18.1c.8.6 2.6 4.3 2.5 5.2-.2.8-.1 1.6.3 2.4.3.8.4 2.4.3 2.6-.2.2-.3 2.8-.2 3.5 0 .8-.6 1.7-4 1.4s-3.3-4.9-3.8-7.4c-.6-2.5 1.4-10.2 4.9-7.7z"/><path class="st26" d="M45.6 30c.7 0 0 3.5-.4 4-.4.4-5.6-.2-6.3-.8-.8-.6-.7-2.6-.4-2.7.3-.1 5.3-.4 7.1-.5z"/><path class="st12" d="M17 49.2c-.8.5-1.1 2.2-1.2 5.5-.1 3.3-.6 12.8-.6 12.8s2.1 1 3.5.7c0 0 2.9-11.8 3.4-14.7.4-3-1.8-6.5-5.1-4.3z"/><path class="st0" d="M8.2 46.8c-.8.5-1.1 2.2-1.2 5.5s-.6 12.8-.6 12.8 2.1 1 3.5.7c0 0 2.9-11.8 3.4-14.7.4-3-1.8-6.4-5.1-4.3z"/><path d="M18.9 67.6s0 .5-.2.7-1.3.4-1.5.3c-.9-.2-1.9-.7-2-1s.1-.7.1-.7l1.2.5c2.1.9 2.4.2 2.4.2zM10.1 65s0 .5-.2.7-1.3.4-1.5.3c-.9-.2-1.9-.7-2-1s.1-.7.1-.7l1.2.5c2.2.8 2.4.2 2.4.2z" fill="#493b56"/><path class="st28" d="M9.2 75.1s-.2.4-.2.9c0 0 .5.7 2.3.9 1.8.2 3.4-.6 4.3-1.4s1.2-1.1 1.2-1.1h.3l1.3-.7-.1-.7s-1.2.4-2.8 1.4c-1.5 1-6.3.7-6.3.7z"/><path class="st29" d="M14.9 70.2s-2.3 2.5-3.4 2.7c-1.3.2-2.4.9-2.3 2.2 0 .9 2.3 1.3 4.1.9s2-1.3 3.2-1.9c1.1-.7 1.8-.7 1.9-1 .1-.2.1-2.2-.1-2.3-.2 0-1.1.2-1.5 0-.5-.1-1.7-.8-1.9-.6z"/><path class="st30" d="M9.2 75.4l-.1-.1v-.1h.1l.1.1s0 .1-.1.1c.1 0 .1 0 0 0zm2.4.9h-.3s-.1 0-.1-.1c0 0 0-.1.1-.1h.3s.1.1 0 .2c.1-.1 0 0 0 0zm.2-.1c-.1-.1 0-.1 0 0 .1-.1.2-.1.3-.1 0 0 .1 0 .1.1 0 0 0 .1-.1.1-.1-.1-.2-.1-.3-.1zm-.7 0h-.3s-.1 0-.1-.1c0 0 0-.1.1-.1h.2c.1.1.1.1.1.2zm1.3 0c-.1 0-.1 0 0 0-.1-.1 0-.1 0 0 .1-.1.2-.1.2-.1s.1 0 .1.1c0 0 0 .1-.1.1-.1-.1-.1-.1-.2-.1zm-1.8-.1c-.1 0-.2 0-.3-.1 0 0-.1 0 0-.1 0 0 0-.1.1 0 .1 0 .2.1.2.2 0-.1 0-.1 0 0zm2.3 0c-.1 0-.1 0 0 0-.1-.1 0-.1 0 0 .1-.1.2-.1.2-.2h.1v.1c-.2.1-.2.1-.3.1zm.5-.1c-.1 0-.1 0 0 0-.1-.1-.1-.1 0 0l.2-.2h.1v.1c-.2 0-.2.1-.3.1zm-3.3 0c-.1 0-.2-.1-.3-.1v-.1h.1c.1 0 .1.1.2.2.1-.2.1-.1 0 0 0-.1 0 0 0 0zm3.7-.2c-.1-.1-.1-.1 0 0l.2-.2h.1v.1c-.1 0-.2.1-.3.1.1 0 0 0 0 0zm-4.2-.1c-.1-.1-.2-.1-.2-.2v-.1h.1c.1.1.1.1.2.1 0 .1 0 .2-.1.2.1 0 .1 0 0 0zm4.7-.1c-.1-.1-.1-.1 0 0l.2-.2h.1v.1c-.1 0-.2.1-.3.1zm.4-.2s0-.1 0 0c-.1-.1-.1-.1 0 0 .1-.1.1-.2.2-.2h.1v.1c-.1-.1-.1 0-.3.1.1-.1.1 0 0 0zm.5-.3c-.1 0-.1 0 0 0-.1-.1-.1-.1 0 0 .1-.2.1-.2.2-.3h.1v.1c-.2 0-.2.1-.3.2zm.4-.3s-.1-.1 0 0c-.1-.1-.1-.1 0 0l.2-.3h.1v.1l-.3.2c0-.1 0 0 0 0zm.4-.4s-.1 0 0 0c-.1-.1-.1-.1 0 0 .1-.2.1-.2.2-.3h.1v.1c-.1.1-.2.2-.3.2zm.4-.2s0-.1 0 0c-.1-.1-.1-.1 0 0l.2-.2h.1v.1l-.3.1zm.5-.3c-.1 0-.1 0 0 0-.1-.1-.1-.1 0 0l.2-.2h.1v.1l-.3.1zm.4-.2c-.1-.1-.1-.1 0 0l.2-.2h.1v.1l-.3.1zm.5-.2c-.1 0-.1-.1 0 0-.1-.1-.1-.1 0 0l.2-.2h.1v.1l-.3.1zm.4-.3c-.1-.1-.1-.1 0 0l.1-.2h.1v.1l-.2.1z"/><path class="st28" d="M12.2 72.6s.6.3.7.2c.1-.1 2-1.6 2.7-2.5 0 0-.3-.2-.6-.1s-2.8 2.4-2.8 2.4zm3.7-2.1s-2.6 2.5-2.5 2.6.8.7 1.4.5c.6-.2 2.7-2.6 2.7-2.6s-1-.1-1.6-.5z"/><path class="st30" d="M14.6 72.9c-.7-.4-1.4-.5-2.1-.6-.2 0-.2.2 0 .3.7 0 1.4.2 2 .5.1.1.2-.1.1-.2zm.4-1.1h-1.1c-.1-.1-.2-.1-.4-.2-.1 0-.2.1-.1.2-.1 0-.3 0-.4.1-.2 0-.1.3.1.2.3-.1.5-.1.8-.1.2.1.4.4.5.6.1.1.3.1.2-.1s-.2-.4-.4-.6c.3 0 .5 0 .8-.1.2.2.2 0 0 0zm1-.8c-.4-.1-.7-.1-1.1-.1-.1-.1-.3-.2-.4-.2-.2-.1-.2.2-.1.2h.1c-.3 0-.5.1-.8.1-.2 0-.1.3.1.2.3-.1.7-.1 1-.1.2.1.3.3.3.5s.3.1.2-.1-.1-.3-.2-.5h.9c.1.3.2.1 0 0z"/><path class="st30" d="M16.4 70.9c-.5-.3-1.1-.5-1.7-.5-.2 0-.2.3 0 .3.6 0 1.1.1 1.6.4.1.1.2-.2.1-.2z"/><path class="st28" d="M.2 72.7c-.2 0-.2.5-.2.7.1.2 1.2 1.1 2.9 1s2.6-.7 3.3-1.4c.7-.7 1-.9 1-.9l.6.1 1.6-.6V71s-1-.1-1.9.3c-.8.4-6.6 1.7-7.3 1.4z"/><path class="st29" d="M6.1 68.4s-2 1.8-4.1 2.2c-1.1.2-2 1.7-1.9 2.1s2.3 1.5 4.4.8c1.4-.5 1.9-1.3 2.6-1.6 1-.6 2.3-.6 2.3-.9 0-.2.1-2.4.1-2.4s-.8.2-1.3.2c-.6.1-1.3-.4-2.1-.4z"/><path class="st28" d="M2.9 70.4s.5.1.7.1c.1 0 2.1-1.1 2.8-2.1 0 0-.1-.1-.3 0-.1 0-2.2 1.7-3.2 2zm4.6-1.7l-2.9 2.1s.9.4 1.1.7c.3.2 2.8-1.4 3.3-2.8 0 0-1 .3-1.5 0z"/><path class="st30" d="M5.5 70.8c-.7-.4-1.4-.6-2.2-.6-.2 0-.2.3 0 .3.7 0 1.4.2 2 .5.2.1.3-.1.2-.2zm.8-1H5.2c-.1-.1-.2-.1-.4-.2-.1 0-.2.1-.1.2-.1 0-.3 0-.4.1-.2 0-.1.3.1.2.3-.1.5-.1.8-.1.2.2.4.4.5.6s.3.1.2-.1c-.1-.2-.2-.4-.4-.6.3 0 .5 0 .8-.1.1.3.1 0 0 0zm.9-.7c-.3 0-.7-.1-1-.1-.1-.1-.3-.2-.4-.3-.2 0-.3.3-.2.3h.1c-.3 0-.5.1-.8.1-.2 0-.1.3.1.2.4-.1.7-.1 1.1-.1.2.1.3.3.3.5s.3.1.2-.1c-.1-.2-.1-.3-.2-.5h.8c.1.3.2.1 0 0zm.5-.2c-.5-.3-1.1-.5-1.8-.5-.2 0-.2.3 0 .3.6 0 1.1.1 1.6.4.2.1.4-.1.2-.2zm-4.9 4.9h-.3s-.1 0-.1-.1c0 0 0-.1.1-.1h.3c0 .1.1.1 0 .2.1 0 0 0 0 0zm.3 0c-.1 0-.1 0 0 0-.1-.1 0-.1 0 0 .1-.1.2-.1.3-.1 0 0 .1 0 .1.1s0 .1-.1.1c-.2-.1-.3-.1-.3-.1zm-.8 0H2s-.1 0-.1-.1c0 0 0-.1.1-.1h.2c.1.1.2.1.1.2zm1.3 0c-.1 0-.1 0 0 0-.1-.1 0-.1 0 0 .1-.1.2-.1.2-.1s.1 0 .1.1c0 0 0 .1-.1.1-.1-.1-.1-.1-.2-.1zm-1.8-.1c-.1 0-.2 0-.3-.1 0 0-.1 0 0-.1 0 0 0-.1.1 0 .1 0 .2.1.2.2 0-.1.1-.1 0 0zm2.3 0c-.1 0-.1 0 0 0-.1-.1 0-.1 0 0 .1-.1.2-.1.2-.2h.1v.1c-.2 0-.2.1-.3.1zm-2.8-.2c-.1 0-.2-.1-.3-.1v-.1h.1c.1 0 .2.1.2.2.1-.1.1 0 0 0 .1 0 0 0 0 0zm3.2 0c-.1-.1-.1-.1 0 0l.2-.2h.1v.1c-.1.1-.1.1-.3.1.1 0 .1 0 0 0zm.5-.2c-.1-.1-.1-.1 0 0l.2-.2h.1v.1c-.1.1-.2.1-.3.1zm-4.1 0c-.1 0-.1 0 0 0-.1-.1-.2-.1-.3-.2V73h.1c.1 0 .1.1.2.1v.2zm4.6-.2c-.1 0-.1 0 0 0-.1-.1-.1-.1 0 0 0-.1 0-.2.1-.2h.1v.1c-.1 0-.1 0-.2.1zM.4 73c-.2-.1-.2-.2-.2-.2v-.1h.1s.1.1.1.3c.1-.1.1 0 0 0 .1 0 .1 0 0 0zm5.5-.2c-.1-.1-.1-.1 0 0 .1-.1.1-.2.2-.2h.1v.1c-.1 0-.2.1-.3.1zm.4-.3c-.1-.1-.1-.1 0 0l.2-.3h.1v.1l-.3.2zm.4-.3c-.1-.1-.1-.1 0 0 .1-.1.1-.2.2-.2H7v.1c-.1 0-.2.1-.3.1zm.5-.3c-.1 0-.1 0 0 0-.1-.1-.1-.1 0 0 .1-.1.1-.2.2-.2h.1v.1c-.2.1-.2.1-.3.1zm.4-.2c-.1-.1-.1-.1 0 0l.2-.2h.1v.1c-.1 0-.2.1-.3.1zm.5-.2c-.1 0-.1 0 0 0-.1-.1-.1-.1 0 0l.2-.2h.1v.1c-.1 0-.2.1-.3.1zm.5-.2c-.1 0-.1 0 0 0-.1-.1-.1-.1 0 0l.2-.2h.1v.1c-.2.1-.2.1-.3.1zm.4-.1c0-.1 0-.1 0 0 .1-.1.2-.1.2-.2h.1v.1c-.1 0-.2.1-.3.1.1 0 0 0 0 0z"/></svg>