<svg version="1.1" id="Student_2" xmlns="http://www.w3.org/2000/svg" x="0" y="0" viewBox="0 0 97.2 342.7" xml:space="preserve"><style>.st1{fill:#3d062c}.st2{fill:#2b0322}.st3{fill:#7a1f3b}.st4{fill:#c8472d}.st5{fill:#db6537}.st7{fill:#fdc35f}.st8{fill:#ba342a}.st9{fill:#cb684a}.st12{fill:#f9803c}.st14{fill:#492e42}.st15{fill:#3d263a}.st16{fill:#cf4b5c}.st17{fill:#7c0e1e}.st18{fill:#c72235}.st19{fill:#330727}.st20{fill:#541035}.st21{fill:#edbb91}.st22{fill:#301c30}.st23{fill:#5e3b4e}.st24{fill:#ffa14d}.st27{fill:#a01537}.st28{fill:#e54545}</style><path d="M63.9 9.4c3.7 5.4 5.4 12.8 4.8 21.4-.6 8.6-3.4 13.2-5.1 20.1-1.7 6.9-2.3 14.4-.6 19.6 1.8 5.2 6.4 12 5.1 16.5-1.3 4.6-14.8 9.4-31.1 6.5-16.3-2.8-27.2-13.6-26.3-17.9.9-4.3 8.9-11.3 9.3-23.4.4-12.1-3.3-28.7-.4-36.8C22.5 7.3 30.5 1.3 38.6.2s19.7 1 25.3 9.2z" fill="#4c0b2e"/><path class="st1" d="M10.7 75.6c.4-1.8 2-4.1 3.8-7 3.1-.8 6-2.6 8.1-5.1 3.6-4.3 4.9-10.1 5-15.7.1-5.6-.9-11.2-1.6-16.7-.1-1.2-.2-2.4.2-3.4.4-.8 1-1.4 1.7-2 8.3-7.8 17.7-15 23.6-24.5C56.4 2.5 61 5.1 64 9.5c3.5 5.2 5.3 12.3 4.8 20.6-1.2 1.1-2.5 2.1-3.6 3.2-5.8 5.6-8.5 13.9-8.7 21.9-.2 8.1 2 16 4.7 23.6 1.3 3.7 3.1 7.6 6.1 9.9-3.4 4-15.7 7.6-30.3 5-16.3-3-27.2-13.8-26.3-18.1z"/><path class="st2" d="M24.4 79.3c4-7.1 7.1-14.7 8.6-22.7 1.4-8 1-16.4-1.9-24 5-.4 10.1 1.1 14.6 3.4s8.5 5.4 12.5 8.5c.3.2.6.5.7.8.2.6-.1 1.2-.4 1.7-5.9 10.1-8.7 22.9-4 33.7-10.1-1.6-20.1-2.1-30.1-1.4z"/><path class="st3" d="M20 52.2c.4-12.1-3.3-28.7-.4-36.8S30.5 1.3 38.6.2c7.8-1 18.9.8 24.7 8.3-2.4-1.8-5-3.2-7.8-4.1C48.7 2.1 44 2 37.4 3.8c-.2 0-.4.1-.7.2 1.9 1.8 1 5-.4 7.2-3 4.6-8.3 7.6-13.7 8-2 6.4-2.5 13.3-2.2 20.1.3 5.7 1.3 11.4.3 16.9-.5 2.9-1.8 5.7-3.7 7.9 1.6-3.3 2.8-7.2 3-11.9z"/><path class="st4" d="M51.7 12.1c9 .2 13.2 7.7 14.1 13.6s-1 19.2-3 24c-2 4.9-6 8.4-8 8.7-2 .4-11.8-4.1-14.8-8.2-3-4-7.4-19.1-5.8-26.4 2-8.9 10.7-11.9 17.5-11.7z"/><path class="st5" d="M54.5 58.1c2-.4 6-3.9 8-8.7s3.8-18.1 3-24c-.4-2.6-1.4-5.4-3.1-7.9 2 2.5 3.1 5.6 3.5 8.3.8 5.9-1 19.2-3 24-2 4.9-6 8.4-8 8.7-2 .4-11.8-4.1-14.8-8.2l-.1-.1c3.2 4 12.6 8.2 14.5 7.9z"/><path class="st3" d="M68 32.9c1-5.3.1-12.6 0-13.5.8 3.5 1 7.4.7 11.5-.6 8.6-3.4 13.2-5.1 20.1-1.7 6.9-2.3 14.4-.6 19.6.9 2.6 2.4 5.5 3.6 8.3-1.3.2-2.6-.4-3.4-2.3-2.6-5.9-2.7-11.2-2.1-19 .7-7.9 5.8-19.1 6.9-24.7z"/><path class="st2" d="M67.6 112.6c.2-2.6.5-4.7.7-5.3.4-1.5 3-6.4 3.1-8.9.1-2.4-3.7-6.3-5.6-8-1.6-1.5-6.2-13.3-7.4-16.7-.2-.5-.3-.8-.3-.9l-2.6-1.6s14.2 5.3 14.5 7c.4 1.7-.2 8-.2 8L79.9 106s3.2-2.3 4.8-2c1.7.3 8 5.4 9.7 9 1.7 3.6 1.5 6.4 1.1 6.4-.4 0-2 .9-2 .9s-6 7.8-7.5 8.1c-1.6.2-12-9.5-15.4-12.8-1.4-1.2-2.3-2.2-3-3z"/><path d="M95 60.9s.6-10.9 0-11.5c-.6-.6-13.7 3.4-14.2 4.3-.4.9.2 30.1.9 30.1s9.9-2.2 11.1-3.2c1.1-.9 2.2-19.7 2.2-19.7z" fill="#ff9f4f"/><path class="st7" d="M95.2 50.3c.2 2.7-.2 10.6-.2 10.6s-1 18.8-2.2 19.7c-.9.7-6.4 2.2-9.4 2.8-.6-5.2-1.1-28.3-.7-29.1.4-.6 8.7-3.2 12.5-4z"/><path class="st4" d="M97 57.3c.5.7 0 5.5-.5 7.6-.5 2.1-1.2 6.6-1 10.7.2 4.1-.8 6.5-1.1 12.9-.3 6.4.3 22.2-.7 25.4-1.1 3.2-4.6 3.2-5.8 3-1.3-.3-7.3-5.3-6.8-8.1s4.3-7.5 5.8-12.3c1.5-4.9 2.5-11.2 2.4-12.4-.2-1.2-.5-3.8-.5-4.9 0-1.1-.2-6.4-.4-6.8-.1-.5-1.8-1.6-2.6-2.1-.8-.4-2.6-1.2-2.5-2 .2-.8 2.7-.5 3.4.1.7.6 2.4 2 2.9 2.1.5 0-1.6-3.8-2.4-5s-1.6-1.5-2.3-2.4c-.7-.8-.6-2.3.5-2 1.1.3 3.9 2.4 3.9 2.4s-1.9-3.1-2.4-3.9c-.5-.7-1-1.8-1-2.1 0-1.3 1.2-1.8 1.9-.7.9 1.3 2.3 3.1 3.2 4.9.9 1.8 2.6 5.7 2.6 5.7s1-5.6 1-7c.1-1.6 1-5 2.4-3.1z"/><path class="st8" d="M81 108.8c.5-2.8 4.3-7.5 5.8-12.3 1.5-4.9 2.5-11.2 2.4-12.4-.2-1.2-.5-3.8-.5-4.9 0-1.1-.2-6.4-.4-6.8-.1-.5-1.8-1.6-2.6-2.1-.8-.4-2.6-1.2-2.5-2 0-.2.2-.3.4-.4 1.4.8 2.8 1.8 4.3 2.6.4.2.8.4 1 .8.1.2.2.5.2.7.6 4 1.2 8.1 1.8 12.1.4 2.3.2 3.1-.4 5.1-.4 1.4-.5 2.8.1 4.2.6 1.4 2 2.5 3.5 2.9v4.1c-.2.1-.3.3-.5.4-.7.5-1.5.8-2.2 1.2-1.4.9-2.3 2.3-3 3.8-1.6 3.5-1.8 7.5-.9 11.2-1-.3-7-5.4-6.5-8.2z"/><path class="st9" d="M2.3 101.3C4.1 97.8 15 85 20.4 78.6c.1.6 0 1.1-.1 1.3-.6 1.2-16.7 42.9-16.8 46-.1 3.1 8.6 12.6 8.6 12.6s1.8-3.3 5.2-6c3.4-2.7 7.1-2 7.4-3.2.3-1.1-3.9-9.1-3.9-10.8 0-1.7 7.6-19.9 7.6-19.9s4.8 18.7 3.3 24c-1.4 5.3-12 31.2-12 31.2s0 2 2 3.8c-.3.7-.7 1.5-1 2.3-5.4-3.9-14.7-11.2-17.9-16-4.4-7.1-2.9-38-.5-42.6z"/><path d="M.3 123.1c3-3.6 4.7-8.1 6.2-12.6 1.9-5.5 3.7-11.2 4.7-16.9.3-1.7.5-3.3.7-5 3.1-3.7 6.2-7.4 8.4-10.1.1.6 0 1.1-.1 1.3-.6 1.2-16.7 42.9-16.8 46-.1 3.1 8.6 12.6 8.6 12.6s1.8-3.3 5.2-6c3.4-2.7 7.1-2 7.4-3.2.3-1.1-3.9-9.1-3.9-10.8 0-1.7 7.6-19.9 7.6-19.9s4.8 18.7 3.3 24c-1.4 5.3-12 31.2-12 31.2s0 2 2 3.8c-.3.7-.7 1.5-1 2.3-5.4-3.9-14.7-11.2-17.9-16-2.1-3.2-2.9-11.7-3-20.2.4-.2.5-.3.6-.5z" fill="#b24f3f"/><path d="M2.3 101.3C4.1 97.8 15 85 20.4 78.6v1C14.9 86.3 4.8 98 3.1 101.3c-2.4 4.6-3.9 35.6.7 42.5 3.1 4.7 11.8 11.5 17.3 15.6-.1.2-.1.3-.2.5-5.4-3.9-14.7-11.2-17.9-16-4.6-7.1-3.1-38-.7-42.6z" fill="#e5845a"/><path class="st12" d="M48.1 82.8s-.1-1.1-.2-2.4c.5-1.3 2.2-5.9 2.6-6.1.5-.2 5.7 6.7 5.7 6.7s.3-.9.4-2.4c0-.6.1-1.1.1-1.6l-.3-.6.3.6c2.8 6.2 7.3 16.8 7.5 18.9.3 2.8-3.1 30.2-3.6 36.2-.3 4.2 3.5 20 5.7 28.9-2.4.6-5.6 1.4-5.9 1.3-.6-.2-4.7-10.9-4.7-10.9s-6 10.1-6.7 10.6c-.4.3-2.9.2-4.8 0 1.5-9.3 5.8-36.1 6.2-49.8.4-11.4-1.2-23.1-2.3-29.4z"/><path d="M47.9 162.2c-1 0-2.5-.1-3.7-.2 1.5-9.3 5.8-36.1 6.2-49.8.1-3.3 0-6.6-.1-9.8.5.7 1.2 1.4 1.9 2 2.7 2.1 6.5 2.6 9.8 1.6-1.3 2.4-4 3.7-5.6 5.9-1.1 1.6-1.5 3.6-1.9 5.5-2.9 14.9-5.9 29.8-6.6 44.8zm7.2-80.1c-.5 4-3.8 7-5.6 10.6-.4-3.9-1-7.3-1.4-9.9s-.1-1.1-.2-2.4c.5-1.3 2.2-5.9 2.6-6.1.5-.2 5.7 6.7 5.7 6.7s.3-.9.4-2.4c0-.6.1-1.1.1-1.6l-.3-.6.3.6c1.1 2.4 2.5 5.5 3.7 8.6-1.6-1.3-3.4-2.5-5.3-3.5z" fill="#e26534"/><path class="st14" d="M18.1 171.5c-.5-3.5 1.5-9.1 3.7-14 1.2 1.2 3 2.5 5.9 3.8 8.4 3.9 15.9 3.9 15.9 3.9s.2-1.2.6-3.3c1.9.2 4.4.3 4.8 0 .7-.5 6.8-10.8 6.8-10.8s4.2 10.7 4.7 10.9c.3.1 3.5-.6 5.9-1.3.9 3.7 1.6 6.2 1.6 6.2s1.9-.7 4.2-2.3c2.4 19.3-9.1 67.6-8.2 71.1.9 3.5-1.8 6.7-2.9 10.6-1.1 3.9-5.7 40.7-5.7 40.7l-.4 14c-3.7 1-10.1 3.4-12.2 3.7-1.2.2-2.5.1-3.7 0-.4-.5-.6-.9-.6-.9l-3.5.2-2.1-14.4S27.5 274 27 268.8c-.5-5.2 5.7-23.4 5-31-.6-7.7-12.9-59.2-13.9-66.3z"/><path class="st15" d="M37.6 290.4c1 2.5 2 5.1 4 6.9 2 1.8 5.1 2.6 7.4 1.2l-2.4-56.1c-1.6-.3-3-1.2-3.9-2.5 2-1.1 4-2.2 5.9-3.3-.8-12-1.5-23.9-2.3-35.9-.3-4.8-.7-9.9-3.7-13.6-3-3.8-8.1-5.3-13-5.2-3.1.1-6.1.8-9.1 1.7-1.3-5.9-2.2-10.3-2.5-12.1-.5-3.5 1.5-9.1 3.7-14 1.2 1.2 3 2.5 5.9 3.8 8.4 3.9 15.9 3.9 15.9 3.9s.2-1.2.6-3.3c1.9.2 4.4.3 4.8 0 .7-.5 6.8-10.8 6.8-10.8s4.2 10.7 4.7 10.9c.3.1 3.5-.6 5.9-1.3.9 3.7 1.6 6.2 1.6 6.2s1.9-.7 4.2-2.3c.4 3.1.4 7 .2 11.3-4.5.2-8.8 3.6-11 7.7-2.7 4.9-3 10.7-3.4 16.4-.8 14-1.6 28.1-2.4 42.1-.1 2.2.7 5.4 2.9 5 1-.2 1.7-1.1 2.2-2 1.3-2.2 2.5-4.6 3.4-7-.4 2.6-2.2 5.2-3 8.1-1.1 3.9-5.7 40.7-5.7 40.7l-.4 14c-3.7 1-10.1 3.4-12.2 3.7-1.2.2-2.5.1-3.7 0-.4-.5-.6-.9-.6-.9l-3.4.3-2.1-14.4S27.5 274 27 268.8c-.2-2.5 1-7.8 2.4-13.6 1.2 12 3.9 23.9 8.2 35.2z"/><path class="st2" d="M54.9 72.9l-1.8-3 5 3.1c0 .1.1.4.3.9 1.2 3.4 5.8 15.2 7.4 16.7 1.8 1.7 5.6 5.6 5.6 8-.1 2.4-2.6 7.3-3.1 8.9-.4 1.5-1.5 13.1-1.2 16.8.3 3.7 8.5 36.2 8.5 36.2s-1 2.7-3.3 4.4c-2.3 1.6-4.2 2.3-4.2 2.3s-7.8-29-7.3-35 3.9-33.4 3.6-36.2c-.4-2.9-8.1-20.4-9.5-23.1z"/><path class="st4" d="M40.4 50.7c2 2.4 6.3 4.9 9.8 6.5-.6 2-1.3 4.9-1.7 6.4-.2.7.1 1.6.5 2.6.5 1 1.1 2 1.8 2.8.3.4-.3 4.6-.3 4.6S37.1 64 36.7 63.8c.4-.6.8-1.3 1.1-1.9.4-.9 1.8-7.6 2.6-11.2z"/><path class="st16" d="M89.4 63.4s.8 1.3 1.4 2.7c.6 1.4 1.1 2.8 1.1 2.8s0-.4-.2-.9c-.1-.6-.4-1.3-.7-2-.3-.7-.7-1.4-1.1-1.8-.2-.5-.5-.8-.5-.8z"/><path class="st2" d="M48.1 82.8s-.5-7.9-1.2-8.6c-.8-.7-1.3.7-3.8-.9-2.6-1.5-8.5-8.3-8.1-8.6.4-.3.8-.5.8-.5s-1.5-1.2-1.8-.5-5.7 3.7-5.7 3.7 6.1 11.2 9.8 15.8c3.7 4.6 5.2 4 5.2 3.5 0-.6 2.8-8.1 3.6-8 .5.1 1.2 4.1 1.2 4.1z"/><path class="st2" d="M20.3 79.9c.6-1.2-1.5-7.3 0-8 .8-.4 4.8-2.2 8.3-3.8 1.3 2.4 6.3 11.2 9.4 15.2 3.7 4.6 5.2 4 5.2 3.5 0-.6 2.8-8.1 3.6-8 .7.1 1.4 4.1 1.4 4.1 1.1 6.3 2.7 18 2.3 29.4-.5 16.7-6.8 53.1-6.8 53.1s-7.6 0-15.9-3.9c-8.4-3.9-8-7.6-8-7.6s10.5-25.9 12-31.2c1.4-5.3-3.3-24-3.3-24s-7.5 18.2-7.6 19.9c0 1.7 4.2 9.7 3.9 10.8-.3 1.1-3.9.4-7.4 3.2-3.4 2.7-5.2 6-5.2 6s-8.7-9.5-8.6-12.6c0-3.2 16.1-45 16.7-46.1zm28.6-14.1c-.2-.4-.3-.8-.4-1.2 1.4 1 3.7 2.5 4.7 2.6 1.5.2 3.8.5 4.4 1.2.6.7 6 12.6 5.7 12.8-.2.1-.8 0-.8 0s-3-6.9-3.7-7.5c-.7-.6-2.1 3.2-2.1 3.2s-3.6-7.3-5-8.8c-1-1-2.1-1.7-2.7-2.1 0 0 0-.1-.1-.2z"/><path class="st12" d="M36.7 63.8c.4.2 13.7 9.8 13.7 9.8s.6-4.2.3-4.6c-.2-.3-1.3-2-1.6-2.6.6.4 1.7 1.1 2.7 2 1.4 1.4 5 8.5 5 8.6 0 .5 0 1-.1 1.6-.1 1.5-.4 2.4-.4 2.4s-5.2-6.8-5.7-6.7c-.5.2-2.7 6.4-2.7 6.4s-8-5.8-10.2-7.7c-2.1-1.9-4.9-6.6-4.9-6.6s3.5-2.8 3.9-2.6z"/><path class="st17" d="M58.4 49.6s-.9 1.1-1.8 1.2c-.9.1-2.1-.5-4.2-.6-2.2 0-3.2.4-4.7-.6s-1.9-1.9-1.9-1.9 1.4 1.1 3 1.1 2.9-.9 5.3-.5c2.3.5 2.1 2.5 4.3 1.3z"/><path class="st17" d="M47.6 49.6c1.6 1 2.5.6 4.7.6s3.4.6 4.2.6c.2 0 .5-.1.7-.2 0 0-1.8 2.5-3.8 2.8-2 .3-5.4-1.9-6.7-4.1-.1-.1-.1-.2-.1-.2.4.1.7.3 1 .5z"/><path class="st2" d="M51.3 31.1c-3.4.1-6.5-2.4-9.9-2.3 1.8-.3 3.6-.6 5.3-.3 1.8.4 3.6 1.2 4.6 2.6zm7 .9c.6-.7 1.2-1.4 2-1.9s1.7-.9 2.6-.8c.9 0 1.9.5 2.3 1.3-.6-.4-1.3-.6-2-.4-.6.1-1.1.5-1.6.8-1 .5-2.1.8-3.3 1zm-17.4 3.4c.5-.1 1-.3 1.6-.4 1.1-.3 2.4-.6 3.4 0 1.4.8 1.8 2.6 2.1 4-.1-.2-.1-.3-.2-.5-.5-1-1.2-1.9-2.2-2.2 0 .6-.2 1.2-.4 1.8-.3.7-.8 1.3-1.5 1.5-1.1.2-2-1-2.3-2.2-.1.1-.3.1-.4.2-.6.1-1.2-.5-1.6-.8-.4-.3-.8-.9-.9-1.3.7.4 1.6.2 2.4-.1z"/><path class="st16" d="M48.1 36.8s-.1-.4-.4-1.1c-.2-.3-.4-.7-.7-1-.3-.3-.7-.6-1.2-.7-1-.2-1.9 0-2.6.2-.7.2-1 .5-1 .5s.4-.2 1.1-.4c.7-.2 1.6-.3 2.5-.1.9.2 1.5 1 1.8 1.6l.5 1z"/><path class="st2" d="M57.7 38.6c.3-.7 1.4-2.6 2.7-3.1 1.3-.5 2.6 0 3 1.3.1.3.2.7.5 1 .2.3.6.4.9.2-.3.2-1.9.8-2.1.3-.1-.5-.4-.9-.8-1.2-.4-.3-.8-.4-1.2-.4.1 1-.2 2.1-.8 2.9-.2.3-.4.6-.7.7-.3.2-.7.3-1 .2-.3-.1-.5-.3-.7-.6-.1-.2-.2-.5-.2-.8.2-.2.3-.4.4-.5z"/><path class="st16" d="M64 37s0-.1-.1-.3c-.1-.2-.1-.5-.3-.8-.2-.3-.4-.7-.8-1-.4-.3-1-.3-1.5-.3-1 .1-1.9.8-2.3 1.3-.5.5-.8.9-.8.9s.3-.4.9-.8c.5-.5 1.3-1 2.3-1.2.5-.1.9 0 1.3.2s.6.6.8.9c.4.7.5 1.1.5 1.1z"/><path class="st18" d="M66.1 31.6s.7-7-2.5-12.3c-3.2-5.4-11.9-6.6-17.4-4.1-5.5 2.5-10.3 10.8-12.1 15-1.8 4.2-1 6.1-1 6.1s-2.3-.5-2.3-1.2c-.1-.7.5-.5 0-1.6-.4-1.1-1.6-2.9-1.7-4.3-.1-1.4 3.7-10.9 9.7-15.7 6-4.8 13.1-3.7 16.5-3 1.2.2 7.9 2.6 10.4 7.2s3.3 7.9 2.4 8.6c-.9.7-.9 3.4-1 4.5-.1 1.2-1 .8-1 .8z"/><path class="st1" d="M34.1 30.2c.8-1.9 2.2-4.6 4-7.2.6.2 1.1.6 1.1 1.2 0 .3-.2.6-.4.8-.9 1.4-1.8 2.8-2.8 4.2.3 0 .6-.1.9-.1-.2 1.8-.5 3.5-.9 5.3.5 1.7.5 3.5.2 5.2-.9.2-1.6-.7-2.1-1.4-.4-.6-.8-1.3-1.1-2-.1-.3-.5-2.3 1.1-6zm7-10.9c.8.4 1.7.8 2.5 1.3-1.6.7-3.3 1.3-5 1.8.7-1.1 1.6-2.2 2.5-3.1z"/><path class="st1" d="M41.1 19.2c1.6-1.7 3.3-3.2 5.1-4 5.5-2.6 14.2-1.3 17.4 4.1 3.2 5.4 2.5 12.3 2.5 12.3-.1.5-.2 1-.2 1.6-.1-1.9.3-8.6-1.4-10.6-.4.2-1.8.5-2.2.6.3-.7.5-1.5.5-2.3-1.2.7-2.5 1.1-3.9 1.1.4-.9.8-1.9 1.1-2.8-.6 1.1-1.5 2-2.6 2.5v-2.6c-.4 1.3-.9 2.6-1.5 3.8-1.2-1.8-2.6-3.4-4.1-4.9.3.8.7 1.6 1 2.4-2.2-.8-4.4-1.4-6.7-1.9.7.6 1.4 1.3 2.2 1.9-2.5-.1-4.9-.5-7.2-1.2z"/><path class="st14" d="M57.6 300.7c1.2.5-.8 3.7-.6 5 .2 1.3 1.1 7.5 1.1 7.5s-7.4 1.6-13.1.6c-5.7-1.1-8.5-2.5-8.3-2.8s.5-.5.5-.5l-.4-4.2s-1.1-.9-.8-1.3c.3-.5 4 .4 6.9 0 2.8-.5 13.6-4.8 14.7-4.3z"/><path class="st19" d="M40.7 312.8c1.2.3 2.6.7 4.3 1 2.2.4 4.7.4 6.9.3.1 3.1.4 9.4.9 10.5.6 1.4 6.6 8 9.6 8.8 3.1.8 9-.9 10.5-.4s7.6 8.6 4.7 9.5c-2.9 1-25.7-1.1-25.7-1.1s-.5-1.8-1.2-1.9c-.7-.1-1.4 1.8-1.4 1.8l-10.3-.2V339c0-1.7 1.9-9.8 2.3-12.2.4-1.9-.3-10.6-.6-14z"/><path class="st20" d="M49.2 341.3l-10.2-.2v-2.6c3.1.2 7.7.6 11.5 1-.6-.2-1.3 1.8-1.3 1.8zm1.5-1.9c5.5.5 21.8 1 27.6 1.2.2.9 0 1.6-.7 1.9-2.9 1-25.7-1.1-25.7-1.1s-.5-1.8-1.2-2z"/><path class="st21" d="M47.3 320.4c.4-.9.8-1.2 1.7-1.5.9-.3 3.8-1.7 1.5-1.4-.8.1-1.7-.3-2.4-.6-.2-.1-.3-.5-.1-.6 1.4-.7 2.7-1.3 4.3-1.4.4 0 .5.6.1.7-.9.2-1.7.4-2.6.6-2.7.7 2.1.5 2.2.5.2 0 .3.1.2.3-.4.7-.9 1.5-1.6 1.9 0 0-3.5 1.6-1.1 2.2 1 .3 2.2.5 3.2.7.2 0 .4.4.2.6-.7.8-1.3 1.7-2 2.5-1.5 1.9 1 1 2 .8.5-.1 1.7 0 2 .6.4 1 .2 1.7-.1 2.7-.8 2.5 4 1 4.9 1.6.1.1.2.2.2.4-.1 1.5-1.9 3.8 1.4 1.7.3-.2 1-.5 1.5-.4 2 .7.1 2.8 3.2.5.2-.2.5.1.3.3-.8.9-1.6 1.8-2.7 2.2-.1.1-.3 0-.4-.1-.4-.4-.6-2.1-1.4-1.7-.9.5-2.1 1.3-3.2.7-.7-.4 0-1.6.1-2 .7-1.7-2-.3-2.7-.2-.5.1-.9 0-1.4-.1-.7-.2-1.1-1.2-1-1.9.2-.7 1.6-4-.5-3.7-.6.1-1.5.7-2.2.7-3.3-.1-.5-3.1.8-4.6-1.6.1-5-.4-4.4-2z"/><path class="st22" d="M32.9 303.9l5.7.1.6.9c-1.7-.1-3-.3-3.2 0-.3.5.8 1.3.8 1.3l.4 4.2-.5.5c-.1.2 1.3 1 4.1 1.8h-.2c0 .3.1.6.1 1-2.8-.5-6.4-1-7-.8-1 .2.2-2.7.2-2.7l-1-4.8v-1.5z"/><path class="st2" d="M40.7 313.7c.4 3.9 1 11.3.7 13.1-.3 1.8-1.4 6.7-2 9.8l-7.2-.3s0-.4.1-2.1c.1-1.7 2.1-9.7 2.6-12.1.3-1.3.1-5.5-.1-9.2 1.3.1 3.8.5 5.9.8z"/><path class="st20" d="M32.2 335.3v-1.5c2.1.2 4.8.5 7.5.8-.2.8-.3 1.5-.4 2.1l-6.9-.3h-.3c.1-.1.1-.3.1-1.1z"/><path class="st2" d="M62.4 333.3c-1.5-.4-3.7-2.2-5.6-4.1 3.2.4 8.1-.9 9.4-.4.7.2 2.3 2.1 3.6 4.2-2.4.4-5.5.9-7.4.3z"/><path class="st22" d="M35.7 296c.9 2.4 1.9 5.3 2.9 8.1L35 304l-2.1-14.4c0-.1.3-.5 2.8 6.4z"/><path class="st23" d="M51.6 301.4c-.1-3.8-.3-9.2-.5-15.7-.1-3.3-.2-6.8-.3-10.5-.1-3.7-.1-7.7-.2-11.7 0-4.1-.1-8.3-.1-12.6 0-2.1 0-4.3.1-6.5.1-1.1.5-2.1.7-3.2.3-1 .5-2.1.7-3.2.4-2.1.5-4.3.4-6.4-.2-2.1-.3-4.3-.3-6.5-.1-4.3-.1-8.5-.1-12.6s0-8 .1-11.7c0-3.7.1-7.3.2-10.5.1-3.3.2-6.2.2-8.9 0-1.3.1-2.6.1-3.7v-2.4c0-.2.1-.5.2-.7.7-1.8 1.4-3.1 1.9-4 .5-.9.7-1.4.7-1.4h.1s-.2.5-.7 1.4c-.4.9-1.1 2.3-1.7 4-.2.4-.1.9-.1 1.4v1.6c0 1.1 0 2.4-.1 3.7 0 2.6-.1 5.6-.1 8.9 0 3.3-.1 6.8-.2 10.5s-.1 7.7-.2 11.7c-.1 4.1-.1 8.3 0 12.6 0 2.1.1 4.3.4 6.4.2 2.2.1 4.4-.3 6.5-.2 1.1-.4 2.1-.7 3.2-.2 1.1-.6 2.1-.7 3.1-.1 2.2 0 4.3 0 6.4.1 4.3.2 8.5.2 12.6.1 8.1.3 15.7.4 22.3.1 6.5.2 11.9.2 15.7v.7c-.1 0-.1 0-.2.1 0-.1 0-.3-.1-.6z"/><path class="st20" d="M81 106.4s-.9.7-1.8 2.2c-.5.7-1 1.6-1.2 2.7-.1.5-.1 1.1 0 1.7.1.5.2 1.1.2 1.7.3 2.2 1.1 4.4 1.8 5.9.4.8.7 1.4 1 1.8.3.4.4.6.4.6s-.4-1-1.1-2.6c-.3-.8-.7-1.7-1-2.7-.4-1-.7-2-1-3.1-.3-1.1-.6-2.2-.3-3.2.1-.5.4-.9.6-1.3.2-.4.5-.8.7-1.2 1.2-1.5 1.8-2.5 1.7-2.5z"/><path class="st20" d="M78.5 108.1c.1.1.2-.1.1-.1-.1-.1-.2 0-.2 0-.1.1-.1.2-.2.3-.1.2-.2.4-.4.6l-.6 1.2c-.2.4-.3.8-.4 1.3-.1.4-.1.9-.2 1.3v1.3c0 .4 0 .9.1 1.3.1.9.2 1.8.5 2.6l.4-.3c-.4-.3-.8-.7-1.1-1.1-.3-.4-.6-.9-.8-1.4-.2-.5-.4-1-.5-1.6-.1-.5-.1-1.1-.1-1.7H75c-.2.5-.3 1.1-.3 1.7 0 .6.1 1.2.3 1.7.2.6.5 1.1.9 1.6s.8.9 1.3 1.2l.7.4-.3-.7c-.3-.8-.6-1.6-.7-2.5-.1-.9-.1-1.7.1-2.6.2-.8.4-1.7.6-2.5.1-.4.3-.8.4-1.2l.3-.6c.1-.2.3-.4.2-.2zm-58.8 12.8c.1.1.2 0 .2-.1s-.1-.2-.2-.2h-2.9c-.6 0-1.1.1-1.7.1-.6.1-1.1.3-1.6.5-1 .5-1.9 1.2-2.7 2-.8.8-1.3 1.9-1.4 3.1l-.1.7.5-.3c.5-.3.9-.5 1.4-.8.5-.3.9-.5 1.4-.8l2.7-1.8c-1 .4-1.9.9-2.9 1.4-.5.2-.9.5-1.4.8-.5.3-.9.5-1.4.8l.4.3c.1-1 .5-2 1.1-2.9.3-.4.7-.9 1.1-1.2.4-.3.9-.6 1.4-.8.5-.2 1.1-.3 1.6-.3.5-.1 1.1-.1 1.6-.1s1.1-.1 1.6-.2c.3 0 .5-.1.8-.1.1 0 .3-.1.4-.1h.1c.1 0 0 0 0 0zm.7 1.4s-.5 0-1.2.2c-.4.1-.7.3-1.1.6-.4.3-.8.5-1.2.7-.9.4-1.7 1-2.2 1.6-.5.6-.7 1-.7 1s.4-.3 1-.7c.6-.4 1.3-1 2-1.7.4-.3.8-.6 1.2-.7.4-.1.8-.3 1.1-.4.3-.2.6-.3.8-.4.2-.1.3-.2.3-.2zm-1-3.1s-.2-.3-.6-.6c-.2-.2-.5-.2-.8-.3-.3 0-.6-.1-.9-.3-.6-.3-1.3-.4-1.8-.3-.5.1-.8.3-.8.3v.1s.3.1.8.2 1.1.1 1.8.1c.3 0 .7.1.9.3.2.2.5.3.7.4.2.1.4.1.6.2-.1-.1 0-.1.1-.1z"/><path class="st9" d="M27.4 67.8s7.1 6.2 8.5 12.6c1.4 6.4-1.7 38.2-3.1 41-1.4 2.8-4 9.7-4 9.7l-2.4-3s3.6-8.3 4-9.7 2.3-34.3 2.5-36c.2-1.7-3.7-7.9-4.6-9.4-.9-1.5-4.6-3.2-3.9-3.5.7-.3 1.4-.2 1.9-.4.4-.2 1.1-1.3 1.1-1.3z"/><path class="st4" d="M12.7 137.5c.8-1.2 2.3-3.3 4.6-5.1 2.2-1.7 4.5-2.1 5.9-2.4 3.2 5.7 11.9 21 12.9 23.4.7 1.6 2.2 6.4 3.5 10.9.9 2.9 1.5 5.2 1.6 5.6.3 1 1.9 8.5 1.3 8.7-.6.3-1.4-.9-1.6-1.7-.3-.8-1.8-6.8-1.8-6.8s.3 9.5-.4 10.2c-.7.7-2.9-.9-3.4-2.8-.5-1.8-.8-7.6-.8-7.6s-1.3 6.4-1.6 6.8c-.3.4-2.1-1.3-1.6-2.6.5-1.2 1.3-5.4 1.3-6 0-.2-2-9.2-2-9.9-.1-1.4.1-3.9.1-3.9l-18-16.8z"/><path class="st15" d="M42.8 304.9c1.5-.2 5.1-1.5 8.4-2.5-2.5 2-5.3 3.6-8.3 4.7 1.1.7 2.3 1.2 3.6 1.4-1.2.3-2.5.5-3.7.8 4.2 2.6 9.2 4.1 14.1 4.2-2.3.4-7.6 1.1-11.9.3-5.7-1.1-8.5-2.5-8.3-2.8.2-.3.5-.5.5-.5l-.4-4.2s-1.1-.9-.8-1.3c.2-.6 4 .3 6.8-.1z"/><path class="st23" d="M42.7 304.9c2-.3 8-2.7 11.4-3.7l.4-14s4.4-36.9 5.4-40.7c1-3.9 3.5-7 2.7-10.6-.8-3.5 9.6-50 7.9-70 .5-.3 1.1-.6 1.6-1.1 2.4 19.3-9.1 67.6-8.2 71.1.9 3.5-1.8 6.7-2.9 10.6-1.1 3.9-5.7 40.7-5.7 40.7l-.4 14c-3.5 1-10 3.4-12.2 3.7-.4.1-.9.1-1.4.1.5 0 1-.1 1.4-.1zM18.1 171.5c-.5-3.5 1.5-9.1 3.7-14 .3.3.7.7 1.2 1-1.9 4.6-3.5 9.8-3.1 13 .9 7 12.3 58.6 12.9 66.2.6 7.6-5.2 25.8-4.8 31 .5 5.2 5.4 20.8 5.4 20.8l2 14.4H35l-2.1-14.4s-5.4-15.6-5.9-20.8c-.5-5.2 5.7-23.4 5-31-.6-7.6-12.9-59.1-13.9-66.2z"/><path class="st8" d="M50.1 57.2c-.6 2-1.3 4.9-1.7 6.4-.1.5 0 1 .1 1.6-3.7-1-7.2-2.7-10.2-5.1.6-2.5 1.5-6.7 2-9.3 2.1 2.3 6.4 4.8 9.8 6.4z"/><path class="st4" d="M38.4 47.2s-1.9-8.6-4.1-10.1c-2.2-1.5-5.4 3.3-4.8 5.9.6 2.6 7.1 5.8 8.9 4.2z"/><path class="st24" d="M60.5 162.2c-.6-.2-4.7-10.9-4.7-10.9S49.7 161.5 49 162c-.4.3-2.9.2-4.8 0l4.7-2.2 6.9-12 5.3 12.5 5.3.5c-2.4.7-5.5 1.5-5.9 1.4z"/><path d="M50.5 74.4s1.3 4.7 3.4 11.7c.5 1.8 1 3.7 1.6 5.7.5 2 1.2 4.1 1.7 6.4.3 1.1.2 2.2 0 3.4-.2 1.2-.4 2.3-.7 3.5-.3 1.2-.5 2.4-.7 3.6-.2 1.2-.2 2.4-.3 3.7-.2 4.9-.2 9.8-.2 14.3v6.6c0 2.1 0 4.1.1 5.9.1 3.7.1 6.7.2 8.8.1 2.1.1 3.4.1 3.4h.1s0-1.2.1-3.4c0-2.1 0-5.2.1-8.8v-12.5c0-4.6-.1-9.4 0-14.3 0-1.2 0-2.4.2-3.6l.6-3.6c.2-1.2.5-2.3.7-3.5.1-.6.2-1.2.2-1.8 0-.6 0-1.2-.1-1.7-.4-2.3-1-4.4-1.5-6.4s-1.1-3.9-1.6-5.7c-1-3.5-2-6.4-2.7-8.4-.8-2.2-1.2-3.4-1.3-3.3z" fill="#82072d"/><path class="st24" d="M34.4 69c4.4 5.5 13.4 10 13.4 10l2.5-5.5 5.6 5 .5-2.2.3.6c0 .5 0 1-.1 1.6-.1 1.5-.4 2.4-.4 2.4s-5.2-6.8-5.7-6.7c-.5.2-2.7 6.4-2.7 6.4s-8-5.8-10.2-7.7c-1-.8-2.3-2.5-3.2-3.9z"/><path class="st19" d="M41.3 90.7c1.4-.1 2.7.3 3.9 1.1 1.4 3.4 2.5 6.8 3.4 10.3-3.5-1.6-7.2-3.4-9.1-6.7-.7-1.3-1-3 .1-4 .4-.5 1-.6 1.7-.7zm-29.4 20.8c1.7-4.9 3.5-9.8 5.2-14.7 2.5-6.9 4.9-13.9 5.6-21.2 2.1 2 3.4 4.9 3.3 7.8 0 1.8-.6 3.6-1.2 5.4-2.8 8.3-7.2 16.1-12.9 22.7zm55.7-16c-.7-.5-1.5-1.1-2-1.8s-.8-1.7-.5-2.5c2.2 1.7 4.1 3.7 5.8 5.9-1.2-.1-2.3-.8-3.3-1.6zm1.3-15.9c.1 1.7-.2 3.5-.7 5.2-1.3-2.9-2.8-5.8-4.4-8.5 1.4.4 2.9.8 4.3 1.2.2.1.4.1.6.3.1.1.1.3.1.5 0 .4.1.8.1 1.3z"/><path class="st8" d="M17.3 132.5c2.2-1.7 4.5-2.1 5.9-2.4.4.7.9 1.6 1.5 2.7-1.3 1.8-2.2 3.8-1.9 6 .3 1.9 1.5 3.5 2.8 5.1 2.4 3 4.7 6 7.1 9 .5 7.9.3 15.9-.5 23.9-.6-.5-1.2-1.5-.9-2.3.5-1.2 1.3-5.4 1.3-6 0-.2-2-9.2-2-9.9-.1-1.4.1-3.9.1-3.9l-18.1-16.9c.9-1.4 2.4-3.5 4.7-5.3z"/><path class="st21" d="M6 95.9c.5 3.1 1.6 8.5 3.3 12.6-.5 1.4-1 2.9-1.5 4.2-1.2-2.4-3.9-8.2-4.3-13.4.6-.9 1.5-2.1 2.5-3.4z"/><path class="st5" d="M93.1 114c1.1-3.2.4-19 .7-25.4.3-6.4 1.2-8.8 1.1-12.9-.2-4.1.5-8.7 1-10.7.5-2.1 1-7 .5-7.6-.2-.2-.3-.4-.5-.5.3-.2.7-.1 1 .5.5.7 0 5.5-.5 7.6-.5 2.1-1.2 6.6-1 10.7.2 4.1-.8 6.5-1.1 12.9-.3 6.4.3 22.2-.7 25.4-.9 2.6-3.4 3.1-5 3.1 1.6-.1 3.7-.8 4.5-3.1z"/><path class="st12" d="M87.5 96.4c-.5-.7-.9-1.4-.9-2.2 0-.8 1.3-1.6 1.3-1.6s-.2.6-.1 1c1.8 1.1 3.8 1.7 5.9 1.7.3 0 .6-.2.6-.2v-1.3s1.6.5 1.8 1.1c.2.6 0 1.3-.3 1.9-.4.9-1 1.7-1.9 2.2-1.1.6-2.5.5-3.6-.1-1.3-.5-2.1-1.5-2.8-2.5zm5.8 4.1c-.2.3-.1 1.1-.1 1.5 0 .6.1 1.2.4 1.7.1.1.1.2.3.2.1 0 .1 0 .2-.1.2-.2.3-.5.3-.7.1-.6 0-1.2-.1-1.7-.2-.3-.6-1.3-1-.9zm-1.4.7c0-.6-.2-.9-.5-.6-.2.2-.3.6-.3.9-.1.7 0 1.5.4 2.2.1 0 .2-.1.2-.2.1-.2.3-1.5.2-2.3zm3.1-1.5c.2.7.5 1.3 1 1.9.1.1.2.2.3.1.2 0 .2-.2.2-.4 0-.5-.1-1-.4-1.5-.3-.4-1.3-1.2-1.1-.1z"/><path class="st7" d="M94.4 91.6c.3.1.7.1.9-.2.1-.1.2-.3.2-.5s0-.4-.1-.6c-.2-.3-.6-.5-.9-.3-.3.1-.6.5-.6.8-.1.3.1.7.5.8zm-2 .2c.2 0 .4.1.5 0 .3-.1.5-.4.5-.7-.1-1.3-2.1-1.3-1.6.2.1.2.2.3.3.4 0 0 .2.1.3.1zm-2.7-1c0-.3 0-.5.1-.8.2-.3.7-.4 1-.2.3.2.5.6.5 1 0 .2-.1.3-.2.5-.1.1-.2.1-.3.2-.1.1-.2.1-.3.1-.2 0-.4-.1-.5-.2-.2-.2-.3-.4-.3-.6zm-1.2.1c-.2.1-.5.1-.7-.1-.1-.1-.1-.2-.1-.2-.1-.3-.2-.7 0-1 .2-.3.6-.5.9-.3.2.1.3.4.4.7 0 .3-.1.7-.5.9z"/><path d="M61.7 38.8c.3 0 .6 0 .7-.3.1-.3-.3-.5-.6-.5-.7-.2-1.4-.3-2.1-.2-.2 0-.4.1-.5.2-.1.1-.1.4 0 .5.1.1.2.1.4.1.7.1 1.4.2 2.1.2zm-15.6-.5c.3 0 .6 0 .7-.3.1-.3-.3-.5-.6-.5-.7-.2-1.4-.3-2.1-.2-.2 0-.4.1-.5.2s-.1.4 0 .5c.1.1.2.1.4.1.7.1 1.4.2 2.1.2z" fill="#fff"/><path class="st8" d="M55 44.7c.2.2.2.6-.1 1.1-.3.4-.8.6-1.3.6-.7-.1-2.9-1.2-1.6-2 .3-.2.7-.2 1.1-.2.7 0 1.6.1 1.9.5z"/><path class="st17" d="M55.7 35.7c-.7 3.2-1 6.4-.7 9.7-.9-1.4-1.1-3.2-.9-4.9.3-1.7.9-3.3 1.6-4.8z"/><path class="st7" d="M38.5 43.2c1.5 1.1 9 1.7 10.6 0 .7-.8 1.3-2.8 1.5-4.8.7-.2 2.2-.4 3-.4.7 0 1.3.2 1.8.4.1 2.2.5 4.6 1.3 5.3 1.3 1.1 7.6 1.6 8.9 0 1.3-1.6 1.9-8.7 1.2-9.1-2.8-2-10.4-.8-10.9-.1-.3.4-.4 1.5-.5 2.7-1.5-1.1-3.7-.4-4.7-.1.1-1.5 0-2.8-.3-3-3.3-2-12.4-.9-13-.1-.3.4-.5 1.5-.5 2.7l-2.3.8c.3.3.6.7.9 1.2l1.4-.5c.3 2.2.8 4.4 1.6 5zm18.2-8c.4-.6 6.9-1.6 9.2.1.5.4.1 6.3-1 7.7-1.1 1.4-6.4.9-7.5 0-1.1-.9-1.4-6.6-.7-7.8zm-18.2-.5c.5-.6 8.2-1.6 11 .1.6.4.1 6.3-1.2 7.7-1.3 1.4-7.6.9-8.9 0s-1.8-6.7-.9-7.8z"/><path class="st8" d="M37.6 46.3c-.6.2-1.2-.1-1.6-.6-.3-.5-.4-1.1-.5-1.7 0-.6 0-1.2-.1-1.8-.3-1.1-1.1-1.9-1.8-2.7-.2-.2-.4-.4-.6-.5-.5-.2-1.1 0-1.5.4s-.6.9-.8 1.5c-.3.8-.6 1.6-.4 2.4.2.8.8 1.3 1.5 1.8 1.2.7 4.3 1.2 5.8 1.2z"/><path class="st17" d="M32.1 42.5c.3 0 .5 0 .8-.1.8-.1 1.5-.6 1.8-.8-.3-.6-.7-1.1-1.1-1.6-.2-.3-.5-.5-.7-.6-.2-.1-.6-.1-.8-.1-.5.1-.9.5-1.1.7-.2.2-.3.4-.3.4s.1-.2.3-.5c.2-.3.5-.7 1.1-.9.3-.1.7-.1 1 0 .4.1.7.4.9.6.5.5 1 1.2 1.4 1.9.4.7.7 1.5.7 2.3v1c0 .3.1.5.3.7.4.4.9.5 1.2.6.3.1.5.1.5.1h-.5c-.3 0-.9-.1-1.4-.5-.3-.2-.5-.5-.5-.9-.1-.4 0-.7-.1-1.1-.1-.7-.3-1.4-.7-2 0 0 0-.1-.1-.1-.1.1-.2.3-.3.5-.3.3-.8.7-1.5.8-.3.1-.6.1-.9 0-.3 0-.5-.1-.8-.2-.4-.2-.6-.4-.6-.4s.3.1.7.1c.2.1.5.1.7.1z"/><path class="st27" d="M29.2 29.7c.1 0 .3.1.4.1.5 0 .9-.4 1.3-.8 1.8-1.9 3.2-4.1 4.3-6.5-1.2 2.7-1.9 5.5-2.2 8.3 2.1-6.6 7.1-11.9 11.6-17.3.5-.6 1-1.2.9-1.9 0-.4-.3-.8-.6-1.1 1.3-.3 2.5-.5 3.7-.6.9.6 1.6 1.6 1.8 2.6 3-.9 6.4-1.6 9.2-.1 4.2 2.2 4.8 7.9 7.8 11.5l.9.9c0 .7-.1 1.2-.4 1.4-.9.7-.9 3.4-1 4.5-.1 1.1-1 .8-1 .8s.7-7-2.5-12.3c-3.2-5.4-11.9-6.6-17.4-4.1-5.3 2.6-10.1 10.9-11.9 15.1-1.8 4.2-1 6.1-1 6.1s-2.3-.5-2.3-1.2c-.1-.7.5-.5 0-1.6-.4-.9-1.3-2.4-1.6-3.8z"/><path class="st28" d="M30.8 33.6c-.4-1.1-1.6-2.9-1.7-4.3-.1-1.4 3.7-10.9 9.7-15.7 6-4.8 13.1-3.7 16.5-3 1.2.2 7.9 2.6 10.4 7.2s3.3 7.9 2.4 8.6c-.9.7-.9 3.4-1 4.5-.1 1.1-1 .8-1 .8.2-.1.3-.3.4-.8.1-1.1.1-3.8 1-4.5.9-.7.2-4-2.3-8.6s-8.9-6.9-10.1-7.2c-3.3-.7-10.1-1.8-15.9 3-5.8 4.8-9.5 14.3-9.4 15.7.1 1.4 1.3 3.2 1.7 4.3.4 1.1-.1.9 0 1.6 0 .5 1 .8 1.6 1v.1s-2.3-.5-2.3-1.2c-.1-.6.4-.5 0-1.5z"/><path class="st18" d="M46.4 6.4c.1-.1.2-.1.4-.2.7-.1 1.3.1 2 .3 1.8.6 3.8 1.7 5.4 3 0-.1 0-.2.1-.3.1-.1.2-.2.4-.2.4-.2.9-.4 1.4-.4.6 0 1.2.2 1.7.5.7-.8 1.6-1.5 2.6-1.5 1.1.1 2 1.1 2.5 2 .7 1.3 1.2 2.8 1.3 4.3 0 1.5-.4 3-1.3 4.2-.2.2-.3.4-.6.5-.5.1-1-.3-1.3-.8l-2.4-3.3c-.2.1-.3.2-.5.3-.5.2-1 .4-1.5.4s-.7-.2-.9-.5c-.3.1-.6.2-.9.2-1.3.2-2.6.1-3.9-.2-.8-.2-1.5-.5-2.1-1.1-.6-.6-.9-1.3-1.2-2.1-.3-.8-.6-1.6-.9-2.5-.3-.7-.5-1.5-.6-2.3.2 0 .2-.2.3-.3z"/><path class="st27" d="M46.4 6.4c.1-.1.2-.1.4-.2h.6c.4 2.5 2.7 4.7 5 6 .7.4 1.6.8 2.4.6.8-.2 1.3-1.4.7-1.9 1.1.4 1.4 2.2 2.5 2.2 1 0 1.3-1.4 1.2-2.4.9 1.1 1.9 2.1 2.8 3.2.3.4.6.7 1.1.9.3.2.7.2 1 .2-.1 1.1-.5 2.2-1.2 3.1-.2.2-.3.4-.6.5-.5.1-1-.3-1.3-.8l-2.4-3.3c-.2.1-.3.2-.5.3-.5.2-1 .4-1.5.4s-.7-.2-.9-.5c-.3.1-.6.2-.9.2-1.3.2-2.6.1-3.9-.2-.8-.2-1.5-.5-2.1-1.1-.6-.6-.9-1.3-1.2-2.1-.3-.8-.6-1.6-.9-2.5-.3-.7-.5-1.5-.6-2.3.2 0 .2-.2.3-.3z"/><path class="st28" d="M46.8 6.3c.7-.1 1.3.1 2 .3 1.8.6 3.8 1.7 5.4 3 0-.1 0-.2.1-.3.1-.2.2-.3.4-.3.4-.2.9-.4 1.4-.4.6 0 1.2.2 1.7.5.7-.8 1.6-1.5 2.6-1.5 1.1.1 2 1.1 2.5 2 .3.6.6 1.2.8 1.9-.4-.5-.7-1-1.2-1.5-.7-.8-1.7-1.4-2.7-1.2-1 .2-1.8 1.6-1 2.3-.7.3-1.4-.4-2-1-.5-.6-1.5-1.1-2-.5 0 .4-.1.8-.3 1.1-2.1-2.2-5.1-3.6-8.1-3.7v-.1c0-.2 0-.3.1-.4 0-.2.1-.2.3-.2z"/></svg>