<svg version="1.1" id="group_of_young_people" xmlns="http://www.w3.org/2000/svg" xmlns:xlink="http://www.w3.org/1999/xlink" x="0" y="0" viewBox="0 0 949.7 961" xml:space="preserve"><style>.st0{fill:#fff}.st2{fill:#ae371c}.st3{fill:#b8523d}.st4{fill:#872a16}.st6{fill:#c26d4a}.st8{fill:#e6e6e6}.st9{fill:#b9b8bf}.st10{fill:#9f9da3}.st11{fill:#8b8a8f}.st14{fill:#f9b598}.st16{fill:#fbd3c1}.st19{fill:#221f51}.st21{fill:#f07f60}.st22{fill:#f6c5b0}</style><circle class="st0" cx="474.8" cy="474.8" r="474.8"/><defs><circle id="SVGID_1_" cx="474.8" cy="474.8" r="474.8"/></defs><clipPath id="SVGID_2_"><use xlink:href="#SVGID_1_" overflow="visible"/></clipPath><g clip-path="url(#SVGID_2_)"><g id="woman_with_a_bag_1_"><path class="st2" d="M613.9 562.4c30.3-26.9 36.8-72.4 30.2-112.3s-24.2-77.2-34.7-116.3c-13.2-49.5-7.5-133.3-9.1-148.7-1.6-15-204.4-.2-204.4-.2-9.7 70.5-15.2 141.4-16.5 212.5-1 53.4 2.7 112.7 40.8 149.9l193.7 15.1z"/><path class="st3" d="M389.2 297.2c2.6-37.4 13.5-75.9 14.2-112.8-4.8.3-7.5.6-7.5.6-9.7 70.5-15.2 141.4-16.5 212.5-1 53.4 2.7 112.7 40.8 149.9l6.9.6c-38.5-78.8-44.2-164.6-37.9-250.8z"/><path class="st4" d="M449.1 462.1C466.6 419.2 492 381 508 336.5c8 38.2 14.3 77.9 23.9 116.1 18-45.5 1.6-164.7 8-168.5 6.4-3.8 24.8 69.1 25.4 74.7 8.1-59.8 5.2-120.2-1.7-180.1-34-.9-84.9 1.4-121.7 3.4-19.8 92.1-20.2 189.7 7.2 280z"/><path d="M236.1 613.1c14-52.6 30.5-70.4 70.9-94.1 16.2-9.7 42.6-20.3 64.3-27.6 62.3-18.7 118.3-29.2 185-34.7 2.4 84.1 4.3 171.4-.2 256-5.4 84.7-19.8 163.1-25.2 247.8 0 .7 0 1.5-.1 2.1-76.8 11.7-158.2 7.1-231.4-13.6-14.2-4.1-28.6-8.9-38.5-17.4-9.8-8.6-14-19.8-17.4-30.7-29.4-94-19.6-191.7-7.4-287.8z" fill="#b3481d"/><path class="st6" d="M328.6 537.6c-28.6.5-45.4 20.3-50.8 39.1-6 20.6-5.6 42.6-7.4 63.5l-11.7 131.1c-.2 2.3-5 2.5-4.8.1l12.9-145.2c1.8-20.6.9-43.3 11.4-62.8 8.3-15.5 26.7-28.9 50.2-29.3 3.1-.2 3.2 3.4.2 3.5z"/><path d="M336.2 918.6c45.7 5.6 89.5 1.5 135.3 2.8 19.9-22.9 49.8-42 69.6-65.6-4.2 34.4-8 69-10.2 104.7 0 .7 0 1.5-.1 2.1-76.8 11.7-158.2 7.1-231.4-13.6-14.2-4.1-28.6-8.9-38.5-17.4-9.8-8.6-14-19.8-17.4-30.7-1.9-6-3.6-11.9-5.2-18 29.6 16.3 60 31.1 97.9 35.7z" fill="#993e19"/><path class="st6" d="M213 912.6c-2-1.1-3.8-2.5-5.2-4.1-3.5-4.2-3.6-9.6-3.5-14.6.8-44.7 3.4-89.4 7.8-133.8 34.8 11.5 71.8 11.4 109.3 15.2 4.1 49.5 4.8 107.2 3.3 156.8-35.3 1.1-70.9-4.3-103.1-15.6-3-1.3-6.1-2.4-8.6-3.9z"/><path class="st8" d="M384.6 888.6c5.6-17.4 24.5-45.1 33.3-63.7 51.3-108.3 9.9-207.8 105.8-301.7 10.6-10 21.6-18.9 33.5-26.9 1.7 71.7 2.5 145.1-1.4 216.5-3.2 49.1-9.2 96-15 143.3-1.2 10.7-9.9 99.4-10.2 104.4 0 0-.1 1.8-.1 2.3-7.2 1.1-14.4 2-21.7 2.9-4.8.6-9.7 1-14.5 1.5-7.3.7-14.6 1.1-22 1.5-14.6.7-29.4.8-44.1.3-26.8-1.2-68.7-3.6-43.6-80.4z"/><path class="st9" d="M738.4 712.2c.5-7-91.1-252.7-104.2-288.4-1.7-4.4-3.9-9.2-6.9-12.9-2-2.5-10.8-4.3-12.7-1.8-20 26.3-52.5 96.5-49.9 130.4 2.9 37.9 69.8 192.7 75.3 193.6 29.2 4.9 97.3 6.6 98.4-20.9z"/><path class="st10" d="M730 725.8c-9.3-66.4-94.9-265.9-108.3-317.4 2.4.6 4.6 1.5 5.5 2.6 2.9 3.6 5.2 8.4 6.9 12.9 13.3 35.7 104.7 281.5 104.2 288.4-.1 5.7-3.2 10.1-8.3 13.5z"/><path class="st11" d="M661.5 714c18.6-4.8 33.1-2.6 48.1 2.3 12.9 4.3 20.5 9.5 20.5 9.5s8.4-13.8 8.4-13.5c-2.9 61.9-97.9 22.6-98.9 21.3-.9-1.2-1.7-3-1.7-3s17.3-14.9 23.6-16.6z"/><path class="st9" d="M217.7 734.7c.1-7.3 109.9-257.3 125.7-293.8 1.9-4.5 4.6-9.3 7.8-12.9 2.1-2.4 11.1-3.6 12.8-.8 18 29.3 45 105.6 39.8 140.9-5.9 39.6-84.2 196.2-89.7 196.8-29.3 2.6-97.3-1.3-96.4-30.2z"/><path d="M225 749.6c14.4-68.9 114.7-271 131.9-323.9-2.5.3-4.7 1.2-5.7 2.3-3.3 3.6-5.9 8.4-7.8 12.9-15.9 36.4-125.6 286.4-125.7 293.8-.2 6 2.6 11 7.3 14.9z" fill="#d5d4d9"/><path class="st11" d="M306.7 765.4c2.7-.1 5.2-.3 7.5-.5 5.5-.6 83.9-157.1 89.7-196.8 1.6-10.5.2-24.7-2.8-40.1-8.1 27.9-61.1 195.3-94.4 237.4z"/><path d="M286.2 744.5c-12.4-4.3-59.5-12.3-67.4-7.4-4.7 2.9 19.1 77.7 95.5 27.7.1-.1.5-.2.8-.7 0 .1-16.5-15.3-28.9-19.6z" fill="#782c22"/><path class="st14" d="M415.7 413.7c0 22.9 65.7 102.8 88.4 102.8 22.6 0 104-88.7 99.2-111.1-1-4.8-64.8-21.4-100.2-21.4-35.5 0-87.4 6.7-87.4 29.7z"/><path class="st14" d="M502.3 434.7c20.9 0 37.9-17.1 37.9-37.9v-66.4c0-20.9-17.1-37.9-37.9-37.9-20.9 0-37.9 17.1-37.9 37.9v66.4c-.2 20.8 16.9 37.9 37.9 37.9z"/><path d="M540.2 376.3v-45.9c0-20.9-17.1-37.9-37.9-37.9-20.9 0-37.9 17.1-37.9 37.9v30.3s19 18.8 34.4 21.7c22.4 4.4 41.4-6.1 41.4-6.1z" fill="#bd634f"/><path class="st14" d="M504.4 98.8c45 0 97 14.1 93.9 84.8 0 0-11.6 92.3-14.7 108.1-3.2 15.9-38.6 76.9-73.6 76.9-37.6 0-81.7-61.2-84.9-77-3.2-15.9-15.6-105.5-15.6-105.5-3.3-70.7 49.9-87.4 94.9-87.3z"/><path class="st16" d="M423.2 231c-2.4.1-5.1.2-7.7-.2 3.6 25 7.8 52.7 9.3 60.8 3.2 15.9 47.3 77 84.9 77h.3c-41-15.9-58-40.9-70.9-58.1-12.7-17.4-16.1-51.5-15.9-79.5z"/><path d="M504.4 98.8c-45 0-98.3 16.5-95.1 87.2 0 0 2.3 16.3 5.2 36.1 24.3 25.2 106.7-25.3 137.2-58.9 33 74.6 34.7 150.1-11.9 190.1-4.4 3.8-15.3 11.8-15.3 11.8 29.7-12.8 56.4-60 59.1-73.6 3.2-15.9 14.7-108.1 14.7-108.1 3.1-70.5-48.9-84.6-93.9-84.6z" fill="#db7b60"/><path d="M581.4 253.4c-1 5.9-1.8 10.9-1.8 15 0 3.9 1 7 4.2 7.8 3 .8 7.1-1.1 10.7-5.4 1.8-2.1 3.5-4.8 4.7-8 1.2-3.2 2.3-6.6 2.7-10.4.9-7.4-.5-13.8-2.7-17.9-2.3-4.1-5.4-5.7-8.3-4.7-3 1-4.8 4.2-6.2 8.3-1.4 4.1-2.3 9.4-3.3 15.3z" fill="#eb6a46"/><path class="st16" d="M425 283.6c-3.3 1.4-8-.2-12.6-4.5-2.3-2.1-4.5-5-6.3-8.2s-3.4-7-4.4-11c-2-8-1.5-15.3.6-20 1.9-4.8 5.1-7.1 8.6-6.3 3.5.7 5.9 3.9 8 8.3 2 4.3 9.4 40.3 6.1 41.7z"/><path class="st19" d="M467.9 273.8c-6.6.7-7.4-1.8-7.4-1.8-.8-2.4-1.4-8.1-1.5-11-.3-9.5 3.3-14.4 7.9-14.9 4.6-.5 8.6 3.9 8.9 13.3.1 2.9 0 8.8-.6 11.3 0-.1-.6 2.4-7.3 3.1z"/><path class="st0" d="M465.1 256.7c.8-.3 1.1-1.2.9-2-.2-.8-1-1.2-1.8-.9-.8.3-1.1 1.2-.9 2 .2.7 1 1.1 1.8.9z"/><path class="st19" d="M548.2 269.9c6.6-.7 7.3-3.2 7.3-3.2.6-2.5.7-8.2.6-11.3-.3-9.5-4.3-13.7-8.9-13.3-4.6.5-8.2 5.5-7.9 14.9.1 2.9.7 8.7 1.5 11 0 .3.7 2.6 7.4 1.9z"/><path class="st0" d="M543.8 252.9c-.8-.2-1.2-1-1-1.8.2-.8 1-1.4 1.7-1.2.8.2 1.2 1 1 1.8-.2.9-.9 1.5-1.7 1.2z"/><path d="M511.8 260.5s12.7 25.3 11.4 30.2c-2.3 8.2-15.6 6.3-15.6 6.3l6.6-10.9-2.4-25.6z" fill="#e8745d"/><path class="st2" d="M526.5 232l-2.1-10.9s23.5-3.3 44.6 6.1l-2.5 4.8c-.1 0-19.2-4.7-40 0z"/><path class="st0" d="M542.7 304.2s-19.9 5.2-31.7 5.2c-11.7 0-31.9-3.2-31.9-3.2-2 .1 9.3 23.6 31.4 23.2 22-.6 33.5-25.4 32.2-25.2z"/><path class="st2" d="M489.8 231.1l-.7-11.4s-25.8 1-46.3 15.5l1.4 5.2c26-11.1 27-9.6 45.6-9.3z"/><path class="st2" d="M597.2 130.1c7 12.9 9.8 28.5 10.1 43.5.3 12.9-.8 25.8-1.5 38.7-30.2-14.1-53.5-33.3-71.8-61.1-9.9 25.9-33 44.6-56.5 60-24.5 16.2-52.5 26.2-80.6 35.1-2.3-21.4-3.9-43-2.4-64.4 1.9-26.5 9-53 24.4-74.5C434.4 85.9 459 70 485.5 69.2c24.3-.7 49.3 12.9 59.5 34.7 15-3.8 32.5 2.3 43.3 14 3.6 3.7 6.5 7.8 8.9 12.2z"/><path class="st4" d="M529.3 119.3c2.4 50.1-45.1 78.1-78.9 106.7 9.3-4.4 18.3-9.3 27-15 23.5-15.4 46.6-34 56.5-60 18.3 27.7 41.8 46.9 71.8 61.1.1-1.6.2-3.2.2-4.7-35.4-16.9-64.1-50.8-76.6-88.1z"/><path class="st3" d="M493.8 69.5c-2.8-.3-5.6-.5-8.4-.3-26.5.8-51.1 16.5-66.5 38.2-15.4 21.5-22.5 48.2-24.4 74.5-1.6 21.5.1 43 2.4 64.4 0 0 6.1-54.5 10.7-81.2 8.5-44.5 39.4-90 86.2-95.6z"/><path class="st4" d="M605 152.9c-.2-1.2-.6-2.5-.8-3.7-19.1 1.8-38.5-1.6-56.5-5.7 18.6 6.6 38 10.7 57.3 9.4zm-36.3 8.1c11.8 6.8 25 10.5 38.7 12.9v-.3c-.1-2.4-.2-4.7-.3-7.2-13.2 1.4-26-1.1-38.4-5.4z"/><path class="st3" d="M488.5 86.6c-21.2 14.4-51.3 68.8-51.3 68.8 23.8-32.8 46-66 82.4-77.7-5.9-3.3-12.4-5.6-18.9-7.1-20.7 7.4-39.8 19.1-54.9 34.8 12.1-9.8 26.9-17.3 42.7-18.8z"/><path class="st4" d="M597.2 130.1c-2.4-4.4-5.3-8.6-8.8-12.3-10.8-11.7-28.4-17.8-43.3-14-4.5-9.5-11.7-17.4-20.5-23.3 11 11.5 12.8 31 12.9 46.5.6-5.1 4.7-6.1 8.1-7.1 18.5-5.7 36.6.3 52 10.7-.2-.1-.3-.2-.4-.5z"/><path class="st2" d="M552.5 160.1s53.8 86.5 30.3 176.6c0 0 22.2-46 23.2-83.8.8-32 .9-57.1.9-57.1l-54.4-35.7zm-90.8 18.8s-66.3 72.7-73.5 163.3c0 0-4.2-48.2 5.7-84.3 8.4-30.7 15.4-54.8 15.4-54.8l52.4-24.2z"/><path class="st4" d="M525 103.2c-10.5 48.7-33 84.9-80.6 104.2 49.4-24 68.4-63.3 80.6-104.2zm-107.2 85.4c25.7-4.1 50.1-17.8 67.3-38.5-13.7 22.4-40 37.8-67.3 38.5z"/><path class="st9" d="M504.2 973.3c-57.1 0-164.6-14.2-176.5-15.9 10.2-43.8 27.7-89.6 43.1-130 14-36.6 27.1-71.1 32.6-98.2 7.2-35.2-11.8-83.8-27.2-122.8-9.8-25-18.3-46.7-18.3-59.9 0-11.4-.3-24.2-.8-37.7-.8-27.1-1.7-57.7.5-82.7 13.6-8.4 82.3-36 82.3-36 3.8 9.7 55.5 94.2 79.8 94.2 24.5 0 57.4-81.3 59.9-90.7l41.2 15.3c1.7 17.7 8.8 40.4 16.4 64.5 8.7 27.6 17.7 56.2 20.6 82.7-7.7 25.8-33.1 61.6-40.6 71.9l-.1.2v.2c-.1.6-10.4 52.8-4.7 93.5 2.9 21.1 15 60.2 28.9 105.5 12.9 41.9 27.6 89.3 37 129.9-8.4 1.9-45.9 20-174.1 16z"/><path class="st10" d="M434 666.7c30.3-8 62.7-3.5 86.8-8.7-27.5-7.8-108.9-14.9-124.3-39.8-22.3-36.1-33-58.1-34.7-65-6-27.5-.9-52.8-.9-80.8 0-7.2-2.3-15.1-5.6-21.1-.6 32.2 1.6 68.1 1.6 95.1 0 34.6 57.3 125.6 45.6 182.5-11.7 56.8-56.6 145.6-76.1 229.3 0 0 8 1.1 20.8 2.7 22.7-43.9 66.4-288.7 86.8-294.2zm203.6-177.8c9.5 25.8 17.2 55 9.5 80.8-6.9 20.6-24.1 38.7-39.5 54.1-18 18.9-46.4 24.1-71.4 33.5 22.3-3.5 44.7-9.5 67-11.1.9 16.3-8.6 80.8-4.3 96.2 6.9 24.1 68.2 214 70.1 217.9 6.4-1.2 10.4-2 10.4-2-19.5-83.8-60.6-195.3-66.2-236.3-5.6-41 4.7-93.2 4.7-93.2 13.7-18.8 34.2-50.1 40.9-72.4-3.3-29.4-14.1-61.8-23.2-91-.3 7.8-.7 15.8 2 23.5z"/><path class="st14" d="M689.1 711.6c-7.1-.7-14.3-.9-21.4.6-2.1.5-4.3 1.1-6.2 1.9-2.4 4.8-4.5 9.6-6.3 14.2-10.1 25.9-35.7 274.9-35.7 274.9l30.6 5.4s67.8-208.1 78.3-242.9c2.1-7.2 2-22.9 1-39.6-11-9.9-25.9-13.1-40.3-14.5z"/><path class="st14" d="M620.9 989.6l-14.5 20.9s47.5 24.3 54.9 7.1l-10.6-24.5-29.8-3.5z"/><path class="st21" d="M727.1 724.2c.3 17.8-1.9 35.9-6.3 49.5-22.5 65.5-57.1 184.2-57.1 184.2-1.4 7.3-6.6 16.5-4.6 23.2 18.8-57.7 61.2-188.4 69.3-215.3 2.1-7.2 2-22.9 1-39.6-.8-.8-1.6-1.5-2.3-2z"/><path class="st16" d="M658.6 735.2c-1.9 2.4-4.3 4.2-6.8 6.1-8.8 44.2-23.1 173.4-29.3 232.2 1.3-.3 36.1-238.3 36.1-238.3z"/><path class="st22" d="M372.5 546.1c-5.4-14.7-14.3-24.2-19.4-36.6-1.7-4.2 14.5-40.4 28.7-53.8 2.9-2.8 21.4 6.6 21.4 6.6l-30.7 83.8z"/><path d="M417.4 650.5c3.7-37.1 5.4-156.7 1.1-251.7-9 1.5-27.4 9.7-38.5 15 9.2 85.1 8.9 138.3 6.4 222.3-1.4 44.6 1.6 77.7-11.5 122.7l-7.3 68.7c34.2-41.2 43.6-115.4 49.8-177z" fill="#783013"/><path class="st8" d="M425.6 578.8l-44.8-.2-.2 49.1 44.8.2.2-49.1zM386 622.2l.2-38 33.8.2-.2 38-33.8-.2z"/><path class="st22" d="M397.3 567.9c6.2-1.5 35.7-21.3 50.3-35.2 4.2-3.9 8.3-8.2 9.9-13.7 1.6-5.5-.3-12.4-5.6-14.5l-56.4 41.7c-.1-.1-4.3 23.2 1.8 21.7z"/><path class="st22" d="M397.2 551.1c6.2-1.5 32.6-23.6 47.2-37.6 4.2-3.9 8.3-8.2 9.9-13.7s-.3-12.4-5.6-14.5L392.3 527c0-.2-1.3 25.6 4.9 24.1z"/><path class="st22" d="M394.2 538.5c6.1-1.8 31.3-25.6 45-40.3 3.8-4.2 7.8-8.7 9.1-14.3 1.2-5.5-3.7-15.3-9.1-17.2L388 514.6c-.1.1.1 25.8 6.2 23.9z"/><path class="st22" d="M431.9 453.3c-1.2-1.4-3.2-2.3-6.4-2.8-4.2-.7-17 18.5-26 29-4.7 5.5-9.3 11.3-11.6 18.1-2 6.1-1.8 13.3 1.6 18.6 16.5-8.4 31.3-20.5 42.7-35.2 3-3.9 6-8.2 6.2-13.2.3-5.5-2.8-10.3-6.5-14.5z"/><path class="st21" d="M438.4 467.7L426 486.4l-19.7 16.7 2.1 1.4s16.7-15.3 19.2-17.9c2.7-2.8 10.8-18.9 10.8-18.9zm10 17s-9 14.7-12.4 18.7c-3.4 3.9-14.1 11-14.1 11l.3 1.4s12.7-9.7 15.4-12.3c2.9-2.7 10.8-18.8 10.8-18.8zm3.9 19.7s-7.8 14.3-11.4 17.2c-3.7 2.8-12.9 10.1-12.9 10.1l.3 1.2s11.7-8.9 14.2-11.4c2.3-2.3 9.8-17.1 9.8-17.1z"/><path class="st22" d="M373.1 506.7s-3.9 29.6-16 45.3c-6.8 8.7 11.7 21.4 25.6 20.9s46.4-23 52.8-30.6c6.4-7.7-6-28.8-14.7-38.8-8.8-10-34.9-30.9-47.7 3.2z"/><path class="st22" d="M224.2 730.7c-4.4 9.6-7.7 19.7-9.5 30.2-1.9 11.5-2.1 23.4.5 34.7 2.3 9.8 5.5 19.5 10.6 28.1 2.9 5.1 7.2 10.6 12.6 13.3 22.3-18.9 60.5-53.6 67.9-68.2 13.4-26.3 70.9-144.9 105.3-215.9-2.6-3.5-5.6-6.5-9.2-9.1-9.8-7.1-22-10-34.1-10.8-45.7 60.2-117.4 156.5-144.1 197.7z"/><path class="st21" d="M398.1 572.2c-20 38.8-65.5 127.5-91.6 183.9-13.4 27.4-44.8 62.9-72.3 77.9 1.4 1.1 2.8 2.1 4.3 2.9 22.3-18.9 60.5-53.6 67.9-68.2 12.3-24.2 61.8-126.2 96.5-197.8-1.7.6-3.2 1-4.8 1.3z"/><path class="st16" d="M358.6 549.8c0-1.4-.1-2.7-.1-4.1-45.5 60.5-109.5 146.6-134.3 185-.6 1.2-1.1 2.6-1.7 3.8.5 3 .8 6.2.6 9.2 0 .2 88.9-126.6 135.5-193.9z"/></g></g></svg>