<svg version="1.1" id="group_of_young_people" xmlns="http://www.w3.org/2000/svg" xmlns:xlink="http://www.w3.org/1999/xlink" x="0" y="0" viewBox="0 0 1067.2 962.5" xml:space="preserve"><style>.st2{fill:#ae371c}.st3{fill:#b8523d}.st4{fill:#872a16}.st6{fill:#c26d4a}.st8{fill:#e6e6e6}.st9{fill:#b9b8bf}.st10{fill:#9f9da3}.st11{fill:#8b8a8f}.st14{fill:#f9b598}.st16{fill:#fbd3c1}.st19{fill:#221f51}.st20{fill:#fff}.st22{fill:#f07f60}.st23{fill:#f6c5b0}</style><linearGradient id="SVGID_1_" gradientUnits="userSpaceOnUse" x1="838.985" y1="776.938" x2="1028.38" y2="985.379" gradientTransform="matrix(-3.0737 -.01153 .01153 3.1086 3378.701 -2039.042)"><stop offset="0" stop-color="#8eedca"/><stop offset="1" stop-color="#92d7f5"/></linearGradient><path d="M735.8 23.6c-101.6 29.5-183.2 102-268.4 163.1-56.1 40.2-118.1 63.9-180.2 92.9-158 73.8-315 190.5-283 370.8 26.7 150.3 191.5 302.3 371.7 297.3C438.2 946 490.4 923 536 890.3c27.4-19.7 53.4-50.2 91.4-55.1 40.1-5.2 84.3 18.5 120.8 32.8 54.4 21.4 111.6 43.7 170.5 45.6 135 4.4 163.8-90.8 141.8-208.1-10.7-57-29.4-112.2-43.4-168.4-19.9-79.7-9.7-151.6 2.3-231.6 10.6-71.2 14.4-149.7-25.1-210C949.5 27.1 858.5 1.6 778.6 14c-14.7 2.3-28.9 5.6-42.8 9.6z" fill="url(#SVGID_1_)"/><defs><path id="SVGID_2_" d="M735.8 23.6c-101.6 29.5-183.2 102-268.4 163.1-56.1 40.2-118.1 63.9-180.2 92.9-158 73.8-315 190.5-283 370.8 26.7 150.3 191.5 302.3 371.7 297.3C438.2 946 490.4 923 536 890.3c27.4-19.7 53.4-50.2 91.4-55.1 40.1-5.2 84.3 18.5 120.8 32.8 54.4 21.4 111.6 43.7 170.5 45.6 135 4.4 163.8-90.8 141.8-208.1-10.7-57-29.4-112.2-43.4-168.4-19.9-79.7-9.7-151.6 2.3-231.6 10.6-71.2 14.4-149.7-25.1-210C949.5 27.1 858.5 1.6 778.6 14c-14.7 2.3-28.9 5.6-42.8 9.6z"/></defs><clipPath id="SVGID_3_"><use xlink:href="#SVGID_2_" overflow="visible"/></clipPath><g id="woman_with_a_bag_1_" clip-path="url(#SVGID_3_)"><path class="st2" d="M752.4 563.5c26.9-23.9 32.7-64.3 26.8-99.8-5.9-35.5-21.5-68.6-30.8-103.3-11.7-44-6.7-118.4-8.1-132.1-1.4-13.3-181.6-.2-181.6-.2A1611.5 1611.5 0 0 0 544 416.9c-.9 47.4 2.4 100.1 36.2 133.2l172.2 13.4z"/><path class="st3" d="M552.8 327.9c2.3-33.2 12-67.4 12.6-100.2-4.3.3-6.7.5-6.7.5A1611.5 1611.5 0 0 0 544 417c-.9 47.4 2.4 100.1 36.2 133.2l6.1.5c-34.1-70-39.1-146.2-33.5-222.8z"/><path class="st4" d="M606 474.4c15.5-38.1 38.1-72 52.3-111.6 7.1 33.9 12.7 69.2 21.2 103.1 16-40.4 1.4-146.3 7.1-149.7 5.7-3.4 22 61.4 22.6 66.4 7.2-53.1 4.6-106.8-1.5-160-30.2-.8-75.4 1.2-108.1 3-17.6 81.9-18 168.6 6.4 248.8z"/><path d="M416.8 608.5c12.4-46.7 27.1-62.5 63-83.6 14.4-8.6 37.8-18 57.1-24.5 55.3-16.6 105.1-25.9 164.3-30.8 2.1 74.7 3.8 152.3-.2 227.4-4.8 75.2-17.6 144.9-22.4 220.1 0 .6 0 1.3-.1 1.9-68.2 10.4-140.5 6.3-205.6-12.1-12.6-3.6-25.4-7.9-34.2-15.5-8.7-7.6-12.4-17.6-15.5-27.3-26-83.4-17.3-170.2-6.4-255.6z" fill="#b3481d"/><path class="st6" d="M498.9 541.5c-25.4.4-40.3 18-45.1 34.7-5.3 18.3-5 37.8-6.6 56.4-3.5 38.8-6.9 77.6-10.4 116.5-.2 2-4.4 2.2-4.3.1 3.8-43 7.6-86 11.5-129 1.6-18.3.8-38.5 10.1-55.8 7.4-13.8 23.7-25.7 44.6-26 2.8-.2 2.9 3 .2 3.1z"/><path d="M505.7 879.9c40.6 5 79.5 1.3 120.2 2.5 17.7-20.3 44.2-37.3 61.8-58.3-3.7 30.6-7.1 61.3-9.1 93 0 .6 0 1.3-.1 1.9-68.2 10.4-140.5 6.3-205.6-12.1-12.6-3.6-25.4-7.9-34.2-15.5-8.7-7.6-12.4-17.6-15.5-27.3-1.7-5.3-3.2-10.6-4.6-16 26.4 14.6 53.4 27.7 87.1 31.8z" fill="#993e19"/><path class="st6" d="M396.2 874.6c-1.8-1-3.4-2.2-4.6-3.6-3.1-3.7-3.2-8.5-3.1-13 .7-39.7 3-79.4 6.9-118.9 30.9 10.2 63.8 10.1 97.1 13.5 3.6 44 4.3 95.2 2.9 139.3-31.4 1-63-3.8-91.6-13.9-2.6-1.1-5.3-2.1-7.6-3.4z"/><path class="st8" d="M548.7 853.3c5-15.5 21.8-40.1 29.6-56.6 45.6-96.2 8.8-184.6 94-268 9.4-8.9 19.2-16.8 29.8-23.9 1.5 63.7 2.2 128.9-1.2 192.3-2.8 43.6-8.2 85.3-13.3 127.3-1.1 9.5-8.8 88.3-9.1 92.7 0 0-.1 1.6-.1 2-6.4 1-12.8 1.8-19.3 2.6-4.3.5-8.6.9-12.9 1.3-6.5.6-13 1-19.5 1.3-13 .6-26.1.7-39.2.3-23.9-1-61.1-3.1-38.8-71.3z"/><path class="st9" d="M863 696.6c.4-6.2-80.9-224.5-92.6-256.2-1.5-3.9-3.5-8.2-6.1-11.5-1.8-2.2-9.6-3.8-11.3-1.6-17.8 23.4-46.6 85.7-44.3 115.8 2.6 33.7 62 171.2 66.9 172 25.9 4.4 86.4 5.9 87.4-18.5z"/><path class="st10" d="M855.5 708.7c-8.3-59-84.3-236.2-96.2-282 2.1.5 4.1 1.3 4.9 2.3 2.6 3.2 4.6 7.5 6.1 11.5 11.8 31.7 93 250.1 92.6 256.2-.1 5-2.9 8.9-7.4 12z"/><path class="st11" d="M794.7 698.2c16.5-4.3 29.4-2.3 42.7 2 11.5 3.8 18.2 8.4 18.2 8.4s7.5-12.3 7.5-12c-2.6 55-87 20.1-87.9 18.9-.8-1.1-1.5-2.7-1.5-2.7s15.4-13.1 21-14.6z"/><path class="st9" d="M400.4 716.6c.1-6.5 97.6-228.6 111.7-261 1.7-4 4.1-8.3 6.9-11.5 1.9-2.1 9.9-3.2 11.4-.7 16 26 40 93.8 35.4 125.2-5.2 35.2-74.8 174.3-79.7 174.8-26.1 2.3-86.5-1.2-85.7-26.8z"/><path d="M406.9 729.8c12.8-61.2 101.9-240.7 117.2-287.7-2.2.3-4.2 1.1-5.1 2-2.9 3.2-5.2 7.5-6.9 11.5-14.1 32.3-111.6 254.4-111.7 261-.2 5.3 2.3 9.7 6.5 13.2z" fill="#d5d4d9"/><path class="st11" d="M479.5 743.8c2.4-.1 4.6-.3 6.7-.4 4.9-.5 74.5-139.6 79.7-174.8 1.4-9.3.2-21.9-2.5-35.6-7.3 24.7-54.3 173.4-83.9 210.8z"/><path d="M461.3 725.3c-11-3.8-52.9-10.9-59.9-6.6-4.2 2.6 17 69 84.8 24.6.1-.1.4-.2.7-.6 0 .1-14.6-13.6-25.6-17.4z" fill="#782c22"/><path class="st14" d="M576.3 431.4c0 20.3 58.4 91.3 78.5 91.3s92.4-78.8 88.1-98.7c-.9-4.3-57.6-19-89-19-31.5 0-77.6 6-77.6 26.4z"/><path class="st14" d="M653.2 450.1c18.6 0 33.7-15.2 33.7-33.7v-59c0-18.6-15.2-33.7-33.7-33.7-18.6 0-33.7 15.2-33.7 33.7v59c-.1 18.5 15.1 33.7 33.7 33.7z"/><path d="M686.9 398.2v-40.8c0-18.6-15.2-33.7-33.7-33.7-18.6 0-33.7 15.2-33.7 33.7v26.9s16.9 16.7 30.6 19.3c19.9 3.9 36.8-5.4 36.8-5.4z" fill="#bd634f"/><path class="st14" d="M655.1 151.7c40 0 86.2 12.5 83.4 75.3 0 0-10.3 82-13.1 96-2.8 14.1-34.3 68.3-65.4 68.3-33.4 0-72.6-54.4-75.4-68.4-2.8-14.1-13.9-93.7-13.9-93.7-2.8-62.8 44.4-77.6 84.4-77.5z"/><path class="st16" d="M583 269.1c-2.1.1-4.5.2-6.8-.2 3.2 22.2 6.9 46.8 8.3 54 2.8 14.1 42 68.4 75.4 68.4h.3c-36.4-14.1-51.5-36.3-63-51.6-11.4-15.4-14.4-45.7-14.2-70.6z"/><path d="M655.1 151.7c-40 0-87.3 14.7-84.5 77.5 0 0 2 14.5 4.6 32.1 21.6 22.4 94.8-22.5 121.9-52.3 29.3 66.3 30.8 133.3-10.6 168.9-3.9 3.4-13.6 10.5-13.6 10.5 26.4-11.4 50.1-53.3 52.5-65.4 2.8-14.1 13.1-96 13.1-96 2.8-62.8-43.4-75.3-83.4-75.3z" fill="#db7b60"/><path d="M723.5 289c-.9 5.2-1.6 9.7-1.6 13.3 0 3.5.9 6.2 3.7 6.9 2.7.7 6.3-1 9.5-4.8 1.6-1.9 3.1-4.3 4.2-7.1s2-5.9 2.4-9.2c.8-6.6-.4-12.3-2.4-15.9-2-3.6-4.8-5.1-7.4-4.2-2.7.9-4.3 3.7-5.5 7.4-1.2 3.7-2 8.4-2.9 13.6z" fill="#eb6a46"/><path class="st16" d="M584.6 315.8c-2.9 1.2-7.1-.2-11.2-4-2-1.9-4-4.4-5.6-7.3-1.6-2.9-3-6.2-3.9-9.8-1.8-7.1-1.3-13.6.5-17.8 1.7-4.3 4.5-6.3 7.6-5.6 3.1.6 5.2 3.5 7.1 7.4 1.8 3.9 8.4 35.9 5.5 37.1z"/><path class="st19" d="M622.7 307.1c-5.9.6-6.6-1.6-6.6-1.6-.7-2.1-1.2-7.2-1.3-9.8-.3-8.4 2.9-12.8 7-13.2 4.1-.4 7.6 3.5 7.9 11.8.1 2.6 0 7.8-.5 10 0 0-.6 2.2-6.5 2.8z"/><path class="st20" d="M620.2 291.9c.7-.3 1-1.1.8-1.8-.2-.7-.9-1.1-1.6-.8-.7.3-1 1.1-.8 1.8.2.7.9 1 1.6.8z"/><path class="st19" d="M694 303.7c5.9-.6 6.5-2.8 6.5-2.8.5-2.2.6-7.3.5-10-.3-8.4-3.8-12.2-7.9-11.8-4.1.4-7.3 4.9-7 13.2.1 2.6.6 7.7 1.3 9.8 0 .1.7 2.2 6.6 1.6z"/><path class="st20" d="M690.1 288.6c-.7-.2-1.1-.9-.9-1.6.2-.7.9-1.2 1.5-1.1.7.2 1.1.9.9 1.6-.2.8-.8 1.3-1.5 1.1z"/><path d="M661.7 295.3s11.3 22.5 10.1 26.8c-2 7.3-13.9 5.6-13.9 5.6l5.9-9.7-2.1-22.7z" fill="#e8745d"/><image width="136" height="194" xlink:href="8EDE830A.png" transform="matrix(.24 0 0 .24 627.097 265.286)" overflow="visible"/><path class="st2" d="M674.7 270l-1.9-9.7s20.9-2.9 39.6 5.4l-2.2 4.3s-17-4.2-35.5 0z"/><path class="st20" d="M689.1 334.1s-17.7 4.6-28.2 4.6c-10.4 0-28.3-2.8-28.3-2.8-1.8.1 8.3 21 27.9 20.6 19.6-.5 29.8-22.5 28.6-22.4z"/><path class="st2" d="M642.1 269.2l-.6-10.1s-22.9.9-41.1 13.8l1.2 4.6c23.1-9.9 24-8.6 40.5-8.3z"/><path class="st2" d="M737.5 179.5c6.2 11.5 8.7 25.3 9 38.6.3 11.5-.7 22.9-1.3 34.4-26.8-12.5-47.5-29.6-63.8-54.3-8.8 23-29.3 39.6-50.2 53.3-21.8 14.4-46.6 23.3-71.6 31.2-2-19-3.5-38.2-2.1-57.2 1.7-23.5 8-47.1 21.7-66.2s35.6-33.2 59.1-33.9c21.6-.6 43.8 11.5 52.9 30.8 13.3-3.4 28.9 2 38.5 12.4 3.1 3.3 5.7 7 7.8 10.9z"/><path class="st4" d="M677.2 169.9c2.1 44.5-40.1 69.4-70.1 94.8 8.3-3.9 16.3-8.3 24-13.3 20.9-13.7 41.4-30.2 50.2-53.3 16.3 24.6 37.1 41.7 63.8 54.3.1-1.4.2-2.8.2-4.2-31.5-15.1-57-45.2-68.1-78.3z"/><path class="st3" d="M645.7 125.6c-2.5-.3-5-.4-7.5-.3-23.5.7-45.4 14.7-59.1 33.9-13.7 19.1-20 42.8-21.7 66.2-1.4 19.1.1 38.2 2.1 57.2 0 0 5.4-48.4 9.5-72.1 7.7-39.5 35.1-79.9 76.7-84.9z"/><path class="st4" d="M744.5 199.7c-.2-1.1-.5-2.2-.7-3.3-17 1.6-34.2-1.4-50.2-5.1 16.5 5.9 33.7 9.6 50.9 8.4zm-32.3 7.2c10.5 6 22.2 9.3 34.4 11.5v-.3c-.1-2.1-.2-4.2-.3-6.4-11.7 1.3-23.1-1-34.1-4.8z"/><path class="st3" d="M641 140.8c-18.8 12.8-45.6 61.1-45.6 61.1 21.1-29.1 40.9-58.6 73.2-69-5.2-2.9-11-5-16.8-6.3-18.4 6.6-35.4 17-48.8 30.9 10.8-8.7 23.9-15.3 38-16.7z"/><path class="st4" d="M737.5 179.5c-2.1-3.9-4.7-7.6-7.8-10.9-9.6-10.4-25.2-15.8-38.5-12.4-4-8.4-10.4-15.5-18.2-20.7 9.8 10.2 11.4 27.5 11.5 41.3.5-4.5 4.2-5.4 7.2-6.3 16.4-5.1 32.5.3 46.2 9.5-.2-.2-.3-.3-.4-.5z"/><path class="st2" d="M697.8 206.1s47.8 76.8 26.9 156.9c0 0 19.7-40.9 20.6-74.4.7-28.4.8-50.7.8-50.7l-48.3-31.8zm-80.6 16.7s-58.9 64.6-65.3 145.1c0 0-3.7-42.8 5.1-74.9 7.5-27.3 13.7-48.7 13.7-48.7l46.5-21.5z"/><path class="st4" d="M673.4 155.6c-9.3 43.3-29.3 75.4-71.6 92.6 43.9-21.4 60.8-56.3 71.6-92.6zm-95.2 75.8c22.8-3.6 44.5-15.8 59.8-34.2-12.2 19.9-35.6 33.6-59.8 34.2z"/><path class="st9" d="M654.9 928.5c-50.7 0-146.2-12.6-156.8-14.1 9.1-38.9 24.6-79.6 38.3-115.5 12.4-32.5 24.1-63.2 29-87.2 6.4-31.3-10.5-74.4-24.2-109.1-8.7-22.2-16.3-41.5-16.3-53.2 0-10.1-.3-21.5-.7-33.5-.7-24.1-1.5-51.3.4-73.5 12.1-7.5 73.1-32 73.1-32 3.4 8.6 49.3 83.7 70.9 83.7 21.8 0 51-72.2 53.2-80.6l36.6 13.6c1.5 15.7 7.8 35.9 14.6 57.3 7.7 24.5 15.7 49.9 18.3 73.5-6.8 22.9-29.4 54.7-36.1 63.9l-.1.2v.2c-.1.5-9.2 46.9-4.2 83.1 2.6 18.7 13.3 53.5 25.7 93.7 11.5 37.2 24.5 79.3 32.9 115.4-7.4 1.6-40.7 17.7-154.6 14.1z"/><path class="st10" d="M592.6 656.2c26.9-7.1 55.7-3.1 77.1-7.7-24.4-6.9-96.7-13.2-110.4-35.4-19.8-32.1-29.3-51.6-30.8-57.7-5.3-24.4-.8-46.9-.8-71.8 0-6.4-2-13.4-5-18.7-.5 28.6 1.4 60.5 1.4 84.5 0 30.7 50.9 111.6 40.5 162.1S514.3 840.8 497 915.2c0 0 7.1 1 18.5 2.4 20.1-39.1 58.9-256.6 77.1-261.4zm180.8-158c8.4 22.9 15.3 48.9 8.4 71.8-6.1 18.3-21.4 34.4-35.1 48.1-16 16.8-41.2 21.4-63.4 29.8 19.8-3.1 39.7-8.4 59.5-9.9.8 14.5-7.6 71.8-3.8 85.5 6.1 21.4 60.6 190.1 62.3 193.6 5.7-1.1 9.2-1.8 9.2-1.8-17.3-74.4-53.8-173.5-58.8-209.9-5-36.4 4.2-82.8 4.2-82.8 12.2-16.7 30.4-44.5 36.3-64.3-2.9-26.1-12.5-54.9-20.6-80.8-.2 6.8-.6 13.9 1.8 20.7z"/><path class="st14" d="M819.2 696c-6.3-.6-12.7-.8-19 .5-1.9.4-3.8 1-5.5 1.7-2.1 4.3-4 8.5-5.6 12.6-9 23-31.7 244.2-31.7 244.2l27.2 4.8s60.2-184.9 69.6-215.8c1.9-6.4 1.8-20.3.9-35.2-9.9-8.7-23.1-11.5-35.9-12.8z"/><path class="st14" d="M758.6 943l-12.9 18.6s42.2 21.6 48.8 6.3l-9.4-21.8-26.5-3.1z"/><path class="st22" d="M852.9 707.2c.3 15.8-1.7 31.9-5.6 44-20 58.2-50.7 163.6-50.7 163.6-1.2 6.5-5.9 14.7-4.1 20.6 16.7-51.3 54.4-167.4 61.6-191.3 1.9-6.4 1.8-20.3.9-35.2-.7-.6-1.4-1.2-2.1-1.7z"/><path class="st16" d="M792.1 717c-1.7 2.1-3.8 3.7-6 5.4-7.8 39.3-20.5 154-26 206.3 1.1-.3 32-211.7 32-211.7z"/><path class="st23" d="M537.9 549c-4.8-13.1-12.7-21.5-17.2-32.5-1.5-3.7 12.9-35.9 25.5-47.8 2.6-2.5 19 5.9 19 5.9L537.9 549z"/><path d="M577.8 641.8c3.3-33 4.8-139.2 1-223.6-8 1.3-24.3 8.6-34.2 13.3 8.2 75.6 7.9 122.9 5.7 197.5-1.2 39.6 1.4 69-10.2 109l-6.5 61c30.4-36.6 38.7-102.5 44.2-157.2z" fill="#783013"/><path class="st8" d="M585.1 578.1l-39.8-.2-.2 43.6 39.8.2.2-43.6zm-35.2 38.5l.2-33.8 30 .2-.2 33.8-30-.2z"/><path class="st23" d="M560 568.4c5.5-1.3 31.7-18.9 44.7-31.3 3.7-3.5 7.4-7.3 8.8-12.2 1.4-4.9-.3-11-5-12.9l-50.1 37c-.1 0-3.9 20.7 1.6 19.4z"/><path class="st23" d="M559.9 553.5c5.5-1.3 29-21 41.9-33.4 3.7-3.5 7.4-7.3 8.8-12.2s-.3-11-5-12.9l-50.1 37c0-.1-1.1 22.8 4.4 21.5z"/><path class="st23" d="M557.2 542.3c5.4-1.6 27.8-22.7 40-35.8 3.4-3.7 6.9-7.7 8.1-12.7 1.1-4.9-3.3-13.6-8.1-15.3L551.7 521c-.1.1.1 23 5.5 21.3z"/><path class="st23" d="M590.7 466.6c-1.1-1.2-2.8-2-5.7-2.5-3.7-.6-15.1 16.4-23.1 25.8-4.2 4.9-8.3 10-10.3 16.1-1.8 5.4-1.6 11.8 1.4 16.5 14.7-7.5 27.8-18.2 37.9-31.3 2.7-3.5 5.3-7.3 5.5-11.7.3-4.9-2.4-9.2-5.7-12.9z"/><path class="st22" d="M596.5 479.4l-11 16.6-17.5 14.8 1.9 1.2s14.8-13.6 17.1-15.9c2.3-2.4 9.5-16.7 9.5-16.7zm8.9 15.1s-8 13.1-11 16.6c-3 3.5-12.5 9.8-12.5 9.8l.3 1.2s11.3-8.6 13.7-10.9c2.4-2.4 9.5-16.7 9.5-16.7zm3.4 17.5s-6.9 12.7-10.1 15.3c-3.3 2.5-11.5 9-11.5 9l.3 1.1s10.4-7.9 12.6-10.1c2.1-2.2 8.7-15.3 8.7-15.3z"/><path class="st23" d="M538.5 514s-3.5 26.3-14.2 40.2c-6 7.7 10.4 19 22.7 18.6 12.3-.4 41.2-20.4 46.9-27.2 5.7-6.8-5.3-25.6-13.1-34.5-7.8-8.8-31-27.4-42.3 2.9z"/><path class="st23" d="M406.2 713c-3.9 8.5-6.8 17.5-8.4 26.8-1.7 10.2-1.9 20.8.4 30.8 2 8.7 4.9 17.3 9.4 25 2.6 4.5 6.4 9.4 11.2 11.8 19.8-16.8 53.7-47.6 60.3-60.6 11.9-23.4 63-128.7 93.5-191.8-2.3-3.1-5-5.8-8.2-8.1-8.7-6.3-19.5-8.9-30.3-9.6-40.5 53.6-104.2 139.1-127.9 175.7z"/><path class="st22" d="M560.7 572.2c-17.8 34.5-58.2 113.3-81.4 163.4-11.9 24.3-39.8 55.9-64.2 69.2 1.2 1 2.5 1.9 3.8 2.6 19.8-16.8 53.7-47.6 60.3-60.6 10.9-21.5 54.9-112.1 85.7-175.7-1.5.5-2.8.8-4.2 1.1z"/><path class="st16" d="M525.6 552.3c0-1.2-.1-2.4-.1-3.6-40.4 53.7-97.3 130.2-119.3 164.3-.5 1.1-1 2.3-1.5 3.4.4 2.7.7 5.5.5 8.2 0 .1 79-112.5 120.4-172.3z"/></g></svg>