<svg version="1.1" id="group_of_young_people" xmlns="http://www.w3.org/2000/svg" xmlns:xlink="http://www.w3.org/1999/xlink" x="0" y="0" viewBox="0 0 1152.7 1067" xml:space="preserve"><style>.st2{fill:#aa7241}.st3{fill:#915027}.st5{fill:#342a33}.st8{fill:#221f51}.st9{fill:#fff}.st11{fill:#272026}.st13{fill:#f3e26a}</style><linearGradient id="SVGID_1_" gradientUnits="userSpaceOnUse" x1="-5509.231" y1="775.055" x2="-5301.262" y2="546.172" gradientTransform="matrix(3.0737 -.01153 .01153 -3.1086 17197.45 2756.577)"><stop offset="0" stop-color="#aeebc9"/><stop offset="1" stop-color="#a7d5f2"/></linearGradient><path d="M311.7 14.4C225.4.5 127.1 29 78.7 105.3 36 172.6 40.1 260.2 51.6 339.6c13 89.3 24 169.5 2.5 258.4C39 660.8 18.8 722.4 7.2 786c-23.8 130.9 7.3 237.1 153.2 232.2 63.6-2.1 125.4-27 184.2-50.9 39.4-16 87.2-42.4 130.5-36.6 41 5.5 69.1 39.5 98.7 61.5 49.3 36.5 105.6 62.2 172.9 64.1 194.6 5.6 372.7-164 401.5-331.7 34.6-201.2-135-331.4-305.7-413.8-67.1-32.4-134.1-58.8-194.6-103.7-92-68.2-180.2-149.1-289.9-182-15.1-4.5-30.4-8.2-46.3-10.7z" fill="url(#SVGID_1_)"/><defs><path id="SVGID_2_" d="M311.7 14.4C225.4.5 127.1 29 78.7 105.3 36 172.6 40.1 260.2 51.6 339.6c13 89.3 24 169.5 2.5 258.4C39 660.8 18.8 722.4 7.2 786c-23.8 130.9 7.3 237.1 153.2 232.2 63.6-2.1 125.4-27 184.2-50.9 39.4-16 87.2-42.4 130.5-36.6 41 5.5 69.1 39.5 98.7 61.5 49.3 36.5 105.6 62.2 172.9 64.1 194.6 5.6 372.7-164 401.5-331.7 34.6-201.2-135-331.4-305.7-413.8-67.1-32.4-134.1-58.8-194.6-103.7-92-68.2-180.2-149.1-289.9-182-15.1-4.5-30.4-8.2-46.3-10.7z"/></defs><clipPath id="SVGID_3_"><use xlink:href="#SVGID_2_" overflow="visible"/></clipPath><g id="man_keep_hands_in_bag_1_" clip-path="url(#SVGID_3_)"><g id="american_man_1_"><path class="st2" d="M230.5 538.4c-13.7-8.3-11.6-28.8 3.5-34.1 49.6-17.6 88.6-37 136.6-58.3 9.6-4.3 27-68.2 28.7-82.1l83.4-.5c1.9 13.8 20.1 77.6 29.7 81.7 47.6 20.5 86.3 39.2 135.3 56 15.5 5.3 17.5 26.3 3.3 34.4L431.6 666.7 230.5 538.4z"/><path class="st3" d="M440.2 429.8c-23.6.1-37.8-7.1-54.1-16 6.5-19.6 12.2-42.3 13.1-49.9l83.4-.5c.9 6.2 5 22.7 10.3 39.2-12.9 16.5-29.1 27.1-52.7 27.2z"/><ellipse transform="rotate(-45.001 504.908 282.49)" class="st3" cx="504.9" cy="282.5" rx="26.4" ry="26.4"/><path d="M505.4 302.1h.2c4.5-.7 8.6-2.8 11.7-6 4.8-5 6.8-12.5 5-19.2-.2-.7-.9-1.2-1.7-1-.7.2-1.2.9-1 1.7 1.5 5.8-.2 12.3-4.3 16.7-2.6 2.7-6.2 4.6-10.1 5.2-.7.1-1.3.8-1.1 1.6.1.6.7 1.1 1.3 1z" fill="#6d3c1d"/><ellipse transform="rotate(-46.102 350.902 284.814)" class="st2" cx="350.9" cy="284.8" rx="26.4" ry="26.4"/><path class="st3" d="M345.1 305.3c.6 0 1.1-.4 1.3-.9.3-.7-.1-1.5-.8-1.7-5.3-1.9-9.4-6.6-10.6-12-1.2-5.5.7-11.5 4.7-15.3.5-.5.6-1.4 0-1.9-.5-.5-1.4-.6-1.9 0-4.7 4.5-6.9 11.5-5.5 17.8 1.4 6.4 6.2 11.9 12.3 14h.5z"/><path class="st2" d="M346.5 318.3s29 96.4 83.9 95.6c55-1.2 80.2-98.8 80.2-98.8-7.7-40.7 5.3-81.8-2.4-122.6-.4.2-43.7-36.7-81.9-36.3-38.2 1-81.5 39.6-81.9 39.4-6.1 41.1 8.2 81.7 2.1 122.7z"/><path class="st3" d="M508.3 192.6c-.4.2-43.7-36.7-81.9-36.3-38.2 1-81.5 39.6-81.9 39.4-.9 5.9-1.3 11.8-1.5 17.7 39.5 9.2 87.3 1 127.9 1.7 10.5 20.2 24.7 46.3 24.7 67.3 0 39.8-10.8 78-32.4 118.1 32.4-27 47.5-85.5 47.5-85.5-7.7-40.6 5.3-81.7-2.4-122.4z"/><path class="st5" d="M429.7 414.8c-22.6 0-44.3-16.7-62.8-48.2-13.9-23.7-21.2-47.8-21.3-48l-.1-.2v-.2c1.4-9.1 1.8-19 1.4-30.3l1.7-.2c.1.4 8.3 44.4 14.6 61.4 11.8-9.9 26.4-14.7 44.6-14.7 17 0 34.7 4.1 51.9 8 9.3 2.1 18.1 4.1 26.5 5.5 12.3-11.6 17.6-35.1 21.4-49.3l1.7.2c.4 5.8 1.1 11.2 2.1 16.3v.4c-.1.2-6.5 24.8-19.6 49.1-17.4 32.4-38.7 49.8-61.5 50.3-.1-.1-.4-.1-.6-.1z"/><path d="M423.1 414.3c-30.2-15-41.6-26.7-57.4-49.8.4.7.8 1.4 1.2 2 16.7 28.6 36 44.9 56.2 47.8z" fill="#594858"/><path d="M511.5 315c-1-5.2-1.6-10.5-2.1-16.3l-1.7-.2c-3.8 14.2-9.1 37.7-21.4 49.3-8.4-1.3-17.2-3.3-26.5-5.5-13.9-3.2-28.2-6.5-42.2-7.6 20.4 9.2 42.4 14 63.7 20.1 1.8 20.2-11.4 36.8-25.4 48.2-3.9 3.3-7.9 6.4-12 9.4 17.7-5.8 34-22.1 47.9-47.9 13.1-24.4 19.5-48.9 19.6-49.1v-.2l.1-.2z" fill="#261f26"/><path class="st8" d="M463.6 308.2c6.2.2 6.8-2.1 6.8-2.1.5-2.2.7-7.6.7-10.3-.2-8.7-3.9-13.2-8.2-13.3-4.3-.1-7.7 4.1-7.5 12.9.1 2.8.6 8.1 1.3 10.4 0-.1.7 2.3 6.9 2.4z"/><path class="st9" d="M465.2 292.2c-.7-.2-1.1-1.1-1-1.8.2-.8.9-1.2 1.6-.9.7.2 1.1 1.1 1 1.8-.2.7-.9 1.1-1.6.9z"/><path class="st8" d="M386.8 309.8c-6.2-.2-6.9-2.5-6.9-2.5-.7-2.3-1.2-7.6-1.3-10.4-.2-8.7 3.1-13 7.5-12.9 4.3.1 8 4.6 8.2 13.3.1 2.8-.1 8.1-.7 10.3 0 .1-.6 2.4-6.8 2.2z"/><path class="st9" d="M389.8 293.8c.7-.2 1.1-1 .9-1.8-.2-.8-1-1.2-1.7-1-.7.2-1.1 1-.9 1.8.3.7 1 1.2 1.7 1z"/><path d="M417.9 279.4s-11.9 41.4-10.2 46.4c3 8.6 17 5.5 17 5.5l-7.8-11 1-40.9z" fill="#a64a1c"/><image width="150" height="196" xlink:href="49D7CC0.png" transform="matrix(.24 0 0 .24 418.578 260.01)" overflow="visible"/><path class="st5" d="M482.6 276.8c-11.9-7.6-25.1-9.7-38.3-6.1-2.2.6-2.5-1.4-.8-4.6 1.7-3.2 4.5-6.2 6.1-6.5 10.6-1.9 20.9-2 30 5 1.4 1.1 3.4 7.1 4.5 9.8 1.2 2.6.5 3.7-1.5 2.4zm-117.7 0c11.9-7.6 25.1-9.7 38.3-6.1 2.2.6 2.5-1.4.8-4.6-1.7-3.2-4.5-6.2-6.1-6.5-10.6-1.9-20.9-2-30 5-1.4 1.1-3.4 7.1-4.5 9.8-1.1 2.6-.4 3.7 1.5 2.4z"/><path class="st9" d="M388.4 346.1s15.2 5.1 33.1 5c10.8-.1 30.9-4.2 30.9-4.2s-6.8 13.8-10.3 16.1c-11.4 7.5-31.4 7.8-47.3-4.3-2.8-2.1-6.4-12.6-6.4-12.6z"/><path class="st5" d="M504.2 266.4c.2.7.3 1.4.5 2-.1-1-.1-1.9-.2-2.9l-.3.9z"/><path class="st5" d="M328.8 185.4c.8-2.7 2.3-5.1 3.8-7.3 3.4-5.1 7.2-9.9 11.2-14.5-.5-5.6-1.1-11.1-1.6-16.7-.2-1.6-.3-3.4.4-4.8.8-1.5 2.4-2.4 3.9-3.1 38.7-18.4 81.5-26.8 123.5-32.2 1.8-.2 3.7-.4 5.4.4 1.5.7 2.5 2.2 3.5 3.6 8.6 12.8 17.3 28.4 25.9 41.2 11.7 4.2 22.5 13.2 23.7 26 .4 4.6-.5 9.2-1.3 13.6-5.2 26.9-13.8 72.2-19 99.1-4.1-28.1-18.9-69.7-23.4-95.4-38.1-.9-113.1 2.2-114.6 3.3-1.2 1-15.4 54-24.2 82-7.4-27.3-13.1-55.1-17.1-83.2-.5-3.8-1.1-7.7-.1-11.4-.1-.2 0-.4 0-.6z"/><path class="st11" d="M369.1 187c.6 4.8-.6 10.1-.3 15.1.7-2 1.1-3.3 1.3-3.4 1.5-1.2 76.6-4.3 114.6-3.3 3.5 20.2 13.4 50.2 19.5 75.8l.3-.9c-1.8-27.4-5.2-54.9-7.4-82.3-42.9-1-80.6.6-128-1z"/><path d="M353.1 136l-6.6 3c-1.5.7-3.1 1.5-3.9 3.1-.7 1.4-.6 3.2-.4 4.8.5 5.6 1.1 11.1 1.6 16.7-4.1 4.5-7.8 9.4-11.2 14.5-1.5 2.3-3 4.7-3.8 7.3-.1.2-.1.4-.2.6-.9 3.7-.4 7.6.1 11.4 4.1 28.1 9.8 55.9 17.1 83.2.2-.7.5-1.4.7-2.2-3.5-29.5-6.4-58.9-6.4-88.7 0-8.4 14-14 14-19.6.7-9.3-4.9-23.8-1-34.1zm64.1-20.3c-7.9 1.7-15.7 3.7-23.4 5.9 29.4 7.2 57.1 19.5 80.6 40.2-12.4-23.9-34.2-37-57.2-46.1zm-39.6 10.8c-4.2 1.4-8.3 2.9-12.5 4.5 18.1 4.9 35.4 12.6 51.3 24.2-11.2-11.9-23.5-23.9-38.8-28.7z" fill="#52444d"/><path class="st11" d="M528.4 178c-1.2-12.8-12-21.8-23.7-26-8.6-12.8-17.3-28.4-25.9-41.2-1-1.4-2-2.9-3.5-3.6-1.6-.8-3.6-.6-5.4-.4-.2 0-.3 0-.5.1 14.4 15.8 19.7 41 31.1 59.6 1.8 3.7 14.9 9.3 16.7 14.9 5.5 31.5-3 60.2-12.8 88.9.1 1 .1 2 .2 3.1 1.4 6.2 2.6 12.1 3.4 17.5 5.2-26.9 13.8-72.2 19-99.1 1-4.6 1.8-9.2 1.4-13.8z"/><path class="st13" d="M614.2 633.4c13.5 86.9 10.8 132 10.8 220 0 40 101.7 54.3 101.7-21.1 0-80.5-6-169.1-23.4-258.6-3-15.6-6.3-31.8-15.9-44.5-9.6-12.7-27.4-20.6-41.8-13.9l-31.4 118.1zm-333.7 0c-17.8 71.1-36.2 130-36.2 217.9 0 40-114.8 44.3-100.5-29.7 17.3-89.4 13.6-160.4 30.9-249.9 3-15.6 6.3-31.8 15.9-44.5 9.6-12.7 27.4-20.6 41.8-13.9l48.1 120.1z"/><path class="st13" d="M439.1 1091.6c-72.4 0-128.1-13.9-137.2-16.3.4-15.3 1.2-154.9 1.2-169.7 0-15.7-37-250-38.7-260v-.3l-.1-.3c-.2-.3-16-30.2-31-60.9-27.6-56.5-27.8-65.5-27.2-66.9 5.5-5.2 86.8-41.9 142.3-66.3-.9 8.1 4.3 16.1 10.4 20.2 27.7 18.4 57.2 28.1 85.4 28.1 28.4 0 55.9-9.9 79.5-28.6 8.5-6.7 10.8-14.5 10.2-20.3 9.5 3.9 39.7 16.4 69.4 29.9 21 9.5 37.8 17.7 49.8 24.3 20.7 11.3 21.8 15 21.8 15.6 0 10.9-37 90.1-51.2 119.8l-.1.2v.2c-1.9 10-44.8 244.7-44.7 275.3 0 8.9.5 143.8.9 159-9.2 2.5-65.7 16.9-138.9 17.1l-1.8-.1z"/><path d="M238.9 599.7c11.4 4.4 32.6 36.8 34.3 48.8 8.8 87.3 38.4 391.2 57.8 402.1 19.4 11 212.9 15.2 223.7-8.6 2.2-4.9 13.5-78.6 25.3-158.2.9-6.1-66.3 43.8-65.3 37.6.8-5.3 69.6-66.8 70.4-72.1 12.3-84.5 23.8-165.6 24.2-169.4 2.8-25.8 12.6-49 28.9-67.2-7.5 16.2-13.2 27.9-13.2 27.9s-41.9 244.1-41.8 274.9c0 9.5 3.3 160.3 3.3 160.3s-65.1 17.3-145.9 17.5c-80.8.2-146.6-16.8-146.6-16.8s4.5-152.7 4.5-168.4c0-15.7-35.8-262.4-35.8-262.4s-11.2-20.8-23.8-46z" fill="#dece61"/><path class="st13" d="M629.5 821.4s-47.7 178.8-87.9 272c0 33.3 34.2 55 68.2 55 0 0 86.9-201.4 115.6-296.4 13.3-44.3-81.6-67.8-95.9-30.6zm-389.8-2c36.3 94.5 52.8 182.4 93 275.6 0 33.3-45.2 49.1-74.8 56.2-49.9-92-85.4-206.3-114.1-301.3-13.3-44.2 81.6-67.7 95.9-30.5z"/><path d="M149.4 841.6c-3-34.3 29.3-229 37.2-285.6 4-15.4 8.6-29.8 10.1-35.4-2.3 2-4.5 4.2-6.3 6.7-9.6 12.7-12.8 28.9-15.9 44.5-17.3 89.4-13.6 160.4-30.9 249.9-1.2 6.1-1.5 11.6-1 16.7-.4 3.7-.1 7.5 1.1 11.6 28.7 95 64.2 209.3 114.1 301.3 1.8-.4 3.7-.9 5.6-1.4-3.9-10.8-107.5-234.9-114-308.3z" fill="#f8eea6"/></g></g></svg>