<svg version="1.1" id="Student_4" xmlns="http://www.w3.org/2000/svg" xmlns:xlink="http://www.w3.org/1999/xlink" x="0" y="0" viewBox="0 0 137.1 137.1" xml:space="preserve"><style>.st1{fill:#ae3a49}.st1,.st2,.st3,.st4{clip-path:url(#SVGID_2_)}.st2{fill:#8b2943}.st3{fill:#b15743}.st4{fill:#a54840}.st13{clip-path:url(#SVGID_2_)}.st5{fill:#2b0322}.st5,.st6,.st9{clip-path:url(#SVGID_2_)}.st6{fill:#fff}.st9{fill:#a01537}.st13{fill:#ba342a}.st16{clip-path:url(#SVGID_2_);fill:#c95d5d}</style><circle cx="68.5" cy="68.5" r="68.5" fill="#fff"/><defs><circle id="SVGID_1_" cx="68.5" cy="68.5" r="68.5"/></defs><clipPath id="SVGID_2_"><use xlink:href="#SVGID_1_" overflow="visible"/></clipPath><path class="st1" d="M79.9 67.4s10.8 6.3 13 7.4c2.2 1.1 1.5 39.8 1.5 39.8s-2.6 50-2 53c.7 3-2.2 4.4-2.2 4.4l-39.8 2s-3.9-1.4-2.8-4.2c1.1-2.8 2.8-11.9 2.6-15.2-.2-3.3-3.5-50.2-3.7-50.9-.2-.7-.9-21.5-.9-21.5l14.8-11.5 1.3-3.3s8.7 7.6 9 7.6c.5 0 9.2-7.6 9.2-7.6z"/><path class="st2" d="M79.9 67.4S71.1 75 70.8 75c-.3 0-9-7.6-9-7.6l-1.3 3.3-5.5 4.2c2 4.6 5.5 12.5 7.1 14.8 2.3 3.2 3.5 4.1 3.5 4.1l3.2-7.3s1.6.8 2.5.6c.9-.2 2.3-.7 2.3-.7l6.2 4.3s5.5-8.8 6.6-12.7c.5-1.8.7-4.2.8-6.2-3.5-2.2-7.3-4.4-7.3-4.4z"/><path class="st3" d="M88 22.8c-.3-6-5.7-13.5-16.5-12.6h-1.4c-10.8-1-16.1 6.5-16.5 12.6-.3 6 2.4 28.4 4.4 31.6 1.5 2.5 8.2 4.3 11.7 4.9 0 .1 2.2.1 2.2 0 3.5-.6 10.2-2.4 11.7-4.9 2-3.2 4.7-25.6 4.4-31.6z"/><path class="st4" d="M88 22.8c-.3-6-5.7-13.5-16.5-12.6h-1.4c-10.8-1-16.1 6.5-16.5 12.6-.1 2.2.2 6.7.7 11.6 2.1-5.2 5.7-9.8 10.2-13.2 1.6.7 4.6.4 4.5-.4 5-.4 9.8 1.9 13.5 5.3 1.9 1.7 3.5 3.7 5 5.8.4-3.9.6-7.3.5-9.1z"/><path class="st5" d="M62.6 33.7c.4-.1.8.2 1 .5.4.5.8 1.1.9 1.8-.5-.7-1.4-.9-2.3-.8-.8.1-1.6.6-2.3 1.1.7-.8 1.4-1.5 2.2-2.2.3-.3.4-.4.5-.4z"/><path class="st5" d="M61 39.1c.2 1.4 1.6 2.8 2.5.9.2-.5.3-1.1.3-1.6 0-1 0-2.2-1-2.7-1.2-.6-1.5.5-1.7 1.4 0 .7-.2 1.4-.1 2zm2.3-12.7c-1.2.5-2.4 1.2-3.4 2 1.9.2 3.9.2 5.9-.2.2-.3 0-.8-.3-1.1-.3-.4-.7-.8-1.2-.9-.3 0-.7.1-1 .2zm15.2 7.3c-.4-.1-.8.2-1 .5-.4.5-.8 1.1-.9 1.8.5-.7 1.4-.9 2.3-.8.8.1 1.6.6 2.3 1.1-.7-.8-1.4-1.5-2.2-2.2-.2-.3-.3-.4-.5-.4z"/><path class="st5" d="M80.2 39.1c-.2 1.4-1.6 2.8-2.5.9-.2-.5-.3-1.1-.3-1.6 0-1 0-2.2 1-2.7 1.2-.6 1.5.5 1.7 1.4 0 .7.2 1.4.1 2zm-2.3-12.7c1.2.5 2.4 1.2 3.4 2-1.9.2-3.9.2-5.9-.2-.2-.3 0-.8.3-1.1.3-.4.7-.8 1.2-.9.3 0 .6.1 1 .2z"/><path class="st6" d="M62.9 49.5s3.5.5 8 .3c4.4-.2 8-.9 8-.9S77 53 73.7 54.3c-3.3 1.3-6.8-.2-8-1.2-1.2-1-2.8-3.6-2.8-3.6z"/><path d="M66 52c-.2-.1-.3-.2-.3-.5V51l.4.5c.1.2.3.3.4.4.1 0 .1.1.2.1h.1c.1 0 .1.1.2-.1.1-.1.1-.2.3-.3.1-.1.3-.1.4.1-.1 0-.2.1-.2.1v.2c0 .1 0 .3-.2.4-.1.1-.3.2-.5.2s-.3 0-.4-.1c-.2-.1-.2-.2-.3-.3-.2-.2-.2-.4-.2-.7h.3c-.2.2-.3.3-.2.5zm8.7-.6v-.1c0-.1 0-.2.2-.3.1-.1.3-.2.6 0l.2.2s.2 0 .4-.1l.3-.3s.1.2.1.4c0 .1-.1.3-.2.5-.2.1-.4.2-.7.1-.1 0-.1-.1-.2-.1 0-.1-.1-.2-.1-.1 0 0 0-.1-.1-.1-.3-.2-.4-.2-.5-.1z" fill="#a18daa" clip-path="url(#SVGID_2_)"/><path d="M69.3 49s.2-.1.5-.2.6-.2 1-.3h1.1c.3 0 .5.1.5.1s-.2.1-.5.2-.6.2-1 .3h-1.1c-.3 0-.5-.1-.5-.1z" clip-path="url(#SVGID_2_)" fill="#cf4b5c"/><path class="st3" d="M89.1 34.6c-.1-.2-.3-.5-.5-.5-.3 0-.5.2-.7.5-.3.4-.5.7-.7 1.1-.5 4.2-1.1 8.6-1.8 12.2.7-.2 1.4-.6 2-1 .7-.5 1.5-1 2-1.8.3-.4.5-.9.6-1.4.8-3.1.5-6.4-.9-9.1zm-34.6 1.3c-.2-.5-.5-.9-.8-1.4-.2-.2-.4-.5-.7-.5-.3 0-.4.3-.5.5-1.4 2.7-1.7 6-.9 8.9.1.5.3 1 .6 1.4.5.8 1.3 1.3 2 1.8.6.4 1.3.9 2.1 1.1-.7-3.3-1.3-7.6-1.8-11.8z"/><path class="st1" d="M45.7 82.2s-12.3 4.6-13.6 7.6c-1.3 3-1.6 55.5-2.3 59.4-.7 3.9-8.8 18-9.8 22.9-.7 3.6-1.8 21.6-2.3 31 2.8-.8 6.2-1.7 8.6-1.9 1.9-.2 3.6-.4 4.9-.6 2.9-8.8 8.5-26.1 8.7-30.2.3-5.5 1.9-17.3 1.9-17.3l5.2-42.6-1.3-28.3zm17.6-16.5s.8 2.2 2.5 4.4 5 4.9 5 4.9 8.7-8.3 8.6-8.9c-.1-.6-.2-1.5-.2-1.5s2.9-.4 2.7 0c-.2.4-.7 1.6-.7 1.6l5.2 4s-.8 5.3-3.2 9.1-4.5 5.4-4.5 5.4-7.4-8.7-8-8.6c-.7.1-6.4 10.1-6.4 10.1s-3.8-5.7-5.7-9.2c-1.9-3.6-1.6-5.4-1.6-5.4s4-4.5 4.1-5.1c.1-.7.2-1.5.5-1.6.5-.1 1.7.8 1.7.8z"/><path class="st3" d="M63.3 65.7s.8 2.2 2.5 4.4 5 4.9 5 4.9 8.7-8.3 8.6-8.9v-.2c0-.3-.1-.5-.1-.8v-.4c-.2-1.9-.4-4.4-.4-7.1-2.4.9-5.1 1.5-6.9 1.8 0 .1-2.2.1-2.2 0-1.7-.3-4.1-.9-6.4-1.7.1 1.8.2 5.2-.1 8z"/><path class="st9" d="M70.1 83.8l-1.2 2.7c-.4.9-.9 1.7-1.4 2.6v-.2c.1 1.5.1 3 .3 4.4.2 1.5.4 2.9.6 4.4.4 2.9.6 5.9.6 8.9h-.1c-.6-2.9-.9-5.9-1.1-8.8-.1-1.5-.1-3-.2-4.4-.1-1.5-.4-2.9-.6-4.4v-.2c.4-.9.9-1.7 1.4-2.6.5-.8 1.1-1.6 1.7-2.4z"/><path d="M72.2 78.3c-.5-.4-1.2-.5-1.8-.2-.2.1-.4.2-.6.2-.2 0-.3-.1-.4-.2-1.5-1-3-2.2-4.8-2.5-.3 2.9-.1 5.9.6 8.8.1.5.4 1.2.9 1.2.3 0 .6-.2.8-.4.7-.6 1.5-1.2 2.2-1.8.6.3 1.3.6 2 .6s1.5-.4 1.7-1.1c.9.2 1.7.4 2.6.6.8.2 1.8.2 2.2-.5.1-.2.1-.4.1-.6.1-2-.2-4.1-.7-6-.1-.4-.3-.8-.7-.9-.2 0-.5.1-.7.3-1.1.8-2.2 1.7-3.4 2.5z" clip-path="url(#SVGID_2_)" fill="#f9803c"/><path class="st9" d="M70.8 93.6c.7.5 1.8.2 2.3-.5.5-.7.2-1.8-.5-2.3-.1-.1-.3-.1-.4-.2-.8-.1-1.4.8-1.6 1.6-.1.3-.2.6-.1.9-.1.2.1.4.3.5zm1.4 7.5c-.4.1-.7.5-.9.8-.4.6-.8 1.6-.2 2 .3.2.7.2 1.1.1.8-.2 1.4-.9 1.5-1.6 0-.7-.8-1.5-1.5-1.3z"/><path class="st4" d="M78.8 57.5c-2.4.9-5.1 1.5-6.9 1.8 0 .1-2.2.1-2.2 0-1.7-.3-4.1-.9-6.4-1.7.1 1.1.2 2.9.1 4.7 2.2 1.9 4.8 3.4 7.6 4.3.6.2 1.1.4 1.7.3.5-.1 1-.4 1.4-.7 1.7-1.2 3.3-2.4 4.9-3.7 0-1.4-.1-3.2-.2-5z"/><path d="M86.4 40.7c0-.8 0-1.6-.1-2.5-.9 7-2.1 13.8-3.1 15.5-1.4 2.5-7.9 4.3-11.3 4.9 0 .1-2.1.1-2.1 0-3.4-.6-9.9-2.4-11.3-4.9-1.1-1.9-2.5-10.2-3.4-18-.1 1.9-.1 3.8.2 5.7.9 6.1 1.9 11.5 2.8 13 1.5 2.5 8.2 4.3 11.7 4.9 0 .1 2.2.1 2.2 0 3.5-.6 10.2-2.4 11.7-4.9 1-1.6 2.1-7.8 3-14.4-.2.2-.2.5-.3.7z" clip-path="url(#SVGID_2_)" fill="#c5704f"/><path class="st4" d="M69.5 43.8s-.1 0-.1.1c-2.5 1.3 1.4 3.5 2.9 2.3 2.1-1.7-1.3-3.1-2.8-2.4z"/><path d="M68.9 35.6c-.3-.7-.6-1.5-.9-2.2.8 3.8 1 7.7.6 11.6.6-.9 1.1-1.8 1.3-2.8.7-2.2-.2-4.5-1-6.6z" clip-path="url(#SVGID_2_)" fill="#7c0e1e"/><path class="st5" d="M84.4 32.5c-2.4-.8-10.9-.2-11.7 2.3-.3.8-.4 2.1-.3 3.5-.4-.1-.9-.1-1.6-.1-.8.1-1.3.3-1.6.5.1-1.5 0-3-.3-3.9-.8-2.5-9.3-3.1-11.7-2.3-1.6.6-2.8 9.9-.8 11.7 2 1.9 8.8 2.1 10.8.7.9-.6 1.5-2.5 1.8-4.5.3-.1.7-.2 1.2-.2.7-.1 1.6-.1 2.3 0 .3 2.1.9 4.1 1.9 4.8 1.9 1.3 8.7 1.1 10.8-.7 2-1.9.8-11.3-.8-11.8zM66.5 44.1c-1.7 1.1-7.5 1-9.2-.6-1.7-1.6-.7-9.6.6-10.1 2-.7 9.3-.2 10 1.9.7 2.2.3 7.7-1.4 8.8zm17.8-.6c-1.7 1.6-7.6 1.8-9.2.6-1.7-1.1-2.1-6.6-1.4-8.8.7-2.2 8-2.6 10-1.9 1.3.5 2.3 8.5.6 10.1z"/><path class="st6" d="M58.9 38c0-.2.1-.3.3-.4 1.3-.7 3.2-.4 4.2.7-1.3.6-2.9.6-4.2 0-.2-.1-.3-.2-.3-.3zm24.3.2c0-.2-.2-.4-.4-.5-1.7-.9-3.9-.5-5.2.9 1.6.8 3.6.7 5.2-.1.2-.1.3-.2.4-.3z"/><path class="st4" d="M89 37.2c.6 1.7 1.1 3.5.8 5.2-.3 1.8-1.7 3.4-3.5 3.6.7-.6.9-1.6.9-2.6 0-.9-.2-1.9-.2-2.8.1-1.3.9-2.6 2-3.4z"/><path class="st13" d="M52.7 37.2c-.6 1.7-1.1 3.5-.8 5.2.3 1.8 1.7 3.4 3.5 3.6-.7-.6-.9-1.6-.9-2.6 0-.9.2-1.9.2-2.8-.1-1.3-.8-2.6-2-3.4z"/><g clip-path="url(#SVGID_2_)"><path d="M87.5 41.3c-.1 0-.1.1-.2.1.1-.5.3-1 .5-1.5.2-.6.5-1.1.7-1.5.4-.9.8-1.5.8-1.5s-.5.5-1.1 1.3c-.6.8-1.3 1.9-1.6 3.4 0 .4 0 .7.1 1.1.1.4.3.6.4.9.1.2.1.4.1.7-.1.2-.2.5-.3.6-.3.4-.6.7-.7.9-.2.2-.2.4-.2.4l.3-.3c.2-.2.6-.4.9-.8.2-.2.4-.4.5-.7.1-.3.2-.7 0-1-.1-.3-.3-.6-.4-.8-.1-.3-.1-.6 0-.8v-.1c.1 0 .1.1.3.1.3.1.7 0 1-.2.3-.2.5-.5.6-.7.1-.2.1-.4.1-.4s-.6.3-1.1.6c-.3-.1-.5.1-.7.2zm-32.8 3.5c-.1-.2-.3-.4-.3-.6 0-.2-.1-.5.1-.7.2-.3.3-.5.4-.9.1-.4.1-.7.1-1.1-.3-1.4-1-2.5-1.6-3.4-.6-.8-1.1-1.3-1.1-1.3s.3.6.8 1.5c.2.4.5 1 .7 1.5.2.5.4 1 .5 1.5-.1 0-.1-.1-.2-.1-.2-.1-.4-.2-.6-.4-.4-.3-1-.6-1.1-.6 0 0 0 .2.1.4s.3.5.6.7c.3.2.7.3 1 .2.1 0 .2-.1.3-.1v.9c0 .2-.2.6-.4.8-.2.3-.1.8 0 1 .1.3.3.5.5.7.4.4.7.6.9.8l.3.3-.2-.4c-.2 0-.5-.3-.8-.7z" fill="#a54840"/></g><path class="st2" d="M31.2 200.5c2.9-8.8 8.5-26.1 8.7-30.2.3-5.5 1.9-17.3 1.9-17.3l5.2-42.6-1.4-28.2s-1.5.5-3.4 1.4c-.1 21.4-1.4 42.8-4.1 64-.2 1.3-.3 2.6-1 3.7-1.6 2.4-5.2 2.8-6.5 5.4h4.3c.5 7.9-2.4 15.7-6.7 22.3-2.8 4.3-6.2 8.3-9.7 12.1-.3 4.4-.5 8.7-.7 12 2.8-.8 6.2-1.7 8.6-1.9 1.9-.3 3.6-.5 4.8-.7z"/><path class="st16" d="M21.2 172.6c1-4.9 9.1-18.9 9.8-22.9.7-3.9 1-56.4 2.3-59.4 1.1-2.4 12.5-8.1 12.5-8.1s-12.3 4.6-13.6 7.6c-1.3 3-1.6 55.5-2.3 59.4-.7 3.9-8.8 18-9.8 22.9-.7 3.6-1.8 21.6-2.3 31 .4-.2 2.7-27.1 3.4-30.5z"/><path d="M42.7 119.6c-1.1-2.7 30.2-14.9 39.3-17.6 9.1-2.7 12-1.4 12.5 1.3.4 2.7 4.5 28.1 4.5 28.1s6.7 30.3 6.7 32.3c0 2-33.6 17.4-35.5 16.8-1.9-.7-1.9-1.8-1.9-1.8l-4.7-1.1s-2.6 1-2.9-.2c-.3-1.1 0-1.5 0-1.5l-16-55.2-2-1.1z" clip-path="url(#SVGID_2_)" fill="#666543"/><path d="M51.9 120.7c.3-.9 33.7-11.3 37.8-13.6 4.1-2.3 3.3-4.7 0-5.1-3.3-.4-14.2 4-24 7.7S46.2 118 46.2 118c-.5 1.3 17.2 59.5 17.2 59.5l4.7 1.1c.1 0-16.6-57-16.2-57.9z" clip-path="url(#SVGID_2_)" fill="#edbb91"/><path d="M56.7 155c-.3.1-.5.2-.8.4.1 1.7.2 3.5.2 5.2l4 13.9c.8-.2 1.5-.3 2.3-.5-1.2-4.1-3.4-11.2-5.7-19zM99 131.4s-4-25.3-4.5-28.1c0 1.2-.2 2.4-.5 3.4-2.2 8.3-7.1 15.7-12 22.8-5.9 8.8-12.4 18-21.3 23.4 2.3 7.9 4.4 15.4 5.8 20.2 9.1-1.8 18.3-3.1 27.5-2.7 6.4-3.1 11.6-6 11.6-6.8.1-1.9-6.6-32.2-6.6-32.2z" fill="#4b4d3f" clip-path="url(#SVGID_2_)"/><path class="st1" d="M108.1 82.2c-.4-4.1-15.2-7.4-15.2-7.4l1.6 28.5 4.5 28.1-2.5 1.1s-1.4 2.1-2 3.4c-.4.8-8.6 7.5-14.6 12.3 1.8 1 3.8 2.2 4.4 2.8.8.8 2.2 6.2 3 10 11.2-5.2 31.1-14.7 31.9-15.9 1.1-1.8-10.6-58.8-11.1-62.9z"/><path d="M77.1 146.7s-.7 2.6-1.5 3.1-5.6 2.8-5.6 2.8-3.3-1.8-3.6-1c-.3.8 6.3 15.8 7.2 16.5.9.7 3.4-1 3.4-1s8-3.7 8.8-3.6c.8.2 2 2.2 2 .9 0-1.4-2.4-12.3-3.6-13.4-1-1.2-7.1-4.3-7.1-4.3z" clip-path="url(#SVGID_2_)" fill="#c72235"/><path class="st2" d="M108.2 131.3c-3.3-1.2-4-5.5-4.1-9-.4-12.2-.9-24.4 1.3-36.4.3-1.8.8-3.7 1.6-5.5-3.5-3.2-14.1-5.6-14.1-5.6l1.6 28.5 4.5 28.1-2.5 1.1s-1.4 2.1-2 3.4c-.4.8-8.6 7.5-14.6 12.3 1.8 1 3.8 2.2 4.4 2.8.8.8 2.2 6.2 3 10 11.2-5.2 31.1-14.7 31.9-15.9.2-.3 0-2.4-.5-5.7-8.8 6.4-19.2 10.7-30 12.2 4.3-8.6 11.2-15.7 19.5-20.3z"/><path class="st9" d="M87.9 164.4c0-1.4-2.4-12.3-3.6-13.4-.3-.3-.9-.7-1.6-1.2 1.6 3.3 2.3 7.2 2.9 10.9-1.6.2-3.3.6-4.8 1.3-4.4-3.9-9-7.4-13.9-10.5-.1 0-.2.1-.3.2-.3.8 6.3 15.8 7.2 16.5.9.7 3.4-1 3.4-1s8-3.7 8.8-3.6c.8.1 1.9 2.1 1.9.8z"/><path d="M69.3 155.5s-8.2-3.3-9.6-3.6c-1.5-.3-7.2-1.5-7.3 0-.2 1.5 0 3.6 0 3.6s-5.3 4.6-5.2 5.4c.1.8 3.1 6.2 4.2 7.3 1.1 1.2 3.3 3.3 4.7 3.3 1.5 0 16.7-4.4 17.7-5.1.9-.6-4.5-10.9-4.5-10.9z" clip-path="url(#SVGID_2_)" fill="#c8472d"/><path class="st13" d="M63.2 153.1c.9 1.9.9 4.2 0 6-1.2 2.2-3.4 3.5-5.6 4.5-2.5 1.1-5.2 1.7-7.9 1.9.7 1.2 1.4 2.2 1.8 2.6 1.1 1.2 3.3 3.3 4.7 3.3 1.5 0 16.7-4.4 17.7-5.1.9-.7-4.5-10.9-4.5-10.9s-3.4-1.2-6.2-2.3z"/><path d="M48.1 161.8c-.1-.8 5.2-5.4 5.2-5.4s-.2-2.1 0-3.6 5.9-.3 7.3 0c1.2.3 7.3 2.7 9.1 3.4-.2-.5-.4-.8-.4-.8s-8.2-3.3-9.6-3.6c-1.5-.3-7.2-1.5-7.3 0-.2 1.5 0 3.6 0 3.6s-5.3 4.6-5.2 5.4c.1.8 3.1 6.2 4.2 7.3l.6.6c-1.3-1.5-3.8-6.1-3.9-6.9z" clip-path="url(#SVGID_2_)" fill="#db6537"/><path class="st16" d="M108.1 82.2c-.4-4.1-15.2-7.4-15.2-7.4v.4c3.8 1 13.3 3.8 13.6 7 .4 4.1 12.2 61.1 11.1 62.8-.7 1.2-30.4 15.7-30.3 15.9 11.2-5.2 31.1-14.7 31.9-15.9 1.1-1.7-10.6-58.7-11.1-62.8z"/><path d="M92.4 104.2c-.1.9-1 1.9-2.7 2.9-4.1 2.3-37.5 12.7-37.8 13.6-.2.5 4.1 15.6 8.3 30.3-1.5-6.6-6.4-28.2-6.4-29.5 0-1.5 21.1-7.2 31.1-11.1 10-3.9 7.5-6.2 7.5-6.2z" clip-path="url(#SVGID_2_)" fill="#8c8360"/><path class="st16" d="M58.9 72s3.5-3.8 2.9-4.6c-.5-.8-.3-2.6 1.5-1.7 0 0-1.2-.9-1.5-.8-.3.1-.4 1-.5 1.6-.1.7-4.1 5.1-4.1 5.1s-.3 1.9 1.6 5.4c1.9 3.6 5.7 9.2 5.7 9.2s-3.9-8.4-5-11c-1.1-2.4-.6-3.2-.6-3.2zm21.5-6.5c-.2.3-.5 1.9-.5 1.9l5.5 3.2s-1 8.8-6.5 14.2c0 0 2.1-1.6 4.5-5.4 2.4-3.8 3.2-9.1 3.2-9.1l-5.2-4s.4-1.2.7-1.6c.2-.4-2.7 0-2.7 0s1.2.4 1 .8z"/><path d="M77.4 78.1c-.2.4-.4.7-.7 1.1-.6.7-1.2 1.4-2.1 1.7-.9.3-2 .1-2.5-.6.3 1-.6 2.3-1.7 2.2-1.1 0-1.9-1.3-1.6-2.3-.4.8-.9 1.6-1.8 1.9-.8.3-1.7-.1-2.4-.7.1 1 .3 2 .5 2.9.1.5.4 1.2.9 1.2.3 0 .6-.2.8-.4.7-.6 1.5-1.2 2.2-1.8.6.3 1.3.6 2 .6s1.5-.4 1.7-1.1c.9.2 1.7.4 2.6.6.8.2 1.8.2 2.2-.5.1-.2.1-.4.1-.6.1-1.3 0-2.8-.2-4.2z" clip-path="url(#SVGID_2_)" fill="#e26933"/><path d="M62.3 13.8c.6.1 1 .5 1.3 1.1.4.3.8-.2 1.1-.6 1.8-2.1 1.4 1.9 1.6 2.2.7.8 1.4 1.7 2.4 1.8 1 .2 2.2-.9 1.7-1.8 1.3-.2 2.7-.4 4-.7.6 1 1.7 1.7 2.9 1.7v1.8c1.1.2 2.3.3 3.4.3 1.7.3 2.8 2.3 2.3 3.9.9-.4 2 .2 2.5 1.1.5.8.6 1.9.6 2.9.1 3 .3 6.1.4 9.1 1.3-3.3 2.7-6.7 4-10 .3-.8.7-1.7.8-2.6.2-1.9-.7-3.8-.2-5.6.3-1.3 1.2-3 0-3.7-.5-.3-1.1-.2-1.7-.2-1-.1-1.8-.8-2.5-1.5-2.4-2.1-4.7-4.2-7.1-6.3-2.6.8-5.8 1.4-7.7-.5-.4-.4-.8-1-1.3-1.2-.5-.2-1-.1-1.4 0-3.1.5-6.1 1.1-9.2 1.6-1 .1-2.2.4-3 1.1s-1.2 2.1-.4 2.9c-2.3.2-3.9 3.2-2.9 5.3-1.1.8-2.2 1.5-3.3 2.3.9.6.1 2 .1 3.1 0 1 .7 1.8 1.1 2.7.4.9.1 2.3-.9 2.3 1.2.4 1.4 1.9 1.5 3.2.3 2.5 1.2 4.9 2.7 6.9l.3-8.7c.1-1.4.4-3.2 1.8-3.4-.1-.4-.2-.7-.2-1.1 1.7.4 3-2.4 1.7-3.5.8-.3 1.5-.6 2.3-.9 0-.5.1-1 .1-1.4-.8.7-2.3-.3-2-1.4.4-1.2 2-1.1 2.8-.6-.1-.4.2-1.1.1-1.5.1-.1.2-.1.3-.1z" clip-path="url(#SVGID_2_)" fill="#260e1f"/></svg>