<svg version="1.1" id="Student_4" xmlns="http://www.w3.org/2000/svg" xmlns:xlink="http://www.w3.org/1999/xlink" x="0" y="0" viewBox="0 0 137.1 137.1" xml:space="preserve"><style>.st0{fill:#fff}.st2{fill:#f19f7d}.st3{fill:#e77d6f}.st4{fill:#f9803c}.st5{fill:#e26933}.st6{fill:#fdc35f}.st7{fill:#cf4b5c}.st8{fill:#2b0322}.st10{fill:#2d5760}.st16{fill:#ffb55c}.st17{fill:#f6bf90}</style><circle class="st0" cx="68.5" cy="68.5" r="68.5"/><defs><circle id="SVGID_1_" cx="68.5" cy="68.5" r="68.5"/></defs><clipPath id="SVGID_2_"><use xlink:href="#SVGID_1_" overflow="visible"/></clipPath><g clip-path="url(#SVGID_2_)"><path class="st2" d="M57.1 18c-2.4 5.7-3 13.4-1.6 21.4 1.4 8 4.6 14.8 8.9 18.3 4.4 3.5 8.7 3.3 10.4 2.6 1.8-.7 6.5-5.3 9.1-10.6 2.7-5.4 5.6-14.2 6.2-19.7.6-5.5-3.6-19.1-12.8-21.6-9.2-2.5-17.9 4.1-20.2 9.6z"/><path class="st3" d="M90.2 28.4c-.2-6.1-4.4-17.7-12.9-20-9.2-2.5-18 4.2-20.3 9.6-2.4 5.7-3 13.4-1.6 21.4 1.1 6.5 3.5 12.2 6.7 16-.2-3.8.1-7.5.6-11.2.7-4.6 2.2-9.3 5.7-12.4 2.2-1.9 5-2.9 7.8-3.6 4.7-1 9.6-1.1 14 .2z"/><path class="st4" d="M84.3 74.4s-7.9 9.8-8.2 11-1.6 24.2-1.3 32.2c.3 8.1 1.2 18.9 2.7 27.6 1.5 8.7 4.6 15.5 4.6 15.5s2.8-.7 5.7-2.4c2.8-1.6 4.8-3.6 4.8-3.6s-3.9-16-4.6-22.2c-.7-6.3-1-12.2-.8-15.7.2-3.4 5.4-16.9 5.4-16.9l4.6 3.3 4.3 19.4 8.2 5.1v-17.2s-6-30.1-7.5-31.6-15.1-7.5-15.1-7.5l-2.8 3z"/><path class="st5" d="M109.7 110.7s-.4-1.8-.9-4.5c-1.1.7-2.3 1.3-3.6 1.3-2.9.1-5.3-2.1-7.1-4.3-3.9-4.8-6.6-10.6-7.8-16.7-.4-1.9-.6-4 .2-5.9-3.7 6.7-7.5 13.9-6.8 21.4.3 2.7 1.1 5.4 1.6 8 .5 2.9.7 5.9.8 8.9.4 8.6.7 17.5-2 25.7-.5 1.4-1.1 2.8-2.4 3.6-1.1.6-2.2.5-3.4.1 1.6 7.1 4 12.4 4 12.4s2.8-.7 5.7-2.4c2.8-1.6 4.8-3.6 4.8-3.6s-3.9-16-4.6-22.2c-.7-6.3-1-12.2-.8-15.7.2-3.4 5.4-16.9 5.4-16.9l4.6 3.3 4.3 19.4 8.2 5.1v-17z"/><path class="st6" d="M107.7 126.6l-6.2-3.8-4.3-19.4-4.6-3.3s-5.2 13.4-5.4 16.9c-.2 3.4 0 9.4.8 15.7.7 6.3 4.6 22.2 4.6 22.2s-.6.6-1.6 1.4l1.3 6.8 1.4 3.7c5.7-3.2 13.4-8.9 16-19.2.5-2-.5-10.6-2-21z"/><path class="st7" d="M64.8 51.1s1.7.8 4.7.7c3-.1 5.5-.9 6.3-1.2.8-.3 3.4-2.2 3.4-2.2s-1.8.7-3.7.7c-1.9 0-5.4.4-6.9.7-1.4.4-3 1.4-3.8 1.3z"/><path class="st7" d="M64.8 51.1s2.9 3.8 4.5 4.6c1.6.8 4.7-.4 5.7-1.4.9-.9 4.4-5.9 4.4-5.9s-3.9 4.4-5 4.9-4.5 1.2-5.3.9c-1.1-.3-4.3-3.1-4.3-3.1z"/><path class="st0" d="M74.4 53.3c.6-.3 2.2-1.8 3.4-3.1.7-.9 1.2-1.5 1.2-1.5l-.3.1c-.8.6-2.3 1.6-2.9 1.8-.8.3-3.3 1.1-6.3 1.2-3 .1-4.7-.7-4.7-.7s3.2 2.8 4.3 3.1c.8.3 4.2-.3 5.3-.9z"/><path class="st8" d="M79.5 29.4c.3.1.6.3.9.4-1.2-.2-2.4-.1-3.5.2-1.1.2-2.2.8-3.2 1.2 0 0 .2-1.1.3-1.2.2-.4.4-.6.8-.8.8-.4 1.7-.5 2.7-.4.5 0 1.3.3 2 .6zm-20.8 2.1c-.3.2-.5.3-.8.5 1.1-.3 2.4-.4 3.5-.3 1.1.1 2.3.5 3.4.7 0 0-.4-1.1-.4-1.2-.2-.4-.5-.5-.9-.6-.9-.3-1.8-.3-2.7-.1-.7.3-1.4.6-2.1 1zM84 36.7c.2 0 .4-.1.5-.1.7-.2 1.3-.6 1.8-1-.3.8-.9 2-1.7 2.6-.6.5-1.5.1-2.1-.2-1-.5-2.1-.7-3.2-.4-1 .3-1.9 1.2-2.2 2.2.1-1.9 1.7-3.6 3.6-3.7.8 0 1.6.2 2.4.5.4.1.6.1.9.1z"/><path class="st8" d="M80.4 36.5c-.2-.1-.5 0-.7.1-.4.2-.6.6-.6 1.1-.2 1 0 2.2.5 3.1.1.2.3.4.5.6.2.1.5.1.7 0 .1-.1.2-.2.2-.3.4-.8.6-1.7.5-2.6 0-.6-.3-1.8-1.1-2z"/><path class="st7" d="M76.8 38s.1-.4.4-.8c.3-.5.8-1 1.5-1.4.7-.3 1.4-.4 2-.4.5.1.9.2.9.2s-.4-.1-.9 0c-.5 0-1.2.1-1.8.5-.6.3-1.1.8-1.5 1.2-.4.4-.6.7-.6.7z"/><path class="st8" d="M59.5 40.2c.5.1 1-.1 1.4-.5.3-.3.6-.7.9-1 .7-.6 1.6-.3 2.3.1.6.3 1.2.8 1.7 1.3-.5-1.2-1.4-2.1-2.5-2.7-.7-.3-1.5-.5-2.2-.1-.5.3-.7.8-1.2 1.1-.6.5-1.6.5-2.2 0 .5.4.7 1.2 1.3 1.5.2.2.4.2.5.3z"/><path class="st8" d="M62.6 37.7c-.1.1-.1.1-.1.2-.2 1.3.3 2.7 1 3.8.1.2.3.4.6.5 1.2.4 1-2.5.8-3-.3-.8-1-1.4-1.8-1.6-.2 0-.4-.1-.5.1z"/><path class="st7" d="M60.1 37.4l.2-.2c.1-.1.2-.3.5-.5.2-.2.5-.4.9-.4.4-.1.7-.1 1.1 0 .8.2 1.3.7 1.7 1.1.4.4.6.7.6.7s-.3-.2-.7-.5c-.4-.3-1-.7-1.7-.9-.7-.2-1.4-.1-1.8.2-.2.2-.4.3-.5.4-.2.1-.3.1-.3.1z"/><path class="st8" d="M49.7 16.1c-1.5 1.9.8 10.3.9 10.9.1.6-1.5 2.2-1.5 2.2l1.5.7s3.2-3.1 7.9-5 15-3.4 20.5-2.5c5.5.9 11.8 6.2 11.8 6.2s.8-.6.8-1.5.5-3.7.8-4.8c.3-1.1.6-1.8.5-2.5-.1-.6-10.3-12.2-16.1-13.5C71 5 53.9 10.8 49.7 16.1z"/><path d="M52.5 28.2c-.1-.6-2.4-9-.9-10.9 4.2-5.4 21.3-11.1 27.1-9.8.8.2 1.6.5 2.6 1-1.6-1.1-3.1-1.9-4.4-2.2-5.9-1.3-23 4.5-27.2 9.8-1.5 1.9.8 10.3.9 10.9.1.6-1.5 2.2-1.5 2.2l1.5.7s.7-.6 1.8-1.5c.1-.1.1-.1.1-.2z" fill="#541035"/><path class="st10" d="M81.4 23.1c.3 1.9.7 4.2 1.2 5.5 1 2.5 3.8 5.6 3.8 5.6s-.4 1.6 0 2.3c.4.8.7 1.1.7 1.1l.2 3.9s3-8.9 3.4-12.9c0 .1-4.6-3.8-9.3-5.5z"/><path d="M64 23.4c-2.2.4-4.1 1-5.6 1.6-3.6 1.5-6.4 3.6-7.4 4.5-.2.7-.4 1.5-.8 2.2-1.4 3.1-3.6 11.6-3.6 11.6l2.8-2.9s-1 5.2 1.3 8.2c2.3 3 10.5 9.7 10.5 9.7s-2.8-5.8-2.8-8.9c0-3.2 2.5-8.5 4.2-15.2 1-3.8 1.4-7.9 1.4-10.8z" fill="#417b7c"/><path d="M38.7 87.1c-4.3.5-9.4 1.7-10.9 3.6-1.5 1.9 1 4.2 1 4.2s4.9 22.8 5.5 25.2c.6 2.4 1.2 20.6 1.2 20.6s-.9.6-.4 1.6c.4 1 2.8 2.7 15.1 6.3s19.2 3.9 19.4 3c.1-.9-1.3-.9-1.3-.9s1.3-1.9 2.7-2.8c1.3-.9 2.5-.6 2.5-.6s2-.6 1.3-1.2l-.7-.6s-.6-30.4-.6-35.1c0-4.6.3-17.3.3-17.3s1.9-1.2 1-1.9c-.9-.8-15.4-1.2-19.8-1.8-4.5-.6-13.5-2.7-16.3-2.3z" fill="#c72235"/><path class="st5" d="M34.4 120.1c-.2-1-1.2-5.4-2.3-10.2L30 114s-7.6 5.1-8.1 6c-.4.9-1.5 12.2 0 13.4 1.5 1.2 13.3 1.2 13.3 1.2l-.2-4.3c-.1-4.6-.3-9.1-.6-10.2z"/><path class="st4" d="M60.3 89.8c.9-2 2.3-4.4 2.9-4.4 1 .1 2.4 4.4 2.5 4.7-.1-.4-1.1-4.6-1.4-5-.3-.5-.9-.8-1.5-2.2-.6-1.4-1.6-8-1.1-9.2.5-1.3 2.2-1.3 2.2-1.3l1.4-.8s-2.2-1.3-3.5-1.1c-1.3.2-6.1 5.7-5.9 8.8.1 2.1 1.6 7.3 2.6 10.4.6 0 1.2.1 1.8.1z"/><path class="st2" d="M82.2 68.2c-.6-.5-1.1-.8-1.2-1-.4-.5-1.1-7.3-1.5-10.9-1.9 2.1-3.6 3.6-4.6 4-1 .4-2.8.6-4.9.2.4 3.1.8 7.3.6 7.7-.1.3-3.4 2.3-6.6 4.3h-.1c-.7.4-1.5.9-2.2 1.3-.5 1.3.5 7.8 1.1 9.2.6 1.4 1.2 1.7 1.5 2.2.2.3.7 2.4 1.1 3.8 2.7.5 6.4.7 10.4-.7 0-.1-1.1-3.8 0-4 1.1-.2 8.2-11 8.5-12.7.3-1.4-1.6-2.9-2.1-3.4z"/><path class="st4" d="M65.7 90.2c-.1-.4-1.5-4.6-2.5-4.7-.6-.1-2 2.4-2.9 4.4 1.7 0 3.6.1 5.4.3zM55 89.4c.9.1 2.1.2 3.6.3-.9-3.1-2.4-8.3-2.6-10.4-.1-1.4.8-3.3 2-4.9-1.9.6-5.7 1.8-6.4 2.7-1 1.2-7.7 10.1-7.7 10.1l-.2.4c3.8.4 8.4 1.4 11.3 1.8z"/><path class="st8" d="M73.5 147.2s-1.2-.3-2.5.6c-1.3.9-2.7 2.8-2.7 2.8 4.4 0 7.8-.3 10.2-.7-.4-1.5-.7-3.1-1-4.7-1.5-8.7-2.4-19.5-2.7-27.6-.2-6.5.6-22.8 1.1-29.4-4.1 1.4-7.8 1.2-10.6.7.2.6.4 1.1.4 1.2 4.5.3 8.6.6 9 1 .9.7-1 1.9-1 1.9s-.3 12.7-.3 17.3c0 4.6.6 35.1.6 35.1l.7.6c.8.6-1.2 1.2-1.2 1.2z"/><path class="st4" d="M35.3 134.3c-1.9-.7-6.4-2.5-8-4.9-2.1-3.1.8-8.8 2.4-10.6 1.1-1.2 2.7-1.9 3.8-2.2-.2-.8-.4-1.6-.6-2.5-2.8 1.8-8.3 5.3-8.6 5.5-.4.3 0 5.8 0 5.8s-2.2 14.8-.2 14.9c1.6.1 8.8-3.8 11.2-5.2.1-.3 0-.6 0-.8z"/><path d="M71.9 92.2s-28.8-4-32.1-4.4c-3.4-.4-10.5 2.5-10.4 3.8.1 1.3 35.8 4 36.4 5.4.6 1.3 2.5 53.7 2.5 53.7s1.3-1.9 2.7-2.8c1-.7 1.9-.7 2.3-.6-.1-.1-.2-.4-.2-1.2-.2-1.7-1.2-53.9-1.2-53.9z" fill="#edbb91"/><path class="st8" d="M66.3 71s0 .4.1 1.1c.1.7.2 1.8.7 2.9.2.6.5 1.2.9 1.8.4.6 1 1.1 1.7 1.4.7.4 1.5.6 2.3.7.4.1.8 0 1.2 0l1.2-.3c.4-.2.8-.3 1.1-.5.4-.2.7-.4 1.1-.6.7-.5 1.3-1 1.9-1.5.6-.5 1.1-1.1 1.6-1.6s.9-1.1 1.3-1.6c1.5-2 2.3-3.5 2.3-3.5s-.2.4-.6 1c-.4.6-.9 1.5-1.6 2.6-.4.5-.8 1-1.3 1.6-.5.6-1 1.1-1.6 1.7-.6.5-1.2 1.1-1.9 1.5-.3.2-.7.4-1.1.6-.4.2-.8.3-1.2.5-.4.1-.8.2-1.3.3h-1.3c-.8-.1-1.7-.3-2.3-.7-.7-.4-1.3-1-1.7-1.5-.4-.6-.7-1.2-.9-1.8-.4-1.2-.5-2.3-.6-3-.1-.7 0-1.1 0-1.1z"/><path class="st8" d="M73.4 79c-.4-.7-1.5-.7-2.2-.2-.6.5-.9 1.4-.9 2.2 0 .4.1.9.4 1.2.5.5 1.4.4 2 0 .5-.5.8-1.2.9-1.9.1-.5 0-1-.2-1.3z"/><path class="st6" d="M82 68.1s1.7-2 2.2-1.3c.4.7 1.5 1.9 2.9 3.1 1.4 1.2 3.1 1.6 3.1 1.6l-.5 1.2C92.5 74 97 76 99.8 77.5c-2.2-6-5.4-8.2-9.6-10.9-3.2-2.1-6.8-1.8-9.6-.9.1.8.3 1.4.3 1.5.2.2.6.5 1.1.9z"/><path class="st6" d="M89.7 72.8s1.4-1.6 2.5 0l1.1 1.6s-5 8.4-6.2 13.9c-1.2 5.5 3.3 46.4 6.2 51.9 2.9 5.6 6.9 12.1 6.9 12.1s-1.6 2.8-2.6 3c-1 .2-7.3-10.4-7.9-13.3-.6-2.9-7.8-47.1-6.2-54.3 1.5-7.1 6.2-14.9 6.2-14.9z"/><path class="st4" d="M82 68.1s1.7-2 2.2-1.3c.4.7 1.5 1.9 2.9 3.1 1.4 1.2 3.1 1.6 3.1 1.6L84 86.1s-3.1-1.6-5.1-1.8c-2-.2-3.1 4-3.1 4s-1.1-3.8 0-4c1.1-.2 8.2-11 8.5-12.7.3-1.6-2.3-3.5-2.3-3.5z"/><path d="M66.6 111.1c-5 3.2-11.3 4.5-17.3 3.9-6.2-.6-12.1-3-17.5-6.2 1.1 5.3 2.2 10.3 2.5 11.3.6 2.4 1.2 20.6 1.2 20.6s-.9.6-.4 1.6c.2.5 1 1.2 3.3 2.3 9.6-2.6 19.6-3.7 29.5-3.4-.3-8.4-.8-20.6-1.3-30.1z" fill="#a01537"/><path d="M68.2 150.7S66.3 98.3 65.7 97c-.5-1.3-34-3.9-36.3-5.2.5.4 2.7 1.5 13.2 2.7 13 1.5 20.7 2.4 21.5 3.1.7.7 1.9 52.5 3 52.8.5.2 1 .9 1.1 1.6.8 0 1.2-.2 1.3-.4.2-1-1.3-.9-1.3-.9z" fill="#e54545"/><path class="st5" d="M55 89.4c.9.1 2.1.2 3.6.3-.7-2.5-1.9-6.4-2.3-8.9-1.1 2.2-2.8 4.1-4.6 5.7-.8.7-1.5 1.3-2.3 1.9 2 .4 4.1.8 5.6 1z"/><path class="st16" d="M102.2 79.1c-.8-.8-5.1-2.9-8.9-4.7 0 0-.1.1-.2.3 3.7 1.9 7.8 4.2 8.6 5 1.5 1.5 7.5 31.6 7.5 31.6l.5 16.5v-17.2c0 .1-6-30-7.5-31.5z"/><path class="st4" d="M98.5 134.8s-3.7-6-4.9-9.4c-1.2-3.4 1.3-11.8 6.2-14.3s18.7 8.1 18.7 8.1-2.6 13.6-5.6 16.7c-3 3.1-14.4-1.1-14.4-1.1z"/><path class="st16" d="M100.1 111c5.8.1 16.8 8.5 16.8 8.5s-2.6 13.6-5.6 16.7c-.4.4-.9.7-1.5.8 1.3-.1 2.5-.4 3.2-1.1 3-3.1 5.6-16.7 5.6-16.7s-13.4-10.2-18.5-8.2z"/><path class="st2" d="M86.6 91.1s-.9-2.7-1.8-2.8c-.9-.1-3.9.7-4.6.5-.7-.2-1-1.5 0-1.8 1-.3 4.9-1.9 6.4-.4s1.9 2.5 3.2 3.5c1.3 1 7.7 7.1 8.3 8.4.6 1.3 7.7 18.6 9.6 21.4s6 9.7 6.5 11.3c.5 1.6-5 8.8-6.7 8.9-1.7.1-9.4-4.3-10.3-7.6-.8-3.3-2.5-27.7-3-28.9-.5-1.2-6.2-5.3-6.9-5.3-.7 0-2.1 1.1-3 1.1s-3.5-1.2-4.1-2.2c-.6-1 1.1-4.3 2-4.9 1-.4 4.4-1.2 4.4-1.2z"/><path class="st7" d="M81 98.1l.5-1c.2-.3.4-.6.6-1 .2-.3.5-.7.7-1.1l.4-.5c.2-.2.3-.2.6-.4.4-.2.7-.3 1.1-.4.7-.1 1.1-.1 1.1-.1s-.4 0-1 .2c-.3.1-.6.2-1 .4-.1.1-.4.3-.5.3l-.5.8c-.2.4-.5.7-.7 1-.2.3-.5.6-.6.9-.4.5-.7.9-.7.9zm1.8.9s.2-.3.4-.8c.3-.4.7-1 1.2-1.5.6-.4 1.3-.7 1.8-.7.5-.1.9 0 .9 0s-.3.1-.8.2-1.1.4-1.6.8-1 .9-1.3 1.3c-.4.4-.6.7-.6.7z"/><path class="st3" d="M108.2 134.9c-.5-.1-.9-.6-1.3-1-7.1-8.1-9-19.4-10.6-30.1-.1-.8-.1-1.9.7-2.3-3.6-.1-7-2.4-8.4-5.8-1.8 2.1-4.9 2.9-7.5 2.3 1 .8 2.7 1.5 3.4 1.5.8 0 2.3-1.1 3-1.1.7 0 6.4 4.1 6.9 5.3.5 1.2 2.2 25.7 3 28.9.8 3.3 8.6 7.7 10.3 7.6 1.7-.1 7.2-7.4 6.7-8.9-.1-.3-.3-.8-.7-1.5-.8 1.3-1.7 2.5-2.7 3.7-.8.8-1.8 1.6-2.8 1.4z"/><path class="st17" d="M114.2 131.3c-.5-1.6-4.5-8.6-6.5-11.3-2-2.8-9-20.1-9.6-21.4-.6-1.3-7-7.4-8.3-8.4-1.3-1-1.7-2.1-3.2-3.5s-5.4.1-6.4.4c0 0-.1 0-.1.1 1.5-.5 4.4-1.4 5.7-.2 1.5 1.5 1.9 2.5 3.2 3.5 1.3 1 7.7 7.1 8.3 8.4.6 1.3 7.7 18.6 9.6 21.4 2 2.8 6 9.7 6.5 11.3.4 1.4-3.8 7.3-6 8.7h.1c1.7-.2 7.2-7.4 6.7-9z"/><path class="st16" d="M75.7 117.9c-.3-8.1 1-31 1.3-32.2 0-.1.1-.2.1-.3-.8 1.2-1.3 2.9-1.3 2.9-.5 6.6-1.3 22.9-1.1 29.4.3 8.1 1.2 18.9 2.7 27.6 1.5 8.7 4.6 15.5 4.6 15.5s.3-.1.7-.2c-.7-1.6-3.2-7.7-4.4-15.1-1.4-8.7-2.3-19.6-2.6-27.6z"/><path class="st2" d="M75.7 119.5c0-.7-2.1-.9-2.1-.9s0-1.6-.6-1.7c-.5-.1-5.6.6-6.4 1s-1.1 3-1.3 3.4c-.2.4-4.5 3-5.3 3.5-.8.5-7.3-1-10.8-2.1-3.6-1.1-11.7-4.9-13-5.8-1.3-.9-2.6-.5-2.6-.5-1.1.4-2.7 1.1-3.8 2.2-1.6 1.8-4.5 7.5-2.4 10.6 1.6 2.5 6.1 4.3 8 4.9 3.3.7 28.4-1.3 29.5-1.2 1.1.1 10.1-2.2 10.7-3.2.5-.8.1-9.5.1-10.2z"/><path class="st3" d="M75.8 124.2c-1 .8-2.1 1.4-3.2 1.9-3 1.3-6.5 2.4-9.3.8-1.1-.6-2-1.5-2.5-2.6-.3.2-.6.4-.8.5-.8.5-7.3-1-10.8-2.1-3.6-1.1-11.7-4.9-13-5.8-1.3-.9-2.6-.5-2.6-.5-.7.2-1.6.6-2.4 1.2 5.6 4.5 10.2 10.2 13.4 16.6 8.5-.4 19.6-1.2 20.4-1.2 1.1.1 10.1-2.2 10.7-3.2.2-.4.2-3.1.1-5.6z"/><path class="st17" d="M66 132.7c-1.1-.1-26.2 1.9-29.5 1.2-1.9-.7-6.4-2.5-8-4.9-2.1-3.1.8-8.8 2.4-10.6.9-1 2.2-1.6 3.2-2-.4 0-.6.1-.6.1-1.1.4-2.7 1.1-3.8 2.2-1.6 1.8-4.5 7.5-2.4 10.6 1.6 2.5 6.1 4.3 8 4.9 3.3.7 28.4-1.3 29.5-1.2.5 0 3.1-.5 5.5-1.2-2 .6-3.8 1-4.3.9z"/><path d="M57.1 132.9c-.7-2.4-.6-5.1.3-7.4.2-.5.5-1.1 1-1.4.5-.3 1.4-.2 1.7.3-.3.1-.4.4-.5.7-.8 3.1-.7 6.4.1 9.5-.5.3-1.3.2-1.8-.2-.4-.4-.6-.9-.8-1.5z" fill="#fff200"/><path d="M57.1 132.9c-.7-2.4-.6-5.1.3-7.4.1-.2.1-.3.2-.5v-.1c.1-.3.2-.6.5-.7-.3-.5-1.1-.6-1.7-.3-.5.3-.8.9-1 1.4-.9 2.5-1 5.2-.3 7.8.2.6.4 1.1.8 1.5.5.4 1.2.5 1.8.2-.1-.3-.1-.6-.2-.8-.1-.3-.3-.7-.4-1.1z" fill="#ec008c"/><path d="M55.2 133.1c-.7-2.6-.6-5.3.3-7.8.1-.3.3-.7.5-1 .1-.2.2-.5.4-.6-.3-.6-1.1-.6-1.7-.3-.5.3-.8.9-1 1.5-.9 2.7-1 5.6-.3 8.4.2.6.4 1.2.8 1.6.5.4 1.2.6 1.8.2-.1-.2-.1-.5-.1-.7-.4-.3-.6-.8-.7-1.3z" fill="#00aeef"/><path class="st3" d="M80.2 62.8c-.3-2.2-.5-4.7-.7-6.5-1.9 2.1-3.6 3.6-4.6 4-1 .4-2.8.6-4.9.2.2 2.1.5 4.7.6 6.3.7.2 1.3.2 2 .1 2.3-.2 4.4-1.1 6.2-2.5.5-.6 1-1.1 1.4-1.6z"/><path class="st5" d="M84 86.1l6.2-14.5s-.9-.2-2-.8c-1 5.5-5.4 10.4-10.8 11.8-.8 1-1.4 1.6-1.6 1.7-1.1.2 0 4 0 4s1.1-4.2 3.1-4c2.1.2 5.1 1.8 5.1 1.8zm-20.8-.7c1 .1 2.4 4.4 2.5 4.7-.1-.4-1.1-4.6-1.4-5-.3-.5-.9-.8-1.5-2.2-.6-1.4-1.6-8-1.1-9.2.5-1.3 2.2-1.3 2.2-1.3l.8-.5c-.5-.2-1-.4-1.6-.3-1.8.1-3 2.1-3.2 3.9-.2 1.8.2 3.7-.1 5.5-.2 1.8-1.1 3.5-2.5 4.7.4 1.4.8 2.8 1.1 4 .6 0 1.2.1 1.8.1 1.1-1.9 2.4-4.4 3-4.4z"/><path class="st17" d="M87.3 40.9c-1 2.9-2.1 5.7-3.2 7.9-2.7 5.4-7.4 9.9-9.1 10.6-1.8.7-6.1.9-10.4-2.6-2.3-1.9-4.3-4.7-5.9-8.1 0 .2-.1.4-.1.6 1.6 3.5 3.6 6.4 5.9 8.2 4.4 3.5 8.7 3.3 10.4 2.6 1.8-.7 6.5-5.3 9.1-10.6 1.1-2.2 2.3-5.1 3.3-8v-.6z"/><path class="st2" d="M85.4 46.7s2.5-13.7 3.7-14.6c1.2-.9 5.5 7 3.9 10.5-1.6 3.6-7.6 4.1-7.6 4.1z"/><path class="st3" d="M91.5 36.9c.4 1.3.5 2.7.3 4.1-.1.4-.2.8-.5 1.2-.3.3-.7.5-1.1.6-1 .4-2 .7-3.1 1 .4-.5.8-1.1.8-1.7 0-.3-.1-.5-.2-.7-.5-1.9 1.2-3.8 2.5-5 .1-.1.2-.2.4-.3.5-.1.8.4.9.8z"/><path class="st7" d="M90.1 39c-.3-.1-.7-.2-1-.3-.2 0-.3-.1-.4-.1.2-.3.3-.6.5-.9.3-.5.6-1 1-1.3.3-.3.7-.5 1-.6.3-.1.4 0 .4 0s-.2-.1-.5-.1-.8.1-1.2.4c-.4.3-.8.8-1.2 1.3-.4.5-.7 1.1-1 1.8-.2.7-.4 1.4-.2 2 .1.3.1.6.2.9v.3c0 .1-.1.2-.1.3-.2.4-.4.7-.7.9-.2.2-.4.3-.4.3s.2 0 .4-.2c.3-.1.6-.4.9-.9.1-.1.1-.2.2-.4 0-.2.1-.2.1-.5s-.1-.6-.1-.9c0-.6.1-1.2.3-1.8.1-.2.2-.5.3-.7 0 .1.1.2.3.3.2.2.6.4 1 .5.4.1.8.1 1.1.1.3-.1.5-.2.5-.2s-.2-.1-.5-.2c-.2.2-.6.1-.9 0z"/><path class="st0" d="M83 38.5c-.1.1-.2.1-.2.1l-1.5.3c-.3.1-.6.1-.9 0-.3-.1-.4-.6-.1-.8.1 0 .2-.1.2-.1.7-.1 1.5-.3 2.3 0 .1.1.4.3.2.5zm-18.9 1.4c-.1 0-.2.1-.3.1l-1.5.3c-.3.1-.6.1-.9 0-.3-.1-.4-.6-.1-.8.1 0 .2-.1.2-.1.7-.1 1.5-.3 2.3 0 .2.1.4.3.3.5z"/><path class="st3" d="M70.5 48.2c-.2 0-.4 0-.6-.1-.9-.4-1.3-2.2 0-2.4.7-.1 2.3-.5 2.6.5.3 1-1.2 2-2 2z"/><path class="st7" d="M67 36.6c1.7 3.4 2.5 7.1 2.6 10.8 1.2-3.6-.1-7.8-2.6-10.8z"/><path d="M77.3 38.7c-2.1 0-3.8 1.7-3.8 3.8 0 .2 0 .4.1.6-.7-.4-2.1-.9-3.3-.9-1.3 0-2.5.8-3 1.2-.5-1.5-1.9-2.6-3.6-2.6-2.1 0-3.8 1.7-3.8 3.8 0 2.1 1.7 3.8 3.8 3.8 2.1 0 3.8-1.7 3.8-3.8v-.4c.5-.4 1.2-.9 2-1.1 1.1-.2 3.3.4 4.3.8.5 1.4 1.9 2.4 3.5 2.4 2.1 0 3.8-1.7 3.8-3.8 0-2.2-1.7-3.8-3.8-3.8z" opacity=".8" fill="#a01537"/><path class="st10" d="M64 23.4c-2.2.4-4.1 1-5.6 1.6-3.6 1.5-6.4 3.6-7.4 4.5v.2c2.2-1.4 4.6-2.5 7.2-3.1.8-.2 1.8-.3 2.5.2s.8 1.5.7 2.4C61.1 33 58.8 36.5 57 40c-1.7 3.5-2.9 7.9-.8 11.2-1.5-.3-2.9-.7-4.2-1.2 3.1 3.3 9.3 8.4 9.3 8.4s-2.8-5.8-2.8-8.9c0-3.2 2.5-8.5 4.2-15.2.9-3.9 1.3-8 1.3-10.9z"/><path d="M50.9 31.2c.3-.7.6-1.4.7-2.1-.2.2-.4.3-.6.5-.2.7-.4 1.5-.8 2.2-1.4 3.1-3.6 11.6-3.6 11.6l.6-.6c.4-.8 2.4-8.7 3.7-11.6zm.5 16.9c-2.3-3-1.3-8.2-1.3-8.2l-.6.6c-.1.6-.8 5.3 1.3 8.1 2.3 3 10.5 9.7 10.5 9.7s-8.2-8-9.9-10.2z" fill="#67b2b0"/></g></svg>