<svg version="1.1" id="Ñëîé_9__x28_êîïèÿ8_x29_" xmlns="http://www.w3.org/2000/svg" x="0" y="0" viewBox="0 0 1313 1299.1" xml:space="preserve"><style>.st0{fill:#6b393a}.st1{fill:#fda68a}.st2{fill:#ffc853}.st4{fill:#466665}.st5{fill:#d9886e}.st6{fill:#af6c51}.st7{fill:#fff}.st8{fill:#42210b}.st9{fill:#33271b}.st11{fill:#db6e57}.st12{fill:#9c4345}.st14{fill:#fad4b0}.st15{fill:#82383a}.st16{fill:#242b45}.st17{fill:#333}.st18{fill:#b86553}.st19{fill:#a14f3d}.st20{fill:#fa5371}.st21{fill:#4f3e36}.st22{fill:#ed6b55}.st23{fill:#d24b38}.st24{opacity:.2;fill:#4f3e36}.st25{fill:#7f7c80}.st26{fill:#585558}</style><path class="st0" d="M122.8 567.2c51.6-68.1 140.2-34.5 159.3 5.3 14.2 29.6 8.3 63.6 11.5 95.2 9.3 90.2-35.3 108-81.9 107.8-48.9-4.1-71.7-14.9-85.7-23-28.5-16.6-47.5-30.2-44.4-62.9 6.3-66 27.8-104.8 41.2-122.4z"/><path class="st1" d="M163.6 674.6c0 27.8 7.1 51.6-17.6 74.4-14.3 13.2-57.4 17.7-76.8 27.6-26.4 13.6-37 44.6-40.7 83.3h334.9c-7.7-32.1-13-45.3-20.4-60.6-16.1-33.1-69.6-28.4-95-53.7-10.9-10.8-7.6-38.1-2.9-79.4 4.2-35.8-81.5-39.8-81.5 8.4z"/><path class="st2" d="M363.5 859.9H28.6c3.7-38.7 14.2-69.7 40.7-83.3 9.9-5.1 26.2-8.7 41.6-12.9 9 16.6 98.6 67.2 150.8 17 6.5-6.3 12.7-13 17-17.9 25 9 53.5 14 64.4 36.5 7.4 15.3 12.7 28.5 20.4 60.6z"/><path d="M193.8 859.9H28.6c3.7-38.7 14.2-69.7 40.7-83.3 11.2-5.7 30.4-9.6 47.3-14.5 9.7-2.8 18.6-5.8 24.9-9.7 9 24.1 34.9 76.7 52.3 107.5zm84.1-14.2c2.2-2.6 4.4-5.5 4.7-8.9.4-4.3-14.3-25.4-17.2-28.6 9.8.9 21.6.2 24-4.4 1.3-2.4 1-5.4.7-8.2-1.3-10.4-3.1-20.7-5.6-30.9 23.5 7.8 48.5 13.7 58.6 34.5 7.5 15.3 12.7 28.5 20.4 60.6h-97.2c3.8-4.6 7.7-9.4 11.6-14.1z" fill="#608c8b"/><path class="st4" d="M193.8 859.9h-34.7c-8.4-6.3-16.9-12.6-25.3-19-3.5-2.6-7.3-5.9-7.5-10.2-.3-7.5 14.3-20.8 14.3-20.8-5.3 1.5-14.7 2.9-20.1 2.7-8-.3-8.1-8.7-8-11.5.7-14.1 2-25.1 4-39.1 9.7-2.8 18.6-5.8 24.9-9.7 9.1 24.2 35 76.8 52.4 107.6zm95.6-56.1c-2.4 4.6-14.2 5.2-24 4.4 3 3.2 17.6 24.3 17.2 28.6-.3 3.4-2.6 6.3-4.7 8.9-3.9 4.7-7.8 9.4-11.7 14.2h-33.5c6.1-17.1 11.4-34.5 16-52.1 4.5-17.6 8.3-35.3 11.3-53.2 7.4 4.2 15.8 7.4 24.4 10.2 2.5 10.2 4.3 20.5 5.6 30.9.5 2.7.7 5.7-.6 8.1z"/><path class="st5" d="M242 732.7c-2.5-12.5-.8-31.4 2-56.1-24.7 2.1-59.9 5.9-80.2 7.1.2 5.4.5 10.6.7 15.6v.2c0 1.5.1 3.1.1 4.6v.9c0 1.1 0 2.3-.1 3.4 0 .6-.1 1.1-.1 1.7-.1.9-.1 1.7-.2 2.6-.1.6-.1 1.3-.2 1.9l-.3 2.4c-.1.6-.2 1.3-.3 1.9-.2.8-.3 1.6-.5 2.4-.1.6-.3 1.2-.4 1.8-.3 1.3-.7 2.6-1.2 3.9-.2.6-.5 1.2-.7 1.8-.3.7-.6 1.5-.9 2.2-.3.7-.6 1.3-1 2s-.7 1.4-1.1 2.1c-.4.7-.8 1.3-1.2 2-.4.7-.9 1.4-1.4 2.1-.5.6-.9 1.3-1.4 1.9-.6.8-1.3 1.5-1.9 2.3-.5.6-.9 1.1-1.4 1.7 18.6 13.3 71.5 15.5 91.7-12.4z"/><path class="st1" d="M276.7 631.3c-2.1 9.1 7 18.7-4.6 47.2-10 24.7-28.8 46.2-38.3 46.8-18.5 1.1-61.2-8.6-74.3-48.7-4.6-14.2-4.8-45.7-3.8-53 1.4-10.8 4.4-27.4 7.9-36.3 8.4-21.3 20.7-29 27.8-32.2 19.4-9 34.3-8.9 57.7-1.3 19.8 6.5 37.5 35.9 27.6 77.5z"/><path class="st6" d="M229.9 619c.8 0 1.6-.3 2.5-.7 2.3-1.2 1.7-3.5-.2-4.7-5.1-3.1-11.1-4.9-17-5.4-4.3-.4-8.7 0-12.8 1.3-1.3.4-5.3 1.4-5.6 3.1-.4 2.5 6.6 2.2 7.8 2.2 4.7.3 9.4.2 14.1 1.3 2 .5 4.1 1 6 1.8 1.9.6 3.5 1.2 5.2 1.1z"/><path class="st0" d="M186 540.6c24.1-7.2 56.2-.9 80 19.5 25.2 21.6 25.3 62.7 12.5 75.1 7.5-37.5-2.5-53.3-14.1-58.7-36.5 41-77.9 47-104.8 50.7-7.8 1.1-2.1 23.6-1.1 31.4 2.7 20 15.5 91.1 66.1 116.8-53.9 2.3-100.2-18.2-118.2-40.3-17.2-21.1-18.6-49.2-14.8-81 6.9-57.6 71.8-104.1 94.4-113.5z"/><path class="st1" d="M159.5 628.6c-1.1-3.2-8.6-19.5-16.2-12.8-4.4 4-2.5 15.1 1.2 25.5 3.5 9.6 11.9 18.1 13.7 18.7 2 .6 1.3-31.4 1.3-31.4z"/><path class="st6" d="M260.7 623.6c-.5 0-1-.2-1.7-.6-1.6-1-1.7-3-.7-4.1 2.5-2.8 5.9-4.4 9.4-4.9 2.5-.3 5.3 0 8 1 .9.3 2.7 1.2 3.2 2.7.6 2.2-2.9 1.9-3.6 2-2.8.3-5.7.3-8.3 1.2-1.2.4-2.3.9-3.4 1.6-1 .6-1.9 1.2-2.9 1.1z"/><path class="st5" d="M255.7 627c-2.6 4.6-4.5 9.7-5.1 14.7-.3 2.5-.3 5 .4 7.2.3 1.1.7 2.2 1.3 3.1.3.5.6.9 1 1.4l1.2 1.5c1.8 2.3 3.6 5.1 3.8 8.7.1 1.8-.3 3.7-1.2 5.4-.9 1.7-2.3 2.9-3.7 3.8-2.9 1.8-6.1 2.2-9.1 1.9-3-.4-6-1.8-7.6-4.2l.4-.4c2.4 1.3 4.9 1.3 7.2 1 2.3-.4 4.5-1.3 6-2.6s2.1-2.8 2-4.5c0-1.7-.9-3.9-2.1-5.9l-1.1-1.8c-.4-.7-.7-1.4-1-2.1-.6-1.4-1-2.9-1.2-4.4-.4-3-.1-6 .6-8.7 1.5-5.5 4.3-10.3 7.8-14.4l.4.3z"/><path class="st7" d="M258 686.7c.2-1.1-.9-2.3-2.3-2.1-9.5 1.8-24.6 3.9-40.7-2.2-10.4-3.9-4.1 12.5 8.4 17.5 10.5 4.2 16.3 2.5 23.2-.6 5.4-2.4 10.8-10 11.4-12.6z"/><path class="st8" d="M260.8 641.5c-.9 3.5.7 6.9 3.6 7.7 2.9.8 6-1.4 6.9-4.9.9-3.5-.7-6.9-3.6-7.7-2.9-.8-6 1.4-6.9 4.9zm-54.4-4.4c.5 3.7 3.3 6.4 6.4 6 3.1-.4 5.2-3.7 4.7-7.4s-3.3-6.4-6.4-6c-3 .4-5.1 3.7-4.7 7.4z"/><path class="st9" d="M604.6 121.3C622 81 666.2 68.6 678.9 79c0 0 3.5-11.8 24.4-10.9 17.4.8 38.7 8.3 54.3 26.2 23.8 27.1 28.1 51.3 27 72.6-.8 16.9-146.1 39.3-164.5 29.8-19.1-9.9-24.3-55-15.5-75.4z"/><path class="st1" d="M638.1 226.2c0 27.8 16.3 58.8-8.4 81.6-14.3 13.2-48.5 13.8-68.7 21.7-23 8.9-46.9 45.2-56.5 81.4h327.1c-5.7-20.7-9.1-37.5-16.5-52.8-16.1-33.1-58-28.4-83.4-53.7-10.9-10.8-9.7-47.7-4.9-89.1 4.1-35.7-88.7-37.3-88.7 10.9z"/><path d="M831.7 411H504.5c9.6-36.2 31.4-69.7 56.5-81.4 15.3-7.1 31-7 46.3-11.1 6.6 3.7 12.5 8.8 16.9 14.9 15.5 21 26.5 65.8 54.7 65.8 3.7 0 7.6-1 12-2.4 29.5-9.6 51.3-73.4 71.1-74 20.9 8.4 42.6 13.8 53.2 35.6 7.4 15.1 10.7 31.9 16.5 52.6z" fill="#485a7e"/><path class="st5" d="M724 280.4c-.5-5.4-.7-11.5-.6-18.1 0-9.2.7-19.9 1.8-31.9-27 2.3-59.5 2.8-86.6 4.5.6 5.8 1.7 11.4 2.7 16.8.2.9.3 1.7.5 2.5 0 .2.1.5.1.7l.6 3.6c.4 2.6.7 5.1.8 7.5.1 1.9.2 3.9.1 5.8.3 8.6-.7 16.9-4.7 24.6 11.3 16.6 62.1 18.5 85.3-16z"/><path class="st1" d="M747.8 178.1c-1.3 9.2 8.6 18.1 2.5 44.9-5.9 26-36.2 62.4-51.2 64.6-8.7 1.2-48-12.9-68-55.6-10.2-21.8-11.8-49.1-11.5-56.5.4-10.8 3.9-20.4 5.6-29.8 3.7-20.2 10.6-34.5 25.7-39.2 15.8-4.9 38.2-8.4 62.1-3 20.5 4.7 40.8 32.3 34.8 74.6z"/><path class="st1" d="M624.4 197.9c-.1-.3-3.3-4.7-4.6-6.4-2.5-3.4-9.6-8.5-14.3-2.6-3.7 4.6 1.2 15.3 7.3 24.4 5.7 8.5 15.9 14.8 17.8 14.9 1.8.2-5.2-26.4-6.2-30.3z"/><path class="st6" d="M690.4 179c1.1-2.1-6.5-3.6-8.6-4.2-5.4-1.4-11.2-1.3-16.6-.1-3.9.8-7.7 2.4-11.1 4.6-1.1.7-4.4 2.6-4.1 4.2.4 2.2 6.5.2 7.6-.2 9.3-3.2 12.7-3.1 19.3-2.8 3.2.2 11.6 2.3 13.5-1.5z"/><path class="st5" d="M707 191.3c.4 4.3 1.2 8.6 2.6 12.7 1.3 4 3.2 7.8 6 10.5l1.1.9c.3.3 1.1.9 1.5 1.5 1 1.2 1.8 3 1.7 4.8-.2 3.6-2.2 5.8-4 7.5-3.7 3.3-7.9 5.2-12.5 6l-.3-.5c3.1-3.4 6.3-6.3 8.7-9.4 1.2-1.5 2-3.1 2.1-3.9.2-.8 0-1.4-2.1-3.7-3-4-4.4-8.6-5.2-13-.7-4.5-.8-9-.2-13.4h.6z"/><path class="st7" d="M724.3 249.8c.4-1.1-.9-2.3-2.2-2.1-9.5 1.5-24.7 3.2-40.6-3.4-10.2-4.2.3 13.6 7.9 17.8 10 5.5 18.7 4.1 25.2-.1 5.3-3.4 8.5-8.5 9.7-12.2z"/><path class="st8" d="M723.9 195.2c.3 3.4 2.6 5.9 5.2 5.7 2.6-.2 4.4-3.1 4.1-6.5-.3-3.4-2.6-5.9-5.2-5.7-2.5.3-4.4 3.2-4.1 6.5zm-52.9 4c1.2 3.2 4.5 4.8 7.4 3.7 2.8-1.1 4.1-4.6 2.9-7.7-1.2-3.2-4.5-4.8-7.4-3.7-2.8 1.1-4.1 4.6-2.9 7.7z"/><path class="st9" d="M619.6 124.3c14.6-27.3 49-38.4 69.8-40.6 20.4-2.2 45.4 1.9 66.5 18.4 22.5 17.6 26.8 42.1 28.5 52.3 5.5 32.1-15.1 72.8-32.6 81.9 7.3-17.9-1.4-53.2-19.9-72.2-.7 6.8.3 14.2 9.3 26.7-16.5 1.4-42.5-7.4-51.3-36.1-3.1 5.2-1.6 14.6 5.3 28.1-21.7-.1-43.9-23.2-41.7-49.4-20.6 13.2-22.2 47.5-24.9 59.2-3.3 14.6-6.5 5.7-9-2.6-4.8-15.8-12.1-43.1 0-65.7z"/><path class="st1" d="M1259.5 1217.5c-12.5-6.4-26.2-10.6-39.4-15.3-10.7-3.7-22.1-6.4-32.2-12-12.1-6.8-18-17.5-20.2-31-2.7-16.4-1.1-37.2-1.1-47.2 0-22.4-20.1-34.1-41.1-36.5-.2-.1-.3-.1-.5-.1s-.3 0-.5-.1c-21.1 2.6-41.1 14.2-41.1 36.6 0 10 1.6 30.8-1.1 47.2-2 12.2-7.9 24-19.1 30-14.7 7.8-31.4 12.2-47 17.8-8.7 3.1-17.5 6.2-25.7 10.4-26.4 13.6-37 40.7-40.7 79.4h350.4c-3.7-38.5-14.3-65.7-40.7-79.2z"/><path class="st4" d="M1300.1 1296.9H949.7c3.7-38.7 14.2-65.9 40.7-79.4 8.2-4.2 17-7.3 25.7-10.4 15.6-5.6 32.3-9.9 47-17.8.3-.2.7-.4 1-.6 14.7 29.3 36.5 47.8 60.9 47.8 24.3 0 46-18.4 60.7-47.5.7.4 1.5.9 2.3 1.3 10.1 5.6 21.6 8.2 32.2 12 13.2 4.7 26.9 8.9 39.4 15.3 26.3 13.4 36.9 40.6 40.5 79.3z"/><path class="st5" d="M1167.8 1160c0-.2-.1-.4-.1-.7-.4-2.2-.6-4.5-.9-6.9-.9.9-1.9 1.7-2.8 2.5-10.9 9.1-25.1 15.1-39.5 14.8-14.2-.3-27.8-6.1-38.6-15.3-.9-.8-1.9-1.7-2.8-2.5-.2 2.5-.5 4.9-.9 7.3-1.6 9.8-5.8 19.4-13.3 25.8 47.2 16 87.5-3.9 98.9-25z"/><path class="st11" d="M1268.7 1063.9c-3.5-5-9.9-9.5-10.3-16.1-.3-4.7 2.8-8.9 3.7-13.5 1-5.4 1.2-14.1-5.4-17.4-3.4-1.7-7.3-2.4-10.9-3.6-3.6-1.3-7.3-4-7.6-7.8-.2-2 .6-3.9 1.3-5.8 1.3-3.6 2.5-7.4 2.5-11.2 0-4.7-1.1-9.4-4.5-12.7-3.5-3.4-7.9-5.9-12.6-7-2.8-.7-5.6-.9-8.3-1.9-4.7-1.7-8.5-5.7-10.2-10.3-1.8-4.9-1.6-8.4-5.1-12.3-3.2-3.5-7-6.6-11.3-8.7-8.4-4.2-18.4-5.3-27.4-2.3-7 2.3-15 7.1-22.5 4-7.9-3.2-12.3-10.7-20.8-13.3-7.7-2.4-16.5-.8-22.6 4.5-4.6 4-9.4 7.4-13.9 11.9-4.2 4.2-8.7 7.4-15 6.5-3.1-.4-6.2-1.3-9.4-1.5-8.1-.3-14.9 2.4-18.5 10.4-2.6 5.7-4 12.4-8.5 16.6-2.6 2.4-6.3 2.9-9.8 3.5-5.9 1-13.5 2.8-17.5 7.6-3.8 4.6-3.7 11.4-2.9 17 .5 3.1 1.1 6.2.7 9.2-1.2 8.6-12.7 9.5-14.5 19.8-2.4 14 5.8 21.3 5.9 26.8.5 16-15.8 16.9-11.9 35.4 1.1 5.3 10.8 11.4 11 16.8.2 5.7-3.8 9.6-6.1 14.5-2.9 6.2-1.8 11.6 1.6 17.4 2.2 3.8 4.3 7.9 4.5 12.3.4 5.8-2.6 11.4-1.7 17.2 1.4 8.9 12 11.3 14.9 19.4 3.8 10.4.4 13.7 9.3 22.8 5.4 5.5 13.2 7.2 16.9 14.5 3.7 7.3-.1 16.5 4.9 23.7 6.8 9.8 13.6 4.6 19.2 11.6 2 2.4 4.8 8.3 7.2 10.4 3.5 3 6.4 4.6 10.8 3.2 4.4-1.3 8-5 9.2-9.5 1.3-4.8-.1-10.2 1.8-14.8 2.3-5.8 9.1-9.2 10.3-15.3 1-5-2.3-9.8-5.6-13.6-3.4-3.8-7.2-7.8-7.7-12.9-.8-8 4-17.6 6.3-25.1 2.4-7.9 1.1-25-5-32.4-3.1-3.7 5.1-17.3 7.8-20.4 8.5-9.5 21-6.9 33.2-7 12-.1 24 3 34.5 8.8 13.1 7.2 11.1 8.8 6.3 19-5.4 11.4-10.7 33.2-3.2 43.7 2.5 3.4 5.7 7.6 3.8 11.4-.5 1-1.3 1.7-2.1 2.5-7.3 7.6-10.6 18.8-8.5 29.2 1.2 5.7 3.1 11.4 2.4 17.3-.6 4.9-3.5 11.4.8 15.4 2.9 2.6 10 3.6 13.5 1.8 1.5-.8 2.7-1.9 3.9-3 3.8-3.5 8.5-9.9 13.6-11.2 4.6-1.2 9.7 2.4 13.7-1.7 1.2-1.2 1.8-2.8 2.3-4.4.9-2.9 1.5-5.9 1.9-8.9.2-1.4.3-2.9.8-4.2 3.9-10.9 19.8-5.9 23.9-16.6.8-2.2.9-4.5 1-6.8.2-5.9.6-12.1 3.1-17.5 3-6.6 6.4-5.8 12.3-8.4 1.4-.6 2.6-1.6 3.5-2.8 3.2-4.1 3-9.9 2.1-15-.9-5.1-2.4-10.4-1.5-15.5.6-3.5 2.4-6.7 5-9.1 1.6-1.5 3.4-2.6 5-4.1 15.4-14.9-7.4-36.3 2.2-52.4 1.2-2.1 2.9-3.9 4.2-6 .4-.5.7-1.1 1-1.7 3.1-6.5 3.1-14.5-1-20.4z"/><path class="st1" d="M1188.3 1103.5c-1 3.9-2.3 8.6-4.1 14.4-4.4 14.3-8.8 27.4-20.3 37-10.9 9.1-25.1 15.1-39.5 14.8-14.2-.3-27.9-6.1-38.6-15.3-11.2-9.6-15.4-22.6-19.7-36.6-1.8-5.8-3.1-10.5-4.1-14.4-4.4-17.6-5.1-18.7-3.1-33.4.1-.5.1-1 .2-1.6 1-8.7 1.9-17.1 3-25 3-21.6 8.3-38.9 27.2-47.7 11.8-5.5 24.4-6.4 35.7-7.2h.5c11.3.7 23.9 1.6 35.7 7.1 18.9 8.8 24.2 26.2 27.2 47.7 1.1 7.8 1.9 16.2 3 25 .1.5.1 1 .2 1.6 1.9 14.8 1.1 16-3.3 33.6z"/><path class="st11" d="M1089.2 968.5c12-5.1 25.3-7.7 39.2-7.8 16.4-.1 32.8 4.7 46.8 13.2 21.1 12.8 35.1 35.7 38 60.1 1.3 11.1.6 23.3-3.1 33.9-2.7 8-12.3 19.8-18 7.1-1.3-2.9 1.4-5.1-1-7.2-5.3-4.8-8.3-10.9-10.1-20.5-2.1-11.2-14.2-16.5-18.2-24.1-3.7-7-4.2-12.6-11.5-16.6-1.1-.6-2.4-1.3-3.7-1.2-2.9.1-4.6 3.2-6.7 5.2-6 5.5-14 1.6-21 1.2-10-.6-19.2 6.2-24.7 14.1-5.4 7.6-8.1 17.8-16 22.7-4.1 2.5-9.1 3.4-13 6.3-8 6.1-10.2 18.2-13.1 27.3-1.1 3.4-1.3 7.7-4.5 9.6-13.2 7.9-18.3-18-17.9-25.6.9-17.7 4.9-36.5 12.3-52.6 9.9-21.4 26.2-36.6 46.2-45.1z"/><path class="st5" d="M1125 1068.5c.8 4.3 1.1 8.7 1 13.2-.2 4.4-1 9-2.7 13.4-1.1 2.4-1.8 3.9-1.9 5.3 0 1.2-.1 1.3 1.2 2.3 2.6 1.7 7.2 2.5 11.4 3.6l.1.6c-2.1 1-4.3 1.5-6.7 1.8-2.3.2-4.8.2-7.4-.9-1.3-.5-2.8-1.5-3.7-3.2-1-1.7-1-3.6-.7-5.1.6-2.9 2.5-5.1 3.4-6.5 2-3.4 3.3-7.4 4.1-11.5.9-4.1 1.3-8.4 1.4-12.8l.5-.2z"/><path class="st1" d="M1061.9 1078.1c-1-3.2-8-19.8-15.8-13.2-4.5 3.8-3 15 .5 25.5 3.2 9.7 15.2 18.5 17.1 19.1 1.8.6-1.8-31.4-1.8-31.4zm125.2 0c1-3.2 8-19.8 15.8-13.2 4.5 3.8 3 15-.5 25.5-3.2 9.7-15.2 18.5-17.1 19.1-1.8.6 1.8-31.4 1.8-31.4z"/><path class="st6" d="M1101.4 1060.1c.7-.2 1.5-.5 2.2-1 1.9-1.4 1.1-3.4-.9-4.2-5.1-2.1-10.9-2.9-16.4-2.5-4 .3-8 1.3-11.6 3-1.1.5-4.7 2-4.7 3.6 0 2.3 6.4 1 7.6.9 4.4-.4 8.7-1.1 13.2-.9 2 .1 3.9.3 5.8.7 1.7.4 3.3.7 4.8.4zm45 0c-.7-.2-1.5-.5-2.2-1-1.9-1.4-1.1-3.4.9-4.2 5.1-2.1 10.9-2.9 16.4-2.5 4 .3 8 1.3 11.6 3 1.1.5 4.7 2 4.7 3.6 0 2.3-6.4 1-7.6.9-4.4-.4-8.7-1.1-13.2-.9-2 .1-3.9.3-5.8.7-1.7.4-3.3.7-4.8.4z"/><path class="st7" d="M1143.4 1124.7c-6 2.1-12.4 3.3-18.8 3.4-6.3.1-12.5-1.3-18.4-3.3-10.6-3.7-4 12.5 8.7 17.2 6.7 2.5 12.9 2.5 19.6 0 12.7-4.7 19.3-20.9 8.9-17.3z"/><path class="st8" d="M1085 1077.5c.2 3.9 2.9 6.9 6.2 6.8 3.2-.1 5.7-3.4 5.5-7.3-.2-3.9-2.9-6.9-6.2-6.8-3.2.2-5.6 3.4-5.5 7.3zm79.3 0c-.2 3.9-2.9 6.9-6.2 6.8-3.2-.1-5.7-3.4-5.5-7.3.2-3.9 2.9-6.9 6.2-6.8 3.2.2 5.6 3.4 5.5 7.3z"/><path class="st12" d="M347.2 1201.4c-33.5-17.6-17.4-9-56-27.1-31.7-14.9-38.1-42.6-38.1-70.4 0-22.8-23.5-35.4-47.9-38.6-24.3 3.2-47.9 15.8-47.9 38.6 0 27.8-6.4 55.5-38.1 70.4-38.6 18.1-27 9.6-60.5 27.1-40.3 21.1-49 48.9-56.6 86.9h401.7c-7.6-38-16.3-65.8-56.6-86.9z"/><path d="M403.8 1288.3H2.1c7.6-38 16.3-65.8 56.6-86.9 13.4-7 19.6-9.9 24.6-11.9 14.4 17.4 53.9 41.4 119.3 40.3 66.5 1.1 106.3-23.5 120.2-41 4.4 2.1 9.6 4.8 24.4 12.5 40.3 21.2 49 49 56.6 87z" fill="#a3c6d4"/><path class="st14" d="M288.1 1225.2c13.4 1.7 26.1 3.3 38.3 4.1 29 2.1 44 1.6 56.1 1.2-.9-1.2-1.8-2.4-2.8-3.6-.4-.5-.9-1.1-1.4-1.6-.7-.8-1.3-1.6-2-2.3-11 .3-25.3.4-49.4-1.4-12-.9-24.6-2.4-37.9-4.1-2.5-.3-4.9-.6-7.4-.9-5.3 2.1-11 4.1-17.2 5.8 8.1.9 15.9 1.8 23.7 2.8zm-268.9 59.6c17.1-3.5 29.5-6.1 68.9-9 27.3-2 57.4-1 86.5 0 9.9.3 19.8.7 29.7.9 34.2-.8 70.3.2 113.7 3.3 13.3 1 23.5 1.6 31.9 2.2 24.9 1.7 32.8 2.2 53.8 5.6-.6-2.8-1.1-5.5-1.7-8.1-19.4-3.1-28-3.6-51.6-5.2-8.3-.6-18.6-1.2-31.8-2.2-43.7-3.1-80-4.2-114.3-3.3-9.7-.2-19.6-.6-29.5-.9-29.3-1-59.7-2.1-87.3 0-39.9 3-52.5 5.6-69.9 9.2-4.2.9-8.7 1.8-13.8 2.8-.5 2.5-1 4.8-1.5 7.2-.1.4-.1.7-.2 1.1 6.5-1.4 12-2.5 17.1-3.6zm20.9-28.4c11.9-.3 26.7-.6 53.1-2.5 6.9-.5 14-1.1 21.2-1.7 31.2-2.5 63.5-5.1 94.8-4.4l5.9-.1c39-1 75.9-1.9 108.4.4 43.4 3.1 54 5 72.4 8.8-1-2.9-2.1-5.8-3.3-8.6-15.7-3.1-28.7-5.1-68.6-7.9-32.9-2.4-69.9-1.4-109.1-.4l-5.7.1c-31.5-.7-64 1.9-95.4 4.4-7.2.6-14.2 1.1-21.1 1.7-26.2 2-40.9 2.3-52.7 2.5-9.4.2-17.1.4-27.4 1.2-1.1 2.7-2 5.3-2.9 8 11.9-1 20.1-1.2 30.4-1.5zm-12-24.4c16.4-3.6 29.4-6.4 68.1-9.3 12.6-.9 25.6-1.7 38.6-2.2-6.5-2.1-12.4-4.4-17.8-6.9-7.2.4-14.4.9-21.4 1.4-37.5 2.8-51.2 5.5-67 8.9l-.3.3c-1.3 1.4-2.5 2.9-3.6 4.4-.1.2-.3.4-.4.5-1.1 1.4-2.1 2.9-3.1 4.3 2.4-.4 4.6-.9 6.9-1.4z"/><path class="st15" d="M255 1126.8c-.7-3.8-1.2-7.7-1.5-11.6-.5-1.1-.9-2.4-1-4.6-.1-1.7-.2-3.8-.2-6.8 0-1.1-.1-2.1-.2-3.2l-.3-2.1c-30.6 2-66 2.5-94.5 4.3 0 .3-.1.6-.1.9 0 19.3-3.1 38.6-15.7 53.5 25.6 10.3 88.3 16.8 113.5-30.4z"/><path class="st16" d="M300.2 937.1c-1.7 1.8-3.1 3.8-4.5 5.2-1.1 1.1-2.3 2.3-3.8 2.9-1.5.6-3.6.5-4.6-.7-2.9-3.4 5.7-14.7 7.4-18 1-2.1 2.1-4.2 2-6.5-.1-2.8-2.1-5.5-4.9-6.6-2.8-1.2-6.3-.9-8.8.7-3.3 2-4.8 5.6-6.2 8.9-1.1 2.8-6.8 20.2-14.2 13-1.5-1.4-1-3.7-.5-5.7 2.3-7.6 8.8-19.2 4.4-26.7-2.7-4.6-9.3-7.5-14.5-5.2-3.7 1.7-5.7 5.4-6.6 9-1.7 6.3-3.4 11.8-8.9 16.4-1.1.9-2.4 1.8-3.9 2-5.7.8-8.6-7.1-8.4-11 .3-5.1 3.2-9.9 4.3-14.9 1.2-5-.2-11.4-5.4-13.3-5.8-2.1-12.1 2.6-14.6 7.8-3 6.2-.9 13.3-5.8 19.1-1.9 2.2-4.6 3.9-7.7 3.9-8 0-7.2-9-6.5-13.8.5-3.4 1.1-6.9.6-10.3-1.5-9.5-12.8-14.5-19.5-5.3-3.2 4.4-3.5 10-3.7 15.3l-.3 10.1c-.1 2.1-.2 4.4-1.2 6.3-1 1.9-3.3 3.5-5.6 3.2-2.9-.4-4.5-3.3-5.5-5.8-1.9-4.6-3.8-14.5-7.8-17.8-3.7-3.1-9.5.3-11 3.9-1.4 3.4-.7 7.2.2 10.7.9 3.6 1.1 7.7.6 11.3-.6 3.8-4.7 8.9-8 3.3-1.3-2.2-1.7-4.7-2.2-7.1-.5-2.4-1.3-4.9-3.1-6.8-4-4.2-10.4-2.6-13.3 1.7-2.8 4.2-2.7 9.6-1.4 14.2 1.5 5.7 4.6 10.9 5.9 16.6.8 3.5.2 12.9-6.3 9.3-1.6-.9-2.7-2.4-3.6-3.9-.9-1.5-1.7-3.1-3.1-4.4-5.6-5.2-9.5 1.9-9.5 6.6 0 5.7 2.1 10.8 5.6 15.6 3.8 5.2 8.6 9.8 12.5 14.9 1.7 2.2 4 4.3 2.4 7-1.7 2.9-5.1 2.2-7.6.6-2.5-1.7-3.5-4.9-5.9-6.3-3.1-1.9-7.1.8-7.8 3.7-.7 2.6.5 5.4 2.2 7.5 1.7 2.2 9.2 9.6 11.2 11.5 17.9 16.8 11.8 35.2 30.1 51 9.1 7.8 23.5 7.6 35.9 8.5 21.8 1.6 43.5 1.7 65.2.5 27.8-1.5 34.9-3.4 47.9-29 4.7-9.3 6.4-19.7 10.6-29.3 2.7-6.1 7-11.5 11.3-16.8 3.7-4.6 9.1-10.3 10.1-16.2.3-1.6.5-3.2.1-4.8-.4-1.6-1.7-3.1-3.4-3.4-1.2-.2-2.4.2-3.4.8-3.7 2.3-6.2 6.7-8.9 9.9-.8 1-1.7 2-2.9 2.6-4 2.2-5.7-1.7-5.9-4.6-.3-3.7 1.5-7.5 3.8-10.5 5.4-7.1 10.9-14.2 16.2-21.4 2.8-3.8 4.8-13-3.4-12.7-2.5-.2-4.6 1.4-6.4 3.3z"/><path class="st12" d="M272.2 1011.8c-2.2-13.5-15.1-16-21.8-26.4-9.1-14-34.3-17.6-47.6-16.2-13.2-1.4-38.5 2.2-47.6 16.2-6.7 10.4-19.6 13-21.8 26.4-1.4 8.5 2 17.6 1.1 31-1.2 18.2 2.3 24.9 8.7 42.2 15.5 42.5 41.8 57.9 46.4 58.9 2.6.5 6.8.6 10.6.6.1.1.3.1.4.1h.8c.4-.1.9-.1 1.4-.1h2.2c.1-.1.3-.1.4-.1 3.8-.1 8-.2 10.6-.7 4.6-1 30.9-16.4 46.4-58.9 6.3-17.4 9.9-24 8.7-42.2-.9-13.2 2.5-22.4 1.1-30.8z"/><path class="st12" d="M286.2 1058.7c-2.4 6.7-7.2 15.2-13.1 19-5.8 3.7-9.9.8-10.3-6.4-.5-7.4 1.2-19.8 6.4-25.2 5.2-5.5 15.5-5.2 18.1 3.2.7 2.6.2 5.9-1.1 9.4zm-165.2 0c2.4 6.7 7.2 15.2 13.1 19 5.8 3.7 9.9.8 10.3-6.4.5-7.4-1.2-19.8-6.4-25.2-5.2-5.5-15.5-5.2-18.1 3.2-.7 2.6-.2 5.9 1.1 9.4z"/><path class="st16" d="M171.8 1031.6c1.5.2 3 .1 4.6-.2 1.5-.3 3.2-1.2 3.5-2.7.1-.9-.3-1.8-.9-2.5-.6-.7-1.4-1.1-2.2-1.5-5.2-2.6-11-4.3-16.9-4-6.3.4-11.1 3.8-16.3 7-.8.5-1.8 1.1-1.9 2.1-.1 1.1.9 2.1 2 2.3 1.1.2 2.2-.2 3.3-.5 8.4-2.3 16.4-.9 24.8 0zm62 0c-1.5.2-3 .1-4.6-.2-1.5-.3-3.2-1.2-3.5-2.7-.1-.9.3-1.8.9-2.5.6-.7 1.4-1.1 2.2-1.5 5.2-2.6 11-4.3 16.9-4 6.3.4 11.1 3.8 16.3 7 .8.5 1.8 1.1 1.9 2.1.1 1.1-.9 2.1-2 2.3-1.1.2-2.2-.2-3.3-.5-8.4-2.3-16.4-.9-24.8 0z"/><path class="st17" d="M231.4 1047.6c-.5 3.7 1.6 7 4.7 7.5 3.1.4 6-2.3 6.5-6s-1.6-7-4.7-7.5c-3.1-.4-6 2.3-6.5 6zm-57.3 0c.5 3.7-1.6 7-4.7 7.5-3.1.4-6-2.3-6.5-6s1.6-7 4.7-7.5c3.1-.4 6 2.3 6.5 6z"/><path class="st15" d="M195.6 1035.4c3.9 3.9 5.5 9.8 5.3 15.3 0 2.8-.5 5.6-1.1 8.3-.4 1.3-.7 2.7-1.1 4l-1.2 3.6c-1.2 4.2.1 7.6 3.9 10 1.8 1.1 4.1 1.9 6.3 2 2.2.1 4.6-.4 6.3-2.5l.5.2c-.5 2.9-3.5 5.1-6.4 5.8-3 .7-6.1.4-9.1-.8-2.9-1.2-5.7-3.4-7.1-6.7-1.4-3.3-.9-7 .2-9.8.6-1.5 1.3-2.6 1.8-3.7.6-1.1 1.1-2.3 1.6-3.4.9-2.3 1.6-4.8 2-7.2.8-4.9.4-10.3-2.4-14.6l.5-.5z"/><path class="st7" d="M204.4 1114.5c9.4-.8 15.8-7.6 20.8-15.5 1.4-2.1.1-2.7-.7-2.4-5.9 2.5-13.5 3.8-21.4 3.7-13.4-.2-21.4-4-22.2-3.4-3.1 2.2 8.1 13.4 9.8 14.4 4.1 2.3 8.9 3.6 13.7 3.2z"/><path class="st15" d="M211.8 1108.8c-3.8 1.6-13.1 1.9-17.8 0-5.5-2.3-10.3-6.2-13.9-10.9.2 10.2 8.5 19.7 18.6 21.4 1.4.2 7 .2 8.5 0 10.1-1.6 18.4-11.1 18.6-21.4-3.8 4.7-8.5 8.5-14 10.9z"/><path class="st18" d="M376.4 321c-33.5-17.6-17.4-9-56-27.1-31.7-14.9-38.1-42.6-38.1-70.4 0-22.8-23.5-35.4-47.9-38.6-24.3 3.2-47.9 15.8-47.9 38.6 0 27.8-6.4 55.5-38.1 70.4-38.6 18.1-27 9.6-60.5 27.1-40.3 21.1-49 48.9-56.6 86.9H433c-7.6-38-16.3-65.8-56.6-86.9z"/><path class="st2" d="M433 407.9H31.3c7.6-38 16.3-65.8 56.6-86.9 33.5-17.6 21.9-9 60.5-27.1 7.3-3.4 13.3-7.5 18.1-12.2 5 13.9 22.1 44.4 65.8 44.4 39.6 0 63.2-34.2 66.9-47.5 5.3 5.9 12.2 11.1 21.1 15.3 38.6 18.1 22.4 9.6 56 27.1 40.4 21.1 49.1 48.9 56.7 86.9z"/><path class="st19" d="M284.2 246.5c-.7-3.8-1.2-7.7-1.5-11.6-.5-1.1-.9-2.4-1-4.6-.1-1.7-.2-3.8-.2-6.8 0-1.1-.1-2.1-.2-3.2l-.3-2.1c-30.6 2-66 2.5-94.5 4.3 0 .3-.1.6-.1.9 0 19.3-3.1 38.6-15.7 53.5 25.6 10.3 88.3 16.8 113.5-30.4z"/><path class="st9" d="M268.9 27c-1.8-8.9-8.3-17.7-19.4-23.4-8.7-4.5-26.2-5-35.5 0-11 5.9-17.5 14.5-19.4 23.4-1.7 8.3-1.7 30.7 10.3 34 7.5 2.1 20.3 2.4 26.8 2.4h.8c6.5 0 19.3-.3 26.8-2.4 12-3.3 11.3-25.7 9.6-34z"/><path class="st18" d="M296.7 191.8c-5.7 2.9-7.1-3.9-7.6-11.1-.5-7.4 1.2-19.8 6.4-25.2 5.2-5.5 12.8-8.3 16.2-.3 3 6.9-1.4 29.7-15 36.6zm-129.2 0c5.7 2.9 7.1-3.9 7.6-11.1.5-7.4-1.2-19.8-6.4-25.2-5.2-5.5-12.8-8.3-16.2-.3-3 6.9 1.4 29.7 15 36.6z"/><path class="st9" d="M284.2 56.7c-16.1-7.1-34.3-10.5-52.1-9.6-17.9-.9-36 2.6-52.1 9.6-33.1 14.5-40.8 59.7-31.9 81.4 5.6 13.5 5.8 22.2 17 32.4 9.6 8.7 23 9.6 35.3 10.2 10.6.6 21.1.8 31.7.8 10.5.1 21.1-.2 31.7-.8 12.3-.7 25.7-1.5 35.3-10.2 11.2-10.2 11.4-18.9 17-32.4 8.9-21.6 1.3-66.8-31.9-81.4z"/><path class="st18" d="M297.3 131.4c-.2-16.8-4.9-29.7-13.8-35.4-19.4-12.5-23.2 2.4-51.2 1.9h-1c-28.1.5-31.9-14.4-51.2-1.9-8.9 5.7-13.5 18.6-13.8 35.4-.1 8.6-3.6 17.6-2.8 31 1.1 18.1 5.2 35 10.6 51.2 8.4 25.5 34.5 40.2 40.9 42.4 2.3.8 9.7 2.7 16.2 2.7 0 0 .2 0 .6-.1.3.1.6.1.6.1 6.5 0 13.9-1.9 16.2-2.7 6.5-2.2 32.5-16.9 40.9-42.4 5.3-16.2 9.4-33 10.6-51.2.8-13.3-2.7-22.4-2.8-31z"/><path class="st9" d="M250.6 144.4c-1.3-.8-3.4-11.2 1-14.3 4.7-3.4 12.3-1.2 17.3-.1 6.1 1.4 10 2.9 14.8 5.4 4.8 2.4 4 5.1 1.9 5-22.9-1.4-32.5 5.5-35 4zm-37 0c1.3-.8 3.4-11.2-1-14.3-4.7-3.4-12.3-1.2-17.3-.1-6.1 1.4-10 2.9-14.8 5.4-4.8 2.4-4 5.1-1.9 5 22.9-1.4 32.5 5.5 35 4z"/><path class="st17" d="M262.3 157.9c-.5 3.7 1.6 7 4.7 7.5 3.1.4 6-2.3 6.5-6s-1.6-7-4.7-7.5c-3.1-.4-6 2.3-6.5 6zm-60.4 0c.5 3.7-1.6 7-4.7 7.5-3.1.4-6-2.3-6.5-6s1.6-7 4.7-7.5c3.1-.4 6 2.3 6.5 6z"/><path class="st9" d="M248.6 256c2.8-1 9.3-4.3 16.5-9.8 1.4-1.1 2.3-2.7 2.6-4.5.4-2.8.6-6 .3-9.2-.7-8.5-2.7-17.9-8.2-24.9-6.6-8.5-17.5-11.2-27.8-11.2-8.4 0-17.7 1.9-24.5 7.6-8.1 6.8-10.3 18.4-11.2 28.4-.3 3.4-.1 6.8.4 9.8.3 1.8 1.2 3.4 2.6 4.5 6.8 5.2 13 8.3 15.7 9.2 2.3.8 9.7 2.7 16.2 2.7 0 0 .2 0 .6-.1.3.1.6.1.6.1 6.5.1 13.8-1.8 16.2-2.6z"/><path class="st7" d="M233.6 234.1c9.4-.8 15.8-7.6 20.8-15.5 1.4-2.1.1-2.7-.7-2.4-5.9 2.5-13.5 3.8-21.4 3.7-13.4-.2-21.4-4-22.2-3.4-3.1 2.2 8.1 13.4 9.8 14.4 4.1 2.4 8.9 3.6 13.7 3.2z"/><path class="st19" d="M224.9 145.3c1.7 2.3 2.5 5 3 7.7s.8 5.5.7 8.3c0 5.6-1 11.1-2.1 16.4-.5 2.4-.8 4.9-.4 6.7.4 1.8.9 2.7 2.8 3.3 1.9.6 4.4.6 6.9.2 2.5-.4 5.1-.9 7.4-2.1l.4.4c-1.7 2.4-4.2 4-6.8 5.2-2.7 1.1-5.6 2-9 1.5-1.7-.2-3.6-1-5.1-2.4-1.5-1.4-2.3-3.3-2.6-5.1-.6-3.5.2-6.5 1.1-9.3 1.9-5 3.4-10 4.1-15.2.7-5.1 1-10.6-1-15.5l.6-.1z"/><path class="st12" d="M1245.1 321.8c-33.5-17.6-29-9-67.6-27.1-31.7-14.9-38.1-42.6-38.1-70.4 0-22.8-23.5-35.4-47.9-38.6-24.3 3.2-44.3 19.2-44.3 42 0 27.8-4 53.4-35.1 69.5-5.2 2.7-23.8 7.3-55.4 24.6-39.9 21.8-49 48.9-56.6 86.9h401.7c-7.6-38-16.4-65.8-56.7-86.9z"/><path class="st20" d="M1301.7 408.8H900c7.6-38 16.7-65.1 56.6-87 31.6-17.3 50.2-21.9 55.4-24.6 8.9-4.6 15.6-10 20.6-16 1.4 13.1 40.2 85.5 60.9 85.5 15.8 0 49.6-46.5 66.5-83.6 4.7 4.4 10.5 8.3 17.5 11.6 38.6 18.1 34.1 9.6 67.7 27.1 40.2 21.1 49 48.9 56.5 87z"/><path class="st15" d="M1141.3 247.3c-.7-3.8-1.2-7.7-1.5-11.6-.5-1.1-.9-2.4-1-4.6-.1-1.7-.2-3.8-.2-6.8 0-1.1-.1-2.1-.2-3.2l-.3-2.1c-30.6 2-66 2.5-94.5 4.3 0 .3-.1.6-.1.9 0 19.3-3.1 38.6-15.7 53.5 25.6 10.3 88.3 16.8 113.5-30.4z"/><path class="st9" d="M1009.6 221.1c-4.4 18.7-5.4 38-9.1 56.9-3.1 15.9-8.7 32.4-21.1 42.8-2.7 2.3-5.8 4.3-8.1 7s-3.8 6.5-2.6 9.9c1.5 4.5 7 6.5 11.7 6.3 11.2-.4 20.5-9.4 25.2-19.6 4.6-10.2 5.6-21.6 7.2-32.7 3.8-25.7 11.7-50.5 19.5-75.3 2-6.2 4.1-12.6 8.5-17.3 2.4-2.5 5.6-4.7 6.2-8.2.6-3.3-1.4-6.5-3.4-9.3-3.9-5.6-5.6-9.9-11.6-4.2-4 3.9-7.4 8.3-10.3 13-5.6 9.2-10.1 20.1-12.1 30.7z"/><path class="st9" d="M1015.9 262.3c-1.3 8.8-1.8 17.8-3.4 26.6-3.3 17.9-10.9 34.7-16.2 52.1-1.1 3.5-2 7.1-1.7 10.7.3 3.6 2.1 7.3 5.4 9 2.8 1.4 6.3 1.1 9.1-.3 2.8-1.4 5.1-3.7 7.1-6.1 13.2-16 15.2-38.3 15.8-59 .6-20.8.6-42.6 10.9-60.6 3-5.2 6.7-9.9 9.8-15 3-5.1 5.4-11 5.1-16.9-.2-4-3.4-14.3-8.9-12.1-4.5 1.8-8.1 5-10.6 9-6.9 10.9-13.6 29.2-17.4 41.6-2.2 6.7-3.9 13.8-5 21zm139.5-5.6c2.1 8.7 4.9 17.2 6.7 25.9 3.7 17.8 2.8 36.2 4.4 54.4.3 3.6.8 7.3 2.4 10.6 1.6 3.3 4.7 6 8.3 6.3 3.1.3 6.2-1.3 8.3-3.7 2.1-2.3 3.4-5.3 4.3-8.3 6.2-19.8-.2-41.2-7.4-60.7s-15.3-39.8-12.4-60.3c.8-5.9 2.6-11.7 3.5-17.6.9-5.9.9-12.2-1.6-17.6-1.6-3.6-8.5-12.1-12.8-7.9-3.5 3.4-5.6 7.6-6.5 12.3-2.4 12.7-1.7 32.2-.7 45 .7 7.3 1.8 14.5 3.5 21.6z"/><path class="st9" d="M1183.6 182.1c2.5 14.9 0 30.1.9 45.1 2 34.1 21.1 64.5 33.4 96.3 1.2 3.1 2.3 6.2 2.3 9.5s-1.3 6.8-4.1 8.5c-3.5 2.2-8.3 1-11.5-1.7-3.1-2.7-5-6.6-6.6-10.4-10.3-23.2-20.8-45.9-25.5-71-1.9-9.9-3-20-4.1-30-1.4-12.5-2.8-25.1-4.3-37.6-1.1-9.5-4.9-17.6-5.5-27.4-.3-4.6 0-10.3 4.4-13.1 4.7-2.9 7.5 1.4 10 5 5.3 8.1 9 17.3 10.6 26.8zm-116.5 33.5c1.1-1.7 1.7-3.9 1.2-5.9-.8-3.1-3.8-5.6-7-5.7-4.9-.2-8.6 4.1-11.2 8.2-10.8 17-15.8 37.1-17.4 57.1-1.6 20 0 40.2 1.7 60.2.3 3.2.5 6.5 1.8 9.5 1.2 3 3.5 5.7 6.6 6.6 5.3 1.5 10.7-3.1 12.4-8.3 1.6-5.2.6-10.9-.3-16.3-5.6-35.5-1.3-72.3 12.2-105.4z"/><path class="st9" d="M1167.4 198.7c4.2 15.5 5.8 34.8 3.6 50.8-4.6 33.2-8.6 64.3-2.2 97.1.7 3.5 8.1 23.4 1.1 26.1-15.4 5.9-22.3-18.5-23.2-23.2-9-48.2 10.1-98.5-.3-146.4-1.2-5.4-2.7-10.9-2.3-16.4.4-4.6 2.1-8.8 4.2-12.9.7-1.3 1.7-4.6 3.3-4.4 1 .1 3.3 4.6 3.9 5.5 4.9 7.4 9.5 15.2 11.9 23.8z"/><path class="st9" d="M1153 234.7c1.2 23.4-1.4 46.8-5.6 69.9-1.5 8.5-3.3 17-5.1 25.5l-5.2 25c-1.6 7.8-12.4 9.2-15.7 1.8-.1-.2-.1-.3-.2-.5-2.2-5.5-1.6-11.7-.8-17.5 3.7-28.7 15.2-56.2 16.9-85.1 1.4-22.6.4-31.9-.3-36.4-1.1-7.2 1.8-20 9.4-23.2 3.3 4.2 3.5 13.9 4.3 19.1 1.2 7 2 14.2 2.3 21.4zm-80.1-184.1c-5-9.2-3.6-21.3 3.3-29.2 2.9-3.3 6.9-6.9 5.7-11.1-.9-3.1-4.6-4.7-7.9-4.3-4.1.4-7.7 3.1-10.1 6.4-2.4 3.3-3.9 7.2-5.3 11.1-2 5.7-3.9 11.5-4.1 17.6-.3 6 1.2 12.4 5.2 16.9 3.9 4.4 10.4 6.7 15.9 4.7.8-1 1.2-2.4 1.2-3.6-.4-3.1-2.4-5.8-3.9-8.5z"/><path class="st9" d="M1022.9 23.7c-.5-2.1-.8-4.3-.3-6.4.5-2.1 2-4.1 4.1-4.5 3.8-.8 6.6 3.5 8.4 7 5.2 10 12.5 18.8 21.3 25.8 4.5 3.6 10.4 7.4 11.4 13.5 1.2 7-3.2 8-8.6 5.9-11.4-4.4-21.3-12.4-28.1-22.5-3.9-5.7-6.7-12.1-8.2-18.8z"/><path class="st12" d="M1159.4 194.6c-5.7 2.9-7.1-3.9-7.6-11.1-.5-7.4 1.2-19.8 6.4-25.2 5.2-5.5 12.8-8.3 16.2-.3 3 6.9-1.5 29.7-15 36.6zm-135.1 0c5.7 2.9 7.1-3.9 7.6-11.1.5-7.4-1.2-19.8-6.4-25.2-5.2-5.5-12.8-8.3-16.2-.3-3 6.9 1.5 29.7 15 36.6z"/><path class="st9" d="M1179.4 106.5c-1.3-2.5-4.1-4.6-4.6-7.4-.6-2.8.5-7.3 0-10.2-3-16.4-12.7-11.1-18.7-18.8-3-3.8-1.9-7.8-8.7-11.5-5.9-3.2-11 1.8-15.4.5-3.2-1-.7-5.5-9.2-7.9-6-1.8-10.3 3.6-13.1 3.5-3.4-.1-4.5-6.4-12.9-6.4-8.9 0-12.5 5.7-15.9 5.5-5.1-.4-5.7-4.5-13.6-1.9-9 2.9-8.1 8.4-13.6 10-4.9 1.4-5.5-3-13-1.1-5.8 1.5-10.9 7.2-12.5 14-1.3 5.3.7 10-4.1 12.3-5.2 2.5-14.4 12.9-11.7 24.6.5 2.3 2.7 4.4 2.6 6.8-.2 2.4-2.4 4.7-3.3 6.9-2 4.7-3.1 10.7-.3 15.3 1.9 3.2 4.6 4.4 5.3 8.6.6 3.7 0 7.5.7 11.1.9 4.5 1.9 9.8 5.5 13.1 9.6 8.7 23 9.6 35.3 10.2 10.6.6 21.1.8 31.7.8 10.5.1 21.1-.2 31.7-.8 6.5-.4 12.7-1.3 19.2-2.1 5.7-.8 17.1-2.9 19-8 0 0 3-7.4 3.3-14.4.2-6 9.1-8.6 11.8.2 6.5-6.7 3.6-10.1 5.1-15.6 1-3.7 3.2-4 3.9-9.2 1-7.7-3.9-6.9-4.2-12.4 0-.4 2.8-9.9-.3-15.7z"/><path class="st9" d="M1141.7 40.3c-.1-.2-.2-.5-.3-.7-3.6-7.5-11.7-12.6-20.1-12.6-4.4 0-8.7 1.2-12.6-1.3-2.7-1.7-4.1-3.5-7.2-4.5-7.6-2.3-16.4-.9-23.4 2.7-9 4.7-20.8 17.1-19.6 28.2.6 5.4 4.5 9.9 9.2 12.6 10.5 5.9 24 5.4 35.6 5.5h.8c6.5 0 19.3-.3 26.8-2.4 1.6-.4 3.2-2.4 4.6-2.7.8-.1 4.4-3.7 5-5.2 2.7-6.6 4.2-12.8 1.2-19.6z"/><path class="st12" d="M1153.3 141.6c-4.1-24.2-7.8-32.6-16.8-41.8-7.7-7.9-32.1-8.8-47.3-9.3-14.5-.5-30.2 1.7-44.1 11.1-4.8 3.2-7.8 8.6-14.8 29.5-2.7 8.1-8.8 21.4-7.9 34.8 1.1 18.1 5.7 44.2 12.2 60 8.6 20.8 30.4 27 37.6 28.9 2.4.6 25 3.4 35 .3 17.8-5.5 37.1-20.7 44.1-39.2 6-16 6-29.9 6-48 0-6.5-2.5-17.7-4-26.3z"/><path class="st9" d="M1107.1 147.5c-9.4-2.5-7.4-7.4.8-10.2 7.3-2.5 11.9-1.5 18-.5 6.4 1.1 8.9 2 13.7 4.5 4.8 2.4 6.3 4.3 4.6 5.5-1.1.8-6.4-.4-13.7 0-8 .2-18.4 2-23.4.7zm-46.4-.3c8.7-2.6 6.9-7.5-.7-10.2-6.7-2.4-10.9-1.5-16.5-.4-5.9 1.1-8.2 2.1-12.6 4.6-4.4 2.4-5.8 4.3-4.3 5.5 1 .8 5.9-.4 12.6-.1 7.5.2 17 1.9 21.5.6z"/><path class="st17" d="M1114.7 161.9c-.5 3.7 1.6 7 4.7 7.5 3.1.4 6-2.3 6.5-6s-1.6-7-4.7-7.5c-3.1-.3-6 2.3-6.5 6zm-58.1-1.2c.5 3.7-1.6 7-4.7 7.5-3.1.4-6-2.3-6.5-6s1.6-7 4.7-7.5c3.1-.4 6 2.3 6.5 6z"/><path class="st9" d="M1105.4 258.8c2.8-1 9.3-4.3 16.5-9.8 1.4-1.1 2.3-2.7 2.6-4.5.4-2.8.6-6 .3-9.2-.7-8.5-2.7-17.9-8.2-24.9-6.6-8.5-17.5-11.2-27.8-11.2-8.4 0-17.7 1.9-24.5 7.6-8.1 6.8-10.3 18.4-11.2 28.4-.3 3.4-.1 6.8.4 9.8.3 1.8 1.2 3.4 2.6 4.5 6.8 5.2 13 8.3 15.7 9.2 2.3.8 9.7 2.7 16.2 2.7 0 0 .2 0 .6-.1.3.1.6.1.6.1 6.5.1 13.9-1.8 16.2-2.6z"/><path class="st7" d="M1111.3 221.4c.7-2.4.1-2.6-.7-2.4-6.1 1.5-10.2 5.1-26 4.7-9.8-.3-16.8-3.6-17.6-3.1-3.1 2.2 4.6 15.9 16 17.5 17.7 2.6 26.3-10.2 28.3-16.7z"/><path class="st15" d="M1076 148.1c2.6 1.9 4.2 5 4.8 8.3.6 3.3 0 6.7-1 9.8-1.1 3.1-2.6 6-4.2 8.8-1.6 2.6-2.7 4.7-2.5 6.7.1 3.8 5.4 7.2 10.7 8.7 2.7.8 5.6 1.2 8.5 1.2 2.8-.1 5.8-.5 7.9-2.7l.5.3c-1.3 3.1-4.8 4.8-7.9 5.6-3.2.8-6.6.9-9.9.4-3.3-.4-6.6-1.5-9.7-3.4-1.5-1-3-2.2-4.1-3.9-1.2-1.6-1.9-3.8-1.9-5.9-.1-4.3 2.2-7.7 4.3-10 1.9-2.2 3.6-4.6 4.9-7.1 1.3-2.6 2.1-5.3 2.2-8.2 0-2.8-.9-5.8-2.8-8l.2-.6z"/><path class="st1" d="M782.6 759.9c-22.8-10.8-21.9-5.8-60.5-25.2-31.7-15.9-42-49.6-42-79.3 0-10.7-4.2-20.6-12.1-27.8-13.9-12.6-29.7-15.6-46.4-7.5-14 6.8-23.3 19.4-23.3 35.3 0 29.8-10.3 63.4-42 79.3-38.6 19.4-37.8 14.4-60.5 25.2-41.7 19.8-49 52.4-56.6 93.2h400.1c-7.7-40.8-15-73.4-56.7-93.2z"/><path class="st5" d="M683.6 684.6c-4.8-12.6-3.6-16.3-3.6-29.2 0-10.7-4.2-20.6-12.1-27.8-13.9-12.6-29.7-15.6-46.4-7.5-14 6.8-23.3 19.4-23.3 35.3 0 16.4-3.2 34-11.3 49.2 20.2 15.5 81.9 12.4 96.7-20z"/><path class="st4" d="M839.1 853H439c7.6-40.7 14.8-73.3 56.6-93.2 22.8-10.8 21.9-5.7 60.5-25.2 6.9-3.5 12.8-7.8 17.8-12.7 6.5 25.8 33.2 45.1 65.2 45.1s58.7-19.3 65.2-45.1c5 4.9 10.8 9.2 17.7 12.7 38.6 19.4 37.7 14.4 60.5 25.2 41.8 19.9 49.1 52.5 56.6 93.2z"/><path class="st2" d="M567.1 727.9c-10.4 21.9-15.6 52.1-20.2 75.5-3.4 17.1-5.5 32.9-7.1 49.6H439c7.6-40.7 14.8-73.3 56.6-93.2 22.8-10.8 21.9-5.7 60.5-25.2 4-1.9 7.6-4.2 11-6.7z"/><path class="st14" d="M567.1 727.9c-10.4 21.9-15.6 52.1-20.2 75.5-3.4 17.1-5.5 32.9-7.1 49.6H516c9.2-42.2 26.1-96 37.1-116.8l3-1.5c4-2 7.6-4.3 11-6.8z"/><path class="st2" d="M711.1 727.9c10.4 21.9 15.6 52.1 20.2 75.5 3.4 17.1 5.5 32.9 7.1 49.6h100.8c-7.6-40.7-14.8-73.3-56.6-93.2-22.8-10.8-21.9-5.7-60.5-25.2-4.1-1.9-7.7-4.2-11-6.7z"/><path class="st14" d="M711.1 727.9c10.4 21.9 15.6 52.1 20.2 75.5 3.4 17.1 5.5 32.9 7.1 49.6h23.8c-9.2-42.2-26.1-96-37.1-116.8l-3-1.5c-4.1-2-7.7-4.3-11-6.8z"/><path class="st11" d="M727.3 544.4s4.6-4.8 5.1-10.4c.6-7.1-1.6-13.5-7.7-17.7 2.7-5.3 2.5-13.3-.6-18.3-5.5-8.9-17.2-7.7-17.2-7.7s-1.4-3.9-2.4-6.8c-1-2.7-2.6-5.2-4.8-7.1-4.1-3.4-9.8-4.6-14.9-3.2-1.7-5.1-6.1-9.3-11.3-10.9-5.2-1.5-11.1-.4-15.4 2.9-4-6.6-11.8-10.6-19.5-10.1-7.7.6-14.8 5.7-17.8 12.8-6.1-3.7-14-4.3-20.6-1.7-6.6 2.7-11.8 8.7-13.6 15.6-5.5-1.9-11.9-.8-16.5 2.8-4.5 3.6-6.8 10.7-6.4 15.4-2-.2-9.7-.2-13.9 7.1-5.1 8.9.3 17.4.3 17.4s-10 4.9-10.9 13.3c-.6 5.5 1 11.4 5.2 15.1-3.7 3.3-6.1 9.3-6.1 15 .1 9.7 8.1 13.4 8.1 13.4s-6.6 16 7.6 23.4c3.2 1.7 6.8 2.4 10.4 2.6.7 0 9.2-.2 9-1.1.9 4.7 4.4 8.5 8.6 10.8 4.1 2.3 8.8 3.4 13.5 4.3 23.5 4.4 47.7 5.1 71.4 2 6.7-.9 12.7-1.4 19.4-1.4 6.8 0 14.6-1.5 20.1-5.7 5.3-4.1 6.5-9 9.1-15.1 2.8-6.3 9-5.5 11.6-14.4 2.3-7.8-2.8-13.3-2.8-13.3s8.4-5.2 9.1-13.2c.8-10.3-6.1-15.8-6.1-15.8z"/><path class="st1" d="M687.6 538.4c-10.4-16-31.9-15.6-48.8-16.3-15.6-.7-37.2 1.9-46.6 16.3-6.7 10.4-18.1 35.4-17.6 54.5.5 18.3 2.6 32.7 8.9 50.1 15.5 42.5 38.5 45.2 43.1 46.2 8.5 1.8 18.1 1.8 26.6 0 4.6-1 27.6-3.7 43.1-46.2 6.3-17.4 8.4-31.8 8.9-50.1.5-19.1-10.9-44.1-17.6-54.5z"/><path class="st7" d="M661.7 646.7c-7.1 3-14.9 3.6-22.5 3.7-7.2.1-14.7-.8-21.4-3.7-.8-.3-2 .3-.7 2.4 4.8 7.5 12.8 15 22.2 15.6 10.1.6 18.1-7.7 23.1-15.6 1.4-2.2.1-2.7-.7-2.4z"/><path class="st6" d="M666.4 582.9c-1.6-.1-3.2-.3-4.6-.5-1.3-.2-2.7-.9-3.5-1.9-.8-1.1-1.1-2.7-.3-3.8.6-1 1.7-1.4 2.8-1.8 2.9-1 5.8-1.8 8.8-1.6 3.4.2 6.7.8 10.1.8 5.2.1 10.4 1.4 15 4 .8.4 1.5.9 2 1.6.5.7.6 1.8.1 2.4-.6.7-1.7.8-2.6.8-7.8 0-15.7.1-23.5.1-1.4 0-2.9 0-4.3-.1zm-53.3 0c1.6-.1 3.2-.3 4.6-.5 1.3-.2 2.7-.9 3.5-1.9.8-1.1 1.1-2.7.3-3.8-.6-1-1.7-1.4-2.8-1.8-2.9-1-5.8-1.8-8.8-1.6-3.4.2-6.7.8-10.1.8-5.2.1-10.4 1.4-15 4-.8.4-1.5.9-2 1.6-.5.7-.6 1.8-.1 2.4.6.7 1.7.8 2.6.8 7.8 0 15.7.1 23.5.1 1.4 0 2.9 0 4.3-.1z"/><path class="st17" d="M667.7 601.4c-.5 3.7 1.6 7 4.7 7.5 3.1.4 6-2.3 6.5-6s-1.6-7-4.7-7.5c-3.1-.4-6 2.3-6.5 6zm-56.2 0c.5 3.7-1.6 7-4.7 7.5-3.1.4-6-2.3-6.5-6s1.6-7 4.7-7.5c3.1-.4 6 2.3 6.5 6z"/><path class="st5" d="M638.4 592c1.1 2.5 1.2 5.1 1.3 7.8.1 2.6-.1 5.2-.5 7.8-.3 2.6-.8 5.1-1.3 7.7-.5 2.5-1.2 5.3-1.6 7.3-.7 4.3 0 8.7 2.8 10.3 1.3.9 3.2.9 5.1 0 1.9-.9 3.7-2.7 5.3-4.7l.5.2c-.5 2.6-1.5 5.3-3.8 7.3-1.1 1-2.5 1.8-4.2 2.2-1.6.4-3.5.3-5.1-.3-3.4-1.3-5.6-4.4-6.4-7.4-.9-3.1-.5-6.2.2-9 .8-2.9 2-4.9 2.8-7.3.9-2.3 1.7-4.7 2.3-7.1 1.2-4.8 2.6-9.8 2-14.7l.6-.1z"/><path class="st12" d="M709.1 591.3c-.6-.1-2.5-1.1-3.6-1.7-2.5-1.3-4-2.2-5.4-2.2-.2 0-.4 0-.6.1-.2-.1-.4-.1-.6-.1l-59 .4c-.1 0-.2 0-.3.1-.1 0-.2-.1-.3-.1l-59-.4c-.2 0-.4.1-.6.1-.2 0-.3-.1-.5-.1-1.4 0-3 .9-5.4 2.2-1.1.6-3.1 1.7-3.6 1.7-1.1 0-1.9.9-1.9 2s.9 1.9 1.9 1.9c1.4 0 3-.9 5.4-2.2 1.1-.6 3-1.7 3.6-1.7.2 0 .3-.1.5-.1s.3.1.5.1h.7c-.6 8.5 1.5 14.8 7.1 21.1 4.6 5.2 11.2 8.1 18.2 8.1 6.9 0 12.9-2.8 17.2-7.8 5.6-6.5 7.6-12.3 7.4-21.1l8.4.1c.1 0 .2 0 .3-.1.1 0 .2.1.3.1l8.4-.1c-.2 8.8 1.8 14.6 7.4 21.1 4.3 5 10.3 7.7 17 7.8 7.2 0 13.8-3 18.4-8.1 5.6-6.3 7.7-12.6 7.1-21.1h.7c.2 0 .4-.1.5-.1.1.1.3.1.5.1.6.1 2.5 1.1 3.6 1.7 2.5 1.3 4 2.2 5.4 2.2 1.1 0 1.9-.8 1.9-1.8.2-1.1-.6-2-1.6-2.1zm-88.5 18.9c-3.5 4.1-8.5 6.4-14.1 6.4-6.1 0-11.6-2.4-15.4-6.8-5-5.7-6.7-10.8-6.2-18.5l42.2.3c.1 7.9-1.6 12.8-6.5 18.6zm67.5-.5c-3.9 4.4-9.3 6.8-15.4 6.8-5.6 0-10.6-2.3-14.1-6.4-4.9-5.7-6.7-10.7-6.4-18.6l42.2-.3c.5 7.7-1.2 12.9-6.3 18.5z"/><path class="st11" d="M717.3 591.5c.3-1.7 0-3.7-.1-5.6-.2-4.6-.6-9.1-1.1-13.7-1.4-10.9-3.5-22.1-9.9-31.2-5.9-8.3-13.5-15.3-22.2-20.4-21.2-12.3-48.9-11.7-72.1-5.8-11.7 3-22.6 11.1-30.8 19.8-11 11.7-18.4 26.1-21.6 41.8-.6 3.1-1.1 6.3-.1 9.3 1.7 5.4 10.1 8.4 14.6 4.5 1.7-1.5 3.5-4.6 4.4-6.7.6-1.3 2.1-8.7-.3-9.3 3.9.9 8.3-.2 11.3-2.8 3-2.6 5.2-7.8 4.3-11.7 4.4 2.2 9.8 2.3 14.3.2 4.8-2.3 7.4-6.3 9.1-11.1-.4 1.1 8 2.6 8.8 2.6 3.9-.2 7.4-1.8 10.3-4.4 2.9-2.6 3.3-5.8 3.9-9.6l.6 1.2h-.7c.6.6 1.2 1.1 2 1.5 1.8 1.7 6.8 2.7 9.1 3.1 4 .8 8.2.7 12.1-.4 6-1.7 11.3-5.6 14.7-10.9-1.7 2.7 3.8 9.3 5.6 10.8 2.7 2.3 7.5 4.8 10.9 5.7-2.2.9-1.4 8.7-.7 10.7 1.3 3.5 4.6 6.1 8 7.4-1.6-.6-2.7 6.3-2.8 7.4-.5 4.2-.6 7.9 1.4 11.8 2.3 4.3 8.5 10.4 14 8.8 1.8-.3 2.7-1.5 3-3zm-37.2-74.4l.1-1.4c.6.4 1.1.9 1.6 1.3-.5 0-1.1 0-1.7.1z"/><path class="st1" d="M719.3 607.9c-2.4 6.7-7.2 15.2-13.1 19-5.8 3.7-9.9.8-10.3-6.4-.5-7.4 1.2-19.8 6.4-25.2 5.2-5.5 15.5-5.2 18.1 3.2.7 2.6.2 5.9-1.1 9.4zm-160.6 0c2.4 6.7 7.2 15.2 13.1 19 5.8 3.7 9.9.8 10.3-6.4.5-7.4-1.2-19.8-6.4-25.2-5.2-5.5-15.5-5.2-18.1 3.2-.7 2.6-.1 5.9 1.1 9.4z"/><path class="st21" d="M1308.9 855.8c-20.3-87.5-27.2-105.6-111.5-122.3-33.4-6.6-33.3-17.8-35.5-50.5-.7-10.9-6.1-20.4-14.7-27-14.6-11.2-30.5-13.5-47.3-6.3-14 6-24.6 17.6-25.6 33.2-2.2 32.7-2.1 43.9-35.5 50.5-84.3 16.7-91.2 34.7-111.5 122.3h190.8l190.8.1z"/><path class="st21" d="M1165.6 690.1c-.1-1.7-1.9-2.8-3.5-2-10 5.4-20.2 6.4-25.1 7.3-12.2 2.1-25.8 2.2-38.1 0-4.9-.9-15.1-1.9-25.1-7.3-1.5-.8-3.4.3-3.5 2-.2 4.4-.4 7.9-.9 11.2-.1.9.4 1.6 1 2.4 11.9 16.4 33.8 21 52.9 19.5 15.6-1.2 32.5-6.3 42.1-19.5.5-.8 1.1-1.4 1-2.4-.3-3.2-.6-6.8-.8-11.2z"/><path class="st22" d="M1079.9 855.8H927.2c20.3-87.5 27.2-105.6 111.5-122.3 15.7-3.1 24-7.3 28.6-14.2 1.2 45.8 5.4 91.4 12.6 136.5z"/><path class="st23" d="M1079.9 855.8h-37.6l-7.9-19c-3.8-9.1-7.7-18.5-7.7-28.3 0-9.9 4.7-20.4 13.7-24.3-7.8.8-14.2-7.2-14.7-15s3.9-14.9 7.1-22c2.1-4.7 4.2-9.6 5.7-13.6h.3c3.9-.8 7.4-1.6 10.4-2.6.8-.2 1.5-.5 2.2-.7 3.6-1.2 6.6-2.6 9.1-4.3.5-.3.9-.6 1.4-.9.5-.3.9-.7 1.3-1 1.7-1.4 3.1-3 4.2-4.7 1.1 45.7 5.3 91.3 12.5 136.4z"/><path class="st22" d="M1156.3 855.8H1309c-20.3-87.5-27.2-105.6-111.5-122.3-15.7-3.1-24-7.3-28.6-14.2-1.2 45.8-5.4 91.4-12.6 136.5z"/><path class="st23" d="M1156.3 855.8h37.6l7.9-19c3.8-9.1 7.7-18.5 7.7-28.3 0-9.9-4.7-20.4-13.7-24.3 7.8.8 14.2-7.2 14.7-15s-3.9-14.9-7.1-22c-2.1-4.7-4.2-9.6-5.7-13.6h-.3c-3.9-.8-7.4-1.6-10.4-2.6-.8-.2-1.5-.5-2.2-.7-3.6-1.2-6.6-2.6-9.1-4.3-.5-.3-.9-.6-1.4-.9-.5-.3-.9-.7-1.3-1-1.7-1.4-3.1-3-4.2-4.7-1.1 45.7-5.3 91.3-12.5 136.4z"/><path class="st24" d="M1165.5 703.7c-.5.7-1 1.4-1.7 2.1.2.9.3 1.6.5 2.4-20.8 37.8-87 40.2-96.8 10.8 2.3-3.6 3.7-7.9 4.5-13.2-.6-.7-1.1-1.4-1.6-2.1-.5-.7-1.1-1.4-1-2.4.5-3.3.7-6.8.9-11.2.1-1.7 1.9-2.8 3.5-2 10 5.4 20.2 6.4 25.2 7.3 12.2 2.2 25.8 2.1 38.1 0 4.9-.9 15.1-1.9 25.1-7.3 1.5-.8 3.4.3 3.5 2 .2 4.3.4 7.9.9 11.2.1 1-.5 1.7-1.1 2.4z"/><path class="st25" d="M1198.9 590.3c-2-23.6-7-23.1-14.2-40.2-5.5-13-16.1-22.9-25.5-27.5-12.4-6.1-26.8-8.1-41-7.6-14.2-.6-28.6 1.5-41 7.6-9.4 4.6-20 14.5-25.5 27.5-7.2 17.2-12.2 16.6-14.2 40.2-.2 2.2-.2 9.1 0 12.7 9.7-2.6 11.5 14.5 11.8 23.2.7 16.5 3.3 14.7 3.3 14.7 12.6 7.9 25.9 8.6 35.3 10.8 7 1.6 19.8 1.1 29 .5.4 0 .9 0 1.3-.1.4 0 .9 0 1.3.1 9.2.5 22 1.1 29-.5 9.4-2.2 22.7-2.8 35.3-10.8 0 0 2.6 1.8 3.3-14.7.4-8.8 2.1-25.8 11.8-23.2.2-3.6.2-10.5 0-12.7z"/><path class="st25" d="M1198.9 603c-.2 0-.3-.1-.5-.1-9.3-1.9-11 14.7-11.3 23.3-.7 16.5-3.3 14.7-3.3 14.7-2.7 1.7-5.4 3-8.1 4.1-10 4.2-19.8 4.9-27.2 6.6-3.5.8-8.3 1.1-13.4 1.1-5.3 0-10.9-.3-15.6-.6h-2.6c-9.2.5-22 1.1-29-.5-7.5-1.7-17.5-2.5-27.6-6.8-2.6-1-5.1-2.3-7.7-3.9 0 0-2.6 1.8-3.3-14.7-.3-8.8-2.1-25.8-11.8-23.2v-.2c-.2-3.7-.2-10.3 0-12.5 2-23.7 7-23.1 14.2-40.2 5.5-13 16.1-22.9 25.4-27.5 12.4-6.1 26.8-8.2 41-7.6 14.3-.6 28.6 1.4 41 7.6 9.4 4.6 20 14.5 25.5 27.5 7.2 17.2 12.2 16.6 14.2 40.2.3 2.2.3 9.1.1 12.7z"/><path class="st1" d="M1181.5 627c-.1-3.5.2-7.1.2-10.6 0-6.3-.9-14.5-4.1-19.9-1.1-1.9-2.8-2.8-4.3-4.4-1.5-1.6-2.8-3.8-3.7-5.9-.4-.9-.8-1.8-1.1-2.6-4.2-11.2-4.4-15-11.9-23.9-9.6-11.4-25.6-12.5-36.9-12.6h-2.8c-11.3.1-27.4 1.2-36.9 12.6-7.5 8.9-7.7 12.7-11.9 23.9-.3.9-.7 1.8-1.1 2.6-1 2.2-2.2 4.3-3.7 5.9-1.4 1.5-3.1 2.5-4.3 4.4-3.2 5.5-4.1 13.6-4.1 19.9 0 3.5.3 7.1.2 10.6-.1 2-.1 14.3-2.3 14 1.9 14.4 12.1 34.9 14.6 39.6 12 22.9 26 24.9 32.3 27.1 3.8 1.4 7.9 1.8 11.8 2.2 1.8.2 3.6.2 5.4.2h2.8c1.8 0 3.6-.1 5.4-.3 4-.4 8-.9 11.8-2.2 6.2-2.2 20.3-4.2 32.3-27.1 2.5-4.7 12.8-25.2 14.6-39.6-2.3.3-2.2-11.9-2.3-13.9z"/><path class="st1" d="M1183.8 640.9c-.4 2.9-1.1 6.1-2 9.3-3.7 12.7-10.6 26.5-12.6 30.3-12 22.9-26.1 24.9-32.3 27.1-3.8 1.4-7.8 1.8-11.8 2.2-1.8.2-3.6.2-5.4.2h-2.8c-1.8 0-3.6-.1-5.4-.3-4-.4-8-.9-11.8-2.2-6.2-2.3-20.2-4.2-32.3-27.1-2-3.8-8.9-17.6-12.6-30.4-.9-3.2-1.6-6.4-2-9.2 2.2.3 2.2-12 2.3-14 .1-3.5-.2-7.1-.2-10.6 0-.9 0-1.8.1-2.8.2-5.8 1.2-12.5 4-17.2 1.1-1.9 2.8-2.8 4.3-4.3 1.5-1.6 2.8-3.8 3.7-5.9.4-.9.8-1.8 1.1-2.6 4.2-11.2 4.4-15 11.9-24 9.6-11.4 25.6-12.5 36.9-12.5h2.8c11.3.2 27.4 1.2 37 12.6 7.5 8.9 7.7 12.7 11.9 24 .3.9.7 1.7 1.1 2.6 1 2.2 2.3 4.3 3.8 5.9 1.4 1.6 3.1 2.4 4.2 4.3 2.6 4.5 3.7 11 4 16.6 0 1.2.1 2.3.1 3.3 0 3.5-.3 7-.2 10.6 0 2.2-.1 14.4 2.2 14.1z"/><path class="st5" d="M1113.5 613c2.3 4.5 3.2 9.5 3.6 14.5.2 5-.3 10.1-1.5 15.1-.2 1.3-.6 2.5-1 3.7-.1.5-.4 1.4-.4 1.7-.1.3 0 .6 0 .8.1.6 1.2 1.7 2.9 2.5 3.4 1.4 8 2.2 11.7-1.1l.5.3c-.4 2.7-2.8 5.1-5.5 6-2.7 1-5.7 1.1-8.7.3-1.4-.5-2.9-1.2-4.2-2.3-1.3-1.2-2.4-3.1-2.5-5.2 0-1 .2-2 .5-2.9.3-.9.5-1.2.8-1.8.5-1.1 1-2.1 1.3-3.3 1.6-4.4 2.7-9 3.1-13.8.4-4.7.2-9.6-1.2-14.2l.6-.3z"/><path class="st21" d="M1148 643.9h-2.5c-2.5-.1-4.9-.2-7.3-.5l-.6-.1c-3.1-.3-6.6-.7-8.5-4.8-1.4-3-1.7-6.4-1.9-9-.2-2.7-.1-5.2.3-7.6.2-1.4.5-3 1.3-4.5.9-1.5 2.4-2.6 4.5-3.3 2.9-1.1 6-1.2 8.7-1.3 4.1-.1 8.2.1 12.3.4.7 0 1.5.1 2.2.1 6.2.3 12.6.5 12.6 13.2 0 12-1.3 15.4-10.1 16.7-3.4.4-7.1.7-11 .7zm-3.6-27.3h-2.1c-2.4.1-5.1.2-7.5 1.1-1.3.5-2.1 1-2.5 1.7-.5.8-.7 1.9-.8 3.1-.3 2.1-.4 4.4-.3 6.8.1 2.2.4 5.1 1.5 7.6.9 2 2.3 2.3 5.4 2.6l.6.1c2.2.3 4.6.4 6.9.5 4.6.1 8.9-.1 12.8-.7 5.8-.8 6.8-1.3 6.8-12.9 0-8.9-2.8-9-8.8-9.3-.7 0-1.5-.1-2.2-.1-3.3-.3-6.6-.5-9.8-.5zm-56 27.3c-3.9 0-7.5-.3-11-.7-8.8-1.3-10.1-4.7-10.1-16.7 0-12.6 6.4-12.9 12.6-13.2.7 0 1.4-.1 2.2-.1 3.9-.2 8.7-.5 13.4-.3 2.7.1 5.6.4 8.3 1.5 3.9 1.7 4.9 4.9 5.3 8.1.3 2.7.4 5.5.1 8.4-.2 2.5-.7 5.7-2.2 8.4-1.9 3.5-5.7 3.8-8.5 4.1l-.9.1c-2.3.2-4.6.4-7 .4h-2.2zm-6.1-26.9c-.8 0-1.5.1-2.2.1-6.1.3-8.8.4-8.8 9.3 0 11.6 1 12 6.8 12.9 3.8.6 8 .8 12.4.7 2.3-.1 4.5-.2 6.7-.4l1-.1c2.8-.3 4.6-.5 5.5-2.1 1.1-2.1 1.5-4.7 1.7-6.8.2-2.6.2-5.2-.1-7.6-.4-3.1-1.1-4.2-2.9-5-2.2-.9-4.7-1.1-6.9-1.2-4.7-.3-9.4 0-13.2.2z"/><path class="st21" d="M1129.2 630.4c-.3 0-.6-.1-.8-.2-2.6-1.2-6.3-2-9.9-2h-.5c-3.6.1-7.3.8-9.8 2-1 .4-2.1 0-2.6-.9-.5-1 0-2.1.9-2.6 3-1.4 7.3-2.3 11.5-2.4h.6c4.2.1 8.5 1 11.5 2.4 1 .5 1.4 1.6.9 2.6-.4.7-1.1 1.1-1.8 1.1zm-60.3-7.3c-.5 0-1-.2-1.4-.6-6.3-6.3-23-13.3-27.3-14-1.1-.2-1.8-1.2-1.6-2.2.2-1.1 1.2-1.8 2.2-1.6 4.8.7 22.6 8.1 29.5 15.1.8.8.8 2 0 2.7-.5.4-.9.6-1.4.6zm98.3 0c-.5 0-1-.2-1.4-.6-.8-.8-.8-2 0-2.7 6.9-6.9 24.7-14.3 29.5-15.1 1.1-.2 2 .6 2.2 1.6.2 1.1-.6 2.1-1.6 2.2-4.3.7-21.1 7.7-27.3 14-.4.4-.9.6-1.4.6z"/><path class="st1" d="M1181.7 650.3c.9-3.3 1.6-6.4 2-9.3 0 0 2.6 1.8 3.3-14.7.4-8.6 2-25.2 11.3-23.3 1.5 1 2.7 2.9 3.3 5.9 2.1 8.4-5.5 34.8-19.9 41.4zm-127-.1c-.1 0-.2 0-.3-.1-14.4-6.5-22.1-33-20.2-41.6.7-3 1.8-4.8 3.3-5.8v.2c9.7-2.6 11.5 14.4 11.8 23.2.7 16.5 3.3 14.7 3.3 14.7.5 3 1.2 6.2 2.1 9.4z"/><path class="st25" d="M1148.4 676.8c-1.7-5-5-9.5-10.3-12.9-11.5-7.4-27.5-7.5-39.1 0-5.3 3.4-8.6 7.9-10.3 12.9-3.3 9.4-1 20.8 4 30.5 11 21.4 40.7 21.5 51.7 0 5-9.8 7.3-21.1 4-30.5zm-53.9-67.8c.3.1.5.1.8.2 3 .9 8.5 4 11.2.8 2.6-3.2-1.2-6.1-4.1-6.6-1.4-.2-3-.3-4.2-1.1-1.3-.8-2.3-2.2-3.7-2.7-1.5-.6-3.2 0-4.7.8-1.4.8-2.7 1.8-4.3 2.3-2.8.9-4.9-.9-7.6-.9-2 0-4.2.7-6 1.3-1.7.6-3.4 1.3-4.8 2.4-.7.6-3.6 3.9-1.6 4.7 2 .8 4.8-1 6.7-1.5 2.9-.8 6-1.2 9.1-1.3 4.4-.1 8.9.4 13.2 1.6zm47.4 0c-.3.1-.5.1-.8.2-3 .9-8.5 4-11.2.8-2.6-3.2 1.2-6.1 4.1-6.6 1.4-.2 3-.3 4.2-1.1 1.3-.8 2.3-2.2 3.7-2.7 1.5-.6 3.2 0 4.7.8 1.4.8 2.7 1.8 4.3 2.3 2.8.9 4.9-.9 7.6-.9 2 0 4.2.7 6 1.3 1.7.6 3.4 1.3 4.8 2.4.7.6 3.6 3.9 1.6 4.7-2 .8-4.8-1-6.7-1.5-2.9-.8-6-1.2-9.1-1.3-4.4-.1-8.9.4-13.2 1.6z"/><path class="st17" d="M1144.8 626.8c-.5 3.7 1.6 7 4.7 7.5 3.1.4 6-2.3 6.5-6s-1.6-7-4.7-7.5c-3.1-.3-6 2.3-6.5 6zm-53.8 0c.5 3.7-1.6 7-4.7 7.5-3.1.4-6-2.3-6.5-6s1.6-7 4.7-7.5c3.1-.3 6 2.3 6.5 6z"/><path class="st7" d="M1118.9 690.9c9-.7 15-6.5 19.8-13.3 1.3-1.8.1-2.3-.6-2-5.6 2.1-12.8 3.2-20.4 3.1-12.7-.2-20.4-3.4-21.1-2.9-2.9 1.9 7.7 11.5 9.3 12.3 3.9 2 8.5 3.1 13 2.8z"/><path class="st26" d="M766.5 950.4c11.5 10.3 19.8 24.2 17.2 60.3-1.7 24.3 9 48.3 13.4 71.9 5.1 27.5 1.7 54.3-19.2 74.6-29.2 28.3-76.5 30.6-102.5-3.7-40.5-53.5 2.9-111.2 21-137.4 11-15.9 21.4-42.4 24.7-62 3.3-19.6 32.5-15.3 45.4-3.7z"/><path class="st2" d="M724.9 945.3c3.9 1.9 6.7 5.5 10.2 8.2 2.1 1.6 4.6 2.9 6.6 4.7 4.3 3.8 6.7 9.5 6.8 15.3.2 5.7-1.6 11.4-4.5 16.4-1.4 2.3-3.3 4.8-6 4.9-1.6.1-3.1-.7-4.5-1.5-10.1-5.5-33.6-15.7-37.2-27.9-3.7-13.1 17.9-25.4 28.6-20.1z"/><path class="st26" d="M766 1012.6c-4.4-21.4-20.9-35.5-36.7-43.9-44.2-23.5-77.9-4.8-94.2 2.1-9 3.8-26.7.6-38.6 15.7-6.7 8.4-6.6 27.3 7.8 32.3 3.3 1.2-7.2 17.6-2.8 53.7 2.1 17 13.2 35.3 25.4 47.5 7.9 8 13.3 12.5 24.5 13.7 10 1 18 6.9 27.9 5.2 23.8-4 46.6-5.1 61.1-39.2 6.3-14.9 34.6-43.2 25.6-87.1z"/><path class="st1" d="M712 1099.2c0 28-16.5 59.3 8.5 82.3 14.4 13.3 40.8 14.7 61.5 21.9 32.8 11.4 46.3 48.5 53.1 82.1H509.7c7.4-27 21.6-53.4 41.1-70.2 18.6-16 48-16 66.8-37.2 10.2-11.6 9.8-48.1 5-89.9-4.2-36.1 89.4-37.7 89.4 11z"/><path class="st14" d="M835 1286.8l-325.4-.1c7.3-27 21.6-54.6 41.1-71.5 16.4-14.2 41.3-15.8 59.8-30.6 2.5 20.3 28.7 32 43.1 33.2 27.7 2.1 55.3-9 69.9-33.8 14.9 11 39.1 12.6 58.4 19.3 32.9 11.5 46.4 50 53.1 83.5z"/><path class="st20" d="M636.6 1286.8H504c7.3-27 21.4-58.4 47.1-73.9 19-11.4 35.7-15.1 52.6-23.4 7.6 14.3 23.9 52 32.9 97.3zm208.9 0H679.7c9.5-27 42.2-86.7 52.2-97.9 14.6 6.9 33.9 9.5 50.1 14.5 40.7 12.6 56.8 49.9 63.5 83.4z"/><path class="st24" d="M624 1102.8c3 31.4 3.1 58.5-3.5 71.1 20.3 12.7 61.4 9.9 86.3-21.7-1.1-17 5.1-35.5 5.2-52.7-27.7 1.6-59.1 2.3-88 3.3z"/><path class="st1" d="M725.2 1076.9c-3.5-3-2.1-18.4-1.7-26.3.4-7.8-2.5-15.8-7.8-21.5-11.5-12.3-25.8-8.7-40.4-6-11.1 2.1-23.5 3.1-34.3-.5-11.8-3.9-21.1-5.4-28.6-2.6-3.4 10.4-6.3 20.8-7.6 34.2-1 10.8 3.2 18.8 1.4 29.5-2.2 12.6-1.8 17.9 1.5 27.7 4.2 12.6 10.6 24.4 18 33.1 10.4 12.2 20.1 19.2 40.1 14.9 15.2-3.3 28.2-11.4 38.5-23.4 4.4-5.1 9.1-15.6 12.3-21.4 4.2-7.5 5.4-9.2 7.8-17.5 1.9-6.5 2.6-18.7.8-20.2z"/><path class="st1" d="M718.6 1083.6c.1-.3 3.1-4.8 4.4-6.7 2.4-3.6 9.3-9 14.3-3.2 3.9 4.5-.5 15.4-6.3 24.9-5.4 8.8-15.4 15.6-17.3 15.8-2 .2 4-26.9 4.9-30.8z"/><path class="st24" d="M648.3 1063.7c1.3 4.1 2.5 8.3 3.4 12.6.9 4.2 1.5 9-.4 13.8-.9 2.3-2.3 4.3-3.7 6.1-1.5 1.8-1.5 2.9-1.4 3.3 0 .6 1 2.1 2.5 3.4 1.4 1.4 3.1 2.6 4.9 4.2l-.2.6c-2.4.3-4.7 0-7-.8-1.1-.4-2.3-1-3.4-1.9-1.1-.9-2.2-2.2-2.7-4-.5-1.8 0-3.9.8-5.1.8-1.3 2-2.4 2.6-2.9 1.5-1.4 2.7-2.8 3.6-4.5 1.8-3.2 1.9-7.4 1.6-11.6-.2-4.2-.8-8.5-1.3-12.8l.7-.4z"/><path class="st7" d="M631.1 1119.5c-.2-1.1 1.2-2.2 2.5-1.8 9.3 2.9 24.2 6.7 41 2.4 10.8-2.7-2.2 13.6-10.4 16.6-10.7 4-19.2 1.4-25.2-3.7-4.8-4.1-7.2-9.7-7.9-13.5z"/><path class="st17" d="M628.7 1077.8c-.6 3.2-3.4 5.3-6.3 4.7-2.8-.6-4.6-3.6-3.9-6.8.6-3.2 3.4-5.3 6.3-4.7s4.5 3.6 3.9 6.8zm64.4 6.3c-.9 3.3-4 5.3-7 4.5-2.9-.8-4.6-4.1-3.7-7.4.9-3.3 4-5.3 7-4.5 2.9.8 4.6 4.1 3.7 7.4z"/><path class="st26" d="M676.2 1059.5c4.5-3.3 10.3-3.5 15.8-3.5 5.6 0 12.7 1.6 18 4.8 3.9 2.3 8.3 7.3 7.3 8.4-.8.9-6-3.5-6.6-3.8-8.7-5.6-20.4-3.5-29.6-.1-1.9.7-4.6.8-5.6-.7-.8-1.4-.5-4.2.7-5.1zm-40.7-1.9c-3.2-4-7.7-5-12-5.8-2.8-.5-5.8-.5-8.6 0-4.1.7-9.6 2.4-10.2 7.3-.1.4 0 1.2.6 1 .2-.1.4-.2.5-.3 1.7-1.3 3.5-2.6 5.5-3.2 2.4-.7 5.1-.6 7.5-.3 4.2.6 8.3 2.5 11.8 4.8.1.1.3.2.4.3 1.4 1 3.4 2.6 4.4 1.2.8-1 .9-3.9.1-5z"/></svg>