<svg version="1.1" id="Ñëîé_9__x28_êîïèÿ8_x29_" xmlns="http://www.w3.org/2000/svg" x="0" y="0" viewBox="0 0 1313 1299.1" xml:space="preserve"><style>.st0{fill:#fda68a}.st1{fill:#d9886e}.st2{fill:#af6c51}.st3{fill:#ed6b55}.st4{fill:#fff}.st5{fill:#42210b}.st6{fill:#242b45}.st7{fill:#c28976}.st8{fill:#a3c6d4}.st11{fill:#ccc}.st12{fill:#805354}.st13{fill:#485a7e}.st14{fill:#2c3b5a}.st16{fill:#754c24}.st17{fill:#9c4345}.st18{fill:#fad4b0}.st19{fill:#82383a}.st20{fill:#333}.st23{fill:#7f7c80}.st24{opacity:.14}.st25{fill:#4f3e36}.st26{fill:#6b393a}.st28{fill:#33271b}</style><path class="st0" d="M669.7 670.1c0 27.8-16.3 51 8.4 73.9 14.3 13.2 61 27.1 77.3 39 24 17.5 36.5 33.2 40.1 71.9h-331c7.7-32.1 20.4-51.4 32.9-63 23.1-21.5 64.4-35.2 78.7-51.3 10.2-11.5 9.7-39.9 4.9-81.3-4.1-35.8 88.7-37.4 88.7 10.8z"/><path class="st1" d="M665.3 722.8c-3.2-15.3 3.4-31.2 4.3-49.1-23.3 1.9-60.1 4-86.6 5.5.1 1.7.3 3.4.4 5 0 .4.1.7.1 1.1l.3 4.5c0 .4 0 .8.1 1.2.1 1.5.2 2.9.2 4.3v.7c.2 4.3.2 8.4.1 12.2v1.8c0 .9-.1 1.8-.1 2.7 0 .7-.1 1.3-.1 2-.1.8-.1 1.6-.2 2.4-.1.7-.1 1.4-.2 2-.1.7-.2 1.4-.2 2.1-.1.8-.2 1.6-.4 2.4-.1.7-.2 1.3-.4 1.9-.2 1-.4 2-.7 2.9-.1.4-.2.9-.4 1.3-.2.7-.4 1.4-.6 2-.1.4-.3.8-.5 1.2-.2.6-.5 1.2-.8 1.8-.2.4-.3.7-.5 1.1-.3.6-.6 1.2-1 1.7-.2.3-.3.5-.5.8-.5.8-1.1 1.5-1.6 2.2-.3.4-.7.7-1.1 1.1 29.9 16.2 77.5-1.1 90.4-18.8z"/><path class="st2" d="M626.9 489.1c-1.7 1.9-2.7 4.5-5.5 4.9-2.1.4-4.3-.4-6.2-1.3-1.9-.9-3.8-2.1-5.9-2.6-4.7-1.2-9.3.9-12.5 4.3-3.8 4.1-4.9 9.9-11.3 9.8-6.7-.1-12.2-5.9-18.2.3-3.5 3.6-4.2 9.1-8.6 12-4.8 3.1-11.3 1-15.8 4.7-5.5 4.6-3 12.5-6.5 17.9-4.7 7.4-15.3 9-14.1 20 .4 3.5 2.1 7 1.6 10.5-1 6.4-8.8 9.9-10.3 16.2-1.5 6.3 3.8 12.4 3 18.8-.5 3.9-3.2 7.2-4.8 10.8-1.5 3.5-1.3 7 .7 10.2 1.8 2.9 5.6 4.6 6.6 8 2.2 7.5-7.2 13.8 1.2 20 2.5 1.9 6.9 2.3 8.7 5 2.1 3.2.2 8.7.9 12.4.6 3.2 2.2 6.4 5 8.2 2.7 1.7 6 1.9 9 2.9 6.2 2 5.9 9 11.1 11.7 4.3 2.3 10.5-.8 14.1 2.5.9.9 1.5 2 2.3 3 2.8 3.5 8 4.2 12.4 3.3 4.4-1 8.4-3.3 12.6-4.9 12.5-4.8 24.4-4.7 36.4 1.3 7.5 3.8 16 7.9 23.9 5.3 4.4-1.4 8.4-4.9 13-4.2 5.1.7 9 6.5 14 5.4 4.7-1 6.5-7.2 11-8.7 3.7-1.2 7.8 1.2 11.7.7 3.2-.4 5.8-2.9 7.3-5.7 3-5.7 1.8-10.1 8.7-12.4 4.3-1.5 10.5-.9 13.2-5.3 2.3-3.7.2-8.4 2.1-12.2 1.7-3.7 6.1-4 9-6.7 5.3-4.8 2.3-12.2 1.4-18.4-.2-1.1-.3-2.3-.1-3.4.8-4.4 5.4-7.1 6.1-12 .6-3.7-1.3-7.3-2.2-10.9-1.5-6.1 5-10.7 5-16.5.1-7.3-11.1-8.6-10.4-16.3.4-5 4.8-9.8 3.1-15-1.5-4.5-7.3-6.3-9-10.7-1.6-4.1.9-8.9-1-12.8-2-4-6.4-4.5-10.1-6.1-6.2-2.7-2.7-12.2-6.7-17.1-3.6-4.3-9.6-1.4-14.1-2.9-4.3-1.4-3.4-3.3-4.7-7.2-2.9-8.6-9.8-11-18.3-9.2-1.9.4-3.9.9-5.9.5-5.8-1.2-6.9-10-14-10.1-5.5-.1-9.7 6.2-15.2 5.2-5.7-1.1-8.1-8.4-14.7-8.2-3.4.1-6.5 2.3-8.7 4.7-.2.1-.2.2-.3.3z"/><path class="st0" d="M568.2 624.3c1.7 9.1-2.8 27.1 2.9 54 6 28.3 25.5 40.9 42.4 44.2 26.5 5.1 56.1-6.5 73.9-50.1 9.1-22.3 9.7-49.7 9.1-57.1-.9-10.8-1-21.2-3.2-30.5-4.7-20-16.7-32.3-31.9-36.7-14.7-4.3-31.4-10.2-62.2.1-15.7 5.1-39 34.1-31 76.1z"/><path class="st2" d="M664.7 536.4c-23.7-8.2-61.5-7.6-86.2 11.8-26.1 20.5-31.3 69.7-14.2 88.1 8-2.9 69.5-23.5 93.2-60.5 0 0 6.6-.4 19.3 15.9 8.2 10.5 12.3 28.1 13.9 41.3 1 7.8-.3 16.6-.3 24.5 0 3.6 2.9 20.8 11.2 14.6 13.5-41.9 10.5-113.6-36.9-135.7z"/><path class="st0" d="M689.2 648.6c.2-.9.5-1.8 1.1-2.5 3-4.4 12-15.5 17.5-8.2 3.6 4.7-.4 15.3-6.1 24.8-5.3 8.8-15.1 15.5-17.1 15.8-1.7 0 3.4-24 4.6-29.9zm-109.3-6.9c.2-4.6-.7-9.2-2.9-13.2-2.8-5.1-7.2-10.1-12.1-6.2-4.6 3.7-3.5 14.9-.4 25.5 2.9 9.8 10.7 18.9 12.5 19.6 1.3.5 2.4-16.5 2.9-25.7z"/><path class="st3" d="M721.9 766.5c-4.3-1.8-8.7-3.7-13-5.6-3.4 17.9-5.3 44.1-5.6 55.1-14.6 7.8-50.2 13.6-85.2 12.4-28.6-1-61.5-10.4-71.8-16.8 2.1-20.8 2.7-31.4 2.9-52.3-2.6 1.4-5.2 2.8-7.8 4.3-2.1 1.1-4.1 2.2-6.2 3.4-1.5 31-7.6 68.9-11 87.7h199c-2.5-34.1-5.3-60.3-1.3-88.2z"/><path class="st2" d="M649.5 626.2c-.7-.2-1.4-.6-2.1-1.2-1.8-1.6-.8-3.5 1.3-4.1 5.3-1.6 11.2-1.9 16.6-1 4 .7 7.8 2 11.3 4 1.1.6 4.5 2.4 4.3 4-.2 2.3-6.4.4-7.6.2-4.4-.8-8.6-1.9-13.1-2.1-2-.1-3.9 0-5.9.2-1.7.2-3.3.4-4.8 0zm-46.4-2.6c.6-.1 1.3-.4 2-.9 1.8-1.3 1.2-3.3-.5-4.2-4.3-2.3-9.2-3.4-14-3.3-3.5.1-6.9.8-10.2 2.4-1 .5-4.2 1.8-4.3 3.3-.1 2.3 5.4 1.3 6.4 1.3 3.8-.2 7.6-.7 11.4-.2 1.7.2 3.3.5 5 1 1.6.4 2.9.8 4.2.6z"/><path class="st1" d="M622.3 631c.3 4.1-.1 8.2-.9 12.4-.9 4.1-2.3 8.1-4.5 12-2.1 3.5-2.7 6.1-2 8.5.9 2.7 3.9 5.4 7.2 7.9l-.2.6c-2.2.1-4.4-.4-6.4-1.3s-4.1-2.4-5.5-4.7c-1.5-2.3-1.7-5.5-.9-8 .7-2.5 2.4-4.5 3.7-5.9 2.4-2.8 4.3-6.3 5.7-9.9 1.5-3.6 2.6-7.5 3.3-11.5l.5-.1z"/><path class="st4" d="M596.4 684c-.1-1.1 1.3-2.3 2.5-1.7 7.3 4 20 9.3 40.6 5.6 10.8-1.9 2.9 9-10.4 12.6-9.8 2.7-16.5.5-23-3.3-5-2.9-9.5-10.7-9.7-13.2z"/><path class="st5" d="M601.9 635.7c.8 3.7-1 7.2-4.1 7.8-3 .7-6.2-1.8-7-5.4-.8-3.7 1-7.2 4.1-7.8 3-.6 6.2 1.8 7 5.4zm56.8 10.1c-1.2 3.7-4.7 5.8-7.8 4.8-3.1-1-4.5-4.9-3.3-8.5 1.2-3.7 4.7-5.8 7.8-4.8 3.1.9 4.5 4.8 3.3 8.5z"/><path class="st6" d="M1178.5 1021.9c-17.3-47.7-57.9-60.6-87.5-60.6-17.6 0-49.9 7.2-74.9 37.4-32.3 39-56.8 158.2-6.9 203.8 37.4 34.3 145.6 17.5 164.6 8.7 54.7-25.6 45.2-77.9 4.7-189.3z"/><path class="st7" d="M1125.5 1109.5c0 28-16.5 59.3 8.5 82.3 14.4 13.3 40.8 14.7 61.5 21.9 32.8 11.4 46.3 48.5 53.1 82.1H923.2c7.4-27 21.6-53.4 41.1-70.2 18.6-16 48-16 66.8-37.2 10.2-11.6 9.8-48.1 5-89.9-4.2-36 89.4-37.6 89.4 11z"/><path class="st8" d="M1066.7 1199.1c23.4 2 45.8-6.3 57.9-19.4 0-.1-.1-.2-.1-.3-6.2-12.7-4.6-26.9-2.3-41.3-13.5 9.2-34.3 16.5-50.2 16.1-15.1-.4-26.3-6.1-32.5-11.6.4 18.2-.9 33-5.3 41.4 0 .1-.1.3-.1.3 4.7 6.7 13.9 13.2 32.6 14.8z"/><path class="st8" d="M1182.3 1295.9h-218c5.2-19.7 19-44.4 29-58.1 12.1-16.6 29.5-38.5 38.9-50.6.7-.8 1.3-1.8 1.9-2.9 4.7 6.6 14 13.2 32.7 14.7 23.4 2 45.8-6.3 57.9-19.4 1.4 2.7 3.1 5.4 5.3 8 3.9 11.2 11.2 24.7 16.5 33.8 12.5 22 27.6 49.3 35.8 74.5z"/><path d="M1037.6 1113.1c3 31.4 3.1 58.5-3.5 71.1 23.5 4.6 61.5-1.4 86.3-21.7-1.1-17 5.1-35.5 5.2-52.7-27.8 1.6-59.1 2.3-88 3.3z" opacity=".2" fill="#4f3e36"/><path class="st7" d="M1012.7 1054.7c1.6 21.1-3.6 23.2-3.5 40.2.2 26.9 32.9 68.5 49.6 69.7 34.5 2.6 62.5-21.5 71-36.2 8.3-14.4 13.1-34 10.8-51.3-2-14.7-.4-37-2.3-46.4-2.3-11.2-13.6-37.3-28.5-43.1-15.5-6-36.5-7.9-59.7.9-12.9 4.9-40.9 20.4-37.4 66.2z"/><path class="st6" d="M1025.2 997.7c24.7-25.5 64.8-31.2 94.6-16.3 11.9 6 23.8 21.7 28 40.3 3.4 15.2 4.8 31.7-.8 48.7-12.1-3.8-27.2-8.3-40.9-10.6-1.1-6.3-1.1-11.6-.6-17.8-2.9 2.3-6 11-6.4 17.6-13.9-1.5-33.8-3.7-47.6-3.3-1.4-9.9-.3-19.4-.5-29.3-6 8.4-8.3 21.8-7.8 30.9.4-1.9-22.9.8-35.2 3.5.3 0-6-39.7 17.2-63.7z"/><path class="st7" d="M1136.4 1074.3c.1-.3 3.3-4.7 4.6-6.5 2.5-3.5 9.7-8.6 14.4-2.6 3.7 4.7-1.1 15.4-7.3 24.7-5.7 8.6-16 15-17.9 15.1-1.8 0 5.2-26.8 6.2-30.7z"/><path d="M1062.8 1060.8c.2 4.5-.2 9-1.2 13.5-1.1 4.4-2.9 8.9-6.1 12.7-2.2 2.2-2.5 2.7-2.4 3.6 0 .8.8 2.5 1.9 4.1 2.2 3.2 5.3 6.4 8.1 10l-.3.5c-4.6-1.2-8.7-3.4-12.2-6.9-1.6-1.8-3.5-4.1-3.5-7.8.1-1.8.9-3.6 2.1-4.7.5-.6 1.3-1.1 1.6-1.4l1.1-.9c3-2.5 5.2-6.2 6.7-10.2 1.7-4 2.8-8.2 3.5-12.6l.7.1z" fill="#b86553"/><path class="st4" d="M1037.8 1123.3c-.3-1.1 1.1-2.3 2.4-1.9 9.4 2.5 24.4 5.7 41.1.7 10.7-3.2-1.7 13.6-9.7 17.1-10.5 4.5-19.2 2.3-25.3-2.6-5-4-7.6-9.5-8.5-13.3z"/><path class="st5" d="M1041.2 1071.7c-.5 3.2-3.2 5.4-6.1 5-2.8-.4-4.7-3.4-4.2-6.6.5-3.2 3.2-5.4 6.1-5 2.8.4 4.7 3.3 4.2 6.6zm58.3 1.9c-.7 3.3-3.8 5.5-6.8 4.8-3-.7-4.8-3.9-4-7.3.7-3.3 3.8-5.5 6.8-4.8 3 .7 4.8 4 4 7.3z"/><path class="st11" d="M1167.8 270.1c-7.4-1-14.2-4-20.6-7.7-6.2-3.5-12-7.8-17.9-11.6-10-6.6-21.3-12.6-33.2-15.6-.3.1-.6.2-.9.2-.3-.1-.6-.2-.9-.2-11.9 3-23.2 9-33.2 15.6-5.8 3.8-11.8 8.1-18 11.7-6.4 3.7-13.1 6.6-20.5 7.7-28.8 4-51.9-24.6-45-52 2.4-9.8 8.3-18.4 11.8-27.8 4.8-13 5.7-26.6 8.7-40 .1-.4.2-.9.3-1.3 9.9-42.1 30-56.9 36.7-60.6 8.4-4.7 20-7.3 19.1-4.6 5.8-17.5 23.4-20 40-20.4h2.2c1.9-.1 3.8-.1 5.6-.1 38.7-.1 80.7 31.5 88.6 69.4 1.3 6.2 1.6 11.8 1.4 17.4 3 13.5 3.9 27 8.8 40.2 3.5 9.4 9.3 18 11.8 27.8 7 27.3-16.1 55.9-44.8 51.9z"/><path class="st12" d="M1229.3 333c-19.4-9.9-60.2-20.6-76.9-30.7-5.6-3.4-9.2-8.8-11.7-15.4 1.6-1.8 2.9-3.6 4-5.5 2-3.7 2.2-19.4.4-22.9-2.5 3.3-5.3 6.3-8.3 9.1-1.1-12.9-.5-27.2-.5-39.9 0-22.4-20.1-34.1-41.1-36.5-.2-.1-.3-.1-.5-.1s-.3 0-.5-.1c-21.1 2.6-41.1 14.2-41.1 36.6 0 12.6.6 26.7-.5 39.5-2.8-2.7-5.5-5.5-7.8-8.6-1.8 3.5-1.6 19.1.4 22.8 1 1.8 2.2 3.5 3.6 5.1-2.4 6.8-6.1 12.4-11.8 15.8-16.7 10.1-57.5 20.7-76.9 30.7-26.4 13.6-37 40.7-40.7 79.4H1270c-3.7-38.6-14.2-65.8-40.7-79.3z"/><path class="st13" d="M1062.6 412.4h-143c3.6-38.7 14.2-65.9 40.7-79.4 19.3-9.9 60.2-20.6 76.9-30.6 2.4-1.4 4.4-3.3 6.2-5.4 4.2 8.9 6.8 18.7 9.4 28.2 8.2 29.4 9.6 59.8 9.8 87.2z"/><path class="st14" d="M1047.2 412.4c2.2-36.8-1.5-73.9-10.9-109.6.3-.2.5-.3.8-.5 2.4-1.4 4.4-3.3 6.2-5.4 4.2 8.9 6.8 18.7 9.4 28.2 8.3 29.5 9.7 59.9 9.9 87.2h-15.4z"/><path class="st13" d="M1126.9 412.4h143c-3.6-38.7-14.2-65.9-40.7-79.4-19.3-9.9-60.2-20.6-76.9-30.6-2.4-1.4-4.4-3.3-6.2-5.4-4.2 8.9-6.8 18.7-9.4 28.2-8.1 29.4-9.6 59.8-9.8 87.2z"/><path class="st14" d="M1142.4 412.4c-2.2-36.8 1.5-73.9 10.9-109.6-.3-.2-.5-.3-.8-.5-2.4-1.4-4.4-3.3-6.2-5.4-4.2 8.9-6.8 18.7-9.4 28.2-8.3 29.5-9.7 59.9-9.9 87.2h15.4z"/><path d="M1144.8 281.4c-1.1 1.9-2.4 3.8-4 5.6-.4.5-.9 1-1.4 1.5-.3.3-.5.5-.9.8-.7.6-1.5 1.2-2.3 1.7-.5.5-1 1-1.6 1.5 0 0-.1.1-.2.1-21.9 19.8-69.4 22.8-90.3 3.2 1.9-2.7 3.5-5.7 4.7-9.2-1.4-1.7-2.6-3.4-3.7-5.2-2-3.7-2.2-19.4-.4-22.8 2.4 3.1 5 6.1 7.8 8.8l3 2.7c10.8 9.1 24.4 15 38.6 15.3 14.4.3 28.6-5.7 39.5-14.8 1-.9 2.1-1.8 3.1-2.7 3-2.8 5.8-5.9 8.3-9.2 1.9 3.2 1.8 18.9-.2 22.7z" opacity=".2" fill="#662d91"/><path class="st0" d="M1162.1 219c-1 3.9-2.3 8.6-4.1 14.4-4.4 14.3-12.7 27.4-24.1 37-10.9 9.1-25.1 15.1-39.5 14.8-14.2-.3-27.9-6.1-38.6-15.3-11.2-9.6-19.3-22.6-23.6-36.6-1.8-5.8-3.1-10.5-4.1-14.4-4.4-17.6-1.2-18.7.7-33.4.1-.5.1-1 .2-1.6 1-8.7 1.9-17.1 3-25 3-21.6 8.3-38.9 27.2-47.7 11.8-5.5 24.4-6.4 35.7-7.2h.5c11.3.7 23.9 1.6 35.7 7.1 18.9 8.8 24.2 26.2 27.2 47.7 1.1 7.8 1.9 16.2 3 25 .1.5.1 1 .2 1.6 1.8 14.8 5 16 .6 33.6z"/><path class="st11" d="M1060.9 89.6c49.1-22 57-2.2 86.7 2.5 49.7 7.8 41.5 63.1 17.9 67.1-25.4 4.3-29.6-15.7-51.1-14.2-28.6 1.9-45.3-.8-55-30.6 0 0-12.7 7.1-20.1 26.3-7.2 18.5-4.7 30-8.1 43.3-6.1 23.9-10.4 24.2-17.9 26.6-3.2-42.7-1.6-103.3 47.6-121z"/><path class="st1" d="M1094.9 184c.8 4.3 1.1 8.7 1 13.2-.2 4.4-1 9-2.7 13.4-1.1 2.4-1.8 3.9-1.9 5.3 0 1.2-.1 1.3 1.2 2.3 2.6 1.7 7.2 2.5 11.4 3.6l.1.6c-2.1 1-4.3 1.5-6.7 1.8-2.3.2-4.8.2-7.4-.9-1.3-.5-2.8-1.5-3.7-3.2-1-1.7-1-3.6-.7-5.1.6-2.9 2.5-5.1 3.4-6.5 2-3.4 3.3-7.4 4.1-11.5.9-4.1 1.3-8.4 1.4-12.8l.5-.2z"/><path class="st16" d="M1093.2 186.8c-4.9 0-8.5-1.2-12.7-2.7-1.7-.6-3.5-1.2-5.5-1.8-11.6-3.3-26.7-.7-34.9 3.3-.9.5-2.1.1-2.6-.9s-.1-2.1.9-2.6c9.1-4.5 25-7.2 37.7-3.6 2.1.6 4 1.2 5.7 1.8 4.5 1.5 8 2.7 13.1 2.4 1-.1 2 .7 2.1 1.8.1 1.1-.7 2-1.8 2.1-.7.2-1.4.2-2 .2z"/><path class="st16" d="M1096.7 186.8c-.6 0-1.3 0-1.9-.1-1.1-.1-1.9-1-1.8-2.1.1-1.1 1.1-1.9 2.1-1.8 5.1.3 8.6-.9 13.1-2.4 1.7-.6 3.6-1.2 5.7-1.8 12.7-3.6 28.6-.9 37.7 3.6 1 .5 1.4 1.6.9 2.6-.5 1-1.6 1.4-2.6.9-8.3-4.1-23.3-6.6-34.9-3.3-2 .6-3.8 1.2-5.5 1.8-4.3 1.4-8 2.6-12.8 2.6zm-32.4 29.5c-6.7 0-12.5-2.4-17.1-7-6.2-6.2-9.8-16.7-9.3-26.7l3.9.2c-.5 8.9 2.7 18.2 8.1 23.7 4.1 4.2 9.4 6.1 15.6 5.8 13-.6 19.6-16.7 20.2-27.9l3.9.2c-.6 12.7-8.5 30.8-23.9 31.6-.5.1-.9.1-1.4.1z"/><path class="st16" d="M1025 188.9h-.2l.3-3.9c1.1.2 8-1.4 13.8-2.9l1 3.8c-3 .7-12.3 3-14.9 3zm139.6 0c-2.7 0-11.9-2.3-14.7-3l1-3.8c5.7 1.4 12.5 3 13.8 2.9l.3 3.9h-.4z"/><path class="st16" d="M1125.6 216.3h-1.4c-15.4-.8-23.3-18.9-23.9-31.6l3.9-.2c.6 11.2 7.2 27.3 20.2 27.9 6.2.3 11.4-1.6 15.6-5.8 5.4-5.5 8.6-14.8 8.1-23.7l3.9-.2c.6 10-3.1 20.5-9.3 26.7-4.6 4.5-10.5 6.9-17.1 6.9z"/><path class="st0" d="M1155.7 193.6c1-3.2 8-19.8 15.8-13.2 4.5 3.8 3 15-.5 25.5-3.2 9.7-11.4 18.5-13.2 19.1-1.8.6-2.1-31.4-2.1-31.4zm-123.9 0c-1-3.2-8-19.8-15.8-13.2-4.5 3.8-3 15 .5 25.5 3.2 9.7 11.4 18.5 13.2 19.1 1.8.6 2.1-31.4 2.1-31.4z"/><path class="st2" d="M1071.3 175.6c.7-.2 1.5-.5 2.2-1 1.9-1.4 1.1-3.4-.9-4.2-5.1-2.1-10.9-2.9-16.4-2.5-4 .3-8 1.3-11.6 3-1.1.5-4.7 2-4.7 3.6 0 2.3 6.4 1 7.6.9 4.4-.4 8.7-1.1 13.2-.9 2 .1 3.9.3 5.8.7 1.7.4 3.3.7 4.8.4zm45 0c-.7-.2-1.5-.5-2.2-1-1.9-1.4-1.1-3.4.9-4.2 5.1-2.1 10.9-2.9 16.4-2.5 4 .3 8 1.3 11.6 3 1.1.5 4.7 2 4.7 3.6 0 2.3-6.4 1-7.6.9-4.4-.4-8.7-1.1-13.2-.9-2 .1-3.9.3-5.8.7-1.7.4-3.3.7-4.8.4z"/><path class="st4" d="M1113.2 240.2c-6 2.1-12.4 3.3-18.8 3.4-6.3.1-12.5-1.3-18.4-3.3-10.6-3.7-4 12.5 8.7 17.2 6.7 2.5 12.9 2.5 19.6 0 12.7-4.7 19.4-20.9 8.9-17.3z"/><path class="st5" d="M1054.9 193c.2 3.9 2.9 6.9 6.2 6.8 3.2-.1 5.7-3.4 5.5-7.3-.2-3.9-2.9-6.9-6.2-6.8-3.2.2-5.7 3.5-5.5 7.3zm79.2 0c-.2 3.9-2.9 6.9-6.2 6.8-3.2-.1-5.7-3.4-5.5-7.3.2-3.9 2.9-6.9 6.2-6.8 3.2.2 5.7 3.5 5.5 7.3z"/><path class="st17" d="M773.9 327.8c-12.5-6.4-26.2-10.6-39.4-15.3-10.7-3.7-22.1-6.4-32.2-12-12.1-6.8-18-17.5-20.2-31-2.7-16.4-1.1-37.2-1.1-47.2 0-22.4-20.1-34.1-41.1-36.5-.2-.1-.3-.1-.5-.1s-.3 0-.5-.1c-21.1 2.6-41.1 14.2-41.1 36.6 0 10 1.6 30.8-1.1 47.2-2 12.2-7.9 24-19.1 30-14.7 7.8-31.4 12.2-47 17.8-8.7 3.1-17.5 6.2-25.7 10.4-26.4 13.6-37 40.7-40.7 79.4h350.4c-3.7-38.4-14.3-65.6-40.7-79.2z"/><path class="st18" d="M814.5 407.3H464.1c3.7-38.7 14.2-65.9 40.7-79.4 8.1-4.2 16.9-7.3 25.5-10.4 62.1 36.1 138.1 36.8 202.9 7.7 3.7-1.6 11.5-7.8 15.3-7.8 8.7 3 17.3 6.3 25.4 10.4 26.4 13.6 37 40.8 40.6 79.5z"/><path class="st19" d="M683 273.9c-.3-1.4-.6-2.8-.9-4.3-2.2-13.5-1.6-30-1.3-40.9-10.4-.2-30.4-1.3-41.5-1.5-11.8-.2-32.7 5-41.4 6.7.3 10.6.5 24.2-1.4 35.7-1.7 10-6 19.8-13.8 26.3 46.3 14.1 85.9-2.5 100.3-22z"/><path class="st6" d="M615.1 70.6c11.1-8.7 22.9-11.5 28.3-12.3 10.6-1.5 22.7-.1 33 2.4 20.7 5.1 39.1 18.7 50 37 6.5 10.8 12.6 24.2 14.7 36.7 8.2 48.4-7.6 94.1-36.8 111.8 6.7 3.1 10 8.9 8.3 16.1-1.7 7.2-9 13.9-16.5 16.6 7.9 1.9 11.7 6.9 9.3 15.3-1.9 6.7-6.5 9.5-12.3 13.3 13 1.9 11.4 16.7-.1 22.2 10.4 11.8 5.2 27 2.3 33.2-2.9 6.1-7.5 11.3-11.1 17.1-3.6 5.8-4.7 12.3-4.3 19.3-6.5-5.4-12-17.7-12.8-29-.8-10.4.2-25.7 9.5-35.9-12.5 2.1-16.6-9.9-13.3-15.4 2.2-3.6 4.3-5.4 8.6-6.6-5.4.1-13.7-1.3-15.6-8-1.4-5.2.1-11.2 4.3-14.5-5.5-2.9-9.1-9-9.2-15.2-.1-6.2 3.5-12.3 8.9-15.3-21.9-3.5-41.1-16.1-59.6-28.3-8.6-5.7-18-12.5-19.9-22.7 4.4 16.5 2.8 35.2-6.6 49.4-8.6 12.9-17.7 12.8-17.4 12.4 5.9-7.6 12.7-28.3 4.4-44.4-9.6-18.8-22.6-43.8-20.4-67.1 3.3-35.5 23.3-68.5 54.2-86.4 6.1-3.5 13.5-4.7 19.4-1.7.4.1.5.1.7 0z"/><path class="st17" d="M702.7 153.9c-3-21.6-8.3-38.9-27.2-47.7-11.7-5.5-24.2-6.4-35.3-7.2h-.7c-11.2.7-23.7 1.7-35.3 7.2-18.9 8.8-24.2 26.2-27.2 47.7-1.1 7.8-2.7 46.9 0 59.9.8 4 5.4 20.8 8.2 26.1 20.2 37.9 40 39.9 54.2 40.2h1c14.2-.3 34-2.3 54.2-40.2 2.9-5.3 7.4-22.1 8.2-26.1 2.7-12.9 1-52-.1-59.9z"/><path class="st6" d="M604.9 76.6c12-5.1 25.3-7.7 39.2-7.8 16.4-.1 32.8 4.7 46.8 13.2 21.1 12.8 35.1 35.7 38 60.1 1.3 11.1.6 23.3-3.1 33.9-2.7 8-16.5 24.3-20.2 10.9-8-29.1-52.8-8-92.7-64.5-7.3 7-31.5 19.1-39.2 69.2-.5 3.5-5.8 7.6-9.5 8.3-8.1 1.5-12.7-10.3-15.7-24.2-3.7-17.3 2.7-37.8 10.1-53.9 9.9-21.5 26.3-36.7 46.3-45.2z"/><path class="st19" d="M634.7 186.8c2.2 4.8 3.2 10.2 2.9 15.6-.1 2.7-.6 5.4-1.3 8.1-.4 1.3-.8 2.6-1.3 3.9-.5 1.3-.8 2.1-1 3.2-.4 2 0 3.3 1.1 4.5 1.1 1.2 3 2.1 5 2.5 2 .4 3.9.4 5.8-.5s3.8-2.6 5.1-4.7l.6.1c0 2.8-1.1 5.7-3.4 7.8-2.2 2.2-5.8 3.2-8.9 2.8-3.1-.3-6.2-1.4-8.7-4-2.5-2.7-3.1-7-2-10 .4-1.5 1.3-3 1.8-4 .6-1 1.2-2.1 1.7-3.2 1-2.2 1.8-4.5 2.2-6.9.9-4.8 1-10-.1-14.9l.5-.3z"/><path class="st17" d="M578.1 190.4c-1-3.2-8-19.8-15.8-13.2-4.5 3.8-3.7 15.3.5 25.5s15.2 18.5 17.1 19.1c1.8.6-1.8-31.4-1.8-31.4zm123.4 0c1-3.2 8-19.8 15.8-13.2 4.5 3.8 3.7 15.3-.5 25.5s-15.2 18.5-17.1 19.1c-1.7.6 1.8-31.4 1.8-31.4z"/><path class="st6" d="M619.2 181.4c.7-.2 1.5-.5 2.2-1 1.9-1.4 1.1-3.4-.9-4.2-5.1-2.1-10.9-2.9-16.4-2.5-4 .3-8 1.3-11.6 3-1.1.5-4.7 2-4.7 3.6 0 2.3 6.4 1 7.6.9 4.4-.4 8.7-1.1 13.2-.9 2 .1 3.9.3 5.8.7 1.7.4 3.2.7 4.8.4zm41.3 0c-.7-.2-1.5-.5-2.2-1-1.9-1.4-1.1-3.4.9-4.2 5.1-2.1 10.9-2.9 16.4-2.5 4 .3 8 1.3 11.6 3 1.1.5 4.7 2 4.7 3.6 0 2.3-6.4 1-7.6.9-4.4-.4-8.7-1.1-13.2-.9-2 .1-3.9.3-5.8.7-1.7.4-3.3.7-4.8.4z"/><path class="st4" d="M658.3 239.3c-6 2.1-12.4 3.3-18.8 3.4-6.3.1-12.5-1.3-18.4-3.3-10.6-3.7-4 12.5 8.7 17.2 6.7 2.5 12.9 2.5 19.6 0 12.7-4.7 19.3-20.9 8.9-17.3z"/><path class="st20" d="M602.8 197.2c.2 3.9 2.9 6.9 6.2 6.8 3.2-.1 5.7-3.4 5.5-7.3-.2-3.9-2.9-6.9-6.2-6.8-3.2.1-5.6 3.4-5.5 7.3zm74 0c-.2 3.9-2.9 6.9-6.2 6.8-3.2-.1-5.7-3.4-5.5-7.3.2-3.9 2.9-6.9 6.2-6.8 3.2.1 5.7 3.4 5.5 7.3z"/><path class="st19" d="M649.3 253.2c-4 1.9-13.9 2.3-18.9 0-5.9-2.7-10.9-7.3-14.8-12.9.2 12.1 9 23.3 19.7 25.2 1.5.3 7.5.3 9 0 10.8-1.9 19.5-13.1 19.7-25.2-3.8 5.5-8.9 10.1-14.7 12.9z"/><path class="st7" d="M348.6 1210.6c-35.4-27.5-82.6-32.7-94.5-57.4-7.2-14.8-.2-39.2-.2-49.2 0-38-62.7-46.5-77.4-13.7-1.9 4.3-2.8 9-2.8 13.7 0 10 7 34.4-.2 49.2-11.9 24.7-59.1 29.9-94.5 57.4-22.5 17.5-37 40.7-40.7 79.4h350.9c-3.5-38.7-18-61.9-40.6-79.4z"/><path class="st0" d="M260.5 1161.9c-10.5 13.4-31.6 25.1-46.6 25.1h-.3c-15 0-36-11.7-46.5-25 2.7-2.7 4.9-5.6 6.5-8.9 7.1-14.8.2-39.2.2-49.2 0-4.7.9-9.4 2.8-13.7 14.7-32.8 77.4-24.2 77.4 13.7 0 10-7 34.4.2 49.2 1.5 3.3 3.7 6.2 6.3 8.8z"/><path d="M252.9 1149.9c-3.8-11.6-1-27.2.4-38-12.4 0-30.5.2-39.3.1-8.7-.2-26.7 1.4-39.1 3 1.6 11.7 3.9 27.5-1.3 38.2-1.5 3.1-3.6 6-6.2 8.6 16.9 19.2 60.2 21.2 85.5-11.9z" opacity=".15" fill="#4f3e36"/><path d="M389.3 1290H38.5c3.7-38.6 18.1-61.9 40.7-79.4 19.8-15.4 43.3-23.8 62.3-32.6 10.4-4.8 19.4-9.7 25.7-15.9 10.6 13.3 31.6 25 46.5 25h.3c15 0 36.1-11.8 46.6-25.1 6.2 6.3 15.2 11.2 25.6 16 19 8.8 42.6 17.2 62.5 32.7 22.5 17.4 37 40.6 40.6 79.3z" fill="#ffc853"/><path class="st18" d="M213.6 1187.1c-5 11.2-11.7 20.6-19.5 27.1-7.9 6.7-18.3 6.7-28.3-.7-4.6-3.5-10.8-9.6-13.7-14.5-4.3-7.2-8.1-14.6-11.3-22.4-1.6-2.6 22.9-18.3 25.4-15.7 10.2 13.8 32 26.2 47.4 26.2zm.3 0c5 11.2 11.7 20.6 19.5 27.1 7.9 6.7 18.3 6.7 28.3-.7 4.6-3.5 10.8-9.6 13.7-14.5 4.3-7.2 8.1-14.6 11.3-22.4 1.6-2.6-22.9-18.3-25.4-15.7-10.2 13.8-32 26.2-47.4 26.2z"/><path class="st18" d="M223.4 1290h-19.1v-100.1l9.6-2.8 9.5 2.8z"/><path class="st23" d="M263.4 943c-11.6-17.8-30.7-24.2-49.6-24.5-17.7-.3-35.2 5.9-47.1 21.4-.8 1-1.5 2.1-2.2 3.1-9.2 14.3-3.8 37.7 8.7 43.6h81.7c12.3-5.9 17.8-29.3 8.5-43.6z"/><path class="st23" d="M295.9 1000c-13.6-41.8-49.3-51-81.7-50.5h-.6c-32.4-.5-68.1 8.7-81.7 50.5-14.4 44.3 2 87.8 39 88.7 12 .3 38.7 3.3 42.3 3.3h1.4c3.6 0 30.3-3 42.3-3.3 37-.9 53.4-44.3 39-88.7z"/><path class="st0" d="M278.5 1068.6c-1.3-18.1-7.4-15.5-14.9-43.1-5.5-20.3-22.4-27-33.7-29.3-10.9-2.2-20.9-2.2-31.8 0-11.3 2.3-28.1 9-33.7 29.3-7.5 27.6-13.6 25-14.9 43.1-1 13.9-1.3 18.2 1.4 30.8.8 3.9 5.1 19.9 9.7 26.4 7.5 10.6 19.9 15.7 25.4 21.5 4.1 4.3 8.8 8.3 14.5 10.6 8.1 3.3 18.7 3.4 27 0 5.6-2.3 10.4-6.2 14.5-10.6 5.5-5.8 17.9-10.9 25.4-21.5 4.6-6.5 8.9-22.5 9.7-26.4 2.6-12.6 2.4-16.8 1.4-30.8z"/><g class="st24"><path class="st25" d="M204.1 1020.2c3-1.5 6.3-1.8 9.5-1.7 3.2.2 6.4.9 9.3 2.8-3.3.4-6.4.3-9.4.1-3.1-.2-6.2-.4-9.4-1.2z"/></g><g class="st24"><path class="st25" d="M210.8 1058.7c.5 2.7.7 5.4.5 8.2-.3 2.8-1 5.5-1.8 8.1-.9 2.6-1.8 5-2.4 7.5-.6 2.5-1.1 5-.8 7.2.4 4.7 4 7 8 7.8 1.9.4 3.8 0 5.7-1.2 1.9-1.2 3.8-3 5.3-5.3l.6.1c0 2.9-1.1 5.8-3.1 8.2-1 1.2-2.4 2.2-3.9 3-1.6.7-3.4 1-5.1.9-3.3-.1-6.7-1.6-9-4.2s-3.2-6.1-3.2-9.2c.2-6.3 2.9-11.2 5.2-16 1.2-2.4 2.2-4.7 2.8-7.3.6-2.5.8-5.2.7-7.8h.5z"/></g><path class="st0" d="M155.4 1071.3c-1-3.2-8-19.8-15.8-13.2-4.5 3.8-3.7 15.3.5 25.5s15.2 18.5 17.1 19.1c1.8.7-1.8-31.4-1.8-31.4zm116.2 0c1-3.2 8-19.8 15.8-13.2 4.5 3.8 3.7 15.3-.5 25.5s-15.2 18.5-17.1 19.1c-1.8.7 1.8-31.4 1.8-31.4z"/><g class="st24"><path class="st25" d="M193.9 1031.2c6.6-2.9 14-3.6 21.2-2.9 3.6.4 7 1.2 10.5 1.5 3.5.4 7 .9 10.5.6-3.4 1.2-7.1 1.3-10.6 1.4-3.6.1-7.2-.4-10.6-.6-7-.6-13.8-.3-21 0z"/></g><path class="st4" d="M232.3 1119.4c-6 1.9-12.4 3-18.8 3.1-6.3.1-12.5-1.2-18.4-3-10.6-3.4-4 11.4 8.7 15.7 6.7 2.3 12.9 2.2 19.6 0 12.7-4.3 19.4-19.1 8.9-15.8z"/><path class="st6" d="M174.2 1068.8c.2 3.9 2.9 6.9 6.2 6.8 3.2-.1 5.7-3.4 5.5-7.3-.2-3.9-2.9-6.9-6.2-6.8-3.2.2-5.7 3.4-5.5 7.3z"/><path class="st23" d="M230.3 1052.7c-1.7-1.9-.6-8.4 1.5-9.3 5.1-2.4 17.6-2.3 29.5 3.1 1.2.5 4.7 2.3 4.7 4.1 0 2.6-6.4 1.2-7.6 1-4.4-.5-8.7-1.3-13.2-1-2 .1-3.9.4-5.8.8-1.8.4-7.6 3-9.1 1.3zm-33.1 0c1.7-1.9.6-8.4-1.5-9.3-5.1-2.4-17.6-2.3-29.5 3.1-1.2.5-4.7 2.3-4.7 4.1 0 2.6 6.4 1.2 7.6 1 4.4-.5 8.7-1.3 13.2-1 2 .1 3.9.4 5.8.8 1.8.4 7.6 3 9.1 1.3z"/><path class="st6" d="M253.6 1068.8c-.2 3.9-2.9 6.9-6.2 6.8-3.2-.1-5.7-3.4-5.5-7.3.2-3.9 2.9-6.9 6.2-6.8 3.2.2 5.7 3.4 5.5 7.3z"/><path class="st0" d="M192.5 223.9c0 27.8-8.4 47.6-35.5 62.5-32.9 18.1-53.5 17.5-82.1 35-34.4 21.1-41.8 48.9-48.3 86.9h363.7c0-4.5-15-42.6-21.5-63.7-6.3-20-22.2-29.3-57.5-43.8-41.5-17-37.8-50.7-33.1-92.1 4.1-35.8-85.7-33.1-85.7 15.2z"/><path class="st1" d="M275.8 253c-.9-11.4.2-24 1.7-37.5-26.2 3.1-59.7 3.2-84.8 5.6-.1.9-.2 1.8-.2 2.8 0 19-4 34.3-15.1 46.8 14.8 15.4 78.9 20.1 98.4-17.7z"/><path class="st18" d="M163.9 282.4c-2.2 1.1-4.5 2.5-6.8 4-31.9 19.8-53.5 17.5-82.1 35-34.4 21.1-41.8 48.9-48.3 86.9h363.7c-8-27.3-9.5-41-19.9-60.7-9.8-18.5-17.9-31.8-49.8-44.2-9-3.5-30.5-15.9-30.7-16.5.9 11.7-4.9 37-50.1 39-30 1.4-77.1-26.1-76-43.5z"/><path class="st3" d="M156 287c-28.2 10.8-49.2 13.6-78.5 31.6-35.2 21.6-44.2 50.8-50.8 89.7H130c-2-56 9.1-97 26-121.3zm178.6 121.3h60.1c-2-14.9-8.4-44.3-17.8-60.7-12.2-21.2-30.2-37-53.6-46.7-10.5-4.3-22.7-7.4-24.5-8.6-.4-.3-.3.2.8 1.6 39.6 53.7 35 114.4 35 114.4z"/><path class="st0" d="M160.7 118.3c-2.9 20 1 31.5 2.4 50.3 2.4 33.2 10.4 55.3 18 66.2 13.4 19.2 38.2 27.6 52 26.3 30.5-2.9 51.9-27.3 53.8-58.1 1.7-27.6-3-31.7-.3-52.8 6.6-52.4-11.2-61.5-54.6-64.8-36.9-2.9-67.6 7.9-71.3 32.9z"/><path class="st26" d="M273.4 107.6s13-30.5-14-47.5c-29.7-18.7-66.8-15-94.7 14.6-14.7 15.6-17.8 12.9-22.7 8.8-3 8.3 6.1 12.9 6.1 12.9s-11 3.6-14.9-6.4c-4.3 11 4 27.1 14.5 32.9 23.8 13.2 73.9-15.6 87.8-20.7 23.2-8.5 37.9 5.4 37.9 5.4z"/><path class="st26" d="M251.2 93.1s25.4 7.3 28.7 28.7c2.5 16.5-.6 28.4 1.2 37.2 2.9 14.1 6.1 13.8 6.1 13.8s17 6.1 18.1-18.9c1.1-25 2.2-71.9-32.7-80.1-26.4-6.1-21.4 19.3-21.4 19.3zm-88.1 75.5c2.1-36.5-5.3-39.8 2.9-62.8 7.6-21.4 3.4-17.1-8.6-7.3-12.1 9.8-8.3 55.1-2.3 68.3 6 13.2 8 1.8 8 1.8z"/><path class="st0" d="M282.6 167.2c1.3-3.1 8.9-24 15.9-16.6 4.1 4.3 4.5 16.7-.1 26.7-4.3 9.3-13.3 17.1-15.2 17.6-1.9.4-.6-27.7-.6-27.7zm-113.3 11.9c-1.7-2.9-12.1-17.6-18.2-9.5-3.6 4.7.3 15.3 5.9 24.8 5.2 8.8 15.1 15.6 17 15.9 2 .2-4.7-31.2-4.7-31.2z"/><path class="st26" d="M242.4 147.9c-4.6 1.9-6-1.2-5.5-3.9.5-2.4 5.1-6.2 9.5-7.8 9.5-3.4 15.9-2 22.4 1.7 6.6 3.8 8 7.9-2.6 6.4-11.1-1.7-17.4.9-23.8 3.6zm-44.7 8.6c4.5.7 5-2.7 3.9-5.2-1.1-2.2-6.1-4.8-10.4-5.2-9.3-1-14.6 2-19.4 7.2-4.9 5.3-5.1 9.6 3.9 5.5 9.4-4.3 15.6-3.3 22-2.3z"/><path class="st5" d="M196.7 171.7c.5 3.7-1.6 7-4.7 7.5-3.1.4-6-2.3-6.5-6s1.6-7 4.7-7.5 6 2.3 6.5 6zm61.4-5.8c.5 3.9-1.7 7.3-4.9 7.8-3.2.4-6.2-2.3-6.7-6.2-.5-3.9 1.7-7.3 4.9-7.8 3.1-.4 6.2 2.4 6.7 6.2z"/><path class="st1" d="M213.4 160.3c2.8 4.3 4.9 9 6.3 14.1 1.2 5 1.6 10.7-.3 16.1-.5 1.3-1 2.7-1.9 3.9l-1.1 1.8c-.3.5-.6.9-.8 1.4-.5.8-.8 1.8-.8 2 0 .2-.2-.1.3.4 1.1.9 3.6 1.5 5.9 2l7.5 1.4.1.6c-2.4 1.1-5 1.8-7.7 2.1-2.7.3-5.4.5-8.8-1.1-.8-.5-1.7-1.1-2.4-2.2-.7-1-1-2.4-.9-3.5.2-2.3 1.2-3.7 2-4.9.5-.6.9-1.1 1.4-1.7l1.1-1.3c.8-.8 1.3-1.8 1.8-2.7 2-4 2.4-8.9 1.8-13.7-.6-4.8-2-9.7-4-14.3l.5-.4z"/><path class="st4" d="M205 226.9c-.3-1.2.7-2.5 2-2.4 9 1.4 23.4 2.6 38-5 9.4-4.9 4.9 13.2-6.5 19.4-9.5 5.3-15.1 3.8-21.8.9-5.3-2.3-11-10.1-11.7-12.9z"/><path class="st0" d="M799.3 1212.2c-33.5-17.6-17.4-9-56-27.1-31.7-14.9-38.1-42.6-38.1-70.4 0-22.8-23.5-35.4-47.9-38.6-24.3 3.2-47.9 15.8-47.9 38.6 0 27.8-6.4 55.5-38.1 70.4-38.6 18.1-27 9.6-60.5 27.1-40.3 21.1-49 48.9-56.6 86.9h401.7c-7.6-38-16.3-65.8-56.6-86.9z"/><path d="M855.9 1299.1H454.2c7.6-38 16.3-65.8 56.6-86.9 33.5-17.6 21.9-9 60.5-27.1 3.9-1.8 7.4-3.8 10.6-6.1 8-6.4 14.2-13.3 17.1-18.2 14.2 19.9 36.3 32.1 45.9 35.7 1.7.6 4 2.4 4.4 4.1 1.2 5 4.9 39.2 5.9 49.8 0 .5-.1 1-.2 1.4-.1 1.1-.2 1.7-.2 1.7.1-.2.2-.5.3-1.1.1.6.2.9.3 1.1 0 0-.1-.6-.2-1.7 0-.4-.1-.9-.2-1.4 1.1-10.6 4.8-44.9 6-49.8.4-1.7 2.7-3.5 4.4-4.1 10.1-3.8 33.9-16.8 47.9-38.9 8.8 15.4 15.9 18.9 15.9 18.9s3.7 3.6 13.8 8.4c38.4 18.6 22.4 9.6 56 27.1 40.6 21.3 49.4 49.1 56.9 87.1z" fill="#ebc7a5"/><path class="st13" d="M855.7 1298.9H454c7.6-38 16.3-65.8 56.6-86.9 33.5-17.6 21.9-9 60.5-27.1 7.3-3.4 13.3-7.5 18.1-12.2 12 48.1 55.7 114.3 65.9 114.3 11 0 48.9-58 66.9-117.4 5.3 5.9 12.2 11.1 21.1 15.3 38.6 18.1 22.4 9.6 56 27.1 40.3 21.1 49 48.9 56.6 86.9z"/><path class="st18" d="M655.4 1251.9c0 .3-.1.5-.1.6-.2.6-.3.9-.3 1.1 0 0 .1-.6.2-1.7.1-.4.1-.9.2-1.4v1.4z"/><path class="st18" d="M655.6 1253.6c-.1-.2-.2-.5-.3-1.1-.1-.2-.1-.4-.2-.7.1-.4.1-.9.2-1.4.1.5.1 1 .2 1.4 0 1.2.1 1.8.1 1.8z"/><path class="st1" d="M706.5 1134c-1-6.3-1.3-12.8-1.3-19.4 0-3.4-.6-6.5-1.5-9.4-28 1.5-66.5 1.1-93.4 2.4-.5 2.2-.8 4.5-.8 7 0 15.5-2 31.1-9.4 44.4 17.4 9.7 81.1 19.4 106.4-25z"/><path class="st26" d="M712 947.2c4.3-2.5.8-12.2-2.7-16.5-12.6 18.5-22.7.6-53.2 0-32.8-.7-38.5 11.4-55 11.6-32.4.3-37.5 30.7-29 87 2.2 14.5 5.8 22.2 17 32.4 9.6 8.7 23 9.6 35.3 10.2 10.6.6 21.1.8 31.7.8 10.5.1 21.1-.2 31.7-.8 12.3-.7 25.7-1.5 35.3-10.2 11.2-10.2 13-18.9 15.4-33.3 3.7-21.7 4.3-50.7 0-65-2.8-9.6-17.2-18.7-26.5-16.2z"/><path class="st0" d="M722.7 1086.3c-5.7 3.4-7.1-4.7-7.6-13.2-.5-8.8 1.2-23.7 6.4-30.1 5.2-6.5 12.8-10 16.2-.3 3 8.2-1.5 35.4-15 43.6zm-135.3 0c5.7 3.4 7.1-4.7 7.6-13.2.5-8.8-1.2-23.7-6.4-30.1-5.2-6.5-12.8-10-16.2-.3-3 8.2 1.5 35.4 15 43.6z"/><path class="st0" d="M722.4 1022.6c-.2-16.8-5-29.7-14.2-35.4-20-12.5-23.9 2.4-52.9 1.9h-1.1c-29 .5-32.9-14.4-52.9-1.9-9.2 5.7-14 18.6-14.2 35.4-.1 8.6-3.7 17.6-2.9 31 1.2 18.1 5.4 35 10.9 51.2 8.7 25.5 35.6 40.2 42.3 42.4 2.4.8 10 2.7 16.8 2.7 0 0 .2 0 .6-.1.4.1.6.1.6.1 6.8 0 14.3-1.9 16.8-2.7 6.7-2.2 33.6-16.9 42.3-42.4 5.5-16.2 9.7-33 10.9-51.2.7-13.4-2.9-22.4-3-31z"/><path class="st1" d="M647.9 1036.5c1.7 2.3 2.5 5 3 7.7s.8 5.5.7 8.3c0 5.6-1 11.1-2.1 16.4-.5 2.4-.8 4.9-.4 6.7.4 1.8.9 2.7 2.8 3.3 1.9.6 4.4.6 6.9.2 2.5-.4 5.1-.9 7.4-2.1l.4.4c-1.7 2.4-4.2 4-6.8 5.2-2.7 1.1-5.6 2-9 1.5-1.7-.2-3.6-1-5.1-2.4-1.5-1.4-2.3-3.3-2.6-5.1-.6-3.5.2-6.5 1.1-9.3 1.9-5 3.4-10 4.1-15.2.7-5.1 1-10.6-1-15.5l.6-.1z"/><path class="st26" d="M682.2 1041.1c-14.7 2.8-13.7-5.9-9.4-9.1 4.7-3.4 11.9-3.3 17-2.5 7 1.2 18.2 2.1 23 4.7 3.3 1.9 3.5 6 .7 6.8-2.4.7-20-2.1-31.3.1z"/><path class="st20" d="M683.9 1058.5c-.5 3.7 1.6 7 4.7 7.5 3.1.4 6-2.3 6.5-6s-1.6-7-4.7-7.5c-3.1-.4-6 2.3-6.5 6z"/><path class="st26" d="M626.4 1040.4c14.7 2.8 13.7-5.9 9.4-9.1-4.7-3.4-11.9-3.3-17-2.5-7 1.2-18.2 2.1-23 4.7-3.3 1.9-3.5 6-.7 6.8 2.4.8 20-2.1 31.3.1z"/><path class="st20" d="M626.2 1058.5c.5 3.7-1.6 7-4.7 7.5-3.1.4-6-2.3-6.5-6s1.6-7 4.7-7.5c3.1-.4 6 2.3 6.5 6z"/><path class="st28" d="M689.5 1079.5c-11.8 0-21.4-9.1-21.4-20.3s9.6-20.3 21.4-20.3c11.8 0 21.4 9.1 21.4 20.3s-9.6 20.3-21.4 20.3zm0-36.6c-9.6 0-17.5 7.4-17.5 16.4 0 9 7.8 16.4 17.5 16.4 9.6 0 17.5-7.4 17.5-16.4 0-9.1-7.9-16.4-17.5-16.4zm-100.1-4.6c-1.5-1.5-2.7-2.8-3.8-3.9-.3 1.5-.5 3.1-.7 4.8.6.6 1.1 1.2 1.7 1.8 3.3 3.4 7.8 8.2 14 13.8l2.6-2.9c-6.1-5.5-10.6-10.2-13.8-13.6z"/><path class="st28" d="M723.9 1034.7c-1 1-2.2 2.2-3.5 3.6-3.3 3.4-7.7 8.1-13.8 13.6l2.6 2.9c6.2-5.6 10.7-10.4 14-13.8.5-.5 1-1 1.4-1.5-.2-1.6-.4-3.2-.7-4.8zm-52.8 22.9c-4.2-1.7-9.4-2.4-16-2l-.2-3.9c7.1-.4 12.9.3 17.7 2.3l-1.5 3.6zm-50.5 21.9c-11.8 0-21.4-9.1-21.4-20.3s9.6-20.3 21.4-20.3c11.8 0 21.4 9.1 21.4 20.3s-9.6 20.3-21.4 20.3zm0-36.6c-9.6 0-17.5 7.4-17.5 16.4 0 9 7.8 16.4 17.5 16.4 9.6 0 17.5-7.4 17.5-16.4 0-9.1-7.8-16.4-17.5-16.4z"/><path class="st28" d="M639 1057.6l-1.5-3.6c4.8-2 10.5-2.7 17.7-2.3l-.2 3.9c-6.6-.4-11.8.2-16 2z"/><path class="st1" d="M676.1 1106.4c-4.1-1.2-9.3-2.8-21.1-2-11.9-.8-17.1.8-21.2 2-.8.2-2 .3-.7 2.4 5 7.8 12.5 10 21.8 10s16.8-2.2 21.8-10c1.5-2.1.2-2.2-.6-2.4z"/><path class="st26" d="M694.1 1107.4l-.3-.1c-.1 0-.2-.1-.3-.1l-.6-.3c-.4-.2-.8-.4-1.3-.6l-2.4-1.2c-.8-.4-1.6-.8-2.3-1.2-.7-.4-1.5-.8-2.2-1.2-.7-.4-1.5-.8-2.2-1.2-.7-.4-1.4-.8-2.2-1.2-.7-.4-1.5-.8-2.2-1.1-.7-.4-1.5-.7-2.2-1.1-.8-.4-1.5-.7-2.3-1-.8-.3-1.6-.7-2.4-1-.8-.3-1.7-.6-2.5-.9-.9-.3-1.8-.5-2.7-.8-1-.2-1.9-.5-2.9-.7-1-.2-2.1-.4-3.1-.5-1.1-.2-2.3-.3-3.4-.4-.5 0-1.3-.1-2.6 0-.6 0-1.5.1-2.1.2-1.1.1-2.2.3-3.2.5l-3 .6c-.9.2-1.9.5-2.8.7-.9.3-1.7.5-2.6.8-.8.3-1.6.6-2.5.9-.8.3-1.6.6-2.3 1-.8.3-1.5.7-2.3 1.1-.7.4-1.5.7-2.2 1.1-.7.4-1.5.8-2.2 1.2-.7.4-1.5.8-2.2 1.2-.7.4-1.5.8-2.2 1.2-.8.4-1.5.8-2.3 1.2l-2.4 1.2c-.8.4-1.7.8-2.5 1.2-.2.1-.3.2-.5.2-.1 0-.2.1-.2.1s-.2.1-.3.1c9.2 3.6 23.5.8 39-.6 15.4 1.5 29.7 4.2 38.9.7z"/><path class="st18" d="M730.7 1173.2s-5.3 36.4-31.4 69.9c-3.9 5-16.8-11.8-24.6-23.3-3.3-4.8-6.1-10.9-8.3-10.9-1.9 0-10.1 42.7-11.3 44.7 0 0 4.9-47 6.3-52.9.4-1.8 2.7-3.5 4.4-4.1 10.3-3.9 34.8-17.3 48.8-40.2.5-.8 1.7-1.1 2.5-.5 7.8 6.2 13.6 17.3 13.6 17.3zm-151.3 0s5.3 36.4 31.4 69.9c3.9 5 16.8-11.8 24.6-23.3 3.3-4.8 6.1-10.9 8.3-10.9 1.9 0 10.1 42.7 11.3 44.7 0 0-4.9-47-6.3-52.9-.4-1.8-2.7-3.5-4.4-4.1-10.3-3.9-34.8-17.3-48.8-40.2-.5-.8-1.7-1.1-2.5-.5-7.8 6.2-13.6 17.3-13.6 17.3z"/><path class="st1" d="M620.3 1014.1c5.7-1.6 11.6-1.8 17.4-2 5.8 0 11.7.2 17.4.6 5.6.3 11.5-.1 17.3-.2 5.8-.1 11.8-.2 17.4 1.5-5.8-.7-11.5 0-17.3.5-5.8.6-11.6 1.2-17.5 1-5.8-.2-11.6-.6-17.4-.9-5.7-.4-11.5-.7-17.3-.5zm8.9-8.1c4-1.9 8.5-2.9 12.9-3.4s8.9-.5 13.3-.4c4.4.2 8.8.5 13.2.9 4.4.3 8.7.7 13.1.5-4.2 1.4-8.8 1.7-13.2 1.8-4.4.1-8.8-.1-13.2-.2-8.8-.3-17.4-.7-26.1.8z"/><path class="st0" d="M407.9 852.2c-11.9-47.1-46.3-81-106.8-110.2-31.5-15.2-38.1-34.9-38.1-62.6 0-22-22-34.5-45.4-38.2v-.2c-.2 0-.4.1-.7.1-.2 0-.4-.1-.7-.1v.2c-23.4 3.7-45.4 16.2-45.4 38.2 0 27.8-6.6 47.4-38.1 62.6-60.5 29.2-94.9 63.1-106.8 110.2h382z"/><path class="st25" d="M407.9 852.2H25.8c11.9-47.1 46.3-81 106.8-110.1 5.4-2.6 10.1-5.4 14.1-8.2 6.4-4.6 11.2-9.6 14.8-15 12.2 17.6 32.7 28 41.5 31 1.5.5 3.1 2.1 3.8 3.3 5 7.7 7.9 22.1 9.2 30.1v.3h.9c1.3-7.9 4.2-22.6 9.3-30.4.8-1.2 2.3-2.8 3.8-3.3 8.8-3.1 29.7-13.6 41.9-31.5 3.4 5.4 8.1 10.4 14.4 15 4.2 3.1 9 5.9 14.7 8.7 60.6 29.2 95 63.1 106.9 110.1z"/><path class="st12" d="M84.8 852.2h-59c7.7-30.4 24.7-55.2 52.1-76.9 5.8 25.2 8.2 51.2 6.9 76.9zm323.1 0h-59c-1.3-25.8 1-51.7 6.9-76.9 27.4 21.7 44.4 46.6 52.1 76.9z"/><path class="st1" d="M264.2 697.4c-.9-5.6-1.3-11.5-1.3-17.9 0-22-22-34.5-45.4-38.2v-.3c-.2 0-.4.1-.7.1-.2 0-.4-.1-.7-.1v.2c-23.4 3.7-45.4 16.2-45.4 38.2 0 13.1-1.5 24.3-6.4 34.2 18.3 8.3 67.1 18.3 99.9-16.2z"/><path class="st12" d="M274.6 717.3c-.7-.5-1.7-.3-2.1.4-12.1 18.4-33.4 29.1-42.3 32.2-1.5.5-3.1 2.1-3.8 3.3-5.1 7.8-8 22.5-9.3 30.4h-.9c-1.3-7.9-4.1-22.6-9.3-30.4-.8-1.2-2.3-2.8-3.8-3.3-8.9-3.1-30.2-13.9-42.3-32.2-.5-.7-1.5-.9-2.1-.4-6.9 5-11.9 13.9-11.9 13.9s-.2 23.5 24.7 48.3c5.3 5.3 17.2-1.7 24-11 2.9-3.9 5.3-8.8 7.2-8.8 1.2 0 8.1 15.3 11.9 23.9v68.6h4.5v-68.6c3.7-8.5 10.5-23.9 11.8-23.9 1.9 0 4.4 4.9 7.2 8.8 6.8 9.2 18.7 16.2 24 11 24.8-24.8 24.7-48.3 24.7-48.3s-5.3-8.9-12.2-13.9z"/><path class="st0" d="M286.1 643.3c-5.7 3.4-7.1-4.7-7.6-13.2-.5-8.8 1.2-23.7 6.4-30.1 5.2-6.5 12.8-10 16.2-.3 3 8.2-1.4 35.4-15 43.6zm-139 0c5.7 3.4 7.1-4.7 7.6-13.2.5-8.8-1.2-23.7-6.4-30.1-5.2-6.5-12.8-10-16.2-.3-3 8.2 1.5 35.4 15 43.6z"/><path class="st11" d="M287.3 548c-3.9-8.2-12.1-24.8-27.2-25.9-26.8-1.8-22.3 10.1-38.8 9.6h-.9c-.2-.1-2.1-.1-4.1 0-2 0-3.9 0-4.1-.1-.4.1-.8.1-.9.1-16.5.5-12-11.4-38.8-9.6-15.1 1-23.3 17.7-27.2 25.9-6.5 13.5-18.3 16.2-14.6 38 .4 2.2 1 6.6 2.4 11.2.5-1.6 3.5-3.5 5.4-2.9 4.4 1.5 4.6 11.9 5.1 16.5.2 2.4.4 4.8.7 7.3.8 6.2 1.4 12.2 4 13.9 12.7 7.9 28.1 9.3 37.6 11.5 7.4 1.7 21 1 30.3.5 9.3.6 23 1.2 30.3-.5 9.5-2.2 24.9-3.6 37.6-11.5 2.6-1.6 3.2-7.7 4-13.9.3-2.4.5-4.8.7-7.3.4-4.7.6-15 5.1-16.5 1.9-.7 4.9 1.2 5.4 2.9 1.4-4.6 2-9 2.4-11.2 3.9-21.8-7.9-24.5-14.4-38z"/><path class="st0" d="M283.3 623.4c-.1-3.5.2-7.1.2-10.6 0-6.3-1-14.5-4.4-19.9-1.2-1.9-3-2.8-4.5-4.4-1.6-1.6-3-3.8-4-5.9-.4-.9-.8-1.8-1.2-2.6-4.5-11.2 2.4-20.4-5-34.9-7.5-14.8-21.4-27.9-47.5-28h-1c-15.8 0-40 13.2-47.5 28-7.4 14.4-.5 23.6-5 34.9-.3.9-.7 1.8-1.2 2.6-1.1 2.2-2.4 4.3-4 5.9-1.5 1.5-3.4 2.5-4.5 4.4-3.4 5.5-4.3 13.6-4.4 19.9 0 3.5.3 7.1.2 10.6-.1 2-2.3 2.8-4.7 2.5.5 5.7 2.5 13 4.6 18.6 2.1 5.7 3.7 11.4 5.6 17.2 8.7 25.5 35.6 40.2 42.3 42.4 4.1 1.4 8.4 1.8 12.7 2.2 4.4.4 8.8.5 13.1 0 4.2-.5 8.4-.9 12.4-2.2 6.7-2.2 33.6-16.9 42.3-42.4 1.9-5.7 3.5-11.5 5.6-17.2 2.1-5.7 4.1-12.9 4.6-18.6-2.4.3-4.7-.5-4.7-2.5z"/><path class="st1" d="M207.4 593.5c1.7 2.3 2.5 5 3 7.8.5 2.7.8 5.5.7 8.3 0 5.6-1 11.1-2.1 16.5-1 4.9-1.2 9.7 1 12.9 1.1 1.6 3 2.9 5.3 3.6 2.2.7 4.9 1.1 7.2 0l.4.4c-.8 1.3-2.3 2-3.7 2.5-1.4.5-2.9.7-4.5.7-3-.1-6.3-1.2-8.8-3.7-2.4-2.5-3.6-5.9-3.8-9-.1-3.2.5-6.1 1.5-8.9 1.9-5 3.4-10 4.1-15.2.7-5.1 1.1-10.6-1-15.5l.7-.4z"/><path class="st11" d="M246.4 600.6c-13 2.5-18.1-8.3-13.7-11.5 4.7-3.4 12.1-2.9 20.8 1.4 9.1 4.5 14.5 3.3 19 5.8 3.3 1.9 5.3 5.6 2.4 6.4-2.3.6-14.9-4.8-28.5-2.1zm-59.7 0c13 2.5 18.1-8.3 13.7-11.5-4.7-3.4-12.1-2.9-20.8 1.4-9.1 4.5-14.5 3.3-19 5.8-3.3 1.9-5.3 5.6-2.4 6.4 2.3.6 14.9-4.8 28.5-2.1z"/><path class="st20" d="M243.5 615.5c-.5 3.7 1.6 7 4.7 7.5 3.1.4 6-2.3 6.5-6s-1.6-7-4.7-7.5c-3.1-.4-6 2.3-6.5 6zm-53.9 0c.5 3.7-1.6 7-4.7 7.5-3.1.4-6-2.3-6.5-6s1.6-7 4.7-7.5c3.1-.4 6 2.3 6.5 6z"/><path class="st4" d="M217.7 681.3c9.4-.8 15.8-7.6 20.8-15.5 1.4-2.1.1-2.7-.7-2.4-5.9 2.5-13.5 3.8-21.4 3.7-13.4-.2-21.4-4-22.2-3.4-3.1 2.2 8.1 13.4 9.8 14.4 4.1 2.3 8.9 3.6 13.7 3.2z"/><path class="st1" d="M181.6 567.3c5.7-1.6 11.6-1.8 17.4-2 5.8 0 11.7.2 17.4.6 5.6.3 11.5-.1 17.3-.2 5.8-.1 11.8-.2 17.4 1.5-5.8-.7-11.5 0-17.3.5-5.8.6-11.6 1.2-17.5 1-5.8-.2-11.6-.6-17.4-.9-5.7-.5-11.5-.8-17.3-.5zm8.9-8.1c4-1.9 8.5-2.9 12.9-3.4s8.9-.5 13.3-.4c4.4.2 8.8.5 13.2.9 4.4.3 8.7.7 13.1.5-4.2 1.4-8.8 1.7-13.2 1.8-4.4.1-8.8-.1-13.2-.2-8.8-.4-17.4-.8-26.1.8z"/><path class="st17" d="M1208.9 760.8c-33.5-18.8-17.4-9.7-56-29.1-31.7-15.9-38.1-45.7-38.1-75.4 0-24.4-23.5-38-47.9-41.4-24.3 3.4-47.9 16.9-47.9 41.4 0 29.8-6.4 59.5-38.1 75.4-38.6 19.4-27 10.2-60.5 29.1-40.3 22.6-49 52.4-56.6 93.2h401.7c-7.6-40.8-16.3-70.6-56.6-93.2z"/><path class="st8" d="M1173.6 853.9H954.9c6.4-34.7 8.1-74.1 2-110.8 5.1-2.2 12.2-5.5 24-11.4 2.9-1.5 5.6-3 8.1-4.7 6.3 26.1 31 69 75.3 69.6 46.2-.7 71.1-47.4 76-73 3.7 3 7.9 5.7 12.7 8.1 8.8 4.4 14.7 7.3 19 9.4-6.5 37.3-4.9 77.5 1.6 112.8z"/><path class="st19" d="M1117.8 686.4c-2.3-9.7-3.1-19.9-3.1-30.1 0-24.4-23.5-38-47.9-41.4-24.3 3.4-47.9 16.9-47.9 41.4 0 22.9-3.9 45.8-20.1 62.4 32.9 8.2 93.2 10.9 119-32.3z"/><path class="st6" d="M1192.1 559.6c.2 5.2-5.9 8.4-8.1 13.2-2.5 5.5 1.6 9.8 2.5 15 1.6 8.8-7.7 9.9-11.8 15.6-3.7 5.2.1 11.1-1.4 16.7-1.5 5.3-7.8 5.4-12.1 7.3-7.2 3.2-5.6 9-7.5 15.3-2.2 7.3-8.1 5.7-14.3 6.4-8.9.9-7.3 9-11.8 14.5-2.6 3.2-6.5 2.8-10 1.8-5.3-1.4-9.5-2-13.3 2.5-2.6 3.2-4.1 7.9-8.5 9-4.9 1.2-11.2-5.8-16.3-5.2-5 .6-9.7 9-14.8 9-5.2 0-9.8-8.4-14.7-9-5.1-.6-11.5 6.4-16.4 5.2-5.5-1.4-6.7-8.2-11-11.1-4.5-3.1-9.6.3-14.5.3-7.6 0-7.3-6.7-10.2-11.8-4.5-7.8-10.3-3.7-17.3-6.1-6.4-2.3-4.6-8.9-6.2-14-2.3-7.4-8.7-6.7-14.4-9.9-7.2-4-2.3-10.8-3.2-17.2-1-6.8-8.3-7.7-12.1-12.4-5.2-6.4 3.1-12.5 2.4-19.3-.7-6.2-8.9-8.7-9-15.3-.1-5.2 5.8-8.2 7.6-12.7 2.6-6.2-3.1-11-3.6-17-.5-6.7 6.7-8 10.5-11.8 6.4-6.6-2.8-19.7 6.6-23.7 4.9-2.1 11-1.5 13.1-7.5 1.5-4.3 0-10.9 3.7-14.3 6-5.5 15.7.7 20.5-7.5 2.3-3.9 2.3-9.5 7-11.6 4.6-2 8.9 1.3 13.4 1.5 4.7.2 7.4-2.8 9.8-6.4 3.1-4.5 6.5-7.1 12-5.5 4.9 1.4 9.2 5.3 14.6 3.2 6.3-2.5 9.9-10.5 17.5-6.6 5.2 2.7 9.2 8.7 15.8 6.1 4.4-1.8 9.2-5.6 13.9-2.4 3.8 2.6 5.1 7.6 9.2 10.1 6.2 3.7 13-3.4 19 .2 4.1 2.5 4.9 8.9 7.5 12.6 4.6 6.6 13.1 1 18.8 5.5 3.7 2.9 2.9 8.4 3.6 12.5 1.6 8.3 9 6.6 14.8 10.2 6 3.7 3 10.4 2.6 15.9-.6 8.7 8.1 8.5 11.9 14.4 4.2 6.7-4.3 12.9-3.5 19.7.6 4.7 4.8 7.1 6.8 11 .6 1.4.8 2.5.9 3.6z"/><path class="st17" d="M1144.1 612.7c-2.4 6.7-7.2 15.2-13.1 19-5.8 3.7-9.9.8-10.3-6.4-.5-7.4 1.2-19.8 6.4-25.2 5.2-5.5 15.5-5.2 18.1 3.2.7 2.6.1 5.9-1.1 9.4z"/><path class="st17" d="M1112.3 539.3c-10.4-16-31.9-15.6-48.8-16.3-15.6-.7-37.2 1.9-46.6 16.3-6.7 10.4-18.1 35.4-17.6 54.5.5 18.3 2.6 32.7 8.9 50.1 15.5 42.5 38.5 53 43.1 54 8.5 1.8 18.1 1.8 26.6 0 4.6-1 27.6-11.5 43.1-54 6.3-17.4 8.4-31.8 8.9-50.1.5-19.1-10.8-44.1-17.6-54.5z"/><path class="st17" d="M983.4 612.7c2.4 6.7 7.2 15.2 13.1 19 5.8 3.7 9.9.8 10.3-6.4.5-7.4-1.2-19.8-6.4-25.2-5.2-5.5-15.5-5.2-18.1 3.2-.7 2.6-.1 5.9 1.1 9.4z"/><path class="st6" d="M1084.9 573.2c-2.4 0-4.9-.3-7-1.4-1.3-.7-4-2.6-3.4-4.3.9-2.5 5.7-3.2 7.9-3.7 7.1-1.4 14.7-.9 21.5 1.8 3.5 1.4 6.7 3.3 9.5 5.7 1.3 1.1 2.7 2.3 3.9 3.5.7.6 2.4 1.9 2.5 2.8.1 1.1-1.7 2.4-5.2.6-1-.5-6.2-3.6-7.3-3.9-4.6-1.3-9.3-1.8-14.1-1.6-2.4.1-5.4.5-8.3.5zm-40.6 0c2.4 0 4.9-.3 7-1.4 1.3-.7 4-2.6 3.4-4.3-.9-2.5-5.7-3.2-7.9-3.7-7.1-1.4-14.7-.9-21.5 1.8-3.5 1.4-6.7 3.3-9.5 5.7-1.3 1.1-2.7 2.3-3.9 3.5-.7.6-2.4 1.9-2.5 2.8-.1 1.1 1.7 2.4 5.2.6 1-.5 6.2-3.6 7.3-3.9 4.6-1.3 9.3-1.8 14.1-1.6 2.4.1 5.4.5 8.3.5z"/><path class="st20" d="M1093.3 592.2c-.5 3.7 1.6 7 4.7 7.5 3.1.4 6-2.3 6.5-6s-1.6-7-4.7-7.5c-3.1-.4-6 2.2-6.5 6zm-57.4 0c.5 3.7-1.6 7-4.7 7.5-3.1.4-6-2.3-6.5-6s1.6-7 4.7-7.5c3.1-.4 6 2.2 6.5 6z"/><path class="st19" d="M1057.4 589.4c1.2 2.8 1.2 5.7 1.3 8.6 0 2.9-.3 5.8-.7 8.6-.4 2.9-1 5.7-1.6 8.5-.7 3-1.2 5.1-1 7.2.6 4 4.3 7.3 9 8.2 4.6 1 10-.5 13.3-5.2l.5.2c-.6 2.8-2.4 5.7-5.1 7.4-2.7 1.8-6 2.6-9.2 2.5-3.3-.1-6.6-1.2-9.3-3.3-2.8-2.1-4.8-5.6-5-9.2-.1-1.8.1-3.5.5-5.1.5-1.7 1.1-2.8 1.6-4.1 1-2.6 1.9-5.2 2.8-7.8 1.5-5.3 3.1-10.8 2.4-16.2l.5-.3z"/><path class="st4" d="M1066.1 668.5c9.4-.8 15.8-7.6 20.8-15.5 1.4-2.1.1-2.7-.7-2.4-5.9 2.5-13.5 3.8-21.4 3.7-13.4-.2-21.4-4-22.2-3.4-3.1 2.2 8.1 13.4 9.8 14.4 4.1 2.3 8.9 3.6 13.7 3.2z"/><path class="st19" d="M1073.5 664.7c-3.8 1.9-13.1 2.3-17.8 0-5.5-2.7-10.3-7.3-13.9-12.9.2 12.1 8.5 23.3 18.6 25.2 1.4.3 7 .3 8.5 0 10.1-1.9 18.4-13.1 18.6-25.2-3.8 5.6-8.5 10.1-14 12.9z"/></svg>