<svg xmlns="http://www.w3.org/2000/svg" viewBox="0 0 414.2 42.6"><path d="M12.4 11.1c1.1-1.8 2.8-2.7 5.2-2.7 2.3 0 4.1.5 5.2 1.6 1.1 1 1.7 2.8 1.8 5.2h9.5c-.4-4.4-2.1-7.9-5-10.4C26.3 2.3 22.4 1 17.6 1c-3.3 0-6.3.8-8.8 2.4C6.3 5 4.4 7.2 3 10.1 1.7 13 1 16.4 1 20.2v2c0 6.2 1.5 10.9 4.5 14.3 3 3.4 7.1 5.1 12.3 5.1 3.1 0 5.9-.6 8.4-1.7 2.4-1.2 4.4-2.8 5.7-4.9 1.4-2.1 2.1-4.5 2.2-7.3h-9.5c-.1 2.2-.7 3.9-1.8 4.9-1.2 1-2.8 1.5-5 1.5-2.6 0-4.4-.9-5.5-2.7-1.1-1.8-1.6-4.8-1.6-9v-2.8c0-3.9.6-6.7 1.7-8.5zm50.1-7.7C59.9 1.8 56.9 1 53.6 1c-3.4 0-6.4.8-9 2.4-2.6 1.6-4.7 3.9-6.1 6.8-1.4 3-2.1 6.4-2.1 10.2v2.2c.1 3.7.8 7 2.3 9.9 1.5 2.9 3.5 5.1 6.1 6.6 2.6 1.5 5.6 2.3 8.9 2.3 3.4 0 6.4-.8 9-2.4 2.6-1.6 4.7-3.9 6.1-6.8 1.4-3 2.1-6.4 2.1-10.2v-1.8c0-3.8-.8-7.2-2.2-10.1-1.5-2.8-3.5-5.1-6.2-6.7zm-1.3 18.9c0 3.8-.7 6.8-2 8.8-1.3 2-3.2 3.1-5.6 3.1-2.5 0-4.4-1-5.7-3.1-1.3-2.1-1.9-5.1-1.9-9v-2.9c.3-7.2 2.8-10.7 7.6-10.7 2.4 0 4.3 1 5.6 3 1.3 2 2 5 2 8.9v1.9zm36.9 3.8l-14-24.6h-9.5V41h9.5V16.5l14 24.6h9.5V1.6h-9.5v24.5zm37.9-8.9h-14V1.6h-9.5V41h9.5V24.6h14V41h9.5V1.6H136v15.6zM150.4 41h27.2v-7.3h-17.7v-9.4h15v-7h-15V8.9h17.7V1.6h-27.2V41zm40.3-29.9c1.1-1.8 2.8-2.7 5.2-2.7 2.3 0 4.1.5 5.2 1.6 1.1 1 1.7 2.8 1.8 5.2h9.5c-.4-4.4-2.1-7.9-5-10.4S200.6 1 195.9 1c-3.3 0-6.3.8-8.8 2.4-2.5 1.6-4.5 3.8-5.8 6.7-1.3 2.9-2 6.3-2 10.2v2c0 6.2 1.5 10.9 4.5 14.3 3 3.4 7.1 5.1 12.3 5.1 3.1 0 5.9-.6 8.4-1.7 2.4-1.2 4.4-2.8 5.7-4.9 1.4-2.1 2.1-4.5 2.2-7.3h-9.5c-.1 2.2-.7 3.9-1.8 4.9-1.2 1-2.8 1.5-5 1.5-2.6 0-4.4-.9-5.5-2.7-1.1-1.8-1.6-4.8-1.6-9v-2.8c0-4 .6-6.8 1.7-8.6zM216.3 41h9.5V1.6h-9.5V41zm36.3-12l-8.8-27.5h-12.5V41h9.5v-9.2l-.9-18.9 9.6 28.1h6.3l9.5-28.1-.9 18.9V41h9.5V1.6h-12.5L252.6 29zm26.3 12h27.2v-7.3h-17.7v-9.4h15v-7h-15V8.9h17.7V1.6h-27.2V41zm53.4-14.9l-14-24.6h-9.5V41h9.5V16.5l14 24.6h9.5V1.6h-9.5v24.5zm12.4-17.2h11.6V41h9.5V8.9h11.8V1.6h-33v7.3zm66.3 1.3c-1.5-2.9-3.5-5.2-6.1-6.8-2.6-1.6-5.6-2.4-8.9-2.4-3.4 0-6.4.8-9 2.4-2.6 1.6-4.7 3.9-6.1 6.8-1.4 3-2.1 6.4-2.1 10.2v2.2c.1 3.7.8 7 2.3 9.9 1.5 2.9 3.5 5.1 6.1 6.6 2.6 1.5 5.6 2.3 8.9 2.3 3.4 0 6.4-.8 9-2.4 2.6-1.6 4.7-3.9 6.1-6.8 1.4-3 2.1-6.4 2.1-10.2v-1.8c-.1-3.7-.8-7.1-2.3-10zm-7.4 12.1c0 3.8-.7 6.8-2 8.8-1.3 2-3.2 3.1-5.6 3.1-2.5 0-4.4-1-5.7-3.1-1.3-2.1-1.9-5.1-1.9-8.9v-2.9c.3-7.2 2.8-10.7 7.6-10.7 2.4 0 4.3 1 5.6 3 1.3 2 2 5 2 8.9v1.8z" fill="none" stroke="#fff" stroke-width="2" stroke-miterlimit="10"/></svg>