<svg xmlns="http://www.w3.org/2000/svg" viewBox="0 0 300.7 52.6"><path d="M12.4 21.1c1.1-1.8 2.8-2.7 5.2-2.7 2.3 0 4.1.5 5.2 1.6 1.1 1 1.7 2.8 1.8 5.2h9.5c-.4-4.4-2.1-7.9-5-10.4S22.3 11 17.6 11c-3.3 0-6.3.8-8.8 2.4C6.3 15 4.4 17.2 3 20.1 1.7 23 1 26.4 1 30.2v2c0 6.2 1.5 10.9 4.5 14.3 3 3.4 7.1 5.1 12.3 5.1 3.1 0 5.9-.6 8.4-1.7 2.4-1.2 4.4-2.8 5.7-4.9 1.4-2.1 2.1-4.5 2.2-7.3h-9.5c-.1 2.2-.7 3.9-1.8 4.9-1.2 1-2.8 1.5-5 1.5-2.6 0-4.4-.9-5.5-2.7-1.1-1.8-1.6-4.8-1.6-9v-2.8c0-3.9.6-6.7 1.7-8.5zM60 37.3c0 2.4-.5 4.2-1.5 5.3-1 1.1-2.5 1.6-4.5 1.6-3.9 0-5.9-2.2-6-6.5V11.6h-9.6v26c.1 4.3 1.5 7.8 4.2 10.2 2.8 2.5 6.6 3.7 11.4 3.7 3.2 0 5.9-.6 8.3-1.7 2.3-1.1 4.1-2.8 5.4-4.9 1.2-2.1 1.9-4.7 1.9-7.6V11.6H60v25.7zm44.2-7c1.1-1.8 1.7-4.1 1.7-6.8 0-3.8-1.3-6.7-4-8.8-2.6-2.1-6.3-3.1-11-3.1H75.4V51h9.5V37h5.2l7 14h10.2v-.4L99 34.7c2.4-1.1 4.1-2.6 5.2-4.4zm-9.2-2c-.9 1-2.3 1.4-4.1 1.4h-6V18.9h6c1.8 0 3.1.5 4.1 1.5.9 1 1.4 2.3 1.4 4 0 1.7-.4 3-1.4 3.9zm45.4 2c1.1-1.8 1.7-4.1 1.7-6.8 0-3.8-1.3-6.7-4-8.8-2.6-2.1-6.3-3.1-11-3.1h-15.5V51h9.5V37h5.1l7 14h10.2v-.4l-8.2-15.9c2.4-1.1 4.1-2.6 5.2-4.4zm-9.1-2c-.9 1-2.3 1.4-4.1 1.4h-6V18.9h6c1.8 0 3.1.5 4.1 1.5.9 1 1.4 2.3 1.4 4-.1 1.7-.5 3-1.4 3.9zM164 1h-9.6L149 9.5h7.5L164 1zm-15.5 50h9.5V11.6h-9.5V51zm26.4-29.9c1.1-1.8 2.8-2.7 5.2-2.7 2.3 0 4.1.5 5.2 1.6 1.1 1 1.7 2.8 1.8 5.2h9.5c-.4-4.4-2.1-7.9-5-10.4s-6.8-3.8-11.5-3.8c-3.3 0-6.3.8-8.8 2.4-2.5 1.6-4.5 3.8-5.8 6.7-1.3 2.9-2 6.3-2 10.2v2c0 6.2 1.5 10.9 4.5 14.3 3 3.4 7.1 5.1 12.3 5.1 3.1 0 5.9-.6 8.4-1.7 2.4-1.2 4.4-2.8 5.7-4.9 1.4-2.1 2.1-4.5 2.2-7.3h-9.5c-.1 2.2-.7 3.9-1.8 4.9-1.2 1-2.8 1.5-5 1.5-2.6 0-4.4-.9-5.5-2.7-1.1-1.8-1.6-4.8-1.6-9v-2.8c0-4 .6-6.8 1.7-8.6zm47.6 16.2c0 2.4-.5 4.2-1.5 5.3-1 1.1-2.5 1.6-4.5 1.6-3.9 0-5.9-2.2-6-6.5V11.6h-9.6v26c.1 4.3 1.5 7.8 4.2 10.2 2.8 2.5 6.6 3.7 11.4 3.7 3.2 0 5.9-.6 8.3-1.7 2.3-1.1 4.1-2.8 5.4-4.9 1.2-2.1 1.9-4.7 1.9-7.6V11.6h-9.5v25.7zm24.9-25.7h-9.5V51H264v-7.3h-16.6V11.6zm50.1 8.6c-1.5-2.9-3.5-5.2-6.1-6.8-2.6-1.6-5.6-2.4-8.9-2.4-3.4 0-6.4.8-9 2.4-2.6 1.6-4.7 3.9-6.1 6.8-1.4 3-2.1 6.4-2.1 10.2v2.2c.1 3.7.8 7 2.3 9.9 1.5 2.9 3.5 5.1 6.1 6.6 2.6 1.5 5.6 2.3 8.9 2.3 3.4 0 6.4-.8 9-2.4 2.6-1.6 4.7-3.9 6.1-6.8 1.4-3 2.1-6.4 2.1-10.2v-1.8c-.1-3.7-.9-7.1-2.3-10zM290 32.3c0 3.8-.7 6.8-2 8.8-1.3 2-3.2 3.1-5.6 3.1-2.5 0-4.4-1-5.7-3.1-1.3-2.1-1.9-5.1-1.9-8.9v-2.9c.3-7.2 2.8-10.7 7.6-10.7 2.4 0 4.3 1 5.6 3 1.3 2 2 5 2 8.9v1.8z" fill="none" stroke="#fff" stroke-width="2" stroke-miterlimit="10"/></svg>