<svg version="1.1" id="Ñëîé_1" xmlns="http://www.w3.org/2000/svg" x="0" y="0" viewBox="0 0 114.9 889.7" xml:space="preserve"><style>.st1{fill:#ffcd00}</style><path d="M57.5 168.5c4.7 0 8.4-3.8 8.4-8.4 0-4.7-3.8-8.4-8.4-8.4-4.7 0-8.4 3.8-8.4 8.4-.1 4.7 3.7 8.4 8.4 8.4zm0 19.4c-4.7 0-8.4 3.8-8.4 8.4 0 4.7 3.8 8.4 8.4 8.4 4.7 0 8.4-3.8 8.4-8.4 0-4.6-3.8-8.4-8.4-8.4zm0 36.3c-4.7 0-8.4 3.8-8.4 8.4 0 4.6 3.8 8.4 8.4 8.4 4.7 0 8.4-3.8 8.4-8.4 0-4.6-3.8-8.4-8.4-8.4zm0 36.2c-4.7 0-8.4 3.8-8.4 8.4 0 4.7 3.8 8.4 8.4 8.4 4.7 0 8.4-3.8 8.4-8.4 0-4.6-3.8-8.4-8.4-8.4zm0 36.3c-4.7 0-8.4 3.8-8.4 8.4 0 4.7 3.8 8.4 8.4 8.4 4.7 0 8.4-3.8 8.4-8.4 0-4.6-3.8-8.4-8.4-8.4zm0 36.2c-4.7 0-8.4 3.8-8.4 8.4 0 4.7 3.8 8.4 8.4 8.4 4.7 0 8.4-3.8 8.4-8.4 0-4.6-3.8-8.4-8.4-8.4zm0 222.5c4.7 0 8.4-3.8 8.4-8.4s-3.8-8.4-8.4-8.4c-4.7 0-8.4 3.8-8.4 8.4s3.7 8.4 8.4 8.4zm0 19.4c-4.7 0-8.4 3.8-8.4 8.4 0 4.7 3.8 8.4 8.4 8.4 4.7 0 8.4-3.8 8.4-8.4 0-4.6-3.8-8.4-8.4-8.4zm0 36.2c-4.7 0-8.4 3.8-8.4 8.4 0 4.6 3.8 8.4 8.4 8.4 4.7 0 8.4-3.8 8.4-8.4 0-4.6-3.8-8.4-8.4-8.4zm0 36.3c-4.7 0-8.4 3.8-8.4 8.4 0 4.7 3.8 8.4 8.4 8.4 4.7 0 8.4-3.8 8.4-8.4 0-4.6-3.8-8.4-8.4-8.4zm0 36.2c-4.7 0-8.4 3.8-8.4 8.4s3.8 8.4 8.4 8.4c4.7 0 8.4-3.8 8.4-8.4s-3.8-8.4-8.4-8.4zm0 36.3c-4.7 0-8.4 3.8-8.4 8.4 0 4.7 3.8 8.4 8.4 8.4 4.7 0 8.4-3.8 8.4-8.4 0-4.7-3.8-8.4-8.4-8.4z" fill="#fff"/><path class="st1" d="M57.5 0C25.7 0 0 25.7 0 57.5 0 89.2 25.7 115 57.5 115c31.7 0 57.5-25.7 57.5-57.5C114.9 25.7 89.2 0 57.5 0zm0 101.1c-24.1 0-43.6-19.5-43.6-43.6s19.5-43.6 43.6-43.6 43.6 19.5 43.6 43.6-19.5 43.6-43.6 43.6z"/><path class="st1" d="M36.2 57.5c0-11.7 9.5-21.3 21.3-21.3 11.7 0 21.3 9.5 21.3 21.3s-9.5 21.3-21.3 21.3c-11.8-.1-21.3-9.6-21.3-21.3zm21.3 329.9C25.7 387.4 0 413.1 0 444.8s25.7 57.5 57.5 57.5c31.7 0 57.5-25.7 57.5-57.5-.1-31.7-25.8-57.4-57.5-57.4zm0 101.1c-24.1 0-43.6-19.5-43.6-43.6s19.5-43.6 43.6-43.6 43.6 19.5 43.6 43.6c0 24-19.5 43.6-43.6 43.6z"/><path class="st1" d="M36.2 444.8c0-11.7 9.5-21.3 21.3-21.3 11.7 0 21.3 9.5 21.3 21.3s-9.5 21.3-21.3 21.3-21.3-9.5-21.3-21.3zm21.3 330C25.7 774.8 0 800.5 0 832.2s25.7 57.5 57.5 57.5c31.7 0 57.5-25.7 57.5-57.5-.1-31.7-25.8-57.4-57.5-57.4zm0 101.1c-24.1 0-43.6-19.5-43.6-43.6s19.5-43.6 43.6-43.6 43.6 19.5 43.6 43.6c0 24-19.5 43.6-43.6 43.6z"/><path class="st1" d="M36.2 832.2c0-11.7 9.5-21.3 21.3-21.3 11.7 0 21.3 9.5 21.3 21.3s-9.5 21.3-21.3 21.3-21.3-9.5-21.3-21.3z"/></svg>