<svg xmlns="http://www.w3.org/2000/svg" viewBox="0 0 281.9 52.6"><path d="M27.2 13.4c-2.6-1.6-5.6-2.4-8.9-2.4-3.4 0-6.4.8-9 2.4-2.6 1.6-4.7 3.9-6.1 6.8-1.5 3-2.2 6.5-2.2 10.3v2.2c.1 3.7.8 7 2.3 9.9 1.5 2.9 3.5 5.1 6.1 6.6 2.6 1.5 5.6 2.3 8.9 2.3 3.4 0 6.4-.8 9-2.4s4.7-3.9 6.1-6.8c1.4-3 2.1-6.4 2.1-10.2v-1.8c0-3.8-.8-7.2-2.2-10.1-1.4-2.9-3.5-5.2-6.1-6.8zm-1.3 18.9c0 3.8-.7 6.8-2 8.8-1.3 2-3.2 3.1-5.6 3.1-2.5 0-4.4-1-5.7-3.1-1.3-2.1-1.9-5.1-1.9-8.9v-2.9c.3-7.2 2.8-10.7 7.6-10.7 2.4 0 4.3 1 5.6 3 1.3 2 2 5 2 8.9v1.8zM54.3 51h27.2v-7.3H63.8v-9.4h15v-7h-15V19h17.7v-7.3H54.3V51zm41.9-31.7c1-.7 2.3-1.1 4-1.1 1.7 0 3 .4 4 1.3s1.5 2.1 1.5 3.7h9.5c0-2.4-.6-4.5-1.9-6.4-1.2-1.9-3-3.3-5.2-4.3s-4.8-1.5-7.6-1.5c-2.9 0-5.5.5-7.9 1.4-2.3.9-4.1 2.2-5.4 3.9-1.3 1.7-1.9 3.6-1.9 5.8 0 4.4 2.6 7.8 7.7 10.4 1.6.8 3.6 1.6 6.1 2.4 2.5.8 4.2 1.6 5.2 2.4 1 .8 1.5 1.9 1.5 3.3 0 1.2-.5 2.2-1.4 2.9-.9.7-2.2 1-3.7 1-2.5 0-4.2-.5-5.3-1.5-1.1-1-1.6-2.6-1.6-4.7h-9.5c0 2.6.7 4.9 2 6.9s3.3 3.6 5.9 4.7c2.6 1.1 5.5 1.7 8.7 1.7 4.5 0 8.1-1 10.7-3 2.6-2 3.9-4.7 3.9-8.1 0-4.3-2.1-7.7-6.4-10.2-1.8-1-4-2-6.7-2.8-2.7-.9-4.6-1.7-5.7-2.5-1.1-.8-1.6-1.7-1.6-2.8-.4-1.2.1-2.1 1.1-2.9zm21.9-.4h11.6V51h9.5V18.9H151v-7.3h-33v7.3zm48.4-7.3L152 51h10.2l2.3-7.4h13l2.3 7.4H190l-14.6-39.5h-8.9zm.2 24.7l4.2-13.7 4.3 13.7h-8.5zM181.8 1h-9.6l-5.3 8.5h7.5l7.4-8.5zm27.3 35.5h6.6v6.1c-1.2 1.1-3.1 1.7-5.5 1.7-2.9 0-5-1-6.4-3-1.3-2-2-4.9-2-8.9V30c0-3.8.7-6.6 2-8.7 1.3-2 3.1-3 5.5-3 2 0 3.5.5 4.6 1.4 1.1.9 1.8 2.5 2.1 4.7h9.2c-.5-4.5-2-7.8-4.8-10.1-2.7-2.2-6.5-3.4-11.5-3.4-3.4 0-6.3.8-8.9 2.3-2.6 1.6-4.5 3.8-5.9 6.7-1.4 2.9-2.1 6.3-2.1 10.2v3.4c.2 5.6 1.9 10 5 13.2 3.1 3.2 7.2 4.7 12.4 4.7 3.4 0 6.5-.5 9.3-1.5 2.8-1 5-2.3 6.4-3.9V29.9H209v6.6zM231.4 51h9.5V11.6h-9.5V51zm47.3-30.8c-1.5-2.9-3.5-5.2-6.1-6.8-2.6-1.6-5.6-2.4-8.9-2.4-3.4 0-6.4.8-9 2.4-2.6 1.6-4.7 3.9-6.1 6.8-1.4 3-2.1 6.4-2.1 10.2v2.2c.1 3.7.8 7 2.3 9.9 1.5 2.9 3.5 5.1 6.1 6.6 2.6 1.5 5.6 2.3 8.9 2.3 3.4 0 6.4-.8 9-2.4s4.7-3.9 6.1-6.8c1.4-3 2.1-6.4 2.1-10.2v-1.8c-.1-3.7-.9-7.1-2.3-10zm-7.5 12.1c0 3.8-.7 6.8-2 8.8-1.3 2-3.2 3.1-5.6 3.1-2.5 0-4.4-1-5.7-3.1-1.3-2.1-1.9-5.1-1.9-8.9v-2.9c.3-7.2 2.8-10.7 7.6-10.7 2.4 0 4.3 1 5.6 3 1.3 2 2 5 2 8.9v1.8z" fill="none" stroke="#fff" stroke-width="2" stroke-miterlimit="10"/></svg>