<svg xmlns="http://www.w3.org/2000/svg" viewBox="0 0 1795.4 1435.2"><linearGradient id="a" gradientUnits="userSpaceOnUse" x1="572.115" y1="1192.872" x2="1533.867" y2="1192.872"><stop offset=".001" stop-color="#00b4be"/><stop offset=".999" stop-color="#92c03f"/></linearGradient><path fill="url(#a)" d="M1533.9 958.5l-863.1-7.9-98.7 285.2 161.5 1.5-65.8 189.9 436.8 8 67.1-193.9 263.5 2.4z"/><linearGradient id="b" gradientUnits="userSpaceOnUse" x1="778.723" y1="765.457" x2="1403.461" y2="765.457"><stop offset="0" stop-color="#fab8a6"/><stop offset="1" stop-color="#ef5c72"/></linearGradient><path fill="url(#b)" d="M1403.5 456.4l-407.9-2.9-132.9 374.3h2.4l-86.4 246.7 407.9 2.9 96.6-275.9h-.2z"/><linearGradient id="c" gradientUnits="userSpaceOnUse" x1="578.794" y1="233.41" x2="1540.544" y2="233.41"><stop offset="0" stop-color="#f9bf14"/><stop offset="1" stop-color="#eb9b22"/></linearGradient><path fill="url(#c)" d="M1372.6 180l59.5-172-614.4-8-60.3 174.4-79.9-.8-98.7 285.3 863 7.9 98.7-285.2z"/><linearGradient id="d" gradientUnits="userSpaceOnUse" x1="1061.865" y1="612.966" x2="1795.405" y2="612.966"><stop offset="0" stop-color="#9e7ab6"/><stop offset="1" stop-color="#9c5c86"/></linearGradient><path fill="url(#d)" d="M1534.2 990l-472.3-8 261.2-746 472.3 7.9z"/><linearGradient id="e" gradientUnits="userSpaceOnUse" x1="999.109" y1="866.742" x2="1270.465" y2="866.742"><stop offset="0" stop-color="#19b252"/><stop offset=".997" stop-color="#c3d82e"/></linearGradient><path fill="url(#e)" d="M1173.8 1006.2l-174.7-2.9 96.6-276 174.8 2.9z"/><linearGradient id="f" gradientUnits="userSpaceOnUse" x1="0" y1="730.166" x2="1037.439" y2="730.166"><stop offset="0" stop-color="#fcb715"/><stop offset="1" stop-color="#ef5c72"/></linearGradient><path fill="url(#f)" d="M636.2 454.1l-77 222.4-460.5-4.2L0 957.5l172.8 1.6-15.4 44.2 174.7 2.9 15.9-45.5 515.1 4.8 75.4-218.2h.2l98.7-285.2z"/></svg>