<svg version="1.1" id="Layer_1" xmlns="http://www.w3.org/2000/svg" x="0" y="0" viewBox="0 0 1795.4 1435.2" xml:space="preserve"><style>.st1{opacity:.75;fill:#fff}.st2{fill:#02638b}.st3{font-family:&apos;Roboto-Bold&apos;}.st4{font-size:60px}.st5{fill:#01abbf}</style><linearGradient id="SVGID_1_" gradientUnits="userSpaceOnUse" x1="578.8" y1="232.49" x2="1540.5" y2="232.49"><stop offset="0" stop-color="#f9bf14"/><stop offset="1" stop-color="#eb9b22"/></linearGradient><path fill="url(#SVGID_1_)" d="M1323.1 236l197.4 3.3 20-57.7-167.9-1.6 59.5-172-614.4-8-60.3 174.4-79.9-.8-98.7 285.3 664.1 6.1z"/><path class="st1" d="M1360.7-157.5H763.1c-7.6 0-13.8 6.2-13.8 13.8v344.9c0 7.6 6.2 13.8 13.8 13.8h252.7l46 79.7 46-79.7h252.7c7.6 0 13.8-6.2 13.8-13.8v-344.9c.2-7.6-6-13.8-13.6-13.8z"/><text transform="translate(885.504 -31.273)"><tspan x="0" y="0" class="st2 st3 st4">Região Norte</tspan><tspan x="54.6" y="72" class="st2 st3 st4">25 vagas</tspan><tspan x="28" y="144" class="st5 st3 st4">Saiba mais</tspan></text><linearGradient id="SVGID_2_" gradientUnits="userSpaceOnUse" x1="0" y1="705.85" x2="1037.4" y2="705.85" gradientTransform="matrix(1 0 0 -1 0 1436)"><stop offset="0" stop-color="#fcb715"/><stop offset="1" stop-color="#ef5c72"/></linearGradient><path fill="url(#SVGID_2_)" d="M636.2 454.1l-77 222.4-460.5-4.2L0 957.5l172.8 1.6-15.4 44.2 174.7 2.9 15.9-45.5 515.1 4.8 75.4-218.2h.2l98.7-285.2z"/><path class="st1" d="M762.7 353.6H165.2c-7.6 0-13.8 6.2-13.8 13.8v344.9c0 7.6 6.2 13.8 13.8 13.8h252.7l46 79.7 46-79.7h252.7c7.6 0 13.8-6.2 13.8-13.8V367.4c.1-7.6-6.1-13.8-13.7-13.8z"/><text transform="translate(224.171 479.778)"><tspan x="0" y="0" class="st2 st3 st4">Triângulo Mineiro</tspan><tspan x="118" y="72" class="st2 st3 st4">22 vagas</tspan><tspan x="91.4" y="144" class="st5 st3 st4">Saiba mais</tspan></text><linearGradient id="SVGID_3_" gradientUnits="userSpaceOnUse" x1="1150.759" y1="613" x2="1795.4" y2="613"><stop offset="0" stop-color="#9e7ab6"/><stop offset="1" stop-color="#9c5c86"/></linearGradient><path fill="url(#SVGID_3_)" d="M1323.1 236l-172.3 492.2 119.7 2-88.9 253.8 352.6 6 261.2-746.1z"/><path class="st1" d="M1832.7 84.8h-597.5c-7.6 0-13.8 6.2-13.8 13.8v344.9c0 7.6 6.2 13.8 13.8 13.8h252.7l46 79.7 46-79.7h252.7c7.6 0 13.8-6.2 13.8-13.8V98.6c.1-7.6-6.1-13.8-13.7-13.8z"/><text transform="translate(1372.43 211.03)"><tspan x="0" y="0" class="st2 st3 st4">Vale do Aço</tspan><tspan x="39.7" y="72" class="st2 st3 st4">29 vagas</tspan><tspan x="13.1" y="144" class="st5 st3 st4">Saiba mais</tspan></text><linearGradient id="SVGID_4_" gradientUnits="userSpaceOnUse" x1="778.7" y1="765.45" x2="1246.322" y2="765.45"><stop offset="0" stop-color="#fab8a6"/><stop offset="1" stop-color="#ef5c72"/></linearGradient><path fill="url(#SVGID_4_)" d="M1173.8 1006.2l-174.7-2.9 96.6-276 55.1.9 95.5-272.9-250.7-1.8-2.7 7.7 44.5.9-98.7 285.2h-.2l-75.4 218.2-46.1-.4-38.3 109.4 407.9 2.9 32.5-92.7-37.5-.7z"/><path class="st1" d="M1336.2 240.7H738.6c-7.6 0-13.8 6.2-13.8 13.8v344.9c0 7.6 6.2 13.8 13.8 13.8h252.7l46 79.7 46-79.7H1336c7.6 0 13.8-6.2 13.8-13.8V254.5c.2-7.6-6-13.8-13.6-13.8z"/><text transform="translate(838.68 366.942)"><tspan x="0" y="0" class="st2 st3 st4">Região Central</tspan><tspan x="76.9" y="72" class="st2 st3 st4">13 vagas</tspan><tspan x="50.4" y="144" class="st5 st3 st4">Saiba mais</tspan></text><linearGradient id="SVGID_5_" gradientUnits="userSpaceOnUse" x1="999.1" y1="569.25" x2="1270.5" y2="569.25" gradientTransform="matrix(1 0 0 -1 0 1436)"><stop offset="0" stop-color="#19b252"/><stop offset=".997" stop-color="#c3d82e"/></linearGradient><path fill="url(#SVGID_5_)" d="M1173.8 1006.2l-174.7-2.9 96.6-276 174.8 2.9z"/><path class="st1" d="M1462.8 466.8H825.3c-7.6 0-13.8 6.2-13.8 13.8v344.9c0 7.6 6.2 13.8 13.8 13.8H1098l46 79.7 46-79.7h272.7c7.6 0 13.8-6.2 13.8-13.8V480.6c.1-7.6-6.1-13.8-13.7-13.8z"/><text transform="translate(851.235 573.022)"><tspan x="0" y="0" class="st2 st3 st4">Região Metropolitana </tspan><tspan x="61.5" y="72" class="st2 st3 st4">de Belo horizonte</tspan><tspan x="176.1" y="144" class="st2 st3 st4">35 vagas</tspan><tspan x="149.5" y="216" class="st5 st3 st4">Saiba mais</tspan></text><linearGradient id="SVGID_6_" gradientUnits="userSpaceOnUse" x1="572.1" y1="1192.9" x2="1533.9" y2="1192.9"><stop offset=".001" stop-color="#00b4be"/><stop offset=".999" stop-color="#92c03f"/></linearGradient><path fill="url(#SVGID_6_)" d="M1229.2 955.7l-42.6 121.7-407.9-2.9L821.6 952l-150.8-1.4-98.7 285.2 161.5 1.5-65.8 189.9 436.8 8 67.1-193.9 263.5 2.4 98.7-285.2z"/><path class="st1" d="M1316.6 814.6H719.1c-7.6 0-13.8 6.2-13.8 13.8v344.9c0 7.6 6.2 13.8 13.8 13.8h252.7l46 79.7 46-79.7h252.7c7.6 0 13.8-6.2 13.8-13.8V828.4c.1-7.6-6.1-13.8-13.7-13.8z"/><text transform="translate(873.704 940.828)"><tspan x="0" y="0" class="st2 st3 st4">Região Sul</tspan><tspan x="22.4" y="72" class="st2 st3 st4">35 vagas</tspan><tspan x="-4.2" y="144" class="st5 st3 st4">Saiba mais</tspan></text></svg>