<svg xmlns="http://www.w3.org/2000/svg" viewBox="0 0 453.3 42.6"><path d="M32.1 15c0-2.6-.6-4.9-1.9-7-1.3-2.1-3.1-3.6-5.4-4.7-2.3-1.1-5-1.7-8-1.7H1V41h9.5V27.6h6.1c4.8 0 8.6-1.2 11.3-3.5 2.8-2.2 4.2-5.3 4.2-9.1zM21 18.9c-1 .9-2.4 1.4-4.2 1.4h-6.2V8.9h6.3c1.7 0 3.1.6 4.1 1.7 1 1.1 1.5 2.6 1.5 4.4-.1 1.7-.6 3-1.5 3.9zM42.6 1.6L28.1 41h10.2l2.3-7.4h13l2.3 7.4h10.2L51.6 1.6h-9zm.3 24.7l4.2-13.7 4.3 13.7h-8.5zm53.8-6c1.1-1.8 1.7-4.1 1.7-6.8 0-3.8-1.3-6.7-4-8.8-2.6-2.1-6.3-3.1-11-3.1H67.9V41h9.5V27h5.2l7 14h10.2v-.4l-8.2-15.9c2.2-1.1 4-2.6 5.1-4.4zm-9.2-2c-.9 1-2.3 1.4-4.1 1.4h-6V8.9h6c1.8 0 3.1.5 4.1 1.5.9 1 1.4 2.3 1.4 4 0 1.7-.5 3-1.4 3.9zm26.9-16.7L99.9 41h10.2l2.3-7.4h13l2.3 7.4h10.2L123.4 1.6h-9zm.3 24.7l4.2-13.7 4.3 13.7h-8.5zM183.5 15c0-2.6-.6-4.9-1.9-7-1.3-2.1-3.1-3.6-5.4-4.7-2.3-1.1-5-1.7-8-1.7h-15.7V41h9.5V27.6h6.1c4.8 0 8.6-1.2 11.3-3.5 2.7-2.2 4.1-5.3 4.1-9.1zm-11.1 3.9c-1 .9-2.4 1.4-4.2 1.4H162V8.9h6.3c1.7 0 3.1.6 4.1 1.7 1 1.1 1.5 2.6 1.5 4.4-.1 1.7-.6 3-1.5 3.9zM194 1.6L179.5 41h10.2l2.3-7.4h13l2.3 7.4h10.2L203 1.6h-9zm.3 24.7l4.2-13.7 4.3 13.7h-8.5zm53.8-6c1.1-1.8 1.7-4.1 1.7-6.8 0-3.8-1.3-6.7-4-8.8-2.6-2.1-6.3-3.1-11-3.1h-15.5V41h9.5V27h5.2l7 14h10.2v-.4L243 24.7c2.3-1.1 4-2.6 5.1-4.4zm-9.2-2c-.9 1-2.3 1.4-4.1 1.4h-6V8.9h6c1.8 0 3.1.5 4.1 1.5.9 1 1.4 2.3 1.4 4 0 1.7-.5 3-1.4 3.9zm12.2-9.4h11.6V41h9.5V8.9H284V1.6h-33v7.3zM287.6 41h9.5V1.6h-9.5V41zm25.3-29.9c1.1-1.8 2.8-2.7 5.2-2.7 2.3 0 4.1.5 5.2 1.6 1.1 1 1.7 2.8 1.8 5.2h9.5c-.4-4.4-2.1-7.9-5-10.4S322.8 1 318.1 1c-3.3 0-6.3.8-8.8 2.4-2.5 1.6-4.5 3.8-5.8 6.7-1.3 2.9-2 6.3-2 10.2v2c0 6.2 1.5 10.9 4.5 14.3 3 3.4 7.1 5.1 12.3 5.1 3.1 0 5.9-.6 8.4-1.7 2.4-1.2 4.4-2.8 5.7-4.9 1.4-2.1 2.1-4.5 2.2-7.3h-9.5c-.1 2.2-.7 3.9-1.8 4.9-1.2 1-2.8 1.5-5 1.5-2.6 0-4.4-.9-5.5-2.7-1.1-1.8-1.6-4.8-1.6-9v-2.8c0-4 .6-6.8 1.7-8.6zM338.6 41h9.5V1.6h-9.5V41zm46-26c0-2.6-.6-4.9-1.9-7-1.3-2.1-3.1-3.6-5.4-4.7-2.3-1.1-5-1.7-8-1.7h-15.7V41h9.5V27.6h6.1c4.8 0 8.6-1.2 11.3-3.5 2.7-2.2 4.1-5.3 4.1-9.1zm-11.1 3.9c-1 .9-2.4 1.4-4.2 1.4h-6.2V8.9h6.3c1.7 0 3.1.6 4.1 1.7 1 1.1 1.5 2.6 1.5 4.4 0 1.7-.5 3-1.5 3.9zm21.7-17.3L380.7 41h10.2l2.3-7.4h13l2.3 7.4h10.2L404.1 1.6h-8.9zm.2 24.7l4.2-13.7 4.3 13.7h-8.5zm48.6-1.6c2.4-1.1 4.1-2.6 5.2-4.4 1.1-1.8 1.7-4.1 1.7-6.8 0-3.8-1.3-6.7-4-8.8-2.6-2.1-6.3-3.1-11-3.1h-15.5V41h9.5V27h5.2l7 14h10.2v-.4L444 24.7zm-3.9-6.4c-.9 1-2.3 1.4-4.1 1.4h-6V8.9h6c1.8 0 3.1.5 4.1 1.5.9 1 1.4 2.3 1.4 4-.1 1.7-.5 3-1.4 3.9z" fill="none" stroke="#fff" stroke-width="2" stroke-miterlimit="10"/></svg>