<svg xmlns="http://www.w3.org/2000/svg" viewBox="0 0 218 51.6"><path d="M33.1 1.7l-9.6 35.1-9.6-35.1H1L17.1 50h12.7L46.1 1.7h-13zm26.6 0L42 50h12.4l2.8-9h15.9l2.8 9h12.5L70.6 1.7H59.7zM60 32l5.2-16.7L70.4 32H60zm50.4.2h8.1v7.5c-1.5 1.3-3.7 2-6.8 2-3.5 0-6.1-1.2-7.8-3.6-1.6-2.4-2.5-6-2.5-10.9v-2.9c0-4.6.8-8.1 2.4-10.6 1.6-2.5 3.8-3.7 6.8-3.7 2.4 0 4.3.6 5.6 1.7 1.3 1.1 2.2 3.1 2.6 5.8H130c-.6-5.5-2.5-9.6-5.8-12.3-3.3-2.8-8-4.1-14-4.1-4.1 0-7.7 1-10.9 2.9-3.1 1.9-5.5 4.6-7.2 8.2-1.7 3.5-2.5 7.7-2.5 12.4v4.2c.4 6.8 2.4 12.2 6.2 16 3.8 3.9 8.8 5.8 15.1 5.8 4.1 0 7.9-.6 11.3-1.8 3.4-1.2 6.1-2.8 7.9-4.8V24.2h-19.7v8zm39.1-30.5L131.8 50h12.4l2.8-9h16l2.8 9h12.5L160.4 1.7h-10.9zm.3 30.3l5.2-16.7 5.2 16.7h-10.4zm59.3-7.4c-2.1-1.2-4.9-2.4-8.2-3.5-3.3-1.1-5.7-2.1-7-3.1-1.3-1-2-2.1-2-3.4 0-1.4.6-2.6 1.8-3.5 1.2-.9 2.8-1.4 4.9-1.4 2.1 0 3.7.5 4.9 1.6 1.2 1.1 1.8 2.6 1.8 4.6H217c0-2.9-.8-5.6-2.3-7.8-1.5-2.3-3.7-4-6.4-5.3-2.8-1.2-5.9-1.9-9.3-1.9-3.6 0-6.8.6-9.6 1.7-2.9 1.1-5.1 2.7-6.6 4.8-1.6 2-2.3 4.4-2.3 7.1 0 5.4 3.1 9.6 9.4 12.7 1.9 1 4.4 1.9 7.4 3 3 1 5.1 2 6.3 3 1.2 1 1.8 2.3 1.8 4 0 1.5-.6 2.7-1.7 3.5-1.1.8-2.6 1.2-4.6 1.2-3 0-5.2-.6-6.5-1.8-1.3-1.2-2-3.1-2-5.7h-11.7c0 3.2.8 6 2.4 8.4 1.6 2.4 4 4.4 7.2 5.8 3.2 1.4 6.7 2.1 10.6 2.1 5.5 0 9.9-1.2 13.1-3.6 3.2-2.4 4.8-5.7 4.8-9.9 0-5.4-2.6-9.6-7.9-12.6z" fill="none" stroke="#fff" stroke-width="2" stroke-linecap="round" stroke-linejoin="round" stroke-miterlimit="10"/></svg>