<?xml version="1.0" encoding="utf-8"?>
<!-- Generator: Adobe Illustrator 23.0.1, SVG Export Plug-In . SVG Version: 6.00 Build 0)  -->
<svg version="1.1" id="Layer_1" xmlns="http://www.w3.org/2000/svg" xmlns:xlink="http://www.w3.org/1999/xlink" x="0px" y="0px"
	 viewBox="0 0 56.8 78.4" style="enable-background:new 0 0 56.8 78.4;" xml:space="preserve">
<style type="text/css">
	.st0{fill:#32263D;}
	.st1{fill:#FFECE0;}
	.st2{fill:#582D2C;}
	.st3{fill:#D8D8D7;}
	.st4{fill:#9A96A4;}
	.st5{fill:#C6C5C8;}
	.st6{fill:#2D2C34;}
	.st7{fill:#494651;}
	.st8{fill:#D7D7DA;}
	.st9{fill:#FAB992;}
	.st10{fill:#405361;}
	.st11{fill:#DDD9D8;}
	.st12{fill:#362C41;}
	.st13{fill:#F19D1F;}
	.st14{clip-path:url(#SVGID_2_);fill:#F9A71C;}
	.st15{clip-path:url(#SVGID_4_);fill:#FAAE32;}
	.st16{clip-path:url(#SVGID_6_);fill:#FAAE32;}
	.st17{clip-path:url(#SVGID_8_);fill:#FAAE32;}
	.st18{fill:#F7A079;}
	.st19{fill:#FAB993;}
	.st20{fill:#47312A;}
	.st21{fill:#683535;}
	.st22{fill:#D75656;}
	.st23{fill:#A4A3A7;}
	.st24{fill:#B4B3B7;}
	.st25{fill:#F7A17A;}
	.st26{fill:#FAAE32;}
	.st27{fill:#493B56;}
	.st28{fill:#221C29;}
	.st29{fill:#2E2638;}
	.st30{fill:#ED9621;}
</style>
<g>
	<path class="st0" d="M32.6,35.7c0,0-0.2,6.5-0.2,8.1c0,1.6,0.4,4.2,0.4,4.2l0.6-0.1c0,0,0-4.8,0.1-6.1c0.1-1.2,0.1-6.1,0.1-6.1
		L32.6,35.7z"/>
	<path class="st1" d="M33.7,36.7c0-0.2-0.2-0.5-0.4-0.5s-0.5,0.2-0.5,0.4s0.2,0.5,0.4,0.5C33.5,37.2,33.7,37,33.7,36.7z"/>
	<path class="st0" d="M36.8,35.7c0,0,1.2,1.9,1.7,2.4s2,1.5,2,1.5s-1.2-1.1-1.9-2.2C37.9,36.4,36.8,35.7,36.8,35.7z"/>
	<path class="st0" d="M29.7,35.5c0,0-1.3,1.8-1.8,2.3s-2.1,1.4-2.1,1.4s1.2-1.1,2-2.1S29.7,35.5,29.7,35.5z"/>
	<path class="st2" d="M31.5,16.8c0,0.1,5.9-1.3,7.4-3.3c1.5-1.9,0.3-6,0-8.5c-0.3-2.6-1.5-4.1-3.4-4.6c-1.9-0.6-4,3.5-4,3.5
		s-1.6,2.6-1.9,4.9C29.4,10.1,31.5,16.8,31.5,16.8z"/>
	<g>
		<g>
			<g>
				
					<rect x="17.6" y="45.7" transform="matrix(0.2811 -0.9597 0.9597 0.2811 -26.0382 57.0021)" class="st3" width="14.8" height="0.4"/>
			</g>
			<g>
				
					<rect x="19.9" y="47.3" transform="matrix(0.5294 -0.8484 0.8484 0.5294 -27.8793 44.7021)" class="st3" width="12.9" height="0.4"/>
			</g>
			<g>
				
					<rect x="21.6" y="49.2" transform="matrix(0.7627 -0.6468 0.6468 0.7627 -25.5508 29.2237)" class="st3" width="10.9" height="0.4"/>
			</g>
			<g>
				
					<rect x="22.6" y="51.1" transform="matrix(0.9393 -0.3431 0.3431 0.9393 -15.9399 12.5149)" class="st3" width="9.6" height="0.4"/>
			</g>
			<g>
				
					<rect x="27.2" y="48.6" transform="matrix(3.428764e-02 -0.9994 0.9994 3.428764e-02 -26.6178 78.6957)" class="st3" width="0.4" height="9"/>
			</g>
			<g>
				
					<rect x="26.9" y="50.2" transform="matrix(0.4037 -0.9149 0.9149 0.4037 -33.9628 57.4085)" class="st3" width="0.4" height="9.1"/>
			</g>
			<g>
				
					<rect x="26.5" y="51.3" transform="matrix(0.6897 -0.7241 0.7241 0.6897 -32.6114 36.8804)" class="st3" width="0.4" height="10.3"/>
			</g>
			<g>
				
					<rect x="25.7" y="52.2" transform="matrix(0.8737 -0.4865 0.4865 0.8737 -25.0538 19.9601)" class="st3" width="0.4" height="12.1"/>
			</g>
			<g>
				
					<rect x="24.4" y="52.8" transform="matrix(0.9714 -0.2375 0.2375 0.9714 -13.4726 7.5518)" class="st3" width="0.4" height="13.8"/>
			</g>
			<g>
				
					<rect x="15.3" y="60.4" transform="matrix(1.167716e-02 -0.9999 0.9999 1.167716e-02 -37.9971 82.7572)" class="st3" width="15.2" height="0.4"/>
			</g>
			<g>
				
					<rect x="13.2" y="60.2" transform="matrix(0.2611 -0.9653 0.9653 0.2611 -42.8191 64.8406)" class="st3" width="15.4" height="0.4"/>
			</g>
			<g>
				
					<rect x="12.3" y="58.8" transform="matrix(0.5095 -0.8605 0.8605 0.5095 -41.287 45.6441)" class="st3" width="14.1" height="0.4"/>
			</g>
			<g>
				
					<rect x="12.1" y="56.9" transform="matrix(0.7452 -0.6669 0.6669 0.7452 -33.4123 26.7691)" class="st3" width="12.4" height="0.4"/>
			</g>
			<g>
				
					<rect x="11.9" y="54.9" transform="matrix(0.9285 -0.3714 0.3714 0.9285 -19.2092 10.4839)" class="st3" width="11.4" height="0.4"/>
			</g>
			<g>
				
					<rect x="17.3" y="47.5" transform="matrix(2.778243e-03 -1 1 2.778243e-03 -35.5173 70.2666)" class="st3" width="0.4" height="10.8"/>
			</g>
			<g>
				
					<rect x="17.7" y="45.3" transform="matrix(0.3763 -0.9265 0.9265 0.3763 -35.9605 48.2797)" class="st3" width="0.4" height="11"/>
			</g>
			<g>
				
					<rect x="18.2" y="42.8" transform="matrix(0.6704 -0.742 0.742 0.6704 -30.2061 29.7878)" class="st3" width="0.4" height="12.2"/>
			</g>
			<g>
				
					<rect x="19.2" y="40.1" transform="matrix(0.8623 -0.5064 0.5064 0.8623 -21.1333 16.3021)" class="st3" width="0.4" height="13.8"/>
			</g>
			<g>
				
					<rect x="20.8" y="38.2" transform="matrix(0.9662 -0.2576 0.2576 0.9662 -11.063 6.9522)" class="st3" width="0.4" height="15"/>
			</g>
			<g>
				
					<rect x="22.7" y="37.3" transform="matrix(1 -8.270073e-03 8.270073e-03 1 -0.3726 0.1909)" class="st3" width="0.4" height="15.7"/>
			</g>
		</g>
		<g>
			<g>
				
					<rect x="18.1" y="45.9" transform="matrix(0.3994 -0.9168 0.9168 0.3994 -26.979 50.9438)" class="st3" width="14.5" height="0.4"/>
			</g>
			<g>
				
					<rect x="20.2" y="47.7" transform="matrix(0.6415 -0.7671 0.7671 0.6415 -27.223 37.4957)" class="st3" width="12.6" height="0.4"/>
			</g>
			<g>
				
					<rect x="21.7" y="49.7" transform="matrix(0.8534 -0.5213 0.5213 0.8534 -22.037 21.4042)" class="st3" width="10.7" height="0.4"/>
			</g>
			<g>
				
					<rect x="22.4" y="51.7" transform="matrix(0.9836 -0.1806 0.1806 0.9836 -8.9248 5.7582)" class="st3" width="9.5" height="0.4"/>
			</g>
			<g>
				
					<rect x="26.7" y="49.1" transform="matrix(0.2032 -0.9791 0.9791 0.2032 -31.0572 69.0809)" class="st3" width="0.4" height="9.1"/>
			</g>
			<g>
				
					<rect x="26.5" y="50.3" transform="matrix(0.5336 -0.8457 0.8457 0.5336 -34.413 48.3872)" class="st3" width="0.4" height="10.1"/>
			</g>
			<g>
				
					<rect x="25.8" y="51.5" transform="matrix(0.7844 -0.6202 0.6202 0.7844 -29.8996 28.4807)" class="st3" width="0.4" height="11.5"/>
			</g>
			<g>
				
					<rect x="24.8" y="52.2" transform="matrix(0.9282 -0.372 0.372 0.9282 -20.1513 13.5312)" class="st3" width="0.4" height="13.6"/>
			</g>
			<g>
				<rect x="23.2" y="52.6" transform="matrix(0.9928 -0.12 0.12 0.9928 -7.0542 3.2428)" class="st3" width="0.4" height="15.2"/>
			</g>
			<g>
				
					<rect x="13.8" y="60" transform="matrix(0.131 -0.9914 0.9914 0.131 -41.0291 73.5471)" class="st3" width="15.2" height="0.4"/>
			</g>
			<g>
				
					<rect x="12" y="59.5" transform="matrix(0.3797 -0.9251 0.9251 0.3797 -43.1103 55.1446)" class="st3" width="15.1" height="0.4"/>
			</g>
			<g>
				
					<rect x="11.2" y="57.9" transform="matrix(0.623 -0.7822 0.7822 0.623 -38.6441 36.0872)" class="st3" width="13.8" height="0.4"/>
			</g>
			<g>
				
					<rect x="11.3" y="55.8" transform="matrix(0.8386 -0.5448 0.5448 0.8386 -27.7147 18.4975)" class="st3" width="12.1" height="0.4"/>
			</g>
			<g>
				
					<rect x="11.3" y="53.7" transform="matrix(0.9775 -0.2107 0.2107 0.9775 -10.9758 4.7817)" class="st3" width="11.3" height="0.4"/>
			</g>
			<g>
				
					<rect x="16.9" y="46.3" transform="matrix(0.1727 -0.985 0.985 0.1727 -36.8276 59.5971)" class="st3" width="0.4" height="10.9"/>
			</g>
			<g>
				
					<rect x="17.5" y="44.1" transform="matrix(0.5185 -0.8551 0.8551 0.5185 -34.0253 39.0748)" class="st3" width="0.4" height="11.2"/>
			</g>
			<g>
				
					<rect x="18.3" y="41.6" transform="matrix(0.7688 -0.6395 0.6395 0.7688 -26.3153 22.8623)" class="st3" width="0.4" height="12.5"/>
			</g>
			<g>
				
					<rect x="19.5" y="39.1" transform="matrix(0.9198 -0.3924 0.3924 0.9198 -16.5281 11.4224)" class="st3" width="0.4" height="14.1"/>
			</g>
			<g>
				
					<rect x="21.2" y="37.6" transform="matrix(0.9901 -0.1403 0.1403 0.9901 -6.1293 3.45)" class="st3" width="0.4" height="15.2"/>
			</g>
			<g>
				
					<rect x="15.6" y="44.8" transform="matrix(0.1105 -0.9939 0.9939 0.1105 -23.8946 63.2087)" class="st3" width="15.6" height="0.4"/>
			</g>
		</g>
		<g>
			<path class="st4" d="M21.3,70c-0.2,0-0.4,0-0.6,0c-3.1-0.3-5.9-2.4-7.9-5.9c-1.8-3.4-2.7-7.7-2.4-12.2c0.4-5.8,2.6-11.1,6-14
				c2-1.7,4.2-2.5,6.5-2.3c3.1,0.3,5.9,2.4,7.9,5.9c1.8,3.4,2.7,7.7,2.4,12.2c-0.4,5.8-2.6,11.1-6,14C25.4,69.2,23.4,70,21.3,70z
				 M22.3,37.9c-1.5,0-2.9,0.6-4.3,1.8c-2.9,2.5-4.8,7.1-5.2,12.3c-0.3,4.1,0.5,7.9,2.1,10.9c1.5,2.8,3.6,4.5,5.9,4.6
				c1.6,0.1,3.2-0.5,4.7-1.7c2.9-2.5,4.8-7.1,5.2-12.3c0.3-4.1-0.5-7.9-2.1-10.9c-1.5-2.8-3.6-4.5-5.9-4.6
				C22.6,37.9,22.4,37.9,22.3,37.9z"/>
		</g>
		<g>
			<path class="st3" d="M22.6,68.6c-0.2,0-0.3,0-0.5,0c-2.6-0.2-5-2.1-6.7-5.2c-1.6-3.1-2.4-7.1-2.1-11.2c0.3-5.5,2.4-10.3,5.4-12.9
				c1.6-1.4,3.5-2.1,5.3-1.9c2.6,0.2,5,2.1,6.7,5.2c1.6,3.1,2.4,7.1,2.1,11.2c-0.3,5.5-2.4,10.3-5.4,12.9
				C25.9,67.9,24.3,68.6,22.6,68.6z M23.6,38.1c-1.5,0-2.9,0.6-4.3,1.8c-2.9,2.5-4.8,7.1-5.1,12.3c-0.5,8.2,3.1,15.1,8,15.5
				c1.6,0.1,3.2-0.5,4.7-1.7c2.9-2.5,4.8-7.1,5.1-12.3c0.5-8.2-3.1-15.1-8-15.5C23.9,38.1,23.7,38.1,23.6,38.1z"/>
		</g>
	</g>
	<g>
		<path class="st5" d="M24.9,59.8H23c0.1-3.3,0.7-32.6,1-34.2c0.3-1.9,2.5-2.4,3.7-2.4V25c-0.3,0-1.6,0.2-1.8,0.8
			C25.7,27.1,25.2,46.8,24.9,59.8z"/>
	</g>
	<g>
		<g>
			<path class="st6" d="M27.4,24.8C27.3,24.8,27.3,24.8,27.4,24.8C27.3,24.8,27.3,24.8,27.4,24.8z"/>
		</g>
		<g>
			<path class="st6" d="M31,23c-3.6,0-3.7,0.2-3.7,0.2c0.3,0.2,0.6,1.5,0.1,1.6c0.2,0,0.6,0,1.2,0c0,0.2,0.2,0.3,0.4,0.3l0,0
				c0.1,0,0.3-0.1,0.3-0.2c0.1,0.1,0.2,0.2,0.3,0.2c0.2,0,0.3-0.1,0.3-0.2l0,0c0.1,0.1,0.2,0.2,0.3,0.2c0.2,0,0.3-0.1,0.3-0.2l0,0
				c0.1,0.1,0.2,0.2,0.3,0.2c0.2,0,0.3-0.1,0.3-0.2h0.1C31.7,24.9,32,23,31,23z"/>
		</g>
	</g>
	<g>
		<path class="st7" d="M22.2,38.5l-4.6,0.1c-1.2,0.1-2.3,0.6-3,1.5l-0.5,0.6c-0.6,0.8-1.5,1.3-2.4,1.6l-0.6,0.2
			c-1.4,0.4-2.5,1.5-2.8,3l-0.5,2.1c-0.3,1,0.2,1.8,1.2,1.6l12.7-2.6c1.5-0.3,2.1-0.2,2-1.7L23.5,41C23.2,39.5,23.7,38.4,22.2,38.5z
			"/>
	</g>
	<g>
		<path class="st8" d="M3.2,69.1l-1.9-0.4l3-14.8v-0.1c0.6-1.9,2.2-3.4,4.2-3.9l0.7-0.2l16.4-4.3l0.5,1.9L9,51.8
			c-1.3,0.3-2.4,1.3-2.8,2.6L3.2,69.1z"/>
	</g>
	<g>
		<g>
			<path class="st9" d="M25.4,19c0,0.1,0.9,4.3,1.7,7.6c1,3.7,1.8,8.1,2.1,8.5c2.1,2.6,7.4,3.5,9.9,0.4l1.7-8.9l1.8-7.9
				c-0.5-1-5.6-3-8.6-2.9C29.5,16,25.8,18,25.4,19z"/>
		</g>
	</g>
	<g>
		<polygon class="st6" points="46.2,25.7 24.8,25.7 24,46.4 45.3,47.1 		"/>
	</g>
	<g>
		<g>
			<path class="st9" d="M25.5,19c-1.9,3.1-2,13.9-2.1,14.5c0,0.6,1.6,1.9,3,0.9c0.4-0.3,1.5-8.9,1.5-9.8
				C27.9,23.5,26.7,16.9,25.5,19z"/>
		</g>
	</g>
	<g>
		<path class="st5" d="M46.2,61.8h-1.9c0.1-3.5,0.6-34.6,0.9-36.2c0.3-1.9,2.5-2.4,3.7-2.4V25c-0.3,0-1.6,0.2-1.7,0.8
			C46.9,27.1,46.5,48,46.2,61.8z"/>
	</g>
	<g>
		<path class="st5" d="M24.3,47.1L22.4,47c0.1-3.9,0-8.6-0.3-9.3c0.1,0.1,0.3,0.4,0.7,0.4v-1.9c0.3,0,0.6,0.1,0.8,0.3
			c0.4,0.4,0.8,1.2,0.8,5.9C24.4,44.8,24.3,47.1,24.3,47.1z"/>
	</g>
	<path class="st10" d="M26.9,17.6l0.7,5.5c0,0-0.5,1.5-0.7,2.6s0.4,3.5,0.4,3.5s2.7,1,5.4-0.4h0.8c0,0,2.8,1.6,6.8,0.7
		c0,0,0.1,0.1,0.4-1.9l-1-4.6l0.9-5.5l-0.5-0.1L39.2,23c0,0-2.5,0.8-3.7,2.1c-1.2,1.3-1.9,3.1-1.9,3.1h-0.8c0,0-1.4-4.1-4.6-5.1
		l-0.8-5.6L26.9,17.6z"/>
	<g>
		<path class="st11" d="M24.5,44.6c0,0-0.1,1.4,0,1.6c0.1,0.2,10.9,1.3,15.4-0.2c0.2-0.1,0-1.3,0-1.3S29.1,42.6,24.5,44.6z"/>
	</g>
	<g>
		<path class="st7" d="M30.7,57l-1.2,0.3c-0.2,0.1-0.4,0.3-0.3,0.6l0.2,0.6c0.1,0.2,0.3,0.4,0.6,0.3l1.2-0.3
			c0.2-0.1,0.4-0.3,0.3-0.6l-0.2-0.6C31.2,57.1,30.9,57,30.7,57z"/>
	</g>
	<path class="st12" d="M28.2,34.8c0,0,4.9,1.4,6,1.3c1.5-0.1,5.7-1.6,5.7-1.6s1.9,5.1,2.2,6.8s0.6,3.9,0.2,5.4
		c-0.4,1.5-6.2,1.7-11,1.4s-6.1-0.1-6.1-2.4c0-2.2,0.4-5.5,1.1-7C27.3,37.4,28.2,34.8,28.2,34.8z"/>
	<g>
		<path class="st6" d="M24,46.4c0,0-17,3.3-16.8,3.3s17.1,2,20.4,1.8S45.3,47,45.3,47S36.1,46.2,24,46.4z"/>
	</g>
	<g>
		<g>
			<path class="st6" d="M53,22.8c-4.9,0-4.9,0.3-4.9,0.3c0.4,0.2,0.4,1.8,0.1,2.1c0.2,0,0.8,0,1.6,0c0.1,0.2,0.2,0.4,0.5,0.4h0.1
				c0.2,0,0.3-0.1,0.4-0.3c0.1,0.1,0.2,0.2,0.4,0.2s0.4-0.1,0.5-0.3c0,0,0,0,0.1,0c0.1,0.2,0.2,0.3,0.4,0.3s0.4-0.1,0.4-0.3l0,0
				c0.1,0.2,0.2,0.3,0.4,0.3s0.3-0.1,0.4-0.2h0.1C53.9,25.2,54.3,22.8,53,22.8z"/>
		</g>
	</g>
	<g>
		<path class="st8" d="M35.5,66.9c-0.9,0-1.7-0.4-2.3-1c-0.4-0.5-0.9-0.8-1.4-1c-0.4-0.2-0.8-0.3-1.3-0.3c-1.4-0.2-2.4-1.4-2.4-2.8
			H30c0,0.4,0.3,0.8,0.8,0.9c0.6,0.1,1.2,0.3,1.7,0.5c0.8,0.3,1.5,0.8,2.1,1.5c0.3,0.3,0.7,0.4,1.1,0.3l13.7-6l0.8,1.8l-13.8,6h-0.1
			C36,66.9,35.8,66.9,35.5,66.9z"/>
	</g>
	<path class="st13" d="M26,18.1c-0.8,0.5-3,4.1-2.9,5c0.1,0.8-0.1,1.6-0.4,2.4c-0.4,0.7-0.6,2.3-0.5,2.6c0.1,0.2,0.1,2.8,0,3.5
		c-0.1,0.8,0.2,2.7,3.7,2.7s3.8-5.6,4.5-8.1C31.1,23.7,29.6,15.9,26,18.1z"/>
	<g>
		<g>
			<defs>
				<path id="SVGID_1_" d="M27,17.3c0,0-0.7,0.3-1,0.8s0.7,6.6,0.4,8.7c-0.3,2-0.4,8.7-0.9,11c-0.4,2.3,0,5.9,0,5.9s2.9-2.1,8.8-2.1
					c6,0,8.9,1.9,8.9,1.9s-0.9-8.6-1-10.6c-0.2-2-0.1-14.4,0-14.9c0.1-0.4-3.1-1.6-3.1-1.6S33.2,22.4,27,17.3z"/>
			</defs>
			<clipPath id="SVGID_2_">
				<use xlink:href="#SVGID_1_"  style="overflow:visible;"/>
			</clipPath>
			<path class="st14" d="M30.2,15.4c0,0-3.9,2.2-4.2,2.7c-0.3,0.5,0.7,6.6,0.4,8.7c-0.3,2-0.4,8.7-0.9,11c-0.4,2.3,0,5.9,0,5.9
				s2.9-2.1,8.8-2.1c6,0,8.9,1.9,8.9,1.9s-0.9-8.6-1-10.6c-0.2-2-0.1-14.4,0-14.9c0.1-0.4-3.7-2.3-3.7-2.3S33.7,17,30.2,15.4z"/>
		</g>
		<g>
			<defs>
				<path id="SVGID_3_" d="M27,17.3c0,0-0.7,0.3-1,0.8s0.7,6.6,0.4,8.7c-0.3,2-0.4,8.7-0.9,11c-0.4,2.3,0,5.9,0,5.9s2.9-2.1,8.8-2.1
					c6,0,8.9,1.9,8.9,1.9s-0.9-8.6-1-10.6c-0.2-2-0.1-14.4,0-14.9c0.1-0.4-3.1-1.6-3.1-1.6S33.2,22.4,27,17.3z"/>
			</defs>
			<clipPath id="SVGID_4_">
				<use xlink:href="#SVGID_3_"  style="overflow:visible;"/>
			</clipPath>
			<path class="st15" d="M27.3,41.8c0.1,0.3,0.3,0.6,0.5,0.8c-0.1,0.1-0.3,0.2-0.3,0.5c-0.1,0.4,0,0.7,0.2,1
				c0.1,0.2,0.4,0.2,0.5,0.1c0.2-0.1,0.2-0.3,0.1-0.5c-0.1-0.1-0.1-0.3-0.1-0.4c0-0.1,0.1-0.1,0.2-0.2c0.2,0.2,0.5,0.4,0.4,0.4
				c-0.4,0.3,0,0.9,0.4,0.6c0.5-0.4,0.5-0.9,0.1-1.4c-0.1-0.1-0.2-0.1-0.2-0.2c0.5-0.5,0.8-1.3,0.4-2c-0.1-0.2-0.2-0.3-0.4-0.4
				c0.1,0,0.1,0,0.2-0.1c0.5-0.5,0.6-1.2,0.3-1.8c-0.2-0.4-0.4-0.6-0.7-0.8c0.7-0.4,0.8-1.2,0.5-2c-0.1-0.2-0.3-0.4-0.5-0.6
				c0.7-0.8,1-1.9,0.4-2.9c-0.1-0.2-0.3-0.4-0.5-0.5c0,0,0,0,0.1-0.1c0.6-0.7,0.8-1.6,0.3-2.4c-0.1-0.2-0.2-0.3-0.4-0.5
				c0.1,0,0.1-0.1,0.2-0.2c0.4-0.7,0.6-1.5,0.2-2.3c-0.1-0.2-0.3-0.4-0.4-0.6c0.1,0,0.2-0.1,0.3-0.2c0.4-0.7,0.5-1.5,0.1-2.2
				c-0.1-0.2-0.2-0.3-0.4-0.5c0.1,0,0.2-0.1,0.3-0.2c0.4-0.6,0.2-1.3-0.2-1.9c-0.1-0.1-0.2-0.3-0.3-0.4c0.4-0.3,0.8-0.7,0.9-1.2
				c0.1-0.7-0.4-1.4-0.7-1.9c-0.1-0.2-0.3-0.2-0.4-0.1c-0.2-0.2-0.4-0.2-0.6,0.1c-0.3,0.8-0.8,1.5-0.6,2.4c0,0.2,0.1,0.3,0.2,0.5
				c0,0,0,0,0,0.1c-0.3,0.7-0.5,1.5-0.2,2.2c0.1,0.1,0.1,0.2,0.2,0.3l0,0c-0.3,0.8-0.5,1.7-0.2,2.5c0.1,0.1,0.2,0.3,0.3,0.4l0,0
				C27,26,26.7,27,27.1,27.8c0.1,0.2,0.2,0.3,0.3,0.4c-0.5,0.8-0.8,1.8-0.3,2.6c0.1,0.2,0.3,0.4,0.5,0.5c-0.5,0.6-1,1.4-0.7,2.2
				c0.1,0.3,0.5,0.7,0.9,1.1c-0.5,0.5-0.8,1.2-0.6,1.9c0.1,0.4,0.3,0.6,0.5,0.8c-0.4,0.5-0.6,1.1-0.4,1.8c0.1,0.2,0.2,0.4,0.3,0.6
				C27.2,40.4,27.1,41.1,27.3,41.8z M28.1,19.5c-0.1-0.2-0.2-0.3-0.2-0.6c-0.1-0.5,0.2-1,0.4-1.4c0.2,0.3,0.5,0.7,0.5,1.1
				C28.8,19.1,28.5,19.3,28.1,19.5z M28,20.5c0.4,0.5,0.8,1,0.5,1.5c0,0.1,0,0.1,0,0.2C27.8,21.7,27.8,21.2,28,20.5z M28.5,24.9
				c0,0.1-0.1,0.1-0.1,0.2c-0.7-0.6-0.6-1.3-0.4-2.2C28.7,23.4,29,24.1,28.5,24.9z M28.4,27.9V28C28.3,28,28.3,28,28.4,27.9
				c-0.9-0.5-0.8-1.4-0.3-2.2C28.8,26.3,28.9,27.1,28.4,27.9z M28.4,30.8l-0.1,0.1l-0.1-0.1c-0.8-0.6-0.6-1.4-0.2-2.1
				C28.6,29.3,29.1,30,28.4,30.8z M28.3,34.3L28.3,34.3c-0.9-0.9-0.9-1.6-0.1-2.5C29,32.5,29,33.4,28.3,34.3z M28.2,35.3
				c0.5,0.6,0.8,1.2,0.2,1.5c-0.1,0-0.1,0.1-0.1,0.1c-0.2-0.2-0.4-0.4-0.4-0.6C27.7,36,28,35.5,28.2,35.3z M28.6,39.8
				c-0.4-0.2-0.6-0.5-0.7-1c-0.1-0.3,0.1-0.6,0.3-0.9c0.5,0.4,1.1,0.9,0.5,1.6C28.6,39.6,28.6,39.7,28.6,39.8z M28.5,42.1
				C28.4,42.1,28.4,42.1,28.5,42.1c-0.1,0-0.2-0.1-0.2-0.2c-0.4-0.5-0.4-1.1-0.1-1.6c0.1,0,0.1,0.1,0.2,0.1
				C28.9,40.9,29,41.5,28.5,42.1z"/>
		</g>
		<g>
			<defs>
				<path id="SVGID_5_" d="M27,17.3c0,0-0.7,0.3-1,0.8s0.7,6.6,0.4,8.7c-0.3,2-0.4,8.7-0.9,11c-0.4,2.3,0,5.9,0,5.9s2.9-2.1,8.8-2.1
					c6,0,8.9,1.9,8.9,1.9s-0.9-8.6-1-10.6c-0.2-2-0.1-14.4,0-14.9c0.1-0.4-3.1-1.6-3.1-1.6S33.2,22.4,27,17.3z"/>
			</defs>
			<clipPath id="SVGID_6_">
				<use xlink:href="#SVGID_5_"  style="overflow:visible;"/>
			</clipPath>
			<path class="st16" d="M41.7,39.7c0.1-0.2,0.2-0.4,0.3-0.6c0.1-0.7-0.1-1.3-0.5-1.7c0.3-0.2,0.4-0.5,0.5-0.9
				c0.1-0.8-0.2-1.4-0.7-1.9c0.4-0.5,0.8-0.9,0.8-1.2c0.2-0.9-0.3-1.6-0.9-2.2c0.2-0.2,0.3-0.3,0.5-0.5c0.5-0.9,0.1-1.8-0.4-2.6
				c0.1-0.1,0.2-0.3,0.3-0.5c0.4-0.8-0.1-1.8-0.6-2.5l0,0c0.1-0.1,0.2-0.2,0.2-0.4c0.3-0.8,0-1.7-0.3-2.5l0,0
				c0.1-0.1,0.1-0.2,0.2-0.3c0.3-0.7,0-1.5-0.3-2.2c0,0,0,0,0-0.1c0.1-0.2,0.2-0.3,0.2-0.5c0.2-0.9-0.4-1.6-0.7-2.4
				c-0.1-0.3-0.4-0.2-0.6-0.1c-0.2-0.1-0.3,0-0.4,0.2c-0.3,0.6-0.8,1.3-0.6,2c0.1,0.6,0.5,0.9,1,1.2c-0.1,0.1-0.2,0.3-0.3,0.4
				c-0.4,0.6-0.5,1.3-0.1,1.9c0.1,0.1,0.2,0.2,0.3,0.2c-0.1,0.1-0.2,0.3-0.3,0.5c-0.4,0.7-0.2,1.6,0.3,2.2c0.1,0.1,0.2,0.2,0.3,0.2
				c-0.2,0.2-0.3,0.4-0.4,0.6c-0.3,0.8-0.1,1.6,0.3,2.3c0.1,0.1,0.1,0.1,0.2,0.2c-0.1,0.1-0.3,0.3-0.3,0.5c-0.4,0.9-0.2,1.8,0.5,2.4
				c0,0,0,0,0.1,0.1c-0.2,0.2-0.3,0.3-0.4,0.6c-0.5,1-0.1,2.1,0.6,2.9c-0.2,0.2-0.3,0.4-0.4,0.6c-0.3,0.7-0.1,1.6,0.6,1.9
				c-0.3,0.3-0.5,0.5-0.7,0.9c-0.3,0.6-0.1,1.3,0.4,1.8C40,40,40.1,40,40.1,40c-0.1,0.1-0.3,0.3-0.3,0.5c-0.3,0.7-0.1,1.5,0.5,2
				c-0.1,0.1-0.2,0.1-0.2,0.2c-0.4,0.5-0.3,1,0.2,1.4c0.4,0.3,0.8-0.4,0.4-0.7c-0.1,0,0.1-0.2,0.4-0.5c0.1,0,0.2,0.1,0.2,0.2
				c0.1,0.1,0,0.3,0,0.4c-0.1,0.2-0.1,0.4,0.1,0.5c0.2,0.1,0.4,0.1,0.5-0.1c0.1-0.3,0.2-0.7,0.1-1c-0.1-0.2-0.2-0.3-0.4-0.5
				c0.2-0.2,0.3-0.5,0.4-0.8C42.2,40.9,42,40.3,41.7,39.7z M39.3,18.4c0-0.4,0.2-0.8,0.4-1.1c0.2,0.4,0.5,0.9,0.5,1.4
				c0,0.2-0.1,0.4-0.2,0.6C39.7,19.1,39.3,18.9,39.3,18.4z M39.8,22c0,0,0-0.1-0.1-0.2c-0.3-0.5,0-1,0.4-1.6
				C40.4,21,40.4,21.5,39.8,22z M40.3,22.7c0.3,0.8,0.4,1.6-0.2,2.2c0,0,0-0.1-0.1-0.2C39.4,23.9,39.6,23.2,40.3,22.7z M40.4,25.5
				c0.5,0.7,0.7,1.6-0.1,2.3l0,0v-0.1C39.7,27,39.7,26.2,40.4,25.5z M40.6,28.5c0.4,0.7,0.7,1.5-0.1,2.2l-0.1,0.1c0,0,0-0.1-0.1-0.1
				C39.6,29.9,40,29.1,40.6,28.5z M40.6,31.6c0.8,0.8,0.9,1.6,0,2.5l0,0C39.8,33.3,39.8,32.4,40.6,31.6z M41.2,36.2
				c0,0.2-0.2,0.4-0.4,0.6l-0.1-0.1c-0.6-0.3-0.4-0.9,0.1-1.5C41,35.4,41.3,35.8,41.2,36.2z M40.4,39.4c-0.7-0.6-0.1-1.2,0.4-1.6
				c0.2,0.3,0.4,0.6,0.4,0.9c-0.1,0.5-0.3,0.7-0.7,1C40.6,39.6,40.5,39.5,40.4,39.4z M40.9,40.3c0.1,0,0.1-0.1,0.2-0.1
				c0.3,0.5,0.3,1.1,0,1.6C41,41.9,41,42,40.9,42l0,0C40.3,41.5,40.3,40.8,40.9,40.3z"/>
		</g>
		<g>
			<defs>
				<path id="SVGID_7_" d="M27,17.3c0,0-0.7,0.3-1,0.8s0.7,6.6,0.4,8.7c-0.3,2-0.4,8.7-0.9,11c-0.4,2.3,0,5.9,0,5.9s2.9-2.1,8.8-2.1
					c6,0,8.9,1.9,8.9,1.9s-0.9-8.6-1-10.6c-0.2-2-0.1-14.4,0-14.9c0.1-0.4-3.1-1.6-3.1-1.6S33.2,22.4,27,17.3z"/>
			</defs>
			<clipPath id="SVGID_8_">
				<use xlink:href="#SVGID_7_"  style="overflow:visible;"/>
			</clipPath>
			<path class="st17" d="M33.2,41.8c0.1,0.3,0.3,0.6,0.5,0.8c-0.2,0.1-0.3,0.2-0.3,0.5c-0.1,0.3,0,0.7,0.1,1
				c0.1,0.2,0.4,0.2,0.5,0.1c0.2-0.1,0.2-0.3,0.1-0.5C34,43.6,34,43.4,34,43.3c0-0.1,0.1-0.1,0.2-0.2c0.2,0.2,0.5,0.4,0.4,0.4
				c-0.4,0.3,0,0.9,0.4,0.6c0.5-0.3,0.5-0.9,0.1-1.3c-0.1-0.1-0.2-0.1-0.2-0.2c0.5-0.5,0.8-1.3,0.4-2c-0.1-0.2-0.2-0.3-0.4-0.4
				c0.1,0,0.1,0,0.2-0.1c0.5-0.5,0.6-1.1,0.3-1.7c-0.2-0.4-0.4-0.6-0.7-0.8c0.7-0.4,0.9-1.2,0.5-1.9c-0.1-0.2-0.3-0.4-0.4-0.6
				c0.7-0.8,1-1.9,0.5-2.8c-0.1-0.2-0.3-0.4-0.5-0.6c0,0,0,0,0.1-0.1c0.6-0.7,0.8-1.6,0.4-2.4c-0.1-0.2-0.2-0.3-0.4-0.5
				c0.1,0,0.1-0.1,0.2-0.2c0.4-0.7,0.6-1.5,0.3-2.2c-0.1-0.2-0.2-0.4-0.4-0.6c0.1,0,0.2-0.1,0.3-0.2c0.5-0.7,0.6-1.5,0.2-2.2
				c-0.1-0.2-0.2-0.3-0.3-0.5c0.1,0,0.2-0.1,0.3-0.2c0.4-0.6,0.3-1.3-0.2-1.9c-0.1-0.1-0.2-0.3-0.3-0.4c0.4-0.3,0.9-0.6,1-1.2
				c0.1-0.7-0.3-1.3-0.7-1.9C35.2,17,35,17,34.9,17.1c-0.2-0.2-0.4-0.2-0.6,0.1c-0.3,0.8-0.8,1.5-0.6,2.4c0,0.2,0.1,0.3,0.2,0.5
				c0,0,0,0,0,0.1c-0.3,0.7-0.6,1.4-0.2,2.2c0.1,0.1,0.1,0.2,0.2,0.3l0,0c-0.3,0.8-0.6,1.6-0.2,2.4c0.1,0.1,0.2,0.3,0.2,0.4l0,0
				c-0.5,0.7-0.9,1.6-0.5,2.5c0.1,0.2,0.2,0.3,0.3,0.4c-0.5,0.8-0.9,1.7-0.3,2.6c0.1,0.2,0.3,0.4,0.5,0.5c-0.6,0.6-1,1.3-0.8,2.2
				c0.1,0.3,0.5,0.7,0.9,1.1c-0.5,0.5-0.8,1.2-0.6,1.9c0.1,0.4,0.2,0.6,0.5,0.8c-0.4,0.5-0.6,1.1-0.5,1.7c0.1,0.2,0.1,0.4,0.3,0.6
				C33.1,40.5,32.9,41.1,33.2,41.8z M34.4,19.9c-0.1-0.2-0.2-0.3-0.2-0.6c0-0.5,0.2-1,0.4-1.4c0.2,0.3,0.5,0.7,0.4,1.1
				C35.1,19.4,34.8,19.7,34.4,19.9z M34.3,20.8c0.4,0.5,0.8,1,0.5,1.5c0,0.1,0,0.1-0.1,0.2C34.1,22,34.1,21.5,34.3,20.8z M34.7,25.1
				c0,0.1-0.1,0.1-0.1,0.2c-0.7-0.6-0.6-1.3-0.3-2.1C35,23.7,35.2,24.4,34.7,25.1z M34.5,28.1v0.1C34.5,28.2,34.5,28.2,34.5,28.1
				c-0.9-0.6-0.7-1.4-0.3-2.1C35,26.6,35,27.4,34.5,28.1z M34.4,31l-0.1,0.1L34.2,31c-0.7-0.6-0.6-1.4-0.1-2.1
				C34.8,29.5,35.2,30.2,34.4,31z M34.3,34.4L34.3,34.4c-0.9-0.9-0.8-1.6-0.1-2.5C35,32.7,35.1,33.6,34.3,34.4z M34.2,35.4
				c0.5,0.6,0.8,1.2,0.1,1.5c-0.1,0-0.1,0.1-0.1,0.1c-0.2-0.2-0.4-0.4-0.4-0.6C33.7,36.1,33.9,35.7,34.2,35.4z M34.5,39.8
				c-0.4-0.2-0.6-0.5-0.7-1c0-0.3,0.1-0.6,0.4-0.9c0.5,0.4,1.1,0.9,0.4,1.6C34.5,39.6,34.5,39.7,34.5,39.8z M34.3,42.1L34.3,42.1
				c-0.1,0-0.2-0.1-0.2-0.2c-0.4-0.5-0.3-1.1-0.1-1.6c0.1,0,0.1,0.1,0.2,0.1C34.8,41,34.9,41.6,34.3,42.1z"/>
		</g>
	</g>
	<g>
		<path class="st5" d="M13.6,63.3c-0.9,0-1.7-0.4-2.3-1c-0.4-0.5-0.9-0.8-1.4-1C9.5,61.1,9.1,61,8.6,61c-1.4-0.2-2.4-1.4-2.4-2.8
			h1.9c0,0.4,0.3,0.8,0.8,0.9c0.6,0.1,1.2,0.3,1.7,0.5c0.8,0.3,1.5,0.8,2.1,1.5c0.3,0.3,0.7,0.4,1.2,0.3l15.9-4.1l0.5,1.9l-15.9,4.1
			C14.1,63.2,13.8,63.3,13.6,63.3z"/>
	</g>
	<g>
		<path class="st7" d="M44.8,34.9h-8.9c-0.7,0-1.3,0.4-1.7,1l-0.3,0.7c-0.1,0.3,0.1,0.6,0.4,0.6h10.5c0.2,0,0.4-0.2,0.4-0.4v-1.5
			C45.1,35.1,45,34.9,44.8,34.9z"/>
	</g>
	<g>
		<g>
			<path class="st18" d="M31.8,13.1c0,0,0,2.7,0,3c0,0.3,2.1,3.4,4.4-0.1l0.1-3.1L31.8,13.1z"/>
		</g>
	</g>
	<g>
		<g>
			<path class="st19" d="M36.9,3c0,0-7,0-7.1,0.1s-0.4,5-0.4,5.5s0.6,3.4,0.9,3.9c0.2,0.4,2.5,2.4,2.6,2.4c0.2,0.1,1.2,0.1,1.4-0.1
				c0.2-0.1,3.1-2.3,3.3-2.9c0.1-0.3,0.8-3.2,0.4-4.1C37.7,7,36.9,3,36.9,3z"/>
		</g>
	</g>
	<g>
		<g>
			<g>
				<path class="st20" d="M36.4,8.9c-0.7-0.7-1.4,0-1.4,0l-0.4-0.4c0.4-0.4,1.3-0.8,2.1,0L36.4,8.9z"/>
			</g>
		</g>
	</g>
	<g>
		<g>
			<g>
				<path class="st20" d="M31.8,8.9c-0.7-0.7-1.4,0-1.4,0L30,8.5c0.4-0.4,1.3-0.8,2.1,0L31.8,8.9z"/>
			</g>
		</g>
	</g>
	<g>
		<g>
			<g>
				<path class="st21" d="M34.5,6.7l0.2,0.6c0,0,1.4-0.2,2.7,0l-0.6-0.6C36.8,6.7,36.3,6.4,34.5,6.7z"/>
			</g>
		</g>
		<g>
			<g>
				<path class="st21" d="M30.1,6.8l-0.6,0.6c1.3-0.3,2.8-0.1,2.8-0.1l0.1-0.6C30.6,6.4,30.1,6.8,30.1,6.8z"/>
			</g>
		</g>
	</g>
	<g>
		<g>
			<g>
				<path class="st22" d="M32.4,12.2c1.1,0.4,2-0.1,2-0.1l0.2,0.4c-0.4,0.4-1.4,0.9-2.4,0.2L32.4,12.2z"/>
			</g>
		</g>
	</g>
	<g>
		<g>
			<path class="st18" d="M33.2,9.6c-0.2,0-0.7,0.9-0.7,1.2s0.6,0.7,0.7,0.7c0.1,0,0.9-0.6,0.9-0.7S33.3,9.6,33.2,9.6z"/>
		</g>
	</g>
	<g>
		<g>
			<rect x="30.6" y="8.4" class="st20" width="0.7" height="0.6"/>
		</g>
	</g>
	<g>
		<g>
			<rect x="35.2" y="8.4" class="st20" width="0.7" height="0.6"/>
		</g>
	</g>
	<path class="st21" d="M33.9,0c-1.7,0-4.3,0.2-5.8,3.5C25,11,25.6,16,26.1,17.4c0.9,2.3,5.4,2.6,5.4,2.6s0.6-1.2,0-3.6
		c-0.5-1.8-2.5-6.1,0.2-9.8c0.9-1.3,4.1-2.8,4.1-2.8S37.6,0,33.9,0z"/>
	<g>
		<g>
			<path class="st18" d="M38.1,8.2c0,0,0.9-0.5,1.1-0.3c0.2,0.2,0.1,2.6-0.1,2.9c-0.2,0.3-1.3,0.5-1.3,0.5S38.1,9.9,38.1,8.2z"/>
		</g>
	</g>
	<path class="st21" d="M39,5c-0.3-2.6-1.5-4.1-3.4-4.6C33.7-0.2,34,3.7,34,3.7s0.9-0.2,1.9,1.2C37,6.3,37.6,7.7,38,8.2
		C38.3,8.7,39.3,7.6,39,5z"/>
	<g>
		<path class="st5" d="M8.2,64.4h-2V50c0-1.2,0.3-2.4,0.8-3.5l3.8-7.8c0.8-1.6,2.4-2.6,4.2-2.6h7.7V38H15c-1,0-2,0.6-2.4,1.5
			l-3.8,7.8c-0.4,0.8-0.6,1.7-0.6,2.6V64.4z"/>
	</g>
	<path class="st0" d="M26.1,41.4c0,0-8.3,0.8-13.6,3.2c-3.4,1.6-4.6,1.2-5.1,3.7s0.8,4,1.8,3.9c1.1-0.2,8.1-1.5,11.6-2.4
		c3.6-0.9,8.1-1.6,9.5-3S34.6,41.4,26.1,41.4z"/>
	<path class="st12" d="M34.2,42.3c0,0-8.2,1.6-13.2,4.6c-3.3,1.9-4.4,1.6-4.7,4.2c-0.3,2.5,1.2,3.9,2.2,3.6c1-0.3,7.9-2.3,11.3-3.6
		c3.5-1.2,7.9-2.4,9.1-3.9C40.3,45.6,36.5,41.6,34.2,42.3z"/>
	<g>
		<path class="st8" d="M30.1,61.7h-1.9V50c0-1.2,0.3-2.4,0.8-3.5l3.8-7.8c0.8-1.6,2.4-2.6,4.2-2.6h7.7V38H37c-1,0-2,0.6-2.4,1.5
			l-3.8,7.8c-0.4,0.8-0.6,1.7-0.6,2.6L30.1,61.7L30.1,61.7z"/>
	</g>
	<g>
		<path class="st7" d="M23.6,34.9h-9.4c-0.7,0-1.4,0.4-1.7,1l-0.3,0.7c-0.1,0.3,0.1,0.6,0.4,0.6h11.1c0.2,0,0.4-0.2,0.4-0.4v-1.5
			C24,35.1,23.8,34.9,23.6,34.9z"/>
	</g>
	<g>
		<path class="st7" d="M50.4,58.8l-1.1,0.5c-0.2,0.1-0.3,0.4-0.2,0.6l0.2,0.6c0.1,0.2,0.4,0.3,0.6,0.2l1.1-0.5
			c0.2-0.1,0.3-0.4,0.2-0.6L51,59.1C50.9,58.8,50.7,58.7,50.4,58.8z"/>
	</g>
	<g>
		<path class="st6" d="M23.6,35.3h-7.9c-0.6,0-1.2,0.3-1.5,0.9L14,36.7c-0.1,0.2,0.1,0.5,0.3,0.5h9.4c0.2,0,0.3-0.1,0.3-0.3v-1.2
			C24,35.4,23.8,35.3,23.6,35.3z"/>
	</g>
	<g>
		<path class="st8" d="M45.9,47.1H44c0.1-4.1,0.1-8.8-0.2-9.5c0,0.1,0.2,0.4,0.6,0.5l0.4-1.9c0.9,0.2,1,1.2,1,2.5
			c0,0.8,0.1,2,0.1,3.5C46,44.6,45.9,47.1,45.9,47.1z"/>
	</g>
	<g>
		<path class="st6" d="M44.8,35.3h-7.5c-0.6,0-1.1,0.3-1.4,0.9l-0.3,0.6c-0.1,0.2,0.1,0.5,0.3,0.5h8.9c0.2,0,0.3-0.1,0.3-0.3v-1.2
			C45.1,35.4,45,35.3,44.8,35.3z"/>
	</g>
	<g>
		<path class="st7" d="M45.9,42.6c0-1.3,0.2-3.9-1.2-3.9L40.4,39c-1.2,0-3,2-3,2c-0.7,0.6-2,0.7-3,0.9L33.8,42
			c-1.4,0.3-2.7,2.6-3.2,3.8l-1,2.7c-0.3,0.9,0.4,2.1,1.4,2l12.2-2.7c1.5-0.2,2.6-1.4,2.6-2.7L45.9,42.6z"/>
	</g>
	<g>
		<path class="st23" d="M33.9,73.9c0.2-2.3,0-4.3-1.9-4.8C31.8,69,30.5,69,30.3,69c-2.2-0.2-4.1,1.8-4.2,4.3s1.4,4.7,3.6,4.9
			c0.4,0,1.7,0.2,2,0.1C33.4,77.9,33.8,76,33.9,73.9z"/>
	</g>
	<g>
		<path class="st24" d="M35.5,74.1c0.2-2.6-1.4-4.7-3.6-4.9c-2.2-0.2-4.1,1.8-4.2,4.3c-0.2,2.6,1.4,4.7,3.6,4.9
			C33.4,78.6,35.3,76.6,35.5,74.1z"/>
	</g>
	<g>
		<path class="st7" d="M34.2,74c0.1-1.6-0.9-2.9-2.2-3s-2.5,1.1-2.6,2.6c-0.1,1.6,0.9,2.9,2.2,3C32.9,76.8,34,75.6,34.2,74z"/>
	</g>
	<g>
		<rect x="28.2" y="61.1" class="st8" width="1.9" height="5.3"/>
	</g>
	<g>
		<g>
			<path class="st9" d="M24.1,35c-2.1,1.2-8.6,0.5-11.5,0.6c-0.4,0-1.2-1.3,0.4-1.7c9.4-2.4,9.8-2.1,10.9-2.1
				C25.1,31.9,26.3,33.7,24.1,35z"/>
		</g>
	</g>
	<g>
		<path class="st8" d="M22.5,73.8l-1.9-0.4L24,56.6v-0.1c0.6-1.9,2.2-3.4,4.2-3.9l0.7-0.2l16.3-4.9l0.6,1.9l-16.3,4.9l-0.7,0.2
			c-1.3,0.3-2.4,1.3-2.8,2.6L22.5,73.8z"/>
	</g>
	<g>
		<path class="st24" d="M30.8,48.9L30.8,48.9c-0.2,0-0.4,0.2-0.4,0.4s0.2,0.4,0.4,0.4l0,0c0.2,0,0.4-0.2,0.4-0.4
			C31.2,49.1,31,48.9,30.8,48.9z"/>
	</g>
	<g>
		<path class="st24" d="M32.8,43.5L32.8,43.5c-0.2,0-0.4,0.2-0.4,0.4s0.2,0.4,0.4,0.4l0,0c0.2,0,0.4-0.2,0.4-0.4
			C33.2,43.6,33,43.5,32.8,43.5z"/>
	</g>
	<g>
		<path class="st6" d="M28,69.8c-0.1-0.2,0.1-1.6,0.1-1.6v-2l2.2,0.1v1.1c0,0,1,0.6,1.3,1.2c0.3,0.5,1.1,3.7,1.4,4.8
			c0,0.2-0.1,0.4-0.3,0.5L32,74c-0.2,0.1-0.4-0.1-0.5-0.3c-0.3-1.1-1-4.1-1.3-4.2C28.2,69.3,28,69.8,28,69.8z"/>
	</g>
	<g>
		<path class="st24" d="M32.2,72.8L32.2,72.8c-0.2,0-0.4,0.2-0.4,0.4c0,0.2,0.2,0.4,0.4,0.4l0,0c0.2,0,0.4-0.2,0.4-0.4
			C32.5,73,32.4,72.8,32.2,72.8z"/>
	</g>
	<g>
		<path class="st23" d="M11.4,69c0.2-2.1,0-3.9-1.7-4.4c-0.2,0-1.4-0.1-1.6-0.1c-2-0.1-3.7,1.6-3.9,4C4,70.8,5.5,72.8,7.5,73
			c0.4,0,1.5,0.1,1.9,0C10.9,72.6,11.3,70.9,11.4,69z"/>
	</g>
	<g>
		<path class="st24" d="M12.8,69.1c0.2-2.3-1.3-4.3-3.3-4.5c-2-0.1-3.7,1.6-3.9,4C5.5,70.9,7,73,9,73.1
			C10.9,73.2,12.7,71.5,12.8,69.1z"/>
	</g>
	<g>
		<g>
			<path class="st25" d="M10.4,35.7c-0.5,0.5-1.6,2.2-1.9,3.7c-0.2,0.7-0.2,1.5,0.1,1.4s0.3-0.7,0.6-1.5s0.6-1.9,0.8-2.5
				C10.3,35.9,10.4,35.7,10.4,35.7z"/>
		</g>
		<g>
			<path class="st19" d="M12.6,34c0,0-1.5,1-2,1.5C10,36.1,9.1,37.4,9.4,38c0.2,0.6,0.7-0.1,1.4-0.9c0.5-0.5,1.5-0.6,1.9-1.1
				C13.2,35.6,13.6,33.9,12.6,34z"/>
		</g>
		<g>
			<path class="st19" d="M12.6,35.4c0.6,0.5-0.5,1.5-0.9,2.1c-0.4,0.5-0.6,1.5-0.9,1.6c-0.4,0.1-0.3-0.4-0.2-0.8
				c0.1-0.4,0.4-0.9,0.4-1.4C11,36.4,12.2,35.2,12.6,35.4z"/>
		</g>
		<g>
			<path class="st19" d="M9.9,36.7c-0.5,0.5-0.8,1.5-1,2.2s-0.4,1.4-0.1,1.5C9,40.5,9.1,39.7,9.6,39c0.5-0.8,0.7-1.2,1.1-1.6
				C11.1,36.7,11,35.5,9.9,36.7z"/>
		</g>
	</g>
	<g>
		<path class="st7" d="M11.9,69c0.1-1.6-0.9-2.9-2.2-3s-2.5,1.1-2.6,2.6s0.9,2.9,2.2,3C10.7,71.8,11.8,70.6,11.9,69z"/>
	</g>
	<g>
		<path class="st6" d="M6,65.1c-0.1-0.2,0.1-1.6,0.1-1.6v-2l2.2,0.1v1.1c0,0,1,0.6,1.3,1.2c0.3,0.5,1.1,3.7,1.4,4.8
			c0,0.2-0.1,0.4-0.3,0.5L10,69.4c-0.2,0.1-0.4-0.1-0.5-0.3C9.3,68,8.6,65,8.3,65C6.2,64.6,6,65.1,6,65.1z"/>
	</g>
	<path class="st26" d="M22.1,29.6c-0.6-0.1-1.3,1.9-1,2.4s3.4,3.5,4.2,3.3c1.2-0.2,1.3-4.3,1.1-4.4C26.1,30.8,23.5,29.8,22.1,29.6z"
		/>
	<g>
		<path class="st24" d="M10.3,68.2L10.3,68.2c-0.2,0-0.4,0.2-0.4,0.4c0,0.2,0.2,0.4,0.4,0.4l0,0c0.2,0,0.4-0.2,0.4-0.4
			C10.6,68.4,10.5,68.2,10.3,68.2z"/>
	</g>
	<g>
		<path class="st6" d="M21,72.6l1.6,0.5c0,0-0.6,2.3-1,2.4s-2.4,0.2-3,0.1c-0.6,0-4.5-1-6.7-1.6c-0.8-0.2-1.6-0.4-1.2-1.3
			c0.1-0.2,1.4-0.9,2-0.9s7.9,1.5,7.9,1.5L21,72.6z"/>
	</g>
	<g>
		<path class="st7" d="M19.9,74.4c-0.3,0.3-0.7,0.6-1.3,0.5c-0.6,0-3.1-0.7-5.2-1.1c-0.8-0.2-2.4-0.7-2.6-1c-0.1-0.2,1.1-1,1.8-1
			c0.6,0,8,1.6,8,1.6S20.2,74.1,19.9,74.4z"/>
	</g>
	<g>
		<g>
			<g>
				
					<rect x="41.5" y="49.2" transform="matrix(0.2704 -0.9627 0.9627 0.2704 -11.9751 83.0567)" class="st3" width="14.7" height="0.4"/>
			</g>
			<g>
				
					<rect x="43.7" y="50.8" transform="matrix(0.5137 -0.858 0.858 0.5137 -19.4231 67.7773)" class="st3" width="12.7" height="0.4"/>
			</g>
			<g>
				
					<rect x="45.5" y="52.7" transform="matrix(0.7492 -0.6623 0.6623 0.7492 -22.2769 46.9204)" class="st3" width="10.7" height="0.4"/>
			</g>
			<g>
				
					<rect x="46.5" y="54.6" transform="matrix(0.9344 -0.3563 0.3563 0.9344 -16.1742 21.8032)" class="st3" width="9.2" height="0.4"/>
			</g>
			<g>
				
					<rect x="50.9" y="52.3" transform="matrix(3.572651e-02 -0.9994 0.9994 3.572651e-02 -7.3059 105.689)" class="st3" width="0.4" height="8.6"/>
			</g>
			<g>
				
					<rect x="50.6" y="53.9" transform="matrix(0.4179 -0.9085 0.9085 0.4179 -23.3856 80.0924)" class="st3" width="0.4" height="8.8"/>
			</g>
			<g>
				
					<rect x="50.2" y="55" transform="matrix(0.7047 -0.7095 0.7095 0.7047 -27.6954 53.5041)" class="st3" width="0.4" height="10.1"/>
			</g>
			<g>
				
					<rect x="49.5" y="55.8" transform="matrix(0.8821 -0.4711 0.4711 0.8821 -23.2284 30.7078)" class="st3" width="0.4" height="12"/>
			</g>
			<g>
				
					<rect x="48.2" y="56.3" transform="matrix(0.9736 -0.2283 0.2283 0.9736 -13.1491 12.7196)" class="st3" width="0.4" height="13.8"/>
			</g>
			<g>
				
					<rect x="39.1" y="63.9" transform="matrix(1.167383e-02 -0.9999 0.9999 1.167383e-02 -17.9025 110.094)" class="st3" width="15.2" height="0.4"/>
			</g>
			<g>
				
					<rect x="37.2" y="63.7" transform="matrix(0.251 -0.968 0.968 0.251 -28.2434 91.3343)" class="st3" width="15.3" height="0.4"/>
			</g>
			<g>
				
					<rect x="36.4" y="62.3" transform="matrix(0.4941 -0.8694 0.8694 0.4941 -32.3927 69.389)" class="st3" width="14" height="0.4"/>
			</g>
			<g>
				
					<rect x="36.3" y="60.4" transform="matrix(0.7313 -0.6821 0.6821 0.7313 -29.9599 45.189)" class="st3" width="12.1" height="0.4"/>
			</g>
			<g>
				
					<rect x="36.2" y="58.4" transform="matrix(0.923 -0.3848 0.3848 0.923 -19.3405 20.5649)" class="st3" width="11" height="0.4"/>
			</g>
			<g>
				
					<rect x="41.4" y="51.2" transform="matrix(2.922939e-03 -1 1 2.922939e-03 -15.0016 97.8538)" class="st3" width="0.4" height="10.4"/>
			</g>
			<g>
				<rect x="41.8" y="49" transform="matrix(0.39 -0.9208 0.9208 0.39 -24.4398 71.7959)" class="st3" width="0.4" height="10.6"/>
			</g>
			<g>
				
					<rect x="42.3" y="46.4" transform="matrix(0.6858 -0.7278 0.7278 0.6858 -24.7472 47.3601)" class="st3" width="0.4" height="11.9"/>
			</g>
			<g>
				
					<rect x="43.3" y="43.6" transform="matrix(0.8713 -0.4907 0.4907 0.8713 -19.1528 27.8217)" class="st3" width="0.4" height="13.7"/>
			</g>
			<g>
				
					<rect x="44.8" y="41.7" transform="matrix(0.9688 -0.2477 0.2477 0.9688 -10.782 12.6795)" class="st3" width="0.4" height="15"/>
			</g>
			<g>
				
					<rect x="46.6" y="40.8" transform="matrix(1 -7.930287e-03 7.930287e-03 1 -0.3843 0.3727)" class="st3" width="0.4" height="15.7"/>
			</g>
		</g>
		<g>
			<g>
				
					<rect x="42" y="49.4" transform="matrix(0.3855 -0.9227 0.9227 0.3855 -15.5541 75.8442)" class="st3" width="14.4" height="0.4"/>
			</g>
			<g>
				
					<rect x="44" y="51.2" transform="matrix(0.626 -0.7798 0.7798 0.626 -21.3052 58.3881)" class="st3" width="12.4" height="0.4"/>
			</g>
			<g>
				
					<rect x="45.5" y="53.2" transform="matrix(0.8433 -0.5375 0.5375 0.8433 -20.765 35.6177)" class="st3" width="10.4" height="0.4"/>
			</g>
			<g>
				
					<rect x="46.3" y="55.2" transform="matrix(0.9822 -0.1878 0.1878 0.9822 -9.4985 10.5366)" class="st3" width="9.1" height="0.4"/>
			</g>
			<g>
				
					<rect x="50.4" y="52.8" transform="matrix(0.2115 -0.9774 0.9774 0.2115 -15.933 94.554)" class="st3" width="0.4" height="8.7"/>
			</g>
			<g>
				
					<rect x="50.3" y="54" transform="matrix(0.5496 -0.8354 0.8354 0.5496 -26.4488 68.6785)" class="st3" width="0.4" height="9.8"/>
			</g>
			<g>
				
					<rect x="49.6" y="55.1" transform="matrix(0.7968 -0.6042 0.6042 0.7968 -26.5929 42.4594)" class="st3" width="0.4" height="11.4"/>
			</g>
			<g>
				
					<rect x="48.6" y="55.8" transform="matrix(0.9334 -0.3588 0.3588 0.9334 -19.1889 21.6771)" class="st3" width="0.4" height="13.5"/>
			</g>
			<g>
				<rect x="47" y="56.2" transform="matrix(0.9934 -0.1151 0.1151 0.9934 -7.03 5.8575)" class="st3" width="0.4" height="15.2"/>
			</g>
			<g>
				
					<rect x="37.9" y="63.5" transform="matrix(0.125 -0.9922 0.9922 0.125 -23.4599 100.8804)" class="st3" width="15.2" height="0.4"/>
			</g>
			<g>
				
					<rect x="36.1" y="63" transform="matrix(0.3664 -0.9304 0.9304 0.3664 -31.1375 80.5814)" class="st3" width="15.1" height="0.4"/>
			</g>
			<g>
				
					<rect x="35.4" y="61.4" transform="matrix(0.6065 -0.7951 0.7951 0.6065 -32.3887 57.8026)" class="st3" width="13.6" height="0.4"/>
			</g>
			<g>
				
					<rect x="35.6" y="59.3" transform="matrix(0.8278 -0.5611 0.5611 0.8278 -26.2315 33.5297)" class="st3" width="11.8" height="0.4"/>
			</g>
			<g>
				
					<rect x="35.7" y="57.2" transform="matrix(0.9757 -0.2193 0.2193 0.9757 -11.5856 10.4105)" class="st3" width="10.8" height="0.4"/>
			</g>
			<g>
				
					<rect x="41" y="50" transform="matrix(0.1798 -0.9837 0.9837 0.1798 -20.5718 85.8121)" class="st3" width="0.4" height="10.5"/>
			</g>
			<g>
				
					<rect x="41.5" y="47.8" transform="matrix(0.5345 -0.8452 0.8452 0.5345 -25.5563 60.0538)" class="st3" width="0.4" height="10.9"/>
			</g>
			<g>
				
					<rect x="42.3" y="45.2" transform="matrix(0.7817 -0.6237 0.6237 0.7817 -22.759 37.7063)" class="st3" width="0.4" height="12.3"/>
			</g>
			<g>
				
					<rect x="43.5" y="42.7" transform="matrix(0.9255 -0.3787 0.3787 0.9255 -15.5798 20.261)" class="st3" width="0.4" height="14.1"/>
			</g>
			<g>
				
					<rect x="45.2" y="41.1" transform="matrix(0.9909 -0.1346 0.1346 0.9909 -6.1407 6.5541)" class="st3" width="0.4" height="15.2"/>
			</g>
			<g>
				
					<rect x="39.4" y="48.2" transform="matrix(0.1054 -0.9944 0.9944 0.1054 -5.8936 90.2933)" class="st3" width="15.6" height="0.4"/>
			</g>
		</g>
		<g>
			<path class="st4" d="M45.3,73.5c-0.2,0-0.4,0-0.6,0c-3-0.3-5.7-2.4-7.6-5.9c-1.8-3.4-2.6-7.7-2.3-12.2c0.4-6,2.6-11.3,5.9-14.2
				c1.9-1.6,4-2.4,6.1-2.2c3,0.3,5.7,2.4,7.6,5.9c1.8,3.4,2.6,7.7,2.3,12.2c-0.4,6-2.6,11.3-5.9,14.2C49.1,72.8,47.2,73.5,45.3,73.5
				z M46.2,41.4c-1.3,0-2.7,0.6-3.9,1.6c-2.8,2.4-4.8,7.2-5.1,12.5c-0.2,4.1,0.5,8,2,11c1.5,2.8,3.5,4.4,5.6,4.6
				c1.5,0.1,2.9-0.4,4.3-1.6C52,67,53.9,62.2,54.3,57c0.2-4.1-0.5-8-2-11c-1.5-2.8-3.5-4.4-5.6-4.6C46.5,41.4,46.3,41.4,46.2,41.4z"
				/>
		</g>
		<g>
			<path class="st3" d="M46.5,72.1c-0.2,0-0.3,0-0.5,0c-2.6-0.2-4.8-2.1-6.4-5.3c-1.6-3.1-2.3-7.1-2-11.2c0.3-5.6,2.3-10.5,5.4-13.1
				c1.5-1.3,3.3-2,5-1.8c2.6,0.2,4.8,2.1,6.4,5.3c1.6,3.1,2.3,7.1,2,11.2C56,62.8,54,67.7,51,70.3C49.6,71.5,48.1,72.1,46.5,72.1z
				 M47.4,41.6c-1.3,0-2.7,0.6-3.9,1.6c-2.8,2.4-4.7,7.2-5.1,12.5c-0.5,8.2,2.9,15.2,7.6,15.6c1.5,0.1,3-0.4,4.3-1.6
				c2.8-2.4,4.7-7.2,5.1-12.5C56,49,52.6,42,47.8,41.6C47.7,41.6,47.6,41.6,47.4,41.6z"/>
		</g>
	</g>
	<g>
		<g>
			<g>
				<rect x="45.9" y="55.6" class="st8" width="2.8" height="1.4"/>
			</g>
		</g>
		<g>
			<path class="st8" d="M49.5,56.3c0-0.7-0.4-1.2-0.9-1.2s-0.9,0.5-0.9,1.2s0.4,1.2,0.9,1.2S49.5,56.9,49.5,56.3z"/>
		</g>
		<g>
			<path class="st6" d="M49.4,56.3c0-0.4-0.2-0.7-0.5-0.7s-0.5,0.3-0.5,0.7s0.2,0.7,0.5,0.7C49.1,57,49.4,56.7,49.4,56.3z"/>
		</g>
	</g>
	<g>
		<polygon class="st6" points="1.5,68.2 1.2,69.4 2.9,69.6 3.1,68.6 		"/>
	</g>
	<g>
		<path class="st6" d="M0.7,69.4c-0.2,0-0.1,1-0.1,1.3c0.1,0.2,5.8,2.3,8,2.3c0.5,0,2-1,2-1.2c0,0,0.2-0.6-0.2-0.8
			c-1.6-0.6-7-1.7-7.5-1.7C2.3,69.4,0.7,69.4,0.7,69.4z"/>
	</g>
	<g>
		<path class="st7" d="M1,69.5c-0.2,0.3-0.2,0.5,1.4,1c1.6,0.6,5.2,1.8,6.1,1.7c0.9-0.1,1.9-0.8,1.9-1c0.1-0.3-6.5-1.7-7.3-1.7
			C2.3,69.4,1,69.5,1,69.5z"/>
	</g>
	<g>
		<g>
			<path class="st19" d="M31.8,36.1c0,0-0.5,0.5-1.3,1.3s-1.3,1.4-1.3,1.5c-0.1,0.2,0.6,0.3,1.3,1c0.6,0.6,0.9,0.7,0.9,0.7
				s0.4,0.7,0.6,0.3c0.1-0.2,1.5-2,1.8-3C34,36.9,33.1,34.8,31.8,36.1z"/>
		</g>
		<g>
			<path class="st19" d="M30.1,42.7c-0.2-0.6,0.1-1.2,0.2-1.7c0.1-0.3,0.2-0.7,0.4-1c0.1-0.4,0.8-0.2,0.5,0.8
				c-0.3,0.6-0.6,1.3-0.5,1.9C30.7,43,30.2,43,30.1,42.7z"/>
		</g>
		<g>
			<path class="st19" d="M30.7,39.5c0.1,0.2,0,0.4-0.1,0.5c-0.2,0.3-0.4,0.5-0.5,0.8c-0.3,0.7-0.4,1.4-0.5,2.1c0,0.3-0.5,0.4-0.6,0
				c-0.2-1.1,0.3-2.4,0.9-3.5C29.9,39.4,30.5,39,30.7,39.5z"/>
		</g>
		<g>
			<path class="st19" d="M31.8,41.1c-0.1,0.1-0.1,0.2-0.2,0.3c0,0.1,0,0.2,0,0.3c0.1,0.3-0.3,0.6-0.5,0.3c0,0,0,0,0-0.1l0,0l0,0
				C31,41.7,31,41.5,31,41.4s0-0.3,0.1-0.4v-0.1c0-0.1,0-0.2,0.1-0.3C31.5,39.9,32.2,40.5,31.8,41.1z"/>
		</g>
		<g>
			<path class="st19" d="M29.8,39.5c-0.2,0.3-0.4,0.5-0.6,0.8c-0.3,0.5-0.4,1.1-0.7,1.6c-0.1,0.2-0.4,0.2-0.4-0.1
				c-0.2-1.1,0.4-1.9,1-2.8C29.8,38.1,29.8,39.5,29.8,39.5z"/>
		</g>
	</g>
	<g>
		<g>
			<path class="st9" d="M15.9,55c0,1.3-0.4,16.1-0.3,16.5c0.1,0.3,2.1,0.8,2.3,0c0.1-0.3,2.5-10.7,2.4-16C20.4,52.4,15.9,51,15.9,55
				z"/>
		</g>
	</g>
	<g>
		<g>
			<path class="st9" d="M7.1,52.5c0,1.3-0.4,16.1-0.3,16.5c0.1,0.3,2.1,0.8,2.3,0c0.1-0.3,2.5-10.7,2.4-16
				C11.5,49.9,7.1,48.5,7.1,52.5z"/>
		</g>
	</g>
	<g>
		<g>
			<path class="st9" d="M44,35.3c-2,1.4-8.4,1.5-11.3,1.9c-0.4,0.1-1.3-1.2,0.2-1.8c9-3.5,9.5-3.2,10.6-3.3
				C44.6,32.1,46,33.9,44,35.3z"/>
		</g>
	</g>
	<path class="st13" d="M42.7,18.1c0.8,0.6,2.6,4.3,2.5,5.2c-0.2,0.8-0.1,1.6,0.3,2.4c0.3,0.8,0.4,2.4,0.3,2.6
		c-0.2,0.2-0.3,2.8-0.2,3.5c0,0.8-0.6,1.7-4,1.4s-3.3-4.9-3.8-7.4C37.2,23.3,39.2,15.6,42.7,18.1z"/>
	<path class="st26" d="M45.6,30c0.7,0,0,3.5-0.4,4c-0.4,0.4-5.6-0.2-6.3-0.8c-0.8-0.6-0.7-2.6-0.4-2.7C38.8,30.4,43.8,30.1,45.6,30z
		"/>
	<path class="st12" d="M17,49.2c-0.8,0.5-1.1,2.2-1.2,5.5c-0.1,3.3-0.6,12.8-0.6,12.8s2.1,1,3.5,0.7c0,0,2.9-11.8,3.4-14.7
		C22.5,50.5,20.3,47,17,49.2z"/>
	<path class="st0" d="M8.2,46.8C7.4,47.3,7.1,49,7,52.3S6.4,65.1,6.4,65.1s2.1,1,3.5,0.7c0,0,2.9-11.8,3.4-14.7
		C13.7,48.1,11.5,44.7,8.2,46.8z"/>
	<path class="st27" d="M18.9,67.6c0,0,0,0.5-0.2,0.7s-1.3,0.4-1.5,0.3c-0.9-0.2-1.9-0.7-2-1s0.1-0.7,0.1-0.7s0,0,1.2,0.5
		C18.6,68.3,18.9,67.6,18.9,67.6z"/>
	<path class="st27" d="M10.1,65c0,0,0,0.5-0.2,0.7S8.6,66.1,8.4,66c-0.9-0.2-1.9-0.7-2-1s0.1-0.7,0.1-0.7s0,0,1.2,0.5
		C9.9,65.6,10.1,65,10.1,65z"/>
	<g>
		<g>
			<path class="st28" d="M9.2,75.1c0,0-0.2,0.4-0.2,0.9c0,0,0.5,0.7,2.3,0.9c1.8,0.2,3.4-0.6,4.3-1.4s1.2-1.1,1.2-1.1h0.3l1.3-0.7
				L18.3,73c0,0-1.2,0.4-2.8,1.4C14,75.4,9.2,75.1,9.2,75.1z"/>
		</g>
		<g>
			<path class="st29" d="M14.9,70.2c0,0-2.3,2.5-3.4,2.7c-1.3,0.2-2.4,0.9-2.3,2.2c0,0.9,2.3,1.3,4.1,0.9s2-1.3,3.2-1.9
				c1.1-0.7,1.8-0.7,1.9-1c0.1-0.2,0.1-2.2-0.1-2.3c-0.2,0-1.1,0.2-1.5,0C16.3,70.7,15.1,70,14.9,70.2z"/>
		</g>
		<g>
			<g>
				<path class="st30" d="M9.2,75.4L9.2,75.4c-0.1-0.1-0.1-0.1-0.1-0.1v-0.1h0.1c0,0,0,0,0.1,0.1C9.3,75.3,9.3,75.4,9.2,75.4
					C9.3,75.4,9.3,75.4,9.2,75.4z"/>
			</g>
			<g>
				<path class="st30" d="M11.6,76.3L11.6,76.3c-0.1,0-0.2,0-0.3,0c0,0-0.1,0-0.1-0.1c0,0,0-0.1,0.1-0.1s0.2,0,0.3,0
					C11.6,76.1,11.7,76.2,11.6,76.3C11.7,76.2,11.6,76.3,11.6,76.3z M11.8,76.2L11.8,76.2C11.7,76.1,11.8,76.1,11.8,76.2
					c0.1-0.1,0.2-0.1,0.3-0.1c0,0,0.1,0,0.1,0.1c0,0,0,0.1-0.1,0.1C12,76.2,11.9,76.2,11.8,76.2L11.8,76.2z M11.1,76.2L11.1,76.2
					c-0.1,0-0.2,0-0.3,0c0,0-0.1,0-0.1-0.1c0,0,0-0.1,0.1-0.1s0.2,0,0.2,0C11.1,76.1,11.1,76.1,11.1,76.2L11.1,76.2z M12.4,76.2
					C12.3,76.2,12.3,76.2,12.4,76.2C12.3,76.1,12.4,76.1,12.4,76.2L12.4,76.2c0.1-0.1,0.2-0.1,0.2-0.1s0.1,0,0.1,0.1
					c0,0,0,0.1-0.1,0.1C12.5,76.2,12.5,76.2,12.4,76.2L12.4,76.2L12.4,76.2z M10.6,76.1L10.6,76.1c-0.1,0-0.2,0-0.3-0.1
					c0,0-0.1,0,0-0.1c0,0,0-0.1,0.1,0C10.5,75.9,10.6,76,10.6,76.1C10.6,76,10.6,76,10.6,76.1L10.6,76.1z M12.9,76.1
					C12.8,76.1,12.8,76.1,12.9,76.1C12.8,76,12.9,76,12.9,76.1c0.1-0.1,0.2-0.1,0.2-0.2h0.1V76C13,76.1,13,76.1,12.9,76.1L12.9,76.1
					z M13.4,76C13.3,76,13.3,76,13.4,76C13.3,75.9,13.3,75.9,13.4,76c0.1-0.1,0.2-0.2,0.2-0.2h0.1v0.1C13.5,75.9,13.5,76,13.4,76
					L13.4,76z M10.1,76L10.1,76c-0.1,0-0.2-0.1-0.3-0.1v-0.1h0.1C10,75.8,10,75.9,10.1,76C10.2,75.8,10.2,75.9,10.1,76
					C10.1,75.9,10.1,76,10.1,76z M13.8,75.8L13.8,75.8C13.7,75.7,13.7,75.7,13.8,75.8c0.1-0.1,0.2-0.2,0.2-0.2h0.1v0.1
					C14,75.7,13.9,75.8,13.8,75.8C13.9,75.8,13.8,75.8,13.8,75.8z M9.6,75.7L9.6,75.7c-0.1-0.1-0.2-0.1-0.2-0.2v-0.1h0.1
					c0.1,0.1,0.1,0.1,0.2,0.1C9.7,75.6,9.7,75.7,9.6,75.7C9.7,75.7,9.7,75.7,9.6,75.7z M14.3,75.6L14.3,75.6
					C14.2,75.5,14.2,75.5,14.3,75.6c0.1-0.1,0.2-0.2,0.2-0.2h0.1v0.1C14.5,75.5,14.4,75.6,14.3,75.6L14.3,75.6z M14.7,75.4
					C14.7,75.4,14.7,75.3,14.7,75.4C14.6,75.3,14.6,75.3,14.7,75.4c0.1-0.1,0.1-0.2,0.2-0.2H15v0.1C14.9,75.2,14.9,75.3,14.7,75.4
					C14.8,75.3,14.8,75.4,14.7,75.4z M15.2,75.1C15.1,75.1,15.1,75.1,15.2,75.1C15.1,75,15.1,75,15.2,75.1c0.1-0.2,0.1-0.2,0.2-0.3
					h0.1v0.1C15.3,74.9,15.3,75,15.2,75.1L15.2,75.1z M15.6,74.8C15.6,74.8,15.5,74.7,15.6,74.8C15.5,74.7,15.5,74.7,15.6,74.8
					l0.2-0.3h0.1v0.1L15.6,74.8C15.6,74.7,15.6,74.8,15.6,74.8z M16,74.4C16,74.4,15.9,74.4,16,74.4C15.9,74.3,15.9,74.3,16,74.4
					c0.1-0.2,0.1-0.2,0.2-0.3h0.1v0.1C16.2,74.3,16.1,74.4,16,74.4L16,74.4z M16.4,74.2C16.4,74.2,16.4,74.1,16.4,74.2
					C16.3,74.1,16.3,74.1,16.4,74.2l0.2-0.2h0.1v0.1L16.4,74.2L16.4,74.2z M16.9,73.9C16.8,73.9,16.8,73.9,16.9,73.9
					C16.8,73.8,16.8,73.8,16.9,73.9l0.2-0.2h0.1v0.1L16.9,73.9L16.9,73.9z M17.3,73.7L17.3,73.7C17.2,73.6,17.2,73.6,17.3,73.7
					l0.2-0.2h0.1v0.1L17.3,73.7L17.3,73.7z M17.8,73.5C17.7,73.5,17.7,73.4,17.8,73.5C17.7,73.4,17.7,73.4,17.8,73.5l0.2-0.2h0.1
					v0.1L17.8,73.5L17.8,73.5z"/>
			</g>
			<g>
				<path class="st30" d="M18.2,73.2L18.2,73.2C18.1,73.1,18.1,73.1,18.2,73.2l0.1-0.2h0.1v0.1L18.2,73.2L18.2,73.2z"/>
			</g>
		</g>
		<g>
			<path class="st28" d="M12.2,72.6c0,0,0.6,0.3,0.7,0.2c0.1-0.1,2-1.6,2.7-2.5c0,0-0.3-0.2-0.6-0.1S12.2,72.6,12.2,72.6z"/>
		</g>
		<g>
			<path class="st28" d="M15.9,70.5c0,0-2.6,2.5-2.5,2.6s0.8,0.7,1.4,0.5c0.6-0.2,2.7-2.6,2.7-2.6S16.5,70.9,15.9,70.5z"/>
		</g>
		<g>
			<g>
				<path class="st30" d="M14.6,72.9c-0.7-0.4-1.4-0.5-2.1-0.6c-0.2,0-0.2,0.2,0,0.3c0.7,0,1.4,0.2,2,0.5
					C14.6,73.2,14.7,73,14.6,72.9z"/>
			</g>
			<g>
				<path class="st30" d="M15,71.8c-0.4,0-0.7,0-1.1,0c-0.1-0.1-0.2-0.1-0.4-0.2c-0.1,0-0.2,0.1-0.1,0.2c-0.1,0-0.3,0-0.4,0.1
					c-0.2,0-0.1,0.3,0.1,0.2c0.3-0.1,0.5-0.1,0.8-0.1c0.2,0.1,0.4,0.4,0.5,0.6c0.1,0.1,0.3,0.1,0.2-0.1s-0.2-0.4-0.4-0.6
					C14.5,71.9,14.7,71.9,15,71.8C15.2,72,15.2,71.8,15,71.8z"/>
			</g>
			<g>
				<path class="st30" d="M16,71c-0.4-0.1-0.7-0.1-1.1-0.1c-0.1-0.1-0.3-0.2-0.4-0.2c-0.2-0.1-0.2,0.2-0.1,0.2c0,0,0,0,0.1,0
					c-0.3,0-0.5,0.1-0.8,0.1c-0.2,0-0.1,0.3,0.1,0.2c0.3-0.1,0.7-0.1,1-0.1c0.2,0.1,0.3,0.3,0.3,0.5s0.3,0.1,0.2-0.1
					s-0.1-0.3-0.2-0.5C15.4,71,15.6,71,16,71C16.1,71.3,16.2,71.1,16,71z"/>
			</g>
			<g>
				<path class="st30" d="M16.4,70.9c-0.5-0.3-1.1-0.5-1.7-0.5c-0.2,0-0.2,0.3,0,0.3c0.6,0,1.1,0.1,1.6,0.4
					C16.4,71.2,16.5,70.9,16.4,70.9z"/>
			</g>
		</g>
	</g>
	<g>
		<g>
			<path class="st28" d="M0.2,72.7C0,72.7,0,73.2,0,73.4c0.1,0.2,1.2,1.1,2.9,1s2.6-0.7,3.3-1.4c0.7-0.7,1-0.9,1-0.9l0.6,0.1
				l1.6-0.6V71c0,0-1-0.1-1.9,0.3C6.7,71.7,0.9,73,0.2,72.7z"/>
		</g>
		<g>
			<path class="st29" d="M6.1,68.4c0,0-2,1.8-4.1,2.2c-1.1,0.2-2,1.7-1.9,2.1s2.3,1.5,4.4,0.8c1.4-0.5,1.9-1.3,2.6-1.6
				c1-0.6,2.3-0.6,2.3-0.9c0-0.2,0.1-2.4,0.1-2.4s-0.8,0.2-1.3,0.2C7.6,68.9,6.9,68.4,6.1,68.4z"/>
		</g>
		<g>
			<path class="st28" d="M2.9,70.4c0,0,0.5,0.1,0.7,0.1c0.1,0,2.1-1.1,2.8-2.1c0,0-0.1-0.1-0.3,0C6,68.4,3.9,70.1,2.9,70.4z"/>
		</g>
		<g>
			<path class="st28" d="M7.5,68.7l-2.9,2.1c0,0,0.9,0.4,1.1,0.7C6,71.7,8.5,70.1,9,68.7C9,68.7,8,69,7.5,68.7z"/>
		</g>
		<g>
			<g>
				<path class="st30" d="M5.5,70.8c-0.7-0.4-1.4-0.6-2.2-0.6c-0.2,0-0.2,0.3,0,0.3c0.7,0,1.4,0.2,2,0.5C5.5,71.1,5.6,70.9,5.5,70.8
					z"/>
			</g>
			<g>
				<path class="st30" d="M6.3,69.8c-0.4,0-0.8,0-1.1,0c-0.1-0.1-0.2-0.1-0.4-0.2c-0.1,0-0.2,0.1-0.1,0.2c-0.1,0-0.3,0-0.4,0.1
					c-0.2,0-0.1,0.3,0.1,0.2C4.7,70,4.9,70,5.2,70c0.2,0.2,0.4,0.4,0.5,0.6s0.3,0.1,0.2-0.1c-0.1-0.2-0.2-0.4-0.4-0.6
					C5.8,69.9,6,69.9,6.3,69.8C6.4,70.1,6.4,69.8,6.3,69.8z"/>
			</g>
			<g>
				<path class="st30" d="M7.2,69.1c-0.3,0-0.7-0.1-1-0.1c-0.1-0.1-0.3-0.2-0.4-0.3c-0.2,0-0.3,0.3-0.2,0.3c0,0,0,0,0.1,0
					c-0.3,0-0.5,0.1-0.8,0.1c-0.2,0-0.1,0.3,0.1,0.2c0.4-0.1,0.7-0.1,1.1-0.1c0.2,0.1,0.3,0.3,0.3,0.5s0.3,0.1,0.2-0.1
					c-0.1-0.2-0.1-0.3-0.2-0.5C6.7,69.1,6.9,69.1,7.2,69.1C7.3,69.4,7.4,69.2,7.2,69.1z"/>
			</g>
			<g>
				<path class="st30" d="M7.7,68.9c-0.5-0.3-1.1-0.5-1.8-0.5c-0.2,0-0.2,0.3,0,0.3c0.6,0,1.1,0.1,1.6,0.4C7.7,69.2,7.9,69,7.7,68.9
					z"/>
			</g>
		</g>
		<g>
			<path class="st30" d="M2.8,73.8L2.8,73.8c-0.1,0-0.2,0-0.3,0c0,0-0.1,0-0.1-0.1c0,0,0-0.1,0.1-0.1s0.2,0,0.3,0
				C2.8,73.7,2.9,73.7,2.8,73.8C2.9,73.8,2.8,73.8,2.8,73.8z M3.1,73.8C3,73.8,3,73.8,3.1,73.8C3,73.7,3.1,73.7,3.1,73.8
				c0.1-0.1,0.2-0.1,0.3-0.1c0,0,0.1,0,0.1,0.1s0,0.1-0.1,0.1C3.2,73.8,3.1,73.8,3.1,73.8L3.1,73.8z M2.3,73.8L2.3,73.8
				c-0.1,0-0.2,0-0.3,0c0,0-0.1,0-0.1-0.1c0,0,0-0.1,0.1-0.1c0.1,0,0.2,0,0.2,0C2.3,73.7,2.4,73.7,2.3,73.8L2.3,73.8z M3.6,73.8
				C3.5,73.8,3.5,73.8,3.6,73.8C3.5,73.7,3.6,73.7,3.6,73.8c0.1-0.1,0.2-0.1,0.2-0.1s0.1,0,0.1,0.1c0,0,0,0.1-0.1,0.1
				C3.7,73.8,3.7,73.8,3.6,73.8L3.6,73.8z M1.8,73.7L1.8,73.7c-0.1,0-0.2,0-0.3-0.1c0,0-0.1,0,0-0.1c0,0,0-0.1,0.1,0
				C1.7,73.5,1.8,73.6,1.8,73.7C1.8,73.6,1.9,73.6,1.8,73.7L1.8,73.7z M4.1,73.7C4,73.7,4,73.7,4.1,73.7C4,73.6,4.1,73.6,4.1,73.7
				c0.1-0.1,0.2-0.1,0.2-0.2h0.1v0.1C4.2,73.6,4.2,73.7,4.1,73.7L4.1,73.7z M1.3,73.5L1.3,73.5c-0.1,0-0.2-0.1-0.3-0.1v-0.1h0.1
				C1.2,73.3,1.3,73.4,1.3,73.5C1.4,73.4,1.4,73.5,1.3,73.5C1.4,73.5,1.3,73.5,1.3,73.5z M4.5,73.5L4.5,73.5
				C4.4,73.4,4.4,73.4,4.5,73.5c0.1-0.1,0.2-0.2,0.2-0.2h0.1v0.1C4.7,73.5,4.7,73.5,4.5,73.5C4.6,73.5,4.6,73.5,4.5,73.5z M5,73.3
				L5,73.3C4.9,73.2,4.9,73.2,5,73.3c0.1-0.1,0.2-0.2,0.2-0.2h0.1v0.1C5.2,73.3,5.1,73.3,5,73.3L5,73.3z M0.9,73.3
				C0.8,73.3,0.8,73.3,0.9,73.3c-0.1-0.1-0.2-0.1-0.3-0.2V73h0.1c0.1,0,0.1,0.1,0.2,0.1C0.9,73.2,0.9,73.2,0.9,73.3L0.9,73.3z
				 M5.5,73.1C5.4,73.1,5.4,73.1,5.5,73.1C5.4,73,5.4,73,5.5,73.1c0-0.1,0-0.2,0.1-0.2h0.1V73C5.6,73,5.6,73,5.5,73.1L5.5,73.1z
				 M0.4,73L0.4,73c-0.2-0.1-0.2-0.2-0.2-0.2v-0.1h0.1C0.3,72.7,0.4,72.8,0.4,73C0.5,72.9,0.5,73,0.4,73C0.5,73,0.5,73,0.4,73z
				 M5.9,72.8L5.9,72.8C5.8,72.7,5.8,72.7,5.9,72.8C6,72.7,6,72.6,6.1,72.6h0.1v0.1C6.1,72.7,6,72.8,5.9,72.8L5.9,72.8z M6.3,72.5
				L6.3,72.5C6.2,72.4,6.2,72.4,6.3,72.5l0.2-0.3h0.1v0.1L6.3,72.5L6.3,72.5z M6.7,72.2L6.7,72.2C6.6,72.1,6.6,72.1,6.7,72.2
				C6.8,72.1,6.8,72,6.9,72H7v0.1C6.9,72.1,6.8,72.2,6.7,72.2L6.7,72.2z M7.2,71.9C7.1,71.9,7.1,71.9,7.2,71.9
				C7.1,71.8,7.1,71.8,7.2,71.9c0.1-0.1,0.1-0.2,0.2-0.2h0.1v0.1C7.3,71.9,7.3,71.9,7.2,71.9L7.2,71.9z M7.6,71.7L7.6,71.7
				C7.5,71.6,7.5,71.6,7.6,71.7c0.1-0.1,0.2-0.2,0.2-0.2h0.1v0.1C7.8,71.6,7.7,71.7,7.6,71.7L7.6,71.7z M8.1,71.5
				C8,71.5,8,71.5,8.1,71.5C8,71.4,8,71.4,8.1,71.5c0.1-0.1,0.2-0.2,0.2-0.2h0.1v0.1C8.3,71.4,8.2,71.5,8.1,71.5L8.1,71.5z
				 M8.6,71.3C8.5,71.3,8.5,71.3,8.6,71.3C8.5,71.2,8.5,71.2,8.6,71.3c0.1-0.1,0.2-0.2,0.2-0.2h0.1v0.1C8.7,71.3,8.7,71.3,8.6,71.3
				L8.6,71.3z M9,71.2L9,71.2C9,71.1,9,71.1,9,71.2c0.1-0.1,0.2-0.1,0.2-0.2h0.1v0.1C9.2,71.1,9.1,71.2,9,71.2
				C9.1,71.2,9,71.2,9,71.2z"/>
		</g>
	</g>
</g>
</svg>
