<?xml version="1.0" encoding="utf-8"?>
<!-- Generator: Adobe Illustrator 23.0.1, SVG Export Plug-In . SVG Version: 6.00 Build 0)  -->
<svg version="1.1" id="group_of_young_people" xmlns="http://www.w3.org/2000/svg" xmlns:xlink="http://www.w3.org/1999/xlink"
	 x="0px" y="0px" viewBox="0 0 949.7 961" style="enable-background:new 0 0 949.7 961;" xml:space="preserve">
<style type="text/css">
	.st0{fill:#FFFFFF;}
	.st1{clip-path:url(#SVGID_2_);}
	.st2{fill:#AE371C;}
	.st3{fill:#B8523D;}
	.st4{fill:#872A16;}
	.st5{fill:#B3481D;}
	.st6{fill:#C26D4A;}
	.st7{fill:#993E19;}
	.st8{fill:#E6E6E6;}
	.st9{fill:#B9B8BF;}
	.st10{fill:#9F9DA3;}
	.st11{fill:#8B8A8F;}
	.st12{fill:#D5D4D9;}
	.st13{fill:#782C22;}
	.st14{fill:#F9B598;}
	.st15{fill:#BD634F;}
	.st16{fill:#FBD3C1;}
	.st17{fill:#DB7B60;}
	.st18{fill:#EB6A46;}
	.st19{fill:#221F51;}
	.st20{fill:#E8745D;}
	.st21{fill:#F07F60;}
	.st22{fill:#F6C5B0;}
	.st23{fill:#783013;}
</style>
<circle class="st0" cx="474.8" cy="474.8" r="474.8"/>
<g>
	<defs>
		<circle id="SVGID_1_" cx="474.8" cy="474.8" r="474.8"/>
	</defs>
	<clipPath id="SVGID_2_">
		<use xlink:href="#SVGID_1_"  style="overflow:visible;"/>
	</clipPath>
	<g class="st1">
		<g>
			<g id="woman_with_a_bag_1_">
				<g>
					<g>
						<path class="st2" d="M613.9,562.4c30.3-26.9,36.8-72.4,30.2-112.3s-24.2-77.2-34.7-116.3c-13.2-49.5-7.5-133.3-9.1-148.7
							c-1.6-15-204.4-0.2-204.4-0.2c-9.7,70.5-15.2,141.4-16.5,212.5c-1,53.4,2.7,112.7,40.8,149.9L613.9,562.4z"/>
					</g>
					<g>
						<path class="st3" d="M389.2,297.2c2.6-37.4,13.5-75.9,14.2-112.8c-4.8,0.3-7.5,0.6-7.5,0.6c-9.7,70.5-15.2,141.4-16.5,212.5
							c-1,53.4,2.7,112.7,40.8,149.9l6.9,0.6C388.6,469.2,382.9,383.4,389.2,297.2z"/>
					</g>
					<g>
						<path class="st4" d="M449.1,462.1C466.6,419.2,492,381,508,336.5c8,38.2,14.3,77.9,23.9,116.1c18-45.5,1.6-164.7,8-168.5
							c6.4-3.8,24.8,69.1,25.4,74.7c8.1-59.8,5.2-120.2-1.7-180.1c-34-0.9-84.9,1.4-121.7,3.4C422.1,274.2,421.7,371.8,449.1,462.1z
							"/>
					</g>
				</g>
				<g>
					<g>
						<g>
							<path class="st5" d="M236.1,613.1c14-52.6,30.5-70.4,70.9-94.1c16.2-9.7,42.6-20.3,64.3-27.6c62.3-18.7,118.3-29.2,185-34.7
								c2.4,84.1,4.3,171.4-0.2,256c-5.4,84.7-19.8,163.1-25.2,247.8c0,0.7,0,1.5-0.1,2.1c-76.8,11.7-158.2,7.1-231.4-13.6
								c-14.2-4.1-28.6-8.9-38.5-17.4c-9.8-8.6-14-19.8-17.4-30.7C214.1,806.9,223.9,709.2,236.1,613.1z"/>
						</g>
						<path class="st6" d="M328.6,537.6c-28.6,0.5-45.4,20.3-50.8,39.1c-6,20.6-5.6,42.6-7.4,63.5c-3.9,43.7-7.8,87.4-11.7,131.1
							c-0.2,2.3-5,2.5-4.8,0.1c4.3-48.4,8.6-96.8,12.9-145.2c1.8-20.6,0.9-43.3,11.4-62.8c8.3-15.5,26.7-28.9,50.2-29.3
							C331.5,533.9,331.6,537.5,328.6,537.6L328.6,537.6z"/>
						<g>
							<path class="st7" d="M336.2,918.6c45.7,5.6,89.5,1.5,135.3,2.8c19.9-22.9,49.8-42,69.6-65.6c-4.2,34.4-8,69-10.2,104.7
								c0,0.7,0,1.5-0.1,2.1c-76.8,11.7-158.2,7.1-231.4-13.6c-14.2-4.1-28.6-8.9-38.5-17.4c-9.8-8.6-14-19.8-17.4-30.7
								c-1.9-6-3.6-11.9-5.2-18C267.9,899.2,298.3,914,336.2,918.6z"/>
						</g>
						<g>
							<path class="st6" d="M213,912.6c-2-1.1-3.8-2.5-5.2-4.1c-3.5-4.2-3.6-9.6-3.5-14.6c0.8-44.7,3.4-89.4,7.8-133.8
								c34.8,11.5,71.8,11.4,109.3,15.2c4.1,49.5,4.8,107.2,3.3,156.8c-35.3,1.1-70.9-4.3-103.1-15.6
								C218.6,915.2,215.5,914.1,213,912.6z"/>
						</g>
					</g>
					<g>
						<path class="st8" d="M384.6,888.6c5.6-17.4,24.5-45.1,33.3-63.7c51.3-108.3,9.9-207.8,105.8-301.7
							c10.6-10,21.6-18.9,33.5-26.9c1.7,71.7,2.5,145.1-1.4,216.5c-3.2,49.1-9.2,96-15,143.3c-1.2,10.7-9.9,99.4-10.2,104.4
							c0,0-0.1,1.8-0.1,2.3c-7.2,1.1-14.4,2-21.7,2.9c-4.8,0.6-9.7,1-14.5,1.5c-7.3,0.7-14.6,1.1-22,1.5
							c-14.6,0.7-29.4,0.8-44.1,0.3C401.4,967.8,359.5,965.4,384.6,888.6z"/>
					</g>
				</g>
				<g>
					<g>
						<g>
							<path class="st9" d="M738.4,712.2c0.5-7-91.1-252.7-104.2-288.4c-1.7-4.4-3.9-9.2-6.9-12.9c-2-2.5-10.8-4.3-12.7-1.8
								c-20,26.3-52.5,96.5-49.9,130.4c2.9,37.9,69.8,192.7,75.3,193.6C669.2,738,737.3,739.7,738.4,712.2z"/>
						</g>
					</g>
					<g>
						<g>
							<path class="st10" d="M730,725.8c-9.3-66.4-94.9-265.9-108.3-317.4c2.4,0.6,4.6,1.5,5.5,2.6c2.9,3.6,5.2,8.4,6.9,12.9
								c13.3,35.7,104.7,281.5,104.2,288.4C738.2,718,735.1,722.4,730,725.8z"/>
						</g>
					</g>
					<g>
						<g>
							<path class="st11" d="M661.5,714c18.6-4.8,33.1-2.6,48.1,2.3c12.9,4.3,20.5,9.5,20.5,9.5s8.4-13.8,8.4-13.5
								c-2.9,61.9-97.9,22.6-98.9,21.3c-0.9-1.2-1.7-3-1.7-3S655.2,715.7,661.5,714z"/>
						</g>
					</g>
				</g>
				<g>
					<g>
						<g>
							<path class="st9" d="M217.7,734.7c0.1-7.3,109.9-257.3,125.7-293.8c1.9-4.5,4.6-9.3,7.8-12.9c2.1-2.4,11.1-3.6,12.8-0.8
								c18,29.3,45,105.6,39.8,140.9c-5.9,39.6-84.2,196.2-89.7,196.8C284.8,767.5,216.8,763.6,217.7,734.7z"/>
						</g>
					</g>
					<g>
						<g>
							<path class="st12" d="M225,749.6c14.4-68.9,114.7-271,131.9-323.9c-2.5,0.3-4.7,1.2-5.7,2.3c-3.3,3.6-5.9,8.4-7.8,12.9
								c-15.9,36.4-125.6,286.4-125.7,293.8C217.5,740.7,220.3,745.7,225,749.6z"/>
						</g>
						<g>
							<path class="st11" d="M306.7,765.4c2.7-0.1,5.2-0.3,7.5-0.5c5.5-0.6,83.9-157.1,89.7-196.8c1.6-10.5,0.2-24.7-2.8-40.1
								C393,555.9,340,723.3,306.7,765.4z"/>
						</g>
					</g>
					<g>
						<g>
							<path class="st13" d="M286.2,744.5c-12.4-4.3-59.5-12.3-67.4-7.4c-4.7,2.9,19.1,77.7,95.5,27.7c0.1-0.1,0.5-0.2,0.8-0.7
								C315.1,764.2,298.6,748.8,286.2,744.5z"/>
						</g>
					</g>
				</g>
				<g>
					<g>
						<g>
							<path class="st14" d="M415.7,413.7c0,22.9,65.7,102.8,88.4,102.8c22.6,0,104-88.7,99.2-111.1c-1-4.8-64.8-21.4-100.2-21.4
								C467.6,384,415.7,390.7,415.7,413.7z"/>
							<g>
								<g>
									<path class="st14" d="M502.3,434.7L502.3,434.7c20.9,0,37.9-17.1,37.9-37.9v-66.4c0-20.9-17.1-37.9-37.9-37.9l0,0
										c-20.9,0-37.9,17.1-37.9,37.9v66.4C464.2,417.6,481.3,434.7,502.3,434.7z"/>
								</g>
								<g>
									<path class="st15" d="M540.2,376.3c0-19.5,0-45.9,0-45.9c0-20.9-17.1-37.9-37.9-37.9c-20.9,0-37.9,17.1-37.9,37.9
										c0,0,0,12.7,0,30.3c0,0,19,18.8,34.4,21.7C521.2,386.8,540.2,376.3,540.2,376.3z"/>
								</g>
							</g>
						</g>
					</g>
					<g>
						<g>
							<path class="st14" d="M504.4,98.8c45,0,97,14.1,93.9,84.8c0,0-11.6,92.3-14.7,108.1c-3.2,15.9-38.6,76.9-73.6,76.9
								c-37.6,0-81.7-61.2-84.9-77c-3.2-15.9-15.6-105.5-15.6-105.5C406.2,115.4,459.4,98.7,504.4,98.8z"/>
							<path class="st16" d="M423.2,231c-2.4,0.1-5.1,0.2-7.7-0.2c3.6,25,7.8,52.7,9.3,60.8c3.2,15.9,47.3,77,84.9,77
								c0.1,0,0.2,0,0.3,0c-41-15.9-58-40.9-70.9-58.1C426.4,293.1,423,259,423.2,231z"/>
							<path class="st17" d="M504.4,98.8c-45,0-98.3,16.5-95.1,87.2c0,0,2.3,16.3,5.2,36.1c24.3,25.2,106.7-25.3,137.2-58.9
								c33,74.6,34.7,150.1-11.9,190.1c-4.4,3.8-15.3,11.8-15.3,11.8c29.7-12.8,56.4-60,59.1-73.6c3.2-15.9,14.7-108.1,14.7-108.1
								C601.4,112.9,549.4,98.8,504.4,98.8z"/>
							<g>
								<g>
									<path class="st18" d="M581.4,253.4c-1,5.9-1.8,10.9-1.8,15c0,3.9,1,7,4.2,7.8c3,0.8,7.1-1.1,10.7-5.4
										c1.8-2.1,3.5-4.8,4.7-8c1.2-3.2,2.3-6.6,2.7-10.4c0.9-7.4-0.5-13.8-2.7-17.9c-2.3-4.1-5.4-5.7-8.3-4.7
										c-3,1-4.8,4.2-6.2,8.3C583.3,242.2,582.4,247.5,581.4,253.4z"/>
									<path class="st16" d="M425,283.6c-3.3,1.4-8-0.2-12.6-4.5c-2.3-2.1-4.5-5-6.3-8.2s-3.4-7-4.4-11c-2-8-1.5-15.3,0.6-20
										c1.9-4.8,5.1-7.1,8.6-6.3c3.5,0.7,5.9,3.9,8,8.3C420.9,246.2,428.3,282.2,425,283.6z"/>
								</g>
							</g>
							<g>
								<g>
									<path class="st19" d="M467.9,273.8c-6.6,0.7-7.4-1.8-7.4-1.8c-0.8-2.4-1.4-8.1-1.5-11c-0.3-9.5,3.3-14.4,7.9-14.9
										c4.6-0.5,8.6,3.9,8.9,13.3c0.1,2.9,0,8.8-0.6,11.3C475.2,270.6,474.6,273.1,467.9,273.8z"/>
									<path class="st0" d="M465.1,256.7c0.8-0.3,1.1-1.2,0.9-2c-0.2-0.8-1-1.2-1.8-0.9c-0.8,0.3-1.1,1.2-0.9,2
										C463.5,256.5,464.3,256.9,465.1,256.7z"/>
								</g>
								<g>
									<path class="st19" d="M548.2,269.9c6.6-0.7,7.3-3.2,7.3-3.2c0.6-2.5,0.7-8.2,0.6-11.3c-0.3-9.5-4.3-13.7-8.9-13.3
										c-4.6,0.5-8.2,5.5-7.9,14.9c0.1,2.9,0.7,8.7,1.5,11C540.8,268.3,541.5,270.6,548.2,269.9z"/>
									<path class="st0" d="M543.8,252.9c-0.8-0.2-1.2-1-1-1.8c0.2-0.8,1-1.4,1.7-1.2c0.8,0.2,1.2,1,1,1.8
										C545.3,252.6,544.6,253.2,543.8,252.9z"/>
								</g>
							</g>
							<g>
								<path class="st20" d="M511.8,260.5c0,0,12.7,25.3,11.4,30.2c-2.3,8.2-15.6,6.3-15.6,6.3l6.6-10.9L511.8,260.5z"/>
								<g>
								</g>
							</g>
							<path class="st2" d="M526.5,232l-2.1-10.9c0,0,23.5-3.3,44.6,6.1l-2.5,4.8C566.4,232,547.3,227.3,526.5,232z"/>
							<path class="st0" d="M542.7,304.2c0,0-19.9,5.2-31.7,5.2c-11.7,0-31.9-3.2-31.9-3.2c-2,0.1,9.3,23.6,31.4,23.2
								C532.5,328.8,544,304,542.7,304.2z"/>
							<path class="st2" d="M489.8,231.1l-0.7-11.4c0,0-25.8,1-46.3,15.5l1.4,5.2C470.2,229.3,471.2,230.8,489.8,231.1z"/>
						</g>
						<g>
							<g>
								<g>
									<path class="st2" d="M597.2,130.1c7,12.9,9.8,28.5,10.1,43.5c0.3,12.9-0.8,25.8-1.5,38.7c-30.2-14.1-53.5-33.3-71.8-61.1
										c-9.9,25.9-33,44.6-56.5,60c-24.5,16.2-52.5,26.2-80.6,35.1c-2.3-21.4-3.9-43-2.4-64.4c1.9-26.5,9-53,24.4-74.5
										C434.4,85.9,459,70,485.5,69.2c24.3-0.7,49.3,12.9,59.5,34.7c15-3.8,32.5,2.3,43.3,14C591.9,121.6,594.8,125.7,597.2,130.1
										z"/>
								</g>
								<g>
									<path class="st4" d="M529.3,119.3c2.4,50.1-45.1,78.1-78.9,106.7c9.3-4.4,18.3-9.3,27-15c23.5-15.4,46.6-34,56.5-60
										c18.3,27.7,41.8,46.9,71.8,61.1c0.1-1.6,0.2-3.2,0.2-4.7C570.5,190.5,541.8,156.6,529.3,119.3z"/>
								</g>
								<g>
									<path class="st3" d="M493.8,69.5c-2.8-0.3-5.6-0.5-8.4-0.3c-26.5,0.8-51.1,16.5-66.5,38.2c-15.4,21.5-22.5,48.2-24.4,74.5
										c-1.6,21.5,0.1,43,2.4,64.4c0,0,6.1-54.5,10.7-81.2C416.1,120.6,447,75.1,493.8,69.5z"/>
								</g>
								<g>
									<path class="st4" d="M605,152.9c-0.2-1.2-0.6-2.5-0.8-3.7c-19.1,1.8-38.5-1.6-56.5-5.7C566.3,150.1,585.7,154.2,605,152.9z
										"/>
								</g>
								<g>
									<path class="st4" d="M568.7,161c11.8,6.8,25,10.5,38.7,12.9c0-0.1,0-0.2,0-0.3c-0.1-2.4-0.2-4.7-0.3-7.2
										C593.9,167.8,581.1,165.3,568.7,161z"/>
								</g>
								<g>
									<path class="st3" d="M488.5,86.6c-21.2,14.4-51.3,68.8-51.3,68.8c23.8-32.8,46-66,82.4-77.7c-5.9-3.3-12.4-5.6-18.9-7.1
										c-20.7,7.4-39.8,19.1-54.9,34.8C457.9,95.6,472.7,88.1,488.5,86.6z"/>
								</g>
								<g>
									<path class="st4" d="M597.2,130.1c-2.4-4.4-5.3-8.6-8.8-12.3c-10.8-11.7-28.4-17.8-43.3-14c-4.5-9.5-11.7-17.4-20.5-23.3
										c11,11.5,12.8,31,12.9,46.5c0.6-5.1,4.7-6.1,8.1-7.1c18.5-5.7,36.6,0.3,52,10.7C597.4,130.5,597.3,130.4,597.2,130.1z"/>
								</g>
							</g>
							<path class="st2" d="M552.5,160.1c0,0,53.8,86.5,30.3,176.6c0,0,22.2-46,23.2-83.8c0.8-32,0.9-57.1,0.9-57.1L552.5,160.1z"/>
							<path class="st2" d="M461.7,178.9c0,0-66.3,72.7-73.5,163.3c0,0-4.2-48.2,5.7-84.3c8.4-30.7,15.4-54.8,15.4-54.8L461.7,178.9
								z"/>
						</g>
						<path class="st4" d="M525,103.2c-10.5,48.7-33,84.9-80.6,104.2C493.8,183.4,512.8,144.1,525,103.2z"/>
						<path class="st4" d="M417.8,188.6c25.7-4.1,50.1-17.8,67.3-38.5C471.4,172.5,445.1,187.9,417.8,188.6z"/>
					</g>
				</g>
				<g>
					<g>
						<path class="st9" d="M504.2,973.3c-57.1,0-164.6-14.2-176.5-15.9c10.2-43.8,27.7-89.6,43.1-130c14-36.6,27.1-71.1,32.6-98.2
							c7.2-35.2-11.8-83.8-27.2-122.8c-9.8-25-18.3-46.7-18.3-59.9c0-11.4-0.3-24.2-0.8-37.7c-0.8-27.1-1.7-57.7,0.5-82.7
							c13.6-8.4,82.3-36,82.3-36c3.8,9.7,55.5,94.2,79.8,94.2c24.5,0,57.4-81.3,59.9-90.7l41.2,15.3c1.7,17.7,8.8,40.4,16.4,64.5
							c8.7,27.6,17.7,56.2,20.6,82.7c-7.7,25.8-33.1,61.6-40.6,71.9l-0.1,0.2v0.2c-0.1,0.6-10.4,52.8-4.7,93.5
							c2.9,21.1,15,60.2,28.9,105.5c12.9,41.9,27.6,89.3,37,129.9C669.9,959.2,632.4,977.3,504.2,973.3z"/>
					</g>
					<g>
						<g>
							<g>
								<path class="st10" d="M434,666.7c30.3-8,62.7-3.5,86.8-8.7c-27.5-7.8-108.9-14.9-124.3-39.8c-22.3-36.1-33-58.1-34.7-65
									c-6-27.5-0.9-52.8-0.9-80.8c0-7.2-2.3-15.1-5.6-21.1c-0.6,32.2,1.6,68.1,1.6,95.1c0,34.6,57.3,125.6,45.6,182.5
									c-11.7,56.8-56.6,145.6-76.1,229.3c0,0,8,1.1,20.8,2.7C369.9,917,413.6,672.2,434,666.7z"/>
							</g>
							<g>
								<path class="st10" d="M637.6,488.9c9.5,25.8,17.2,55,9.5,80.8c-6.9,20.6-24.1,38.7-39.5,54.1c-18,18.9-46.4,24.1-71.4,33.5
									c22.3-3.5,44.7-9.5,67-11.1c0.9,16.3-8.6,80.8-4.3,96.2c6.9,24.1,68.2,214,70.1,217.9c6.4-1.2,10.4-2,10.4-2
									c-19.5-83.8-60.6-195.3-66.2-236.3c-5.6-41,4.7-93.2,4.7-93.2c13.7-18.8,34.2-50.1,40.9-72.4c-3.3-29.4-14.1-61.8-23.2-91
									C635.3,473.2,634.9,481.2,637.6,488.9z"/>
							</g>
						</g>
					</g>
				</g>
				<g>
					<path class="st14" d="M689.1,711.6c-7.1-0.7-14.3-0.9-21.4,0.6c-2.1,0.5-4.3,1.1-6.2,1.9c-2.4,4.8-4.5,9.6-6.3,14.2
						c-10.1,25.9-35.7,274.9-35.7,274.9l30.6,5.4c0,0,67.8-208.1,78.3-242.9c2.1-7.2,2-22.9,1-39.6
						C718.4,716.2,703.5,713,689.1,711.6z"/>
					<path class="st14" d="M620.9,989.6l-14.5,20.9c0,0,47.5,24.3,54.9,7.1l-10.6-24.5L620.9,989.6z"/>
					<path class="st21" d="M727.1,724.2c0.3,17.8-1.9,35.9-6.3,49.5c-22.5,65.5-57.1,184.2-57.1,184.2c-1.4,7.3-6.6,16.5-4.6,23.2
						c18.8-57.7,61.2-188.4,69.3-215.3c2.1-7.2,2-22.9,1-39.6C728.6,725.4,727.8,724.7,727.1,724.2z"/>
					<path class="st16" d="M658.6,735.2c-1.9,2.4-4.3,4.2-6.8,6.1c-8.8,44.2-23.1,173.4-29.3,232.2
						C623.8,973.2,658.6,735.2,658.6,735.2z"/>
				</g>
				<g>
					<g>
						<g>
							<path class="st22" d="M372.5,546.1c-5.4-14.7-14.3-24.2-19.4-36.6c-1.7-4.2,14.5-40.4,28.7-53.8c2.9-2.8,21.4,6.6,21.4,6.6
								L372.5,546.1z"/>
							<g>
								<g>
									<path class="st23" d="M417.4,650.5c3.7-37.1,5.4-156.7,1.1-251.7c-9,1.5-27.4,9.7-38.5,15c9.2,85.1,8.9,138.3,6.4,222.3
										c-1.4,44.6,1.6,77.7-11.5,122.7l-7.3,68.7C401.8,786.3,411.2,712.1,417.4,650.5z"/>
								</g>
								<path class="st8" d="M425.6,578.8l-44.8-0.2l-0.2,49.1l44.8,0.2L425.6,578.8z M386,622.2l0.2-38l33.8,0.2l-0.2,38L386,622.2
									z"/>
							</g>
							<g>
								<g>
									<path class="st22" d="M397.3,567.9c6.2-1.5,35.7-21.3,50.3-35.2c4.2-3.9,8.3-8.2,9.9-13.7c1.6-5.5-0.3-12.4-5.6-14.5
										l-56.4,41.7C395.4,546.1,391.2,569.4,397.3,567.9z"/>
									<path class="st22" d="M397.2,551.1c6.2-1.5,32.6-23.6,47.2-37.6c4.2-3.9,8.3-8.2,9.9-13.7s-0.3-12.4-5.6-14.5l-56.4,41.7
										C392.3,526.8,391,552.6,397.2,551.1z"/>
									<path class="st22" d="M394.2,538.5c6.1-1.8,31.3-25.6,45-40.3c3.8-4.2,7.8-8.7,9.1-14.3c1.2-5.5-3.7-15.3-9.1-17.2
										L388,514.6C387.9,514.7,388.1,540.4,394.2,538.5z"/>
									<path class="st22" d="M431.9,453.3c-1.2-1.4-3.2-2.3-6.4-2.8c-4.2-0.7-17,18.5-26,29c-4.7,5.5-9.3,11.3-11.6,18.1
										c-2,6.1-1.8,13.3,1.6,18.6c16.5-8.4,31.3-20.5,42.7-35.2c3-3.9,6-8.2,6.2-13.2C438.7,462.3,435.6,457.5,431.9,453.3z"/>
									<path class="st21" d="M438.4,467.7L426,486.4l-19.7,16.7l2.1,1.4c0,0,16.7-15.3,19.2-17.9
										C430.3,483.8,438.4,467.7,438.4,467.7z"/>
									<path class="st21" d="M448.4,484.7c0,0-9,14.7-12.4,18.7c-3.4,3.9-14.1,11-14.1,11l0.3,1.4c0,0,12.7-9.7,15.4-12.3
										C440.5,500.8,448.4,484.7,448.4,484.7z"/>
									<path class="st21" d="M452.3,504.4c0,0-7.8,14.3-11.4,17.2c-3.7,2.8-12.9,10.1-12.9,10.1l0.3,1.2c0,0,11.7-8.9,14.2-11.4
										C444.8,519.2,452.3,504.4,452.3,504.4z"/>
								</g>
								<path class="st22" d="M373.1,506.7c0,0-3.9,29.6-16,45.3c-6.8,8.7,11.7,21.4,25.6,20.9s46.4-23,52.8-30.6
									c6.4-7.7-6-28.8-14.7-38.8C412,493.5,385.9,472.6,373.1,506.7z"/>
							</g>
						</g>
					</g>
					<g>
						<path class="st22" d="M224.2,730.7c-4.4,9.6-7.7,19.7-9.5,30.2c-1.9,11.5-2.1,23.4,0.5,34.7c2.3,9.8,5.5,19.5,10.6,28.1
							c2.9,5.1,7.2,10.6,12.6,13.3c22.3-18.9,60.5-53.6,67.9-68.2c13.4-26.3,70.9-144.9,105.3-215.9c-2.6-3.5-5.6-6.5-9.2-9.1
							c-9.8-7.1-22-10-34.1-10.8C322.6,593.2,250.9,689.5,224.2,730.7z"/>
						<path class="st21" d="M398.1,572.2c-20,38.8-65.5,127.5-91.6,183.9c-13.4,27.4-44.8,62.9-72.3,77.9c1.4,1.1,2.8,2.1,4.3,2.9
							c22.3-18.9,60.5-53.6,67.9-68.2c12.3-24.2,61.8-126.2,96.5-197.8C401.2,571.5,399.7,571.9,398.1,572.2z"/>
						<path class="st16" d="M358.6,549.8c0-1.4-0.1-2.7-0.1-4.1C313,606.2,249,692.3,224.2,730.7c-0.6,1.2-1.1,2.6-1.7,3.8
							c0.5,3,0.8,6.2,0.6,9.2C223.1,743.9,312,617.1,358.6,549.8z"/>
					</g>
				</g>
			</g>
		</g>
	</g>
</g>
</svg>
