<?xml version="1.0" encoding="utf-8"?>
<!-- Generator: Adobe Illustrator 23.0.1, SVG Export Plug-In . SVG Version: 6.00 Build 0)  -->
<svg version="1.1" id="Student_2" xmlns="http://www.w3.org/2000/svg" xmlns:xlink="http://www.w3.org/1999/xlink" x="0px" y="0px"
	 viewBox="0 0 97.2 342.7" style="enable-background:new 0 0 97.2 342.7;" xml:space="preserve">
<style type="text/css">
	.st0{fill:#4C0B2E;}
	.st1{fill:#3D062C;}
	.st2{fill:#2B0322;}
	.st3{fill:#7A1F3B;}
	.st4{fill:#C8472D;}
	.st5{fill:#DB6537;}
	.st6{fill:#FF9F4F;}
	.st7{fill:#FDC35F;}
	.st8{fill:#BA342A;}
	.st9{fill:#CB684A;}
	.st10{fill:#B24F3F;}
	.st11{fill:#E5845A;}
	.st12{fill:#F9803C;}
	.st13{fill:#E26534;}
	.st14{fill:#492E42;}
	.st15{fill:#3D263A;}
	.st16{fill:#CF4B5C;}
	.st17{fill:#7C0E1E;}
	.st18{fill:#C72235;}
	.st19{fill:#330727;}
	.st20{fill:#541035;}
	.st21{fill:#EDBB91;}
	.st22{fill:#301C30;}
	.st23{fill:#5E3B4E;}
	.st24{fill:#FFA14D;}
	.st25{fill:#82072D;}
	.st26{fill:#FFFFFF;}
	.st27{fill:#A01537;}
	.st28{fill:#E54545;}
</style>
<path class="st0" d="M63.9,9.4c3.7,5.4,5.4,12.8,4.8,21.4c-0.6,8.6-3.4,13.2-5.1,20.1c-1.7,6.9-2.3,14.4-0.6,19.6
	c1.8,5.2,6.4,12,5.1,16.5c-1.3,4.6-14.8,9.4-31.1,6.5C20.7,90.7,9.8,79.9,10.7,75.6c0.9-4.3,8.9-11.3,9.3-23.4
	c0.4-12.1-3.3-28.7-0.4-36.8c2.9-8.1,10.9-14.1,19-15.2S58.3,1.2,63.9,9.4z"/>
<path class="st1" d="M10.7,75.6c0.4-1.8,2-4.1,3.8-7c3.1-0.8,6-2.6,8.1-5.1c3.6-4.3,4.9-10.1,5-15.7c0.1-5.6-0.9-11.2-1.6-16.7
	c-0.1-1.2-0.2-2.4,0.2-3.4c0.4-0.8,1-1.4,1.7-2c8.3-7.8,17.7-15,23.6-24.5c4.9,1.3,9.5,3.9,12.5,8.3c3.5,5.2,5.3,12.3,4.8,20.6
	c-1.2,1.1-2.5,2.1-3.6,3.2c-5.8,5.6-8.5,13.9-8.7,21.9c-0.2,8.1,2,16,4.7,23.6c1.3,3.7,3.1,7.6,6.1,9.9c-3.4,4-15.7,7.6-30.3,5
	C20.7,90.7,9.8,79.9,10.7,75.6z"/>
<path class="st2" d="M24.4,79.3c4-7.1,7.1-14.7,8.6-22.7c1.4-8,1-16.4-1.9-24c5-0.4,10.1,1.1,14.6,3.4c4.5,2.3,8.5,5.4,12.5,8.5
	c0.3,0.2,0.6,0.5,0.7,0.8c0.2,0.6-0.1,1.2-0.4,1.7c-5.9,10.1-8.7,22.9-4,33.7C44.4,79.1,34.4,78.6,24.4,79.3z"/>
<path class="st3" d="M20,52.2c0.4-12.1-3.3-28.7-0.4-36.8s10.9-14.1,19-15.2c7.8-1,18.9,0.8,24.7,8.3c-2.4-1.8-5-3.2-7.8-4.1
	C48.7,2.1,44,2,37.4,3.8C37.2,3.8,37,3.9,36.7,4c1.9,1.8,1,5-0.4,7.2c-3,4.6-8.3,7.6-13.7,8c-2,6.4-2.5,13.3-2.2,20.1
	c0.3,5.7,1.3,11.4,0.3,16.9c-0.5,2.9-1.8,5.7-3.7,7.9C18.6,60.8,19.8,56.9,20,52.2z"/>
<path class="st4" d="M51.7,12.1c9,0.2,13.2,7.7,14.1,13.6s-1,19.2-3,24c-2,4.9-6,8.4-8,8.7c-2,0.4-11.8-4.1-14.8-8.2
	c-3-4-7.4-19.1-5.8-26.4C36.2,14.9,44.9,11.9,51.7,12.1z"/>
<path class="st5" d="M54.5,58.1c2-0.4,6-3.9,8-8.7s3.8-18.1,3-24c-0.4-2.6-1.4-5.4-3.1-7.9c2,2.5,3.1,5.6,3.5,8.3
	c0.8,5.9-1,19.2-3,24c-2,4.9-6,8.4-8,8.7c-2,0.4-11.8-4.1-14.8-8.2c0,0-0.1-0.1-0.1-0.1C43.2,54.2,52.6,58.4,54.5,58.1z"/>
<path class="st3" d="M68,32.9c1-5.3,0.1-12.6,0-13.5c0.8,3.5,1,7.4,0.7,11.5c-0.6,8.6-3.4,13.2-5.1,20.1c-1.7,6.9-2.3,14.4-0.6,19.6
	c0.9,2.6,2.4,5.5,3.6,8.3c-1.3,0.2-2.6-0.4-3.4-2.3c-2.6-5.9-2.7-11.2-2.1-19C61.8,49.7,66.9,38.5,68,32.9z"/>
<path class="st2" d="M67.6,112.6c0.2-2.6,0.5-4.7,0.7-5.3c0.4-1.5,3-6.4,3.1-8.9c0.1-2.4-3.7-6.3-5.6-8c-1.6-1.5-6.2-13.3-7.4-16.7
	c-0.2-0.5-0.3-0.8-0.3-0.9l-2.6-1.6c0,0,14.2,5.3,14.5,7c0.4,1.7-0.2,8-0.2,8l10.1,19.8c0,0,3.2-2.3,4.8-2c1.7,0.3,8,5.4,9.7,9
	c1.7,3.6,1.5,6.4,1.1,6.4c-0.4,0-2,0.9-2,0.9s-6,7.8-7.5,8.1c-1.6,0.2-12-9.5-15.4-12.8C69.2,114.4,68.3,113.4,67.6,112.6z"/>
<path class="st6" d="M95,60.9c0,0,0.6-10.9,0-11.5c-0.6-0.6-13.7,3.4-14.2,4.3c-0.4,0.9,0.2,30.1,0.9,30.1c0.7,0,9.9-2.2,11.1-3.2
	C93.9,79.7,95,60.9,95,60.9z"/>
<path class="st7" d="M95.2,50.3c0.2,2.7-0.2,10.6-0.2,10.6s-1,18.8-2.2,19.7c-0.9,0.7-6.4,2.2-9.4,2.8c-0.6-5.2-1.1-28.3-0.7-29.1
	C83.1,53.7,91.4,51.1,95.2,50.3z"/>
<path class="st4" d="M97,57.3c0.5,0.7,0,5.5-0.5,7.6c-0.5,2.1-1.2,6.6-1,10.7c0.2,4.1-0.8,6.5-1.1,12.9c-0.3,6.4,0.3,22.2-0.7,25.4
	c-1.1,3.2-4.6,3.2-5.8,3c-1.3-0.3-7.3-5.3-6.8-8.1c0.5-2.8,4.3-7.5,5.8-12.3c1.5-4.9,2.5-11.2,2.4-12.4c-0.2-1.2-0.5-3.8-0.5-4.9
	c0-1.1-0.2-6.4-0.4-6.8c-0.1-0.5-1.8-1.6-2.6-2.1c-0.8-0.4-2.6-1.2-2.5-2c0.2-0.8,2.7-0.5,3.4,0.1c0.7,0.6,2.4,2,2.9,2.1
	c0.5,0-1.6-3.8-2.4-5s-1.6-1.5-2.3-2.4c-0.7-0.8-0.6-2.3,0.5-2c1.1,0.3,3.9,2.4,3.9,2.4s-1.9-3.1-2.4-3.9c-0.5-0.7-1-1.8-1-2.1
	c0-1.3,1.2-1.8,1.9-0.7c0.9,1.3,2.3,3.1,3.2,4.9c0.9,1.8,2.6,5.7,2.6,5.7s1-5.6,1-7C94.7,58.8,95.6,55.4,97,57.3z"/>
<path class="st8" d="M81,108.8c0.5-2.8,4.3-7.5,5.8-12.3c1.5-4.9,2.5-11.2,2.4-12.4c-0.2-1.2-0.5-3.8-0.5-4.9c0-1.1-0.2-6.4-0.4-6.8
	c-0.1-0.5-1.8-1.6-2.6-2.1c-0.8-0.4-2.6-1.2-2.5-2c0-0.2,0.2-0.3,0.4-0.4c1.4,0.8,2.8,1.8,4.3,2.6c0.4,0.2,0.8,0.4,1,0.8
	c0.1,0.2,0.2,0.5,0.2,0.7c0.6,4,1.2,8.1,1.8,12.1c0.4,2.3,0.2,3.1-0.4,5.1c-0.4,1.4-0.5,2.8,0.1,4.2c0.6,1.4,2,2.5,3.5,2.9
	c0,1.3,0,2.7,0,4.1c-0.2,0.1-0.3,0.3-0.5,0.4c-0.7,0.5-1.5,0.8-2.2,1.2c-1.4,0.9-2.3,2.3-3,3.8c-1.6,3.5-1.8,7.5-0.9,11.2
	C86.5,116.7,80.5,111.6,81,108.8z"/>
<path class="st9" d="M2.3,101.3C4.1,97.8,15,85,20.4,78.6c0.1,0.6,0,1.1-0.1,1.3c-0.6,1.2-16.7,42.9-16.8,46
	c-0.1,3.1,8.6,12.6,8.6,12.6s1.8-3.3,5.2-6c3.4-2.7,7.1-2,7.4-3.2c0.3-1.1-3.9-9.1-3.9-10.8c0-1.7,7.6-19.9,7.6-19.9
	s4.8,18.7,3.3,24c-1.4,5.3-12,31.2-12,31.2s0,2,2,3.8c-0.3,0.7-0.7,1.5-1,2.3c-5.4-3.9-14.7-11.2-17.9-16
	C-1.6,136.8-0.1,105.9,2.3,101.3z"/>
<path class="st10" d="M0.3,123.1c3-3.6,4.7-8.1,6.2-12.6c1.9-5.5,3.7-11.2,4.7-16.9c0.3-1.7,0.5-3.3,0.7-5c3.1-3.7,6.2-7.4,8.4-10.1
	c0.1,0.6,0,1.1-0.1,1.3c-0.6,1.2-16.7,42.9-16.8,46c-0.1,3.1,8.6,12.6,8.6,12.6s1.8-3.3,5.2-6c3.4-2.7,7.1-2,7.4-3.2
	c0.3-1.1-3.9-9.1-3.9-10.8c0-1.7,7.6-19.9,7.6-19.9s4.8,18.7,3.3,24c-1.4,5.3-12,31.2-12,31.2s0,2,2,3.8c-0.3,0.7-0.7,1.5-1,2.3
	c-5.4-3.9-14.7-11.2-17.9-16c-2.1-3.2-2.9-11.7-3-20.2C0.1,123.4,0.2,123.3,0.3,123.1z"/>
<path class="st11" d="M2.3,101.3C4.1,97.8,15,85,20.4,78.6c0,0.4,0,0.7,0,1c-5.5,6.7-15.6,18.4-17.3,21.7
	c-2.4,4.6-3.9,35.6,0.7,42.5c3.1,4.7,11.8,11.5,17.3,15.6c-0.1,0.2-0.1,0.3-0.2,0.5c-5.4-3.9-14.7-11.2-17.9-16
	C-1.6,136.8-0.1,105.9,2.3,101.3z"/>
<path class="st12" d="M48.1,82.8C48.1,82.8,48.1,82.8,48.1,82.8c0,0-0.1-1.1-0.2-2.4c0.5-1.3,2.2-5.9,2.6-6.1
	c0.5-0.2,5.7,6.7,5.7,6.7s0.3-0.9,0.4-2.4c0-0.6,0.1-1.1,0.1-1.6c0,0-0.1-0.2-0.3-0.6c0.2,0.4,0.3,0.6,0.3,0.6
	c2.8,6.2,7.3,16.8,7.5,18.9c0.3,2.8-3.1,30.2-3.6,36.2c-0.3,4.2,3.5,20,5.7,28.9c-2.4,0.6-5.6,1.4-5.9,1.3
	c-0.6-0.2-4.7-10.9-4.7-10.9S49.7,161.5,49,162c-0.4,0.3-2.9,0.2-4.8,0c1.5-9.3,5.8-36.1,6.2-49.8C50.8,100.8,49.2,89.1,48.1,82.8z"
	/>
<g>
	<path class="st13" d="M47.9,162.2c-1,0-2.5-0.1-3.7-0.2c1.5-9.3,5.8-36.1,6.2-49.8c0.1-3.3,0-6.6-0.1-9.8c0.5,0.7,1.2,1.4,1.9,2
		c2.7,2.1,6.5,2.6,9.8,1.6c-1.3,2.4-4,3.7-5.6,5.9c-1.1,1.6-1.5,3.6-1.9,5.5C51.6,132.3,48.6,147.2,47.9,162.2z"/>
	<path class="st13" d="M55.1,82.1c-0.5,4-3.8,7-5.6,10.6c-0.4-3.9-1-7.3-1.4-9.9c0,0,0,0,0,0s-0.1-1.1-0.2-2.4
		c0.5-1.3,2.2-5.9,2.6-6.1c0.5-0.2,5.7,6.7,5.7,6.7s0.3-0.9,0.4-2.4c0-0.6,0.1-1.1,0.1-1.6c0,0-0.1-0.2-0.3-0.6
		c0.2,0.4,0.3,0.6,0.3,0.6c1.1,2.4,2.5,5.5,3.7,8.6C58.8,84.3,57,83.1,55.1,82.1z"/>
</g>
<path class="st14" d="M18.1,171.5c-0.5-3.5,1.5-9.1,3.7-14c1.2,1.2,3,2.5,5.9,3.8c8.4,3.9,15.9,3.9,15.9,3.9s0.2-1.2,0.6-3.3
	c0,0,0,0,0,0c1.9,0.2,4.4,0.3,4.8,0c0.7-0.5,6.8-10.8,6.8-10.8s4.2,10.7,4.7,10.9c0.3,0.1,3.5-0.6,5.9-1.3c0,0,0,0,0,0
	c0.9,3.7,1.6,6.2,1.6,6.2s1.9-0.7,4.2-2.3c2.4,19.3-9.1,67.6-8.2,71.1c0.9,3.5-1.8,6.7-2.9,10.6c-1.1,3.9-5.7,40.7-5.7,40.7l-0.4,14
	c-3.7,1-10.1,3.4-12.2,3.7c-1.2,0.2-2.5,0.1-3.7,0c-0.4-0.5-0.6-0.9-0.6-0.9L35,304l-2.1-14.4c0,0-5.4-15.6-5.9-20.8
	c-0.5-5.2,5.7-23.4,5-31C31.4,230.1,19.1,178.6,18.1,171.5z"/>
<path class="st15" d="M37.6,290.4c1,2.5,2,5.1,4,6.9c2,1.8,5.1,2.6,7.4,1.2c-0.8-18.7-1.6-37.4-2.4-56.1c-1.6-0.3-3-1.2-3.9-2.5
	c2-1.1,4-2.2,5.9-3.3c-0.8-12-1.5-23.9-2.3-35.9c-0.3-4.8-0.7-9.9-3.7-13.6c-3-3.8-8.1-5.3-13-5.2c-3.1,0.1-6.1,0.8-9.1,1.7
	c-1.3-5.9-2.2-10.3-2.5-12.1c-0.5-3.5,1.5-9.1,3.7-14c1.2,1.2,3,2.5,5.9,3.8c8.4,3.9,15.9,3.9,15.9,3.9s0.2-1.2,0.6-3.3c0,0,0,0,0,0
	c1.9,0.2,4.4,0.3,4.8,0c0.7-0.5,6.8-10.8,6.8-10.8s4.2,10.7,4.7,10.9c0.3,0.1,3.5-0.6,5.9-1.3c0,0,0,0,0,0c0.9,3.7,1.6,6.2,1.6,6.2
	s1.9-0.7,4.2-2.3c0.4,3.1,0.4,7,0.2,11.3c-4.5,0.2-8.8,3.6-11,7.7c-2.7,4.9-3,10.7-3.4,16.4c-0.8,14-1.6,28.1-2.4,42.1
	c-0.1,2.2,0.7,5.4,2.9,5c1-0.2,1.7-1.1,2.2-2c1.3-2.2,2.5-4.6,3.4-7c-0.4,2.6-2.2,5.2-3,8.1c-1.1,3.9-5.7,40.7-5.7,40.7l-0.4,14
	c-3.7,1-10.1,3.4-12.2,3.7c-1.2,0.2-2.5,0.1-3.7,0c-0.4-0.5-0.6-0.9-0.6-0.9L35,304l-2.1-14.4c0,0-5.4-15.6-5.9-20.8
	c-0.2-2.5,1-7.8,2.4-13.6C30.6,267.2,33.3,279.1,37.6,290.4z"/>
<path class="st2" d="M54.9,72.9l-1.8-3l5,3.1c0,0.1,0.1,0.4,0.3,0.9c1.2,3.4,5.8,15.2,7.4,16.7c1.8,1.7,5.6,5.6,5.6,8
	c-0.1,2.4-2.6,7.3-3.1,8.9c-0.4,1.5-1.5,13.1-1.2,16.8c0.3,3.7,8.5,36.2,8.5,36.2s-1,2.7-3.3,4.4c-2.3,1.6-4.2,2.3-4.2,2.3
	s-7.8-29-7.3-35c0.5-6,3.9-33.4,3.6-36.2C64,93.1,56.3,75.6,54.9,72.9z"/>
<path class="st4" d="M40.4,50.7c2,2.4,6.3,4.9,9.8,6.5c-0.6,2-1.3,4.9-1.7,6.4c-0.2,0.7,0.1,1.6,0.5,2.6l0,0c0,0,0,0,0,0
	c0.5,1,1.1,2,1.8,2.8c0,0,0,0,0,0c0.3,0.4-0.3,4.6-0.3,4.6S37.1,64,36.7,63.8c0,0,0,0,0,0c0.4-0.6,0.8-1.3,1.1-1.9
	C38.2,61,39.6,54.3,40.4,50.7z"/>
<path class="st16" d="M89.4,63.4c0,0,0.8,1.3,1.4,2.7c0.6,1.4,1.1,2.8,1.1,2.8s0-0.4-0.2-0.9c-0.1-0.6-0.4-1.3-0.7-2
	c-0.3-0.7-0.7-1.4-1.1-1.8C89.7,63.7,89.4,63.4,89.4,63.4z"/>
<path class="st2" d="M48.1,82.8c0,0-0.5-7.9-1.2-8.6c-0.8-0.7-1.3,0.7-3.8-0.9c-2.6-1.5-8.5-8.3-8.1-8.6c0.4-0.3,0.8-0.5,0.8-0.5
	s-1.5-1.2-1.8-0.5s-5.7,3.7-5.7,3.7s6.1,11.2,9.8,15.8c3.7,4.6,5.2,4,5.2,3.5c0-0.6,2.8-8.1,3.6-8C47.4,78.8,48.1,82.8,48.1,82.8z"
	/>
<path class="st2" d="M20.3,79.9c0.6-1.2-1.5-7.3,0-8c0.8-0.4,4.8-2.2,8.3-3.8c1.3,2.4,6.3,11.2,9.4,15.2c3.7,4.6,5.2,4,5.2,3.5
	c0-0.6,2.8-8.1,3.6-8c0.7,0.1,1.4,4.1,1.4,4.1c1.1,6.3,2.7,18,2.3,29.4c-0.5,16.7-6.8,53.1-6.8,53.1s-7.6,0-15.9-3.9
	c-8.4-3.9-8-7.6-8-7.6s10.5-25.9,12-31.2c1.4-5.3-3.3-24-3.3-24s-7.5,18.2-7.6,19.9c0,1.7,4.2,9.7,3.9,10.8
	c-0.3,1.1-3.9,0.4-7.4,3.2c-3.4,2.7-5.2,6-5.2,6s-8.7-9.5-8.6-12.6C3.6,122.8,19.7,81,20.3,79.9z"/>
<path class="st2" d="M48.9,65.8L48.9,65.8L48.9,65.8c-0.2-0.4-0.3-0.8-0.4-1.2c1.4,1,3.7,2.5,4.7,2.6c1.5,0.2,3.8,0.5,4.4,1.2
	c0.6,0.7,6,12.6,5.7,12.8c-0.2,0.1-0.8,0-0.8,0s-3-6.9-3.7-7.5c-0.7-0.6-2.1,3.2-2.1,3.2s-3.6-7.3-5-8.8c-1-1-2.1-1.7-2.7-2.1
	C49,66,49,65.9,48.9,65.8z"/>
<path class="st12" d="M36.7,63.8c0.4,0.2,13.7,9.8,13.7,9.8s0.6-4.2,0.3-4.6c-0.2-0.3-1.3-2-1.6-2.6c0.6,0.4,1.7,1.1,2.7,2
	c1.4,1.4,5,8.5,5,8.6c0,0.5,0,1-0.1,1.6c-0.1,1.5-0.4,2.4-0.4,2.4s-5.2-6.8-5.7-6.7c-0.5,0.2-2.7,6.4-2.7,6.4s-8-5.8-10.2-7.7
	c-2.1-1.9-4.9-6.6-4.9-6.6S36.3,63.6,36.7,63.8z"/>
<path class="st17" d="M58.4,49.6c0,0-0.9,1.1-1.8,1.2c-0.9,0.1-2.1-0.5-4.2-0.6c-2.2,0-3.2,0.4-4.7-0.6s-1.9-1.9-1.9-1.9
	s1.4,1.1,3,1.1s2.9-0.9,5.3-0.5C56.4,48.8,56.2,50.8,58.4,49.6z"/>
<path class="st17" d="M47.6,49.6c1.6,1,2.5,0.6,4.7,0.6c2.2,0,3.4,0.6,4.2,0.6c0.2,0,0.5-0.1,0.7-0.2l0,0c0,0-1.8,2.5-3.8,2.8
	c-2,0.3-5.4-1.9-6.7-4.1c-0.1-0.1-0.1-0.2-0.1-0.2C47,49.2,47.3,49.4,47.6,49.6z"/>
<path class="st2" d="M51.3,31.1c-3.4,0.1-6.5-2.4-9.9-2.3c1.8-0.3,3.6-0.6,5.3-0.3C48.5,28.9,50.3,29.7,51.3,31.1z"/>
<path class="st2" d="M58.3,32c0.6-0.7,1.2-1.4,2-1.9c0.8-0.5,1.7-0.9,2.6-0.8c0.9,0,1.9,0.5,2.3,1.3c-0.6-0.4-1.3-0.6-2-0.4
	c-0.6,0.1-1.1,0.5-1.6,0.8C60.6,31.5,59.5,31.8,58.3,32z"/>
<path class="st2" d="M40.9,35.4c0.5-0.1,1-0.3,1.6-0.4c1.1-0.3,2.4-0.6,3.4,0c1.4,0.8,1.8,2.6,2.1,4c-0.1-0.2-0.1-0.3-0.2-0.5
	c-0.5-1-1.2-1.9-2.2-2.2c0,0.6-0.2,1.2-0.4,1.8c-0.3,0.7-0.8,1.3-1.5,1.5c-1.1,0.2-2-1-2.3-2.2c-0.1,0.1-0.3,0.1-0.4,0.2
	c-0.6,0.1-1.2-0.5-1.6-0.8c-0.4-0.3-0.8-0.9-0.9-1.3C39.2,35.9,40.1,35.7,40.9,35.4z"/>
<path class="st16" d="M48.1,36.8c0,0-0.1-0.4-0.4-1.1c-0.2-0.3-0.4-0.7-0.7-1c-0.3-0.3-0.7-0.6-1.2-0.7c-1-0.2-1.9,0-2.6,0.2
	c-0.7,0.2-1,0.5-1,0.5s0.4-0.2,1.1-0.4c0.7-0.2,1.6-0.3,2.5-0.1c0.9,0.2,1.5,1,1.8,1.6C47.9,36.4,48.1,36.8,48.1,36.8z"/>
<path class="st2" d="M57.7,38.6c0.3-0.7,1.4-2.6,2.7-3.1c1.3-0.5,2.6,0,3,1.3c0.1,0.3,0.2,0.7,0.5,1c0.2,0.3,0.6,0.4,0.9,0.2
	c-0.3,0.2-1.9,0.8-2.1,0.3c-0.1-0.5-0.4-0.9-0.8-1.2c-0.4-0.3-0.8-0.4-1.2-0.4c0.1,1-0.2,2.1-0.8,2.9c-0.2,0.3-0.4,0.6-0.7,0.7
	c-0.3,0.2-0.7,0.3-1,0.2c-0.3-0.1-0.5-0.3-0.7-0.6c-0.1-0.2-0.2-0.5-0.2-0.8C57.5,38.9,57.6,38.7,57.7,38.6z"/>
<path class="st16" d="M64,37c0,0,0-0.1-0.1-0.3c-0.1-0.2-0.1-0.5-0.3-0.8c-0.2-0.3-0.4-0.7-0.8-1c-0.4-0.3-1-0.3-1.5-0.3
	c-1,0.1-1.9,0.8-2.3,1.3c-0.5,0.5-0.8,0.9-0.8,0.9s0.3-0.4,0.9-0.8c0.5-0.5,1.3-1,2.3-1.2c0.5-0.1,0.9,0,1.3,0.2
	c0.4,0.2,0.6,0.6,0.8,0.9C63.9,36.6,64,37,64,37z"/>
<path class="st18" d="M66.1,31.6c0,0,0.7-7-2.5-12.3c-3.2-5.4-11.9-6.6-17.4-4.1C40.7,17.7,35.9,26,34.1,30.2c-1.8,4.2-1,6.1-1,6.1
	s-2.3-0.5-2.3-1.2c-0.1-0.7,0.5-0.5,0-1.6c-0.4-1.1-1.6-2.9-1.7-4.3c-0.1-1.4,3.7-10.9,9.7-15.7c6-4.8,13.1-3.7,16.5-3
	c1.2,0.2,7.9,2.6,10.4,7.2s3.3,7.9,2.4,8.6c-0.9,0.7-0.9,3.4-1,4.5C67,32,66.1,31.6,66.1,31.6z"/>
<path class="st1" d="M34.1,30.2c0.8-1.9,2.2-4.6,4-7.2c0.6,0.2,1.1,0.6,1.1,1.2c0,0.3-0.2,0.6-0.4,0.8c-0.9,1.4-1.8,2.8-2.8,4.2
	c0.3,0,0.6-0.1,0.9-0.1c-0.2,1.8-0.5,3.5-0.9,5.3c0.5,1.7,0.5,3.5,0.2,5.2c-0.9,0.2-1.6-0.7-2.1-1.4c-0.4-0.6-0.8-1.3-1.1-2
	C32.9,35.9,32.5,33.9,34.1,30.2z"/>
<path class="st1" d="M41.1,19.3c0.8,0.4,1.7,0.8,2.5,1.3c-1.6,0.7-3.3,1.3-5,1.8C39.3,21.3,40.2,20.2,41.1,19.3z"/>
<path class="st1" d="M41.1,19.2c1.6-1.7,3.3-3.2,5.1-4c5.5-2.6,14.2-1.3,17.4,4.1c3.2,5.4,2.5,12.3,2.5,12.3l0,0
	c-0.1,0.5-0.2,1-0.2,1.6c-0.1-1.9,0.3-8.6-1.4-10.6c-0.4,0.2-1.8,0.5-2.2,0.6c0.3-0.7,0.5-1.5,0.5-2.3c-1.2,0.7-2.5,1.1-3.9,1.1
	c0.4-0.9,0.8-1.9,1.1-2.8c-0.6,1.1-1.5,2-2.6,2.5c0-0.9,0-1.8,0-2.6c-0.4,1.3-0.9,2.6-1.5,3.8c-1.2-1.8-2.6-3.4-4.1-4.9
	c0.3,0.8,0.7,1.6,1,2.4c-2.2-0.8-4.4-1.4-6.7-1.9c0.7,0.6,1.4,1.3,2.2,1.9C45.8,20.3,43.4,19.9,41.1,19.2z"/>
<path class="st14" d="M57.6,300.7c1.2,0.5-0.8,3.7-0.6,5c0.2,1.3,1.1,7.5,1.1,7.5s-7.4,1.6-13.1,0.6c-5.7-1.1-8.5-2.5-8.3-2.8
	s0.5-0.5,0.5-0.5l-0.4-4.2c0,0-1.1-0.9-0.8-1.3c0.3-0.5,4,0.4,6.9,0C45.7,304.5,56.5,300.2,57.6,300.7z"/>
<path class="st19" d="M40.7,312.8c1.2,0.3,2.6,0.7,4.3,1c2.2,0.4,4.7,0.4,6.9,0.3c0.1,3.1,0.4,9.4,0.9,10.5c0.6,1.4,6.6,8,9.6,8.8
	c3.1,0.8,9-0.9,10.5-0.4c1.5,0.5,7.6,8.6,4.7,9.5c-2.9,1-25.7-1.1-25.7-1.1s-0.5-1.8-1.2-1.9c-0.7-0.1-1.4,1.8-1.4,1.8L39,341.1
	c0,0,0-0.4,0-2.1c0-1.7,1.9-9.8,2.3-12.2C41.7,324.9,41,316.2,40.7,312.8z"/>
<g>
	<path class="st20" d="M49.2,341.3L39,341.1c0,0,0-0.4,0-2.1c0-0.1,0-0.3,0-0.5c3.1,0.2,7.7,0.6,11.5,1
		C49.9,339.3,49.2,341.3,49.2,341.3z"/>
	<path class="st20" d="M50.7,339.4c5.5,0.5,21.8,1,27.6,1.2c0.2,0.9,0,1.6-0.7,1.9c-2.9,1-25.7-1.1-25.7-1.1S51.4,339.6,50.7,339.4z
		"/>
</g>
<path class="st21" d="M47.3,320.4c0.4-0.9,0.8-1.2,1.7-1.5c0.9-0.3,3.8-1.7,1.5-1.4c-0.8,0.1-1.7-0.3-2.4-0.6
	c-0.2-0.1-0.3-0.5-0.1-0.6c1.4-0.7,2.7-1.3,4.3-1.4c0.4,0,0.5,0.6,0.1,0.7c-0.9,0.2-1.7,0.4-2.6,0.6c-2.7,0.7,2.1,0.5,2.2,0.5
	c0.2,0,0.3,0.1,0.2,0.3c-0.4,0.7-0.9,1.5-1.6,1.9c0,0-3.5,1.6-1.1,2.2c1,0.3,2.2,0.5,3.2,0.7c0.2,0,0.4,0.4,0.2,0.6
	c-0.7,0.8-1.3,1.7-2,2.5c-1.5,1.9,1,1,2,0.8c0.5-0.1,1.7,0,2,0.6c0.4,1,0.2,1.7-0.1,2.7c-0.8,2.5,4,1,4.9,1.6
	c0.1,0.1,0.2,0.2,0.2,0.4c-0.1,1.5-1.9,3.8,1.4,1.7c0.3-0.2,1-0.5,1.5-0.4c2,0.7,0.1,2.8,3.2,0.5c0.2-0.2,0.5,0.1,0.3,0.3
	c-0.8,0.9-1.6,1.8-2.7,2.2c-0.1,0.1-0.3,0-0.4-0.1c-0.4-0.4-0.6-2.1-1.4-1.7c-0.9,0.5-2.1,1.3-3.2,0.7c-0.7-0.4,0-1.6,0.1-2
	c0.7-1.7-2-0.3-2.7-0.2c-0.5,0.1-0.9,0-1.4-0.1c-0.7-0.2-1.1-1.2-1-1.9c0.2-0.7,1.6-4-0.5-3.7c-0.6,0.1-1.5,0.7-2.2,0.7
	c-3.3-0.1-0.5-3.1,0.8-4.6C50.1,322.5,46.7,322,47.3,320.4z"/>
<path class="st22" d="M32.9,303.9l5.7,0.1c0,0,0.2,0.3,0.6,0.9c-1.7-0.1-3-0.3-3.2,0c-0.3,0.5,0.8,1.3,0.8,1.3l0.4,4.2
	c0,0-0.3,0.3-0.5,0.5c-0.1,0.2,1.3,1,4.1,1.8c-0.1,0-0.1,0-0.2,0c0,0.3,0.1,0.6,0.1,1c-2.8-0.5-6.4-1-7-0.8c-1,0.2,0.2-2.7,0.2-2.7
	l-1-4.8L32.9,303.9z"/>
<path class="st2" d="M40.7,313.7c0.4,3.9,1,11.3,0.7,13.1c-0.3,1.8-1.4,6.7-2,9.8l-7.2-0.3c0,0,0-0.4,0.1-2.1
	c0.1-1.7,2.1-9.7,2.6-12.1c0.3-1.3,0.1-5.5-0.1-9.2C36.1,313,38.6,313.4,40.7,313.7z"/>
<path class="st20" d="M32.2,335.3c0-0.3,0-0.6,0-1c0-0.1,0-0.2,0-0.3c0-0.1,0-0.2,0-0.2c0,0,0,0,0,0c2.1,0.2,4.8,0.5,7.5,0.8
	c-0.2,0.8-0.3,1.5-0.4,2.1l-6.9-0.3l-0.3,0C32.2,336.3,32.2,336.1,32.2,335.3z"/>
<path class="st2" d="M62.4,333.3c-1.5-0.4-3.7-2.2-5.6-4.1c3.2,0.4,8.1-0.9,9.4-0.4c0.7,0.2,2.3,2.1,3.6,4.2
	C67.4,333.4,64.3,333.9,62.4,333.3z"/>
<path class="st22" d="M35.7,296c0.9,2.4,1.9,5.3,2.9,8.1L35,304l-2.1-14.4C32.9,289.5,33.2,289.1,35.7,296z"/>
<path class="st23" d="M51.6,301.4c-0.1-3.8-0.3-9.2-0.5-15.7c-0.1-3.3-0.2-6.8-0.3-10.5c-0.1-3.7-0.1-7.7-0.2-11.7
	c0-4.1-0.1-8.3-0.1-12.6c0-2.1,0-4.3,0.1-6.5c0.1-1.1,0.5-2.1,0.7-3.2c0.3-1,0.5-2.1,0.7-3.2c0.4-2.1,0.5-4.3,0.4-6.4
	c-0.2-2.1-0.3-4.3-0.3-6.5c-0.1-4.3-0.1-8.5-0.1-12.6c0-4.1,0-8,0.1-11.7c0-3.7,0.1-7.3,0.2-10.5c0.1-3.3,0.2-6.2,0.2-8.9
	c0-1.3,0.1-2.6,0.1-3.7c0-0.6,0-1.1,0-1.6c0-0.3,0-0.5,0-0.8c0-0.2,0.1-0.5,0.2-0.7c0.7-1.8,1.4-3.1,1.9-4c0.5-0.9,0.7-1.4,0.7-1.4
	l0.1,0c0,0-0.2,0.5-0.7,1.4c-0.4,0.9-1.1,2.3-1.7,4c-0.2,0.4-0.1,0.9-0.1,1.4c0,0.5,0,1.1,0,1.6c0,1.1,0,2.4-0.1,3.7
	c0,2.6-0.1,5.6-0.1,8.9c0,3.3-0.1,6.8-0.2,10.5c-0.1,3.7-0.1,7.7-0.2,11.7c-0.1,4.1-0.1,8.3,0,12.6c0,2.1,0.1,4.3,0.4,6.4
	c0.2,2.2,0.1,4.4-0.3,6.5c-0.2,1.1-0.4,2.1-0.7,3.2c-0.2,1.1-0.6,2.1-0.7,3.1c-0.1,2.2,0,4.3,0,6.4c0.1,4.3,0.2,8.5,0.2,12.6
	c0.1,8.1,0.3,15.7,0.4,22.3c0.1,6.5,0.2,11.9,0.2,15.7c0,0.3,0,0.5,0,0.7c-0.1,0-0.1,0-0.2,0.1C51.7,301.9,51.7,301.7,51.6,301.4z"
	/>
<g>
	<path class="st20" d="M81,106.4c0,0-0.9,0.7-1.8,2.2c-0.5,0.7-1,1.6-1.2,2.7c-0.1,0.5-0.1,1.1,0,1.7c0.1,0.5,0.2,1.1,0.2,1.7
		c0.3,2.2,1.1,4.4,1.8,5.9c0.4,0.8,0.7,1.4,1,1.8c0.3,0.4,0.4,0.6,0.4,0.6l0,0c0,0-0.4-1-1.1-2.6c-0.3-0.8-0.7-1.7-1-2.7
		c-0.4-1-0.7-2-1-3.1c-0.3-1.1-0.6-2.2-0.3-3.2c0.1-0.5,0.4-0.9,0.6-1.3c0.2-0.4,0.5-0.8,0.7-1.2C80.5,107.4,81.1,106.4,81,106.4
		L81,106.4z"/>
	<path class="st20" d="M78.5,108.1c0.1,0.1,0.2-0.1,0.1-0.1c-0.1-0.1-0.2,0-0.2,0c-0.1,0.1-0.1,0.2-0.2,0.3
		c-0.1,0.2-0.2,0.4-0.4,0.6c-0.2,0.4-0.4,0.8-0.6,1.2c-0.2,0.4-0.3,0.8-0.4,1.3c-0.1,0.4-0.1,0.9-0.2,1.3c0,0.4,0,0.9,0,1.3
		c0,0.4,0,0.9,0.1,1.3c0.1,0.9,0.2,1.8,0.5,2.6l0.4-0.3c-0.4-0.3-0.8-0.7-1.1-1.1c-0.3-0.4-0.6-0.9-0.8-1.4c-0.2-0.5-0.4-1-0.5-1.6
		c-0.1-0.5-0.1-1.1-0.1-1.7l-0.1,0c-0.2,0.5-0.3,1.1-0.3,1.7c0,0.6,0.1,1.2,0.3,1.7c0.2,0.6,0.5,1.1,0.9,1.6
		c0.4,0.5,0.8,0.9,1.3,1.2l0.7,0.4l-0.3-0.7c-0.3-0.8-0.6-1.6-0.7-2.5c-0.1-0.9-0.1-1.7,0.1-2.6c0.2-0.8,0.4-1.7,0.6-2.5
		c0.1-0.4,0.3-0.8,0.4-1.2c0.1-0.2,0.2-0.4,0.3-0.6C78.4,108.1,78.6,107.9,78.5,108.1L78.5,108.1z"/>
	<path class="st20" d="M19.7,120.9c0.1,0.1,0.2,0,0.2-0.1c0-0.1-0.1-0.2-0.2-0.2c-0.2,0-0.3,0-0.4,0c-0.3,0-0.6,0-0.8,0
		c-0.6,0-1.1,0-1.7,0c-0.6,0-1.1,0.1-1.7,0.1c-0.6,0.1-1.1,0.3-1.6,0.5c-1,0.5-1.9,1.2-2.7,2c-0.8,0.8-1.3,1.9-1.4,3.1L9.3,127
		l0.5-0.3c0.5-0.3,0.9-0.5,1.4-0.8c0.5-0.3,0.9-0.5,1.4-0.8c0.9-0.6,1.8-1.2,2.7-1.8l0,0c-1,0.4-1.9,0.9-2.9,1.4
		c-0.5,0.2-0.9,0.5-1.4,0.8c-0.5,0.3-0.9,0.5-1.4,0.8l0.4,0.3c0.1-1,0.5-2,1.1-2.9c0.3-0.4,0.7-0.9,1.1-1.2c0.4-0.3,0.9-0.6,1.4-0.8
		c0.5-0.2,1.1-0.3,1.6-0.3c0.5-0.1,1.1-0.1,1.6-0.1c0.5,0,1.1-0.1,1.6-0.2c0.3,0,0.5-0.1,0.8-0.1c0.1,0,0.3-0.1,0.4-0.1
		c0.1,0,0.1,0,0.1,0C19.8,120.9,19.7,120.9,19.7,120.9L19.7,120.9z"/>
	<path class="st20" d="M20.4,122.3c0,0-0.5,0-1.2,0.2c-0.4,0.1-0.7,0.3-1.1,0.6c-0.4,0.3-0.8,0.5-1.2,0.7c-0.9,0.4-1.7,1-2.2,1.6
		c-0.5,0.6-0.7,1-0.7,1l0,0c0,0,0.4-0.3,1-0.7c0.6-0.4,1.3-1,2-1.7c0.4-0.3,0.8-0.6,1.2-0.7c0.4-0.1,0.8-0.3,1.1-0.4
		c0.3-0.2,0.6-0.3,0.8-0.4C20.3,122.4,20.4,122.3,20.4,122.3L20.4,122.3z"/>
	<path class="st20" d="M19.4,119.2c0,0-0.2-0.3-0.6-0.6c-0.2-0.2-0.5-0.2-0.8-0.3c-0.3,0-0.6-0.1-0.9-0.3c-0.6-0.3-1.3-0.4-1.8-0.3
		c-0.5,0.1-0.8,0.3-0.8,0.3l0,0.1c0,0,0.3,0.1,0.8,0.2c0.5,0.1,1.1,0.1,1.8,0.1c0.3,0,0.7,0.1,0.9,0.3c0.2,0.2,0.5,0.3,0.7,0.4
		c0.2,0.1,0.4,0.1,0.6,0.2C19.2,119.2,19.3,119.2,19.4,119.2L19.4,119.2z"/>
</g>
<path class="st9" d="M27.4,67.8c0,0,7.1,6.2,8.5,12.6c1.4,6.4-1.7,38.2-3.1,41c-1.4,2.8-4,9.7-4,9.7l-2.4-3c0,0,3.6-8.3,4-9.7
	s2.3-34.3,2.5-36c0.2-1.7-3.7-7.9-4.6-9.4c-0.9-1.5-4.6-3.2-3.9-3.5c0.7-0.3,1.4-0.2,1.9-0.4C26.7,68.9,27.4,67.8,27.4,67.8z"/>
<path class="st4" d="M12.7,137.5c0.8-1.2,2.3-3.3,4.6-5.1c2.2-1.7,4.5-2.1,5.9-2.4c3.2,5.7,11.9,21,12.9,23.4
	c0.7,1.6,2.2,6.4,3.5,10.9l0,0c0.9,2.9,1.5,5.2,1.6,5.6c0.3,1,1.9,8.5,1.3,8.7c-0.6,0.3-1.4-0.9-1.6-1.7c-0.3-0.8-1.8-6.8-1.8-6.8
	s0.3,9.5-0.4,10.2c-0.7,0.7-2.9-0.9-3.4-2.8c-0.5-1.8-0.8-7.6-0.8-7.6s-1.3,6.4-1.6,6.8c-0.3,0.4-2.1-1.3-1.6-2.6
	c0.5-1.2,1.3-5.4,1.3-6c0-0.2-2-9.2-2-9.9c-0.1-1.4,0.1-3.9,0.1-3.9L12.7,137.5z"/>
<path class="st15" d="M42.8,304.9c1.5-0.2,5.1-1.5,8.4-2.5c-2.5,2-5.3,3.6-8.3,4.7c1.1,0.7,2.3,1.2,3.6,1.4
	c-1.2,0.3-2.5,0.5-3.7,0.8c4.2,2.6,9.2,4.1,14.1,4.2c-2.3,0.4-7.6,1.1-11.9,0.3c-5.7-1.1-8.5-2.5-8.3-2.8c0.2-0.3,0.5-0.5,0.5-0.5
	l-0.4-4.2c0,0-1.1-0.9-0.8-1.3C36.2,304.4,40,305.3,42.8,304.9z"/>
<path class="st23" d="M42.7,304.9c2-0.3,8-2.7,11.4-3.7l0.4-14c0,0,4.4-36.9,5.4-40.7c1-3.9,3.5-7,2.7-10.6c-0.8-3.5,9.6-50,7.9-70
	c0.5-0.3,1.1-0.6,1.6-1.1c2.4,19.3-9.1,67.6-8.2,71.1c0.9,3.5-1.8,6.7-2.9,10.6c-1.1,3.9-5.7,40.7-5.7,40.7l-0.4,14
	C51.4,302.2,44.9,304.6,42.7,304.9c-0.4,0.1-0.9,0.1-1.4,0.1C41.8,305,42.3,304.9,42.7,304.9z"/>
<path class="st23" d="M18.1,171.5c-0.5-3.5,1.5-9.1,3.7-14c0.3,0.3,0.7,0.7,1.2,1c-1.9,4.6-3.5,9.8-3.1,13
	c0.9,7,12.3,58.6,12.9,66.2c0.6,7.6-5.2,25.8-4.8,31c0.5,5.2,5.4,20.8,5.4,20.8l2,14.4l-0.4,0l-2.1-14.4c0,0-5.4-15.6-5.9-20.8
	c-0.5-5.2,5.7-23.4,5-31C31.4,230.1,19.1,178.6,18.1,171.5z"/>
<path class="st8" d="M50.1,57.2c-0.6,2-1.3,4.9-1.7,6.4c-0.1,0.5,0,1,0.1,1.6c-3.7-1-7.2-2.7-10.2-5.1c0.6-2.5,1.5-6.7,2-9.3
	C42.4,53.1,46.7,55.6,50.1,57.2z"/>
<path class="st4" d="M38.4,47.2c0,0-1.9-8.6-4.1-10.1c-2.2-1.5-5.4,3.3-4.8,5.9C30.1,45.6,36.6,48.8,38.4,47.2z"/>
<path class="st24" d="M60.5,162.2c-0.6-0.2-4.7-10.9-4.7-10.9S49.7,161.5,49,162c-0.4,0.3-2.9,0.2-4.8,0l4.7-2.2l6.9-12l5.3,12.5
	l5.3,0.5C64,161.5,60.9,162.3,60.5,162.2z"/>
<path class="st25" d="M50.5,74.4c0,0,1.3,4.7,3.4,11.7c0.5,1.8,1,3.7,1.6,5.7c0.5,2,1.2,4.1,1.7,6.4c0.3,1.1,0.2,2.2,0,3.4
	c-0.2,1.2-0.4,2.3-0.7,3.5c-0.3,1.2-0.5,2.4-0.7,3.6c-0.2,1.2-0.2,2.4-0.3,3.7c-0.2,4.9-0.2,9.8-0.2,14.3c0,2.3,0,4.5,0,6.6
	c0,2.1,0,4.1,0.1,5.9c0.1,3.7,0.1,6.7,0.2,8.8c0.1,2.1,0.1,3.4,0.1,3.4l0.1,0c0,0,0-1.2,0.1-3.4c0-2.1,0-5.2,0.1-8.8
	c0-3.7,0-7.9,0-12.5c0-4.6-0.1-9.4,0-14.3c0-1.2,0-2.4,0.2-3.6c0.2-1.2,0.4-2.4,0.6-3.6c0.2-1.2,0.5-2.3,0.7-3.5
	c0.1-0.6,0.2-1.2,0.2-1.8c0-0.6,0-1.2-0.1-1.7c-0.4-2.3-1-4.4-1.5-6.4c-0.5-2-1.1-3.9-1.6-5.7c-1-3.5-2-6.4-2.7-8.4
	C51,75.5,50.6,74.3,50.5,74.4L50.5,74.4z"/>
<path class="st24" d="M34.4,69c4.4,5.5,13.4,10,13.4,10l2.5-5.5l5.6,5l0.5-2.2c0.2,0.4,0.3,0.6,0.3,0.6c0,0.5,0,1-0.1,1.6
	c-0.1,1.5-0.4,2.4-0.4,2.4s-5.2-6.8-5.7-6.7c-0.5,0.2-2.7,6.4-2.7,6.4s-8-5.8-10.2-7.7C36.6,72.1,35.3,70.4,34.4,69z"/>
<path class="st19" d="M41.3,90.7c1.4-0.1,2.7,0.3,3.9,1.1c1.4,3.4,2.5,6.8,3.4,10.3c-3.5-1.6-7.2-3.4-9.1-6.7c-0.7-1.3-1-3,0.1-4
	C40,90.9,40.6,90.8,41.3,90.7z"/>
<path class="st19" d="M11.9,111.5c1.7-4.9,3.5-9.8,5.2-14.7c2.5-6.9,4.9-13.9,5.6-21.2c2.1,2,3.4,4.9,3.3,7.8c0,1.8-0.6,3.6-1.2,5.4
	C22,97.1,17.6,104.9,11.9,111.5z"/>
<path class="st19" d="M67.6,95.5c-0.7-0.5-1.5-1.1-2-1.8c-0.5-0.7-0.8-1.7-0.5-2.5c2.2,1.7,4.1,3.7,5.8,5.9
	C69.7,97,68.6,96.3,67.6,95.5z"/>
<path class="st19" d="M68.9,79.6c0.1,1.7-0.2,3.5-0.7,5.2c-1.3-2.9-2.8-5.8-4.4-8.5c1.4,0.4,2.9,0.8,4.3,1.2
	c0.2,0.1,0.4,0.1,0.6,0.3c0.1,0.1,0.1,0.3,0.1,0.5C68.8,78.7,68.9,79.1,68.9,79.6z"/>
<path class="st8" d="M17.3,132.5c2.2-1.7,4.5-2.1,5.9-2.4c0.4,0.7,0.9,1.6,1.5,2.7c-1.3,1.8-2.2,3.8-1.9,6c0.3,1.9,1.5,3.5,2.8,5.1
	c2.4,3,4.7,6,7.1,9c0.5,7.9,0.3,15.9-0.5,23.9c-0.6-0.5-1.2-1.5-0.9-2.3c0.5-1.2,1.3-5.4,1.3-6c0-0.2-2-9.2-2-9.9
	c-0.1-1.4,0.1-3.9,0.1-3.9l-18.1-16.9C13.5,136.4,15,134.3,17.3,132.5z"/>
<path class="st21" d="M6,95.9c0.5,3.1,1.6,8.5,3.3,12.6c-0.5,1.4-1,2.9-1.5,4.2c-1.2-2.4-3.9-8.2-4.3-13.4C4.1,98.4,5,97.2,6,95.9z"
	/>
<path class="st5" d="M93.1,114c1.1-3.2,0.4-19,0.7-25.4c0.3-6.4,1.2-8.8,1.1-12.9c-0.2-4.1,0.5-8.7,1-10.7c0.5-2.1,1-7,0.5-7.6
	c-0.2-0.2-0.3-0.4-0.5-0.5c0.3-0.2,0.7-0.1,1,0.5c0.5,0.7,0,5.5-0.5,7.6c-0.5,2.1-1.2,6.6-1,10.7c0.2,4.1-0.8,6.5-1.1,12.9
	c-0.3,6.4,0.3,22.2-0.7,25.4c-0.9,2.6-3.4,3.1-5,3.1C90.2,117,92.3,116.3,93.1,114z"/>
<path class="st12" d="M87.5,96.4c-0.5-0.7-0.9-1.4-0.9-2.2c0-0.8,1.3-1.6,1.3-1.6s-0.2,0.6-0.1,1c1.8,1.1,3.8,1.7,5.9,1.7
	c0.3,0,0.6-0.2,0.6-0.2l0-1.3c0,0,1.6,0.5,1.8,1.1c0.2,0.6,0,1.3-0.3,1.9c-0.4,0.9-1,1.7-1.9,2.2c-1.1,0.6-2.5,0.5-3.6-0.1
	C89,98.4,88.2,97.4,87.5,96.4z"/>
<path class="st12" d="M93.3,100.5c-0.2,0.3-0.1,1.1-0.1,1.5c0,0.6,0.1,1.2,0.4,1.7c0.1,0.1,0.1,0.2,0.3,0.2c0.1,0,0.1,0,0.2-0.1
	c0.2-0.2,0.3-0.5,0.3-0.7c0.1-0.6,0-1.2-0.1-1.7C94.1,101.1,93.7,100.1,93.3,100.5z"/>
<path class="st12" d="M91.9,101.2c0-0.6-0.2-0.9-0.5-0.6c-0.2,0.2-0.3,0.6-0.3,0.9c-0.1,0.7,0,1.5,0.4,2.2c0.1,0,0.2-0.1,0.2-0.2
	C91.8,103.3,92,102,91.9,101.2z"/>
<path class="st12" d="M95,99.7c0.2,0.7,0.5,1.3,1,1.9c0.1,0.1,0.2,0.2,0.3,0.1c0.2,0,0.2-0.2,0.2-0.4c0-0.5-0.1-1-0.4-1.5
	C95.8,99.4,94.8,98.6,95,99.7z"/>
<path class="st7" d="M94.4,91.6c0.3,0.1,0.7,0.1,0.9-0.2c0.1-0.1,0.2-0.3,0.2-0.5c0-0.2,0-0.4-0.1-0.6c-0.2-0.3-0.6-0.5-0.9-0.3
	c-0.3,0.1-0.6,0.5-0.6,0.8C93.8,91.1,94,91.5,94.4,91.6z"/>
<path class="st7" d="M92.4,91.8c0.2,0,0.4,0.1,0.5,0c0.3-0.1,0.5-0.4,0.5-0.7c-0.1-1.3-2.1-1.3-1.6,0.2c0.1,0.2,0.2,0.3,0.3,0.4
	C92.1,91.7,92.3,91.8,92.4,91.8z"/>
<path class="st7" d="M89.7,90.8c0-0.3,0-0.5,0.1-0.8c0.2-0.3,0.7-0.4,1-0.2c0.3,0.2,0.5,0.6,0.5,1c0,0.2-0.1,0.3-0.2,0.5
	c-0.1,0.1-0.2,0.1-0.3,0.2c-0.1,0.1-0.2,0.1-0.3,0.1c-0.2,0-0.4-0.1-0.5-0.2C89.8,91.2,89.7,91,89.7,90.8z"/>
<path class="st7" d="M88.5,90.9C88.3,91,88,91,87.8,90.8c-0.1-0.1-0.1-0.2-0.1-0.2c-0.1-0.3-0.2-0.7,0-1c0.2-0.3,0.6-0.5,0.9-0.3
	c0.2,0.1,0.3,0.4,0.4,0.7C89,90.3,88.9,90.7,88.5,90.9z"/>
<path class="st26" d="M61.7,38.8c0.3,0,0.6,0,0.7-0.3c0.1-0.3-0.3-0.5-0.6-0.5c-0.7-0.2-1.4-0.3-2.1-0.2c-0.2,0-0.4,0.1-0.5,0.2
	c-0.1,0.1-0.1,0.4,0,0.5c0.1,0.1,0.2,0.1,0.4,0.1C60.3,38.7,61,38.8,61.7,38.8z"/>
<path class="st26" d="M46.1,38.3c0.3,0,0.6,0,0.7-0.3c0.1-0.3-0.3-0.5-0.6-0.5c-0.7-0.2-1.4-0.3-2.1-0.2c-0.2,0-0.4,0.1-0.5,0.2
	s-0.1,0.4,0,0.5c0.1,0.1,0.2,0.1,0.4,0.1C44.7,38.2,45.4,38.3,46.1,38.3z"/>
<path class="st8" d="M55,44.7c0.2,0.2,0.2,0.6-0.1,1.1c-0.3,0.4-0.8,0.6-1.3,0.6c-0.7-0.1-2.9-1.2-1.6-2c0.3-0.2,0.7-0.2,1.1-0.2
	C53.8,44.2,54.7,44.3,55,44.7z"/>
<path class="st17" d="M55.7,35.7c-0.7,3.2-1,6.4-0.7,9.7c-0.9-1.4-1.1-3.2-0.9-4.9C54.4,38.8,55,37.2,55.7,35.7z"/>
<path class="st7" d="M38.5,43.2c1.5,1.1,9,1.7,10.6,0c0.7-0.8,1.3-2.8,1.5-4.8c0.7-0.2,2.2-0.4,3-0.4c0.7,0,1.3,0.2,1.8,0.4
	c0.1,2.2,0.5,4.6,1.3,5.3c1.3,1.1,7.6,1.6,8.9,0c1.3-1.6,1.9-8.7,1.2-9.1c-2.8-2-10.4-0.8-10.9-0.1c-0.3,0.4-0.4,1.5-0.5,2.7
	c-1.5-1.1-3.7-0.4-4.7-0.1c0.1-1.5,0-2.8-0.3-3c-3.3-2-12.4-0.9-13-0.1c-0.3,0.4-0.5,1.5-0.5,2.7l-2.3,0.8c0.3,0.3,0.6,0.7,0.9,1.2
	l1.4-0.5C37.2,40.4,37.7,42.6,38.5,43.2z M56.7,35.2c0.4-0.6,6.9-1.6,9.2,0.1c0.5,0.4,0.1,6.3-1,7.7c-1.1,1.4-6.4,0.9-7.5,0
	C56.3,42.1,56,36.4,56.7,35.2z M38.5,34.7c0.5-0.6,8.2-1.6,11,0.1c0.6,0.4,0.1,6.3-1.2,7.7c-1.3,1.4-7.6,0.9-8.9,0
	S37.6,35.8,38.5,34.7z"/>
<path class="st8" d="M37.6,46.3c-0.6,0.2-1.2-0.1-1.6-0.6c-0.3-0.5-0.4-1.1-0.5-1.7c0-0.6,0-1.2-0.1-1.8c-0.3-1.1-1.1-1.9-1.8-2.7
	c-0.2-0.2-0.4-0.4-0.6-0.5c-0.5-0.2-1.1,0-1.5,0.4s-0.6,0.9-0.8,1.5c-0.3,0.8-0.6,1.6-0.4,2.4c0.2,0.8,0.8,1.3,1.5,1.8
	C33,45.8,36.1,46.3,37.6,46.3z"/>
<path class="st17" d="M32.1,42.5c0.3,0,0.5,0,0.8-0.1c0.8-0.1,1.5-0.6,1.8-0.8C34.4,41,34,40.5,33.6,40c-0.2-0.3-0.5-0.5-0.7-0.6
	c-0.2-0.1-0.6-0.1-0.8-0.1c-0.5,0.1-0.9,0.5-1.1,0.7c-0.2,0.2-0.3,0.4-0.3,0.4s0.1-0.2,0.3-0.5c0.2-0.3,0.5-0.7,1.1-0.9
	c0.3-0.1,0.7-0.1,1,0c0.4,0.1,0.7,0.4,0.9,0.6c0.5,0.5,1,1.2,1.4,1.9c0.4,0.7,0.7,1.5,0.7,2.3c0,0.4,0,0.7,0,1
	c0,0.3,0.1,0.5,0.3,0.7c0.4,0.4,0.9,0.5,1.2,0.6c0.3,0.1,0.5,0.1,0.5,0.1s-0.2,0-0.5,0c-0.3,0-0.9-0.1-1.4-0.5
	c-0.3-0.2-0.5-0.5-0.5-0.9c-0.1-0.4,0-0.7-0.1-1.1c-0.1-0.7-0.3-1.4-0.7-2c0,0,0-0.1-0.1-0.1c-0.1,0.1-0.2,0.3-0.3,0.5
	c-0.3,0.3-0.8,0.7-1.5,0.8c-0.3,0.1-0.6,0.1-0.9,0c-0.3,0-0.5-0.1-0.8-0.2c-0.4-0.2-0.6-0.4-0.6-0.4s0.3,0.1,0.7,0.1
	C31.6,42.5,31.9,42.5,32.1,42.5z"/>
<path class="st27" d="M29.2,29.7c0.1,0,0.3,0.1,0.4,0.1c0.5,0,0.9-0.4,1.3-0.8c1.8-1.9,3.2-4.1,4.3-6.5C34,25.2,33.3,28,33,30.8
	c2.1-6.6,7.1-11.9,11.6-17.3c0.5-0.6,1-1.2,0.9-1.9c0-0.4-0.3-0.8-0.6-1.1c1.3-0.3,2.5-0.5,3.7-0.6c0.9,0.6,1.6,1.6,1.8,2.6
	c3-0.9,6.4-1.6,9.2-0.1c4.2,2.2,4.8,7.9,7.8,11.5c0.3,0.3,0.6,0.6,0.9,0.9c0,0.7-0.1,1.2-0.4,1.4c-0.9,0.7-0.9,3.4-1,4.5
	c-0.1,1.1-1,0.8-1,0.8s0.7-7-2.5-12.3c-3.2-5.4-11.9-6.6-17.4-4.1C40.7,17.7,35.9,26,34.1,30.2c-1.8,4.2-1,6.1-1,6.1
	s-2.3-0.5-2.3-1.2c-0.1-0.7,0.5-0.5,0-1.6C30.4,32.6,29.5,31.1,29.2,29.7z"/>
<path class="st28" d="M30.8,33.6c-0.4-1.1-1.6-2.9-1.7-4.3c-0.1-1.4,3.7-10.9,9.7-15.7c6-4.8,13.1-3.7,16.5-3
	c1.2,0.2,7.9,2.6,10.4,7.2s3.3,7.9,2.4,8.6c-0.9,0.7-0.9,3.4-1,4.5c-0.1,1.1-1,0.8-1,0.8l0,0c0.2-0.1,0.3-0.3,0.4-0.8
	c0.1-1.1,0.1-3.8,1-4.5c0.9-0.7,0.2-4-2.3-8.6c-2.5-4.6-8.9-6.9-10.1-7.2C51.8,9.9,45,8.8,39.2,13.6c-5.8,4.8-9.5,14.3-9.4,15.7
	c0.1,1.4,1.3,3.2,1.7,4.3c0.4,1.1-0.1,0.9,0,1.6c0,0.5,1,0.8,1.6,1c0,0.1,0,0.1,0,0.1s-2.3-0.5-2.3-1.2
	C30.7,34.5,31.2,34.6,30.8,33.6z"/>
<path class="st18" d="M46.4,6.4c0.1-0.1,0.2-0.1,0.4-0.2c0.7-0.1,1.3,0.1,2,0.3c1.8,0.6,3.8,1.7,5.4,3c0-0.1,0-0.2,0.1-0.3
	C54.4,9.1,54.5,9,54.7,9c0.4-0.2,0.9-0.4,1.4-0.4c0.6,0,1.2,0.2,1.7,0.5c0.7-0.8,1.6-1.5,2.6-1.5c1.1,0.1,2,1.1,2.5,2
	c0.7,1.3,1.2,2.8,1.3,4.3c0,1.5-0.4,3-1.3,4.2c-0.2,0.2-0.3,0.4-0.6,0.5c-0.5,0.1-1-0.3-1.3-0.8c-0.8-1.1-1.6-2.2-2.4-3.3
	c-0.2,0.1-0.3,0.2-0.5,0.3c-0.5,0.2-1,0.4-1.5,0.4c-0.5,0-0.7-0.2-0.9-0.5c-0.3,0.1-0.6,0.2-0.9,0.2c-1.3,0.2-2.6,0.1-3.9-0.2
	c-0.8-0.2-1.5-0.5-2.1-1.1c-0.6-0.6-0.9-1.3-1.2-2.1c-0.3-0.8-0.6-1.6-0.9-2.5c-0.3-0.7-0.5-1.5-0.6-2.3C46.3,6.7,46.3,6.5,46.4,6.4
	z"/>
<path class="st27" d="M46.4,6.4c0.1-0.1,0.2-0.1,0.4-0.2c0.2,0,0.4,0,0.6,0c0.4,2.5,2.7,4.7,5,6c0.7,0.4,1.6,0.8,2.4,0.6
	c0.8-0.2,1.3-1.4,0.7-1.9c1.1,0.4,1.4,2.2,2.5,2.2c1,0,1.3-1.4,1.2-2.4c0.9,1.1,1.9,2.1,2.8,3.2c0.3,0.4,0.6,0.7,1.1,0.9
	c0.3,0.2,0.7,0.2,1,0.2c-0.1,1.1-0.5,2.2-1.2,3.1c-0.2,0.2-0.3,0.4-0.6,0.5c-0.5,0.1-1-0.3-1.3-0.8c-0.8-1.1-1.6-2.2-2.4-3.3
	c-0.2,0.1-0.3,0.2-0.5,0.3c-0.5,0.2-1,0.4-1.5,0.4c-0.5,0-0.7-0.2-0.9-0.5c-0.3,0.1-0.6,0.2-0.9,0.2c-1.3,0.2-2.6,0.1-3.9-0.2
	c-0.8-0.2-1.5-0.5-2.1-1.1c-0.6-0.6-0.9-1.3-1.2-2.1c-0.3-0.8-0.6-1.6-0.9-2.5c-0.3-0.7-0.5-1.5-0.6-2.3C46.3,6.7,46.3,6.5,46.4,6.4
	z"/>
<path class="st28" d="M46.8,6.3c0.7-0.1,1.3,0.1,2,0.3c1.8,0.6,3.8,1.7,5.4,3c0-0.1,0-0.2,0.1-0.3C54.4,9.1,54.5,9,54.7,9
	c0.4-0.2,0.9-0.4,1.4-0.4c0.6,0,1.2,0.2,1.7,0.5c0.7-0.8,1.6-1.5,2.6-1.5c1.1,0.1,2,1.1,2.5,2c0.3,0.6,0.6,1.2,0.8,1.9
	C63.3,11,63,10.5,62.5,10c-0.7-0.8-1.7-1.4-2.7-1.2c-1,0.2-1.8,1.6-1,2.3c-0.7,0.3-1.4-0.4-2-1c-0.5-0.6-1.5-1.1-2-0.5
	c0,0.4-0.1,0.8-0.3,1.1c-2.1-2.2-5.1-3.6-8.1-3.7c0,0,0-0.1,0-0.1c0-0.2,0-0.3,0.1-0.4C46.5,6.3,46.6,6.3,46.8,6.3z"/>
</svg>
