<?xml version="1.0" encoding="utf-8"?>
<!-- Generator: Adobe Illustrator 23.0.1, SVG Export Plug-In . SVG Version: 6.00 Build 0)  -->
<svg version="1.1" id="group_of_young_people" xmlns="http://www.w3.org/2000/svg" xmlns:xlink="http://www.w3.org/1999/xlink"
	 x="0px" y="0px" viewBox="0 0 1067.2 962.5" style="enable-background:new 0 0 1067.2 962.5;" xml:space="preserve">
<style type="text/css">
	.st0{fill:url(#SVGID_1_);}
	.st1{clip-path:url(#SVGID_3_);}
	.st2{fill:#AE371C;}
	.st3{fill:#B8523D;}
	.st4{fill:#872A16;}
	.st5{fill:#B3481D;}
	.st6{fill:#C26D4A;}
	.st7{fill:#993E19;}
	.st8{fill:#E6E6E6;}
	.st9{fill:#B9B8BF;}
	.st10{fill:#9F9DA3;}
	.st11{fill:#8B8A8F;}
	.st12{fill:#D5D4D9;}
	.st13{fill:#782C22;}
	.st14{fill:#F9B598;}
	.st15{fill:#BD634F;}
	.st16{fill:#FBD3C1;}
	.st17{fill:#DB7B60;}
	.st18{fill:#EB6A46;}
	.st19{fill:#221F51;}
	.st20{fill:#FFFFFF;}
	.st21{fill:#E8745D;}
	.st22{fill:#F07F60;}
	.st23{fill:#F6C5B0;}
	.st24{fill:#783013;}
</style>
<linearGradient id="SVGID_1_" gradientUnits="userSpaceOnUse" x1="838.9854" y1="776.9382" x2="1028.3805" y2="985.3786" gradientTransform="matrix(-3.0737 -1.152552e-02 1.152552e-02 3.1086 3378.7014 -2039.0419)">
	<stop  offset="0" style="stop-color:#8EEDCA"/>
	<stop  offset="1" style="stop-color:#92D7F5"/>
</linearGradient>
<path class="st0" d="M735.8,23.6c-101.6,29.5-183.2,102-268.4,163.1c-56.1,40.2-118.1,63.9-180.2,92.9
	c-158,73.8-315,190.5-283,370.8c26.7,150.3,191.5,302.3,371.7,297.3C438.2,946,490.4,923,536,890.3c27.4-19.7,53.4-50.2,91.4-55.1
	c40.1-5.2,84.3,18.5,120.8,32.8c54.4,21.4,111.6,43.7,170.5,45.6c135,4.4,163.8-90.8,141.8-208.1c-10.7-57-29.4-112.2-43.4-168.4
	c-19.9-79.7-9.7-151.6,2.3-231.6c10.6-71.2,14.4-149.7-25.1-210C949.5,27.1,858.5,1.6,778.6,14C763.9,16.3,749.7,19.6,735.8,23.6z"
	/>
<g>
	<defs>
		<path id="SVGID_2_" d="M735.8,23.6c-101.6,29.5-183.2,102-268.4,163.1c-56.1,40.2-118.1,63.9-180.2,92.9
			c-158,73.8-315,190.5-283,370.8c26.7,150.3,191.5,302.3,371.7,297.3C438.2,946,490.4,923,536,890.3c27.4-19.7,53.4-50.2,91.4-55.1
			c40.1-5.2,84.3,18.5,120.8,32.8c54.4,21.4,111.6,43.7,170.5,45.6c135,4.4,163.8-90.8,141.8-208.1c-10.7-57-29.4-112.2-43.4-168.4
			c-19.9-79.7-9.7-151.6,2.3-231.6c10.6-71.2,14.4-149.7-25.1-210C949.5,27.1,858.5,1.6,778.6,14C763.9,16.3,749.7,19.6,735.8,23.6z
			"/>
	</defs>
	<clipPath id="SVGID_3_">
		<use xlink:href="#SVGID_2_"  style="overflow:visible;"/>
	</clipPath>
	<g id="woman_with_a_bag_1_" class="st1">
		<g>
			<g>
				<path class="st2" d="M752.4,563.5c26.9-23.9,32.7-64.3,26.8-99.8c-5.9-35.5-21.5-68.6-30.8-103.3c-11.7-44-6.7-118.4-8.1-132.1
					c-1.4-13.3-181.6-0.2-181.6-0.2c-8.6,62.6-13.5,125.6-14.7,188.8c-0.9,47.4,2.4,100.1,36.2,133.2L752.4,563.5z"/>
			</g>
			<g>
				<path class="st3" d="M552.8,327.9c2.3-33.2,12-67.4,12.6-100.2c-4.3,0.3-6.7,0.5-6.7,0.5c-8.6,62.6-13.5,125.6-14.7,188.8
					c-0.9,47.4,2.4,100.1,36.2,133.2l6.1,0.5C552.2,480.7,547.2,404.5,552.8,327.9z"/>
			</g>
			<g>
				<path class="st4" d="M606,474.4c15.5-38.1,38.1-72,52.3-111.6c7.1,33.9,12.7,69.2,21.2,103.1c16-40.4,1.4-146.3,7.1-149.7
					c5.7-3.4,22,61.4,22.6,66.4c7.2-53.1,4.6-106.8-1.5-160c-30.2-0.8-75.4,1.2-108.1,3C582,307.5,581.6,394.2,606,474.4z"/>
			</g>
		</g>
		<g>
			<g>
				<g>
					<path class="st5" d="M416.8,608.5c12.4-46.7,27.1-62.5,63-83.6c14.4-8.6,37.8-18,57.1-24.5c55.3-16.6,105.1-25.9,164.3-30.8
						c2.1,74.7,3.8,152.3-0.2,227.4c-4.8,75.2-17.6,144.9-22.4,220.1c0,0.6,0,1.3-0.1,1.9c-68.2,10.4-140.5,6.3-205.6-12.1
						c-12.6-3.6-25.4-7.9-34.2-15.5c-8.7-7.6-12.4-17.6-15.5-27.3C397.2,780.7,405.9,693.9,416.8,608.5z"/>
				</g>
				<path class="st6" d="M498.9,541.5c-25.4,0.4-40.3,18-45.1,34.7c-5.3,18.3-5,37.8-6.6,56.4c-3.5,38.8-6.9,77.6-10.4,116.5
					c-0.2,2-4.4,2.2-4.3,0.1c3.8-43,7.6-86,11.5-129c1.6-18.3,0.8-38.5,10.1-55.8c7.4-13.8,23.7-25.7,44.6-26
					C501.5,538.2,501.6,541.4,498.9,541.5L498.9,541.5z"/>
				<g>
					<path class="st7" d="M505.7,879.9c40.6,5,79.5,1.3,120.2,2.5c17.7-20.3,44.2-37.3,61.8-58.3c-3.7,30.6-7.1,61.3-9.1,93
						c0,0.6,0,1.3-0.1,1.9c-68.2,10.4-140.5,6.3-205.6-12.1c-12.6-3.6-25.4-7.9-34.2-15.5c-8.7-7.6-12.4-17.6-15.5-27.3
						c-1.7-5.3-3.2-10.6-4.6-16C445,862.7,472,875.8,505.7,879.9z"/>
				</g>
				<g>
					<path class="st6" d="M396.2,874.6c-1.8-1-3.4-2.2-4.6-3.6c-3.1-3.7-3.2-8.5-3.1-13c0.7-39.7,3-79.4,6.9-118.9
						c30.9,10.2,63.8,10.1,97.1,13.5c3.6,44,4.3,95.2,2.9,139.3c-31.4,1-63-3.8-91.6-13.9C401.2,876.9,398.5,875.9,396.2,874.6z"/>
				</g>
			</g>
			<g>
				<path class="st8" d="M548.7,853.3c5-15.5,21.8-40.1,29.6-56.6c45.6-96.2,8.8-184.6,94-268c9.4-8.9,19.2-16.8,29.8-23.9
					c1.5,63.7,2.2,128.9-1.2,192.3c-2.8,43.6-8.2,85.3-13.3,127.3c-1.1,9.5-8.8,88.3-9.1,92.7c0,0-0.1,1.6-0.1,2
					c-6.4,1-12.8,1.8-19.3,2.6c-4.3,0.5-8.6,0.9-12.9,1.3c-6.5,0.6-13,1-19.5,1.3c-13,0.6-26.1,0.7-39.2,0.3
					C563.6,923.6,526.4,921.5,548.7,853.3z"/>
			</g>
		</g>
		<g>
			<g>
				<g>
					<path class="st9" d="M863,696.6c0.4-6.2-80.9-224.5-92.6-256.2c-1.5-3.9-3.5-8.2-6.1-11.5c-1.8-2.2-9.6-3.8-11.3-1.6
						c-17.8,23.4-46.6,85.7-44.3,115.8c2.6,33.7,62,171.2,66.9,172C801.5,719.5,862,721,863,696.6z"/>
				</g>
			</g>
			<g>
				<g>
					<path class="st10" d="M855.5,708.7c-8.3-59-84.3-236.2-96.2-282c2.1,0.5,4.1,1.3,4.9,2.3c2.6,3.2,4.6,7.5,6.1,11.5
						c11.8,31.7,93,250.1,92.6,256.2C862.8,701.7,860,705.6,855.5,708.7z"/>
				</g>
			</g>
			<g>
				<g>
					<path class="st11" d="M794.7,698.2c16.5-4.3,29.4-2.3,42.7,2c11.5,3.8,18.2,8.4,18.2,8.4s7.5-12.3,7.5-12
						c-2.6,55-87,20.1-87.9,18.9c-0.8-1.1-1.5-2.7-1.5-2.7S789.1,699.7,794.7,698.2z"/>
				</g>
			</g>
		</g>
		<g>
			<g>
				<g>
					<path class="st9" d="M400.4,716.6c0.1-6.5,97.6-228.6,111.7-261c1.7-4,4.1-8.3,6.9-11.5c1.9-2.1,9.9-3.2,11.4-0.7
						c16,26,40,93.8,35.4,125.2c-5.2,35.2-74.8,174.3-79.7,174.8C460,745.7,399.6,742.2,400.4,716.6z"/>
				</g>
			</g>
			<g>
				<g>
					<path class="st12" d="M406.9,729.8c12.8-61.2,101.9-240.7,117.2-287.7c-2.2,0.3-4.2,1.1-5.1,2c-2.9,3.2-5.2,7.5-6.9,11.5
						c-14.1,32.3-111.6,254.4-111.7,261C400.2,721.9,402.7,726.3,406.9,729.8z"/>
				</g>
				<g>
					<path class="st11" d="M479.5,743.8c2.4-0.1,4.6-0.3,6.7-0.4c4.9-0.5,74.5-139.6,79.7-174.8c1.4-9.3,0.2-21.9-2.5-35.6
						C556.1,557.7,509.1,706.4,479.5,743.8z"/>
				</g>
			</g>
			<g>
				<g>
					<path class="st13" d="M461.3,725.3c-11-3.8-52.9-10.9-59.9-6.6c-4.2,2.6,17,69,84.8,24.6c0.1-0.1,0.4-0.2,0.7-0.6
						C486.9,742.8,472.3,729.1,461.3,725.3z"/>
				</g>
			</g>
		</g>
		<g>
			<g>
				<g>
					<path class="st14" d="M576.3,431.4c0,20.3,58.4,91.3,78.5,91.3c20.1,0,92.4-78.8,88.1-98.7c-0.9-4.3-57.6-19-89-19
						C622.4,405,576.3,411,576.3,431.4z"/>
					<g>
						<g>
							<path class="st14" d="M653.2,450.1L653.2,450.1c18.6,0,33.7-15.2,33.7-33.7v-59c0-18.6-15.2-33.7-33.7-33.7l0,0
								c-18.6,0-33.7,15.2-33.7,33.7v59C619.4,434.9,634.6,450.1,653.2,450.1z"/>
						</g>
						<g>
							<path class="st15" d="M686.9,398.2c0-17.3,0-40.8,0-40.8c0-18.6-15.2-33.7-33.7-33.7c-18.6,0-33.7,15.2-33.7,33.7
								c0,0,0,11.3,0,26.9c0,0,16.9,16.7,30.6,19.3C670,407.5,686.9,398.2,686.9,398.2z"/>
						</g>
					</g>
				</g>
			</g>
			<g>
				<g>
					<path class="st14" d="M655.1,151.7c40,0,86.2,12.5,83.4,75.3c0,0-10.3,82-13.1,96c-2.8,14.1-34.3,68.3-65.4,68.3
						c-33.4,0-72.6-54.4-75.4-68.4c-2.8-14.1-13.9-93.7-13.9-93.7C567.9,166.4,615.1,151.6,655.1,151.7z"/>
					<path class="st16" d="M583,269.1c-2.1,0.1-4.5,0.2-6.8-0.2c3.2,22.2,6.9,46.8,8.3,54c2.8,14.1,42,68.4,75.4,68.4
						c0.1,0,0.2,0,0.3,0c-36.4-14.1-51.5-36.3-63-51.6C585.8,324.3,582.8,294,583,269.1z"/>
					<path class="st17" d="M655.1,151.7c-40,0-87.3,14.7-84.5,77.5c0,0,2,14.5,4.6,32.1c21.6,22.4,94.8-22.5,121.9-52.3
						c29.3,66.3,30.8,133.3-10.6,168.9c-3.9,3.4-13.6,10.5-13.6,10.5c26.4-11.4,50.1-53.3,52.5-65.4c2.8-14.1,13.1-96,13.1-96
						C741.3,164.2,695.1,151.7,655.1,151.7z"/>
					<g>
						<g>
							<path class="st18" d="M723.5,289c-0.9,5.2-1.6,9.7-1.6,13.3c0,3.5,0.9,6.2,3.7,6.9c2.7,0.7,6.3-1,9.5-4.8
								c1.6-1.9,3.1-4.3,4.2-7.1c1.1-2.8,2-5.9,2.4-9.2c0.8-6.6-0.4-12.3-2.4-15.9c-2-3.6-4.8-5.1-7.4-4.2c-2.7,0.9-4.3,3.7-5.5,7.4
								C725.2,279.1,724.4,283.8,723.5,289z"/>
							<path class="st16" d="M584.6,315.8c-2.9,1.2-7.1-0.2-11.2-4c-2-1.9-4-4.4-5.6-7.3c-1.6-2.9-3-6.2-3.9-9.8
								c-1.8-7.1-1.3-13.6,0.5-17.8c1.7-4.3,4.5-6.3,7.6-5.6c3.1,0.6,5.2,3.5,7.1,7.4C580.9,282.6,587.5,314.6,584.6,315.8z"/>
						</g>
					</g>
					<g>
						<g>
							<path class="st19" d="M622.7,307.1c-5.9,0.6-6.6-1.6-6.6-1.6c-0.7-2.1-1.2-7.2-1.3-9.8c-0.3-8.4,2.9-12.8,7-13.2
								c4.1-0.4,7.6,3.5,7.9,11.8c0.1,2.6,0,7.8-0.5,10C629.2,304.3,628.6,306.5,622.7,307.1z"/>
							<path class="st20" d="M620.2,291.9c0.7-0.3,1-1.1,0.8-1.8c-0.2-0.7-0.9-1.1-1.6-0.8c-0.7,0.3-1,1.1-0.8,1.8
								C618.8,291.8,619.5,292.1,620.2,291.9z"/>
						</g>
						<g>
							<path class="st19" d="M694,303.7c5.9-0.6,6.5-2.8,6.5-2.8c0.5-2.2,0.6-7.3,0.5-10c-0.3-8.4-3.8-12.2-7.9-11.8
								c-4.1,0.4-7.3,4.9-7,13.2c0.1,2.6,0.6,7.7,1.3,9.8C687.4,302.2,688.1,304.3,694,303.7z"/>
							<path class="st20" d="M690.1,288.6c-0.7-0.2-1.1-0.9-0.9-1.6c0.2-0.7,0.9-1.2,1.5-1.1c0.7,0.2,1.1,0.9,0.9,1.6
								C691.4,288.3,690.8,288.8,690.1,288.6z"/>
						</g>
					</g>
					<g>
						<path class="st21" d="M661.7,295.3c0,0,11.3,22.5,10.1,26.8c-2,7.3-13.9,5.6-13.9,5.6l5.9-9.7L661.7,295.3z"/>
						<g>
							
								<image style="overflow:visible;" width="136" height="194" xlink:href="8EDE830A.png"  transform="matrix(0.24 0 0 0.24 627.0974 265.2858)">
							</image>
						</g>
					</g>
					<path class="st2" d="M674.7,270l-1.9-9.7c0,0,20.9-2.9,39.6,5.4l-2.2,4.3C710.2,270,693.2,265.8,674.7,270z"/>
					<path class="st20" d="M689.1,334.1c0,0-17.7,4.6-28.2,4.6c-10.4,0-28.3-2.8-28.3-2.8c-1.8,0.1,8.3,21,27.9,20.6
						C680.1,356,690.3,334,689.1,334.1z"/>
					<path class="st2" d="M642.1,269.2l-0.6-10.1c0,0-22.9,0.9-41.1,13.8l1.2,4.6C624.7,267.6,625.6,268.9,642.1,269.2z"/>
				</g>
				<g>
					<g>
						<g>
							<path class="st2" d="M737.5,179.5c6.2,11.5,8.7,25.3,9,38.6c0.3,11.5-0.7,22.9-1.3,34.4c-26.8-12.5-47.5-29.6-63.8-54.3
								c-8.8,23-29.3,39.6-50.2,53.3c-21.8,14.4-46.6,23.3-71.6,31.2c-2-19-3.5-38.2-2.1-57.2c1.7-23.5,8-47.1,21.7-66.2
								c13.7-19.1,35.6-33.2,59.1-33.9c21.6-0.6,43.8,11.5,52.9,30.8c13.3-3.4,28.9,2,38.5,12.4
								C732.8,171.9,735.4,175.6,737.5,179.5z"/>
						</g>
						<g>
							<path class="st4" d="M677.2,169.9c2.1,44.5-40.1,69.4-70.1,94.8c8.3-3.9,16.3-8.3,24-13.3c20.9-13.7,41.4-30.2,50.2-53.3
								c16.3,24.6,37.1,41.7,63.8,54.3c0.1-1.4,0.2-2.8,0.2-4.2C713.8,233.1,688.3,203,677.2,169.9z"/>
						</g>
						<g>
							<path class="st3" d="M645.7,125.6c-2.5-0.3-5-0.4-7.5-0.3c-23.5,0.7-45.4,14.7-59.1,33.9c-13.7,19.1-20,42.8-21.7,66.2
								c-1.4,19.1,0.1,38.2,2.1,57.2c0,0,5.4-48.4,9.5-72.1C576.7,171,604.1,130.6,645.7,125.6z"/>
						</g>
						<g>
							<path class="st4" d="M744.5,199.7c-0.2-1.1-0.5-2.2-0.7-3.3c-17,1.6-34.2-1.4-50.2-5.1C710.1,197.2,727.3,200.9,744.5,199.7z
								"/>
						</g>
						<g>
							<path class="st4" d="M712.2,206.9c10.5,6,22.2,9.3,34.4,11.5c0-0.1,0-0.2,0-0.3c-0.1-2.1-0.2-4.2-0.3-6.4
								C734.6,213,723.2,210.7,712.2,206.9z"/>
						</g>
						<g>
							<path class="st3" d="M641,140.8c-18.8,12.8-45.6,61.1-45.6,61.1c21.1-29.1,40.9-58.6,73.2-69c-5.2-2.9-11-5-16.8-6.3
								c-18.4,6.6-35.4,17-48.8,30.9C613.8,148.8,626.9,142.2,641,140.8z"/>
						</g>
						<g>
							<path class="st4" d="M737.5,179.5c-2.1-3.9-4.7-7.6-7.8-10.9c-9.6-10.4-25.2-15.8-38.5-12.4c-4-8.4-10.4-15.5-18.2-20.7
								c9.8,10.2,11.4,27.5,11.5,41.3c0.5-4.5,4.2-5.4,7.2-6.3c16.4-5.1,32.5,0.3,46.2,9.5C737.7,179.8,737.6,179.7,737.5,179.5z"/>
						</g>
					</g>
					<path class="st2" d="M697.8,206.1c0,0,47.8,76.8,26.9,156.9c0,0,19.7-40.9,20.6-74.4c0.7-28.4,0.8-50.7,0.8-50.7L697.8,206.1z"
						/>
					<path class="st2" d="M617.2,222.8c0,0-58.9,64.6-65.3,145.1c0,0-3.7-42.8,5.1-74.9c7.5-27.3,13.7-48.7,13.7-48.7L617.2,222.8z"
						/>
				</g>
				<path class="st4" d="M673.4,155.6c-9.3,43.3-29.3,75.4-71.6,92.6C645.7,226.8,662.6,191.9,673.4,155.6z"/>
				<path class="st4" d="M578.2,231.4c22.8-3.6,44.5-15.8,59.8-34.2C625.8,217.1,602.4,230.8,578.2,231.4z"/>
			</g>
		</g>
		<g>
			<g>
				<path class="st9" d="M654.9,928.5c-50.7,0-146.2-12.6-156.8-14.1c9.1-38.9,24.6-79.6,38.3-115.5c12.4-32.5,24.1-63.2,29-87.2
					c6.4-31.3-10.5-74.4-24.2-109.1c-8.7-22.2-16.3-41.5-16.3-53.2c0-10.1-0.3-21.5-0.7-33.5c-0.7-24.1-1.5-51.3,0.4-73.5
					c12.1-7.5,73.1-32,73.1-32c3.4,8.6,49.3,83.7,70.9,83.7c21.8,0,51-72.2,53.2-80.6l36.6,13.6c1.5,15.7,7.8,35.9,14.6,57.3
					c7.7,24.5,15.7,49.9,18.3,73.5c-6.8,22.9-29.4,54.7-36.1,63.9l-0.1,0.2l0,0.2c-0.1,0.5-9.2,46.9-4.2,83.1
					c2.6,18.7,13.3,53.5,25.7,93.7c11.5,37.2,24.5,79.3,32.9,115.4C802.1,916,768.8,932.1,654.9,928.5z"/>
			</g>
			<g>
				<g>
					<g>
						<path class="st10" d="M592.6,656.2c26.9-7.1,55.7-3.1,77.1-7.7c-24.4-6.9-96.7-13.2-110.4-35.4
							c-19.8-32.1-29.3-51.6-30.8-57.7c-5.3-24.4-0.8-46.9-0.8-71.8c0-6.4-2-13.4-5-18.7c-0.5,28.6,1.4,60.5,1.4,84.5
							c0,30.7,50.9,111.6,40.5,162.1S514.3,840.8,497,915.2c0,0,7.1,1,18.5,2.4C535.6,878.5,574.4,661,592.6,656.2z"/>
					</g>
					<g>
						<path class="st10" d="M773.4,498.2c8.4,22.9,15.3,48.9,8.4,71.8c-6.1,18.3-21.4,34.4-35.1,48.1c-16,16.8-41.2,21.4-63.4,29.8
							c19.8-3.1,39.7-8.4,59.5-9.9c0.8,14.5-7.6,71.8-3.8,85.5c6.1,21.4,60.6,190.1,62.3,193.6c5.7-1.1,9.2-1.8,9.2-1.8
							c-17.3-74.4-53.8-173.5-58.8-209.9c-5-36.4,4.2-82.8,4.2-82.8c12.2-16.7,30.4-44.5,36.3-64.3c-2.9-26.1-12.5-54.9-20.6-80.8
							C771.4,484.3,771,491.4,773.4,498.2z"/>
					</g>
				</g>
			</g>
		</g>
		<g>
			<path class="st14" d="M819.2,696c-6.3-0.6-12.7-0.8-19,0.5c-1.9,0.4-3.8,1-5.5,1.7c-2.1,4.3-4,8.5-5.6,12.6
				c-9,23-31.7,244.2-31.7,244.2l27.2,4.8c0,0,60.2-184.9,69.6-215.8c1.9-6.4,1.8-20.3,0.9-35.2C845.2,700.1,832,697.3,819.2,696z"
				/>
			<path class="st14" d="M758.6,943l-12.9,18.6c0,0,42.2,21.6,48.8,6.3l-9.4-21.8L758.6,943z"/>
			<path class="st22" d="M852.9,707.2c0.3,15.8-1.7,31.9-5.6,44c-20,58.2-50.7,163.6-50.7,163.6c-1.2,6.5-5.9,14.7-4.1,20.6
				c16.7-51.3,54.4-167.4,61.6-191.3c1.9-6.4,1.8-20.3,0.9-35.2C854.3,708.3,853.6,707.7,852.9,707.2z"/>
			<path class="st16" d="M792.1,717c-1.7,2.1-3.8,3.7-6,5.4c-7.8,39.3-20.5,154-26,206.3C761.2,928.4,792.1,717,792.1,717z"/>
		</g>
		<g>
			<g>
				<g>
					<path class="st23" d="M537.9,549c-4.8-13.1-12.7-21.5-17.2-32.5c-1.5-3.7,12.9-35.9,25.5-47.8c2.6-2.5,19,5.9,19,5.9L537.9,549
						z"/>
					<g>
						<g>
							<path class="st24" d="M577.8,641.8c3.3-33,4.8-139.2,1-223.6c-8,1.3-24.3,8.6-34.2,13.3c8.2,75.6,7.9,122.9,5.7,197.5
								c-1.2,39.6,1.4,69-10.2,109l-6.5,61C564,762.4,572.3,696.5,577.8,641.8z"/>
						</g>
						<path class="st8" d="M585.1,578.1l-39.8-0.2l-0.2,43.6l39.8,0.2L585.1,578.1z M549.9,616.6l0.2-33.8l30,0.2l-0.2,33.8
							L549.9,616.6z"/>
					</g>
					<g>
						<g>
							<path class="st23" d="M560,568.4c5.5-1.3,31.7-18.9,44.7-31.3c3.7-3.5,7.4-7.3,8.8-12.2c1.4-4.9-0.3-11-5-12.9l-50.1,37
								C558.3,549,554.5,569.7,560,568.4z"/>
							<path class="st23" d="M559.9,553.5c5.5-1.3,29-21,41.9-33.4c3.7-3.5,7.4-7.3,8.8-12.2s-0.3-11-5-12.9l-50.1,37
								C555.5,531.9,554.4,554.8,559.9,553.5z"/>
							<path class="st23" d="M557.2,542.3c5.4-1.6,27.8-22.7,40-35.8c3.4-3.7,6.9-7.7,8.1-12.7c1.1-4.9-3.3-13.6-8.1-15.3
								l-45.5,42.5C551.6,521.1,551.8,544,557.2,542.3z"/>
							<path class="st23" d="M590.7,466.6c-1.1-1.2-2.8-2-5.7-2.5c-3.7-0.6-15.1,16.4-23.1,25.8c-4.2,4.9-8.3,10-10.3,16.1
								c-1.8,5.4-1.6,11.8,1.4,16.5c14.7-7.5,27.8-18.2,37.9-31.3c2.7-3.5,5.3-7.3,5.5-11.7C596.7,474.6,594,470.3,590.7,466.6z"/>
							<path class="st22" d="M596.5,479.4l-11,16.6l-17.5,14.8l1.9,1.2c0,0,14.8-13.6,17.1-15.9
								C589.3,493.7,596.5,479.4,596.5,479.4z"/>
							<path class="st22" d="M605.4,494.5c0,0-8,13.1-11,16.6c-3,3.5-12.5,9.8-12.5,9.8l0.3,1.2c0,0,11.3-8.6,13.7-10.9
								C598.3,508.8,605.4,494.5,605.4,494.5z"/>
							<path class="st22" d="M608.8,512c0,0-6.9,12.7-10.1,15.3c-3.3,2.5-11.5,9-11.5,9l0.3,1.1c0,0,10.4-7.9,12.6-10.1
								C602.2,525.1,608.8,512,608.8,512z"/>
						</g>
						<path class="st23" d="M538.5,514c0,0-3.5,26.3-14.2,40.2c-6,7.7,10.4,19,22.7,18.6c12.3-0.4,41.2-20.4,46.9-27.2
							c5.7-6.8-5.3-25.6-13.1-34.5C573,502.3,549.8,483.7,538.5,514z"/>
					</g>
				</g>
			</g>
			<g>
				<path class="st23" d="M406.2,713c-3.9,8.5-6.8,17.5-8.4,26.8c-1.7,10.2-1.9,20.8,0.4,30.8c2,8.7,4.9,17.3,9.4,25
					c2.6,4.5,6.4,9.4,11.2,11.8c19.8-16.8,53.7-47.6,60.3-60.6c11.9-23.4,63-128.7,93.5-191.8c-2.3-3.1-5-5.8-8.2-8.1
					c-8.7-6.3-19.5-8.9-30.3-9.6C493.6,590.9,429.9,676.4,406.2,713z"/>
				<path class="st22" d="M560.7,572.2c-17.8,34.5-58.2,113.3-81.4,163.4c-11.9,24.3-39.8,55.9-64.2,69.2c1.2,1,2.5,1.9,3.8,2.6
					c19.8-16.8,53.7-47.6,60.3-60.6c10.9-21.5,54.9-112.1,85.7-175.7C563.4,571.6,562.1,571.9,560.7,572.2z"/>
				<path class="st16" d="M525.6,552.3c0-1.2-0.1-2.4-0.1-3.6c-40.4,53.7-97.3,130.2-119.3,164.3c-0.5,1.1-1,2.3-1.5,3.4
					c0.4,2.7,0.7,5.5,0.5,8.2C405.2,724.7,484.2,612.1,525.6,552.3z"/>
			</g>
		</g>
	</g>
</g>
</svg>
