<?xml version="1.0" encoding="utf-8"?>
<!-- Generator: Adobe Illustrator 23.0.1, SVG Export Plug-In . SVG Version: 6.00 Build 0)  -->
<svg version="1.1" id="group_of_young_people" xmlns="http://www.w3.org/2000/svg" xmlns:xlink="http://www.w3.org/1999/xlink"
	 x="0px" y="0px" viewBox="0 0 949.7 971.2" style="enable-background:new 0 0 949.7 971.2;" xml:space="preserve">
<style type="text/css">
	.st0{fill:#FFFFFF;}
	.st1{clip-path:url(#SVGID_2_);}
	.st2{fill:#AA7241;}
	.st3{fill:#915027;}
	.st4{fill:#6D3C1D;}
	.st5{fill:#342A33;}
	.st6{fill:#594858;}
	.st7{fill:#261F26;}
	.st8{fill:#221F51;}
	.st9{fill:#A64A1C;}
	.st10{fill:#272026;}
	.st11{fill:#52444D;}
	.st12{fill:#F3E26A;}
	.st13{fill:#DECE61;}
	.st14{fill:#F8EEA6;}
</style>
<circle class="st0" cx="474.8" cy="474.8" r="474.8"/>
<g>
	<defs>
		<circle id="SVGID_1_" cx="474.8" cy="474.8" r="474.8"/>
	</defs>
	<clipPath id="SVGID_2_">
		<use xlink:href="#SVGID_1_"  style="overflow:visible;"/>
	</clipPath>
	<g class="st1">
		<g>
			<g id="man_keep_hands_in_bag_1_">
				<g id="american_man_1_">
					<g>
						<g>
							<g>
								<path class="st2" d="M270.8,499.4c-13.7-8.3-11.6-28.8,3.5-34.1c49.6-17.6,88.6-37,136.6-58.3c9.6-4.3,27-68.2,28.7-82.1
									l83.4-0.5c1.9,13.8,20.1,77.6,29.7,81.7c47.6,20.5,86.3,39.2,135.3,56c15.5,5.3,17.5,26.3,3.3,34.4L471.9,627.7L270.8,499.4
									z"/>
							</g>
							<g>
								<path class="st3" d="M480.5,390.8c-23.6,0.1-37.8-7.1-54.1-16c6.5-19.6,12.2-42.3,13.1-49.9l83.4-0.5
									c0.9,6.2,5,22.7,10.3,39.2C520.3,380.1,504.1,390.7,480.5,390.8z"/>
							</g>
						</g>
						<g>
							<g>
								<g>
									<ellipse class="st3" cx="545.2" cy="243.5" rx="26.4" ry="26.4"/>
									<g>
										<path class="st4" d="M545.7,263.1c0.1,0,0.1,0,0.2,0c4.5-0.7,8.6-2.8,11.7-6c4.8-5,6.8-12.5,5-19.2
											c-0.2-0.7-0.9-1.2-1.7-1c-0.7,0.2-1.2,0.9-1,1.7c1.5,5.8-0.2,12.3-4.3,16.7c-2.6,2.7-6.2,4.6-10.1,5.2
											c-0.7,0.1-1.3,0.8-1.1,1.6C544.5,262.7,545.1,263.2,545.7,263.1z"/>
									</g>
								</g>
								<g>
									<ellipse class="st2" cx="391.2" cy="245.8" rx="26.4" ry="26.4"/>
									<g>
										<path class="st3" d="M385.4,266.3c0.6,0,1.1-0.4,1.3-0.9c0.3-0.7-0.1-1.5-0.8-1.7c-5.3-1.9-9.4-6.6-10.6-12
											c-1.2-5.5,0.7-11.5,4.7-15.3c0.5-0.5,0.6-1.4,0-1.9c-0.5-0.5-1.4-0.6-1.9,0c-4.7,4.5-6.9,11.5-5.5,17.8
											c1.4,6.4,6.2,11.9,12.3,14C385.1,266.3,385.3,266.3,385.4,266.3z"/>
									</g>
								</g>
							</g>
							<path class="st2" d="M386.8,279.3c0,0,29,96.4,83.9,95.6c55-1.2,80.2-98.8,80.2-98.8c-7.7-40.7,5.3-81.8-2.4-122.6
								c-0.4,0.2-43.7-36.7-81.9-36.3c-38.2,1-81.5,39.6-81.9,39.4C378.6,197.7,392.9,238.3,386.8,279.3z"/>
							<path class="st3" d="M548.6,153.6c-0.4,0.2-43.7-36.7-81.9-36.3c-38.2,1-81.5,39.6-81.9,39.4c-0.9,5.9-1.3,11.8-1.5,17.7
								c39.5,9.2,87.3,1,127.9,1.7c10.5,20.2,24.7,46.3,24.7,67.3c0,39.8-10.8,78-32.4,118.1c32.4-27,47.5-85.5,47.5-85.5
								C543.3,235.4,556.3,194.3,548.6,153.6z"/>
							<path class="st5" d="M470,375.8c-22.6,0-44.3-16.7-62.8-48.2c-13.9-23.7-21.2-47.8-21.3-48l-0.1-0.2v-0.2
								c1.4-9.1,1.8-19,1.4-30.3l1.7-0.2c0.1,0.4,8.3,44.4,14.6,61.4c11.8-9.9,26.4-14.7,44.6-14.7c17,0,34.7,4.1,51.9,8
								c9.3,2.1,18.1,4.1,26.5,5.5c12.3-11.6,17.6-35.1,21.4-49.3l1.7,0.2c0.4,5.8,1.1,11.2,2.1,16.3v0.2v0.2
								c-0.1,0.2-6.5,24.8-19.6,49.1c-17.4,32.4-38.7,49.8-61.5,50.3C470.5,375.8,470.2,375.8,470,375.8z"/>
							<path class="st6" d="M463.4,375.3c-30.2-15-41.6-26.7-57.4-49.8c0.4,0.7,0.8,1.4,1.2,2C423.9,356.1,443.2,372.4,463.4,375.3z
								"/>
							<path class="st7" d="M551.8,276c-1-5.2-1.6-10.5-2.1-16.3l-1.7-0.2c-3.8,14.2-9.1,37.7-21.4,49.3c-8.4-1.3-17.2-3.3-26.5-5.5
								c-13.9-3.2-28.2-6.5-42.2-7.6c20.4,9.2,42.4,14,63.7,20.1c1.8,20.2-11.4,36.8-25.4,48.2c-3.9,3.3-7.9,6.4-12,9.4
								c17.7-5.8,34-22.1,47.9-47.9c13.1-24.4,19.5-48.9,19.6-49.1v-0.2L551.8,276z"/>
							<g>
								<g>
									<g>
										<path class="st8" d="M503.9,269.2c6.2,0.2,6.8-2.1,6.8-2.1c0.5-2.2,0.7-7.6,0.7-10.3c-0.2-8.7-3.9-13.2-8.2-13.3
											c-4.3-0.1-7.7,4.1-7.5,12.9c0.1,2.8,0.6,8.1,1.3,10.4C497,266.7,497.7,269.1,503.9,269.2z"/>
										<path class="st0" d="M505.5,253.2c-0.7-0.2-1.1-1.1-1-1.8c0.2-0.8,0.9-1.2,1.6-0.9c0.7,0.2,1.1,1.1,1,1.8
											C506.9,253,506.2,253.4,505.5,253.2z"/>
									</g>
									<g>
										<path class="st8" d="M427.1,270.8c-6.2-0.2-6.9-2.5-6.9-2.5c-0.7-2.3-1.2-7.6-1.3-10.4c-0.2-8.7,3.1-13,7.5-12.9
											c4.3,0.1,8,4.6,8.2,13.3c0.1,2.8-0.1,8.1-0.7,10.3C433.9,268.7,433.3,271,427.1,270.8z"/>
										<path class="st0" d="M430.1,254.8c0.7-0.2,1.1-1,0.9-1.8s-1-1.2-1.7-1s-1.1,1-0.9,1.8C428.7,254.5,429.4,255,430.1,254.8z
											"/>
									</g>
								</g>
								<g>
									<path class="st9" d="M458.2,240.4c0,0-11.9,41.4-10.2,46.4c3,8.6,17,5.5,17,5.5l-7.8-11L458.2,240.4z"/>
									<g>
									</g>
								</g>
								<path class="st5" d="M522.9,237.8c-11.9-7.6-25.1-9.7-38.3-6.1c-2.2,0.6-2.5-1.4-0.8-4.6l0,0c1.7-3.2,4.5-6.2,6.1-6.5
									c10.6-1.9,20.9-2,30,5c1.4,1.1,3.4,7.1,4.5,9.8l0,0C525.6,238,524.9,239.1,522.9,237.8z"/>
								<path class="st5" d="M405.2,237.8c11.9-7.6,25.1-9.7,38.3-6.1c2.2,0.6,2.5-1.4,0.8-4.6l0,0c-1.7-3.2-4.5-6.2-6.1-6.5
									c-10.6-1.9-20.9-2-30,5c-1.4,1.1-3.4,7.1-4.5,9.8l0,0C402.6,238,403.3,239.1,405.2,237.8z"/>
							</g>
							<g>
								<path class="st0" d="M428.7,307.1c0,0,15.2,5.1,33.1,5c10.8-0.1,30.9-4.2,30.9-4.2s-6.8,13.8-10.3,16.1
									c-11.4,7.5-31.4,7.8-47.3-4.3C432.3,317.6,428.7,307.1,428.7,307.1z"/>
							</g>
						</g>
						<g>
							<path class="st5" d="M544.5,227.4c0.2,0.7,0.3,1.4,0.5,2c-0.1-1-0.1-1.9-0.2-2.9C544.7,226.8,544.6,227.1,544.5,227.4z"/>
						</g>
						<g>
							<g>
								<path class="st5" d="M369.1,146.4c0.8-2.7,2.3-5.1,3.8-7.3c3.4-5.1,7.2-9.9,11.2-14.5c-0.5-5.6-1.1-11.1-1.6-16.7
									c-0.2-1.6-0.3-3.4,0.4-4.8c0.8-1.5,2.4-2.4,3.9-3.1c38.7-18.4,81.5-26.8,123.5-32.2c1.8-0.2,3.7-0.4,5.4,0.4
									c1.5,0.7,2.5,2.2,3.5,3.6c8.6,12.8,17.3,28.4,25.9,41.2c11.7,4.2,22.5,13.2,23.7,26c0.4,4.6-0.5,9.2-1.3,13.6
									c-5.2,26.9-13.8,72.2-19,99.1c-4.1-28.1-18.9-69.7-23.4-95.4c-38.1-0.9-113.1,2.2-114.6,3.3c-1.2,1-15.4,54-24.2,82
									c-7.4-27.3-13.1-55.1-17.1-83.2c-0.5-3.8-1.1-7.7-0.1-11.4C369,146.8,369.1,146.6,369.1,146.4z"/>
							</g>
							<g>
								<path class="st10" d="M409.4,148c0.6,4.8-0.6,10.1-0.3,15.1c0.7-2,1.1-3.3,1.3-3.4c1.5-1.2,76.6-4.3,114.6-3.3
									c3.5,20.2,13.4,50.2,19.5,75.8c0.1-0.3,0.2-0.6,0.3-0.9c-1.8-27.4-5.2-54.9-7.4-82.3C494.5,148,456.8,149.6,409.4,148z"/>
							</g>
							<g>
								<path class="st11" d="M393.4,97c-2.2,1-4.4,2-6.6,3c-1.5,0.7-3.1,1.5-3.9,3.1c-0.7,1.4-0.6,3.2-0.4,4.8
									c0.5,5.6,1.1,11.1,1.6,16.7c-4.1,4.5-7.8,9.4-11.2,14.5c-1.5,2.3-3,4.7-3.8,7.3c-0.1,0.2-0.1,0.4-0.2,0.6
									c-0.9,3.7-0.4,7.6,0.1,11.4c4.1,28.1,9.8,55.9,17.1,83.2c0.2-0.7,0.5-1.4,0.7-2.2c-3.5-29.5-6.4-58.9-6.4-88.7
									c0-8.4,14-14,14-19.6C395.1,121.8,389.5,107.3,393.4,97z"/>
							</g>
							<g>
								<path class="st11" d="M457.5,76.7c-7.9,1.7-15.7,3.7-23.4,5.9c29.4,7.2,57.1,19.5,80.6,40.2
									C502.3,98.9,480.5,85.8,457.5,76.7z"/>
							</g>
							<g>
								<path class="st11" d="M417.9,87.5c-4.2,1.4-8.3,2.9-12.5,4.5c18.1,4.9,35.4,12.6,51.3,24.2
									C445.5,104.3,433.2,92.3,417.9,87.5z"/>
							</g>
							<g>
								<path class="st10" d="M568.7,139c-1.2-12.8-12-21.8-23.7-26c-8.6-12.8-17.3-28.4-25.9-41.2c-1-1.4-2-2.9-3.5-3.6
									c-1.6-0.8-3.6-0.6-5.4-0.4c-0.2,0-0.3,0-0.5,0.1c14.4,15.8,19.7,41,31.1,59.6c1.8,3.7,14.9,9.3,16.7,14.9
									c5.5,31.5-3,60.2-12.8,88.9c0.1,1,0.1,2,0.2,3.1c1.4,6.2,2.6,12.1,3.4,17.5c5.2-26.9,13.8-72.2,19-99.1
									C568.3,148.2,569.1,143.6,568.7,139z"/>
							</g>
						</g>
					</g>
					<g>
						<path class="st12" d="M654.5,594.4c13.5,86.9,10.8,132,10.8,220c0,40,101.7,54.3,101.7-21.1c0-80.5-6-169.1-23.4-258.6
							c-3-15.6-6.3-31.8-15.9-44.5c-9.6-12.7-27.4-20.6-41.8-13.9L654.5,594.4z"/>
					</g>
					<g>
						<path class="st12" d="M320.8,594.4c-17.8,71.1-36.2,130-36.2,217.9c0,40-114.8,44.3-100.5-29.7
							c17.3-89.4,13.6-160.4,30.9-249.9c3-15.6,6.3-31.8,15.9-44.5c9.6-12.7,27.4-20.6,41.8-13.9L320.8,594.4z"/>
					</g>
					<g>
						<g>
							<g>
								<g>
									<path class="st12" d="M479.4,1052.6c-72.4,0-128.1-13.9-137.2-16.3c0.4-15.3,1.2-154.9,1.2-169.7c0-15.7-37-250-38.7-260
										v-0.3l-0.1-0.3c-0.2-0.3-16-30.2-31-60.9c-27.6-56.5-27.8-65.5-27.2-66.9c5.5-5.2,86.8-41.9,142.3-66.3
										c-0.9,8.1,4.3,16.1,10.4,20.2c27.7,18.4,57.2,28.1,85.4,28.1c28.4,0,55.9-9.9,79.5-28.6c8.5-6.7,10.8-14.5,10.2-20.3
										c9.5,3.9,39.7,16.4,69.4,29.9c21,9.5,37.8,17.7,49.8,24.3c20.7,11.3,21.8,15,21.8,15.6c0,10.9-37,90.1-51.2,119.8l-0.1,0.2
										v0.2c-1.9,10-44.8,244.7-44.7,275.3c0,8.9,0.5,143.8,0.9,159c-9.2,2.5-65.7,16.9-138.9,17.1L479.4,1052.6z"/>
								</g>
							</g>
						</g>
						<g>
							<g>
								<path class="st13" d="M279.2,560.7c11.4,4.4,32.6,36.8,34.3,48.8c8.8,87.3,38.4,391.2,57.8,402.1
									c19.4,11,212.9,15.2,223.7-8.6c2.2-4.9,13.5-78.6,25.3-158.2c0.9-6.1-66.3,43.8-65.3,37.6c0.8-5.3,69.6-66.8,70.4-72.1
									c12.3-84.5,23.8-165.6,24.2-169.4c2.8-25.8,12.6-49,28.9-67.2c-7.5,16.2-13.2,27.9-13.2,27.9s-41.9,244.1-41.8,274.9
									c0,9.5,3.3,160.3,3.3,160.3s-65.1,17.3-145.9,17.5s-146.6-16.8-146.6-16.8s4.5-152.7,4.5-168.4S303,606.7,303,606.7
									S291.8,585.9,279.2,560.7z"/>
							</g>
						</g>
					</g>
					<g>
						<path class="st12" d="M669.8,782.4c0,0-47.7,178.8-87.9,272c0,33.3,34.2,55,68.2,55c0,0,86.9-201.4,115.6-296.4
							C779,768.7,684.1,745.2,669.8,782.4z"/>
					</g>
					<g>
						<path class="st12" d="M280,780.4c36.3,94.5,52.8,182.4,93,275.6c0,33.3-45.2,49.1-74.8,56.2c-49.9-92-85.4-206.3-114.1-301.3
							C170.8,766.7,265.7,743.2,280,780.4z"/>
					</g>
					<g>
						<path class="st14" d="M189.7,802.6c-3-34.3,29.3-229,37.2-285.6c4-15.4,8.6-29.8,10.1-35.4c-2.3,2-4.5,4.2-6.3,6.7
							c-9.6,12.7-12.8,28.9-15.9,44.5c-17.3,89.4-13.6,160.4-30.9,249.9c-1.2,6.1-1.5,11.6-1,16.7c-0.4,3.7-0.1,7.5,1.1,11.6
							c28.7,95,64.2,209.3,114.1,301.3c1.8-0.4,3.7-0.9,5.6-1.4C299.8,1100.1,196.2,876,189.7,802.6z"/>
					</g>
				</g>
			</g>
		</g>
	</g>
</g>
</svg>
