<?xml version="1.0" encoding="utf-8"?>
<!-- Generator: Adobe Illustrator 23.0.1, SVG Export Plug-In . SVG Version: 6.00 Build 0)  -->
<svg version="1.1" id="group_of_young_people" xmlns="http://www.w3.org/2000/svg" xmlns:xlink="http://www.w3.org/1999/xlink"
	 x="0px" y="0px" viewBox="0 0 1152.7 1067" style="enable-background:new 0 0 1152.7 1067;" xml:space="preserve">
<style type="text/css">
	.st0{fill:url(#SVGID_1_);}
	.st1{clip-path:url(#SVGID_3_);}
	.st2{fill:#AA7241;}
	.st3{fill:#915027;}
	.st4{fill:#6D3C1D;}
	.st5{fill:#342A33;}
	.st6{fill:#594858;}
	.st7{fill:#261F26;}
	.st8{fill:#221F51;}
	.st9{fill:#FFFFFF;}
	.st10{fill:#A64A1C;}
	.st11{fill:#272026;}
	.st12{fill:#52444D;}
	.st13{fill:#F3E26A;}
	.st14{fill:#DECE61;}
	.st15{fill:#F8EEA6;}
</style>
<linearGradient id="SVGID_1_" gradientUnits="userSpaceOnUse" x1="-5509.231" y1="775.055" x2="-5301.2617" y2="546.1724" gradientTransform="matrix(3.0737 -1.152552e-02 1.152552e-02 -3.1086 17197.4492 2756.5767)">
	<stop  offset="0" style="stop-color:#AEEBC9"/>
	<stop  offset="1" style="stop-color:#A7D5F2"/>
</linearGradient>
<path class="st0" d="M311.7,14.4C225.4,0.5,127.1,29,78.7,105.3C36,172.6,40.1,260.2,51.6,339.6c13,89.3,24,169.5,2.5,258.4
	C39,660.8,18.8,722.4,7.2,786c-23.8,130.9,7.3,237.1,153.2,232.2c63.6-2.1,125.4-27,184.2-50.9c39.4-16,87.2-42.4,130.5-36.6
	c41,5.5,69.1,39.5,98.7,61.5c49.3,36.5,105.6,62.2,172.9,64.1c194.6,5.6,372.7-164,401.5-331.7c34.6-201.2-135-331.4-305.7-413.8
	c-67.1-32.4-134.1-58.8-194.6-103.7c-92-68.2-180.2-149.1-289.9-182C342.9,20.6,327.6,16.9,311.7,14.4z"/>
<g>
	<defs>
		<path id="SVGID_2_" d="M311.7,14.4C225.4,0.5,127.1,29,78.7,105.3C36,172.6,40.1,260.2,51.6,339.6c13,89.3,24,169.5,2.5,258.4
			C39,660.8,18.8,722.4,7.2,786c-23.8,130.9,7.3,237.1,153.2,232.2c63.6-2.1,125.4-27,184.2-50.9c39.4-16,87.2-42.4,130.5-36.6
			c41,5.5,69.1,39.5,98.7,61.5c49.3,36.5,105.6,62.2,172.9,64.1c194.6,5.6,372.7-164,401.5-331.7c34.6-201.2-135-331.4-305.7-413.8
			c-67.1-32.4-134.1-58.8-194.6-103.7c-92-68.2-180.2-149.1-289.9-182C342.9,20.6,327.6,16.9,311.7,14.4z"/>
	</defs>
	<clipPath id="SVGID_3_">
		<use xlink:href="#SVGID_2_"  style="overflow:visible;"/>
	</clipPath>
	<g id="man_keep_hands_in_bag_1_" class="st1">
		<g id="american_man_1_">
			<g>
				<g>
					<g>
						<path class="st2" d="M230.5,538.4c-13.7-8.3-11.6-28.8,3.5-34.1c49.6-17.6,88.6-37,136.6-58.3c9.6-4.3,27-68.2,28.7-82.1
							l83.4-0.5c1.9,13.8,20.1,77.6,29.7,81.7c47.6,20.5,86.3,39.2,135.3,56c15.5,5.3,17.5,26.3,3.3,34.4L431.6,666.7L230.5,538.4z"
							/>
					</g>
					<g>
						<path class="st3" d="M440.2,429.8c-23.6,0.1-37.8-7.1-54.1-16c6.5-19.6,12.2-42.3,13.1-49.9l83.4-0.5
							c0.9,6.2,5,22.7,10.3,39.2C480,419.1,463.8,429.7,440.2,429.8z"/>
					</g>
				</g>
				<g>
					<g>
						<g>
							
								<ellipse transform="matrix(0.7071 -0.7071 0.7071 0.7071 -51.8618 439.7617)" class="st3" cx="504.9" cy="282.5" rx="26.4" ry="26.4"/>
							<g>
								<path class="st4" d="M505.4,302.1c0.1,0,0.1,0,0.2,0c4.5-0.7,8.6-2.8,11.7-6c4.8-5,6.8-12.5,5-19.2c-0.2-0.7-0.9-1.2-1.7-1
									c-0.7,0.2-1.2,0.9-1,1.7c1.5,5.8-0.2,12.3-4.3,16.7c-2.6,2.7-6.2,4.6-10.1,5.2c-0.7,0.1-1.3,0.8-1.1,1.6
									C504.2,301.7,504.8,302.2,505.4,302.1z"/>
							</g>
						</g>
						<g>
							
								<ellipse transform="matrix(0.6934 -0.7206 0.7206 0.6934 -97.6386 340.1939)" class="st2" cx="350.9" cy="284.8" rx="26.4" ry="26.4"/>
							<g>
								<path class="st3" d="M345.1,305.3c0.6,0,1.1-0.4,1.3-0.9c0.3-0.7-0.1-1.5-0.8-1.7c-5.3-1.9-9.4-6.6-10.6-12
									c-1.2-5.5,0.7-11.5,4.7-15.3c0.5-0.5,0.6-1.4,0-1.9c-0.5-0.5-1.4-0.6-1.9,0c-4.7,4.5-6.9,11.5-5.5,17.8
									c1.4,6.4,6.2,11.9,12.3,14C344.8,305.3,345,305.3,345.1,305.3z"/>
							</g>
						</g>
					</g>
					<path class="st2" d="M346.5,318.3c0,0,29,96.4,83.9,95.6c55-1.2,80.2-98.8,80.2-98.8c-7.7-40.7,5.3-81.8-2.4-122.6
						c-0.4,0.2-43.7-36.7-81.9-36.3c-38.2,1-81.5,39.6-81.9,39.4C338.3,236.7,352.6,277.3,346.5,318.3z"/>
					<path class="st3" d="M508.3,192.6c-0.4,0.2-43.7-36.7-81.9-36.3c-38.2,1-81.5,39.6-81.9,39.4c-0.9,5.9-1.3,11.8-1.5,17.7
						c39.5,9.2,87.3,1,127.9,1.7c10.5,20.2,24.7,46.3,24.7,67.3c0,39.8-10.8,78-32.4,118.1c32.4-27,47.5-85.5,47.5-85.5
						C503,274.4,516,233.3,508.3,192.6z"/>
					<path class="st5" d="M429.7,414.8c-22.6,0-44.3-16.7-62.8-48.2c-13.9-23.7-21.2-47.8-21.3-48l-0.1-0.2l0-0.2
						c1.4-9.1,1.8-19,1.4-30.3l1.7-0.2c0.1,0.4,8.3,44.4,14.6,61.4c11.8-9.9,26.4-14.7,44.6-14.7c17,0,34.7,4.1,51.9,8
						c9.3,2.1,18.1,4.1,26.5,5.5c12.3-11.6,17.6-35.1,21.4-49.3l1.7,0.2c0.4,5.8,1.1,11.2,2.1,16.3l0,0.2l0,0.2
						c-0.1,0.2-6.5,24.8-19.6,49.1c-17.4,32.4-38.7,49.8-61.5,50.3C430.2,414.8,429.9,414.8,429.7,414.8z"/>
					<path class="st6" d="M423.1,414.3c-30.2-15-41.6-26.7-57.4-49.8c0.4,0.7,0.8,1.4,1.2,2C383.6,395.1,402.9,411.4,423.1,414.3z"
						/>
					<path class="st7" d="M511.5,315c-1-5.2-1.6-10.5-2.1-16.3l-1.7-0.2c-3.8,14.2-9.1,37.7-21.4,49.3c-8.4-1.3-17.2-3.3-26.5-5.5
						c-13.9-3.2-28.2-6.5-42.2-7.6c20.4,9.2,42.4,14,63.7,20.1c1.8,20.2-11.4,36.8-25.4,48.2c-3.9,3.3-7.9,6.4-12,9.4
						c17.7-5.8,34-22.1,47.9-47.9c13.1-24.4,19.5-48.9,19.6-49.1l0-0.2L511.5,315z"/>
					<g>
						<g>
							<g>
								<path class="st8" d="M463.6,308.2c6.2,0.2,6.8-2.1,6.8-2.1c0.5-2.2,0.7-7.6,0.7-10.3c-0.2-8.7-3.9-13.2-8.2-13.3
									c-4.3-0.1-7.7,4.1-7.5,12.9c0.1,2.8,0.6,8.1,1.3,10.4C456.7,305.7,457.4,308.1,463.6,308.2z"/>
								<path class="st9" d="M465.2,292.2c-0.7-0.2-1.1-1.1-1-1.8c0.2-0.8,0.9-1.2,1.6-0.9c0.7,0.2,1.1,1.1,1,1.8
									C466.6,292,465.9,292.4,465.2,292.2z"/>
							</g>
							<g>
								<path class="st8" d="M386.8,309.8c-6.2-0.2-6.9-2.5-6.9-2.5c-0.7-2.3-1.2-7.6-1.3-10.4c-0.2-8.7,3.1-13,7.5-12.9
									c4.3,0.1,8,4.6,8.2,13.3c0.1,2.8-0.1,8.1-0.7,10.3C393.6,307.7,393,310,386.8,309.8z"/>
								<path class="st9" d="M389.8,293.8c0.7-0.2,1.1-1,0.9-1.8c-0.2-0.8-1-1.2-1.7-1c-0.7,0.2-1.1,1-0.9,1.8
									C388.4,293.5,389.1,294,389.8,293.8z"/>
							</g>
						</g>
						<g>
							<path class="st10" d="M417.9,279.4c0,0-11.9,41.4-10.2,46.4c3,8.6,17,5.5,17,5.5l-7.8-11L417.9,279.4z"/>
							<g>
								
									<image style="overflow:visible;" width="150" height="196" xlink:href="49D7CC0.png"  transform="matrix(0.24 0 0 0.24 418.5782 260.0091)">
								</image>
							</g>
						</g>
						<path class="st5" d="M482.6,276.8c-11.9-7.6-25.1-9.7-38.3-6.1c-2.2,0.6-2.5-1.4-0.8-4.6l0,0c1.7-3.2,4.5-6.2,6.1-6.5
							c10.6-1.9,20.9-2,30,5c1.4,1.1,3.4,7.1,4.5,9.8l0,0C485.3,277,484.6,278.1,482.6,276.8z"/>
						<path class="st5" d="M364.9,276.8c11.9-7.6,25.1-9.7,38.3-6.1c2.2,0.6,2.5-1.4,0.8-4.6l0,0c-1.7-3.2-4.5-6.2-6.1-6.5
							c-10.6-1.9-20.9-2-30,5c-1.4,1.1-3.4,7.1-4.5,9.8l0,0C362.3,277,363,278.1,364.9,276.8z"/>
					</g>
					<g>
						<path class="st9" d="M388.4,346.1c0,0,15.2,5.1,33.1,5c10.8-0.1,30.9-4.2,30.9-4.2s-6.8,13.8-10.3,16.1
							c-11.4,7.5-31.4,7.8-47.3-4.3C392,356.6,388.4,346.1,388.4,346.1z"/>
					</g>
				</g>
				<g>
					<path class="st5" d="M504.2,266.4c0.2,0.7,0.3,1.4,0.5,2c-0.1-1-0.1-1.9-0.2-2.9C504.4,265.8,504.3,266.1,504.2,266.4z"/>
				</g>
				<g>
					<g>
						<path class="st5" d="M328.8,185.4c0.8-2.7,2.3-5.1,3.8-7.3c3.4-5.1,7.2-9.9,11.2-14.5c-0.5-5.6-1.1-11.1-1.6-16.7
							c-0.2-1.6-0.3-3.4,0.4-4.8c0.8-1.5,2.4-2.4,3.9-3.1c38.7-18.4,81.5-26.8,123.5-32.2c1.8-0.2,3.7-0.4,5.4,0.4
							c1.5,0.7,2.5,2.2,3.5,3.6c8.6,12.8,17.3,28.4,25.9,41.2c11.7,4.2,22.5,13.2,23.7,26c0.4,4.6-0.5,9.2-1.3,13.6
							c-5.2,26.9-13.8,72.2-19,99.1c-4.1-28.1-18.9-69.7-23.4-95.4c-38.1-0.9-113.1,2.2-114.6,3.3c-1.2,1-15.4,54-24.2,82
							c-7.4-27.3-13.1-55.1-17.1-83.2c-0.5-3.8-1.1-7.7-0.1-11.4C328.7,185.8,328.8,185.6,328.8,185.4z"/>
					</g>
					<g>
						<path class="st11" d="M369.1,187c0.6,4.8-0.6,10.1-0.3,15.1c0.7-2,1.1-3.3,1.3-3.4c1.5-1.2,76.6-4.3,114.6-3.3
							c3.5,20.2,13.4,50.2,19.5,75.8c0.1-0.3,0.2-0.6,0.3-0.9c-1.8-27.4-5.2-54.9-7.4-82.3C454.2,187,416.5,188.6,369.1,187z"/>
					</g>
					<g>
						<path class="st12" d="M353.1,136c-2.2,1-4.4,2-6.6,3c-1.5,0.7-3.1,1.5-3.9,3.1c-0.7,1.4-0.6,3.2-0.4,4.8
							c0.5,5.6,1.1,11.1,1.6,16.7c-4.1,4.5-7.8,9.4-11.2,14.5c-1.5,2.3-3,4.7-3.8,7.3c-0.1,0.2-0.1,0.4-0.2,0.6
							c-0.9,3.7-0.4,7.6,0.1,11.4c4.1,28.1,9.8,55.9,17.1,83.2c0.2-0.7,0.5-1.4,0.7-2.2c-3.5-29.5-6.4-58.9-6.4-88.7
							c0-8.4,14-14,14-19.6C354.8,160.8,349.2,146.3,353.1,136z"/>
					</g>
					<g>
						<path class="st12" d="M417.2,115.7c-7.9,1.7-15.7,3.7-23.4,5.9c29.4,7.2,57.1,19.5,80.6,40.2
							C462,137.9,440.2,124.8,417.2,115.7z"/>
					</g>
					<g>
						<path class="st12" d="M377.6,126.5c-4.2,1.4-8.3,2.9-12.5,4.5c18.1,4.9,35.4,12.6,51.3,24.2
							C405.2,143.3,392.9,131.3,377.6,126.5z"/>
					</g>
					<g>
						<path class="st11" d="M528.4,178c-1.2-12.8-12-21.8-23.7-26c-8.6-12.8-17.3-28.4-25.9-41.2c-1-1.4-2-2.9-3.5-3.6
							c-1.6-0.8-3.6-0.6-5.4-0.4c-0.2,0-0.3,0-0.5,0.1c14.4,15.8,19.7,41,31.1,59.6c1.8,3.7,14.9,9.3,16.7,14.9
							c5.5,31.5-3,60.2-12.8,88.9c0.1,1,0.1,2,0.2,3.1c1.4,6.2,2.6,12.1,3.4,17.5c5.2-26.9,13.8-72.2,19-99.1
							C528,187.2,528.8,182.6,528.4,178z"/>
					</g>
				</g>
			</g>
			<g>
				<path class="st13" d="M614.2,633.4c13.5,86.9,10.8,132,10.8,220c0,40,101.7,54.3,101.7-21.1c0-80.5-6-169.1-23.4-258.6
					c-3-15.6-6.3-31.8-15.9-44.5c-9.6-12.7-27.4-20.6-41.8-13.9L614.2,633.4z"/>
			</g>
			<g>
				<path class="st13" d="M280.5,633.4c-17.8,71.1-36.2,130-36.2,217.9c0,40-114.8,44.3-100.5-29.7c17.3-89.4,13.6-160.4,30.9-249.9
					c3-15.6,6.3-31.8,15.9-44.5c9.6-12.7,27.4-20.6,41.8-13.9L280.5,633.4z"/>
			</g>
			<g>
				<g>
					<g>
						<g>
							<path class="st13" d="M439.1,1091.6c-72.4,0-128.1-13.9-137.2-16.3c0.4-15.3,1.2-154.9,1.2-169.7c0-15.7-37-250-38.7-260
								l0-0.3l-0.1-0.3c-0.2-0.3-16-30.2-31-60.9c-27.6-56.5-27.8-65.5-27.2-66.9c5.5-5.2,86.8-41.9,142.3-66.3
								c-0.9,8.1,4.3,16.1,10.4,20.2c27.7,18.4,57.2,28.1,85.4,28.1c28.4,0,55.9-9.9,79.5-28.6c8.5-6.7,10.8-14.5,10.2-20.3
								c9.5,3.9,39.7,16.4,69.4,29.9c21,9.5,37.8,17.7,49.8,24.3c20.7,11.3,21.8,15,21.8,15.6c0,10.9-37,90.1-51.2,119.8l-0.1,0.2
								l0,0.2c-1.9,10-44.8,244.7-44.7,275.3c0,8.9,0.5,143.8,0.9,159c-9.2,2.5-65.7,16.9-138.9,17.1L439.1,1091.6z"/>
						</g>
					</g>
				</g>
				<g>
					<g>
						<path class="st14" d="M238.9,599.7c11.4,4.4,32.6,36.8,34.3,48.8c8.8,87.3,38.4,391.2,57.8,402.1
							c19.4,11,212.9,15.2,223.7-8.6c2.2-4.9,13.5-78.6,25.3-158.2c0.9-6.1-66.3,43.8-65.3,37.6c0.8-5.3,69.6-66.8,70.4-72.1
							c12.3-84.5,23.8-165.6,24.2-169.4c2.8-25.8,12.6-49,28.9-67.2c-7.5,16.2-13.2,27.9-13.2,27.9s-41.9,244.1-41.8,274.9
							c0,9.5,3.3,160.3,3.3,160.3s-65.1,17.3-145.9,17.5c-80.8,0.2-146.6-16.8-146.6-16.8s4.5-152.7,4.5-168.4
							c0-15.7-35.8-262.4-35.8-262.4S251.5,624.9,238.9,599.7z"/>
					</g>
				</g>
			</g>
			<g>
				<path class="st13" d="M629.5,821.4c0,0-47.7,178.8-87.9,272c0,33.3,34.2,55,68.2,55c0,0,86.9-201.4,115.6-296.4
					C738.7,807.7,643.8,784.2,629.5,821.4z"/>
			</g>
			<g>
				<path class="st13" d="M239.7,819.4c36.3,94.5,52.8,182.4,93,275.6c0,33.3-45.2,49.1-74.8,56.2c-49.9-92-85.4-206.3-114.1-301.3
					C130.5,805.7,225.4,782.2,239.7,819.4z"/>
			</g>
			<g>
				<path class="st15" d="M149.4,841.6c-3-34.3,29.3-229,37.2-285.6c4-15.4,8.6-29.8,10.1-35.4c-2.3,2-4.5,4.2-6.3,6.7
					c-9.6,12.7-12.8,28.9-15.9,44.5c-17.3,89.4-13.6,160.4-30.9,249.9c-1.2,6.1-1.5,11.6-1,16.7c-0.4,3.7-0.1,7.5,1.1,11.6
					c28.7,95,64.2,209.3,114.1,301.3c1.8-0.4,3.7-0.9,5.6-1.4C259.5,1139.1,155.9,915,149.4,841.6z"/>
			</g>
		</g>
	</g>
</g>
</svg>
