<?xml version="1.0" encoding="utf-8"?>
<!-- Generator: Adobe Illustrator 23.0.1, SVG Export Plug-In . SVG Version: 6.00 Build 0)  -->
<svg version="1.1" id="Student_4" xmlns="http://www.w3.org/2000/svg" xmlns:xlink="http://www.w3.org/1999/xlink" x="0px" y="0px"
	 viewBox="0 0 137.1 137.1" style="enable-background:new 0 0 137.1 137.1;" xml:space="preserve">
<style type="text/css">
	.st0{fill:#FFFFFF;}
	.st1{clip-path:url(#SVGID_2_);}
	.st2{fill:#F19F7D;}
	.st3{fill:#E77D6F;}
	.st4{fill:#F9803C;}
	.st5{fill:#E26933;}
	.st6{fill:#FDC35F;}
	.st7{fill:#CF4B5C;}
	.st8{fill:#2B0322;}
	.st9{fill:#541035;}
	.st10{fill:#2D5760;}
	.st11{fill:#417B7C;}
	.st12{fill:#C72235;}
	.st13{fill:#EDBB91;}
	.st14{fill:#A01537;}
	.st15{fill:#E54545;}
	.st16{fill:#FFB55C;}
	.st17{fill:#F6BF90;}
	.st18{fill:#FFF200;}
	.st19{fill:#EC008C;}
	.st20{fill:#00AEEF;}
	.st21{opacity:0.8;fill:#A01537;}
	.st22{fill:#67B2B0;}
</style>
<circle class="st0" cx="68.5" cy="68.5" r="68.5"/>
<g>
	<defs>
		<circle id="SVGID_1_" cx="68.5" cy="68.5" r="68.5"/>
	</defs>
	<clipPath id="SVGID_2_">
		<use xlink:href="#SVGID_1_"  style="overflow:visible;"/>
	</clipPath>
	<g class="st1">
		<path class="st2" d="M57.1,18c-2.4,5.7-3,13.4-1.6,21.4c1.4,8,4.6,14.8,8.9,18.3c4.4,3.5,8.7,3.3,10.4,2.6
			c1.8-0.7,6.5-5.3,9.1-10.6c2.7-5.4,5.6-14.2,6.2-19.7c0.6-5.5-3.6-19.1-12.8-21.6C68.1,5.9,59.4,12.5,57.1,18z"/>
		<path class="st3" d="M90.2,28.4c-0.2-6.1-4.4-17.7-12.9-20c-9.2-2.5-18,4.2-20.3,9.6c-2.4,5.7-3,13.4-1.6,21.4
			c1.1,6.5,3.5,12.2,6.7,16c-0.2-3.8,0.1-7.5,0.6-11.2c0.7-4.6,2.2-9.3,5.7-12.4c2.2-1.9,5-2.9,7.8-3.6
			C80.9,27.2,85.8,27.1,90.2,28.4z"/>
		<path class="st4" d="M84.3,74.4c0,0-7.9,9.8-8.2,11s-1.6,24.2-1.3,32.2c0.3,8.1,1.2,18.9,2.7,27.6c1.5,8.7,4.6,15.5,4.6,15.5
			s2.8-0.7,5.7-2.4c2.8-1.6,4.8-3.6,4.8-3.6s-3.9-16-4.6-22.2c-0.7-6.3-1-12.2-0.8-15.7c0.2-3.4,5.4-16.9,5.4-16.9l4.6,3.3l4.3,19.4
			l8.2,5.1v-17.2c0,0-6-30.1-7.5-31.6s-15.1-7.5-15.1-7.5L84.3,74.4z"/>
		<path class="st5" d="M109.7,110.7c0,0-0.4-1.8-0.9-4.5c-1.1,0.7-2.3,1.3-3.6,1.3c-2.9,0.1-5.3-2.1-7.1-4.3
			c-3.9-4.8-6.6-10.6-7.8-16.7c-0.4-1.9-0.6-4,0.2-5.9c-3.7,6.7-7.5,13.9-6.8,21.4c0.3,2.7,1.1,5.4,1.6,8c0.5,2.9,0.7,5.9,0.8,8.9
			c0.4,8.6,0.7,17.5-2,25.7c-0.5,1.4-1.1,2.8-2.4,3.6c-1.1,0.6-2.2,0.5-3.4,0.1c1.6,7.1,4,12.4,4,12.4s2.8-0.7,5.7-2.4
			c2.8-1.6,4.8-3.6,4.8-3.6s-3.9-16-4.6-22.2c-0.7-6.3-1-12.2-0.8-15.7c0.2-3.4,5.4-16.9,5.4-16.9l4.6,3.3l4.3,19.4l8.2,5.1V110.7z"
			/>
		<path class="st6" d="M107.7,126.6l-6.2-3.8l-4.3-19.4l-4.6-3.3c0,0-5.2,13.4-5.4,16.9c-0.2,3.4,0,9.4,0.8,15.7
			c0.7,6.3,4.6,22.2,4.6,22.2s-0.6,0.6-1.6,1.4c0,0,0,0,0,0l1.3,6.8l1.4,3.7c5.7-3.2,13.4-8.9,16-19.2
			C110.2,145.6,109.2,137,107.7,126.6z"/>
		<path class="st7" d="M64.8,51.1c0,0,1.7,0.8,4.7,0.7c3-0.1,5.5-0.9,6.3-1.2c0.8-0.3,3.4-2.2,3.4-2.2s-1.8,0.7-3.7,0.7
			c-1.9,0-5.4,0.4-6.9,0.7C67.2,50.2,65.6,51.2,64.8,51.1z"/>
		<path class="st7" d="M64.8,51.1c0,0,2.9,3.8,4.5,4.6c1.6,0.8,4.7-0.4,5.7-1.4c0.9-0.9,4.4-5.9,4.4-5.9s-3.9,4.4-5,4.9
			c-1.1,0.5-4.5,1.2-5.3,0.9C68,53.9,64.8,51.1,64.8,51.1z"/>
		<path class="st0" d="M74.4,53.3c0.6-0.3,2.2-1.8,3.4-3.1c0.7-0.9,1.2-1.5,1.2-1.5l-0.3,0.1c-0.8,0.6-2.3,1.6-2.9,1.8
			c-0.8,0.3-3.3,1.1-6.3,1.2c-3,0.1-4.7-0.7-4.7-0.7s3.2,2.8,4.3,3.1C69.9,54.5,73.3,53.9,74.4,53.3z"/>
		<path class="st8" d="M79.5,29.4c0.3,0.1,0.6,0.3,0.9,0.4c-1.2-0.2-2.4-0.1-3.5,0.2c-1.1,0.2-2.2,0.8-3.2,1.2c0,0,0.2-1.1,0.3-1.2
			c0.2-0.4,0.4-0.6,0.8-0.8c0.8-0.4,1.7-0.5,2.7-0.4C78,28.8,78.8,29.1,79.5,29.4z"/>
		<path class="st8" d="M58.7,31.5c-0.3,0.2-0.5,0.3-0.8,0.5c1.1-0.3,2.4-0.4,3.5-0.3c1.1,0.1,2.3,0.5,3.4,0.7c0,0-0.4-1.1-0.4-1.2
			c-0.2-0.4-0.5-0.5-0.9-0.6c-0.9-0.3-1.8-0.3-2.7-0.1C60.1,30.8,59.4,31.1,58.7,31.5z"/>
		<path class="st8" d="M84,36.7c0.2,0,0.4-0.1,0.5-0.1c0.7-0.2,1.3-0.6,1.8-1c-0.3,0.8-0.9,2-1.7,2.6c-0.6,0.5-1.5,0.1-2.1-0.2
			c-1-0.5-2.1-0.7-3.2-0.4c-1,0.3-1.9,1.2-2.2,2.2c0.1-1.9,1.7-3.6,3.6-3.7c0.8,0,1.6,0.2,2.4,0.5C83.5,36.7,83.7,36.7,84,36.7z"/>
		<path class="st8" d="M80.4,36.5c-0.2-0.1-0.5,0-0.7,0.1c-0.4,0.2-0.6,0.6-0.6,1.1c-0.2,1,0,2.2,0.5,3.1c0.1,0.2,0.3,0.4,0.5,0.6
			c0.2,0.1,0.5,0.1,0.7,0c0.1-0.1,0.2-0.2,0.2-0.3c0.4-0.8,0.6-1.7,0.5-2.6C81.5,37.9,81.2,36.7,80.4,36.5z"/>
		<path class="st7" d="M76.8,38c0,0,0.1-0.4,0.4-0.8c0.3-0.5,0.8-1,1.5-1.4c0.7-0.3,1.4-0.4,2-0.4c0.5,0.1,0.9,0.2,0.9,0.2
			s-0.4-0.1-0.9,0c-0.5,0-1.2,0.1-1.8,0.5c-0.6,0.3-1.1,0.8-1.5,1.2C77,37.7,76.8,38,76.8,38z"/>
		<path class="st8" d="M59.5,40.2c0.5,0.1,1-0.1,1.4-0.5c0.3-0.3,0.6-0.7,0.9-1c0.7-0.6,1.6-0.3,2.3,0.1c0.6,0.3,1.2,0.8,1.7,1.3
			c-0.5-1.2-1.4-2.1-2.5-2.7c-0.7-0.3-1.5-0.5-2.2-0.1c-0.5,0.3-0.7,0.8-1.2,1.1c-0.6,0.5-1.6,0.5-2.2,0c0.5,0.4,0.7,1.2,1.3,1.5
			C59.2,40.1,59.4,40.1,59.5,40.2z"/>
		<path class="st8" d="M62.6,37.7c-0.1,0.1-0.1,0.1-0.1,0.2c-0.2,1.3,0.3,2.7,1,3.8c0.1,0.2,0.3,0.4,0.6,0.5c1.2,0.4,1-2.5,0.8-3
			c-0.3-0.8-1-1.4-1.8-1.6C62.9,37.6,62.7,37.5,62.6,37.7z"/>
		<path class="st7" d="M60.1,37.4c0,0,0.1-0.1,0.2-0.2c0.1-0.1,0.2-0.3,0.5-0.5c0.2-0.2,0.5-0.4,0.9-0.4c0.4-0.1,0.7-0.1,1.1,0
			c0.8,0.2,1.3,0.7,1.7,1.1c0.4,0.4,0.6,0.7,0.6,0.7s-0.3-0.2-0.7-0.5c-0.4-0.3-1-0.7-1.7-0.9c-0.7-0.2-1.4-0.1-1.8,0.2
			c-0.2,0.2-0.4,0.3-0.5,0.4C60.2,37.4,60.1,37.4,60.1,37.4z"/>
		<path class="st8" d="M49.7,16.1c-1.5,1.9,0.8,10.3,0.9,10.9c0.1,0.6-1.5,2.2-1.5,2.2l1.5,0.7c0,0,3.2-3.1,7.9-5
			c4.7-1.9,15-3.4,20.5-2.5c5.5,0.9,11.8,6.2,11.8,6.2s0.8-0.6,0.8-1.5c0-0.9,0.5-3.7,0.8-4.8c0.3-1.1,0.6-1.8,0.5-2.5
			C92.8,19.2,82.6,7.6,76.8,6.3C71,5,53.9,10.8,49.7,16.1z"/>
		<path class="st9" d="M52.5,28.2c-0.1-0.6-2.4-9-0.9-10.9c4.2-5.4,21.3-11.1,27.1-9.8c0.8,0.2,1.6,0.5,2.6,1
			c-1.6-1.1-3.1-1.9-4.4-2.2C71,5,53.9,10.8,49.7,16.1c-1.5,1.9,0.8,10.3,0.9,10.9c0.1,0.6-1.5,2.2-1.5,2.2l1.5,0.7
			c0,0,0.7-0.6,1.8-1.5C52.5,28.3,52.5,28.3,52.5,28.2z"/>
		<path class="st10" d="M81.4,23.1c0.3,1.9,0.7,4.2,1.2,5.5c1,2.5,3.8,5.6,3.8,5.6s-0.4,1.6,0,2.3c0.4,0.8,0.7,1.1,0.7,1.1l0.2,3.9
			c0,0,3-8.9,3.4-12.9C90.7,28.7,86.1,24.8,81.4,23.1z"/>
		<path class="st11" d="M64,23.4c-2.2,0.4-4.1,1-5.6,1.6c-3.6,1.5-6.4,3.6-7.4,4.5c-0.2,0.7-0.4,1.5-0.8,2.2
			c-1.4,3.1-3.6,11.6-3.6,11.6l2.8-2.9c0,0-1,5.2,1.3,8.2c2.3,3,10.5,9.7,10.5,9.7s-2.8-5.8-2.8-8.9c0-3.2,2.5-8.5,4.2-15.2
			C63.6,30.4,64,26.3,64,23.4z"/>
		<path class="st12" d="M38.7,87.1c-4.3,0.5-9.4,1.7-10.9,3.6c-1.5,1.9,1,4.2,1,4.2s4.9,22.8,5.5,25.2c0.6,2.4,1.2,20.6,1.2,20.6
			s-0.9,0.6-0.4,1.6c0.4,1,2.8,2.7,15.1,6.3s19.2,3.9,19.4,3c0.1-0.9-1.3-0.9-1.3-0.9s1.3-1.9,2.7-2.8c1.3-0.9,2.5-0.6,2.5-0.6
			s2-0.6,1.3-1.2c-0.7-0.6-0.7-0.6-0.7-0.6s-0.6-30.4-0.6-35.1c0-4.6,0.3-17.3,0.3-17.3s1.9-1.2,1-1.9C73.9,90.4,59.4,90,55,89.4
			C50.5,88.8,41.5,86.7,38.7,87.1z"/>
		<path class="st5" d="M34.4,120.1c-0.2-1-1.2-5.4-2.3-10.2l-2.1,4.1c0,0-7.6,5.1-8.1,6c-0.4,0.9-1.5,12.2,0,13.4
			c1.5,1.2,13.3,1.2,13.3,1.2l-0.2-4.3C34.9,125.7,34.7,121.2,34.4,120.1z"/>
		<path class="st4" d="M60.3,89.8c0.9-2,2.3-4.4,2.9-4.4c1,0.1,2.4,4.4,2.5,4.7c0,0,0,0,0,0c-0.1-0.4-1.1-4.6-1.4-5
			c-0.3-0.5-0.9-0.8-1.5-2.2c-0.6-1.4-1.6-8-1.1-9.2c0.5-1.3,2.2-1.3,2.2-1.3l1.4-0.8c0,0-2.2-1.3-3.5-1.1c-1.3,0.2-6.1,5.7-5.9,8.8
			c0.1,2.1,1.6,7.3,2.6,10.4C59.1,89.7,59.7,89.8,60.3,89.8z"/>
		<path class="st2" d="M82.2,68.2c-0.6-0.5-1.1-0.8-1.2-1c-0.4-0.5-1.1-7.3-1.5-10.9c-1.9,2.1-3.6,3.6-4.6,4c-1,0.4-2.8,0.6-4.9,0.2
			c0.4,3.1,0.8,7.3,0.6,7.7c-0.1,0.3-3.4,2.3-6.6,4.3l-0.1,0h0c-0.7,0.4-1.5,0.9-2.2,1.3l0,0c-0.5,1.3,0.5,7.8,1.1,9.2
			c0.6,1.4,1.2,1.7,1.5,2.2c0.2,0.3,0.7,2.4,1.1,3.8c2.7,0.5,6.4,0.7,10.4-0.7c0-0.1-1.1-3.8,0-4c1.1-0.2,8.2-11,8.5-12.7
			C84.6,70.2,82.7,68.7,82.2,68.2z"/>
		<g>
			<path class="st4" d="M65.7,90.2c-0.1-0.4-1.5-4.6-2.5-4.7c-0.6-0.1-2,2.4-2.9,4.4C62,89.9,63.9,90,65.7,90.2z"/>
			<path class="st4" d="M55,89.4c0.9,0.1,2.1,0.2,3.6,0.3c-0.9-3.1-2.4-8.3-2.6-10.4c-0.1-1.4,0.8-3.3,2-4.9
				c-1.9,0.6-5.7,1.8-6.4,2.7c-1,1.2-7.7,10.1-7.7,10.1l-0.2,0.4C47.5,88,52.1,89,55,89.4z"/>
		</g>
		<path class="st8" d="M73.5,147.2c0,0-1.2-0.3-2.5,0.6c-1.3,0.9-2.7,2.8-2.7,2.8c4.4,0,7.8-0.3,10.2-0.7c-0.4-1.5-0.7-3.1-1-4.7
			c-1.5-8.7-2.4-19.5-2.7-27.6c-0.2-6.5,0.6-22.8,1.1-29.4c-4.1,1.4-7.8,1.2-10.6,0.7c0.2,0.6,0.4,1.1,0.4,1.2c4.5,0.3,8.6,0.6,9,1
			c0.9,0.7-1,1.9-1,1.9s-0.3,12.7-0.3,17.3c0,4.6,0.6,35.1,0.6,35.1s0,0,0.7,0.6C75.5,146.6,73.5,147.2,73.5,147.2z"/>
		<path class="st4" d="M35.3,134.3c-1.9-0.7-6.4-2.5-8-4.9c-2.1-3.1,0.8-8.8,2.4-10.6c1.1-1.2,2.7-1.9,3.8-2.2
			c-0.2-0.8-0.4-1.6-0.6-2.5c-2.8,1.8-8.3,5.3-8.6,5.5c-0.4,0.3,0,5.8,0,5.8s-2.2,14.8-0.2,14.9c1.6,0.1,8.8-3.8,11.2-5.2
			C35.4,134.8,35.3,134.5,35.3,134.3z"/>
		<path class="st13" d="M71.9,92.2c0,0-28.8-4-32.1-4.4c-3.4-0.4-10.5,2.5-10.4,3.8c0.1,1.3,35.8,4,36.4,5.4
			c0.6,1.3,2.5,53.7,2.5,53.7s1.3-1.9,2.7-2.8c1-0.7,1.9-0.7,2.3-0.6c-0.1-0.1-0.2-0.4-0.2-1.2C72.9,144.4,71.9,92.2,71.9,92.2z"/>
		<path class="st8" d="M66.3,71c0,0,0,0.4,0.1,1.1c0.1,0.7,0.2,1.8,0.7,2.9c0.2,0.6,0.5,1.2,0.9,1.8c0.4,0.6,1,1.1,1.7,1.4
			c0.7,0.4,1.5,0.6,2.3,0.7c0.4,0.1,0.8,0,1.2,0c0.4-0.1,0.8-0.2,1.2-0.3c0.4-0.2,0.8-0.3,1.1-0.5c0.4-0.2,0.7-0.4,1.1-0.6
			c0.7-0.5,1.3-1,1.9-1.5c0.6-0.5,1.1-1.1,1.6-1.6c0.5-0.5,0.9-1.1,1.3-1.6c1.5-2,2.3-3.5,2.3-3.5s-0.2,0.4-0.6,1
			c-0.4,0.6-0.9,1.5-1.6,2.6c-0.4,0.5-0.8,1-1.3,1.6c-0.5,0.6-1,1.1-1.6,1.7c-0.6,0.5-1.2,1.1-1.9,1.5c-0.3,0.2-0.7,0.4-1.1,0.6
			c-0.4,0.2-0.8,0.3-1.2,0.5c-0.4,0.1-0.8,0.2-1.3,0.3c-0.4,0-0.8,0-1.3,0c-0.8-0.1-1.7-0.3-2.3-0.7c-0.7-0.4-1.3-1-1.7-1.5
			c-0.4-0.6-0.7-1.2-0.9-1.8c-0.4-1.2-0.5-2.3-0.6-3C66.2,71.4,66.3,71,66.3,71z"/>
		<path class="st8" d="M73.4,79c-0.4-0.7-1.5-0.7-2.2-0.2c-0.6,0.5-0.9,1.4-0.9,2.2c0,0.4,0.1,0.9,0.4,1.2c0.5,0.5,1.4,0.4,2,0
			c0.5-0.5,0.8-1.2,0.9-1.9C73.7,79.8,73.6,79.3,73.4,79z"/>
		<path class="st6" d="M82,68.1c0,0,1.7-2,2.2-1.3c0.4,0.7,1.5,1.9,2.9,3.1c1.4,1.2,3.1,1.6,3.1,1.6l-0.5,1.2
			c2.8,1.3,7.3,3.3,10.1,4.8c-2.2-6-5.4-8.2-9.6-10.9c-3.2-2.1-6.8-1.8-9.6-0.9c0.1,0.8,0.3,1.4,0.3,1.5
			C81.1,67.4,81.5,67.7,82,68.1z"/>
		<path class="st6" d="M89.7,72.8c0,0,1.4-1.6,2.5,0c1.1,1.6,1.1,1.6,1.1,1.6s-5,8.4-6.2,13.9c-1.2,5.5,3.3,46.4,6.2,51.9
			c2.9,5.6,6.9,12.1,6.9,12.1s-1.6,2.8-2.6,3c-1,0.2-7.3-10.4-7.9-13.3c-0.6-2.9-7.8-47.1-6.2-54.3C85,80.6,89.7,72.8,89.7,72.8z"/>
		<path class="st4" d="M82,68.1c0,0,1.7-2,2.2-1.3c0.4,0.7,1.5,1.9,2.9,3.1c1.4,1.2,3.1,1.6,3.1,1.6L84,86.1c0,0-3.1-1.6-5.1-1.8
			c-2-0.2-3.1,4-3.1,4s-1.1-3.8,0-4c1.1-0.2,8.2-11,8.5-12.7C84.6,70,82,68.1,82,68.1z"/>
		<path class="st14" d="M66.6,111.1c-5,3.2-11.3,4.5-17.3,3.9c-6.2-0.6-12.1-3-17.5-6.2c1.1,5.3,2.2,10.3,2.5,11.3
			c0.6,2.4,1.2,20.6,1.2,20.6s-0.9,0.6-0.4,1.6c0.2,0.5,1,1.2,3.3,2.3c9.6-2.6,19.6-3.7,29.5-3.4C67.6,132.8,67.1,120.6,66.6,111.1z
			"/>
		<path class="st15" d="M68.2,150.7c0,0-1.9-52.4-2.5-53.7c-0.5-1.3-34-3.9-36.3-5.2c0.5,0.4,2.7,1.5,13.2,2.7
			c13,1.5,20.7,2.4,21.5,3.1c0.7,0.7,1.9,52.5,3,52.8c0.5,0.2,1,0.9,1.1,1.6c0.8,0,1.2-0.2,1.3-0.4
			C69.7,150.6,68.2,150.7,68.2,150.7z"/>
		<path class="st5" d="M55,89.4c0.9,0.1,2.1,0.2,3.6,0.3c-0.7-2.5-1.9-6.4-2.3-8.9c-1.1,2.2-2.8,4.1-4.6,5.7
			c-0.8,0.7-1.5,1.3-2.3,1.9C51.4,88.8,53.5,89.2,55,89.4z"/>
		<path class="st16" d="M102.2,79.1c-0.8-0.8-5.1-2.9-8.9-4.7c0,0-0.1,0.1-0.2,0.3c3.7,1.9,7.8,4.2,8.6,5c1.5,1.5,7.5,31.6,7.5,31.6
			l0.5,16.5v-17.2C109.7,110.7,103.7,80.6,102.2,79.1z"/>
		<path class="st4" d="M98.5,134.8c0,0-3.7-6-4.9-9.4c-1.2-3.4,1.3-11.8,6.2-14.3c4.9-2.5,18.7,8.1,18.7,8.1s-2.6,13.6-5.6,16.7
			C109.9,139,98.5,134.8,98.5,134.8z"/>
		<path class="st16" d="M100.1,111c5.8,0.1,16.8,8.5,16.8,8.5s-2.6,13.6-5.6,16.7c-0.4,0.4-0.9,0.7-1.5,0.8c1.3-0.1,2.5-0.4,3.2-1.1
			c3-3.1,5.6-16.7,5.6-16.7S105.2,109,100.1,111z"/>
		<path class="st2" d="M86.6,91.1c0,0-0.9-2.7-1.8-2.8c-0.9-0.1-3.9,0.7-4.6,0.5c-0.7-0.2-1-1.5,0-1.8c1-0.3,4.9-1.9,6.4-0.4
			s1.9,2.5,3.2,3.5c1.3,1,7.7,7.1,8.3,8.4c0.6,1.3,7.7,18.6,9.6,21.4s6,9.7,6.5,11.3c0.5,1.6-5,8.8-6.7,8.9
			c-1.7,0.1-9.4-4.3-10.3-7.6c-0.8-3.3-2.5-27.7-3-28.9c-0.5-1.2-6.2-5.3-6.9-5.3c-0.7,0-2.1,1.1-3,1.1s-3.5-1.2-4.1-2.2
			c-0.6-1,1.1-4.3,2-4.9C83.2,91.9,86.6,91.1,86.6,91.1z"/>
		<g>
			<path class="st7" d="M81,98.1c0,0,0.2-0.4,0.5-1c0.2-0.3,0.4-0.6,0.6-1c0.2-0.3,0.5-0.7,0.7-1.1l0.4-0.5c0.2-0.2,0.3-0.2,0.6-0.4
				c0.4-0.2,0.7-0.3,1.1-0.4c0.7-0.1,1.1-0.1,1.1-0.1s-0.4,0-1,0.2c-0.3,0.1-0.6,0.2-1,0.4c-0.1,0.1-0.4,0.3-0.5,0.3L83,95.3
				c-0.2,0.4-0.5,0.7-0.7,1c-0.2,0.3-0.5,0.6-0.6,0.9C81.3,97.7,81,98.1,81,98.1z"/>
			<path class="st7" d="M82.8,99c0,0,0.2-0.3,0.4-0.8c0.3-0.4,0.7-1,1.2-1.5c0.6-0.4,1.3-0.7,1.8-0.7c0.5-0.1,0.9,0,0.9,0
				s-0.3,0.1-0.8,0.2c-0.5,0.1-1.1,0.4-1.6,0.8c-0.5,0.4-1,0.9-1.3,1.3C83,98.7,82.8,99,82.8,99z"/>
		</g>
		<path class="st3" d="M108.2,134.9c-0.5-0.1-0.9-0.6-1.3-1c-7.1-8.1-9-19.4-10.6-30.1c-0.1-0.8-0.1-1.9,0.7-2.3
			c-3.6-0.1-7-2.4-8.4-5.8c-1.8,2.1-4.9,2.9-7.5,2.3c1,0.8,2.7,1.5,3.4,1.5c0.8,0,2.3-1.1,3-1.1c0.7,0,6.4,4.1,6.9,5.3
			c0.5,1.2,2.2,25.7,3,28.9c0.8,3.3,8.6,7.7,10.3,7.6c1.7-0.1,7.2-7.4,6.7-8.9c-0.1-0.3-0.3-0.8-0.7-1.5c-0.8,1.3-1.7,2.5-2.7,3.7
			C110.2,134.3,109.2,135.1,108.2,134.9z"/>
		<path class="st17" d="M114.2,131.3c-0.5-1.6-4.5-8.6-6.5-11.3c-2-2.8-9-20.1-9.6-21.4c-0.6-1.3-7-7.4-8.3-8.4
			c-1.3-1-1.7-2.1-3.2-3.5s-5.4,0.1-6.4,0.4c0,0-0.1,0-0.1,0.1c1.5-0.5,4.4-1.4,5.7-0.2c1.5,1.5,1.9,2.5,3.2,3.5
			c1.3,1,7.7,7.1,8.3,8.4c0.6,1.3,7.7,18.6,9.6,21.4c2,2.8,6,9.7,6.5,11.3c0.4,1.4-3.8,7.3-6,8.7c0,0,0.1,0,0.1,0
			C109.2,140.1,114.7,132.9,114.2,131.3z"/>
		<path class="st16" d="M75.7,117.9c-0.3-8.1,1-31,1.3-32.2c0-0.1,0.1-0.2,0.1-0.3c-0.8,1.2-1.3,2.9-1.3,2.9
			c-0.5,6.6-1.3,22.9-1.1,29.4c0.3,8.1,1.2,18.9,2.7,27.6c1.5,8.7,4.6,15.5,4.6,15.5s0.3-0.1,0.7-0.2c-0.7-1.6-3.2-7.7-4.4-15.1
			C76.9,136.8,76,125.9,75.7,117.9z"/>
		<path class="st2" d="M75.7,119.5c0-0.7-2.1-0.9-2.1-0.9s0-1.6-0.6-1.7c-0.5-0.1-5.6,0.6-6.4,1s-1.1,3-1.3,3.4
			c-0.2,0.4-4.5,3-5.3,3.5c-0.8,0.5-7.3-1-10.8-2.1c-3.6-1.1-11.7-4.9-13-5.8c-1.3-0.9-2.6-0.5-2.6-0.5c-1.1,0.4-2.7,1.1-3.8,2.2
			c-1.6,1.8-4.5,7.5-2.4,10.6c1.6,2.5,6.1,4.3,8,4.9c3.3,0.7,28.4-1.3,29.5-1.2c1.1,0.1,10.1-2.2,10.7-3.2
			C76.1,128.9,75.7,120.2,75.7,119.5z"/>
		<path class="st3" d="M75.8,124.2c-1,0.8-2.1,1.4-3.2,1.9c-3,1.3-6.5,2.4-9.3,0.8c-1.1-0.6-2-1.5-2.5-2.6c-0.3,0.2-0.6,0.4-0.8,0.5
			c-0.8,0.5-7.3-1-10.8-2.1c-3.6-1.1-11.7-4.9-13-5.8c-1.3-0.9-2.6-0.5-2.6-0.5c-0.7,0.2-1.6,0.6-2.4,1.2
			c5.6,4.5,10.2,10.2,13.4,16.6c8.5-0.4,19.6-1.2,20.4-1.2c1.1,0.1,10.1-2.2,10.7-3.2C75.9,129.4,75.9,126.7,75.8,124.2z"/>
		<path class="st17" d="M66,132.7c-1.1-0.1-26.2,1.9-29.5,1.2c-1.9-0.7-6.4-2.5-8-4.9c-2.1-3.1,0.8-8.8,2.4-10.6
			c0.9-1,2.2-1.6,3.2-2c-0.4,0-0.6,0.1-0.6,0.1c-1.1,0.4-2.7,1.1-3.8,2.2c-1.6,1.8-4.5,7.5-2.4,10.6c1.6,2.5,6.1,4.3,8,4.9
			c3.3,0.7,28.4-1.3,29.5-1.2c0.5,0,3.1-0.5,5.5-1.2C68.3,132.4,66.5,132.8,66,132.7z"/>
		<path class="st18" d="M57.1,132.9c-0.7-2.4-0.6-5.1,0.3-7.4c0.2-0.5,0.5-1.1,1-1.4c0.5-0.3,1.4-0.2,1.7,0.3
			c-0.3,0.1-0.4,0.4-0.5,0.7c-0.8,3.1-0.7,6.4,0.1,9.5c-0.5,0.3-1.3,0.2-1.8-0.2C57.5,134,57.3,133.5,57.1,132.9z"/>
		<path class="st19" d="M57.1,132.9c-0.7-2.4-0.6-5.1,0.3-7.4c0.1-0.2,0.1-0.3,0.2-0.5c0,0,0-0.1,0-0.1c0.1-0.3,0.2-0.6,0.5-0.7
			c-0.3-0.5-1.1-0.6-1.7-0.3c-0.5,0.3-0.8,0.9-1,1.4c-0.9,2.5-1,5.2-0.3,7.8c0.2,0.6,0.4,1.1,0.8,1.5c0.5,0.4,1.2,0.5,1.8,0.2
			c-0.1-0.3-0.1-0.6-0.2-0.8C57.4,133.7,57.2,133.3,57.1,132.9z"/>
		<path class="st20" d="M55.2,133.1c-0.7-2.6-0.6-5.3,0.3-7.8c0.1-0.3,0.3-0.7,0.5-1c0.1-0.2,0.2-0.5,0.4-0.6
			c-0.3-0.6-1.1-0.6-1.7-0.3c-0.5,0.3-0.8,0.9-1,1.5c-0.9,2.7-1,5.6-0.3,8.4c0.2,0.6,0.4,1.2,0.8,1.6c0.5,0.4,1.2,0.6,1.8,0.2
			c-0.1-0.2-0.1-0.5-0.1-0.7C55.5,134.1,55.3,133.6,55.2,133.1z"/>
		<path class="st3" d="M80.2,62.8c-0.3-2.2-0.5-4.7-0.7-6.5c-1.9,2.1-3.6,3.6-4.6,4c-1,0.4-2.8,0.6-4.9,0.2c0.2,2.1,0.5,4.7,0.6,6.3
			c0.7,0.2,1.3,0.2,2,0.1c2.3-0.2,4.4-1.1,6.2-2.5C79.3,63.8,79.8,63.3,80.2,62.8z"/>
		<path class="st5" d="M84,86.1l6.2-14.5c0,0-0.9-0.2-2-0.8c-1,5.5-5.4,10.4-10.8,11.8c-0.8,1-1.4,1.6-1.6,1.7c-1.1,0.2,0,4,0,4
			s1.1-4.2,3.1-4C81,84.5,84,86.1,84,86.1z"/>
		<path class="st5" d="M63.2,85.4c1,0.1,2.4,4.4,2.5,4.7c0,0,0,0,0,0c-0.1-0.4-1.1-4.6-1.4-5c-0.3-0.5-0.9-0.8-1.5-2.2
			c-0.6-1.4-1.6-8-1.1-9.2c0.5-1.3,2.2-1.3,2.2-1.3l0.8-0.5c-0.5-0.2-1-0.4-1.6-0.3c-1.8,0.1-3,2.1-3.2,3.9
			c-0.2,1.8,0.2,3.7-0.1,5.5c-0.2,1.8-1.1,3.5-2.5,4.7c0.4,1.4,0.8,2.8,1.1,4c0.6,0,1.2,0.1,1.8,0.1C61.3,87.9,62.6,85.4,63.2,85.4z
			"/>
		<path class="st17" d="M87.3,40.9c-1,2.9-2.1,5.7-3.2,7.9c-2.7,5.4-7.4,9.9-9.1,10.6c-1.8,0.7-6.1,0.9-10.4-2.6
			c-2.3-1.9-4.3-4.7-5.9-8.1c0,0.2-0.1,0.4-0.1,0.6c1.6,3.5,3.6,6.4,5.9,8.2c4.4,3.5,8.7,3.3,10.4,2.6c1.8-0.7,6.5-5.3,9.1-10.6
			c1.1-2.2,2.3-5.1,3.3-8L87.3,40.9z"/>
		<path class="st2" d="M85.4,46.7c0,0,2.5-13.7,3.7-14.6c1.2-0.9,5.5,7,3.9,10.5C91.4,46.2,85.4,46.7,85.4,46.7z"/>
		<path class="st3" d="M91.5,36.9c0.4,1.3,0.5,2.7,0.3,4.1c-0.1,0.4-0.2,0.8-0.5,1.2c-0.3,0.3-0.7,0.5-1.1,0.6c-1,0.4-2,0.7-3.1,1
			c0.4-0.5,0.8-1.1,0.8-1.7c0-0.3-0.1-0.5-0.2-0.7c-0.5-1.9,1.2-3.8,2.5-5c0.1-0.1,0.2-0.2,0.4-0.3C91.1,36,91.4,36.5,91.5,36.9z"/>
		<path class="st7" d="M90.1,39c-0.3-0.1-0.7-0.2-1-0.3c-0.2,0-0.3-0.1-0.4-0.1c0.2-0.3,0.3-0.6,0.5-0.9c0.3-0.5,0.6-1,1-1.3
			c0.3-0.3,0.7-0.5,1-0.6c0.3-0.1,0.4,0,0.4,0s-0.2-0.1-0.5-0.1c-0.3,0-0.8,0.1-1.2,0.4c-0.4,0.3-0.8,0.8-1.2,1.3
			c-0.4,0.5-0.7,1.1-1,1.8c-0.2,0.7-0.4,1.4-0.2,2c0.1,0.3,0.1,0.6,0.2,0.9c0,0.1,0,0.2,0,0.3c0,0.1-0.1,0.2-0.1,0.3
			c-0.2,0.4-0.4,0.7-0.7,0.9c-0.2,0.2-0.4,0.3-0.4,0.3s0.2,0,0.4-0.2c0.3-0.1,0.6-0.4,0.9-0.9c0.1-0.1,0.1-0.2,0.2-0.4
			c0-0.2,0.1-0.2,0.1-0.5c0-0.3-0.1-0.6-0.1-0.9c0-0.6,0.1-1.2,0.3-1.8c0.1-0.2,0.2-0.5,0.3-0.7c0,0.1,0.1,0.2,0.3,0.3
			c0.2,0.2,0.6,0.4,1,0.5c0.4,0.1,0.8,0.1,1.1,0.1c0.3-0.1,0.5-0.2,0.5-0.2s-0.2-0.1-0.5-0.2C90.8,39.2,90.4,39.1,90.1,39z"/>
		<path class="st0" d="M83,38.5c-0.1,0.1-0.2,0.1-0.2,0.1c-0.5,0.1-1,0.2-1.5,0.3c-0.3,0.1-0.6,0.1-0.9,0c-0.3-0.1-0.4-0.6-0.1-0.8
			c0.1,0,0.2-0.1,0.2-0.1c0.7-0.1,1.5-0.3,2.3,0C82.9,38.1,83.2,38.3,83,38.5z"/>
		<path class="st0" d="M64.1,39.9C64,39.9,63.9,40,63.8,40c-0.5,0.1-1,0.2-1.5,0.3c-0.3,0.1-0.6,0.1-0.9,0c-0.3-0.1-0.4-0.6-0.1-0.8
			c0.1,0,0.2-0.1,0.2-0.1c0.7-0.1,1.5-0.3,2.3,0C64,39.5,64.2,39.7,64.1,39.9z"/>
		<path class="st3" d="M70.5,48.2c-0.2,0-0.4,0-0.6-0.1c-0.9-0.4-1.3-2.2,0-2.4c0.7-0.1,2.3-0.5,2.6,0.5
			C72.8,47.2,71.3,48.2,70.5,48.2z"/>
		<path class="st7" d="M67,36.6c1.7,3.4,2.5,7.1,2.6,10.8C70.8,43.8,69.5,39.6,67,36.6z"/>
		<path class="st21" d="M77.3,38.7c-2.1,0-3.8,1.7-3.8,3.8c0,0.2,0,0.4,0.1,0.6c-0.7-0.4-2.1-0.9-3.3-0.9c-1.3,0-2.5,0.8-3,1.2
			c-0.5-1.5-1.9-2.6-3.6-2.6c-2.1,0-3.8,1.7-3.8,3.8c0,2.1,1.7,3.8,3.8,3.8c2.1,0,3.8-1.7,3.8-3.8c0-0.1,0-0.3,0-0.4
			c0.5-0.4,1.2-0.9,2-1.1c1.1-0.2,3.3,0.4,4.3,0.8c0.5,1.4,1.9,2.4,3.5,2.4c2.1,0,3.8-1.7,3.8-3.8C81.1,40.3,79.4,38.7,77.3,38.7z"
			/>
		<path class="st10" d="M64,23.4c-2.2,0.4-4.1,1-5.6,1.6c-3.6,1.5-6.4,3.6-7.4,4.5c0,0.1,0,0.1,0,0.2c2.2-1.4,4.6-2.5,7.2-3.1
			c0.8-0.2,1.8-0.3,2.5,0.2c0.7,0.5,0.8,1.5,0.7,2.4C61.1,33,58.8,36.5,57,40c-1.7,3.5-2.9,7.9-0.8,11.2c-1.5-0.3-2.9-0.7-4.2-1.2
			c3.1,3.3,9.3,8.4,9.3,8.4s-2.8-5.8-2.8-8.9c0-3.2,2.5-8.5,4.2-15.2C63.6,30.4,64,26.3,64,23.4z"/>
		<path class="st22" d="M50.9,31.2c0.3-0.7,0.6-1.4,0.7-2.1c-0.2,0.2-0.4,0.3-0.6,0.5c-0.2,0.7-0.4,1.5-0.8,2.2
			c-1.4,3.1-3.6,11.6-3.6,11.6l0.6-0.6C47.6,42,49.6,34.1,50.9,31.2z"/>
		<path class="st22" d="M51.4,48.1c-2.3-3-1.3-8.2-1.3-8.2l-0.6,0.6c-0.1,0.6-0.8,5.3,1.3,8.1c2.3,3,10.5,9.7,10.5,9.7
			S53.1,50.3,51.4,48.1z"/>
	</g>
</g>
</svg>
