<?xml version="1.0" encoding="utf-8"?>
<!-- Generator: Adobe Illustrator 23.0.1, SVG Export Plug-In . SVG Version: 6.00 Build 0)  -->
<svg version="1.1" id="Student_4" xmlns="http://www.w3.org/2000/svg" xmlns:xlink="http://www.w3.org/1999/xlink" x="0px" y="0px"
	 viewBox="0 0 137.1 137.1" style="enable-background:new 0 0 137.1 137.1;" xml:space="preserve">
<style type="text/css">
	.st0{fill:#FFFFFF;}
	.st1{clip-path:url(#SVGID_2_);fill:#AE3A49;}
	.st2{clip-path:url(#SVGID_2_);fill:#8B2943;}
	.st3{clip-path:url(#SVGID_2_);fill:#B15743;}
	.st4{clip-path:url(#SVGID_2_);fill:#A54840;}
	.st5{clip-path:url(#SVGID_2_);fill:#2B0322;}
	.st6{clip-path:url(#SVGID_2_);fill:#FFFFFF;}
	.st7{clip-path:url(#SVGID_2_);fill:#A18DAA;}
	.st8{clip-path:url(#SVGID_2_);fill:#CF4B5C;}
	.st9{clip-path:url(#SVGID_2_);fill:#A01537;}
	.st10{clip-path:url(#SVGID_2_);fill:#F9803C;}
	.st11{clip-path:url(#SVGID_2_);fill:#C5704F;}
	.st12{clip-path:url(#SVGID_2_);fill:#7C0E1E;}
	.st13{clip-path:url(#SVGID_2_);fill:#BA342A;}
	.st14{clip-path:url(#SVGID_2_);}
	.st15{fill:#A54840;}
	.st16{clip-path:url(#SVGID_2_);fill:#C95D5D;}
	.st17{clip-path:url(#SVGID_2_);fill:#666543;}
	.st18{clip-path:url(#SVGID_2_);fill:#EDBB91;}
	.st19{clip-path:url(#SVGID_2_);fill:#4B4D3F;}
	.st20{clip-path:url(#SVGID_2_);fill:#C72235;}
	.st21{clip-path:url(#SVGID_2_);fill:#C8472D;}
	.st22{clip-path:url(#SVGID_2_);fill:#DB6537;}
	.st23{clip-path:url(#SVGID_2_);fill:#8C8360;}
	.st24{clip-path:url(#SVGID_2_);fill:#E26933;}
	.st25{clip-path:url(#SVGID_2_);fill:#260E1F;}
</style>
<circle class="st0" cx="68.5" cy="68.5" r="68.5"/>
<g>
	<defs>
		<circle id="SVGID_1_" cx="68.5" cy="68.5" r="68.5"/>
	</defs>
	<clipPath id="SVGID_2_">
		<use xlink:href="#SVGID_1_"  style="overflow:visible;"/>
	</clipPath>
	<path class="st1" d="M79.9,67.4c0,0,10.8,6.3,13,7.4c2.2,1.1,1.5,39.8,1.5,39.8s-2.6,50-2,53c0.7,3-2.2,4.4-2.2,4.4l-39.8,2
		c0,0-3.9-1.4-2.8-4.2c1.1-2.8,2.8-11.9,2.6-15.2c-0.2-3.3-3.5-50.2-3.7-50.9c-0.2-0.7-0.9-21.5-0.9-21.5l14.8-11.5l1.3-3.3
		c0,0,8.7,7.6,9,7.6C71.2,75,79.9,67.4,79.9,67.4z"/>
	<path class="st2" d="M79.9,67.4c0,0-8.8,7.6-9.1,7.6c-0.3,0-9-7.6-9-7.6l-1.3,3.3L55,74.9c2,4.6,5.5,12.5,7.1,14.8
		c2.3,3.2,3.5,4.1,3.5,4.1l3.2-7.3c0,0,1.6,0.8,2.5,0.6c0.9-0.2,2.3-0.7,2.3-0.7l6.2,4.3c0,0,5.5-8.8,6.6-12.7
		c0.5-1.8,0.7-4.2,0.8-6.2C83.7,69.6,79.9,67.4,79.9,67.4z"/>
	<path class="st3" d="M88,22.8c-0.3-6-5.7-13.5-16.5-12.6h-1.4c-10.8-1-16.1,6.5-16.5,12.6c-0.3,6,2.4,28.4,4.4,31.6
		c1.5,2.5,8.2,4.3,11.7,4.9c0,0.1,2.2,0.1,2.2,0c3.5-0.6,10.2-2.4,11.7-4.9C85.6,51.2,88.3,28.8,88,22.8z"/>
	<path class="st4" d="M88,22.8c-0.3-6-5.7-13.5-16.5-12.6h-1.4c-10.8-1-16.1,6.5-16.5,12.6c-0.1,2.2,0.2,6.7,0.7,11.6
		c2.1-5.2,5.7-9.8,10.2-13.2c1.6,0.7,4.6,0.4,4.5-0.4c5-0.4,9.8,1.9,13.5,5.3c1.9,1.7,3.5,3.7,5,5.8C87.9,28,88.1,24.6,88,22.8z"/>
	<path class="st5" d="M62.6,33.7c0.4-0.1,0.8,0.2,1,0.5c0.4,0.5,0.8,1.1,0.9,1.8c-0.5-0.7-1.4-0.9-2.3-0.8c-0.8,0.1-1.6,0.6-2.3,1.1
		c0.7-0.8,1.4-1.5,2.2-2.2C62.4,33.8,62.5,33.7,62.6,33.7z"/>
	<path class="st5" d="M61,39.1c0.2,1.4,1.6,2.8,2.5,0.9c0.2-0.5,0.3-1.1,0.3-1.6c0-1,0-2.2-1-2.7c-1.2-0.6-1.5,0.5-1.7,1.4
		C61.1,37.8,60.9,38.5,61,39.1z"/>
	<path class="st5" d="M63.3,26.4c-1.2,0.5-2.4,1.2-3.4,2c1.9,0.2,3.9,0.2,5.9-0.2c0.2-0.3,0-0.8-0.3-1.1c-0.3-0.4-0.7-0.8-1.2-0.9
		C64,26.2,63.6,26.3,63.3,26.4z"/>
	<path class="st5" d="M78.5,33.7c-0.4-0.1-0.8,0.2-1,0.5c-0.4,0.5-0.8,1.1-0.9,1.8c0.5-0.7,1.4-0.9,2.3-0.8c0.8,0.1,1.6,0.6,2.3,1.1
		c-0.7-0.8-1.4-1.5-2.2-2.2C78.8,33.8,78.7,33.7,78.5,33.7z"/>
	<path class="st5" d="M80.2,39.1c-0.2,1.4-1.6,2.8-2.5,0.9c-0.2-0.5-0.3-1.1-0.3-1.6c0-1,0-2.2,1-2.7c1.2-0.6,1.5,0.5,1.7,1.4
		C80.1,37.8,80.3,38.5,80.2,39.1z"/>
	<path class="st5" d="M77.9,26.4c1.2,0.5,2.4,1.2,3.4,2c-1.9,0.2-3.9,0.2-5.9-0.2c-0.2-0.3,0-0.8,0.3-1.1c0.3-0.4,0.7-0.8,1.2-0.9
		C77.2,26.2,77.5,26.3,77.9,26.4z"/>
	<path class="st6" d="M62.9,49.5c0,0,3.5,0.5,8,0.3c4.4-0.2,8-0.9,8-0.9S77,53,73.7,54.3c-3.3,1.3-6.8-0.2-8-1.2
		C64.5,52.1,62.9,49.5,62.9,49.5z"/>
	<path class="st7" d="M66,52c-0.2-0.1-0.3-0.2-0.3-0.5l0-0.5l0.4,0.5c0.1,0.2,0.3,0.3,0.4,0.4c0.1,0,0.1,0.1,0.2,0.1
		c0,0,0.1,0,0.1,0c0.1,0,0.1,0.1,0.2-0.1c0.1-0.1,0.1-0.2,0.3-0.3c0.1-0.1,0.3-0.1,0.4,0.1c-0.1,0-0.2,0.1-0.2,0.1
		c0,0.1,0,0.1,0,0.2c0,0.1,0,0.3-0.2,0.4c-0.1,0.1-0.3,0.2-0.5,0.2c-0.2,0-0.3,0-0.4-0.1c-0.2-0.1-0.2-0.2-0.3-0.3
		c-0.2-0.2-0.2-0.4-0.2-0.7l0.3,0C66,51.7,65.9,51.8,66,52z"/>
	<path class="st7" d="M74.7,51.4c0,0,0,0,0-0.1c0-0.1,0-0.2,0.2-0.3c0.1-0.1,0.3-0.2,0.6,0c0.1,0.1,0.1,0.1,0.2,0.2l0,0l0,0l0,0l0,0
		c0,0,0,0,0,0l0,0l0,0l0,0c0,0,0,0,0,0c0,0,0.2,0,0.4-0.1c0.1-0.1,0.3-0.3,0.3-0.3s0.1,0.2,0.1,0.4c0,0.1-0.1,0.3-0.2,0.5
		c-0.2,0.1-0.4,0.2-0.7,0.1c-0.1,0-0.1-0.1-0.2-0.1l0,0l0,0l0,0l0,0c0-0.1-0.1-0.2-0.1-0.1c0,0,0-0.1-0.1-0.1
		C74.9,51.3,74.8,51.3,74.7,51.4C74.7,51.4,74.7,51.4,74.7,51.4z"/>
	<path class="st8" d="M69.3,49c0,0,0.2-0.1,0.5-0.2c0.3-0.1,0.6-0.2,1-0.3c0.4,0,0.8,0,1.1,0c0.3,0,0.5,0.1,0.5,0.1
		s-0.2,0.1-0.5,0.2c-0.3,0.1-0.6,0.2-1,0.3c-0.4,0-0.8,0-1.1,0C69.5,49.1,69.3,49,69.3,49z"/>
	<path class="st3" d="M89.1,34.6c-0.1-0.2-0.3-0.5-0.5-0.5c-0.3,0-0.5,0.2-0.7,0.5c-0.3,0.4-0.5,0.7-0.7,1.1
		c-0.5,4.2-1.1,8.6-1.8,12.2c0.7-0.2,1.4-0.6,2-1c0.7-0.5,1.5-1,2-1.8c0.3-0.4,0.5-0.9,0.6-1.4C90.8,40.6,90.5,37.3,89.1,34.6z"/>
	<path class="st3" d="M54.5,35.9c-0.2-0.5-0.5-0.9-0.8-1.4c-0.2-0.2-0.4-0.5-0.7-0.5c-0.3,0-0.4,0.3-0.5,0.5c-1.4,2.7-1.7,6-0.9,8.9
		c0.1,0.5,0.3,1,0.6,1.4c0.5,0.8,1.3,1.3,2,1.8c0.6,0.4,1.3,0.9,2.1,1.1C55.6,44.4,55,40.1,54.5,35.9z"/>
	<path class="st1" d="M45.7,82.2c0,0-12.3,4.6-13.6,7.6c-1.3,3-1.6,55.5-2.3,59.4c-0.7,3.9-8.8,18-9.8,22.9
		c-0.7,3.6-1.8,21.6-2.3,31c2.8-0.8,6.2-1.7,8.6-1.9c1.9-0.2,3.6-0.4,4.9-0.6c2.9-8.8,8.5-26.1,8.7-30.2c0.3-5.5,1.9-17.3,1.9-17.3
		l5.2-42.6L45.7,82.2z"/>
	<path class="st1" d="M63.3,65.7c0,0,0.8,2.2,2.5,4.4c1.7,2.2,5,4.9,5,4.9s8.7-8.3,8.6-8.9c-0.1-0.6-0.2-1.5-0.2-1.5s2.9-0.4,2.7,0
		c-0.2,0.4-0.7,1.6-0.7,1.6l5.2,4c0,0-0.8,5.3-3.2,9.1s-4.5,5.4-4.5,5.4s-7.4-8.7-8-8.6c-0.7,0.1-6.4,10.1-6.4,10.1
		s-3.8-5.7-5.7-9.2c-1.9-3.6-1.6-5.4-1.6-5.4s4-4.5,4.1-5.1c0.1-0.7,0.2-1.5,0.5-1.6C62.1,64.8,63.3,65.7,63.3,65.7z"/>
	<path class="st3" d="M63.3,65.7c0,0,0.8,2.2,2.5,4.4c1.7,2.2,5,4.9,5,4.9s8.7-8.3,8.6-8.9c0,0,0,0,0,0c0-0.1,0-0.1,0-0.2
		c0,0,0,0,0,0c0-0.3-0.1-0.5-0.1-0.8c0-0.2,0-0.4,0-0.4l0,0c-0.2-1.9-0.4-4.4-0.4-7.1c-2.4,0.9-5.1,1.5-6.9,1.8c0,0.1-2.2,0.1-2.2,0
		c-1.7-0.3-4.1-0.9-6.4-1.7C63.5,59.5,63.6,62.9,63.3,65.7z"/>
	<path class="st9" d="M70.1,83.8c-0.4,0.9-0.8,1.8-1.2,2.7c-0.4,0.9-0.9,1.7-1.4,2.6l0-0.2c0.1,1.5,0.1,3,0.3,4.4
		c0.2,1.5,0.4,2.9,0.6,4.4c0.4,2.9,0.6,5.9,0.6,8.9l-0.1,0c-0.6-2.9-0.9-5.9-1.1-8.8c-0.1-1.5-0.1-3-0.2-4.4
		c-0.1-1.5-0.4-2.9-0.6-4.4l0-0.1l0-0.1c0.4-0.9,0.9-1.7,1.4-2.6C68.9,85.4,69.5,84.6,70.1,83.8L70.1,83.8z"/>
	<path class="st10" d="M72.2,78.3c-0.5-0.4-1.2-0.5-1.8-0.2c-0.2,0.1-0.4,0.2-0.6,0.2c-0.2,0-0.3-0.1-0.4-0.2c-1.5-1-3-2.2-4.8-2.5
		c-0.3,2.9-0.1,5.9,0.6,8.8c0.1,0.5,0.4,1.2,0.9,1.2c0.3,0,0.6-0.2,0.8-0.4c0.7-0.6,1.5-1.2,2.2-1.8c0.6,0.3,1.3,0.6,2,0.6
		s1.5-0.4,1.7-1.1c0.9,0.2,1.7,0.4,2.6,0.6c0.8,0.2,1.8,0.2,2.2-0.5c0.1-0.2,0.1-0.4,0.1-0.6c0.1-2-0.2-4.1-0.7-6
		c-0.1-0.4-0.3-0.8-0.7-0.9c-0.2,0-0.5,0.1-0.7,0.3C74.5,76.6,73.4,77.5,72.2,78.3z"/>
	<path class="st9" d="M70.8,93.6c0.7,0.5,1.8,0.2,2.3-0.5c0.5-0.7,0.2-1.8-0.5-2.3c-0.1-0.1-0.3-0.1-0.4-0.2
		c-0.8-0.1-1.4,0.8-1.6,1.6c-0.1,0.3-0.2,0.6-0.1,0.9C70.4,93.3,70.6,93.5,70.8,93.6z"/>
	<path class="st9" d="M72.2,101.1c-0.4,0.1-0.7,0.5-0.9,0.8c-0.4,0.6-0.8,1.6-0.2,2c0.3,0.2,0.7,0.2,1.1,0.1
		c0.8-0.2,1.4-0.9,1.5-1.6C73.7,101.7,72.9,100.9,72.2,101.1z"/>
	<path class="st4" d="M78.8,57.5c-2.4,0.9-5.1,1.5-6.9,1.8c0,0.1-2.2,0.1-2.2,0c-1.7-0.3-4.1-0.9-6.4-1.7c0.1,1.1,0.2,2.9,0.1,4.7
		c2.2,1.9,4.8,3.4,7.6,4.3c0.6,0.2,1.1,0.4,1.7,0.3c0.5-0.1,1-0.4,1.4-0.7c1.7-1.2,3.3-2.4,4.9-3.7C79,61.1,78.9,59.3,78.8,57.5z"/>
	<path class="st11" d="M86.4,40.7c0-0.8,0-1.6-0.1-2.5c-0.9,7-2.1,13.8-3.1,15.5c-1.4,2.5-7.9,4.3-11.3,4.9c0,0.1-2.1,0.1-2.1,0
		c-3.4-0.6-9.9-2.4-11.3-4.9c-1.1-1.9-2.5-10.2-3.4-18c-0.1,1.9-0.1,3.8,0.2,5.7c0.9,6.1,1.9,11.5,2.8,13c1.5,2.5,8.2,4.3,11.7,4.9
		c0,0.1,2.2,0.1,2.2,0c3.5-0.6,10.2-2.4,11.7-4.9c1-1.6,2.1-7.8,3-14.4C86.5,40.2,86.5,40.5,86.4,40.7z"/>
	<path class="st4" d="M69.5,43.8c0,0-0.1,0-0.1,0.1c-2.5,1.3,1.4,3.5,2.9,2.3C74.4,44.5,71,43.1,69.5,43.8z"/>
	<path class="st12" d="M68.9,35.6c-0.3-0.7-0.6-1.5-0.9-2.2c0.8,3.8,1,7.7,0.6,11.6c0.6-0.9,1.1-1.8,1.3-2.8
		C70.6,40,69.7,37.7,68.9,35.6z"/>
	<path class="st5" d="M84.4,32.5c-2.4-0.8-10.9-0.2-11.7,2.3c-0.3,0.8-0.4,2.1-0.3,3.5c-0.4-0.1-0.9-0.1-1.6-0.1
		c-0.8,0.1-1.3,0.3-1.6,0.5c0.1-1.5,0-3-0.3-3.9c-0.8-2.5-9.3-3.1-11.7-2.3c-1.6,0.6-2.8,9.9-0.8,11.7c2,1.9,8.8,2.1,10.8,0.7
		c0.9-0.6,1.5-2.5,1.8-4.5c0.3-0.1,0.7-0.2,1.2-0.2c0.7-0.1,1.6-0.1,2.3,0c0.3,2.1,0.9,4.1,1.9,4.8c1.9,1.3,8.7,1.1,10.8-0.7
		C87.2,42.4,86,33,84.4,32.5z M66.5,44.1c-1.7,1.1-7.5,1-9.2-0.6c-1.7-1.6-0.7-9.6,0.6-10.1c2-0.7,9.3-0.2,10,1.9
		C68.6,37.5,68.2,43,66.5,44.1z M84.3,43.5c-1.7,1.6-7.6,1.8-9.2,0.6c-1.7-1.1-2.1-6.6-1.4-8.8c0.7-2.2,8-2.6,10-1.9
		C85,33.9,86,41.9,84.3,43.5z"/>
	<path class="st6" d="M58.9,38c0-0.2,0.1-0.3,0.3-0.4c1.3-0.7,3.2-0.4,4.2,0.7c-1.3,0.6-2.9,0.6-4.2,0C59,38.2,58.9,38.1,58.9,38z"
		/>
	<path class="st6" d="M83.2,38.2c0-0.2-0.2-0.4-0.4-0.5c-1.7-0.9-3.9-0.5-5.2,0.9c1.6,0.8,3.6,0.7,5.2-0.1
		C83,38.4,83.1,38.3,83.2,38.2z"/>
	<path class="st4" d="M89,37.2c0.6,1.7,1.1,3.5,0.8,5.2c-0.3,1.8-1.7,3.4-3.5,3.6c0.7-0.6,0.9-1.6,0.9-2.6c0-0.9-0.2-1.9-0.2-2.8
		C87.1,39.3,87.9,38,89,37.2z"/>
	<path class="st13" d="M52.7,37.2c-0.6,1.7-1.1,3.5-0.8,5.2c0.3,1.8,1.7,3.4,3.5,3.6c-0.7-0.6-0.9-1.6-0.9-2.6
		c0-0.9,0.2-1.9,0.2-2.8C54.6,39.3,53.9,38,52.7,37.2z"/>
	<g class="st14">
		<g>
			<path class="st15" d="M87.5,41.3c-0.1,0-0.1,0.1-0.2,0.1c0.1-0.5,0.3-1,0.5-1.5c0.2-0.6,0.5-1.1,0.7-1.5c0.4-0.9,0.8-1.5,0.8-1.5
				s-0.5,0.5-1.1,1.3c-0.6,0.8-1.3,1.9-1.6,3.4c0,0.4,0,0.7,0.1,1.1c0.1,0.4,0.3,0.6,0.4,0.9c0.1,0.2,0.1,0.4,0.1,0.7
				c-0.1,0.2-0.2,0.5-0.3,0.6c-0.3,0.4-0.6,0.7-0.7,0.9c-0.2,0.2-0.2,0.4-0.2,0.4s0.1-0.1,0.3-0.3c0.2-0.2,0.6-0.4,0.9-0.8
				c0.2-0.2,0.4-0.4,0.5-0.7c0.1-0.3,0.2-0.7,0-1c-0.1-0.3-0.3-0.6-0.4-0.8c-0.1-0.3-0.1-0.6,0-0.8c0,0,0,0,0-0.1
				c0.1,0,0.1,0.1,0.3,0.1c0.3,0.1,0.7,0,1-0.2c0.3-0.2,0.5-0.5,0.6-0.7c0.1-0.2,0.1-0.4,0.1-0.4c0,0-0.6,0.3-1.1,0.6
				C87.9,41,87.7,41.2,87.5,41.3z"/>
			<path class="st15" d="M54.7,44.8c-0.1-0.2-0.3-0.4-0.3-0.6c0-0.2-0.1-0.5,0.1-0.7c0.2-0.3,0.3-0.5,0.4-0.9
				c0.1-0.4,0.1-0.7,0.1-1.1c-0.3-1.4-1-2.5-1.6-3.4c-0.6-0.8-1.1-1.3-1.1-1.3s0.3,0.6,0.8,1.5c0.2,0.4,0.5,1,0.7,1.5
				c0.2,0.5,0.4,1,0.5,1.5c-0.1,0-0.1-0.1-0.2-0.1c-0.2-0.1-0.4-0.2-0.6-0.4c-0.4-0.3-1-0.6-1.1-0.6c0,0,0,0.2,0.1,0.4
				c0.1,0.2,0.3,0.5,0.6,0.7c0.3,0.2,0.7,0.3,1,0.2c0.1,0,0.2-0.1,0.3-0.1c0,0,0,0,0,0.1c0,0.3,0,0.6,0,0.8c0,0.2-0.2,0.6-0.4,0.8
				c-0.2,0.3-0.1,0.8,0,1c0.1,0.3,0.3,0.5,0.5,0.7c0.4,0.4,0.7,0.6,0.9,0.8c0.2,0.2,0.3,0.3,0.3,0.3s-0.1-0.2-0.2-0.4
				C55.3,45.5,55,45.2,54.7,44.8z"/>
		</g>
	</g>
	<path class="st2" d="M31.2,200.5c2.9-8.8,8.5-26.1,8.7-30.2c0.3-5.5,1.9-17.3,1.9-17.3l5.2-42.6l-1.4-28.2c0,0-1.5,0.5-3.4,1.4
		c-0.1,21.4-1.4,42.8-4.1,64c-0.2,1.3-0.3,2.6-1,3.7c-1.6,2.4-5.2,2.8-6.5,5.4c1.4,0,2.9,0,4.3,0c0.5,7.9-2.4,15.7-6.7,22.3
		c-2.8,4.3-6.2,8.3-9.7,12.1c-0.3,4.4-0.5,8.7-0.7,12c2.8-0.8,6.2-1.7,8.6-1.9C28.3,200.9,30,200.7,31.2,200.5z"/>
	<path class="st16" d="M21.2,172.6c1-4.9,9.1-18.9,9.8-22.9c0.7-3.9,1-56.4,2.3-59.4c1.1-2.4,12.5-8.1,12.5-8.1s-12.3,4.6-13.6,7.6
		c-1.3,3-1.6,55.5-2.3,59.4c-0.7,3.9-8.8,18-9.8,22.9c-0.7,3.6-1.8,21.6-2.3,31C18.2,202.9,20.5,176,21.2,172.6z"/>
	<path class="st17" d="M42.7,119.6c-1.1-2.7,30.2-14.9,39.3-17.6c9.1-2.7,12-1.4,12.5,1.3c0.4,2.7,4.5,28.1,4.5,28.1
		s6.7,30.3,6.7,32.3c0,2-33.6,17.4-35.5,16.8c-1.9-0.7-1.9-1.8-1.9-1.8l-4.7-1.1c0,0-2.6,1-2.9-0.2c-0.3-1.1,0-1.5,0-1.5l-16-55.2
		L42.7,119.6z"/>
	<path class="st18" d="M51.9,120.7c0.3-0.9,33.7-11.3,37.8-13.6c4.1-2.3,3.3-4.7,0-5.1c-3.3-0.4-14.2,4-24,7.7
		c-9.8,3.7-19.5,8.3-19.5,8.3c-0.5,1.3,17.2,59.5,17.2,59.5l4.7,1.1C68.2,178.6,51.5,121.6,51.9,120.7z"/>
	<path class="st19" d="M56.7,155c-0.3,0.1-0.5,0.2-0.8,0.4c0.1,1.7,0.2,3.5,0.2,5.2l4,13.9c0.8-0.2,1.5-0.3,2.3-0.5
		C61.2,169.9,59,162.8,56.7,155z"/>
	<path class="st19" d="M99,131.4c0,0-4-25.3-4.5-28.1c0,1.2-0.2,2.4-0.5,3.4c-2.2,8.3-7.1,15.7-12,22.8c-5.9,8.8-12.4,18-21.3,23.4
		c2.3,7.9,4.4,15.4,5.8,20.2c9.1-1.8,18.3-3.1,27.5-2.7c6.4-3.1,11.6-6,11.6-6.8C105.7,161.7,99,131.4,99,131.4z"/>
	<path class="st1" d="M108.1,82.2c-0.4-4.1-15.2-7.4-15.2-7.4l1.6,28.5l4.5,28.1l-2.5,1.1c0,0-1.4,2.1-2,3.4
		c-0.4,0.8-8.6,7.5-14.6,12.3c1.8,1,3.8,2.2,4.4,2.8c0.8,0.8,2.2,6.2,3,10c11.2-5.2,31.1-14.7,31.9-15.9
		C120.3,143.3,108.6,86.3,108.1,82.2z"/>
	<path class="st20" d="M77.1,146.7c0,0-0.7,2.6-1.5,3.1c-0.8,0.5-5.6,2.8-5.6,2.8s-3.3-1.8-3.6-1c-0.3,0.8,6.3,15.8,7.2,16.5
		c0.9,0.7,3.4-1,3.4-1s8-3.7,8.8-3.6c0.8,0.2,2,2.2,2,0.9c0-1.4-2.4-12.3-3.6-13.4C83.2,149.8,77.1,146.7,77.1,146.7z"/>
	<path class="st2" d="M108.2,131.3c-3.3-1.2-4-5.5-4.1-9c-0.4-12.2-0.9-24.4,1.3-36.4c0.3-1.8,0.8-3.7,1.6-5.5
		c-3.5-3.2-14.1-5.6-14.1-5.6l1.6,28.5l4.5,28.1l-2.5,1.1c0,0-1.4,2.1-2,3.4c-0.4,0.8-8.6,7.5-14.6,12.3c1.8,1,3.8,2.2,4.4,2.8
		c0.8,0.8,2.2,6.2,3,10c11.2-5.2,31.1-14.7,31.9-15.9c0.2-0.3,0-2.4-0.5-5.7c-8.8,6.4-19.2,10.7-30,12.2
		C93,143,99.9,135.9,108.2,131.3z"/>
	<path class="st9" d="M87.9,164.4c0-1.4-2.4-12.3-3.6-13.4c-0.3-0.3-0.9-0.7-1.6-1.2c1.6,3.3,2.3,7.2,2.9,10.9
		c-1.6,0.2-3.3,0.6-4.8,1.3c-4.4-3.9-9-7.4-13.9-10.5c-0.1,0-0.2,0.1-0.3,0.2c-0.3,0.8,6.3,15.8,7.2,16.5c0.9,0.7,3.4-1,3.4-1
		s8-3.7,8.8-3.6C86.8,163.7,87.9,165.7,87.9,164.4z"/>
	<path class="st21" d="M69.3,155.5c0,0-8.2-3.3-9.6-3.6c-1.5-0.3-7.2-1.5-7.3,0c-0.2,1.5,0,3.6,0,3.6s-5.3,4.6-5.2,5.4
		c0.1,0.8,3.1,6.2,4.2,7.3c1.1,1.2,3.3,3.3,4.7,3.3c1.5,0,16.7-4.4,17.7-5.1C74.7,165.8,69.3,155.5,69.3,155.5z"/>
	<path class="st13" d="M63.2,153.1c0.9,1.9,0.9,4.2,0,6c-1.2,2.2-3.4,3.5-5.6,4.5c-2.5,1.1-5.2,1.7-7.9,1.9c0.7,1.2,1.4,2.2,1.8,2.6
		c1.1,1.2,3.3,3.3,4.7,3.3c1.5,0,16.7-4.4,17.7-5.1c0.9-0.7-4.5-10.9-4.5-10.9S66,154.2,63.2,153.1z"/>
	<path class="st22" d="M48.1,161.8c-0.1-0.8,5.2-5.4,5.2-5.4s-0.2-2.1,0-3.6c0.2-1.5,5.9-0.3,7.3,0c1.2,0.3,7.3,2.7,9.1,3.4
		c-0.2-0.5-0.4-0.8-0.4-0.8s-8.2-3.3-9.6-3.6c-1.5-0.3-7.2-1.5-7.3,0c-0.2,1.5,0,3.6,0,3.6s-5.3,4.6-5.2,5.4
		c0.1,0.8,3.1,6.2,4.2,7.3c0.2,0.2,0.4,0.4,0.6,0.6C50.7,167.2,48.2,162.6,48.1,161.8z"/>
	<path class="st16" d="M108.1,82.2c-0.4-4.1-15.2-7.4-15.2-7.4l0,0.4c3.8,1,13.3,3.8,13.6,7c0.4,4.1,12.2,61.1,11.1,62.8
		c-0.7,1.2-30.4,15.7-30.3,15.9c11.2-5.2,31.1-14.7,31.9-15.9C120.3,143.3,108.6,86.3,108.1,82.2z"/>
	<path class="st23" d="M92.4,104.2c-0.1,0.9-1,1.9-2.7,2.9c-4.1,2.3-37.5,12.7-37.8,13.6c-0.2,0.5,4.1,15.6,8.3,30.3
		c-1.5-6.6-6.4-28.2-6.4-29.5c0-1.5,21.1-7.2,31.1-11.1C94.9,106.5,92.4,104.2,92.4,104.2z"/>
	<path class="st16" d="M58.9,72c0,0,3.5-3.8,2.9-4.6c-0.5-0.8-0.3-2.6,1.5-1.7l0,0l0,0c0,0-1.2-0.9-1.5-0.8c-0.3,0.1-0.4,1-0.5,1.6
		c-0.1,0.7-4.1,5.1-4.1,5.1s-0.3,1.9,1.6,5.4c1.9,3.6,5.7,9.2,5.7,9.2s-3.9-8.4-5-11C58.4,72.8,58.9,72,58.9,72z"/>
	<path class="st16" d="M80.4,65.5c-0.2,0.3-0.5,1.9-0.5,1.9l5.5,3.2c0,0-1,8.8-6.5,14.2c0,0,2.1-1.6,4.5-5.4
		c2.4-3.8,3.2-9.1,3.2-9.1l-5.2-4c0,0,0.4-1.2,0.7-1.6c0.2-0.4-2.7,0-2.7,0S80.6,65.1,80.4,65.5z"/>
	<path class="st24" d="M77.4,78.1c-0.2,0.4-0.4,0.7-0.7,1.1c-0.6,0.7-1.2,1.4-2.1,1.7c-0.9,0.3-2,0.1-2.5-0.6c0.3,1-0.6,2.3-1.7,2.2
		c-1.1,0-1.9-1.3-1.6-2.3c-0.4,0.8-0.9,1.6-1.8,1.9c-0.8,0.3-1.7-0.1-2.4-0.7c0.1,1,0.3,2,0.5,2.9c0.1,0.5,0.4,1.2,0.9,1.2
		c0.3,0,0.6-0.2,0.8-0.4c0.7-0.6,1.5-1.2,2.2-1.8c0.6,0.3,1.3,0.6,2,0.6c0.7,0,1.5-0.4,1.7-1.1c0.9,0.2,1.7,0.4,2.6,0.6
		c0.8,0.2,1.8,0.2,2.2-0.5c0.1-0.2,0.1-0.4,0.1-0.6C77.7,81,77.6,79.5,77.4,78.1z"/>
	<path class="st25" d="M62.3,13.8c0.6,0.1,1,0.5,1.3,1.1c0.4,0.3,0.8-0.2,1.1-0.6c1.8-2.1,1.4,1.9,1.6,2.2c0.7,0.8,1.4,1.7,2.4,1.8
		c1,0.2,2.2-0.9,1.7-1.8c1.3-0.2,2.7-0.4,4-0.7c0.6,1,1.7,1.7,2.9,1.7c0,0.6,0,1.2,0,1.8c1.1,0.2,2.3,0.3,3.4,0.3
		c1.7,0.3,2.8,2.3,2.3,3.9c0.9-0.4,2,0.2,2.5,1.1c0.5,0.8,0.6,1.9,0.6,2.9c0.1,3,0.3,6.1,0.4,9.1c1.3-3.3,2.7-6.7,4-10
		c0.3-0.8,0.7-1.7,0.8-2.6c0.2-1.9-0.7-3.8-0.2-5.6c0.3-1.3,1.2-3,0-3.7c-0.5-0.3-1.1-0.2-1.7-0.2c-1-0.1-1.8-0.8-2.5-1.5
		c-2.4-2.1-4.7-4.2-7.1-6.3c-2.6,0.8-5.8,1.4-7.7-0.5c-0.4-0.4-0.8-1-1.3-1.2c-0.5-0.2-1-0.1-1.4,0c-3.1,0.5-6.1,1.1-9.2,1.6
		C59.2,6.7,58,7,57.2,7.7s-1.2,2.1-0.4,2.9c-2.3,0.2-3.9,3.2-2.9,5.3c-1.1,0.8-2.2,1.5-3.3,2.3c0.9,0.6,0.1,2,0.1,3.1
		c0,1,0.7,1.8,1.1,2.7c0.4,0.9,0.1,2.3-0.9,2.3c1.2,0.4,1.4,1.9,1.5,3.2c0.3,2.5,1.2,4.9,2.7,6.9c0.1-2.9,0.2-5.8,0.3-8.7
		c0.1-1.4,0.4-3.2,1.8-3.4c-0.1-0.4-0.2-0.7-0.2-1.1c1.7,0.4,3-2.4,1.7-3.5c0.8-0.3,1.5-0.6,2.3-0.9c0-0.5,0.1-1,0.1-1.4
		c-0.8,0.7-2.3-0.3-2-1.4c0.4-1.2,2-1.1,2.8-0.6c-0.1-0.4,0.2-1.1,0.1-1.5C62.1,13.8,62.2,13.8,62.3,13.8z"/>
</g>
</svg>
