<?xml version="1.0" encoding="utf-8"?>
<!-- Generator: Adobe Illustrator 23.0.1, SVG Export Plug-In . SVG Version: 6.00 Build 0)  -->
<svg version="1.1" id="Ñëîé_9__x28_êîïèÿ8_x29_"
	 xmlns="http://www.w3.org/2000/svg" xmlns:xlink="http://www.w3.org/1999/xlink" x="0px" y="0px" viewBox="0 0 1313 1299.1"
	 style="enable-background:new 0 0 1313 1299.1;" xml:space="preserve">
<style type="text/css">
	.st0{fill:#6B393A;}
	.st1{fill:#FDA68A;}
	.st2{fill:#FFC853;}
	.st3{fill:#608C8B;}
	.st4{fill:#466665;}
	.st5{fill:#D9886E;}
	.st6{fill:#AF6C51;}
	.st7{fill:#FFFFFF;}
	.st8{fill:#42210B;}
	.st9{fill:#33271B;}
	.st10{fill:#485A7E;}
	.st11{fill:#DB6E57;}
	.st12{fill:#9C4345;}
	.st13{fill:#A3C6D4;}
	.st14{fill:#FAD4B0;}
	.st15{fill:#82383A;}
	.st16{fill:#242B45;}
	.st17{fill:#333333;}
	.st18{fill:#B86553;}
	.st19{fill:#A14F3D;}
	.st20{fill:#FA5371;}
	.st21{fill:#4F3E36;}
	.st22{fill:#ED6B55;}
	.st23{fill:#D24B38;}
	.st24{opacity:0.2;fill:#4F3E36;}
	.st25{fill:#7F7C80;}
	.st26{fill:#585558;}
</style>
<path class="st0" d="M122.8,567.2c51.6-68.1,140.2-34.5,159.3,5.3c14.2,29.6,8.3,63.6,11.5,95.2c9.3,90.2-35.3,108-81.9,107.8
	c-48.9-4.1-71.7-14.9-85.7-23c-28.5-16.6-47.5-30.2-44.4-62.9C87.9,623.6,109.4,584.8,122.8,567.2z"/>
<path class="st1" d="M163.6,674.6c0,27.8,7.1,51.6-17.6,74.4c-14.3,13.2-57.4,17.7-76.8,27.6c-26.4,13.6-37,44.6-40.7,83.3h334.9
	c-7.7-32.1-13-45.3-20.4-60.6c-16.1-33.1-69.6-28.4-95-53.7c-10.9-10.8-7.6-38.1-2.9-79.4C249.3,630.4,163.6,626.4,163.6,674.6z"/>
<path class="st2" d="M363.5,859.9H28.6c3.7-38.7,14.2-69.7,40.7-83.3c9.9-5.1,26.2-8.7,41.6-12.9c9,16.6,98.6,67.2,150.8,17
	c6.5-6.3,12.7-13,17-17.9c25,9,53.5,14,64.4,36.5C350.5,814.6,355.8,827.8,363.5,859.9z"/>
<path class="st3" d="M193.8,859.9H28.6c3.7-38.7,14.2-69.7,40.7-83.3c11.2-5.7,30.4-9.6,47.3-14.5c9.7-2.8,18.6-5.8,24.9-9.7
	C150.5,776.5,176.4,829.1,193.8,859.9z"/>
<path class="st3" d="M277.9,845.7c2.2-2.6,4.4-5.5,4.7-8.9c0.4-4.3-14.3-25.4-17.2-28.6c9.8,0.9,21.6,0.2,24-4.4
	c1.3-2.4,1-5.4,0.7-8.2c-1.3-10.4-3.1-20.7-5.6-30.9c23.5,7.8,48.5,13.7,58.6,34.5c7.5,15.3,12.7,28.5,20.4,60.6h-97.2
	C270.1,855.2,274,850.4,277.9,845.7z"/>
<path class="st4" d="M193.8,859.9h-34.7c-8.4-6.3-16.9-12.6-25.3-19c-3.5-2.6-7.3-5.9-7.5-10.2c-0.3-7.5,14.3-20.8,14.3-20.8
	c-5.3,1.5-14.7,2.9-20.1,2.7c-8-0.3-8.1-8.7-8-11.5c0.7-14.1,2-25.1,4-39.1c9.7-2.8,18.6-5.8,24.9-9.7
	C150.5,776.5,176.4,829.1,193.8,859.9z"/>
<path class="st4" d="M289.4,803.8c-2.4,4.6-14.2,5.2-24,4.4c3,3.2,17.6,24.3,17.2,28.6c-0.3,3.4-2.6,6.3-4.7,8.9
	c-3.9,4.7-7.8,9.4-11.7,14.2h-33.5c6.1-17.1,11.4-34.5,16-52.1c4.5-17.6,8.3-35.3,11.3-53.2c7.4,4.2,15.8,7.4,24.4,10.2
	c2.5,10.2,4.3,20.5,5.6,30.9C290.5,798.4,290.7,801.4,289.4,803.8z"/>
<path class="st5" d="M242,732.7c-2.5-12.5-0.8-31.4,2-56.1c-24.7,2.1-59.9,5.9-80.2,7.1c0.2,5.4,0.5,10.6,0.7,15.6
	c0,0.1,0,0.2,0,0.2c0,1.5,0.1,3.1,0.1,4.6c0,0.3,0,0.6,0,0.9c0,1.1,0,2.3-0.1,3.4c0,0.6-0.1,1.1-0.1,1.7c-0.1,0.9-0.1,1.7-0.2,2.6
	c-0.1,0.6-0.1,1.3-0.2,1.9c-0.1,0.8-0.2,1.6-0.3,2.4c-0.1,0.6-0.2,1.3-0.3,1.9c-0.2,0.8-0.3,1.6-0.5,2.4c-0.1,0.6-0.3,1.2-0.4,1.8
	c-0.3,1.3-0.7,2.6-1.2,3.9c-0.2,0.6-0.5,1.2-0.7,1.8c-0.3,0.7-0.6,1.5-0.9,2.2c-0.3,0.7-0.6,1.3-1,2c-0.4,0.7-0.7,1.4-1.1,2.1
	c-0.4,0.7-0.8,1.3-1.2,2c-0.4,0.7-0.9,1.4-1.4,2.1c-0.5,0.6-0.9,1.3-1.4,1.9c-0.6,0.8-1.3,1.5-1.9,2.3c-0.5,0.6-0.9,1.1-1.4,1.7
	C168.9,758.4,221.8,760.6,242,732.7z"/>
<path class="st1" d="M276.7,631.3c-2.1,9.1,7,18.7-4.6,47.2c-10,24.7-28.8,46.2-38.3,46.8c-18.5,1.1-61.2-8.6-74.3-48.7
	c-4.6-14.2-4.8-45.7-3.8-53c1.4-10.8,4.4-27.4,7.9-36.3c8.4-21.3,20.7-29,27.8-32.2c19.4-9,34.3-8.9,57.7-1.3
	C268.9,560.3,286.6,589.7,276.7,631.3z"/>
<path class="st6" d="M229.9,619c0.8,0,1.6-0.3,2.5-0.7c2.3-1.2,1.7-3.5-0.2-4.7c-5.1-3.1-11.1-4.9-17-5.4c-4.3-0.4-8.7,0-12.8,1.3
	c-1.3,0.4-5.3,1.4-5.6,3.1c-0.4,2.5,6.6,2.2,7.8,2.2c4.7,0.3,9.4,0.2,14.1,1.3c2,0.5,4.1,1,6,1.8C226.6,618.5,228.2,619.1,229.9,619
	z"/>
<path class="st0" d="M186,540.6c24.1-7.2,56.2-0.9,80,19.5c25.2,21.6,25.3,62.7,12.5,75.1c7.5-37.5-2.5-53.3-14.1-58.7
	c-36.5,41-77.9,47-104.8,50.7c-7.8,1.1-2.1,23.6-1.1,31.4c2.7,20,15.5,91.1,66.1,116.8c-53.9,2.3-100.2-18.2-118.2-40.3
	c-17.2-21.1-18.6-49.2-14.8-81C98.5,596.5,163.4,550,186,540.6z"/>
<path class="st1" d="M159.5,628.6c-1.1-3.2-8.6-19.5-16.2-12.8c-4.4,4-2.5,15.1,1.2,25.5c3.5,9.6,11.9,18.1,13.7,18.7
	C160.2,660.6,159.5,628.6,159.5,628.6z"/>
<path class="st6" d="M260.7,623.6c-0.5,0-1-0.2-1.7-0.6c-1.6-1-1.7-3-0.7-4.1c2.5-2.8,5.9-4.4,9.4-4.9c2.5-0.3,5.3,0,8,1
	c0.9,0.3,2.7,1.2,3.2,2.7c0.6,2.2-2.9,1.9-3.6,2c-2.8,0.3-5.7,0.3-8.3,1.2c-1.2,0.4-2.3,0.9-3.4,1.6
	C262.6,623.1,261.7,623.7,260.7,623.6z"/>
<g>
	<g>
		<path class="st5" d="M255.7,627c-2.6,4.6-4.5,9.7-5.1,14.7c-0.3,2.5-0.3,5,0.4,7.2c0.3,1.1,0.7,2.2,1.3,3.1c0.3,0.5,0.6,0.9,1,1.4
			l1.2,1.5c1.8,2.3,3.6,5.1,3.8,8.7c0.1,1.8-0.3,3.7-1.2,5.4c-0.9,1.7-2.3,2.9-3.7,3.8c-2.9,1.8-6.1,2.2-9.1,1.9
			c-3-0.4-6-1.8-7.6-4.2l0.4-0.4c2.4,1.3,4.9,1.3,7.2,1c2.3-0.4,4.5-1.3,6-2.6c1.5-1.3,2.1-2.8,2-4.5c0-1.7-0.9-3.9-2.1-5.9
			l-1.1-1.8c-0.4-0.7-0.7-1.4-1-2.1c-0.6-1.4-1-2.9-1.2-4.4c-0.4-3-0.1-6,0.6-8.7c1.5-5.5,4.3-10.3,7.8-14.4L255.7,627z"/>
	</g>
</g>
<path class="st7" d="M258,686.7c0.2-1.1-0.9-2.3-2.3-2.1c-9.5,1.8-24.6,3.9-40.7-2.2c-10.4-3.9-4.1,12.5,8.4,17.5
	c10.5,4.2,16.3,2.5,23.2-0.6C252,696.9,257.4,689.3,258,686.7z"/>
<path class="st8" d="M260.8,641.5c-0.9,3.5,0.7,6.9,3.6,7.7c2.9,0.8,6-1.4,6.9-4.9c0.9-3.5-0.7-6.9-3.6-7.7
	C264.8,635.8,261.7,638,260.8,641.5z"/>
<path class="st8" d="M206.4,637.1c0.5,3.7,3.3,6.4,6.4,6c3.1-0.4,5.2-3.7,4.7-7.4c-0.5-3.7-3.3-6.4-6.4-6
	C208.1,630.1,206,633.4,206.4,637.1z"/>
<g>
	<path class="st9" d="M604.6,121.3C622,81,666.2,68.6,678.9,79c0,0,3.5-11.8,24.4-10.9c17.4,0.8,38.7,8.3,54.3,26.2
		c23.8,27.1,28.1,51.3,27,72.6c-0.8,16.9-146.1,39.3-164.5,29.8C601,186.8,595.8,141.7,604.6,121.3z"/>
	<path class="st1" d="M638.1,226.2c0,27.8,16.3,58.8-8.4,81.6c-14.3,13.2-48.5,13.8-68.7,21.7c-23,8.9-46.9,45.2-56.5,81.4h327.1
		c-5.7-20.7-9.1-37.5-16.5-52.8c-16.1-33.1-58-28.4-83.4-53.7c-10.9-10.8-9.7-47.7-4.9-89.1C730.9,179.6,638.1,178,638.1,226.2z"/>
	<path class="st10" d="M831.7,411H504.5c9.6-36.2,31.4-69.7,56.5-81.4c15.3-7.1,31-7,46.3-11.1c6.6,3.7,12.5,8.8,16.9,14.9
		c15.5,21,26.5,65.8,54.7,65.8c3.7,0,7.6-1,12-2.4c29.5-9.6,51.3-73.4,71.1-74c20.9,8.4,42.6,13.8,53.2,35.6
		C822.6,373.5,825.9,390.3,831.7,411z"/>
	<path class="st5" d="M724,280.4c-0.5-5.4-0.7-11.5-0.6-18.1c0-9.2,0.7-19.9,1.8-31.9c-27,2.3-59.5,2.8-86.6,4.5
		c0.6,5.8,1.7,11.4,2.7,16.8c0.2,0.9,0.3,1.7,0.5,2.5c0,0.2,0.1,0.5,0.1,0.7c0.2,1.2,0.4,2.4,0.6,3.6c0.4,2.6,0.7,5.1,0.8,7.5
		c0.1,1.9,0.2,3.9,0.1,5.8c0.3,8.6-0.7,16.9-4.7,24.6C650,313,700.8,314.9,724,280.4z"/>
	<path class="st1" d="M747.8,178.1c-1.3,9.2,8.6,18.1,2.5,44.9c-5.9,26-36.2,62.4-51.2,64.6c-8.7,1.2-48-12.9-68-55.6
		c-10.2-21.8-11.8-49.1-11.5-56.5c0.4-10.8,3.9-20.4,5.6-29.8c3.7-20.2,10.6-34.5,25.7-39.2c15.8-4.9,38.2-8.4,62.1-3
		C733.5,108.2,753.8,135.8,747.8,178.1z"/>
	<path class="st1" d="M624.4,197.9c-0.1-0.3-3.3-4.7-4.6-6.4c-2.5-3.4-9.6-8.5-14.3-2.6c-3.7,4.6,1.2,15.3,7.3,24.4
		c5.7,8.5,15.9,14.8,17.8,14.9C632.4,228.4,625.4,201.8,624.4,197.9z"/>
	<path class="st6" d="M690.4,179c1.1-2.1-6.5-3.6-8.6-4.2c-5.4-1.4-11.2-1.3-16.6-0.1c-3.9,0.8-7.7,2.4-11.1,4.6
		c-1.1,0.7-4.4,2.6-4.1,4.2c0.4,2.2,6.5,0.2,7.6-0.2c9.3-3.2,12.7-3.1,19.3-2.8C680.1,180.7,688.5,182.8,690.4,179z"/>
	<g>
		<g>
			<path class="st5" d="M707,191.3c0.4,4.3,1.2,8.6,2.6,12.7c1.3,4,3.2,7.8,6,10.5l1.1,0.9c0.3,0.3,1.1,0.9,1.5,1.5
				c1,1.2,1.8,3,1.7,4.8c-0.2,3.6-2.2,5.8-4,7.5c-3.7,3.3-7.9,5.2-12.5,6l-0.3-0.5c3.1-3.4,6.3-6.3,8.7-9.4c1.2-1.5,2-3.1,2.1-3.9
				c0.2-0.8,0-1.4-2.1-3.7c-3-4-4.4-8.6-5.2-13c-0.7-4.5-0.8-9-0.2-13.4L707,191.3z"/>
		</g>
	</g>
	<path class="st7" d="M724.3,249.8c0.4-1.1-0.9-2.3-2.2-2.1c-9.5,1.5-24.7,3.2-40.6-3.4c-10.2-4.2,0.3,13.6,7.9,17.8
		c10,5.5,18.7,4.1,25.2-0.1C719.9,258.6,723.1,253.5,724.3,249.8z"/>
	<path class="st8" d="M723.9,195.2c0.3,3.4,2.6,5.9,5.2,5.7c2.6-0.2,4.4-3.1,4.1-6.5c-0.3-3.4-2.6-5.9-5.2-5.7
		C725.5,189,723.6,191.9,723.9,195.2z"/>
	<path class="st8" d="M671,199.2c1.2,3.2,4.5,4.8,7.4,3.7c2.8-1.1,4.1-4.6,2.9-7.7c-1.2-3.2-4.5-4.8-7.4-3.7
		C671.1,192.6,669.8,196.1,671,199.2z"/>
	<path class="st9" d="M619.6,124.3c14.6-27.3,49-38.4,69.8-40.6c20.4-2.2,45.4,1.9,66.5,18.4c22.5,17.6,26.8,42.1,28.5,52.3
		c5.5,32.1-15.1,72.8-32.6,81.9c7.3-17.9-1.4-53.2-19.9-72.2c-0.7,6.8,0.3,14.2,9.3,26.7c-16.5,1.4-42.5-7.4-51.3-36.1
		c-3.1,5.2-1.6,14.6,5.3,28.1c-21.7-0.1-43.9-23.2-41.7-49.4c-20.6,13.2-22.2,47.5-24.9,59.2c-3.3,14.6-6.5,5.7-9-2.6
		C614.8,174.2,607.5,146.9,619.6,124.3z"/>
</g>
<path class="st1" d="M1259.5,1217.5c-12.5-6.4-26.2-10.6-39.4-15.3c-10.7-3.7-22.1-6.4-32.2-12c-12.1-6.8-18-17.5-20.2-31
	c-2.7-16.4-1.1-37.2-1.1-47.2c0-22.4-20.1-34.1-41.1-36.5c-0.2-0.1-0.3-0.1-0.5-0.1c-0.2,0-0.3,0-0.5-0.1
	c-21.1,2.6-41.1,14.2-41.1,36.6c0,10,1.6,30.8-1.1,47.2c-2,12.2-7.9,24-19.1,30c-14.7,7.8-31.4,12.2-47,17.8
	c-8.7,3.1-17.5,6.2-25.7,10.4c-26.4,13.6-37,40.7-40.7,79.4h174.7h1h174.7C1296.5,1258.2,1285.9,1231,1259.5,1217.5z"/>
<path class="st4" d="M1300.1,1296.9H949.7c3.7-38.7,14.2-65.9,40.7-79.4c8.2-4.2,17-7.3,25.7-10.4c15.6-5.6,32.3-9.9,47-17.8
	c0.3-0.2,0.7-0.4,1-0.6c14.7,29.3,36.5,47.8,60.9,47.8c24.3,0,46-18.4,60.7-47.5c0.7,0.4,1.5,0.9,2.3,1.3c10.1,5.6,21.6,8.2,32.2,12
	c13.2,4.7,26.9,8.9,39.4,15.3C1285.9,1231,1296.5,1258.2,1300.1,1296.9z"/>
<path class="st5" d="M1167.8,1160c0-0.2-0.1-0.4-0.1-0.7c-0.4-2.2-0.6-4.5-0.9-6.9c-0.9,0.9-1.9,1.7-2.8,2.5
	c-10.9,9.1-25.1,15.1-39.5,14.8c-14.2-0.3-27.8-6.1-38.6-15.3c-0.9-0.8-1.9-1.7-2.8-2.5c-0.2,2.5-0.5,4.9-0.9,7.3
	c-1.6,9.8-5.8,19.4-13.3,25.8C1116.1,1201,1156.4,1181.1,1167.8,1160z"/>
<path class="st11" d="M1268.7,1063.9c-3.5-5-9.9-9.5-10.3-16.1c-0.3-4.7,2.8-8.9,3.7-13.5c1-5.4,1.2-14.1-5.4-17.4
	c-3.4-1.7-7.3-2.4-10.9-3.6c-3.6-1.3-7.3-4-7.6-7.8c-0.2-2,0.6-3.9,1.3-5.8c1.3-3.6,2.5-7.4,2.5-11.2c0-4.7-1.1-9.4-4.5-12.7
	c-3.5-3.4-7.9-5.9-12.6-7c-2.8-0.7-5.6-0.9-8.3-1.9c-4.7-1.7-8.5-5.7-10.2-10.3c-1.8-4.9-1.6-8.4-5.1-12.3c-3.2-3.5-7-6.6-11.3-8.7
	c-8.4-4.2-18.4-5.3-27.4-2.3c-7,2.3-15,7.1-22.5,4c-7.9-3.2-12.3-10.7-20.8-13.3c-7.7-2.4-16.5-0.8-22.6,4.5
	c-4.6,4-9.4,7.4-13.9,11.9c-4.2,4.2-8.7,7.4-15,6.5c-3.1-0.4-6.2-1.3-9.4-1.5c-8.1-0.3-14.9,2.4-18.5,10.4c-2.6,5.7-4,12.4-8.5,16.6
	c-2.6,2.4-6.3,2.9-9.8,3.5c-5.9,1-13.5,2.8-17.5,7.6c-3.8,4.6-3.7,11.4-2.9,17c0.5,3.1,1.1,6.2,0.7,9.2c-1.2,8.6-12.7,9.5-14.5,19.8
	c-2.4,14,5.8,21.3,5.9,26.8c0.5,16-15.8,16.9-11.9,35.4c1.1,5.3,10.8,11.4,11,16.8c0.2,5.7-3.8,9.6-6.1,14.5
	c-2.9,6.2-1.8,11.6,1.6,17.4c2.2,3.8,4.3,7.9,4.5,12.3c0.4,5.8-2.6,11.4-1.7,17.2c1.4,8.9,12,11.3,14.9,19.4
	c3.8,10.4,0.4,13.7,9.3,22.8c5.4,5.5,13.2,7.2,16.9,14.5c3.7,7.3-0.1,16.5,4.9,23.7c6.8,9.8,13.6,4.6,19.2,11.6
	c2,2.4,4.8,8.3,7.2,10.4c3.5,3,6.4,4.6,10.8,3.2c4.4-1.3,8-5,9.2-9.5c1.3-4.8-0.1-10.2,1.8-14.8c2.3-5.8,9.1-9.2,10.3-15.3
	c1-5-2.3-9.8-5.6-13.6c-3.4-3.8-7.2-7.8-7.7-12.9c-0.8-8,4-17.6,6.3-25.1c2.4-7.9,1.1-25-5-32.4c-3.1-3.7,5.1-17.3,7.8-20.4
	c8.5-9.5,21-6.9,33.2-7c12-0.1,24,3,34.5,8.8c13.1,7.2,11.1,8.8,6.3,19c-5.4,11.4-10.7,33.2-3.2,43.7c2.5,3.4,5.7,7.6,3.8,11.4
	c-0.5,1-1.3,1.7-2.1,2.5c-7.3,7.6-10.6,18.8-8.5,29.2c1.2,5.7,3.1,11.4,2.4,17.3c-0.6,4.9-3.5,11.4,0.8,15.4
	c2.9,2.6,10,3.6,13.5,1.8c1.5-0.8,2.7-1.9,3.9-3c3.8-3.5,8.5-9.9,13.6-11.2c4.6-1.2,9.7,2.4,13.7-1.7c1.2-1.2,1.8-2.8,2.3-4.4
	c0.9-2.9,1.5-5.9,1.9-8.9c0.2-1.4,0.3-2.9,0.8-4.2c3.9-10.9,19.8-5.9,23.9-16.6c0.8-2.2,0.9-4.5,1-6.8c0.2-5.9,0.6-12.1,3.1-17.5
	c3-6.6,6.4-5.8,12.3-8.4c1.4-0.6,2.6-1.6,3.5-2.8c3.2-4.1,3-9.9,2.1-15c-0.9-5.1-2.4-10.4-1.5-15.5c0.6-3.5,2.4-6.7,5-9.1
	c1.6-1.5,3.4-2.6,5-4.1c15.4-14.9-7.4-36.3,2.2-52.4c1.2-2.1,2.9-3.9,4.2-6c0.4-0.5,0.7-1.1,1-1.7
	C1272.8,1077.8,1272.8,1069.8,1268.7,1063.9z"/>
<path class="st1" d="M1188.3,1103.5c-1,3.9-2.3,8.6-4.1,14.4c-4.4,14.3-8.8,27.4-20.3,37c-10.9,9.1-25.1,15.1-39.5,14.8
	c-14.2-0.3-27.9-6.1-38.6-15.3c-11.2-9.6-15.4-22.6-19.7-36.6c-1.8-5.8-3.1-10.5-4.1-14.4c-4.4-17.6-5.1-18.7-3.1-33.4
	c0.1-0.5,0.1-1,0.2-1.6c1-8.7,1.9-17.1,3-25c3-21.6,8.3-38.9,27.2-47.7c11.8-5.5,24.4-6.4,35.7-7.2c0,0,0.5,0,0.5,0
	c11.3,0.7,23.9,1.6,35.7,7.1c18.9,8.8,24.2,26.2,27.2,47.7c1.1,7.8,1.9,16.2,3,25c0.1,0.5,0.1,1,0.2,1.6
	C1193.5,1084.7,1192.7,1085.9,1188.3,1103.5z"/>
<path class="st11" d="M1089.2,968.5c12-5.1,25.3-7.7,39.2-7.8c16.4-0.1,32.8,4.7,46.8,13.2c21.1,12.8,35.1,35.7,38,60.1
	c1.3,11.1,0.6,23.3-3.1,33.9c-2.7,8-12.3,19.8-18,7.1c-1.3-2.9,1.4-5.1-1-7.2c-5.3-4.8-8.3-10.9-10.1-20.5
	c-2.1-11.2-14.2-16.5-18.2-24.1c-3.7-7-4.2-12.6-11.5-16.6c-1.1-0.6-2.4-1.3-3.7-1.2c-2.9,0.1-4.6,3.2-6.7,5.2c-6,5.5-14,1.6-21,1.2
	c-10-0.6-19.2,6.2-24.7,14.1c-5.4,7.6-8.1,17.8-16,22.7c-4.1,2.5-9.1,3.4-13,6.3c-8,6.1-10.2,18.2-13.1,27.3
	c-1.1,3.4-1.3,7.7-4.5,9.6c-13.2,7.9-18.3-18-17.9-25.6c0.9-17.7,4.9-36.5,12.3-52.6C1052.9,992.2,1069.2,977,1089.2,968.5z"/>
<g>
	<g>
		<path class="st5" d="M1125,1068.5c0.8,4.3,1.1,8.7,1,13.2c-0.2,4.4-1,9-2.7,13.4c-1.1,2.4-1.8,3.9-1.9,5.3c0,1.2-0.1,1.3,1.2,2.3
			c2.6,1.7,7.2,2.5,11.4,3.6l0.1,0.6c-2.1,1-4.3,1.5-6.7,1.8c-2.3,0.2-4.8,0.2-7.4-0.9c-1.3-0.5-2.8-1.5-3.7-3.2
			c-1-1.7-1-3.6-0.7-5.1c0.6-2.9,2.5-5.1,3.4-6.5c2-3.4,3.3-7.4,4.1-11.5c0.9-4.1,1.3-8.4,1.4-12.8L1125,1068.5z"/>
	</g>
</g>
<path class="st1" d="M1061.9,1078.1c-1-3.2-8-19.8-15.8-13.2c-4.5,3.8-3,15,0.5,25.5c3.2,9.7,15.2,18.5,17.1,19.1
	C1065.5,1110.1,1061.9,1078.1,1061.9,1078.1z"/>
<path class="st1" d="M1187.1,1078.1c1-3.2,8-19.8,15.8-13.2c4.5,3.8,3,15-0.5,25.5c-3.2,9.7-15.2,18.5-17.1,19.1
	C1183.5,1110.1,1187.1,1078.1,1187.1,1078.1z"/>
<path class="st6" d="M1101.4,1060.1c0.7-0.2,1.5-0.5,2.2-1c1.9-1.4,1.1-3.4-0.9-4.2c-5.1-2.1-10.9-2.9-16.4-2.5c-4,0.3-8,1.3-11.6,3
	c-1.1,0.5-4.7,2-4.7,3.6c0,2.3,6.4,1,7.6,0.9c4.4-0.4,8.7-1.1,13.2-0.9c2,0.1,3.9,0.3,5.8,0.7
	C1098.3,1060.1,1099.9,1060.4,1101.4,1060.1z"/>
<path class="st6" d="M1146.4,1060.1c-0.7-0.2-1.5-0.5-2.2-1c-1.9-1.4-1.1-3.4,0.9-4.2c5.1-2.1,10.9-2.9,16.4-2.5c4,0.3,8,1.3,11.6,3
	c1.1,0.5,4.7,2,4.7,3.6c0,2.3-6.4,1-7.6,0.9c-4.4-0.4-8.7-1.1-13.2-0.9c-2,0.1-3.9,0.3-5.8,0.7
	C1149.5,1060.1,1147.9,1060.4,1146.4,1060.1z"/>
<path class="st7" d="M1143.4,1124.7c-6,2.1-12.4,3.3-18.8,3.4c-6.3,0.1-12.5-1.3-18.4-3.3c-10.6-3.7-4,12.5,8.7,17.2
	c6.7,2.5,12.9,2.5,19.6,0C1147.2,1137.3,1153.8,1121.1,1143.4,1124.7z"/>
<path class="st8" d="M1085,1077.5c0.2,3.9,2.9,6.9,6.2,6.8c3.2-0.1,5.7-3.4,5.5-7.3c-0.2-3.9-2.9-6.9-6.2-6.8
	C1087.3,1070.4,1084.9,1073.6,1085,1077.5z"/>
<path class="st8" d="M1164.3,1077.5c-0.2,3.9-2.9,6.9-6.2,6.8c-3.2-0.1-5.7-3.4-5.5-7.3c0.2-3.9,2.9-6.9,6.2-6.8
	C1162,1070.4,1164.4,1073.6,1164.3,1077.5z"/>
<g>
	<path class="st12" d="M347.2,1201.4c-33.5-17.6-17.4-9-56-27.1c-31.7-14.9-38.1-42.6-38.1-70.4c0-22.8-23.5-35.4-47.9-38.6
		c-24.3,3.2-47.9,15.8-47.9,38.6c0,27.8-6.4,55.5-38.1,70.4c-38.6,18.1-27,9.6-60.5,27.1c-40.3,21.1-49,48.9-56.6,86.9h203.1h198.6
		C396.2,1250.3,387.5,1222.5,347.2,1201.4z"/>
	<path class="st13" d="M403.8,1288.3H2.1c7.6-38,16.3-65.8,56.6-86.9c13.4-7,19.6-9.9,24.6-11.9c14.4,17.4,53.9,41.4,119.3,40.3
		c66.5,1.1,106.3-23.5,120.2-41c4.4,2.1,9.6,4.8,24.4,12.5C387.5,1222.5,396.2,1250.3,403.8,1288.3z"/>
	<g>
		<g>
			<path class="st14" d="M288.1,1225.2c13.4,1.7,26.1,3.3,38.3,4.1c29,2.1,44,1.6,56.1,1.2c-0.9-1.2-1.8-2.4-2.8-3.6
				c-0.4-0.5-0.9-1.1-1.4-1.6c-0.7-0.8-1.3-1.6-2-2.3c-11,0.3-25.3,0.4-49.4-1.4c-12-0.9-24.6-2.4-37.9-4.1
				c-2.5-0.3-4.9-0.6-7.4-0.9c-5.3,2.1-11,4.1-17.2,5.8C272.5,1223.3,280.3,1224.2,288.1,1225.2z"/>
			<path class="st14" d="M19.2,1284.8c17.1-3.5,29.5-6.1,68.9-9c27.3-2,57.4-1,86.5,0c9.9,0.3,19.8,0.7,29.7,0.9
				c34.2-0.8,70.3,0.2,113.7,3.3c13.3,1,23.5,1.6,31.9,2.2c24.9,1.7,32.8,2.2,53.8,5.6c-0.6-2.8-1.1-5.5-1.7-8.1
				c-19.4-3.1-28-3.6-51.6-5.2c-8.3-0.6-18.6-1.2-31.8-2.2c-43.7-3.1-80-4.2-114.3-3.3c-9.7-0.2-19.6-0.6-29.5-0.9
				c-29.3-1-59.7-2.1-87.3,0c-39.9,3-52.5,5.6-69.9,9.2c-4.2,0.9-8.7,1.8-13.8,2.8c-0.5,2.5-1,4.8-1.5,7.2c-0.1,0.4-0.1,0.7-0.2,1.1
				C8.6,1287,14.1,1285.9,19.2,1284.8z"/>
			<path class="st14" d="M40.1,1256.4c11.9-0.3,26.7-0.6,53.1-2.5c6.9-0.5,14-1.1,21.2-1.7c31.2-2.5,63.5-5.1,94.8-4.4l5.9-0.1
				c39-1,75.9-1.9,108.4,0.4c43.4,3.1,54,5,72.4,8.8c-1-2.9-2.1-5.8-3.3-8.6c-15.7-3.1-28.7-5.1-68.6-7.9
				c-32.9-2.4-69.9-1.4-109.1-0.4l-5.7,0.1c-31.5-0.7-64,1.9-95.4,4.4c-7.2,0.6-14.2,1.1-21.1,1.7c-26.2,2-40.9,2.3-52.7,2.5
				c-9.4,0.2-17.1,0.4-27.4,1.2c-1.1,2.7-2,5.3-2.9,8C21.6,1256.9,29.8,1256.7,40.1,1256.4z"/>
			<path class="st14" d="M28.1,1232c16.4-3.6,29.4-6.4,68.1-9.3c12.6-0.9,25.6-1.7,38.6-2.2c-6.5-2.1-12.4-4.4-17.8-6.9
				c-7.2,0.4-14.4,0.9-21.4,1.4c-37.5,2.8-51.2,5.5-67,8.9c-0.1,0.1-0.2,0.2-0.3,0.3c-1.3,1.4-2.5,2.9-3.6,4.4
				c-0.1,0.2-0.3,0.4-0.4,0.5c-1.1,1.4-2.1,2.9-3.1,4.3C23.6,1233,25.8,1232.5,28.1,1232z"/>
		</g>
	</g>
	<path class="st15" d="M255,1126.8c-0.7-3.8-1.2-7.7-1.5-11.6c-0.5-1.1-0.9-2.4-1-4.6c-0.1-1.7-0.2-3.8-0.2-6.8
		c0-1.1-0.1-2.1-0.2-3.2c-0.1-0.7-0.2-1.4-0.3-2.1c-30.6,2-66,2.5-94.5,4.3c0,0.3-0.1,0.6-0.1,0.9c0,19.3-3.1,38.6-15.7,53.5
		C167.1,1167.5,229.8,1174,255,1126.8z"/>
	<path class="st16" d="M300.2,937.1c-1.7,1.8-3.1,3.8-4.5,5.2c-1.1,1.1-2.3,2.3-3.8,2.9c-1.5,0.6-3.6,0.5-4.6-0.7
		c-2.9-3.4,5.7-14.7,7.4-18c1-2.1,2.1-4.2,2-6.5c-0.1-2.8-2.1-5.5-4.9-6.6c-2.8-1.2-6.3-0.9-8.8,0.7c-3.3,2-4.8,5.6-6.2,8.9
		c-1.1,2.8-6.8,20.2-14.2,13c-1.5-1.4-1-3.7-0.5-5.7c2.3-7.6,8.8-19.2,4.4-26.7c-2.7-4.6-9.3-7.5-14.5-5.2c-3.7,1.7-5.7,5.4-6.6,9
		c-1.7,6.3-3.4,11.8-8.9,16.4c-1.1,0.9-2.4,1.8-3.9,2c-5.7,0.8-8.6-7.1-8.4-11c0.3-5.1,3.2-9.9,4.3-14.9c1.2-5-0.2-11.4-5.4-13.3
		c-5.8-2.1-12.1,2.6-14.6,7.8c-3,6.2-0.9,13.3-5.8,19.1c-1.9,2.2-4.6,3.9-7.7,3.9c-8,0-7.2-9-6.5-13.8c0.5-3.4,1.1-6.9,0.6-10.3
		c-1.5-9.5-12.8-14.5-19.5-5.3c-3.2,4.4-3.5,10-3.7,15.3c-0.1,3.4-0.2,6.7-0.3,10.1c-0.1,2.1-0.2,4.4-1.2,6.3
		c-1,1.9-3.3,3.5-5.6,3.2c-2.9-0.4-4.5-3.3-5.5-5.8c-1.9-4.6-3.8-14.5-7.8-17.8c-3.7-3.1-9.5,0.3-11,3.9c-1.4,3.4-0.7,7.2,0.2,10.7
		c0.9,3.6,1.1,7.7,0.6,11.3c-0.6,3.8-4.7,8.9-8,3.3c-1.3-2.2-1.7-4.7-2.2-7.1c-0.5-2.4-1.3-4.9-3.1-6.8c-4-4.2-10.4-2.6-13.3,1.7
		c-2.8,4.2-2.7,9.6-1.4,14.2c1.5,5.7,4.6,10.9,5.9,16.6c0.8,3.5,0.2,12.9-6.3,9.3c-1.6-0.9-2.7-2.4-3.6-3.9
		c-0.9-1.5-1.7-3.1-3.1-4.4c-5.6-5.2-9.5,1.9-9.5,6.6c0,5.7,2.1,10.8,5.6,15.6c3.8,5.2,8.6,9.8,12.5,14.9c1.7,2.2,4,4.3,2.4,7
		c-1.7,2.9-5.1,2.2-7.6,0.6c-2.5-1.7-3.5-4.9-5.9-6.3c-3.1-1.9-7.1,0.8-7.8,3.7c-0.7,2.6,0.5,5.4,2.2,7.5c1.7,2.2,9.2,9.6,11.2,11.5
		c17.9,16.8,11.8,35.2,30.1,51c9.1,7.8,23.5,7.6,35.9,8.5c21.8,1.6,43.5,1.7,65.2,0.5c27.8-1.5,34.9-3.4,47.9-29
		c4.7-9.3,6.4-19.7,10.6-29.3c2.7-6.1,7-11.5,11.3-16.8c3.7-4.6,9.1-10.3,10.1-16.2c0.3-1.6,0.5-3.2,0.1-4.8
		c-0.4-1.6-1.7-3.1-3.4-3.4c-1.2-0.2-2.4,0.2-3.4,0.8c-3.7,2.3-6.2,6.7-8.9,9.9c-0.8,1-1.7,2-2.9,2.6c-4,2.2-5.7-1.7-5.9-4.6
		c-0.3-3.7,1.5-7.5,3.8-10.5c5.4-7.1,10.9-14.2,16.2-21.4c2.8-3.8,4.8-13-3.4-12.7C304.1,933.6,302,935.2,300.2,937.1z"/>
	<path class="st12" d="M272.2,1011.8c-2.2-13.5-15.1-16-21.8-26.4c-9.1-14-34.3-17.6-47.6-16.2c-13.2-1.4-38.5,2.2-47.6,16.2
		c-6.7,10.4-19.6,13-21.8,26.4c-1.4,8.5,2,17.6,1.1,31c-1.2,18.2,2.3,24.9,8.7,42.2c15.5,42.5,41.8,57.9,46.4,58.9
		c2.6,0.5,6.8,0.6,10.6,0.6c0.1,0.1,0.3,0.1,0.4,0.1c0.1,0,0.3,0,0.4,0c0.1,0,0.3,0,0.4,0c0.4-0.1,0.9-0.1,1.4-0.1c0.5,0,1,0,1.4,0
		c0.1,0,0.3,0,0.4,0c0.1,0,0.3,0,0.4,0c0.1-0.1,0.3-0.1,0.4-0.1c3.8-0.1,8-0.2,10.6-0.7c4.6-1,30.9-16.4,46.4-58.9
		c6.3-17.4,9.9-24,8.7-42.2C270.2,1029.4,273.6,1020.2,272.2,1011.8z"/>
	<path class="st12" d="M286.2,1058.7c-2.4,6.7-7.2,15.2-13.1,19c-5.8,3.7-9.9,0.8-10.3-6.4c-0.5-7.4,1.2-19.8,6.4-25.2
		c5.2-5.5,15.5-5.2,18.1,3.2C288,1051.9,287.5,1055.2,286.2,1058.7z"/>
	<path class="st12" d="M121,1058.7c2.4,6.7,7.2,15.2,13.1,19c5.8,3.7,9.9,0.8,10.3-6.4c0.5-7.4-1.2-19.8-6.4-25.2
		c-5.2-5.5-15.5-5.2-18.1,3.2C119.2,1051.9,119.7,1055.2,121,1058.7z"/>
	<path class="st16" d="M171.8,1031.6c1.5,0.2,3,0.1,4.6-0.2c1.5-0.3,3.2-1.2,3.5-2.7c0.1-0.9-0.3-1.8-0.9-2.5
		c-0.6-0.7-1.4-1.1-2.2-1.5c-5.2-2.6-11-4.3-16.9-4c-6.3,0.4-11.1,3.8-16.3,7c-0.8,0.5-1.8,1.1-1.9,2.1c-0.1,1.1,0.9,2.1,2,2.3
		c1.1,0.2,2.2-0.2,3.3-0.5C155.4,1029.3,163.4,1030.7,171.8,1031.6z"/>
	<path class="st16" d="M233.8,1031.6c-1.5,0.2-3,0.1-4.6-0.2c-1.5-0.3-3.2-1.2-3.5-2.7c-0.1-0.9,0.3-1.8,0.9-2.5
		c0.6-0.7,1.4-1.1,2.2-1.5c5.2-2.6,11-4.3,16.9-4c6.3,0.4,11.1,3.8,16.3,7c0.8,0.5,1.8,1.1,1.9,2.1c0.1,1.1-0.9,2.1-2,2.3
		c-1.1,0.2-2.2-0.2-3.3-0.5C250.2,1029.3,242.2,1030.7,233.8,1031.6z"/>
	<path class="st17" d="M231.4,1047.6c-0.5,3.7,1.6,7,4.7,7.5c3.1,0.4,6-2.3,6.5-6c0.5-3.7-1.6-7-4.7-7.5
		C234.8,1041.2,231.9,1043.9,231.4,1047.6z"/>
	<path class="st17" d="M174.1,1047.6c0.5,3.7-1.6,7-4.7,7.5c-3.1,0.4-6-2.3-6.5-6c-0.5-3.7,1.6-7,4.7-7.5
		C170.7,1041.2,173.6,1043.9,174.1,1047.6z"/>
	<g>
		<g>
			<path class="st15" d="M195.6,1035.4c3.9,3.9,5.5,9.8,5.3,15.3c0,2.8-0.5,5.6-1.1,8.3c-0.4,1.3-0.7,2.7-1.1,4l-1.2,3.6
				c-1.2,4.2,0.1,7.6,3.9,10c1.8,1.1,4.1,1.9,6.3,2c2.2,0.1,4.6-0.4,6.3-2.5l0.5,0.2c-0.5,2.9-3.5,5.1-6.4,5.8
				c-3,0.7-6.1,0.4-9.1-0.8c-2.9-1.2-5.7-3.4-7.1-6.7c-1.4-3.3-0.9-7,0.2-9.8c0.6-1.5,1.3-2.6,1.8-3.7c0.6-1.1,1.1-2.3,1.6-3.4
				c0.9-2.3,1.6-4.8,2-7.2c0.8-4.9,0.4-10.3-2.4-14.6L195.6,1035.4z"/>
		</g>
	</g>
	<path class="st7" d="M204.4,1114.5c9.4-0.8,15.8-7.6,20.8-15.5c1.4-2.1,0.1-2.7-0.7-2.4c-5.9,2.5-13.5,3.8-21.4,3.7
		c-13.4-0.2-21.4-4-22.2-3.4c-3.1,2.2,8.1,13.4,9.8,14.4C194.8,1113.6,199.6,1114.9,204.4,1114.5z"/>
	<path class="st15" d="M211.8,1108.8c-3.8,1.6-13.1,1.9-17.8,0c-5.5-2.3-10.3-6.2-13.9-10.9c0.2,10.2,8.5,19.7,18.6,21.4
		c1.4,0.2,7,0.2,8.5,0c10.1-1.6,18.4-11.1,18.6-21.4C222,1102.6,217.3,1106.4,211.8,1108.8z"/>
</g>
<path class="st18" d="M376.4,321c-33.5-17.6-17.4-9-56-27.1c-31.7-14.9-38.1-42.6-38.1-70.4c0-22.8-23.5-35.4-47.9-38.6
	c-24.3,3.2-47.9,15.8-47.9,38.6c0,27.8-6.4,55.5-38.1,70.4c-38.6,18.1-27,9.6-60.5,27.1c-40.3,21.1-49,48.9-56.6,86.9h203.1H433
	C425.4,369.9,416.7,342.1,376.4,321z"/>
<path class="st2" d="M433,407.9H31.3c7.6-38,16.3-65.8,56.6-86.9c33.5-17.6,21.9-9,60.5-27.1c7.3-3.4,13.3-7.5,18.1-12.2
	c5,13.9,22.1,44.4,65.8,44.4c39.6,0,63.2-34.2,66.9-47.5c5.3,5.9,12.2,11.1,21.1,15.3c38.6,18.1,22.4,9.6,56,27.1
	C416.7,342.1,425.4,369.9,433,407.9z"/>
<path class="st19" d="M284.2,246.5c-0.7-3.8-1.2-7.7-1.5-11.6c-0.5-1.1-0.9-2.4-1-4.6c-0.1-1.7-0.2-3.8-0.2-6.8
	c0-1.1-0.1-2.1-0.2-3.2c-0.1-0.7-0.2-1.4-0.3-2.1c-30.6,2-66,2.5-94.5,4.3c0,0.3-0.1,0.6-0.1,0.9c0,19.3-3.1,38.6-15.7,53.5
	C196.3,287.2,259,293.7,284.2,246.5z"/>
<path class="st9" d="M268.9,27c-1.8-8.9-8.3-17.7-19.4-23.4c-8.7-4.5-26.2-5-35.5,0c-11,5.9-17.5,14.5-19.4,23.4
	c-1.7,8.3-1.7,30.7,10.3,34c7.5,2.1,20.3,2.4,26.8,2.4c0.1,0,0.3,0,0.4,0c0.1,0,0.3,0,0.4,0c6.5,0,19.3-0.3,26.8-2.4
	C271.3,57.7,270.6,35.3,268.9,27z"/>
<path class="st18" d="M296.7,191.8c-5.7,2.9-7.1-3.9-7.6-11.1c-0.5-7.4,1.2-19.8,6.4-25.2c5.2-5.5,12.8-8.3,16.2-0.3
	C314.7,162.1,310.3,184.9,296.7,191.8z"/>
<path class="st18" d="M167.5,191.8c5.7,2.9,7.1-3.9,7.6-11.1c0.5-7.4-1.2-19.8-6.4-25.2c-5.2-5.5-12.8-8.3-16.2-0.3
	C149.5,162.1,153.9,184.9,167.5,191.8z"/>
<path class="st9" d="M284.2,56.7c-16.1-7.1-34.3-10.5-52.1-9.6c-17.9-0.9-36,2.6-52.1,9.6c-33.1,14.5-40.8,59.7-31.9,81.4
	c5.6,13.5,5.8,22.2,17,32.4c9.6,8.7,23,9.6,35.3,10.2c10.6,0.6,21.1,0.8,31.7,0.8c10.5,0.1,21.1-0.2,31.7-0.8
	c12.3-0.7,25.7-1.5,35.3-10.2c11.2-10.2,11.4-18.9,17-32.4C325,116.5,317.4,71.3,284.2,56.7z"/>
<path class="st18" d="M297.3,131.4c-0.2-16.8-4.9-29.7-13.8-35.4c-19.4-12.5-23.2,2.4-51.2,1.9c-0.1,0-0.2,0-0.2,0
	c-0.1,0-0.2,0-0.2,0c-0.3,0-0.4,0-0.4,0c-0.1,0-0.2,0-0.2,0c-28.1,0.5-31.9-14.4-51.2-1.9c-8.9,5.7-13.5,18.6-13.8,35.4
	c-0.1,8.6-3.6,17.6-2.8,31c1.1,18.1,5.2,35,10.6,51.2c8.4,25.5,34.5,40.2,40.9,42.4c2.3,0.8,9.7,2.7,16.2,2.7c0,0,0.2,0,0.6-0.1
	c0.3,0.1,0.6,0.1,0.6,0.1c6.5,0,13.9-1.9,16.2-2.7c6.5-2.2,32.5-16.9,40.9-42.4c5.3-16.2,9.4-33,10.6-51.2
	C300.9,149.1,297.4,140,297.3,131.4z"/>
<path class="st9" d="M250.6,144.4c-1.3-0.8-3.4-11.2,1-14.3c4.7-3.4,12.3-1.2,17.3-0.1c6.1,1.4,10,2.9,14.8,5.4c4.8,2.4,4,5.1,1.9,5
	C262.7,139,253.1,145.9,250.6,144.4z"/>
<path class="st9" d="M213.6,144.4c1.3-0.8,3.4-11.2-1-14.3c-4.7-3.4-12.3-1.2-17.3-0.1c-6.1,1.4-10,2.9-14.8,5.4
	c-4.8,2.4-4,5.1-1.9,5C201.5,139,211.1,145.9,213.6,144.4z"/>
<path class="st17" d="M262.3,157.9c-0.5,3.7,1.6,7,4.7,7.5c3.1,0.4,6-2.3,6.5-6c0.5-3.7-1.6-7-4.7-7.5
	C265.7,151.5,262.8,154.2,262.3,157.9z"/>
<path class="st17" d="M201.9,157.9c0.5,3.7-1.6,7-4.7,7.5c-3.1,0.4-6-2.3-6.5-6c-0.5-3.7,1.6-7,4.7-7.5
	C198.5,151.5,201.4,154.2,201.9,157.9z"/>
<path class="st9" d="M248.6,256c2.8-1,9.3-4.3,16.5-9.8c1.4-1.1,2.3-2.7,2.6-4.5c0.4-2.8,0.6-6,0.3-9.2c-0.7-8.5-2.7-17.9-8.2-24.9
	c-6.6-8.5-17.5-11.2-27.8-11.2c-8.4,0-17.7,1.9-24.5,7.6c-8.1,6.8-10.3,18.4-11.2,28.4c-0.3,3.4-0.1,6.8,0.4,9.8
	c0.3,1.8,1.2,3.4,2.6,4.5c6.8,5.2,13,8.3,15.7,9.2c2.3,0.8,9.7,2.7,16.2,2.7c0,0,0.2,0,0.6-0.1c0.3,0.1,0.6,0.1,0.6,0.1
	C238.9,258.7,246.2,256.8,248.6,256z"/>
<path class="st7" d="M233.6,234.1c9.4-0.8,15.8-7.6,20.8-15.5c1.4-2.1,0.1-2.7-0.7-2.4c-5.9,2.5-13.5,3.8-21.4,3.7
	c-13.4-0.2-21.4-4-22.2-3.4c-3.1,2.2,8.1,13.4,9.8,14.4C224,233.3,228.8,234.5,233.6,234.1z"/>
<g>
	<g>
		<path class="st19" d="M224.9,145.3c1.7,2.3,2.5,5,3,7.7c0.5,2.7,0.8,5.5,0.7,8.3c0,5.6-1,11.1-2.1,16.4c-0.5,2.4-0.8,4.9-0.4,6.7
			c0.4,1.8,0.9,2.7,2.8,3.3c1.9,0.6,4.4,0.6,6.9,0.2c2.5-0.4,5.1-0.9,7.4-2.1l0.4,0.4c-1.7,2.4-4.2,4-6.8,5.2c-2.7,1.1-5.6,2-9,1.5
			c-1.7-0.2-3.6-1-5.1-2.4c-1.5-1.4-2.3-3.3-2.6-5.1c-0.6-3.5,0.2-6.5,1.1-9.3c1.9-5,3.4-10,4.1-15.2c0.7-5.1,1-10.6-1-15.5
			L224.9,145.3z"/>
	</g>
</g>
<path class="st12" d="M1245.1,321.8c-33.5-17.6-29-9-67.6-27.1c-31.7-14.9-38.1-42.6-38.1-70.4c0-22.8-23.5-35.4-47.9-38.6
	c-24.3,3.2-44.3,19.2-44.3,42c0,27.8-4,53.4-35.1,69.5c-5.2,2.7-23.8,7.3-55.4,24.6c-39.9,21.8-49,48.9-56.6,86.9h191.5h210.2
	C1294.2,370.7,1285.4,342.9,1245.1,321.8z"/>
<path class="st20" d="M1301.7,408.8H900c7.6-38,16.7-65.1,56.6-87c31.6-17.3,50.2-21.9,55.4-24.6c8.9-4.6,15.6-10,20.6-16
	c1.4,13.1,40.2,85.5,60.9,85.5c15.8,0,49.6-46.5,66.5-83.6c4.7,4.4,10.5,8.3,17.5,11.6c38.6,18.1,34.1,9.6,67.7,27.1
	C1285.4,342.9,1294.2,370.7,1301.7,408.8z"/>
<path class="st15" d="M1141.3,247.3c-0.7-3.8-1.2-7.7-1.5-11.6c-0.5-1.1-0.9-2.4-1-4.6c-0.1-1.7-0.2-3.8-0.2-6.8
	c0-1.1-0.1-2.1-0.2-3.2c-0.1-0.7-0.2-1.4-0.3-2.1c-30.6,2-66,2.5-94.5,4.3c0,0.3-0.1,0.6-0.1,0.9c0,19.3-3.1,38.6-15.7,53.5
	C1053.4,288,1116.1,294.5,1141.3,247.3z"/>
<g>
	<path class="st9" d="M1009.6,221.1c-4.4,18.7-5.4,38-9.1,56.9c-3.1,15.9-8.7,32.4-21.1,42.8c-2.7,2.3-5.8,4.3-8.1,7
		c-2.3,2.7-3.8,6.5-2.6,9.9c1.5,4.5,7,6.5,11.7,6.3c11.2-0.4,20.5-9.4,25.2-19.6c4.6-10.2,5.6-21.6,7.2-32.7
		c3.8-25.7,11.7-50.5,19.5-75.3c2-6.2,4.1-12.6,8.5-17.3c2.4-2.5,5.6-4.7,6.2-8.2c0.6-3.3-1.4-6.5-3.4-9.3
		c-3.9-5.6-5.6-9.9-11.6-4.2c-4,3.9-7.4,8.3-10.3,13C1016.1,199.6,1011.6,210.5,1009.6,221.1z"/>
	<path class="st9" d="M1015.9,262.3c-1.3,8.8-1.8,17.8-3.4,26.6c-3.3,17.9-10.9,34.7-16.2,52.1c-1.1,3.5-2,7.1-1.7,10.7
		c0.3,3.6,2.1,7.3,5.4,9c2.8,1.4,6.3,1.1,9.1-0.3c2.8-1.4,5.1-3.7,7.1-6.1c13.2-16,15.2-38.3,15.8-59c0.6-20.8,0.6-42.6,10.9-60.6
		c3-5.2,6.7-9.9,9.8-15c3-5.1,5.4-11,5.1-16.9c-0.2-4-3.4-14.3-8.9-12.1c-4.5,1.8-8.1,5-10.6,9c-6.9,10.9-13.6,29.2-17.4,41.6
		C1018.7,248,1017,255.1,1015.9,262.3z"/>
	<path class="st9" d="M1155.4,256.7c2.1,8.7,4.9,17.2,6.7,25.9c3.7,17.8,2.8,36.2,4.4,54.4c0.3,3.6,0.8,7.3,2.4,10.6
		c1.6,3.3,4.7,6,8.3,6.3c3.1,0.3,6.2-1.3,8.3-3.7c2.1-2.3,3.4-5.3,4.3-8.3c6.2-19.8-0.2-41.2-7.4-60.7
		c-7.2-19.5-15.3-39.8-12.4-60.3c0.8-5.9,2.6-11.7,3.5-17.6c0.9-5.9,0.9-12.2-1.6-17.6c-1.6-3.6-8.5-12.1-12.8-7.9
		c-3.5,3.4-5.6,7.6-6.5,12.3c-2.4,12.7-1.7,32.2-0.7,45C1152.6,242.4,1153.7,249.6,1155.4,256.7z"/>
	<path class="st9" d="M1183.6,182.1c2.5,14.9,0,30.1,0.9,45.1c2,34.1,21.1,64.5,33.4,96.3c1.2,3.1,2.3,6.2,2.3,9.5
		c0,3.3-1.3,6.8-4.1,8.5c-3.5,2.2-8.3,1-11.5-1.7c-3.1-2.7-5-6.6-6.6-10.4c-10.3-23.2-20.8-45.9-25.5-71c-1.9-9.9-3-20-4.1-30
		c-1.4-12.5-2.8-25.1-4.3-37.6c-1.1-9.5-4.9-17.6-5.5-27.4c-0.3-4.6,0-10.3,4.4-13.1c4.7-2.9,7.5,1.4,10,5
		C1178.3,163.4,1182,172.6,1183.6,182.1z"/>
	<path class="st9" d="M1067.1,215.6c1.1-1.7,1.7-3.9,1.2-5.9c-0.8-3.1-3.8-5.6-7-5.7c-4.9-0.2-8.6,4.1-11.2,8.2
		c-10.8,17-15.8,37.1-17.4,57.1c-1.6,20,0,40.2,1.7,60.2c0.3,3.2,0.5,6.5,1.8,9.5c1.2,3,3.5,5.7,6.6,6.6c5.3,1.5,10.7-3.1,12.4-8.3
		c1.6-5.2,0.6-10.9-0.3-16.3C1049.3,285.5,1053.6,248.7,1067.1,215.6z"/>
	<path class="st9" d="M1167.4,198.7c4.2,15.5,5.8,34.8,3.6,50.8c-4.6,33.2-8.6,64.3-2.2,97.1c0.7,3.5,8.1,23.4,1.1,26.1
		c-15.4,5.9-22.3-18.5-23.2-23.2c-9-48.2,10.1-98.5-0.3-146.4c-1.2-5.4-2.7-10.9-2.3-16.4c0.4-4.6,2.1-8.8,4.2-12.9
		c0.7-1.3,1.7-4.6,3.3-4.4c1,0.1,3.3,4.6,3.9,5.5C1160.4,182.3,1165,190.1,1167.4,198.7z"/>
	<path class="st9" d="M1153,234.7c1.2,23.4-1.4,46.8-5.6,69.9c-1.5,8.5-3.3,17-5.1,25.5l-5.2,25c-1.6,7.8-12.4,9.2-15.7,1.8
		c-0.1-0.2-0.1-0.3-0.2-0.5c-2.2-5.5-1.6-11.7-0.8-17.5c3.7-28.7,15.2-56.2,16.9-85.1c1.4-22.6,0.4-31.9-0.3-36.4
		c-1.1-7.2,1.8-20,9.4-23.2c3.3,4.2,3.5,13.9,4.3,19.1C1151.9,220.3,1152.7,227.5,1153,234.7z"/>
	<path class="st9" d="M1072.9,50.6c-5-9.2-3.6-21.3,3.3-29.2c2.9-3.3,6.9-6.9,5.7-11.1c-0.9-3.1-4.6-4.7-7.9-4.3
		c-4.1,0.4-7.7,3.1-10.1,6.4c-2.4,3.3-3.9,7.2-5.3,11.1c-2,5.7-3.9,11.5-4.1,17.6c-0.3,6,1.2,12.4,5.2,16.9
		c3.9,4.4,10.4,6.7,15.9,4.7c0.8-1,1.2-2.4,1.2-3.6C1076.4,56,1074.4,53.3,1072.9,50.6z"/>
	<path class="st9" d="M1022.9,23.7c-0.5-2.1-0.8-4.3-0.3-6.4c0.5-2.1,2-4.1,4.1-4.5c3.8-0.8,6.6,3.5,8.4,7
		c5.2,10,12.5,18.8,21.3,25.8c4.5,3.6,10.4,7.4,11.4,13.5c1.2,7-3.2,8-8.6,5.9c-11.4-4.4-21.3-12.4-28.1-22.5
		C1027.2,36.8,1024.4,30.4,1022.9,23.7z"/>
</g>
<path class="st12" d="M1159.4,194.6c-5.7,2.9-7.1-3.9-7.6-11.1c-0.5-7.4,1.2-19.8,6.4-25.2c5.2-5.5,12.8-8.3,16.2-0.3
	C1177.4,164.9,1172.9,187.7,1159.4,194.6z"/>
<path class="st12" d="M1024.3,194.6c5.7,2.9,7.1-3.9,7.6-11.1c0.5-7.4-1.2-19.8-6.4-25.2c-5.2-5.5-12.8-8.3-16.2-0.3
	C1006.3,164.9,1010.8,187.7,1024.3,194.6z"/>
<path class="st9" d="M1179.4,106.5c-1.3-2.5-4.1-4.6-4.6-7.4c-0.6-2.8,0.5-7.3,0-10.2c-3-16.4-12.7-11.1-18.7-18.8
	c-3-3.8-1.9-7.8-8.7-11.5c-5.9-3.2-11,1.8-15.4,0.5c-3.2-1-0.7-5.5-9.2-7.9c-6-1.8-10.3,3.6-13.1,3.5c-3.4-0.1-4.5-6.4-12.9-6.4
	c-8.9,0-12.5,5.7-15.9,5.5c-5.1-0.4-5.7-4.5-13.6-1.9c-9,2.9-8.1,8.4-13.6,10c-4.9,1.4-5.5-3-13-1.1c-5.8,1.5-10.9,7.2-12.5,14
	c-1.3,5.3,0.7,10-4.1,12.3c-5.2,2.5-14.4,12.9-11.7,24.6c0.5,2.3,2.7,4.4,2.6,6.8c-0.2,2.4-2.4,4.7-3.3,6.9
	c-2,4.7-3.1,10.7-0.3,15.3c1.9,3.2,4.6,4.4,5.3,8.6c0.6,3.7,0,7.5,0.7,11.1c0.9,4.5,1.9,9.8,5.5,13.1c9.6,8.7,23,9.6,35.3,10.2
	c10.6,0.6,21.1,0.8,31.7,0.8c10.5,0.1,21.1-0.2,31.7-0.8c6.5-0.4,12.7-1.3,19.2-2.1c5.7-0.8,17.1-2.9,19-8c0,0,3-7.4,3.3-14.4
	c0.2-6,9.1-8.6,11.8,0.2c6.5-6.7,3.6-10.1,5.1-15.6c1-3.7,3.2-4,3.9-9.2c1-7.7-3.9-6.9-4.2-12.4
	C1179.7,121.8,1182.5,112.3,1179.4,106.5z"/>
<path class="st9" d="M1141.7,40.3c-0.1-0.2-0.2-0.5-0.3-0.7c-3.6-7.5-11.7-12.6-20.1-12.6c-4.4,0-8.7,1.2-12.6-1.3
	c-2.7-1.7-4.1-3.5-7.2-4.5c-7.6-2.3-16.4-0.9-23.4,2.7c-9,4.7-20.8,17.1-19.6,28.2c0.6,5.4,4.5,9.9,9.2,12.6
	c10.5,5.9,24,5.4,35.6,5.5c0.1,0,0.3,0,0.4,0c0.1,0,0.3,0,0.4,0c6.5,0,19.3-0.3,26.8-2.4c1.6-0.4,3.2-2.4,4.6-2.7
	c0.8-0.1,4.4-3.7,5-5.2C1143.2,53.3,1144.7,47.1,1141.7,40.3z"/>
<path class="st12" d="M1153.3,141.6c-4.1-24.2-7.8-32.6-16.8-41.8c-7.7-7.9-32.1-8.8-47.3-9.3c-14.5-0.5-30.2,1.7-44.1,11.1
	c-4.8,3.2-7.8,8.6-14.8,29.5c-2.7,8.1-8.8,21.4-7.9,34.8c1.1,18.1,5.7,44.2,12.2,60c8.6,20.8,30.4,27,37.6,28.9
	c2.4,0.6,25,3.4,35,0.3c17.8-5.5,37.1-20.7,44.1-39.2c6-16,6-29.9,6-48C1157.3,161.4,1154.8,150.2,1153.3,141.6z"/>
<path class="st9" d="M1107.1,147.5c-9.4-2.5-7.4-7.4,0.8-10.2c7.3-2.5,11.9-1.5,18-0.5c6.4,1.1,8.9,2,13.7,4.5
	c4.8,2.4,6.3,4.3,4.6,5.5c-1.1,0.8-6.4-0.4-13.7,0C1122.5,147,1112.1,148.8,1107.1,147.5z"/>
<path class="st9" d="M1060.7,147.2c8.7-2.6,6.9-7.5-0.7-10.2c-6.7-2.4-10.9-1.5-16.5-0.4c-5.9,1.1-8.2,2.1-12.6,4.6
	c-4.4,2.4-5.8,4.3-4.3,5.5c1,0.8,5.9-0.4,12.6-0.1C1046.7,146.8,1056.2,148.5,1060.7,147.2z"/>
<path class="st17" d="M1114.7,161.9c-0.5,3.7,1.6,7,4.7,7.5c3.1,0.4,6-2.3,6.5-6c0.5-3.7-1.6-7-4.7-7.5
	C1118.1,155.6,1115.2,158.2,1114.7,161.9z"/>
<path class="st17" d="M1056.6,160.7c0.5,3.7-1.6,7-4.7,7.5c-3.1,0.4-6-2.3-6.5-6c-0.5-3.7,1.6-7,4.7-7.5
	C1053.2,154.3,1056.1,157,1056.6,160.7z"/>
<path class="st9" d="M1105.4,258.8c2.8-1,9.3-4.3,16.5-9.8c1.4-1.1,2.3-2.7,2.6-4.5c0.4-2.8,0.6-6,0.3-9.2
	c-0.7-8.5-2.7-17.9-8.2-24.9c-6.6-8.5-17.5-11.2-27.8-11.2c-8.4,0-17.7,1.9-24.5,7.6c-8.1,6.8-10.3,18.4-11.2,28.4
	c-0.3,3.4-0.1,6.8,0.4,9.8c0.3,1.8,1.2,3.4,2.6,4.5c6.8,5.2,13,8.3,15.7,9.2c2.3,0.8,9.7,2.7,16.2,2.7c0,0,0.2,0,0.6-0.1
	c0.3,0.1,0.6,0.1,0.6,0.1C1095.7,261.5,1103.1,259.6,1105.4,258.8z"/>
<path class="st7" d="M1111.3,221.4c0.7-2.4,0.1-2.6-0.7-2.4c-6.1,1.5-10.2,5.1-26,4.7c-9.8-0.3-16.8-3.6-17.6-3.1
	c-3.1,2.2,4.6,15.9,16,17.5C1100.7,240.7,1109.3,227.9,1111.3,221.4z"/>
<g>
	<g>
		<path class="st15" d="M1076,148.1c2.6,1.9,4.2,5,4.8,8.3c0.6,3.3,0,6.7-1,9.8c-1.1,3.1-2.6,6-4.2,8.8c-1.6,2.6-2.7,4.7-2.5,6.7
			c0.1,3.8,5.4,7.2,10.7,8.7c2.7,0.8,5.6,1.2,8.5,1.2c2.8-0.1,5.8-0.5,7.9-2.7l0.5,0.3c-1.3,3.1-4.8,4.8-7.9,5.6
			c-3.2,0.8-6.6,0.9-9.9,0.4c-3.3-0.4-6.6-1.5-9.7-3.4c-1.5-1-3-2.2-4.1-3.9c-1.2-1.6-1.9-3.8-1.9-5.9c-0.1-4.3,2.2-7.7,4.3-10
			c1.9-2.2,3.6-4.6,4.9-7.1c1.3-2.6,2.1-5.3,2.2-8.2c0-2.8-0.9-5.8-2.8-8L1076,148.1z"/>
	</g>
</g>
<path class="st1" d="M782.6,759.9c-22.8-10.8-21.9-5.8-60.5-25.2c-31.7-15.9-42-49.6-42-79.3c0-10.7-4.2-20.6-12.1-27.8
	c-13.9-12.6-29.7-15.6-46.4-7.5c-14,6.8-23.3,19.4-23.3,35.3c0,29.8-10.3,63.4-42,79.3c-38.6,19.4-37.8,14.4-60.5,25.2
	c-41.7,19.8-49,52.4-56.6,93.2h400.1C831.6,812.3,824.3,779.7,782.6,759.9z"/>
<path class="st5" d="M683.6,684.6c-4.8-12.6-3.6-16.3-3.6-29.2c0-10.7-4.2-20.6-12.1-27.8c-13.9-12.6-29.7-15.6-46.4-7.5
	c-14,6.8-23.3,19.4-23.3,35.3c0,16.4-3.2,34-11.3,49.2C607.1,720.1,668.8,717,683.6,684.6z"/>
<path class="st4" d="M839.1,853H439c7.6-40.7,14.8-73.3,56.6-93.2c22.8-10.8,21.9-5.7,60.5-25.2c6.9-3.5,12.8-7.8,17.8-12.7
	c6.5,25.8,33.2,45.1,65.2,45.1c32,0,58.7-19.3,65.2-45.1c5,4.9,10.8,9.2,17.7,12.7c38.6,19.4,37.7,14.4,60.5,25.2
	C824.3,779.7,831.6,812.3,839.1,853z"/>
<path class="st2" d="M567.1,727.9c-10.4,21.9-15.6,52.1-20.2,75.5c-3.4,17.1-5.5,32.9-7.1,49.6H439c7.6-40.7,14.8-73.3,56.6-93.2
	c22.8-10.8,21.9-5.7,60.5-25.2C560.1,732.7,563.7,730.4,567.1,727.9z"/>
<path class="st14" d="M567.1,727.9c-10.4,21.9-15.6,52.1-20.2,75.5c-3.4,17.1-5.5,32.9-7.1,49.6H516c9.2-42.2,26.1-96,37.1-116.8
	c1-0.5,2-1,3-1.5C560.1,732.7,563.7,730.4,567.1,727.9z"/>
<path class="st2" d="M711.1,727.9c10.4,21.9,15.6,52.1,20.2,75.5c3.4,17.1,5.5,32.9,7.1,49.6h100.8c-7.6-40.7-14.8-73.3-56.6-93.2
	c-22.8-10.8-21.9-5.7-60.5-25.2C718,732.7,714.4,730.4,711.1,727.9z"/>
<path class="st14" d="M711.1,727.9c10.4,21.9,15.6,52.1,20.2,75.5c3.4,17.1,5.5,32.9,7.1,49.6h23.8c-9.2-42.2-26.1-96-37.1-116.8
	c-1-0.5-2-1-3-1.5C718,732.7,714.4,730.4,711.1,727.9z"/>
<path class="st11" d="M727.3,544.4c0,0,4.6-4.8,5.1-10.4c0.6-7.1-1.6-13.5-7.7-17.7c2.7-5.3,2.5-13.3-0.6-18.3
	c-5.5-8.9-17.2-7.7-17.2-7.7s-1.4-3.9-2.4-6.8c-1-2.7-2.6-5.2-4.8-7.1c-4.1-3.4-9.8-4.6-14.9-3.2c-1.7-5.1-6.1-9.3-11.3-10.9
	c-5.2-1.5-11.1-0.4-15.4,2.9c-4-6.6-11.8-10.6-19.5-10.1c-7.7,0.6-14.8,5.7-17.8,12.8c-6.1-3.7-14-4.3-20.6-1.7
	c-6.6,2.7-11.8,8.7-13.6,15.6c-5.5-1.9-11.9-0.8-16.5,2.8c-4.5,3.6-6.8,10.7-6.4,15.4c-2-0.2-9.7-0.2-13.9,7.1
	c-5.1,8.9,0.3,17.4,0.3,17.4s-10,4.9-10.9,13.3c-0.6,5.5,1,11.4,5.2,15.1c-3.7,3.3-6.1,9.3-6.1,15c0.1,9.7,8.1,13.4,8.1,13.4
	s-6.6,16,7.6,23.4c3.2,1.7,6.8,2.4,10.4,2.6c0.7,0,9.2-0.2,9-1.1c0.9,4.7,4.4,8.5,8.6,10.8c4.1,2.3,8.8,3.4,13.5,4.3
	c23.5,4.4,47.7,5.1,71.4,2c6.7-0.9,12.7-1.4,19.4-1.4c6.8,0,14.6-1.5,20.1-5.7c5.3-4.1,6.5-9,9.1-15.1c2.8-6.3,9-5.5,11.6-14.4
	c2.3-7.8-2.8-13.3-2.8-13.3s8.4-5.2,9.1-13.2C734.2,549.9,727.3,544.4,727.3,544.4z"/>
<path class="st1" d="M687.6,538.4c-10.4-16-31.9-15.6-48.8-16.3c-15.6-0.7-37.2,1.9-46.6,16.3c-6.7,10.4-18.1,35.4-17.6,54.5
	c0.5,18.3,2.6,32.7,8.9,50.1c15.5,42.5,38.5,45.2,43.1,46.2c8.5,1.8,18.1,1.8,26.6,0c4.6-1,27.6-3.7,43.1-46.2
	c6.3-17.4,8.4-31.8,8.9-50.1C705.7,573.8,694.3,548.8,687.6,538.4z"/>
<path class="st7" d="M661.7,646.7c-7.1,3-14.9,3.6-22.5,3.7c-7.2,0.1-14.7-0.8-21.4-3.7c-0.8-0.3-2,0.3-0.7,2.4
	c4.8,7.5,12.8,15,22.2,15.6c10.1,0.6,18.1-7.7,23.1-15.6C663.8,646.9,662.5,646.4,661.7,646.7z"/>
<path class="st6" d="M666.4,582.9c-1.6-0.1-3.2-0.3-4.6-0.5c-1.3-0.2-2.7-0.9-3.5-1.9c-0.8-1.1-1.1-2.7-0.3-3.8
	c0.6-1,1.7-1.4,2.8-1.8c2.9-1,5.8-1.8,8.8-1.6c3.4,0.2,6.7,0.8,10.1,0.8c5.2,0.1,10.4,1.4,15,4c0.8,0.4,1.5,0.9,2,1.6
	c0.5,0.7,0.6,1.8,0.1,2.4c-0.6,0.7-1.7,0.8-2.6,0.8c-7.8,0-15.7,0.1-23.5,0.1C669.3,583,667.8,583,666.4,582.9z"/>
<path class="st6" d="M613.1,582.9c1.6-0.1,3.2-0.3,4.6-0.5c1.3-0.2,2.7-0.9,3.5-1.9c0.8-1.1,1.1-2.7,0.3-3.8c-0.6-1-1.7-1.4-2.8-1.8
	c-2.9-1-5.8-1.8-8.8-1.6c-3.4,0.2-6.7,0.8-10.1,0.8c-5.2,0.1-10.4,1.4-15,4c-0.8,0.4-1.5,0.9-2,1.6c-0.5,0.7-0.6,1.8-0.1,2.4
	c0.6,0.7,1.7,0.8,2.6,0.8c7.8,0,15.7,0.1,23.5,0.1C610.2,583,611.7,583,613.1,582.9z"/>
<path class="st17" d="M667.7,601.4c-0.5,3.7,1.6,7,4.7,7.5c3.1,0.4,6-2.3,6.5-6c0.5-3.7-1.6-7-4.7-7.5
	C671.1,595,668.2,597.7,667.7,601.4z"/>
<path class="st17" d="M611.5,601.4c0.5,3.7-1.6,7-4.7,7.5c-3.1,0.4-6-2.3-6.5-6c-0.5-3.7,1.6-7,4.7-7.5
	C608.1,595,611,597.7,611.5,601.4z"/>
<g>
	<g>
		<path class="st5" d="M638.4,592c1.1,2.5,1.2,5.1,1.3,7.8c0.1,2.6-0.1,5.2-0.5,7.8c-0.3,2.6-0.8,5.1-1.3,7.7
			c-0.5,2.5-1.2,5.3-1.6,7.3c-0.7,4.3,0,8.7,2.8,10.3c1.3,0.9,3.2,0.9,5.1,0c1.9-0.9,3.7-2.7,5.3-4.7l0.5,0.2
			c-0.5,2.6-1.5,5.3-3.8,7.3c-1.1,1-2.5,1.8-4.2,2.2c-1.6,0.4-3.5,0.3-5.1-0.3c-3.4-1.3-5.6-4.4-6.4-7.4c-0.9-3.1-0.5-6.2,0.2-9
			c0.8-2.9,2-4.9,2.8-7.3c0.9-2.3,1.7-4.7,2.3-7.1c1.2-4.8,2.6-9.8,2-14.7L638.4,592z"/>
	</g>
</g>
<path class="st12" d="M709.1,591.3c-0.6-0.1-2.5-1.1-3.6-1.7c-2.5-1.3-4-2.2-5.4-2.2c-0.2,0-0.4,0-0.6,0.1c-0.2-0.1-0.4-0.1-0.6-0.1
	c0,0-59,0.4-59,0.4c-0.1,0-0.2,0-0.3,0.1c-0.1,0-0.2-0.1-0.3-0.1l-59-0.4c-0.2,0-0.4,0.1-0.6,0.1c-0.2,0-0.3-0.1-0.5-0.1
	c-1.4,0-3,0.9-5.4,2.2c-1.1,0.6-3.1,1.7-3.6,1.7c-1.1,0-1.9,0.9-1.9,2c0,1.1,0.9,1.9,1.9,1.9c1.4,0,3-0.9,5.4-2.2
	c1.1-0.6,3-1.7,3.6-1.7c0.2,0,0.3-0.1,0.5-0.1c0.2,0,0.3,0.1,0.5,0.1l0.7,0c-0.6,8.5,1.5,14.8,7.1,21.1c4.6,5.2,11.2,8.1,18.2,8.1
	c6.9,0,12.9-2.8,17.2-7.8c5.6-6.5,7.6-12.3,7.4-21.1l8.4,0.1c0.1,0,0.2,0,0.3-0.1c0.1,0,0.2,0.1,0.3,0.1c0,0,8.4-0.1,8.4-0.1
	c-0.2,8.8,1.8,14.6,7.4,21.1c4.3,5,10.3,7.7,17,7.8c7.2,0,13.8-3,18.4-8.1c5.6-6.3,7.7-12.6,7.1-21.1l0.7,0c0.2,0,0.4-0.1,0.5-0.1
	c0.1,0.1,0.3,0.1,0.5,0.1c0.6,0.1,2.5,1.1,3.6,1.7c2.5,1.3,4,2.2,5.4,2.2c1.1,0,1.9-0.8,1.9-1.8
	C710.9,592.3,710.1,591.4,709.1,591.3z M620.6,610.2c-3.5,4.1-8.5,6.4-14.1,6.4c-6.1,0-11.6-2.4-15.4-6.8c-5-5.7-6.7-10.8-6.2-18.5
	l42.2,0.3C627.2,599.5,625.5,604.4,620.6,610.2z M688.1,609.7c-3.9,4.4-9.3,6.8-15.4,6.8c-5.6,0-10.6-2.3-14.1-6.4
	c-4.9-5.7-6.7-10.7-6.4-18.6l42.2-0.3C694.9,598.9,693.2,604.1,688.1,609.7z"/>
<path class="st11" d="M717.3,591.5c0.3-1.7,0-3.7-0.1-5.6c-0.2-4.6-0.6-9.1-1.1-13.7c-1.4-10.9-3.5-22.1-9.9-31.2
	c-5.9-8.3-13.5-15.3-22.2-20.4c-21.2-12.3-48.9-11.7-72.1-5.8c-11.7,3-22.6,11.1-30.8,19.8c-11,11.7-18.4,26.1-21.6,41.8
	c-0.6,3.1-1.1,6.3-0.1,9.3c1.7,5.4,10.1,8.4,14.6,4.5c1.7-1.5,3.5-4.6,4.4-6.7c0.6-1.3,2.1-8.7-0.3-9.3c3.9,0.9,8.3-0.2,11.3-2.8
	c3-2.6,5.2-7.8,4.3-11.7c4.4,2.2,9.8,2.3,14.3,0.2c4.8-2.3,7.4-6.3,9.1-11.1c-0.4,1.1,8,2.6,8.8,2.6c3.9-0.2,7.4-1.8,10.3-4.4
	c2.9-2.6,3.3-5.8,3.9-9.6c0.2,0.4,0.4,0.8,0.6,1.2l-0.7,0c0.6,0.6,1.2,1.1,2,1.5c1.8,1.7,6.8,2.7,9.1,3.1c4,0.8,8.2,0.7,12.1-0.4
	c6-1.7,11.3-5.6,14.7-10.9c-1.7,2.7,3.8,9.3,5.6,10.8c2.7,2.3,7.5,4.8,10.9,5.7c-2.2,0.9-1.4,8.7-0.7,10.7c1.3,3.5,4.6,6.1,8,7.4
	c-1.6-0.6-2.7,6.3-2.8,7.4c-0.5,4.2-0.6,7.9,1.4,11.8c2.3,4.3,8.5,10.4,14,8.8C716.1,594.2,717,593,717.3,591.5z M680.1,517.1
	l0.1-1.4c0.6,0.4,1.1,0.9,1.6,1.3C681.3,517,680.7,517,680.1,517.1z"/>
<path class="st1" d="M719.3,607.9c-2.4,6.7-7.2,15.2-13.1,19c-5.8,3.7-9.9,0.8-10.3-6.4c-0.5-7.4,1.2-19.8,6.4-25.2
	c5.2-5.5,15.5-5.2,18.1,3.2C721.1,601.1,720.6,604.4,719.3,607.9z"/>
<path class="st1" d="M558.7,607.9c2.4,6.7,7.2,15.2,13.1,19c5.8,3.7,9.9,0.8,10.3-6.4c0.5-7.4-1.2-19.8-6.4-25.2
	c-5.2-5.5-15.5-5.2-18.1,3.2C556.9,601.1,557.5,604.4,558.7,607.9z"/>
<g>
	<path class="st21" d="M1308.9,855.8c-20.3-87.5-27.2-105.6-111.5-122.3c-33.4-6.6-33.3-17.8-35.5-50.5c-0.7-10.9-6.1-20.4-14.7-27
		c-14.6-11.2-30.5-13.5-47.3-6.3c-14,6-24.6,17.6-25.6,33.2c-2.2,32.7-2.1,43.9-35.5,50.5c-84.3,16.7-91.2,34.7-111.5,122.3l190.8,0
		L1308.9,855.8z"/>
	<path class="st21" d="M1165.6,690.1c-0.1-1.7-1.9-2.8-3.5-2c-10,5.4-20.2,6.4-25.1,7.3c-12.2,2.1-25.8,2.2-38.1,0
		c-4.9-0.9-15.1-1.9-25.1-7.3c-1.5-0.8-3.4,0.3-3.5,2c-0.2,4.4-0.4,7.9-0.9,11.2c-0.1,0.9,0.4,1.6,1,2.4
		c11.9,16.4,33.8,21,52.9,19.5c15.6-1.2,32.5-6.3,42.1-19.5c0.5-0.8,1.1-1.4,1-2.4C1166.1,698.1,1165.8,694.5,1165.6,690.1z"/>
	<path class="st22" d="M1079.9,855.8H927.2c20.3-87.5,27.2-105.6,111.5-122.3c15.7-3.1,24-7.3,28.6-14.2
		C1068.5,765.1,1072.7,810.7,1079.9,855.8z"/>
	<path class="st23" d="M1079.9,855.8h-37.6l-7.9-19c-3.8-9.1-7.7-18.5-7.7-28.3c0-9.9,4.7-20.4,13.7-24.3c-7.8,0.8-14.2-7.2-14.7-15
		c-0.5-7.8,3.9-14.9,7.1-22c2.1-4.7,4.2-9.6,5.7-13.6c0.1,0,0.2,0,0.3,0c3.9-0.8,7.4-1.6,10.4-2.6c0.8-0.2,1.5-0.5,2.2-0.7
		c3.6-1.2,6.6-2.6,9.1-4.3c0.5-0.3,0.9-0.6,1.4-0.9c0.5-0.3,0.9-0.7,1.3-1c1.7-1.4,3.1-3,4.2-4.7
		C1068.5,765.1,1072.7,810.7,1079.9,855.8z"/>
	<path class="st22" d="M1156.3,855.8H1309c-20.3-87.5-27.2-105.6-111.5-122.3c-15.7-3.1-24-7.3-28.6-14.2
		C1167.7,765.1,1163.5,810.7,1156.3,855.8z"/>
	<path class="st23" d="M1156.3,855.8h37.6l7.9-19c3.8-9.1,7.7-18.5,7.7-28.3c0-9.9-4.7-20.4-13.7-24.3c7.8,0.8,14.2-7.2,14.7-15
		s-3.9-14.9-7.1-22c-2.1-4.7-4.2-9.6-5.7-13.6c-0.1,0-0.2,0-0.3,0c-3.9-0.8-7.4-1.6-10.4-2.6c-0.8-0.2-1.5-0.5-2.2-0.7
		c-3.6-1.2-6.6-2.6-9.1-4.3c-0.5-0.3-0.9-0.6-1.4-0.9c-0.5-0.3-0.9-0.7-1.3-1c-1.7-1.4-3.1-3-4.2-4.7
		C1167.7,765.1,1163.5,810.7,1156.3,855.8z"/>
	<path class="st24" d="M1165.5,703.7c-0.5,0.7-1,1.4-1.7,2.1c0.2,0.9,0.3,1.6,0.5,2.4c-20.8,37.8-87,40.2-96.8,10.8
		c2.3-3.6,3.7-7.9,4.5-13.2c-0.6-0.7-1.1-1.4-1.6-2.1c-0.5-0.7-1.1-1.4-1-2.4c0.5-3.3,0.7-6.8,0.9-11.2c0.1-1.7,1.9-2.8,3.5-2
		c10,5.4,20.2,6.4,25.2,7.3c12.2,2.2,25.8,2.1,38.1,0c4.9-0.9,15.1-1.9,25.1-7.3c1.5-0.8,3.4,0.3,3.5,2c0.2,4.3,0.4,7.9,0.9,11.2
		C1166.7,702.3,1166.1,703,1165.5,703.7z"/>
	<path class="st25" d="M1198.9,590.3c-2-23.6-7-23.1-14.2-40.2c-5.5-13-16.1-22.9-25.5-27.5c-12.4-6.1-26.8-8.1-41-7.6
		c-14.2-0.6-28.6,1.5-41,7.6c-9.4,4.6-20,14.5-25.5,27.5c-7.2,17.2-12.2,16.6-14.2,40.2c-0.2,2.2-0.2,9.1,0,12.7
		c9.7-2.6,11.5,14.5,11.8,23.2c0.7,16.5,3.3,14.7,3.3,14.7c12.6,7.9,25.9,8.6,35.3,10.8c7,1.6,19.8,1.1,29,0.5c0.4,0,0.9,0,1.3-0.1
		c0.4,0,0.9,0,1.3,0.1c9.2,0.5,22,1.1,29-0.5c9.4-2.2,22.7-2.8,35.3-10.8c0,0,2.6,1.8,3.3-14.7c0.4-8.8,2.1-25.8,11.8-23.2
		C1199.1,599.4,1199.1,592.5,1198.9,590.3z"/>
	<path class="st25" d="M1198.9,603c-0.2,0-0.3-0.1-0.5-0.1c-9.3-1.9-11,14.7-11.3,23.3c-0.7,16.5-3.3,14.7-3.3,14.7
		c-2.7,1.7-5.4,3-8.1,4.1c-10,4.2-19.8,4.9-27.2,6.6c-3.5,0.8-8.3,1.1-13.4,1.1c-5.3,0-10.9-0.3-15.6-0.6c-0.4,0-0.9,0-1.3,0
		c-0.4,0-0.9,0-1.3,0c-9.2,0.5-22,1.1-29-0.5c-7.5-1.7-17.5-2.5-27.6-6.8c-2.6-1-5.1-2.3-7.7-3.9c0,0-2.6,1.8-3.3-14.7
		c-0.3-8.8-2.1-25.8-11.8-23.2v-0.2c-0.2-3.7-0.2-10.3,0-12.5c2-23.7,7-23.1,14.2-40.2c5.5-13,16.1-22.9,25.4-27.5
		c12.4-6.1,26.8-8.2,41-7.6c14.3-0.6,28.6,1.4,41,7.6c9.4,4.6,20,14.5,25.5,27.5c7.2,17.2,12.2,16.6,14.2,40.2
		C1199.1,592.5,1199.1,599.4,1198.9,603z"/>
	<path class="st1" d="M1181.5,627c-0.1-3.5,0.2-7.1,0.2-10.6c0-6.3-0.9-14.5-4.1-19.9c-1.1-1.9-2.8-2.8-4.3-4.4
		c-1.5-1.6-2.8-3.8-3.7-5.9c-0.4-0.9-0.8-1.8-1.1-2.6c-4.2-11.2-4.4-15-11.9-23.9c-9.6-11.4-25.6-12.5-36.9-12.6c-0.3,0-0.6,0-0.9,0
		c-0.2,0-0.3,0-0.5,0c-0.1,0-0.3,0-0.4,0c-0.4,0-0.7,0-1,0c-11.3,0.1-27.4,1.2-36.9,12.6c-7.5,8.9-7.7,12.7-11.9,23.9
		c-0.3,0.9-0.7,1.8-1.1,2.6c-1,2.2-2.2,4.3-3.7,5.9c-1.4,1.5-3.1,2.5-4.3,4.4c-3.2,5.5-4.1,13.6-4.1,19.9c0,3.5,0.3,7.1,0.2,10.6
		c-0.1,2-0.1,14.3-2.3,14c1.9,14.4,12.1,34.9,14.6,39.6c12,22.9,26,24.9,32.3,27.1c3.8,1.4,7.9,1.8,11.8,2.2
		c1.8,0.2,3.6,0.2,5.4,0.2c0.3,0,0.6,0,0.9,0c0.2,0,0.3,0,0.5,0c0.1,0,0.3,0,0.4,0c0.4,0,0.7,0,1,0c1.8,0,3.6-0.1,5.4-0.3
		c4-0.4,8-0.9,11.8-2.2c6.2-2.2,20.3-4.2,32.3-27.1c2.5-4.7,12.8-25.2,14.6-39.6C1181.5,641.2,1181.6,629,1181.5,627z"/>
	<path class="st1" d="M1183.8,640.9c-0.4,2.9-1.1,6.1-2,9.3c-3.7,12.7-10.6,26.5-12.6,30.3c-12,22.9-26.1,24.9-32.3,27.1
		c-3.8,1.4-7.8,1.8-11.8,2.2c-1.8,0.2-3.6,0.2-5.4,0.2c-0.3,0-0.6,0-0.9,0c-0.2,0-0.3,0-0.5,0c-0.2,0-0.3,0-0.4,0c-0.4,0-0.7,0-1,0
		c-1.8,0-3.6-0.1-5.4-0.3c-4-0.4-8-0.9-11.8-2.2c-6.2-2.3-20.2-4.2-32.3-27.1c-2-3.8-8.9-17.6-12.6-30.4c-0.9-3.2-1.6-6.4-2-9.2
		c2.2,0.3,2.2-12,2.3-14c0.1-3.5-0.2-7.1-0.2-10.6c0-0.9,0-1.8,0.1-2.8c0.2-5.8,1.2-12.5,4-17.2c1.1-1.9,2.8-2.8,4.3-4.3
		c1.5-1.6,2.8-3.8,3.7-5.9c0.4-0.9,0.8-1.8,1.1-2.6c4.2-11.2,4.4-15,11.9-24c9.6-11.4,25.6-12.5,36.9-12.5c0.3,0,0.6,0,0.9,0
		c0.2,0,0.3,0,0.5,0c0.2,0,0.3,0,0.4,0c0.3,0,0.7,0,1,0c11.3,0.2,27.4,1.2,37,12.6c7.5,8.9,7.7,12.7,11.9,24
		c0.3,0.9,0.7,1.7,1.1,2.6c1,2.2,2.3,4.3,3.8,5.9c1.4,1.6,3.1,2.4,4.2,4.3c2.6,4.5,3.7,11,4,16.6c0,1.2,0.1,2.3,0.1,3.3
		c0,3.5-0.3,7-0.2,10.6C1181.6,629,1181.5,641.2,1183.8,640.9z"/>
	<g>
		<g>
			<path class="st5" d="M1113.5,613c2.3,4.5,3.2,9.5,3.6,14.5c0.2,5-0.3,10.1-1.5,15.1c-0.2,1.3-0.6,2.5-1,3.7
				c-0.1,0.5-0.4,1.4-0.4,1.7c-0.1,0.3,0,0.6,0,0.8c0.1,0.6,1.2,1.7,2.9,2.5c3.4,1.4,8,2.2,11.7-1.1l0.5,0.3c-0.4,2.7-2.8,5.1-5.5,6
				c-2.7,1-5.7,1.1-8.7,0.3c-1.4-0.5-2.9-1.2-4.2-2.3c-1.3-1.2-2.4-3.1-2.5-5.2c0-1,0.2-2,0.5-2.9c0.3-0.9,0.5-1.2,0.8-1.8
				c0.5-1.1,1-2.1,1.3-3.3c1.6-4.4,2.7-9,3.1-13.8c0.4-4.7,0.2-9.6-1.2-14.2L1113.5,613z"/>
		</g>
	</g>
	<g>
		<path class="st21" d="M1148,643.9c-0.8,0-1.7,0-2.5,0c-2.5-0.1-4.9-0.2-7.3-0.5l-0.6-0.1c-3.1-0.3-6.6-0.7-8.5-4.8
			c-1.4-3-1.7-6.4-1.9-9c-0.2-2.7-0.1-5.2,0.3-7.6c0.2-1.4,0.5-3,1.3-4.5c0.9-1.5,2.4-2.6,4.5-3.3c2.9-1.1,6-1.2,8.7-1.3
			c4.1-0.1,8.2,0.1,12.3,0.4c0.7,0,1.5,0.1,2.2,0.1c6.2,0.3,12.6,0.5,12.6,13.2c0,12-1.3,15.4-10.1,16.7
			C1155.6,643.6,1151.9,643.9,1148,643.9z M1144.4,616.6c-0.7,0-1.4,0-2.1,0c-2.4,0.1-5.1,0.2-7.5,1.1c-1.3,0.5-2.1,1-2.5,1.7
			c-0.5,0.8-0.7,1.9-0.8,3.1c-0.3,2.1-0.4,4.4-0.3,6.8c0.1,2.2,0.4,5.1,1.5,7.6c0.9,2,2.3,2.3,5.4,2.6l0.6,0.1
			c2.2,0.3,4.6,0.4,6.9,0.5c4.6,0.1,8.9-0.1,12.8-0.7c5.8-0.8,6.8-1.3,6.8-12.9c0-8.9-2.8-9-8.8-9.3c-0.7,0-1.5-0.1-2.2-0.1
			C1150.9,616.8,1147.6,616.6,1144.4,616.6z"/>
	</g>
	<g>
		<path class="st21" d="M1088.4,643.9c-3.9,0-7.5-0.3-11-0.7c-8.8-1.3-10.1-4.7-10.1-16.7c0-12.6,6.4-12.9,12.6-13.2
			c0.7,0,1.4-0.1,2.2-0.1c3.9-0.2,8.7-0.5,13.4-0.3c2.7,0.1,5.6,0.4,8.3,1.5c3.9,1.7,4.9,4.9,5.3,8.1c0.3,2.7,0.4,5.5,0.1,8.4
			c-0.2,2.5-0.7,5.7-2.2,8.4c-1.9,3.5-5.7,3.8-8.5,4.1l-0.9,0.1c-2.3,0.2-4.6,0.4-7,0.4C1089.8,643.9,1089.1,643.9,1088.4,643.9z
			 M1082.3,617c-0.8,0-1.5,0.1-2.2,0.1c-6.1,0.3-8.8,0.4-8.8,9.3c0,11.6,1,12,6.8,12.9c3.8,0.6,8,0.8,12.4,0.7
			c2.3-0.1,4.5-0.2,6.7-0.4l1-0.1c2.8-0.3,4.6-0.5,5.5-2.1c1.1-2.1,1.5-4.7,1.7-6.8c0.2-2.6,0.2-5.2-0.1-7.6c-0.4-3.1-1.1-4.2-2.9-5
			c-2.2-0.9-4.7-1.1-6.9-1.2C1090.8,616.5,1086.1,616.8,1082.3,617L1082.3,617z"/>
	</g>
	<g>
		<path class="st21" d="M1129.2,630.4c-0.3,0-0.6-0.1-0.8-0.2c-2.6-1.2-6.3-2-9.9-2h-0.5c-3.6,0.1-7.3,0.8-9.8,2
			c-1,0.4-2.1,0-2.6-0.9c-0.5-1,0-2.1,0.9-2.6c3-1.4,7.3-2.3,11.5-2.4h0.6c4.2,0.1,8.5,1,11.5,2.4c1,0.5,1.4,1.6,0.9,2.6
			C1130.6,630,1129.9,630.4,1129.2,630.4z"/>
	</g>
	<g>
		<path class="st21" d="M1068.9,623.1c-0.5,0-1-0.2-1.4-0.6c-6.3-6.3-23-13.3-27.3-14c-1.1-0.2-1.8-1.2-1.6-2.2
			c0.2-1.1,1.2-1.8,2.2-1.6c4.8,0.7,22.6,8.1,29.5,15.1c0.8,0.8,0.8,2,0,2.7C1069.8,622.9,1069.4,623.1,1068.9,623.1z"/>
	</g>
	<g>
		<path class="st21" d="M1167.2,623.1c-0.5,0-1-0.2-1.4-0.6c-0.8-0.8-0.8-2,0-2.7c6.9-6.9,24.7-14.3,29.5-15.1
			c1.1-0.2,2,0.6,2.2,1.6c0.2,1.1-0.6,2.1-1.6,2.2c-4.3,0.7-21.1,7.7-27.3,14C1168.2,622.9,1167.7,623.1,1167.2,623.1z"/>
	</g>
	<path class="st1" d="M1181.7,650.3c0.9-3.3,1.6-6.4,2-9.3c0,0,2.6,1.8,3.3-14.7c0.4-8.6,2-25.2,11.3-23.3c1.5,1,2.7,2.9,3.3,5.9
		C1203.7,617.3,1196.1,643.7,1181.7,650.3z"/>
	<path class="st1" d="M1054.7,650.2c-0.1,0-0.2,0-0.3-0.1c-14.4-6.5-22.1-33-20.2-41.6c0.7-3,1.8-4.8,3.3-5.8v0.2
		c9.7-2.6,11.5,14.4,11.8,23.2c0.7,16.5,3.3,14.7,3.3,14.7C1053.1,643.8,1053.8,647,1054.7,650.2z"/>
	<path class="st25" d="M1148.4,676.8c-1.7-5-5-9.5-10.3-12.9c-11.5-7.4-27.5-7.5-39.1,0c-5.3,3.4-8.6,7.9-10.3,12.9
		c-3.3,9.4-1,20.8,4,30.5c11,21.4,40.7,21.5,51.7,0C1149.4,697.5,1151.7,686.2,1148.4,676.8z"/>
	<path class="st25" d="M1094.5,609c0.3,0.1,0.5,0.1,0.8,0.2c3,0.9,8.5,4,11.2,0.8c2.6-3.2-1.2-6.1-4.1-6.6c-1.4-0.2-3-0.3-4.2-1.1
		c-1.3-0.8-2.3-2.2-3.7-2.7c-1.5-0.6-3.2,0-4.7,0.8c-1.4,0.8-2.7,1.8-4.3,2.3c-2.8,0.9-4.9-0.9-7.6-0.9c-2,0-4.2,0.7-6,1.3
		c-1.7,0.6-3.4,1.3-4.8,2.4c-0.7,0.6-3.6,3.9-1.6,4.7c2,0.8,4.8-1,6.7-1.5c2.9-0.8,6-1.2,9.1-1.3
		C1085.7,607.3,1090.2,607.8,1094.5,609z"/>
	<path class="st25" d="M1141.9,609c-0.3,0.1-0.5,0.1-0.8,0.2c-3,0.9-8.5,4-11.2,0.8c-2.6-3.2,1.2-6.1,4.1-6.6c1.4-0.2,3-0.3,4.2-1.1
		c1.3-0.8,2.3-2.2,3.7-2.7c1.5-0.6,3.2,0,4.7,0.8c1.4,0.8,2.7,1.8,4.3,2.3c2.8,0.9,4.9-0.9,7.6-0.9c2,0,4.2,0.7,6,1.3
		c1.7,0.6,3.4,1.3,4.8,2.4c0.7,0.6,3.6,3.9,1.6,4.7c-2,0.8-4.8-1-6.7-1.5c-2.9-0.8-6-1.2-9.1-1.3
		C1150.7,607.3,1146.2,607.8,1141.9,609z"/>
	<path class="st17" d="M1144.8,626.8c-0.5,3.7,1.6,7,4.7,7.5c3.1,0.4,6-2.3,6.5-6c0.5-3.7-1.6-7-4.7-7.5
		C1148.2,620.5,1145.3,623.1,1144.8,626.8z"/>
	<path class="st17" d="M1091,626.8c0.5,3.7-1.6,7-4.7,7.5c-3.1,0.4-6-2.3-6.5-6c-0.5-3.7,1.6-7,4.7-7.5
		C1087.6,620.5,1090.5,623.1,1091,626.8z"/>
	<path class="st7" d="M1118.9,690.9c9-0.7,15-6.5,19.8-13.3c1.3-1.8,0.1-2.3-0.6-2c-5.6,2.1-12.8,3.2-20.4,3.1
		c-12.7-0.2-20.4-3.4-21.1-2.9c-2.9,1.9,7.7,11.5,9.3,12.3C1109.8,690.1,1114.4,691.2,1118.9,690.9z"/>
</g>
<path class="st26" d="M766.5,950.4c11.5,10.3,19.8,24.2,17.2,60.3c-1.7,24.3,9,48.3,13.4,71.9c5.1,27.5,1.7,54.3-19.2,74.6
	c-29.2,28.3-76.5,30.6-102.5-3.7c-40.5-53.5,2.9-111.2,21-137.4c11-15.9,21.4-42.4,24.7-62C724.4,934.5,753.6,938.8,766.5,950.4z"/>
<path class="st2" d="M724.9,945.3c3.9,1.9,6.7,5.5,10.2,8.2c2.1,1.6,4.6,2.9,6.6,4.7c4.3,3.8,6.7,9.5,6.8,15.3
	c0.2,5.7-1.6,11.4-4.5,16.4c-1.4,2.3-3.3,4.8-6,4.9c-1.6,0.1-3.1-0.7-4.5-1.5c-10.1-5.5-33.6-15.7-37.2-27.9
	C692.6,952.3,714.2,940,724.9,945.3z"/>
<path class="st26" d="M766,1012.6c-4.4-21.4-20.9-35.5-36.7-43.9c-44.2-23.5-77.9-4.8-94.2,2.1c-9,3.8-26.7,0.6-38.6,15.7
	c-6.7,8.4-6.6,27.3,7.8,32.3c3.3,1.2-7.2,17.6-2.8,53.7c2.1,17,13.2,35.3,25.4,47.5c7.9,8,13.3,12.5,24.5,13.7c10,1,18,6.9,27.9,5.2
	c23.8-4,46.6-5.1,61.1-39.2C746.7,1084.8,775,1056.5,766,1012.6z"/>
<path class="st1" d="M712,1099.2c0,28-16.5,59.3,8.5,82.3c14.4,13.3,40.8,14.7,61.5,21.9c32.8,11.4,46.3,48.5,53.1,82.1l-325.4,0
	c7.4-27,21.6-53.4,41.1-70.2c18.6-16,48-16,66.8-37.2c10.2-11.6,9.8-48.1,5-89.9C618.4,1052.1,712,1050.5,712,1099.2z"/>
<path class="st14" d="M835,1286.8l-325.4-0.1c7.3-27,21.6-54.6,41.1-71.5c16.4-14.2,41.3-15.8,59.8-30.6c2.5,20.3,28.7,32,43.1,33.2
	c27.7,2.1,55.3-9,69.9-33.8c14.9,11,39.1,12.6,58.4,19.3C814.8,1214.8,828.3,1253.3,835,1286.8z"/>
<path class="st20" d="M636.6,1286.8l-132.6,0c7.3-27,21.4-58.4,47.1-73.9c19-11.4,35.7-15.1,52.6-23.4
	C611.3,1203.8,627.6,1241.5,636.6,1286.8z"/>
<path class="st20" d="M845.5,1286.8l-165.8,0c9.5-27,42.2-86.7,52.2-97.9c14.6,6.9,33.9,9.5,50.1,14.5
	C822.7,1216,838.8,1253.3,845.5,1286.8z"/>
<path class="st24" d="M624,1102.8c3,31.4,3.1,58.5-3.5,71.1c20.3,12.7,61.4,9.9,86.3-21.7c-1.1-17,5.1-35.5,5.2-52.7
	C684.3,1101.1,652.9,1101.8,624,1102.8z"/>
<path class="st1" d="M725.2,1076.9c-3.5-3-2.1-18.4-1.7-26.3c0.4-7.8-2.5-15.8-7.8-21.5c-11.5-12.3-25.8-8.7-40.4-6
	c-11.1,2.1-23.5,3.1-34.3-0.5c-11.8-3.9-21.1-5.4-28.6-2.6c-3.4,10.4-6.3,20.8-7.6,34.2c-1,10.8,3.2,18.8,1.4,29.5
	c-2.2,12.6-1.8,17.9,1.5,27.7c4.2,12.6,10.6,24.4,18,33.1c10.4,12.2,20.1,19.2,40.1,14.9c15.2-3.3,28.2-11.4,38.5-23.4
	c4.4-5.1,9.1-15.6,12.3-21.4c4.2-7.5,5.4-9.2,7.8-17.5C726.3,1090.6,727,1078.4,725.2,1076.9z"/>
<path class="st1" d="M718.6,1083.6c0.1-0.3,3.1-4.8,4.4-6.7c2.4-3.6,9.3-9,14.3-3.2c3.9,4.5-0.5,15.4-6.3,24.9
	c-5.4,8.8-15.4,15.6-17.3,15.8C711.7,1114.6,717.7,1087.5,718.6,1083.6z"/>
<path class="st24" d="M648.3,1063.7c1.3,4.1,2.5,8.3,3.4,12.6c0.9,4.2,1.5,9-0.4,13.8c-0.9,2.3-2.3,4.3-3.7,6.1
	c-1.5,1.8-1.5,2.9-1.4,3.3c0,0.6,1,2.1,2.5,3.4c1.4,1.4,3.1,2.6,4.9,4.2l-0.2,0.6c-2.4,0.3-4.7,0-7-0.8c-1.1-0.4-2.3-1-3.4-1.9
	c-1.1-0.9-2.2-2.2-2.7-4c-0.5-1.8,0-3.9,0.8-5.1c0.8-1.3,2-2.4,2.6-2.9c1.5-1.4,2.7-2.8,3.6-4.5c1.8-3.2,1.9-7.4,1.6-11.6
	c-0.2-4.2-0.8-8.5-1.3-12.8L648.3,1063.7z"/>
<path class="st7" d="M631.1,1119.5c-0.2-1.1,1.2-2.2,2.5-1.8c9.3,2.9,24.2,6.7,41,2.4c10.8-2.7-2.2,13.6-10.4,16.6
	c-10.7,4-19.2,1.4-25.2-3.7C634.2,1128.9,631.8,1123.3,631.1,1119.5z"/>
<path class="st17" d="M628.7,1077.8c-0.6,3.2-3.4,5.3-6.3,4.7c-2.8-0.6-4.6-3.6-3.9-6.8c0.6-3.2,3.4-5.3,6.3-4.7
	S629.3,1074.6,628.7,1077.8z"/>
<path class="st17" d="M693.1,1084.1c-0.9,3.3-4,5.3-7,4.5c-2.9-0.8-4.6-4.1-3.7-7.4c0.9-3.3,4-5.3,7-4.5
	C692.3,1077.5,694,1080.8,693.1,1084.1z"/>
<g>
	<path class="st26" d="M676.2,1059.5c4.5-3.3,10.3-3.5,15.8-3.5c5.6,0,12.7,1.6,18,4.8c3.9,2.3,8.3,7.3,7.3,8.4
		c-0.8,0.9-6-3.5-6.6-3.8c-8.7-5.6-20.4-3.5-29.6-0.1c-1.9,0.7-4.6,0.8-5.6-0.7C674.7,1063.2,675,1060.4,676.2,1059.5z"/>
</g>
<g>
	<path class="st26" d="M635.5,1057.6c-3.2-4-7.7-5-12-5.8c-2.8-0.5-5.8-0.5-8.6,0c-4.1,0.7-9.6,2.4-10.2,7.3c-0.1,0.4,0,1.2,0.6,1
		c0.2-0.1,0.4-0.2,0.5-0.3c1.7-1.3,3.5-2.6,5.5-3.2c2.4-0.7,5.1-0.6,7.5-0.3c4.2,0.6,8.3,2.5,11.8,4.8c0.1,0.1,0.3,0.2,0.4,0.3
		c1.4,1,3.4,2.6,4.4,1.2C636.2,1061.6,636.3,1058.7,635.5,1057.6z"/>
</g>
</svg>
