<?xml version="1.0" encoding="utf-8"?>
<!-- Generator: Adobe Illustrator 23.0.1, SVG Export Plug-In . SVG Version: 6.00 Build 0)  -->
<svg version="1.1" id="Ñëîé_9__x28_êîïèÿ8_x29_"
	 xmlns="http://www.w3.org/2000/svg" xmlns:xlink="http://www.w3.org/1999/xlink" x="0px" y="0px" viewBox="0 0 1313 1299.1"
	 style="enable-background:new 0 0 1313 1299.1;" xml:space="preserve">
<style type="text/css">
	.st0{fill:#FDA68A;}
	.st1{fill:#D9886E;}
	.st2{fill:#AF6C51;}
	.st3{fill:#ED6B55;}
	.st4{fill:#FFFFFF;}
	.st5{fill:#42210B;}
	.st6{fill:#242B45;}
	.st7{fill:#C28976;}
	.st8{fill:#A3C6D4;}
	.st9{opacity:0.2;fill:#4F3E36;}
	.st10{fill:#B86553;}
	.st11{fill:#CCCCCC;}
	.st12{fill:#805354;}
	.st13{fill:#485A7E;}
	.st14{fill:#2C3B5A;}
	.st15{opacity:0.2;fill:#662D91;}
	.st16{fill:#754C24;}
	.st17{fill:#9C4345;}
	.st18{fill:#FAD4B0;}
	.st19{fill:#82383A;}
	.st20{fill:#333333;}
	.st21{opacity:0.15;fill:#4F3E36;}
	.st22{fill:#FFC853;}
	.st23{fill:#7F7C80;}
	.st24{opacity:0.14;}
	.st25{fill:#4F3E36;}
	.st26{fill:#6B393A;}
	.st27{fill:#EBC7A5;}
	.st28{fill:#33271B;}
</style>
<path class="st0" d="M669.7,670.1c0,27.8-16.3,51,8.4,73.9c14.3,13.2,61,27.1,77.3,39c24,17.5,36.5,33.2,40.1,71.9h-331
	c7.7-32.1,20.4-51.4,32.9-63c23.1-21.5,64.4-35.2,78.7-51.3c10.2-11.5,9.7-39.9,4.9-81.3C576.9,623.5,669.7,621.9,669.7,670.1z"/>
<path class="st1" d="M665.3,722.8c-3.2-15.3,3.4-31.2,4.3-49.1c-23.3,1.9-60.1,4-86.6,5.5c0.1,1.7,0.3,3.4,0.4,5
	c0,0.4,0.1,0.7,0.1,1.1c0.1,1.5,0.2,3,0.3,4.5c0,0.4,0,0.8,0.1,1.2c0.1,1.5,0.2,2.9,0.2,4.3c0,0.2,0,0.4,0,0.7
	c0.2,4.3,0.2,8.4,0.1,12.2c0,0.6,0,1.2,0,1.8c0,0.9-0.1,1.8-0.1,2.7c0,0.7-0.1,1.3-0.1,2c-0.1,0.8-0.1,1.6-0.2,2.4
	c-0.1,0.7-0.1,1.4-0.2,2c-0.1,0.7-0.2,1.4-0.2,2.1c-0.1,0.8-0.2,1.6-0.4,2.4c-0.1,0.7-0.2,1.3-0.4,1.9c-0.2,1-0.4,2-0.7,2.9
	c-0.1,0.4-0.2,0.9-0.4,1.3c-0.2,0.7-0.4,1.4-0.6,2c-0.1,0.4-0.3,0.8-0.5,1.2c-0.2,0.6-0.5,1.2-0.8,1.8c-0.2,0.4-0.3,0.7-0.5,1.1
	c-0.3,0.6-0.6,1.2-1,1.7c-0.2,0.3-0.3,0.5-0.5,0.8c-0.5,0.8-1.1,1.5-1.6,2.2c-0.3,0.4-0.7,0.7-1.1,1.1
	C604.8,757.8,652.4,740.5,665.3,722.8z"/>
<path class="st2" d="M626.9,489.1c-1.7,1.9-2.7,4.5-5.5,4.9c-2.1,0.4-4.3-0.4-6.2-1.3c-1.9-0.9-3.8-2.1-5.9-2.6
	c-4.7-1.2-9.3,0.9-12.5,4.3c-3.8,4.1-4.9,9.9-11.3,9.8c-6.7-0.1-12.2-5.9-18.2,0.3c-3.5,3.6-4.2,9.1-8.6,12
	c-4.8,3.1-11.3,1-15.8,4.7c-5.5,4.6-3,12.5-6.5,17.9c-4.7,7.4-15.3,9-14.1,20c0.4,3.5,2.1,7,1.6,10.5c-1,6.4-8.8,9.9-10.3,16.2
	c-1.5,6.3,3.8,12.4,3,18.8c-0.5,3.9-3.2,7.2-4.8,10.8c-1.5,3.5-1.3,7,0.7,10.2c1.8,2.9,5.6,4.6,6.6,8c2.2,7.5-7.2,13.8,1.2,20
	c2.5,1.9,6.9,2.3,8.7,5c2.1,3.2,0.2,8.7,0.9,12.4c0.6,3.2,2.2,6.4,5,8.2c2.7,1.7,6,1.9,9,2.9c6.2,2,5.9,9,11.1,11.7
	c4.3,2.3,10.5-0.8,14.1,2.5c0.9,0.9,1.5,2,2.3,3c2.8,3.5,8,4.2,12.4,3.3c4.4-1,8.4-3.3,12.6-4.9c12.5-4.8,24.4-4.7,36.4,1.3
	c7.5,3.8,16,7.9,23.9,5.3c4.4-1.4,8.4-4.9,13-4.2c5.1,0.7,9,6.5,14,5.4c4.7-1,6.5-7.2,11-8.7c3.7-1.2,7.8,1.2,11.7,0.7
	c3.2-0.4,5.8-2.9,7.3-5.7c3-5.7,1.8-10.1,8.7-12.4c4.3-1.5,10.5-0.9,13.2-5.3c2.3-3.7,0.2-8.4,2.1-12.2c1.7-3.7,6.1-4,9-6.7
	c5.3-4.8,2.3-12.2,1.4-18.4c-0.2-1.1-0.3-2.3-0.1-3.4c0.8-4.4,5.4-7.1,6.1-12c0.6-3.7-1.3-7.3-2.2-10.9c-1.5-6.1,5-10.7,5-16.5
	c0.1-7.3-11.1-8.6-10.4-16.3c0.4-5,4.8-9.8,3.1-15c-1.5-4.5-7.3-6.3-9-10.7c-1.6-4.1,0.9-8.9-1-12.8c-2-4-6.4-4.5-10.1-6.1
	c-6.2-2.7-2.7-12.2-6.7-17.1c-3.6-4.3-9.6-1.4-14.1-2.9c-4.3-1.4-3.4-3.3-4.7-7.2c-2.9-8.6-9.8-11-18.3-9.2
	c-1.9,0.4-3.9,0.9-5.9,0.5c-5.8-1.2-6.9-10-14-10.1c-5.5-0.1-9.7,6.2-15.2,5.2c-5.7-1.1-8.1-8.4-14.7-8.2c-3.4,0.1-6.5,2.3-8.7,4.7
	C627,488.9,627,489,626.9,489.1z"/>
<path class="st0" d="M568.2,624.3c1.7,9.1-2.8,27.1,2.9,54c6,28.3,25.5,40.9,42.4,44.2c26.5,5.1,56.1-6.5,73.9-50.1
	c9.1-22.3,9.7-49.7,9.1-57.1c-0.9-10.8-1-21.2-3.2-30.5c-4.7-20-16.7-32.3-31.9-36.7c-14.7-4.3-31.4-10.2-62.2,0.1
	C583.5,553.3,560.2,582.3,568.2,624.3z"/>
<path class="st2" d="M664.7,536.4c-23.7-8.2-61.5-7.6-86.2,11.8c-26.1,20.5-31.3,69.7-14.2,88.1c8-2.9,69.5-23.5,93.2-60.5
	c0,0,6.6-0.4,19.3,15.9c8.2,10.5,12.3,28.1,13.9,41.3c1,7.8-0.3,16.6-0.3,24.5c0,3.6,2.9,20.8,11.2,14.6
	C715.1,630.2,712.1,558.5,664.7,536.4z"/>
<path class="st0" d="M689.2,648.6c0.2-0.9,0.5-1.8,1.1-2.5c3-4.4,12-15.5,17.5-8.2c3.6,4.7-0.4,15.3-6.1,24.8
	c-5.3,8.8-15.1,15.5-17.1,15.8C682.9,678.5,688,654.5,689.2,648.6z"/>
<path class="st0" d="M579.9,641.7c0.2-4.6-0.7-9.2-2.9-13.2c-2.8-5.1-7.2-10.1-12.1-6.2c-4.6,3.7-3.5,14.9-0.4,25.5
	c2.9,9.8,10.7,18.9,12.5,19.6C578.3,667.9,579.4,650.9,579.9,641.7z"/>
<path class="st3" d="M721.9,766.5c-4.3-1.8-8.7-3.7-13-5.6c-3.4,17.9-5.3,44.1-5.6,55.1c-14.6,7.8-50.2,13.6-85.2,12.4
	c-28.6-1-61.5-10.4-71.8-16.8c2.1-20.8,2.7-31.4,2.9-52.3c-2.6,1.4-5.2,2.8-7.8,4.3c-2.1,1.1-4.1,2.2-6.2,3.4
	c-1.5,31-7.6,68.9-11,87.7h199C720.7,820.6,717.9,794.4,721.9,766.5z"/>
<path class="st2" d="M649.5,626.2c-0.7-0.2-1.4-0.6-2.1-1.2c-1.8-1.6-0.8-3.5,1.3-4.1c5.3-1.6,11.2-1.9,16.6-1c4,0.7,7.8,2,11.3,4
	c1.1,0.6,4.5,2.4,4.3,4c-0.2,2.3-6.4,0.4-7.6,0.2c-4.4-0.8-8.6-1.9-13.1-2.1c-2-0.1-3.9,0-5.9,0.2
	C652.6,626.4,651,626.6,649.5,626.2z"/>
<path class="st2" d="M603.1,623.6c0.6-0.1,1.3-0.4,2-0.9c1.8-1.3,1.2-3.3-0.5-4.2c-4.3-2.3-9.2-3.4-14-3.3
	c-3.5,0.1-6.9,0.8-10.2,2.4c-1,0.5-4.2,1.8-4.3,3.3c-0.1,2.3,5.4,1.3,6.4,1.3c3.8-0.2,7.6-0.7,11.4-0.2c1.7,0.2,3.3,0.5,5,1
	C600.5,623.4,601.8,623.8,603.1,623.6z"/>
<g>
	<g>
		<path class="st1" d="M622.3,631c0.3,4.1-0.1,8.2-0.9,12.4c-0.9,4.1-2.3,8.1-4.5,12c-2.1,3.5-2.7,6.1-2,8.5
			c0.9,2.7,3.9,5.4,7.2,7.9l-0.2,0.6c-2.2,0.1-4.4-0.4-6.4-1.3c-2-0.9-4.1-2.4-5.5-4.7c-1.5-2.3-1.7-5.5-0.9-8
			c0.7-2.5,2.4-4.5,3.7-5.9c2.4-2.8,4.3-6.3,5.7-9.9c1.5-3.6,2.6-7.5,3.3-11.5L622.3,631z"/>
	</g>
</g>
<path class="st4" d="M596.4,684c-0.1-1.1,1.3-2.3,2.5-1.7c7.3,4,20,9.3,40.6,5.6c10.8-1.9,2.9,9-10.4,12.6c-9.8,2.7-16.5,0.5-23-3.3
	C601.1,694.3,596.6,686.5,596.4,684z"/>
<path class="st5" d="M601.9,635.7c0.8,3.7-1,7.2-4.1,7.8c-3,0.7-6.2-1.8-7-5.4c-0.8-3.7,1-7.2,4.1-7.8
	C597.9,629.7,601.1,632.1,601.9,635.7z"/>
<path class="st5" d="M658.7,645.8c-1.2,3.7-4.7,5.8-7.8,4.8c-3.1-1-4.5-4.9-3.3-8.5c1.2-3.7,4.7-5.8,7.8-4.8
	C658.5,638.2,659.9,642.1,658.7,645.8z"/>
<path class="st6" d="M1178.5,1021.9c-17.3-47.7-57.9-60.6-87.5-60.6c-17.6,0-49.9,7.2-74.9,37.4c-32.3,39-56.8,158.2-6.9,203.8
	c37.4,34.3,145.6,17.5,164.6,8.7C1228.5,1185.6,1219,1133.3,1178.5,1021.9z"/>
<path class="st7" d="M1125.5,1109.5c0,28-16.5,59.3,8.5,82.3c14.4,13.3,40.8,14.7,61.5,21.9c32.8,11.4,46.3,48.5,53.1,82.1l-325.4,0
	c7.4-27,21.6-53.4,41.1-70.2c18.6-16,48-16,66.8-37.2c10.2-11.6,9.8-48.1,5-89.9C1031.9,1062.5,1125.5,1060.9,1125.5,1109.5z"/>
<path class="st8" d="M1066.7,1199.1c23.4,2,45.8-6.3,57.9-19.4c0-0.1-0.1-0.2-0.1-0.3c-6.2-12.7-4.6-26.9-2.3-41.3
	c-13.5,9.2-34.3,16.5-50.2,16.1c-15.1-0.4-26.3-6.1-32.5-11.6c0.4,18.2-0.9,33-5.3,41.4c0,0.1-0.1,0.3-0.1,0.3
	C1038.8,1191,1048,1197.5,1066.7,1199.1z"/>
<path class="st8" d="M1182.3,1295.9h-218c5.2-19.7,19-44.4,29-58.1c12.1-16.6,29.5-38.5,38.9-50.6c0.7-0.8,1.3-1.8,1.9-2.9
	c4.7,6.6,14,13.2,32.7,14.7c23.4,2,45.8-6.3,57.9-19.4c1.4,2.7,3.1,5.4,5.3,8c3.9,11.2,11.2,24.7,16.5,33.8
	C1159,1243.4,1174.1,1270.7,1182.3,1295.9z"/>
<path class="st9" d="M1037.6,1113.1c3,31.4,3.1,58.5-3.5,71.1c23.5,4.6,61.5-1.4,86.3-21.7c-1.1-17,5.1-35.5,5.2-52.7
	C1097.8,1111.4,1066.5,1112.1,1037.6,1113.1z"/>
<path class="st7" d="M1012.7,1054.7c1.6,21.1-3.6,23.2-3.5,40.2c0.2,26.9,32.9,68.5,49.6,69.7c34.5,2.6,62.5-21.5,71-36.2
	c8.3-14.4,13.1-34,10.8-51.3c-2-14.7-0.4-37-2.3-46.4c-2.3-11.2-13.6-37.3-28.5-43.1c-15.5-6-36.5-7.9-59.7,0.9
	C1037.2,993.4,1009.2,1008.9,1012.7,1054.7z"/>
<path class="st6" d="M1025.2,997.7c24.7-25.5,64.8-31.2,94.6-16.3c11.9,6,23.8,21.7,28,40.3c3.4,15.2,4.8,31.7-0.8,48.7
	c-12.1-3.8-27.2-8.3-40.9-10.6c-1.1-6.3-1.1-11.6-0.6-17.8c-2.9,2.3-6,11-6.4,17.6c-13.9-1.5-33.8-3.7-47.6-3.3
	c-1.4-9.9-0.3-19.4-0.5-29.3c-6,8.4-8.3,21.8-7.8,30.9c0.4-1.9-22.9,0.8-35.2,3.5C1008.3,1061.4,1002,1021.7,1025.2,997.7z"/>
<path class="st7" d="M1136.4,1074.3c0.1-0.3,3.3-4.7,4.6-6.5c2.5-3.5,9.7-8.6,14.4-2.6c3.7,4.7-1.1,15.4-7.3,24.7
	c-5.7,8.6-16,15-17.9,15.1C1128.4,1105,1135.4,1078.2,1136.4,1074.3z"/>
<g>
	<g>
		<path class="st10" d="M1062.8,1060.8c0.2,4.5-0.2,9-1.2,13.5c-1.1,4.4-2.9,8.9-6.1,12.7c-2.2,2.2-2.5,2.7-2.4,3.6
			c0,0.8,0.8,2.5,1.9,4.1c2.2,3.2,5.3,6.4,8.1,10l-0.3,0.5c-4.6-1.2-8.7-3.4-12.2-6.9c-1.6-1.8-3.5-4.1-3.5-7.8
			c0.1-1.8,0.9-3.6,2.1-4.7c0.5-0.6,1.3-1.1,1.6-1.4l1.1-0.9c3-2.5,5.2-6.2,6.7-10.2c1.7-4,2.8-8.2,3.5-12.6L1062.8,1060.8z"/>
	</g>
</g>
<path class="st4" d="M1037.8,1123.3c-0.3-1.1,1.1-2.3,2.4-1.9c9.4,2.5,24.4,5.7,41.1,0.7c10.7-3.2-1.7,13.6-9.7,17.1
	c-10.5,4.5-19.2,2.3-25.3-2.6C1041.3,1132.6,1038.7,1127.1,1037.8,1123.3z"/>
<path class="st5" d="M1041.2,1071.7c-0.5,3.2-3.2,5.4-6.1,5c-2.8-0.4-4.7-3.4-4.2-6.6c0.5-3.2,3.2-5.4,6.1-5
	C1039.8,1065.5,1041.7,1068.4,1041.2,1071.7z"/>
<path class="st5" d="M1099.5,1073.6c-0.7,3.3-3.8,5.5-6.8,4.8c-3-0.7-4.8-3.9-4-7.3c0.7-3.3,3.8-5.5,6.8-4.8
	C1098.5,1067,1100.3,1070.3,1099.5,1073.6z"/>
<g>
	<path class="st11" d="M1167.8,270.1c-7.4-1-14.2-4-20.6-7.7c-6.2-3.5-12-7.8-17.9-11.6c-10-6.6-21.3-12.6-33.2-15.6
		c-0.3,0.1-0.6,0.2-0.9,0.2c-0.3-0.1-0.6-0.2-0.9-0.2c-11.9,3-23.2,9-33.2,15.6c-5.8,3.8-11.8,8.1-18,11.7
		c-6.4,3.7-13.1,6.6-20.5,7.7c-28.8,4-51.9-24.6-45-52c2.4-9.8,8.3-18.4,11.8-27.8c4.8-13,5.7-26.6,8.7-40c0.1-0.4,0.2-0.9,0.3-1.3
		c9.9-42.1,30-56.9,36.7-60.6c8.4-4.7,20-7.3,19.1-4.6c5.8-17.5,23.4-20,40-20.4h2.2c1.9-0.1,3.8-0.1,5.6-0.1
		c38.7-0.1,80.7,31.5,88.6,69.4c1.3,6.2,1.6,11.8,1.4,17.4c3,13.5,3.9,27,8.8,40.2c3.5,9.4,9.3,18,11.8,27.8
		C1219.6,245.5,1196.5,274.1,1167.8,270.1z"/>
	<path class="st12" d="M1229.3,333c-19.4-9.9-60.2-20.6-76.9-30.7c-5.6-3.4-9.2-8.8-11.7-15.4c1.6-1.8,2.9-3.6,4-5.5
		c2-3.7,2.2-19.4,0.4-22.9c-2.5,3.3-5.3,6.3-8.3,9.1c-1.1-12.9-0.5-27.2-0.5-39.9c0-22.4-20.1-34.1-41.1-36.5
		c-0.2-0.1-0.3-0.1-0.5-0.1c-0.2,0-0.3,0-0.5-0.1c-21.1,2.6-41.1,14.2-41.1,36.6c0,12.6,0.6,26.7-0.5,39.5c-2.8-2.7-5.5-5.5-7.8-8.6
		c-1.8,3.5-1.6,19.1,0.4,22.8c1,1.8,2.2,3.5,3.6,5.1c-2.4,6.8-6.1,12.4-11.8,15.8c-16.7,10.1-57.5,20.7-76.9,30.7
		c-26.4,13.6-37,40.7-40.7,79.4h174.7h1H1270C1266.3,373.7,1255.8,346.5,1229.3,333z"/>
	<path class="st13" d="M1062.6,412.4h-143c3.6-38.7,14.2-65.9,40.7-79.4c19.3-9.9,60.2-20.6,76.9-30.6c2.4-1.4,4.4-3.3,6.2-5.4
		c4.2,8.9,6.8,18.7,9.4,28.2C1061,354.6,1062.4,385,1062.6,412.4z"/>
	<path class="st14" d="M1047.2,412.4c2.2-36.8-1.5-73.9-10.9-109.6c0.3-0.2,0.5-0.3,0.8-0.5c2.4-1.4,4.4-3.3,6.2-5.4
		c4.2,8.9,6.8,18.7,9.4,28.2c8.3,29.5,9.7,59.9,9.9,87.2H1047.2z"/>
	<path class="st13" d="M1126.9,412.4h143c-3.6-38.7-14.2-65.9-40.7-79.4c-19.3-9.9-60.2-20.6-76.9-30.6c-2.4-1.4-4.4-3.3-6.2-5.4
		c-4.2,8.9-6.8,18.7-9.4,28.2C1128.6,354.6,1127.1,385,1126.9,412.4z"/>
	<path class="st14" d="M1142.4,412.4c-2.2-36.8,1.5-73.9,10.9-109.6c-0.3-0.2-0.5-0.3-0.8-0.5c-2.4-1.4-4.4-3.3-6.2-5.4
		c-4.2,8.9-6.8,18.7-9.4,28.2c-8.3,29.5-9.7,59.9-9.9,87.2H1142.4z"/>
	<path class="st15" d="M1144.8,281.4c-1.1,1.9-2.4,3.8-4,5.6c-0.4,0.5-0.9,1-1.4,1.5c-0.3,0.3-0.5,0.5-0.9,0.8
		c-0.7,0.6-1.5,1.2-2.3,1.7c-0.5,0.5-1,1-1.6,1.5c0,0-0.1,0.1-0.2,0.1c-21.9,19.8-69.4,22.8-90.3,3.2c1.9-2.7,3.5-5.7,4.7-9.2
		c-1.4-1.7-2.6-3.4-3.7-5.2c-2-3.7-2.2-19.4-0.4-22.8c2.4,3.1,5,6.1,7.8,8.8c1,0.9,2,1.8,3,2.7c10.8,9.1,24.4,15,38.6,15.3
		c14.4,0.3,28.6-5.7,39.5-14.8c1-0.9,2.1-1.8,3.1-2.7c3-2.8,5.8-5.9,8.3-9.2C1146.9,261.9,1146.8,277.6,1144.8,281.4z"/>
	<path class="st0" d="M1162.1,219c-1,3.9-2.3,8.6-4.1,14.4c-4.4,14.3-12.7,27.4-24.1,37c-10.9,9.1-25.1,15.1-39.5,14.8
		c-14.2-0.3-27.9-6.1-38.6-15.3c-11.2-9.6-19.3-22.6-23.6-36.6c-1.8-5.8-3.1-10.5-4.1-14.4c-4.4-17.6-1.2-18.7,0.7-33.4
		c0.1-0.5,0.1-1,0.2-1.6c1-8.7,1.9-17.1,3-25c3-21.6,8.3-38.9,27.2-47.7c11.8-5.5,24.4-6.4,35.7-7.2c0,0,0.5,0,0.5,0
		c11.3,0.7,23.9,1.6,35.7,7.1c18.9,8.8,24.2,26.2,27.2,47.7c1.1,7.8,1.9,16.2,3,25c0.1,0.5,0.1,1,0.2,1.6
		C1163.3,200.2,1166.5,201.4,1162.1,219z"/>
	<path class="st11" d="M1060.9,89.6c49.1-22,57-2.2,86.7,2.5c49.7,7.8,41.5,63.1,17.9,67.1c-25.4,4.3-29.6-15.7-51.1-14.2
		c-28.6,1.9-45.3-0.8-55-30.6c0,0-12.7,7.1-20.1,26.3c-7.2,18.5-4.7,30-8.1,43.3c-6.1,23.9-10.4,24.2-17.9,26.6
		C1010.1,167.9,1011.7,107.3,1060.9,89.6z"/>
	<g>
		<g>
			<path class="st1" d="M1094.9,184c0.8,4.3,1.1,8.7,1,13.2c-0.2,4.4-1,9-2.7,13.4c-1.1,2.4-1.8,3.9-1.9,5.3c0,1.2-0.1,1.3,1.2,2.3
				c2.6,1.7,7.2,2.5,11.4,3.6l0.1,0.6c-2.1,1-4.3,1.5-6.7,1.8c-2.3,0.2-4.8,0.2-7.4-0.9c-1.3-0.5-2.8-1.5-3.7-3.2
				c-1-1.7-1-3.6-0.7-5.1c0.6-2.9,2.5-5.1,3.4-6.5c2-3.4,3.3-7.4,4.1-11.5c0.9-4.1,1.3-8.4,1.4-12.8L1094.9,184z"/>
		</g>
	</g>
	<g>
		<path class="st16" d="M1093.2,186.8c-4.9,0-8.5-1.2-12.7-2.7c-1.7-0.6-3.5-1.2-5.5-1.8c-11.6-3.3-26.7-0.7-34.9,3.3
			c-0.9,0.5-2.1,0.1-2.6-0.9c-0.5-1-0.1-2.1,0.9-2.6c9.1-4.5,25-7.2,37.7-3.6c2.1,0.6,4,1.2,5.7,1.8c4.5,1.5,8,2.7,13.1,2.4
			c1-0.1,2,0.7,2.1,1.8c0.1,1.1-0.7,2-1.8,2.1C1094.5,186.8,1093.8,186.8,1093.2,186.8z"/>
	</g>
	<g>
		<path class="st16" d="M1096.7,186.8c-0.6,0-1.3,0-1.9-0.1c-1.1-0.1-1.9-1-1.8-2.1c0.1-1.1,1.1-1.9,2.1-1.8
			c5.1,0.3,8.6-0.9,13.1-2.4c1.7-0.6,3.6-1.2,5.7-1.8c12.7-3.6,28.6-0.9,37.7,3.6c1,0.5,1.4,1.6,0.9,2.6c-0.5,1-1.6,1.4-2.6,0.9
			c-8.3-4.1-23.3-6.6-34.9-3.3c-2,0.6-3.8,1.2-5.5,1.8C1105.2,185.6,1101.5,186.8,1096.7,186.8z"/>
	</g>
	<g>
		<path class="st16" d="M1064.3,216.3c-6.7,0-12.5-2.4-17.1-7c-6.2-6.2-9.8-16.7-9.3-26.7l3.9,0.2c-0.5,8.9,2.7,18.2,8.1,23.7
			c4.1,4.2,9.4,6.1,15.6,5.8c13-0.6,19.6-16.7,20.2-27.9l3.9,0.2c-0.6,12.7-8.5,30.8-23.9,31.6
			C1065.2,216.3,1064.8,216.3,1064.3,216.3z"/>
	</g>
	<g>
		<path class="st16" d="M1025,188.9c-0.1,0-0.2,0-0.2,0l0.3-3.9c1.1,0.2,8-1.4,13.8-2.9l1,3.8C1036.9,186.6,1027.6,188.9,1025,188.9
			z"/>
	</g>
	<g>
		<path class="st16" d="M1164.6,188.9c-2.7,0-11.9-2.3-14.7-3l1-3.8c5.7,1.4,12.5,3,13.8,2.9l0.3,3.9
			C1164.7,188.9,1164.7,188.9,1164.6,188.9z"/>
	</g>
	<g>
		<path class="st16" d="M1125.6,216.3c-0.5,0-0.9,0-1.4,0c-15.4-0.8-23.3-18.9-23.9-31.6l3.9-0.2c0.6,11.2,7.2,27.3,20.2,27.9
			c6.2,0.3,11.4-1.6,15.6-5.8c5.4-5.5,8.6-14.8,8.1-23.7l3.9-0.2c0.6,10-3.1,20.5-9.3,26.7C1138.1,213.9,1132.2,216.3,1125.6,216.3z
			"/>
	</g>
	<path class="st0" d="M1155.7,193.6c1-3.2,8-19.8,15.8-13.2c4.5,3.8,3,15-0.5,25.5c-3.2,9.7-11.4,18.5-13.2,19.1
		C1156,225.6,1155.7,193.6,1155.7,193.6z"/>
	<path class="st0" d="M1031.8,193.6c-1-3.2-8-19.8-15.8-13.2c-4.5,3.8-3,15,0.5,25.5c3.2,9.7,11.4,18.5,13.2,19.1
		C1031.5,225.6,1031.8,193.6,1031.8,193.6z"/>
	<path class="st2" d="M1071.3,175.6c0.7-0.2,1.5-0.5,2.2-1c1.9-1.4,1.1-3.4-0.9-4.2c-5.1-2.1-10.9-2.9-16.4-2.5c-4,0.3-8,1.3-11.6,3
		c-1.1,0.5-4.7,2-4.7,3.6c0,2.3,6.4,1,7.6,0.9c4.4-0.4,8.7-1.1,13.2-0.9c2,0.1,3.9,0.3,5.8,0.7
		C1068.2,175.6,1069.8,175.9,1071.3,175.6z"/>
	<path class="st2" d="M1116.3,175.6c-0.7-0.2-1.5-0.5-2.2-1c-1.9-1.4-1.1-3.4,0.9-4.2c5.1-2.1,10.9-2.9,16.4-2.5c4,0.3,8,1.3,11.6,3
		c1.1,0.5,4.7,2,4.7,3.6c0,2.3-6.4,1-7.6,0.9c-4.4-0.4-8.7-1.1-13.2-0.9c-2,0.1-3.9,0.3-5.8,0.7
		C1119.4,175.6,1117.8,175.9,1116.3,175.6z"/>
	<path class="st4" d="M1113.2,240.2c-6,2.1-12.4,3.3-18.8,3.4c-6.3,0.1-12.5-1.3-18.4-3.3c-10.6-3.7-4,12.5,8.7,17.2
		c6.7,2.5,12.9,2.5,19.6,0C1117,252.8,1123.7,236.6,1113.2,240.2z"/>
	<path class="st5" d="M1054.9,193c0.2,3.9,2.9,6.9,6.2,6.8c3.2-0.1,5.7-3.4,5.5-7.3c-0.2-3.9-2.9-6.9-6.2-6.8
		C1057.2,185.9,1054.7,189.2,1054.9,193z"/>
	<path class="st5" d="M1134.1,193c-0.2,3.9-2.9,6.9-6.2,6.8c-3.2-0.1-5.7-3.4-5.5-7.3c0.2-3.9,2.9-6.9,6.2-6.8
		C1131.8,185.9,1134.3,189.2,1134.1,193z"/>
</g>
<g>
	<path class="st17" d="M773.9,327.8c-12.5-6.4-26.2-10.6-39.4-15.3c-10.7-3.7-22.1-6.4-32.2-12c-12.1-6.8-18-17.5-20.2-31
		c-2.7-16.4-1.1-37.2-1.1-47.2c0-22.4-20.1-34.1-41.1-36.5c-0.2-0.1-0.3-0.1-0.5-0.1c-0.2,0-0.3,0-0.5-0.1
		c-21.1,2.6-41.1,14.2-41.1,36.6c0,10,1.6,30.8-1.1,47.2c-2,12.2-7.9,24-19.1,30c-14.7,7.8-31.4,12.2-47,17.8
		c-8.7,3.1-17.5,6.2-25.7,10.4c-26.4,13.6-37,40.7-40.7,79.4h174.7h1h174.7C810.9,368.6,800.3,341.4,773.9,327.8z"/>
	<path class="st18" d="M814.5,407.3H464.1c3.7-38.7,14.2-65.9,40.7-79.4c8.1-4.2,16.9-7.3,25.5-10.4c62.1,36.1,138.1,36.8,202.9,7.7
		c3.7-1.6,11.5-7.8,15.3-7.8c8.7,3,17.3,6.3,25.4,10.4C800.3,341.4,810.9,368.6,814.5,407.3z"/>
	<path class="st19" d="M683,273.9c-0.3-1.4-0.6-2.8-0.9-4.3c-2.2-13.5-1.6-30-1.3-40.9c-10.4-0.2-30.4-1.3-41.5-1.5
		c-11.8-0.2-32.7,5-41.4,6.7c0.3,10.6,0.5,24.2-1.4,35.7c-1.7,10-6,19.8-13.8,26.3C629,310,668.6,293.4,683,273.9z"/>
	<path class="st6" d="M615.1,70.6c11.1-8.7,22.9-11.5,28.3-12.3c10.6-1.5,22.7-0.1,33,2.4c20.7,5.1,39.1,18.7,50,37
		c6.5,10.8,12.6,24.2,14.7,36.7c8.2,48.4-7.6,94.1-36.8,111.8c6.7,3.1,10,8.9,8.3,16.1c-1.7,7.2-9,13.9-16.5,16.6
		c7.9,1.9,11.7,6.9,9.3,15.3c-1.9,6.7-6.5,9.5-12.3,13.3c13,1.9,11.4,16.7-0.1,22.2c10.4,11.8,5.2,27,2.3,33.2
		c-2.9,6.1-7.5,11.3-11.1,17.1c-3.6,5.8-4.7,12.3-4.3,19.3c-6.5-5.4-12-17.7-12.8-29c-0.8-10.4,0.2-25.7,9.5-35.9
		c-12.5,2.1-16.6-9.9-13.3-15.4c2.2-3.6,4.3-5.4,8.6-6.6c-5.4,0.1-13.7-1.3-15.6-8c-1.4-5.2,0.1-11.2,4.3-14.5
		c-5.5-2.9-9.1-9-9.2-15.2c-0.1-6.2,3.5-12.3,8.9-15.3c-21.9-3.5-41.1-16.1-59.6-28.3c-8.6-5.7-18-12.5-19.9-22.7
		c4.4,16.5,2.8,35.2-6.6,49.4c-8.6,12.9-17.7,12.8-17.4,12.4c5.9-7.6,12.7-28.3,4.4-44.4c-9.6-18.8-22.6-43.8-20.4-67.1
		c3.3-35.5,23.3-68.5,54.2-86.4c6.1-3.5,13.5-4.7,19.4-1.7C614.8,70.7,614.9,70.7,615.1,70.6z"/>
	<path class="st17" d="M702.7,153.9c-3-21.6-8.3-38.9-27.2-47.7c-11.7-5.5-24.2-6.4-35.3-7.2c-0.1,0-0.2,0-0.3,0c-0.1,0-0.2,0-0.4,0
		c-11.2,0.7-23.7,1.7-35.3,7.2c-18.9,8.8-24.2,26.2-27.2,47.7c-1.1,7.8-2.7,46.9,0,59.9c0.8,4,5.4,20.8,8.2,26.1
		c20.2,37.9,40,39.9,54.2,40.2c0.1,0,0.3,0,0.5,0c0.2,0,0.3,0,0.5,0c14.2-0.3,34-2.3,54.2-40.2c2.9-5.3,7.4-22.1,8.2-26.1
		C705.5,200.9,703.8,161.8,702.7,153.9z"/>
	<path class="st6" d="M604.9,76.6c12-5.1,25.3-7.7,39.2-7.8c16.4-0.1,32.8,4.7,46.8,13.2c21.1,12.8,35.1,35.7,38,60.1
		c1.3,11.1,0.6,23.3-3.1,33.9c-2.7,8-16.5,24.3-20.2,10.9c-8-29.1-52.8-8-92.7-64.5c-7.3,7-31.5,19.1-39.2,69.2
		c-0.5,3.5-5.8,7.6-9.5,8.3c-8.1,1.5-12.7-10.3-15.7-24.2c-3.7-17.3,2.7-37.8,10.1-53.9C568.5,100.3,584.9,85.1,604.9,76.6z"/>
	<g>
		<g>
			<path class="st19" d="M634.7,186.8c2.2,4.8,3.2,10.2,2.9,15.6c-0.1,2.7-0.6,5.4-1.3,8.1c-0.4,1.3-0.8,2.6-1.3,3.9
				c-0.5,1.3-0.8,2.1-1,3.2c-0.4,2,0,3.3,1.1,4.5c1.1,1.2,3,2.1,5,2.5c2,0.4,3.9,0.4,5.8-0.5c1.9-0.9,3.8-2.6,5.1-4.7l0.6,0.1
				c0,2.8-1.1,5.7-3.4,7.8c-2.2,2.2-5.8,3.2-8.9,2.8c-3.1-0.3-6.2-1.4-8.7-4c-2.5-2.7-3.1-7-2-10c0.4-1.5,1.3-3,1.8-4
				c0.6-1,1.2-2.1,1.7-3.2c1-2.2,1.8-4.5,2.2-6.9c0.9-4.8,1-10-0.1-14.9L634.7,186.8z"/>
		</g>
	</g>
	<path class="st17" d="M578.1,190.4c-1-3.2-8-19.8-15.8-13.2c-4.5,3.8-3.7,15.3,0.5,25.5c4.2,10.2,15.2,18.5,17.1,19.1
		C581.7,222.4,578.1,190.4,578.1,190.4z"/>
	<path class="st17" d="M701.5,190.4c1-3.2,8-19.8,15.8-13.2c4.5,3.8,3.7,15.3-0.5,25.5c-4.2,10.2-15.2,18.5-17.1,19.1
		C698,222.4,701.5,190.4,701.5,190.4z"/>
	<path class="st6" d="M619.2,181.4c0.7-0.2,1.5-0.5,2.2-1c1.9-1.4,1.1-3.4-0.9-4.2c-5.1-2.1-10.9-2.9-16.4-2.5c-4,0.3-8,1.3-11.6,3
		c-1.1,0.5-4.7,2-4.7,3.6c0,2.3,6.4,1,7.6,0.9c4.4-0.4,8.7-1.1,13.2-0.9c2,0.1,3.9,0.3,5.8,0.7C616.1,181.4,617.6,181.7,619.2,181.4
		z"/>
	<path class="st6" d="M660.5,181.4c-0.7-0.2-1.5-0.5-2.2-1c-1.9-1.4-1.1-3.4,0.9-4.2c5.1-2.1,10.9-2.9,16.4-2.5c4,0.3,8,1.3,11.6,3
		c1.1,0.5,4.7,2,4.7,3.6c0,2.3-6.4,1-7.6,0.9c-4.4-0.4-8.7-1.1-13.2-0.9c-2,0.1-3.9,0.3-5.8,0.7C663.6,181.4,662,181.7,660.5,181.4z
		"/>
	<path class="st4" d="M658.3,239.3c-6,2.1-12.4,3.3-18.8,3.4c-6.3,0.1-12.5-1.3-18.4-3.3c-10.6-3.7-4,12.5,8.7,17.2
		c6.7,2.5,12.9,2.5,19.6,0C662.1,251.9,668.7,235.7,658.3,239.3z"/>
	<path class="st20" d="M602.8,197.2c0.2,3.9,2.9,6.9,6.2,6.8c3.2-0.1,5.7-3.4,5.5-7.3c-0.2-3.9-2.9-6.9-6.2-6.8
		C605.1,190,602.7,193.3,602.8,197.2z"/>
	<path class="st20" d="M676.8,197.2c-0.2,3.9-2.9,6.9-6.2,6.8c-3.2-0.1-5.7-3.4-5.5-7.3c0.2-3.9,2.9-6.9,6.2-6.8
		C674.5,190,677,193.3,676.8,197.2z"/>
	<path class="st19" d="M649.3,253.2c-4,1.9-13.9,2.3-18.9,0c-5.9-2.7-10.9-7.3-14.8-12.9c0.2,12.1,9,23.3,19.7,25.2
		c1.5,0.3,7.5,0.3,9,0c10.8-1.9,19.5-13.1,19.7-25.2C660.2,245.8,655.1,250.4,649.3,253.2z"/>
</g>
<g>
	<path class="st7" d="M348.6,1210.6c-35.4-27.5-82.6-32.7-94.5-57.4c-7.2-14.8-0.2-39.2-0.2-49.2c0-38-62.7-46.5-77.4-13.7
		c-1.9,4.3-2.8,9-2.8,13.7c0,10,7,34.4-0.2,49.2c-11.9,24.7-59.1,29.9-94.5,57.4c-22.5,17.5-37,40.7-40.7,79.4h174.4h2.1h174.4
		C385.7,1251.3,371.2,1228.1,348.6,1210.6z"/>
	<path class="st0" d="M260.5,1161.9c-10.5,13.4-31.6,25.1-46.6,25.1h-0.3c-15,0-36-11.7-46.5-25c2.7-2.7,4.9-5.6,6.5-8.9
		c7.1-14.8,0.2-39.2,0.2-49.2c0-4.7,0.9-9.4,2.8-13.7c14.7-32.8,77.4-24.2,77.4,13.7c0,10-7,34.4,0.2,49.2
		C255.7,1156.4,257.9,1159.3,260.5,1161.9z"/>
	<path class="st21" d="M252.9,1149.9c-3.8-11.6-1-27.2,0.4-38c-12.4,0-30.5,0.2-39.3,0.1c-8.7-0.2-26.7,1.4-39.1,3
		c1.6,11.7,3.9,27.5-1.3,38.2c-1.5,3.1-3.6,6-6.2,8.6C184.3,1181,227.6,1183,252.9,1149.9z"/>
	<path class="st22" d="M389.3,1290H38.5c3.7-38.6,18.1-61.9,40.7-79.4c19.8-15.4,43.3-23.8,62.3-32.6c10.4-4.8,19.4-9.7,25.7-15.9
		c10.6,13.3,31.6,25,46.5,25h0.3c15,0,36.1-11.8,46.6-25.1c6.2,6.3,15.2,11.2,25.6,16c19,8.8,42.6,17.2,62.5,32.7
		C371.2,1228.1,385.7,1251.3,389.3,1290z"/>
	<path class="st18" d="M213.6,1187.1c-5,11.2-11.7,20.6-19.5,27.1c-7.9,6.7-18.3,6.7-28.3-0.7c-4.6-3.5-10.8-9.6-13.7-14.5
		c-4.3-7.2-8.1-14.6-11.3-22.4c-1.6-2.6,22.9-18.3,25.4-15.7C176.4,1174.7,198.2,1187.1,213.6,1187.1z"/>
	<path class="st18" d="M213.9,1187.1c5,11.2,11.7,20.6,19.5,27.1c7.9,6.7,18.3,6.7,28.3-0.7c4.6-3.5,10.8-9.6,13.7-14.5
		c4.3-7.2,8.1-14.6,11.3-22.4c1.6-2.6-22.9-18.3-25.4-15.7C251.1,1174.7,229.3,1187.1,213.9,1187.1z"/>
	<polygon class="st18" points="223.4,1290 204.3,1290 204.3,1189.9 213.9,1187.1 223.4,1189.9 	"/>
	<path class="st23" d="M263.4,943c-11.6-17.8-30.7-24.2-49.6-24.5c-17.7-0.3-35.2,5.9-47.1,21.4c-0.8,1-1.5,2.1-2.2,3.1
		c-9.2,14.3-3.8,37.7,8.7,43.6h40.2h1.3h40.2C267.2,980.7,272.7,957.3,263.4,943z"/>
	<path class="st23" d="M295.9,1000c-13.6-41.8-49.3-51-81.7-50.5c-0.1,0-0.2,0-0.3,0c-0.1,0-0.2,0-0.3,0
		c-32.4-0.5-68.1,8.7-81.7,50.5c-14.4,44.3,2,87.8,39,88.7c12,0.3,38.7,3.3,42.3,3.3c0.2,0,0.5,0,0.7,0c0.2,0,0.4,0,0.7,0
		c3.6,0,30.3-3,42.3-3.3C293.9,1087.8,310.3,1044.4,295.9,1000z"/>
	<path class="st0" d="M278.5,1068.6c-1.3-18.1-7.4-15.5-14.9-43.1c-5.5-20.3-22.4-27-33.7-29.3c-10.9-2.2-20.9-2.2-31.8,0
		c-11.3,2.3-28.1,9-33.7,29.3c-7.5,27.6-13.6,25-14.9,43.1c-1,13.9-1.3,18.2,1.4,30.8c0.8,3.9,5.1,19.9,9.7,26.4
		c7.5,10.6,19.9,15.7,25.4,21.5c4.1,4.3,8.8,8.3,14.5,10.6c8.1,3.3,18.7,3.4,27,0c5.6-2.3,10.4-6.2,14.5-10.6
		c5.5-5.8,17.9-10.9,25.4-21.5c4.6-6.5,8.9-22.5,9.7-26.4C279.7,1086.8,279.5,1082.6,278.5,1068.6z"/>
	<g>
		<g class="st24">
			<path class="st25" d="M204.1,1020.2c3-1.5,6.3-1.8,9.5-1.7c3.2,0.2,6.4,0.9,9.3,2.8c-3.3,0.4-6.4,0.3-9.4,0.1
				C210.4,1021.2,207.3,1021,204.1,1020.2z"/>
		</g>
	</g>
	<g>
		<g class="st24">
			<path class="st25" d="M210.8,1058.7c0.5,2.7,0.7,5.4,0.5,8.2c-0.3,2.8-1,5.5-1.8,8.1c-0.9,2.6-1.8,5-2.4,7.5
				c-0.6,2.5-1.1,5-0.8,7.2c0.4,4.7,4,7,8,7.8c1.9,0.4,3.8,0,5.7-1.2c1.9-1.2,3.8-3,5.3-5.3l0.6,0.1c0,2.9-1.1,5.8-3.1,8.2
				c-1,1.2-2.4,2.2-3.9,3c-1.6,0.7-3.4,1-5.1,0.9c-3.3-0.1-6.7-1.6-9-4.2c-2.3-2.6-3.2-6.1-3.2-9.2c0.2-6.3,2.9-11.2,5.2-16
				c1.2-2.4,2.2-4.7,2.8-7.3c0.6-2.5,0.8-5.2,0.7-7.8L210.8,1058.7z"/>
		</g>
	</g>
	<path class="st0" d="M155.4,1071.3c-1-3.2-8-19.8-15.8-13.2c-4.5,3.8-3.7,15.3,0.5,25.5c4.2,10.2,15.2,18.5,17.1,19.1
		C159,1103.4,155.4,1071.3,155.4,1071.3z"/>
	<path class="st0" d="M271.6,1071.3c1-3.2,8-19.8,15.8-13.2c4.5,3.8,3.7,15.3-0.5,25.5c-4.2,10.2-15.2,18.5-17.1,19.1
		C268,1103.4,271.6,1071.3,271.6,1071.3z"/>
	<g>
		<g class="st24">
			<path class="st25" d="M193.9,1031.2c6.6-2.9,14-3.6,21.2-2.9c3.6,0.4,7,1.2,10.5,1.5c3.5,0.4,7,0.9,10.5,0.6
				c-3.4,1.2-7.1,1.3-10.6,1.4c-3.6,0.1-7.2-0.4-10.6-0.6C207.9,1030.6,201.1,1030.9,193.9,1031.2z"/>
		</g>
	</g>
	<path class="st4" d="M232.3,1119.4c-6,1.9-12.4,3-18.8,3.1c-6.3,0.1-12.5-1.2-18.4-3c-10.6-3.4-4,11.4,8.7,15.7
		c6.7,2.3,12.9,2.2,19.6,0C236.1,1130.9,242.8,1116.1,232.3,1119.4z"/>
	<path class="st6" d="M174.2,1068.8c0.2,3.9,2.9,6.9,6.2,6.8c3.2-0.1,5.7-3.4,5.5-7.3c-0.2-3.9-2.9-6.9-6.2-6.8
		C176.5,1061.7,174,1064.9,174.2,1068.8z"/>
	<path class="st23" d="M230.3,1052.7c-1.7-1.9-0.6-8.4,1.5-9.3c5.1-2.4,17.6-2.3,29.5,3.1c1.2,0.5,4.7,2.3,4.7,4.1
		c0,2.6-6.4,1.2-7.6,1c-4.4-0.5-8.7-1.3-13.2-1c-2,0.1-3.9,0.4-5.8,0.8C237.6,1051.8,231.8,1054.4,230.3,1052.7z"/>
	<path class="st23" d="M197.2,1052.7c1.7-1.9,0.6-8.4-1.5-9.3c-5.1-2.4-17.6-2.3-29.5,3.1c-1.2,0.5-4.7,2.3-4.7,4.1
		c0,2.6,6.4,1.2,7.6,1c4.4-0.5,8.7-1.3,13.2-1c2,0.1,3.9,0.4,5.8,0.8C189.9,1051.8,195.7,1054.4,197.2,1052.7z"/>
	<path class="st6" d="M253.6,1068.8c-0.2,3.9-2.9,6.9-6.2,6.8c-3.2-0.1-5.7-3.4-5.5-7.3c0.2-3.9,2.9-6.9,6.2-6.8
		C251.3,1061.7,253.8,1064.9,253.6,1068.8z"/>
</g>
<g>
	<path class="st0" d="M192.5,223.9c0,27.8-8.4,47.6-35.5,62.5c-32.9,18.1-53.5,17.5-82.1,35c-34.4,21.1-41.8,48.9-48.3,86.9h363.7
		c0-4.5-15-42.6-21.5-63.7c-6.3-20-22.2-29.3-57.5-43.8c-41.5-17-37.8-50.7-33.1-92.1C282.3,172.9,192.5,175.6,192.5,223.9z"/>
	<path class="st1" d="M275.8,253c-0.9-11.4,0.2-24,1.7-37.5c-26.2,3.1-59.7,3.2-84.8,5.6c-0.1,0.9-0.2,1.8-0.2,2.8
		c0,19-4,34.3-15.1,46.8C192.2,286.1,256.3,290.8,275.8,253z"/>
	<path class="st18" d="M163.9,282.4c-2.2,1.1-4.5,2.5-6.8,4c-31.9,19.8-53.5,17.5-82.1,35c-34.4,21.1-41.8,48.9-48.3,86.9h363.7
		c-8-27.3-9.5-41-19.9-60.7c-9.8-18.5-17.9-31.8-49.8-44.2c-9-3.5-30.5-15.9-30.7-16.5c0.9,11.7-4.9,37-50.1,39
		C209.9,327.3,162.8,299.8,163.9,282.4z"/>
	<path class="st3" d="M156,287c-28.2,10.8-49.2,13.6-78.5,31.6c-35.2,21.6-44.2,50.8-50.8,89.7H130C128,352.3,139.1,311.3,156,287z"
		/>
	<path class="st3" d="M334.6,408.3h60.1c-2-14.9-8.4-44.3-17.8-60.7c-12.2-21.2-30.2-37-53.6-46.7c-10.5-4.3-22.7-7.4-24.5-8.6
		c-0.4-0.3-0.3,0.2,0.8,1.6C339.2,347.6,334.6,408.3,334.6,408.3z"/>
	<path class="st0" d="M160.7,118.3c-2.9,20,1,31.5,2.4,50.3c2.4,33.2,10.4,55.3,18,66.2c13.4,19.2,38.2,27.6,52,26.3
		c30.5-2.9,51.9-27.3,53.8-58.1c1.7-27.6-3-31.7-0.3-52.8c6.6-52.4-11.2-61.5-54.6-64.8C195.1,82.5,164.4,93.3,160.7,118.3z"/>
	<path class="st26" d="M273.4,107.6c0,0,13-30.5-14-47.5c-29.7-18.7-66.8-15-94.7,14.6C150,90.3,146.9,87.6,142,83.5
		c-3,8.3,6.1,12.9,6.1,12.9s-11,3.6-14.9-6.4c-4.3,11,4,27.1,14.5,32.9c23.8,13.2,73.9-15.6,87.8-20.7
		C258.7,93.7,273.4,107.6,273.4,107.6z"/>
	<path class="st26" d="M251.2,93.1c0,0,25.4,7.3,28.7,28.7c2.5,16.5-0.6,28.4,1.2,37.2c2.9,14.1,6.1,13.8,6.1,13.8s17,6.1,18.1-18.9
		c1.1-25,2.2-71.9-32.7-80.1C246.2,67.7,251.2,93.1,251.2,93.1z"/>
	<path class="st26" d="M163.1,168.6c2.1-36.5-5.3-39.8,2.9-62.8c7.6-21.4,3.4-17.1-8.6-7.3c-12.1,9.8-8.3,55.1-2.3,68.3
		C161.1,180,163.1,168.6,163.1,168.6z"/>
	<path class="st0" d="M282.6,167.2c1.3-3.1,8.9-24,15.9-16.6c4.1,4.3,4.5,16.7-0.1,26.7c-4.3,9.3-13.3,17.1-15.2,17.6
		C281.3,195.3,282.6,167.2,282.6,167.2z"/>
	<path class="st0" d="M169.3,179.1c-1.7-2.9-12.1-17.6-18.2-9.5c-3.6,4.7,0.3,15.3,5.9,24.8c5.2,8.8,15.1,15.6,17,15.9
		C176,210.5,169.3,179.1,169.3,179.1z"/>
	<path class="st26" d="M242.4,147.9c-4.6,1.9-6-1.2-5.5-3.9c0.5-2.4,5.1-6.2,9.5-7.8c9.5-3.4,15.9-2,22.4,1.7c6.6,3.8,8,7.9-2.6,6.4
		C255.1,142.6,248.8,145.2,242.4,147.9z"/>
	<path class="st26" d="M197.7,156.5c4.5,0.7,5-2.7,3.9-5.2c-1.1-2.2-6.1-4.8-10.4-5.2c-9.3-1-14.6,2-19.4,7.2
		c-4.9,5.3-5.1,9.6,3.9,5.5C185.1,154.5,191.3,155.5,197.7,156.5z"/>
	<path class="st5" d="M196.7,171.7c0.5,3.7-1.6,7-4.7,7.5c-3.1,0.4-6-2.3-6.5-6c-0.5-3.7,1.6-7,4.7-7.5S196.2,168,196.7,171.7z"/>
	<path class="st5" d="M258.1,165.9c0.5,3.9-1.7,7.3-4.9,7.8c-3.2,0.4-6.2-2.3-6.7-6.2c-0.5-3.9,1.7-7.3,4.9-7.8
		C254.5,159.3,257.6,162.1,258.1,165.9z"/>
	<g>
		<g>
			<path class="st1" d="M213.4,160.3c2.8,4.3,4.9,9,6.3,14.1c1.2,5,1.6,10.7-0.3,16.1c-0.5,1.3-1,2.7-1.9,3.9l-1.1,1.8
				c-0.3,0.5-0.6,0.9-0.8,1.4c-0.5,0.8-0.8,1.8-0.8,2c0,0.2-0.2-0.1,0.3,0.4c1.1,0.9,3.6,1.5,5.9,2l7.5,1.4l0.1,0.6
				c-2.4,1.1-5,1.8-7.7,2.1c-2.7,0.3-5.4,0.5-8.8-1.1c-0.8-0.5-1.7-1.1-2.4-2.2c-0.7-1-1-2.4-0.9-3.5c0.2-2.3,1.2-3.7,2-4.9
				c0.5-0.6,0.9-1.1,1.4-1.7l1.1-1.3c0.8-0.8,1.3-1.8,1.8-2.7c2-4,2.4-8.9,1.8-13.7c-0.6-4.8-2-9.7-4-14.3L213.4,160.3z"/>
		</g>
	</g>
	<path class="st4" d="M205,226.9c-0.3-1.2,0.7-2.5,2-2.4c9,1.4,23.4,2.6,38-5c9.4-4.9,4.9,13.2-6.5,19.4c-9.5,5.3-15.1,3.8-21.8,0.9
		C211.4,237.5,205.7,229.7,205,226.9z"/>
</g>
<g>
	<path class="st0" d="M799.3,1212.2c-33.5-17.6-17.4-9-56-27.1c-31.7-14.9-38.1-42.6-38.1-70.4c0-22.8-23.5-35.4-47.9-38.6
		c-24.3,3.2-47.9,15.8-47.9,38.6c0,27.8-6.4,55.5-38.1,70.4c-38.6,18.1-27,9.6-60.5,27.1c-40.3,21.1-49,48.9-56.6,86.9h203.1h198.6
		C848.3,1261.1,839.6,1233.3,799.3,1212.2z"/>
	<path class="st27" d="M855.9,1299.1H454.2c7.6-38,16.3-65.8,56.6-86.9c33.5-17.6,21.9-9,60.5-27.1c3.9-1.8,7.4-3.8,10.6-6.1
		c8-6.4,14.2-13.3,17.1-18.2c14.2,19.9,36.3,32.1,45.9,35.7c1.7,0.6,4,2.4,4.4,4.1c1.2,5,4.9,39.2,5.9,49.8c0,0.5-0.1,1-0.2,1.4
		c-0.1,1.1-0.2,1.7-0.2,1.7c0.1-0.2,0.2-0.5,0.3-1.1c0.1,0.6,0.2,0.9,0.3,1.1c0,0-0.1-0.6-0.2-1.7c0-0.4-0.1-0.9-0.2-1.4
		c1.1-10.6,4.8-44.9,6-49.8c0.4-1.7,2.7-3.5,4.4-4.1c10.1-3.8,33.9-16.8,47.9-38.9c8.8,15.4,15.9,18.9,15.9,18.9s3.7,3.6,13.8,8.4
		c38.4,18.6,22.4,9.6,56,27.1C839.6,1233.3,848.4,1261.1,855.9,1299.1z"/>
	<path class="st13" d="M855.7,1298.9H454c7.6-38,16.3-65.8,56.6-86.9c33.5-17.6,21.9-9,60.5-27.1c7.3-3.4,13.3-7.5,18.1-12.2
		c12,48.1,55.7,114.3,65.9,114.3c11,0,48.9-58,66.9-117.4c5.3,5.9,12.2,11.1,21.1,15.3c38.6,18.1,22.4,9.6,56,27.1
		C839.4,1233.1,848.1,1260.9,855.7,1298.9z"/>
	<path class="st18" d="M655.4,1251.9c0,0.3-0.1,0.5-0.1,0.6c-0.2,0.6-0.3,0.9-0.3,1.1c0,0,0.1-0.6,0.2-1.7c0.1-0.4,0.1-0.9,0.2-1.4
		C655.4,1251,655.4,1251.5,655.4,1251.9z"/>
	<path class="st18" d="M655.6,1253.6c-0.1-0.2-0.2-0.5-0.3-1.1c-0.1-0.2-0.1-0.4-0.2-0.7c0.1-0.4,0.1-0.9,0.2-1.4
		c0.1,0.5,0.1,1,0.2,1.4C655.5,1253,655.6,1253.6,655.6,1253.6z"/>
	<path class="st1" d="M706.5,1134c-1-6.3-1.3-12.8-1.3-19.4c0-3.4-0.6-6.5-1.5-9.4c-28,1.5-66.5,1.1-93.4,2.4
		c-0.5,2.2-0.8,4.5-0.8,7c0,15.5-2,31.1-9.4,44.4C617.5,1168.7,681.2,1178.4,706.5,1134z"/>
	<path class="st26" d="M712,947.2c4.3-2.5,0.8-12.2-2.7-16.5c-12.6,18.5-22.7,0.6-53.2,0c-32.8-0.7-38.5,11.4-55,11.6
		c-32.4,0.3-37.5,30.7-29,87c2.2,14.5,5.8,22.2,17,32.4c9.6,8.7,23,9.6,35.3,10.2c10.6,0.6,21.1,0.8,31.7,0.8
		c10.5,0.1,21.1-0.2,31.7-0.8c12.3-0.7,25.7-1.5,35.3-10.2c11.2-10.2,13-18.9,15.4-33.3c3.7-21.7,4.3-50.7,0-65
		C735.7,953.8,721.3,944.7,712,947.2z"/>
	<path class="st0" d="M722.7,1086.3c-5.7,3.4-7.1-4.7-7.6-13.2c-0.5-8.8,1.2-23.7,6.4-30.1c5.2-6.5,12.8-10,16.2-0.3
		C740.7,1050.9,736.2,1078.1,722.7,1086.3z"/>
	<path class="st0" d="M587.4,1086.3c5.7,3.4,7.1-4.7,7.6-13.2c0.5-8.8-1.2-23.7-6.4-30.1c-5.2-6.5-12.8-10-16.2-0.3
		C569.4,1050.9,573.9,1078.1,587.4,1086.3z"/>
	<path class="st0" d="M722.4,1022.6c-0.2-16.8-5-29.7-14.2-35.4c-20-12.5-23.9,2.4-52.9,1.9c-0.1,0-0.2,0-0.2,0c-0.1,0-0.2,0-0.2,0
		c-0.3,0-0.4,0-0.5,0c-0.1,0-0.2,0-0.2,0c-29,0.5-32.9-14.4-52.9-1.9c-9.2,5.7-14,18.6-14.2,35.4c-0.1,8.6-3.7,17.6-2.9,31
		c1.2,18.1,5.4,35,10.9,51.2c8.7,25.5,35.6,40.2,42.3,42.4c2.4,0.8,10,2.7,16.8,2.7c0,0,0.2,0,0.6-0.1c0.4,0.1,0.6,0.1,0.6,0.1
		c6.8,0,14.3-1.9,16.8-2.7c6.7-2.2,33.6-16.9,42.3-42.4c5.5-16.2,9.7-33,10.9-51.2C726.1,1040.2,722.5,1031.2,722.4,1022.6z"/>
	<g>
		<g>
			<path class="st1" d="M647.9,1036.5c1.7,2.3,2.5,5,3,7.7c0.5,2.7,0.8,5.5,0.7,8.3c0,5.6-1,11.1-2.1,16.4c-0.5,2.4-0.8,4.9-0.4,6.7
				c0.4,1.8,0.9,2.7,2.8,3.3c1.9,0.6,4.4,0.6,6.9,0.2c2.5-0.4,5.1-0.9,7.4-2.1l0.4,0.4c-1.7,2.4-4.2,4-6.8,5.2c-2.7,1.1-5.6,2-9,1.5
				c-1.7-0.2-3.6-1-5.1-2.4c-1.5-1.4-2.3-3.3-2.6-5.1c-0.6-3.5,0.2-6.5,1.1-9.3c1.9-5,3.4-10,4.1-15.2c0.7-5.1,1-10.6-1-15.5
				L647.9,1036.5z"/>
		</g>
	</g>
	<path class="st26" d="M682.2,1041.1c-14.7,2.8-13.7-5.9-9.4-9.1c4.7-3.4,11.9-3.3,17-2.5c7,1.2,18.2,2.1,23,4.7
		c3.3,1.9,3.5,6,0.7,6.8C711.1,1041.7,693.5,1038.9,682.2,1041.1z"/>
	<path class="st20" d="M683.9,1058.5c-0.5,3.7,1.6,7,4.7,7.5c3.1,0.4,6-2.3,6.5-6c0.5-3.7-1.6-7-4.7-7.5
		C687.3,1052.1,684.4,1054.8,683.9,1058.5z"/>
	<path class="st26" d="M626.4,1040.4c14.7,2.8,13.7-5.9,9.4-9.1c-4.7-3.4-11.9-3.3-17-2.5c-7,1.2-18.2,2.1-23,4.7
		c-3.3,1.9-3.5,6-0.7,6.8C597.5,1041.1,615.1,1038.2,626.4,1040.4z"/>
	<path class="st20" d="M626.2,1058.5c0.5,3.7-1.6,7-4.7,7.5c-3.1,0.4-6-2.3-6.5-6c-0.5-3.7,1.6-7,4.7-7.5
		C622.8,1052.1,625.7,1054.8,626.2,1058.5z"/>
	<g>
		<path class="st28" d="M689.5,1079.5c-11.8,0-21.4-9.1-21.4-20.3s9.6-20.3,21.4-20.3c11.8,0,21.4,9.1,21.4,20.3
			S701.3,1079.5,689.5,1079.5z M689.5,1042.9c-9.6,0-17.5,7.4-17.5,16.4c0,9,7.8,16.4,17.5,16.4c9.6,0,17.5-7.4,17.5-16.4
			C707,1050.2,699.1,1042.9,689.5,1042.9z"/>
	</g>
	<g>
		<path class="st28" d="M589.4,1038.3c-1.5-1.5-2.7-2.8-3.8-3.9c-0.3,1.5-0.5,3.1-0.7,4.8c0.6,0.6,1.1,1.2,1.7,1.8
			c3.3,3.4,7.8,8.2,14,13.8l2.6-2.9C597.1,1046.4,592.6,1041.7,589.4,1038.3z"/>
		<path class="st28" d="M723.9,1034.7c-1,1-2.2,2.2-3.5,3.6c-3.3,3.4-7.7,8.1-13.8,13.6l2.6,2.9c6.2-5.6,10.7-10.4,14-13.8
			c0.5-0.5,1-1,1.4-1.5C724.4,1037.9,724.2,1036.3,723.9,1034.7z"/>
	</g>
	<g>
		<path class="st28" d="M671.1,1057.6c-4.2-1.7-9.4-2.4-16-2l-0.2-3.9c7.1-0.4,12.9,0.3,17.7,2.3L671.1,1057.6z"/>
	</g>
	<g>
		<path class="st28" d="M620.6,1079.5c-11.8,0-21.4-9.1-21.4-20.3s9.6-20.3,21.4-20.3c11.8,0,21.4,9.1,21.4,20.3
			S632.4,1079.5,620.6,1079.5z M620.6,1042.9c-9.6,0-17.5,7.4-17.5,16.4c0,9,7.8,16.4,17.5,16.4c9.6,0,17.5-7.4,17.5-16.4
			C638.1,1050.2,630.3,1042.9,620.6,1042.9z"/>
	</g>
	<g>
		<path class="st28" d="M639,1057.6l-1.5-3.6c4.8-2,10.5-2.7,17.7-2.3l-0.2,3.9C648.4,1055.2,643.2,1055.8,639,1057.6z"/>
	</g>
	<path class="st1" d="M676.1,1106.4c-4.1-1.2-9.3-2.8-21.1-2c-11.9-0.8-17.1,0.8-21.2,2c-0.8,0.2-2,0.3-0.7,2.4
		c5,7.8,12.5,10,21.8,10c9.3,0,16.8-2.2,21.8-10C678.2,1106.7,676.9,1106.6,676.1,1106.4z"/>
	<path class="st26" d="M694.1,1107.4c0,0-0.3-0.1-0.3-0.1c-0.1,0-0.2-0.1-0.3-0.1c-0.2-0.1-0.4-0.2-0.6-0.3
		c-0.4-0.2-0.8-0.4-1.3-0.6c-0.8-0.4-1.6-0.8-2.4-1.2c-0.8-0.4-1.6-0.8-2.3-1.2c-0.7-0.4-1.5-0.8-2.2-1.2c-0.7-0.4-1.5-0.8-2.2-1.2
		c-0.7-0.4-1.4-0.8-2.2-1.2c-0.7-0.4-1.5-0.8-2.2-1.1c-0.7-0.4-1.5-0.7-2.2-1.1c-0.8-0.4-1.5-0.7-2.3-1c-0.8-0.3-1.6-0.7-2.4-1
		c-0.8-0.3-1.7-0.6-2.5-0.9c-0.9-0.3-1.8-0.5-2.7-0.8c-1-0.2-1.9-0.5-2.9-0.7c-1-0.2-2.1-0.4-3.1-0.5c-1.1-0.2-2.3-0.3-3.4-0.4
		c-0.5,0-1.3-0.1-2.6,0c-0.6,0-1.5,0.1-2.1,0.2c-1.1,0.1-2.2,0.3-3.2,0.5c-1,0.2-2,0.4-3,0.6c-0.9,0.2-1.9,0.5-2.8,0.7
		c-0.9,0.3-1.7,0.5-2.6,0.8c-0.8,0.3-1.6,0.6-2.5,0.9c-0.8,0.3-1.6,0.6-2.3,1c-0.8,0.3-1.5,0.7-2.3,1.1c-0.7,0.4-1.5,0.7-2.2,1.1
		c-0.7,0.4-1.5,0.8-2.2,1.2c-0.7,0.4-1.5,0.8-2.2,1.2c-0.7,0.4-1.5,0.8-2.2,1.2c-0.8,0.4-1.5,0.8-2.3,1.2c-0.8,0.4-1.6,0.8-2.4,1.2
		c-0.8,0.4-1.7,0.8-2.5,1.2c-0.2,0.1-0.3,0.2-0.5,0.2c-0.1,0-0.2,0.1-0.2,0.1c0,0-0.2,0.1-0.3,0.1c9.2,3.6,23.5,0.8,39-0.6
		C670.6,1108.2,684.9,1110.9,694.1,1107.4z"/>
	<path class="st18" d="M730.7,1173.2c0,0-5.3,36.4-31.4,69.9c-3.9,5-16.8-11.8-24.6-23.3c-3.3-4.8-6.1-10.9-8.3-10.9
		c-1.9,0-10.1,42.7-11.3,44.7c0,0,4.9-47,6.3-52.9c0.4-1.8,2.7-3.5,4.4-4.1c10.3-3.9,34.8-17.3,48.8-40.2c0.5-0.8,1.7-1.1,2.5-0.5
		C724.9,1162.1,730.7,1173.2,730.7,1173.2z"/>
	<path class="st18" d="M579.4,1173.2c0,0,5.3,36.4,31.4,69.9c3.9,5,16.8-11.8,24.6-23.3c3.3-4.8,6.1-10.9,8.3-10.9
		c1.9,0,10.1,42.7,11.3,44.7c0,0-4.9-47-6.3-52.9c-0.4-1.8-2.7-3.5-4.4-4.1c-10.3-3.9-34.8-17.3-48.8-40.2c-0.5-0.8-1.7-1.1-2.5-0.5
		C585.2,1162.1,579.4,1173.2,579.4,1173.2z"/>
	<g>
		<g>
			<path class="st1" d="M620.3,1014.1c5.7-1.6,11.6-1.8,17.4-2c5.8,0,11.7,0.2,17.4,0.6c5.6,0.3,11.5-0.1,17.3-0.2
				c5.8-0.1,11.8-0.2,17.4,1.5c-5.8-0.7-11.5,0-17.3,0.5c-5.8,0.6-11.6,1.2-17.5,1c-5.8-0.2-11.6-0.6-17.4-0.9
				C631.9,1014.2,626.1,1013.9,620.3,1014.1z"/>
		</g>
	</g>
	<g>
		<g>
			<path class="st1" d="M629.2,1006c4-1.9,8.5-2.9,12.9-3.4c4.4-0.5,8.9-0.5,13.3-0.4c4.4,0.2,8.8,0.5,13.2,0.9
				c4.4,0.3,8.7,0.7,13.1,0.5c-4.2,1.4-8.8,1.7-13.2,1.8c-4.4,0.1-8.8-0.1-13.2-0.2C646.5,1004.9,637.9,1004.5,629.2,1006z"/>
		</g>
	</g>
</g>
<path class="st0" d="M407.9,852.2c-11.9-47.1-46.3-81-106.8-110.2c-31.5-15.2-38.1-34.9-38.1-62.6c0-22-22-34.5-45.4-38.2V641
	c-0.2,0-0.4,0.1-0.7,0.1c-0.2,0-0.4-0.1-0.7-0.1v0.2c-23.4,3.7-45.4,16.2-45.4,38.2c0,27.8-6.6,47.4-38.1,62.6
	c-60.5,29.2-94.9,63.1-106.8,110.2l191,0L407.9,852.2z"/>
<path class="st25" d="M407.9,852.2H25.8c11.9-47.1,46.3-81,106.8-110.1c5.4-2.6,10.1-5.4,14.1-8.2c6.4-4.6,11.2-9.6,14.8-15
	c12.2,17.6,32.7,28,41.5,31c1.5,0.5,3.1,2.1,3.8,3.3c5,7.7,7.9,22.1,9.2,30.1c0,0.1,0,0.2,0,0.3h0.9c1.3-7.9,4.2-22.6,9.3-30.4
	c0.8-1.2,2.3-2.8,3.8-3.3c8.8-3.1,29.7-13.6,41.9-31.5c3.4,5.4,8.1,10.4,14.4,15c4.2,3.1,9,5.9,14.7,8.7
	C361.6,771.3,396,805.2,407.9,852.2z"/>
<path class="st12" d="M84.8,852.2h-59c7.7-30.4,24.7-55.2,52.1-76.9C83.7,800.5,86.1,826.5,84.8,852.2z"/>
<path class="st12" d="M407.9,852.2h-59c-1.3-25.8,1-51.7,6.9-76.9C383.2,797,400.2,821.9,407.9,852.2z"/>
<path class="st1" d="M264.2,697.4c-0.9-5.6-1.3-11.5-1.3-17.9c0-22-22-34.5-45.4-38.2V641c-0.2,0-0.4,0.1-0.7,0.1
	c-0.2,0-0.4-0.1-0.7-0.1v0.2c-23.4,3.7-45.4,16.2-45.4,38.2c0,13.1-1.5,24.3-6.4,34.2C182.6,721.9,231.4,731.9,264.2,697.4z"/>
<path class="st12" d="M274.6,717.3c-0.7-0.5-1.7-0.3-2.1,0.4c-12.1,18.4-33.4,29.1-42.3,32.2c-1.5,0.5-3.1,2.1-3.8,3.3
	c-5.1,7.8-8,22.5-9.3,30.4h-0.9c-1.3-7.9-4.1-22.6-9.3-30.4c-0.8-1.2-2.3-2.8-3.8-3.3c-8.9-3.1-30.2-13.9-42.3-32.2
	c-0.5-0.7-1.5-0.9-2.1-0.4c-6.9,5-11.9,13.9-11.9,13.9s-0.2,23.5,24.7,48.3c5.3,5.3,17.2-1.7,24-11c2.9-3.9,5.3-8.8,7.2-8.8
	c1.2,0,8.1,15.3,11.9,23.9v68.6h4.5v-68.6c3.7-8.5,10.5-23.9,11.8-23.9c1.9,0,4.4,4.9,7.2,8.8c6.8,9.2,18.7,16.2,24,11
	c24.8-24.8,24.7-48.3,24.7-48.3S281.5,722.3,274.6,717.3z"/>
<path class="st0" d="M286.1,643.3c-5.7,3.4-7.1-4.7-7.6-13.2c-0.5-8.8,1.2-23.7,6.4-30.1c5.2-6.5,12.8-10,16.2-0.3
	C304.1,607.9,299.7,635.1,286.1,643.3z"/>
<path class="st0" d="M147.1,643.3c5.7,3.4,7.1-4.7,7.6-13.2c0.5-8.8-1.2-23.7-6.4-30.1c-5.2-6.5-12.8-10-16.2-0.3
	C129.1,607.9,133.6,635.1,147.1,643.3z"/>
<path class="st11" d="M287.3,548c-3.9-8.2-12.1-24.8-27.2-25.9c-26.8-1.8-22.3,10.1-38.8,9.6c-0.1,0-0.4,0-0.9,0
	c-0.2-0.1-2.1-0.1-4.1,0c-2,0-3.9,0-4.1-0.1c-0.4,0.1-0.8,0.1-0.9,0.1c-16.5,0.5-12-11.4-38.8-9.6c-15.1,1-23.3,17.7-27.2,25.9
	c-6.5,13.5-18.3,16.2-14.6,38c0.4,2.2,1,6.6,2.4,11.2c0.5-1.6,3.5-3.5,5.4-2.9c4.4,1.5,4.6,11.9,5.1,16.5c0.2,2.4,0.4,4.8,0.7,7.3
	c0.8,6.2,1.4,12.2,4,13.9c12.7,7.9,28.1,9.3,37.6,11.5c7.4,1.7,21,1,30.3,0.5c9.3,0.6,23,1.2,30.3-0.5c9.5-2.2,24.9-3.6,37.6-11.5
	c2.6-1.6,3.2-7.7,4-13.9c0.3-2.4,0.5-4.8,0.7-7.3c0.4-4.7,0.6-15,5.1-16.5c1.9-0.7,4.9,1.2,5.4,2.9c1.4-4.6,2-9,2.4-11.2
	C305.6,564.2,293.8,561.5,287.3,548z"/>
<path class="st0" d="M283.3,623.4c-0.1-3.5,0.2-7.1,0.2-10.6c0-6.3-1-14.5-4.4-19.9c-1.2-1.9-3-2.8-4.5-4.4c-1.6-1.6-3-3.8-4-5.9
	c-0.4-0.9-0.8-1.8-1.2-2.6c-4.5-11.2,2.4-20.4-5-34.9c-7.5-14.8-21.4-27.9-47.5-28h-1c-15.8,0-40,13.2-47.5,28
	c-7.4,14.4-0.5,23.6-5,34.9c-0.3,0.9-0.7,1.8-1.2,2.6c-1.1,2.2-2.4,4.3-4,5.9c-1.5,1.5-3.4,2.5-4.5,4.4c-3.4,5.5-4.3,13.6-4.4,19.9
	c0,3.5,0.3,7.1,0.2,10.6c-0.1,2-2.3,2.8-4.7,2.5c0.5,5.7,2.5,13,4.6,18.6c2.1,5.7,3.7,11.4,5.6,17.2c8.7,25.5,35.6,40.2,42.3,42.4
	c4.1,1.4,8.4,1.8,12.7,2.2c4.4,0.4,8.8,0.5,13.1,0c4.2-0.5,8.4-0.9,12.4-2.2c6.7-2.2,33.6-16.9,42.3-42.4c1.9-5.7,3.5-11.5,5.6-17.2
	c2.1-5.7,4.1-12.9,4.6-18.6C285.6,626.2,283.3,625.4,283.3,623.4z"/>
<g>
	<g>
		<path class="st1" d="M207.4,593.5c1.7,2.3,2.5,5,3,7.8c0.5,2.7,0.8,5.5,0.7,8.3c0,5.6-1,11.1-2.1,16.5c-1,4.9-1.2,9.7,1,12.9
			c1.1,1.6,3,2.9,5.3,3.6c2.2,0.7,4.9,1.1,7.2,0l0.4,0.4c-0.8,1.3-2.3,2-3.7,2.5c-1.4,0.5-2.9,0.7-4.5,0.7c-3-0.1-6.3-1.2-8.8-3.7
			c-2.4-2.5-3.6-5.9-3.8-9c-0.1-3.2,0.5-6.1,1.5-8.9c1.9-5,3.4-10,4.1-15.2c0.7-5.1,1.1-10.6-1-15.5L207.4,593.5z"/>
	</g>
</g>
<path class="st11" d="M246.4,600.6c-13,2.5-18.1-8.3-13.7-11.5c4.7-3.4,12.1-2.9,20.8,1.4c9.1,4.5,14.5,3.3,19,5.8
	c3.3,1.9,5.3,5.6,2.4,6.4C272.6,603.3,260,597.9,246.4,600.6z"/>
<path class="st11" d="M186.7,600.6c13,2.5,18.1-8.3,13.7-11.5c-4.7-3.4-12.1-2.9-20.8,1.4c-9.1,4.5-14.5,3.3-19,5.8
	c-3.3,1.9-5.3,5.6-2.4,6.4C160.5,603.3,173.1,597.9,186.7,600.6z"/>
<path class="st20" d="M243.5,615.5c-0.5,3.7,1.6,7,4.7,7.5c3.1,0.4,6-2.3,6.5-6c0.5-3.7-1.6-7-4.7-7.5
	C246.9,609.1,244,611.8,243.5,615.5z"/>
<path class="st20" d="M189.6,615.5c0.5,3.7-1.6,7-4.7,7.5c-3.1,0.4-6-2.3-6.5-6c-0.5-3.7,1.6-7,4.7-7.5
	C186.2,609.1,189.1,611.8,189.6,615.5z"/>
<path class="st4" d="M217.7,681.3c9.4-0.8,15.8-7.6,20.8-15.5c1.4-2.1,0.1-2.7-0.7-2.4c-5.9,2.5-13.5,3.8-21.4,3.7
	c-13.4-0.2-21.4-4-22.2-3.4c-3.1,2.2,8.1,13.4,9.8,14.4C208.1,680.4,212.9,681.7,217.7,681.3z"/>
<g>
	<g>
		<path class="st1" d="M181.6,567.3c5.7-1.6,11.6-1.8,17.4-2c5.8,0,11.7,0.2,17.4,0.6c5.6,0.3,11.5-0.1,17.3-0.2
			c5.8-0.1,11.8-0.2,17.4,1.5c-5.8-0.7-11.5,0-17.3,0.5c-5.8,0.6-11.6,1.2-17.5,1c-5.8-0.2-11.6-0.6-17.4-0.9
			C193.2,567.3,187.4,567,181.6,567.3z"/>
	</g>
</g>
<g>
	<path class="st1" d="M190.5,559.2c4-1.9,8.5-2.9,12.9-3.4c4.4-0.5,8.9-0.5,13.3-0.4c4.4,0.2,8.8,0.5,13.2,0.9
		c4.4,0.3,8.7,0.7,13.1,0.5c-4.2,1.4-8.8,1.7-13.2,1.8c-4.4,0.1-8.8-0.1-13.2-0.2C207.8,558,199.2,557.6,190.5,559.2z"/>
</g>
<path class="st17" d="M1208.9,760.8c-33.5-18.8-17.4-9.7-56-29.1c-31.7-15.9-38.1-45.7-38.1-75.4c0-24.4-23.5-38-47.9-41.4
	c-24.3,3.4-47.9,16.9-47.9,41.4c0,29.8-6.4,59.5-38.1,75.4c-38.6,19.4-27,10.2-60.5,29.1c-40.3,22.6-49,52.4-56.6,93.2h203.1h198.6
	C1257.9,813.2,1249.2,783.4,1208.9,760.8z"/>
<path class="st8" d="M1173.6,853.9H954.9c6.4-34.7,8.1-74.1,2-110.8c5.1-2.2,12.2-5.5,24-11.4c2.9-1.5,5.6-3,8.1-4.7
	c6.3,26.1,31,69,75.3,69.6c46.2-0.7,71.1-47.4,76-73c3.7,3,7.9,5.7,12.7,8.1c8.8,4.4,14.7,7.3,19,9.4
	C1165.5,778.4,1167.1,818.6,1173.6,853.9z"/>
<path class="st19" d="M1117.8,686.4c-2.3-9.7-3.1-19.9-3.1-30.1c0-24.4-23.5-38-47.9-41.4c-24.3,3.4-47.9,16.9-47.9,41.4
	c0,22.9-3.9,45.8-20.1,62.4C1031.7,726.9,1092,729.6,1117.8,686.4z"/>
<path class="st6" d="M1192.1,559.6c0.2,5.2-5.9,8.4-8.1,13.2c-2.5,5.5,1.6,9.8,2.5,15c1.6,8.8-7.7,9.9-11.8,15.6
	c-3.7,5.2,0.1,11.1-1.4,16.7c-1.5,5.3-7.8,5.4-12.1,7.3c-7.2,3.2-5.6,9-7.5,15.3c-2.2,7.3-8.1,5.7-14.3,6.4
	c-8.9,0.9-7.3,9-11.8,14.5c-2.6,3.2-6.5,2.8-10,1.8c-5.3-1.4-9.5-2-13.3,2.5c-2.6,3.2-4.1,7.9-8.5,9c-4.9,1.2-11.2-5.8-16.3-5.2
	c-5,0.6-9.7,9-14.8,9c-5.2,0-9.8-8.4-14.7-9c-5.1-0.6-11.5,6.4-16.4,5.2c-5.5-1.4-6.7-8.2-11-11.1c-4.5-3.1-9.6,0.3-14.5,0.3
	c-7.6,0-7.3-6.7-10.2-11.8c-4.5-7.8-10.3-3.7-17.3-6.1c-6.4-2.3-4.6-8.9-6.2-14c-2.3-7.4-8.7-6.7-14.4-9.9c-7.2-4-2.3-10.8-3.2-17.2
	c-1-6.8-8.3-7.7-12.1-12.4c-5.2-6.4,3.1-12.5,2.4-19.3c-0.7-6.2-8.9-8.7-9-15.3c-0.1-5.2,5.8-8.2,7.6-12.7c2.6-6.2-3.1-11-3.6-17
	c-0.5-6.7,6.7-8,10.5-11.8c6.4-6.6-2.8-19.7,6.6-23.7c4.9-2.1,11-1.5,13.1-7.5c1.5-4.3,0-10.9,3.7-14.3c6-5.5,15.7,0.7,20.5-7.5
	c2.3-3.9,2.3-9.5,7-11.6c4.6-2,8.9,1.3,13.4,1.5c4.7,0.2,7.4-2.8,9.8-6.4c3.1-4.5,6.5-7.1,12-5.5c4.9,1.4,9.2,5.3,14.6,3.2
	c6.3-2.5,9.9-10.5,17.5-6.6c5.2,2.7,9.2,8.7,15.8,6.1c4.4-1.8,9.2-5.6,13.9-2.4c3.8,2.6,5.1,7.6,9.2,10.1c6.2,3.7,13-3.4,19,0.2
	c4.1,2.5,4.9,8.9,7.5,12.6c4.6,6.6,13.1,1,18.8,5.5c3.7,2.9,2.9,8.4,3.6,12.5c1.6,8.3,9,6.6,14.8,10.2c6,3.7,3,10.4,2.6,15.9
	c-0.6,8.7,8.1,8.5,11.9,14.4c4.2,6.7-4.3,12.9-3.5,19.7c0.6,4.7,4.8,7.1,6.8,11C1191.8,557.4,1192,558.5,1192.1,559.6z"/>
<path class="st17" d="M1144.1,612.7c-2.4,6.7-7.2,15.2-13.1,19c-5.8,3.7-9.9,0.8-10.3-6.4c-0.5-7.4,1.2-19.8,6.4-25.2
	c5.2-5.5,15.5-5.2,18.1,3.2C1145.9,605.9,1145.3,609.2,1144.1,612.7z"/>
<path class="st17" d="M1112.3,539.3c-10.4-16-31.9-15.6-48.8-16.3c-15.6-0.7-37.2,1.9-46.6,16.3c-6.7,10.4-18.1,35.4-17.6,54.5
	c0.5,18.3,2.6,32.7,8.9,50.1c15.5,42.5,38.5,53,43.1,54c8.5,1.8,18.1,1.8,26.6,0c4.6-1,27.6-11.5,43.1-54
	c6.3-17.4,8.4-31.8,8.9-50.1C1130.4,574.7,1119.1,549.7,1112.3,539.3z"/>
<path class="st17" d="M983.4,612.7c2.4,6.7,7.2,15.2,13.1,19c5.8,3.7,9.9,0.8,10.3-6.4c0.5-7.4-1.2-19.8-6.4-25.2
	c-5.2-5.5-15.5-5.2-18.1,3.2C981.6,605.9,982.2,609.2,983.4,612.7z"/>
<path class="st6" d="M1084.9,573.2c-2.4,0-4.9-0.3-7-1.4c-1.3-0.7-4-2.6-3.4-4.3c0.9-2.5,5.7-3.2,7.9-3.7c7.1-1.4,14.7-0.9,21.5,1.8
	c3.5,1.4,6.7,3.3,9.5,5.7c1.3,1.1,2.7,2.3,3.9,3.5c0.7,0.6,2.4,1.9,2.5,2.8c0.1,1.1-1.7,2.4-5.2,0.6c-1-0.5-6.2-3.6-7.3-3.9
	c-4.6-1.3-9.3-1.8-14.1-1.6C1090.8,572.8,1087.8,573.2,1084.9,573.2z"/>
<path class="st6" d="M1044.3,573.2c2.4,0,4.9-0.3,7-1.4c1.3-0.7,4-2.6,3.4-4.3c-0.9-2.5-5.7-3.2-7.9-3.7c-7.1-1.4-14.7-0.9-21.5,1.8
	c-3.5,1.4-6.7,3.3-9.5,5.7c-1.3,1.1-2.7,2.3-3.9,3.5c-0.7,0.6-2.4,1.9-2.5,2.8c-0.1,1.1,1.7,2.4,5.2,0.6c1-0.5,6.2-3.6,7.3-3.9
	c4.6-1.3,9.3-1.8,14.1-1.6C1038.4,572.8,1041.4,573.2,1044.3,573.2z"/>
<path class="st20" d="M1093.3,592.2c-0.5,3.7,1.6,7,4.7,7.5c3.1,0.4,6-2.3,6.5-6c0.5-3.7-1.6-7-4.7-7.5
	C1096.7,585.8,1093.8,588.4,1093.3,592.2z"/>
<path class="st20" d="M1035.9,592.2c0.5,3.7-1.6,7-4.7,7.5c-3.1,0.4-6-2.3-6.5-6c-0.5-3.7,1.6-7,4.7-7.5
	C1032.5,585.8,1035.4,588.4,1035.9,592.2z"/>
<g>
	<g>
		<path class="st19" d="M1057.4,589.4c1.2,2.8,1.2,5.7,1.3,8.6c0,2.9-0.3,5.8-0.7,8.6c-0.4,2.9-1,5.7-1.6,8.5c-0.7,3-1.2,5.1-1,7.2
			c0.6,4,4.3,7.3,9,8.2c4.6,1,10-0.5,13.3-5.2l0.5,0.2c-0.6,2.8-2.4,5.7-5.1,7.4c-2.7,1.8-6,2.6-9.2,2.5c-3.3-0.1-6.6-1.2-9.3-3.3
			c-2.8-2.1-4.8-5.6-5-9.2c-0.1-1.8,0.1-3.5,0.5-5.1c0.5-1.7,1.1-2.8,1.6-4.1c1-2.6,1.9-5.2,2.8-7.8c1.5-5.3,3.1-10.8,2.4-16.2
			L1057.4,589.4z"/>
	</g>
</g>
<path class="st4" d="M1066.1,668.5c9.4-0.8,15.8-7.6,20.8-15.5c1.4-2.1,0.1-2.7-0.7-2.4c-5.9,2.5-13.5,3.8-21.4,3.7
	c-13.4-0.2-21.4-4-22.2-3.4c-3.1,2.2,8.1,13.4,9.8,14.4C1056.5,667.6,1061.3,668.9,1066.1,668.5z"/>
<path class="st19" d="M1073.5,664.7c-3.8,1.9-13.1,2.3-17.8,0c-5.5-2.7-10.3-7.3-13.9-12.9c0.2,12.1,8.5,23.3,18.6,25.2
	c1.4,0.3,7,0.3,8.5,0c10.1-1.9,18.4-13.1,18.6-25.2C1083.7,657.4,1079,661.9,1073.5,664.7z"/>
</svg>
