<?xml version="1.0" encoding="utf-8"?>
<!-- Generator: Adobe Illustrator 23.0.1, SVG Export Plug-In . SVG Version: 6.00 Build 0)  -->
<svg version="1.1" id="Layer_1" xmlns="http://www.w3.org/2000/svg" xmlns:xlink="http://www.w3.org/1999/xlink" x="0px" y="0px"
	 viewBox="0 0 414.2 42.6" style="enable-background:new 0 0 414.2 42.6;" xml:space="preserve">
<style type="text/css">
	.st0{fill:none;stroke:#FFFFFF;stroke-width:2;stroke-miterlimit:10;}
</style>
<g>
	<g>
		<path class="st0" d="M12.4,11.1c1.1-1.8,2.8-2.7,5.2-2.7c2.3,0,4.1,0.5,5.2,1.6c1.1,1,1.7,2.8,1.8,5.2h9.5
			c-0.4-4.4-2.1-7.9-5-10.4C26.3,2.3,22.4,1,17.6,1c-3.3,0-6.3,0.8-8.8,2.4C6.3,5,4.4,7.2,3,10.1C1.7,13,1,16.4,1,20.2v2
			c0,6.2,1.5,10.9,4.5,14.3c3,3.4,7.1,5.1,12.3,5.1c3.1,0,5.9-0.6,8.4-1.7c2.4-1.2,4.4-2.8,5.7-4.9c1.4-2.1,2.1-4.5,2.2-7.3h-9.5
			c-0.1,2.2-0.7,3.9-1.8,4.9c-1.2,1-2.8,1.5-5,1.5c-2.6,0-4.4-0.9-5.5-2.7c-1.1-1.8-1.6-4.8-1.6-9v-2.8
			C10.7,15.7,11.3,12.9,12.4,11.1z M62.5,3.4C59.9,1.8,56.9,1,53.6,1c-3.4,0-6.4,0.8-9,2.4c-2.6,1.6-4.7,3.9-6.1,6.8
			c-1.4,3-2.1,6.4-2.1,10.2v2.2c0.1,3.7,0.8,7,2.3,9.9c1.5,2.9,3.5,5.1,6.1,6.6c2.6,1.5,5.6,2.3,8.9,2.3c3.4,0,6.4-0.8,9-2.4
			c2.6-1.6,4.7-3.9,6.1-6.8c1.4-3,2.1-6.4,2.1-10.2v-1.8c0-3.8-0.8-7.2-2.2-10.1C67.2,7.3,65.2,5,62.5,3.4z M61.2,22.3
			c0,3.8-0.7,6.8-2,8.8c-1.3,2-3.2,3.1-5.6,3.1c-2.5,0-4.4-1-5.7-3.1C46.6,29,46,26,46,22.1l0-2.9c0.3-7.2,2.8-10.7,7.6-10.7
			c2.4,0,4.3,1,5.6,3c1.3,2,2,5,2,8.9V22.3z M98.1,26.1l-14-24.6h-9.5V41h9.5V16.5l14,24.6h9.5V1.6h-9.5V26.1z M136,17.2h-14V1.6
			h-9.5V41h9.5V24.6h14V41h9.5V1.6H136V17.2z M150.4,41h27.2v-7.3h-17.7v-9.4h15v-7h-15V8.9h17.7V1.6h-27.2V41z M190.7,11.1
			c1.1-1.8,2.8-2.7,5.2-2.7c2.3,0,4.1,0.5,5.2,1.6c1.1,1,1.7,2.8,1.8,5.2h9.5c-0.4-4.4-2.1-7.9-5-10.4c-2.9-2.5-6.8-3.8-11.5-3.8
			c-3.3,0-6.3,0.8-8.8,2.4c-2.5,1.6-4.5,3.8-5.8,6.7c-1.3,2.9-2,6.3-2,10.2v2c0,6.2,1.5,10.9,4.5,14.3c3,3.4,7.1,5.1,12.3,5.1
			c3.1,0,5.9-0.6,8.4-1.7c2.4-1.2,4.4-2.8,5.7-4.9c1.4-2.1,2.1-4.5,2.2-7.3h-9.5c-0.1,2.2-0.7,3.9-1.8,4.9c-1.2,1-2.8,1.5-5,1.5
			c-2.6,0-4.4-0.9-5.5-2.7c-1.1-1.8-1.6-4.8-1.6-9v-2.8C189,15.7,189.6,12.9,190.7,11.1z M216.3,41h9.5V1.6h-9.5V41z M252.6,29
			l-8.8-27.5h-12.5V41h9.5v-9.2l-0.9-18.9l9.6,28.1h6.3l9.5-28.1l-0.9,18.9V41h9.5V1.6h-12.5L252.6,29z M278.9,41h27.2v-7.3h-17.7
			v-9.4h15v-7h-15V8.9h17.7V1.6h-27.2V41z M332.3,26.1l-14-24.6h-9.5V41h9.5V16.5l14,24.6h9.5V1.6h-9.5V26.1z M344.7,8.9h11.6V41
			h9.5V8.9h11.8V1.6h-33V8.9z M411,10.2c-1.5-2.9-3.5-5.2-6.1-6.8C402.3,1.8,399.3,1,396,1c-3.4,0-6.4,0.8-9,2.4
			c-2.6,1.6-4.7,3.9-6.1,6.8c-1.4,3-2.1,6.4-2.1,10.2v2.2c0.1,3.7,0.8,7,2.3,9.9c1.5,2.9,3.5,5.1,6.1,6.6c2.6,1.5,5.6,2.3,8.9,2.3
			c3.4,0,6.4-0.8,9-2.4c2.6-1.6,4.7-3.9,6.1-6.8c1.4-3,2.1-6.4,2.1-10.2v-1.8C413.2,16.5,412.5,13.1,411,10.2z M403.6,22.3
			c0,3.8-0.7,6.8-2,8.8c-1.3,2-3.2,3.1-5.6,3.1c-2.5,0-4.4-1-5.7-3.1c-1.3-2.1-1.9-5.1-1.9-8.9l0-2.9c0.3-7.2,2.8-10.7,7.6-10.7
			c2.4,0,4.3,1,5.6,3c1.3,2,2,5,2,8.9V22.3z"/>
	</g>
</g>
</svg>
