<?xml version="1.0" encoding="utf-8"?>
<!-- Generator: Adobe Illustrator 23.0.1, SVG Export Plug-In . SVG Version: 6.00 Build 0)  -->
<svg version="1.1" id="Layer_1" xmlns="http://www.w3.org/2000/svg" xmlns:xlink="http://www.w3.org/1999/xlink" x="0px" y="0px"
	 viewBox="0 0 300.7 52.6" style="enable-background:new 0 0 300.7 52.6;" xml:space="preserve">
<style type="text/css">
	.st0{fill:none;stroke:#FFFFFF;stroke-width:2;stroke-miterlimit:10;}
</style>
<g>
	<g>
		<path class="st0" d="M12.4,21.1c1.1-1.8,2.8-2.7,5.2-2.7c2.3,0,4.1,0.5,5.2,1.6c1.1,1,1.7,2.8,1.8,5.2h9.5
			c-0.4-4.4-2.1-7.9-5-10.4c-2.9-2.5-6.8-3.8-11.5-3.8c-3.3,0-6.3,0.8-8.8,2.4C6.3,15,4.4,17.2,3,20.1C1.7,23,1,26.4,1,30.2v2
			c0,6.2,1.5,10.9,4.5,14.3c3,3.4,7.1,5.1,12.3,5.1c3.1,0,5.9-0.6,8.4-1.7c2.4-1.2,4.4-2.8,5.7-4.9c1.4-2.1,2.1-4.5,2.2-7.3h-9.5
			c-0.1,2.2-0.7,3.9-1.8,4.9c-1.2,1-2.8,1.5-5,1.5c-2.6,0-4.4-0.9-5.5-2.7c-1.1-1.8-1.6-4.8-1.6-9v-2.8
			C10.7,25.7,11.3,22.9,12.4,21.1z M60,37.3c0,2.4-0.5,4.2-1.5,5.3c-1,1.1-2.5,1.6-4.5,1.6c-3.9,0-5.9-2.2-6-6.5V11.6h-9.6v26
			c0.1,4.3,1.5,7.8,4.2,10.2c2.8,2.5,6.6,3.7,11.4,3.7c3.2,0,5.9-0.6,8.3-1.7c2.3-1.1,4.1-2.8,5.4-4.9c1.2-2.1,1.9-4.7,1.9-7.6V11.6
			H60V37.3z M104.2,30.3c1.1-1.8,1.7-4.1,1.7-6.8c0-3.8-1.3-6.7-4-8.8c-2.6-2.1-6.3-3.1-11-3.1H75.4V51h9.5v-14h5.2l7,14h10.2v-0.4
			L99,34.7C101.4,33.6,103.1,32.1,104.2,30.3z M95,28.3c-0.9,1-2.3,1.4-4.1,1.4h-6V18.9h6c1.8,0,3.1,0.5,4.1,1.5
			c0.9,1,1.4,2.3,1.4,4C96.4,26.1,96,27.4,95,28.3z M140.4,30.3c1.1-1.8,1.7-4.1,1.7-6.8c0-3.8-1.3-6.7-4-8.8
			c-2.6-2.1-6.3-3.1-11-3.1h-15.5V51h9.5v-14h5.1l7,14h10.2v-0.4l-8.2-15.9C137.6,33.6,139.3,32.1,140.4,30.3z M131.3,28.3
			c-0.9,1-2.3,1.4-4.1,1.4h-6V18.9h6c1.8,0,3.1,0.5,4.1,1.5c0.9,1,1.4,2.3,1.4,4C132.6,26.1,132.2,27.4,131.3,28.3z M164,1h-9.6
			L149,9.5l7.5,0L164,1z M148.5,51h9.5V11.6h-9.5V51z M174.9,21.1c1.1-1.8,2.8-2.7,5.2-2.7c2.3,0,4.1,0.5,5.2,1.6
			c1.1,1,1.7,2.8,1.8,5.2h9.5c-0.4-4.4-2.1-7.9-5-10.4c-2.9-2.5-6.8-3.8-11.5-3.8c-3.3,0-6.3,0.8-8.8,2.4c-2.5,1.6-4.5,3.8-5.8,6.7
			c-1.3,2.9-2,6.3-2,10.2v2c0,6.2,1.5,10.9,4.5,14.3c3,3.4,7.1,5.1,12.3,5.1c3.1,0,5.9-0.6,8.4-1.7c2.4-1.2,4.4-2.8,5.7-4.9
			c1.4-2.1,2.1-4.5,2.2-7.3h-9.5c-0.1,2.2-0.7,3.9-1.8,4.9c-1.2,1-2.8,1.5-5,1.5c-2.6,0-4.4-0.9-5.5-2.7c-1.1-1.8-1.6-4.8-1.6-9
			v-2.8C173.2,25.7,173.8,22.9,174.9,21.1z M222.5,37.3c0,2.4-0.5,4.2-1.5,5.3c-1,1.1-2.5,1.6-4.5,1.6c-3.9,0-5.9-2.2-6-6.5V11.6
			h-9.6v26c0.1,4.3,1.5,7.8,4.2,10.2c2.8,2.5,6.6,3.7,11.4,3.7c3.2,0,5.9-0.6,8.3-1.7c2.3-1.1,4.1-2.8,5.4-4.9
			c1.2-2.1,1.9-4.7,1.9-7.6V11.6h-9.5V37.3z M247.4,11.6h-9.5V51H264v-7.3h-16.6V11.6z M297.5,20.2c-1.5-2.9-3.5-5.2-6.1-6.8
			c-2.6-1.6-5.6-2.4-8.9-2.4c-3.4,0-6.4,0.8-9,2.4c-2.6,1.6-4.7,3.9-6.1,6.8c-1.4,3-2.1,6.4-2.1,10.2v2.2c0.1,3.7,0.8,7,2.3,9.9
			c1.5,2.9,3.5,5.1,6.1,6.6c2.6,1.5,5.6,2.3,8.9,2.3c3.4,0,6.4-0.8,9-2.4c2.6-1.6,4.7-3.9,6.1-6.8c1.4-3,2.1-6.4,2.1-10.2v-1.8
			C299.7,26.5,298.9,23.1,297.5,20.2z M290,32.3c0,3.8-0.7,6.8-2,8.8c-1.3,2-3.2,3.1-5.6,3.1c-2.5,0-4.4-1-5.7-3.1
			c-1.3-2.1-1.9-5.1-1.9-8.9l0-2.9c0.3-7.2,2.8-10.7,7.6-10.7c2.4,0,4.3,1,5.6,3c1.3,2,2,5,2,8.9V32.3z"/>
	</g>
</g>
</svg>
