<?xml version="1.0" encoding="utf-8"?>
<!-- Generator: Adobe Illustrator 23.0.1, SVG Export Plug-In . SVG Version: 6.00 Build 0)  -->
<svg version="1.1" id="Ñëîé_1" xmlns="http://www.w3.org/2000/svg" xmlns:xlink="http://www.w3.org/1999/xlink" x="0px" y="0px"
	 viewBox="0 0 114.9 889.7" style="enable-background:new 0 0 114.9 889.7;" xml:space="preserve">
<style type="text/css">
	.st0{fill:#FFFFFF;}
	.st1{fill:#FFCD00;}
</style>
<path class="st0" d="M57.5,168.5c4.7,0,8.4-3.8,8.4-8.4c0-4.7-3.8-8.4-8.4-8.4c-4.7,0-8.4,3.8-8.4,8.4
	C49,164.8,52.8,168.5,57.5,168.5z M57.5,187.9c-4.7,0-8.4,3.8-8.4,8.4c0,4.7,3.8,8.4,8.4,8.4c4.7,0,8.4-3.8,8.4-8.4
	C65.9,191.7,62.1,187.9,57.5,187.9z M57.5,224.2c-4.7,0-8.4,3.8-8.4,8.4c0,4.6,3.8,8.4,8.4,8.4c4.7,0,8.4-3.8,8.4-8.4
	C65.9,228,62.1,224.2,57.5,224.2z M57.5,260.4c-4.7,0-8.4,3.8-8.4,8.4c0,4.7,3.8,8.4,8.4,8.4c4.7,0,8.4-3.8,8.4-8.4
	C65.9,264.2,62.1,260.4,57.5,260.4z M57.5,296.7c-4.7,0-8.4,3.8-8.4,8.4c0,4.7,3.8,8.4,8.4,8.4c4.7,0,8.4-3.8,8.4-8.4
	C65.9,300.5,62.1,296.7,57.5,296.7z M57.5,332.9c-4.7,0-8.4,3.8-8.4,8.4c0,4.7,3.8,8.4,8.4,8.4c4.7,0,8.4-3.8,8.4-8.4
	C65.9,336.7,62.1,332.9,57.5,332.9z"/>
<path class="st0" d="M57.5,555.4c4.7,0,8.4-3.8,8.4-8.4s-3.8-8.4-8.4-8.4c-4.7,0-8.4,3.8-8.4,8.4S52.8,555.4,57.5,555.4z
	 M57.5,574.8c-4.7,0-8.4,3.8-8.4,8.4c0,4.7,3.8,8.4,8.4,8.4c4.7,0,8.4-3.8,8.4-8.4C65.9,578.6,62.1,574.8,57.5,574.8z M57.5,611
	c-4.7,0-8.4,3.8-8.4,8.4c0,4.6,3.8,8.4,8.4,8.4c4.7,0,8.4-3.8,8.4-8.4C65.9,614.8,62.1,611,57.5,611z M57.5,647.3
	c-4.7,0-8.4,3.8-8.4,8.4c0,4.7,3.8,8.4,8.4,8.4c4.7,0,8.4-3.8,8.4-8.4C65.9,651.1,62.1,647.3,57.5,647.3z M57.5,683.5
	c-4.7,0-8.4,3.8-8.4,8.4s3.8,8.4,8.4,8.4c4.7,0,8.4-3.8,8.4-8.4S62.1,683.5,57.5,683.5z M57.5,719.8c-4.7,0-8.4,3.8-8.4,8.4
	c0,4.7,3.8,8.4,8.4,8.4c4.7,0,8.4-3.8,8.4-8.4C65.9,723.5,62.1,719.8,57.5,719.8z"/>
<path class="st1" d="M57.5,0C25.7,0,0,25.7,0,57.5c0,31.7,25.7,57.5,57.5,57.5c31.7,0,57.5-25.7,57.5-57.5C114.9,25.7,89.2,0,57.5,0
	z M57.5,101.1c-24.1,0-43.6-19.5-43.6-43.6c0-24.1,19.5-43.6,43.6-43.6c24.1,0,43.6,19.5,43.6,43.6
	C101.1,81.6,81.6,101.1,57.5,101.1z"/>
<path class="st1" d="M36.2,57.5c0-11.7,9.5-21.3,21.3-21.3c11.7,0,21.3,9.5,21.3,21.3s-9.5,21.3-21.3,21.3
	C45.7,78.7,36.2,69.2,36.2,57.5z"/>
<path class="st1" d="M57.5,387.4C25.7,387.4,0,413.1,0,444.8c0,31.7,25.7,57.5,57.5,57.5c31.7,0,57.5-25.7,57.5-57.5
	C114.9,413.1,89.2,387.4,57.5,387.4z M57.5,488.5c-24.1,0-43.6-19.5-43.6-43.6c0-24.1,19.5-43.6,43.6-43.6
	c24.1,0,43.6,19.5,43.6,43.6C101.1,468.9,81.6,488.5,57.5,488.5z"/>
<path class="st1" d="M36.2,444.8c0-11.7,9.5-21.3,21.3-21.3c11.7,0,21.3,9.5,21.3,21.3s-9.5,21.3-21.3,21.3
	C45.7,466.1,36.2,456.6,36.2,444.8z"/>
<path class="st1" d="M57.5,774.8C25.7,774.8,0,800.5,0,832.2c0,31.7,25.7,57.5,57.5,57.5c31.7,0,57.5-25.7,57.5-57.5
	C114.9,800.5,89.2,774.8,57.5,774.8z M57.5,875.9c-24.1,0-43.6-19.5-43.6-43.6c0-24.1,19.5-43.6,43.6-43.6
	c24.1,0,43.6,19.5,43.6,43.6C101.1,856.3,81.6,875.9,57.5,875.9z"/>
<path class="st1" d="M36.2,832.2c0-11.7,9.5-21.3,21.3-21.3c11.7,0,21.3,9.5,21.3,21.3s-9.5,21.3-21.3,21.3
	C45.7,853.5,36.2,844,36.2,832.2z"/>
</svg>
