<?xml version="1.0" encoding="utf-8"?>
<!-- Generator: Adobe Illustrator 23.0.1, SVG Export Plug-In . SVG Version: 6.00 Build 0)  -->
<svg version="1.1" id="Layer_1" xmlns="http://www.w3.org/2000/svg" xmlns:xlink="http://www.w3.org/1999/xlink" x="0px" y="0px"
	 viewBox="0 0 281.9 52.6" style="enable-background:new 0 0 281.9 52.6;" xml:space="preserve">
<style type="text/css">
	.st0{fill:none;stroke:#FFFFFF;stroke-width:2;stroke-miterlimit:10;}
</style>
<g>
	<g>
		<path class="st0" d="M27.2,13.4c-2.6-1.6-5.6-2.4-8.9-2.4c-3.4,0-6.4,0.8-9,2.4c-2.6,1.6-4.7,3.9-6.1,6.8C1.7,23.2,1,26.7,1,30.5
			v2.2c0.1,3.7,0.8,7,2.3,9.9c1.5,2.9,3.5,5.1,6.1,6.6c2.6,1.5,5.6,2.3,8.9,2.3c3.4,0,6.4-0.8,9-2.4s4.7-3.9,6.1-6.8
			c1.4-3,2.1-6.4,2.1-10.2v-1.8c0-3.8-0.8-7.2-2.2-10.1C31.9,17.3,29.8,15,27.2,13.4z M25.9,32.3c0,3.8-0.7,6.8-2,8.8
			c-1.3,2-3.2,3.1-5.6,3.1c-2.5,0-4.4-1-5.7-3.1c-1.3-2.1-1.9-5.1-1.9-8.9l0-2.9c0.3-7.2,2.8-10.7,7.6-10.7c2.4,0,4.3,1,5.6,3
			c1.3,2,2,5,2,8.9V32.3z M54.3,51h27.2v-7.3H63.8v-9.4h15v-7h-15v-8.3h17.7v-7.3H54.3V51z M96.2,19.3c1-0.7,2.3-1.1,4-1.1
			c1.7,0,3,0.4,4,1.3c1,0.9,1.5,2.1,1.5,3.7h9.5c0-2.4-0.6-4.5-1.9-6.4c-1.2-1.9-3-3.3-5.2-4.3c-2.2-1-4.8-1.5-7.6-1.5
			c-2.9,0-5.5,0.5-7.9,1.4c-2.3,0.9-4.1,2.2-5.4,3.9c-1.3,1.7-1.9,3.6-1.9,5.8c0,4.4,2.6,7.8,7.7,10.4c1.6,0.8,3.6,1.6,6.1,2.4
			c2.5,0.8,4.2,1.6,5.2,2.4c1,0.8,1.5,1.9,1.5,3.3c0,1.2-0.5,2.2-1.4,2.9c-0.9,0.7-2.2,1-3.7,1c-2.5,0-4.2-0.5-5.3-1.5
			c-1.1-1-1.6-2.6-1.6-4.7h-9.5c0,2.6,0.7,4.9,2,6.9c1.3,2,3.3,3.6,5.9,4.7c2.6,1.1,5.5,1.7,8.7,1.7c4.5,0,8.1-1,10.7-3
			c2.6-2,3.9-4.7,3.9-8.1c0-4.3-2.1-7.7-6.4-10.2c-1.8-1-4-2-6.7-2.8c-2.7-0.9-4.6-1.7-5.7-2.5c-1.1-0.8-1.6-1.7-1.6-2.8
			C94.7,21,95.2,20.1,96.2,19.3z M118.1,18.9h11.6V51h9.5V18.9h11.8v-7.3h-33V18.9z M166.5,11.6L152,51h10.2l2.3-7.4h13l2.3,7.4H190
			l-14.6-39.5H166.5z M166.7,36.3l4.2-13.7l4.3,13.7H166.7z M181.8,1h-9.6l-5.3,8.5l7.5,0L181.8,1z M209.1,36.5h6.6v6.1
			c-1.2,1.1-3.1,1.7-5.5,1.7c-2.9,0-5-1-6.4-3c-1.3-2-2-4.9-2-8.9V30c0-3.8,0.7-6.6,2-8.7c1.3-2,3.1-3,5.5-3c2,0,3.5,0.5,4.6,1.4
			c1.1,0.9,1.8,2.5,2.1,4.7h9.2c-0.5-4.5-2-7.8-4.8-10.1c-2.7-2.2-6.5-3.4-11.5-3.4c-3.4,0-6.3,0.8-8.9,2.3
			c-2.6,1.6-4.5,3.8-5.9,6.7c-1.4,2.9-2.1,6.3-2.1,10.2l0,3.4c0.2,5.6,1.9,10,5,13.2c3.1,3.2,7.2,4.7,12.4,4.7
			c3.4,0,6.5-0.5,9.3-1.5c2.8-1,5-2.3,6.4-3.9V29.9h-16.1V36.5z M231.4,51h9.5V11.6h-9.5V51z M278.7,20.2c-1.5-2.9-3.5-5.2-6.1-6.8
			c-2.6-1.6-5.6-2.4-8.9-2.4c-3.4,0-6.4,0.8-9,2.4c-2.6,1.6-4.7,3.9-6.1,6.8c-1.4,3-2.1,6.4-2.1,10.2v2.2c0.1,3.7,0.8,7,2.3,9.9
			c1.5,2.9,3.5,5.1,6.1,6.6c2.6,1.5,5.6,2.3,8.9,2.3c3.4,0,6.4-0.8,9-2.4s4.7-3.9,6.1-6.8c1.4-3,2.1-6.4,2.1-10.2v-1.8
			C280.9,26.5,280.1,23.1,278.7,20.2z M271.2,32.3c0,3.8-0.7,6.8-2,8.8c-1.3,2-3.2,3.1-5.6,3.1c-2.5,0-4.4-1-5.7-3.1
			c-1.3-2.1-1.9-5.1-1.9-8.9l0-2.9c0.3-7.2,2.8-10.7,7.6-10.7c2.4,0,4.3,1,5.6,3c1.3,2,2,5,2,8.9V32.3z"/>
	</g>
</g>
</svg>
