<?xml version="1.0" encoding="utf-8"?>
<!-- Generator: Adobe Illustrator 23.0.1, SVG Export Plug-In . SVG Version: 6.00 Build 0)  -->
<svg version="1.1" id="Layer_1" xmlns="http://www.w3.org/2000/svg" xmlns:xlink="http://www.w3.org/1999/xlink" x="0px" y="0px"
	 viewBox="0 0 1795.4 1435.2" style="enable-background:new 0 0 1795.4 1435.2;" xml:space="preserve">
<style type="text/css">
	.st0{fill:url(#SVGID_1_);}
	.st1{opacity:0.75;fill:#FFFFFF;enable-background:new    ;}
	.st2{fill:#02638B;}
	.st3{font-family:'ArialMT';}
	.st4{font-size:60px;}
	.st5{fill:#01ABBF;}
	.st6{fill:url(#SVGID_2_);}
	.st7{fill:url(#SVGID_3_);}
	.st8{fill:url(#SVGID_4_);}
	.st9{fill:url(#SVGID_5_);}
	.st10{fill:url(#SVGID_6_);}
</style>
<g>
	
		<linearGradient id="SVGID_1_" gradientUnits="userSpaceOnUse" x1="578.8" y1="1203.5" x2="1540.5" y2="1203.5" gradientTransform="matrix(1 0 0 -1 0 1436)">
		<stop  offset="0" style="stop-color:#F9BF14"/>
		<stop  offset="1" style="stop-color:#EB9B22"/>
	</linearGradient>
	<polygon class="st0" points="1323.1,236 1520.5,239.3 1540.5,181.6 1372.6,180 1432.1,8 817.7,0 757.4,174.4 677.5,173.6 
		578.8,458.9 1242.9,465 	"/>
	<g>
		<path class="st1" d="M1380.7-157.5H743.1c-7.6,0-13.8,6.2-13.8,13.8v344.9c0,7.6,6.2,13.8,13.8,13.8h272.7l46,79.7l46-79.7h272.7
			c7.6,0,13.8-6.2,13.8-13.8v-344.9C1394.5-151.3,1388.3-157.5,1380.7-157.5z"/>
		<text transform="matrix(1 0 0 1 982.7444 -31.2726)" class="st2 st3 st4">UNNT</text>
		<text transform="matrix(1 0 0 1 940.1035 40.7275)" class="st2 st3 st4">25 vagas</text>
		<text transform="matrix(1 0 0 1 913.5035 112.7275)" class="st5 st3 st4">Saiba mais</text>
	</g>
</g>
<g>
	
		<linearGradient id="SVGID_2_" gradientUnits="userSpaceOnUse" x1="0" y1="-205.85" x2="1037.4" y2="-205.85" gradientTransform="matrix(1 0 0 1 0 936)">
		<stop  offset="0" style="stop-color:#FCB715"/>
		<stop  offset="1" style="stop-color:#EF5C72"/>
	</linearGradient>
	<polygon class="st6" points="636.2,454.1 559.2,676.5 98.7,672.3 0,957.5 172.8,959.1 157.4,1003.3 332.1,1006.2 348,960.7 
		863.1,965.5 938.5,747.3 938.7,747.3 1037.4,462.1 	"/>
	<g>
		<path class="st1" d="M782.7,353.6H145.2c-7.6,0-13.8,6.2-13.8,13.8v344.9c0,7.6,6.2,13.8,13.8,13.8h272.7l46,79.7l46-79.7h272.7
			c7.6,0,13.8-6.2,13.8-13.8V367.4C796.5,359.8,790.3,353.6,782.7,353.6z"/>
		<text transform="matrix(1 0 0 1 377.8378 479.7777)" class="st2 st3 st4">UNOE</text>
		<text transform="matrix(1 0 0 1 342.1712 551.7777)" class="st2 st3 st4">22 vagas</text>
		<text transform="matrix(1 0 0 1 315.5712 623.7777)" class="st5 st3 st4">Saiba mais</text>
	</g>
</g>
<g>
	
		<linearGradient id="SVGID_3_" gradientUnits="userSpaceOnUse" x1="1150.8" y1="823" x2="1795.4" y2="823" gradientTransform="matrix(1 0 0 -1 0 1436)">
		<stop  offset="0" style="stop-color:#9E7AB6"/>
		<stop  offset="1" style="stop-color:#9C5C86"/>
	</linearGradient>
	<polygon class="st7" points="1323.1,236 1150.8,728.2 1270.5,730.2 1181.6,984 1534.2,990 1795.4,243.9 	"/>
	<g>
		<path class="st1" d="M1852.7,84.8h-637.5c-7.6,0-13.8,6.2-13.8,13.8v344.9c0,7.6,6.2,13.8,13.8,13.8h272.7l46,79.7l46-79.7h272.7
			c7.6,0,13.8-6.2,13.8-13.8V98.6C1866.5,91,1860.3,84.8,1852.7,84.8z"/>
		<text transform="matrix(1 0 0 1 1444.8748 211.0304)" class="st2 st3 st4">UNLE </text>
		<text transform="matrix(1 0 0 1 1412.1302 283.0304)" class="st2 st3 st4">29 vagas</text>
		<text transform="matrix(1 0 0 1 1385.5303 355.0304)" class="st5 st3 st4">Saiba mais</text>
	</g>
</g>
<g>
	
		<linearGradient id="SVGID_4_" gradientUnits="userSpaceOnUse" x1="778.7" y1="670.55" x2="1246.3" y2="670.55" gradientTransform="matrix(1 0 0 -1 0 1436)">
		<stop  offset="0" style="stop-color:#FAB8A6"/>
		<stop  offset="1" style="stop-color:#EF5C72"/>
	</linearGradient>
	<polygon class="st8" points="1173.8,1006.2 999.1,1003.3 1095.7,727.3 1150.8,728.2 1246.3,455.3 995.6,453.5 992.9,461.2 
		1037.4,462.1 938.7,747.3 938.5,747.3 863.1,965.5 817,965.1 778.7,1074.5 1186.6,1077.4 1219.1,984.7 1181.6,984 	"/>
	<g>
		<path class="st1" d="M1386.2,240.7H688.6c-7.6,0-13.8,6.2-13.8,13.8v344.9c0,7.6,6.2,13.8,13.8,13.8h302.7l46,79.7l46-79.7H1386
			c7.6,0,13.8-6.2,13.8-13.8V254.5C1400,246.9,1393.8,240.7,1386.2,240.7z"/>
		<text transform="matrix(1 0 0 1 959.1334 366.9415)" class="st2 st3 st4">UNCE</text>
		<text transform="matrix(1 0 0 1 915.5793 438.9415)" class="st2 st3 st4">13 vagas</text>
		<text transform="matrix(1 0 0 1 889.0793 510.9415)" class="st5 st3 st4">Saiba mais</text>
	</g>
</g>
<g>
	
		<linearGradient id="SVGID_5_" gradientUnits="userSpaceOnUse" x1="999.1" y1="-69.25" x2="1270.5" y2="-69.25" gradientTransform="matrix(1 0 0 1 0 936)">
		<stop  offset="0" style="stop-color:#19B252"/>
		<stop  offset="0.9966" style="stop-color:#C3D82E"/>
	</linearGradient>
	<polygon class="st9" points="1173.8,1006.2 999.1,1003.3 1095.7,727.3 1270.5,730.2 	"/>
	<g>
		<path class="st1" d="M1462.8,466.8H825.3c-7.6,0-13.8,6.2-13.8,13.8v344.9c0,7.6,6.2,13.8,13.8,13.8H1098l46,79.7l46-79.7h272.7
			c7.6,0,13.8-6.2,13.8-13.8V480.6C1476.6,473,1470.4,466.8,1462.8,466.8z"/>
		<text transform="matrix(1 0 0 1 1053 607.9111)" class="st2 st3 st4">UNMT</text>
		<text transform="matrix(1 0 0 1 1026.3346 677.0222)" class="st2 st3 st4">35 vagas</text>
		<text transform="matrix(1 0 0 1 999.7346 749.0222)" class="st5 st3 st4">Saiba mais</text>
	</g>
</g>
<g>
	
		<linearGradient id="SVGID_6_" gradientUnits="userSpaceOnUse" x1="572.1" y1="243.1" x2="1533.9" y2="243.1" gradientTransform="matrix(1 0 0 -1 0 1436)">
		<stop  offset="1.263790e-03" style="stop-color:#00B4BE"/>
		<stop  offset="0.9989" style="stop-color:#92C03F"/>
	</linearGradient>
	<polygon class="st10" points="1229.2,955.7 1186.6,1077.4 778.7,1074.5 821.6,952 670.8,950.6 572.1,1235.8 733.6,1237.3 
		667.8,1427.2 1104.6,1435.2 1171.7,1241.3 1435.2,1243.7 1533.9,958.5 	"/>
	<g>
		<path class="st1" d="M1316.6,814.6H719.1c-7.6,0-13.8,6.2-13.8,13.8v344.9c0,7.6,6.2,13.8,13.8,13.8h252.7l46,79.7l46-79.7h252.7
			c7.6,0,13.8-6.2,13.8-13.8V828.4C1330.4,820.8,1324.2,814.6,1316.6,814.6z"/>
		<text transform="matrix(1 0 0 1 941.6333 940.828)" class="st2 st3 st4">UNSL</text>
		<text transform="matrix(1 0 0 1 896.1037 1012.828)" class="st2 st3 st4">16 vagas</text>
		<text transform="matrix(1 0 0 1 869.5037 1084.828)" class="st5 st3 st4">Saiba mais</text>
	</g>
</g>
</svg>
