<?xml version="1.0" encoding="utf-8"?>
<!-- Generator: Adobe Illustrator 23.0.1, SVG Export Plug-In . SVG Version: 6.00 Build 0)  -->
<svg version="1.1" id="Layer_1" xmlns="http://www.w3.org/2000/svg" xmlns:xlink="http://www.w3.org/1999/xlink" x="0px" y="0px"
	 viewBox="0 0 1795.4 1435.2" style="enable-background:new 0 0 1795.4 1435.2;" xml:space="preserve">
<style type="text/css">
	.st0{fill:url(#SVGID_1_);}
	.st1{fill:url(#SVGID_2_);}
	.st2{fill:url(#SVGID_3_);}
	.st3{fill:url(#SVGID_4_);}
	.st4{fill:url(#SVGID_5_);}
	.st5{fill:url(#SVGID_6_);}
</style>
<linearGradient id="SVGID_1_" gradientUnits="userSpaceOnUse" x1="572.1154" y1="1192.8722" x2="1533.8665" y2="1192.8722">
	<stop  offset="1.263790e-03" style="stop-color:#00B4BE"/>
	<stop  offset="0.9989" style="stop-color:#92C03F"/>
</linearGradient>
<polygon class="st0" points="1533.9,958.5 670.8,950.6 572.1,1235.8 733.6,1237.3 667.8,1427.2 1104.6,1435.2 1171.7,1241.3 
	1435.2,1243.7 "/>
<linearGradient id="SVGID_2_" gradientUnits="userSpaceOnUse" x1="778.7232" y1="765.4567" x2="1403.4612" y2="765.4567">
	<stop  offset="0" style="stop-color:#FAB8A6"/>
	<stop  offset="1" style="stop-color:#EF5C72"/>
</linearGradient>
<polygon class="st1" points="1403.5,456.4 995.6,453.5 862.7,827.8 865.1,827.8 778.7,1074.5 1186.6,1077.4 1283.2,801.5 
	1283,801.5 "/>
<linearGradient id="SVGID_3_" gradientUnits="userSpaceOnUse" x1="578.7938" y1="233.4096" x2="1540.5437" y2="233.4096">
	<stop  offset="0" style="stop-color:#F9BF14"/>
	<stop  offset="1" style="stop-color:#EB9B22"/>
</linearGradient>
<polygon class="st2" points="1372.6,180 1432.1,8 817.7,0 757.4,174.4 677.5,173.6 578.8,458.9 1441.8,466.8 1540.5,181.6 "/>
<linearGradient id="SVGID_4_" gradientUnits="userSpaceOnUse" x1="1061.8646" y1="612.9662" x2="1795.4052" y2="612.9662">
	<stop  offset="0" style="stop-color:#9E7AB6"/>
	<stop  offset="1" style="stop-color:#9C5C86"/>
</linearGradient>
<polygon class="st3" points="1534.2,990 1061.9,982 1323.1,236 1795.4,243.9 "/>
<linearGradient id="SVGID_5_" gradientUnits="userSpaceOnUse" x1="999.1087" y1="866.742" x2="1270.4647" y2="866.742">
	<stop  offset="0" style="stop-color:#19B252"/>
	<stop  offset="0.9966" style="stop-color:#C3D82E"/>
</linearGradient>
<polygon class="st4" points="1173.8,1006.2 999.1,1003.3 1095.7,727.3 1270.5,730.2 "/>
<linearGradient id="SVGID_6_" gradientUnits="userSpaceOnUse" x1="0" y1="730.1656" x2="1037.439" y2="730.1656">
	<stop  offset="0" style="stop-color:#FCB715"/>
	<stop  offset="1" style="stop-color:#EF5C72"/>
</linearGradient>
<polygon class="st5" points="636.2,454.1 559.2,676.5 98.7,672.3 0,957.5 172.8,959.1 157.4,1003.3 332.1,1006.2 348,960.7 
	863.1,965.5 938.5,747.3 938.7,747.3 1037.4,462.1 "/>
</svg>
