<?xml version="1.0" encoding="utf-8"?>
<!-- Generator: Adobe Illustrator 23.0.1, SVG Export Plug-In . SVG Version: 6.00 Build 0)  -->
<svg version="1.1" id="Layer_1" xmlns="http://www.w3.org/2000/svg" xmlns:xlink="http://www.w3.org/1999/xlink" x="0px" y="0px"
	 viewBox="0 0 453.3 42.6" style="enable-background:new 0 0 453.3 42.6;" xml:space="preserve">
<style type="text/css">
	.st0{fill:none;stroke:#FFFFFF;stroke-width:2;stroke-miterlimit:10;}
</style>
<g>
	<g>
		<path class="st0" d="M32.1,15c0-2.6-0.6-4.9-1.9-7c-1.3-2.1-3.1-3.6-5.4-4.7c-2.3-1.1-5-1.7-8-1.7H1V41h9.5V27.6h6.1
			c4.8,0,8.6-1.2,11.3-3.5C30.7,21.9,32.1,18.8,32.1,15z M21,18.9c-1,0.9-2.4,1.4-4.2,1.4h-6.2V8.9h6.3c1.7,0,3.1,0.6,4.1,1.7
			c1,1.1,1.5,2.6,1.5,4.4C22.4,16.7,21.9,18,21,18.9z M42.6,1.6L28.1,41h10.2l2.3-7.4h13l2.3,7.4h10.2L51.6,1.6H42.6z M42.9,26.3
			l4.2-13.7l4.3,13.7H42.9z M96.7,20.3c1.1-1.8,1.7-4.1,1.7-6.8c0-3.8-1.3-6.7-4-8.8c-2.6-2.1-6.3-3.1-11-3.1H67.9V41h9.5v-14h5.2
			l7,14h10.2v-0.4l-8.2-15.9C93.8,23.6,95.6,22.1,96.7,20.3z M87.5,18.3c-0.9,1-2.3,1.4-4.1,1.4h-6V8.9h6c1.8,0,3.1,0.5,4.1,1.5
			c0.9,1,1.4,2.3,1.4,4C88.9,16.1,88.4,17.4,87.5,18.3z M114.4,1.6L99.9,41h10.2l2.3-7.4h13l2.3,7.4h10.2L123.4,1.6H114.4z
			 M114.7,26.3l4.2-13.7l4.3,13.7H114.7z M183.5,15c0-2.6-0.6-4.9-1.9-7c-1.3-2.1-3.1-3.6-5.4-4.7c-2.3-1.1-5-1.7-8-1.7h-15.7V41
			h9.5V27.6h6.1c4.8,0,8.6-1.2,11.3-3.5C182.1,21.9,183.5,18.8,183.5,15z M172.4,18.9c-1,0.9-2.4,1.4-4.2,1.4h-6.2V8.9h6.3
			c1.7,0,3.1,0.6,4.1,1.7c1,1.1,1.5,2.6,1.5,4.4C173.8,16.7,173.3,18,172.4,18.9z M194,1.6L179.5,41h10.2l2.3-7.4h13l2.3,7.4h10.2
			L203,1.6H194z M194.3,26.3l4.2-13.7l4.3,13.7H194.3z M248.1,20.3c1.1-1.8,1.7-4.1,1.7-6.8c0-3.8-1.3-6.7-4-8.8
			c-2.6-2.1-6.3-3.1-11-3.1h-15.5V41h9.5v-14h5.2l7,14h10.2v-0.4l-8.2-15.9C245.3,23.6,247,22.1,248.1,20.3z M238.9,18.3
			c-0.9,1-2.3,1.4-4.1,1.4h-6V8.9h6c1.8,0,3.1,0.5,4.1,1.5c0.9,1,1.4,2.3,1.4,4C240.3,16.1,239.8,17.4,238.9,18.3z M251.1,8.9h11.6
			V41h9.5V8.9H284V1.6h-33V8.9z M287.6,41h9.5V1.6h-9.5V41z M312.9,11.1c1.1-1.8,2.8-2.7,5.2-2.7c2.3,0,4.1,0.5,5.2,1.6
			c1.1,1,1.7,2.8,1.8,5.2h9.5c-0.4-4.4-2.1-7.9-5-10.4c-2.9-2.5-6.8-3.8-11.5-3.8c-3.3,0-6.3,0.8-8.8,2.4c-2.5,1.6-4.5,3.8-5.8,6.7
			c-1.3,2.9-2,6.3-2,10.2v2c0,6.2,1.5,10.9,4.5,14.3c3,3.4,7.1,5.1,12.3,5.1c3.1,0,5.9-0.6,8.4-1.7c2.4-1.2,4.4-2.8,5.7-4.9
			c1.4-2.1,2.1-4.5,2.2-7.3h-9.5c-0.1,2.2-0.7,3.9-1.8,4.9c-1.2,1-2.8,1.5-5,1.5c-2.6,0-4.4-0.9-5.5-2.7c-1.1-1.8-1.6-4.8-1.6-9
			v-2.8C311.2,15.7,311.8,12.9,312.9,11.1z M338.6,41h9.5V1.6h-9.5V41z M384.6,15c0-2.6-0.6-4.9-1.9-7c-1.3-2.1-3.1-3.6-5.4-4.7
			c-2.3-1.1-5-1.7-8-1.7h-15.7V41h9.5V27.6h6.1c4.8,0,8.6-1.2,11.3-3.5C383.2,21.9,384.6,18.8,384.6,15z M373.5,18.9
			c-1,0.9-2.4,1.4-4.2,1.4h-6.2V8.9h6.3c1.7,0,3.1,0.6,4.1,1.7c1,1.1,1.5,2.6,1.5,4.4C375,16.7,374.5,18,373.5,18.9z M395.2,1.6
			L380.7,41h10.2l2.3-7.4h13l2.3,7.4h10.2L404.1,1.6H395.2z M395.4,26.3l4.2-13.7l4.3,13.7H395.4z M444,24.7
			c2.4-1.1,4.1-2.6,5.2-4.4c1.1-1.8,1.7-4.1,1.7-6.8c0-3.8-1.3-6.7-4-8.8c-2.6-2.1-6.3-3.1-11-3.1h-15.5V41h9.5v-14h5.2l7,14h10.2
			v-0.4L444,24.7z M440.1,18.3c-0.9,1-2.3,1.4-4.1,1.4h-6V8.9h6c1.8,0,3.1,0.5,4.1,1.5c0.9,1,1.4,2.3,1.4,4
			C441.4,16.1,441,17.4,440.1,18.3z"/>
	</g>
</g>
</svg>
