<?xml version="1.0" encoding="utf-8"?>
<!-- Generator: Adobe Illustrator 23.0.1, SVG Export Plug-In . SVG Version: 6.00 Build 0)  -->
<svg version="1.1" id="Vrstva_1" xmlns="http://www.w3.org/2000/svg" xmlns:xlink="http://www.w3.org/1999/xlink" x="0px" y="0px"
	 viewBox="0 0 40.7 40.7" style="enable-background:new 0 0 40.7 40.7;" xml:space="preserve">
<style type="text/css">
	.st0{fill:#FFFFFF;}
</style>
<g>
	<polygon class="st0" points="23.8,20.3 16.2,28 18.3,30.1 28.1,20.3 18.3,10.6 16.2,12.7 	"/>
	<path class="st0" d="M20.3,40.7C9.1,40.7,0,31.5,0,20.3S9.1,0,20.3,0c11.2,0,20.3,9.1,20.3,20.3S31.5,40.7,20.3,40.7z M20.3,0.6
		C9.5,0.6,0.6,9.5,0.6,20.3c0,10.9,8.9,19.7,19.7,19.7c10.9,0,19.7-8.9,19.7-19.7C40.1,9.5,31.2,0.6,20.3,0.6z"/>
</g>
</svg>
