<?xml version="1.0" encoding="utf-8"?>
<!-- Generator: Adobe Illustrator 23.0.1, SVG Export Plug-In . SVG Version: 6.00 Build 0)  -->
<svg version="1.1" id="Layer_1" xmlns="http://www.w3.org/2000/svg" xmlns:xlink="http://www.w3.org/1999/xlink" x="0px" y="0px"
	 viewBox="0 0 218 51.6" style="enable-background:new 0 0 218 51.6;" xml:space="preserve">
<style type="text/css">
	.st0{fill:none;stroke:#FFFFFF;stroke-width:2;stroke-linecap:round;stroke-linejoin:round;stroke-miterlimit:10;}
</style>
<g>
	<g>
		<path class="st0" d="M33.1,1.7l-9.6,35.1L13.9,1.7H1L17.1,50h12.7L46.1,1.7H33.1z M59.7,1.7L42,50h12.4l2.8-9h15.9l2.8,9h12.5
			L70.6,1.7H59.7z M60,32l5.2-16.7L70.4,32H60z M110.4,32.2h8.1v7.5c-1.5,1.3-3.7,2-6.8,2c-3.5,0-6.1-1.2-7.8-3.6
			c-1.6-2.4-2.5-6-2.5-10.9v-2.9c0-4.6,0.8-8.1,2.4-10.6c1.6-2.5,3.8-3.7,6.8-3.7c2.4,0,4.3,0.6,5.6,1.7c1.3,1.1,2.2,3.1,2.6,5.8
			h11.2c-0.6-5.5-2.5-9.6-5.8-12.3c-3.3-2.8-8-4.1-14-4.1c-4.1,0-7.7,1-10.9,2.9c-3.1,1.9-5.5,4.6-7.2,8.2
			c-1.7,3.5-2.5,7.7-2.5,12.4l0,4.2C90,35.6,92,41,95.8,44.8c3.8,3.9,8.8,5.8,15.1,5.8c4.1,0,7.9-0.6,11.3-1.8
			c3.4-1.2,6.1-2.8,7.9-4.8V24.2h-19.7V32.2z M149.5,1.7L131.8,50h12.4l2.8-9H163l2.8,9h12.5L160.4,1.7H149.5z M149.8,32l5.2-16.7
			l5.2,16.7H149.8z M209.1,24.6c-2.1-1.2-4.9-2.4-8.2-3.5c-3.3-1.1-5.7-2.1-7-3.1c-1.3-1-2-2.1-2-3.4c0-1.4,0.6-2.6,1.8-3.5
			c1.2-0.9,2.8-1.4,4.9-1.4c2.1,0,3.7,0.5,4.9,1.6c1.2,1.1,1.8,2.6,1.8,4.6H217c0-2.9-0.8-5.6-2.3-7.8c-1.5-2.3-3.7-4-6.4-5.3
			c-2.8-1.2-5.9-1.9-9.3-1.9c-3.6,0-6.8,0.6-9.6,1.7c-2.9,1.1-5.1,2.7-6.6,4.8c-1.6,2-2.3,4.4-2.3,7.1c0,5.4,3.1,9.6,9.4,12.7
			c1.9,1,4.4,1.9,7.4,3c3,1,5.1,2,6.3,3c1.2,1,1.8,2.3,1.8,4c0,1.5-0.6,2.7-1.7,3.5c-1.1,0.8-2.6,1.2-4.6,1.2c-3,0-5.2-0.6-6.5-1.8
			c-1.3-1.2-2-3.1-2-5.7h-11.7c0,3.2,0.8,6,2.4,8.4c1.6,2.4,4,4.4,7.2,5.8c3.2,1.4,6.7,2.1,10.6,2.1c5.5,0,9.9-1.2,13.1-3.6
			c3.2-2.4,4.8-5.7,4.8-9.9C217,31.8,214.4,27.6,209.1,24.6z"/>
	</g>
</g>
</svg>
